G04 #@! TF.FileFunction,Copper,L1,Top,Signal*
%FSLAX46Y46*%
G04 Gerber Fmt 4.6, Leading zero omitted, Abs format (unit mm)*
G04 Created by KiCad (PCBNEW 4.0.1-stable) date 2016-05-02 16:33:35*
%MOMM*%
G01*
G04 APERTURE LIST*
%ADD10C,0.100000*%
%ADD11R,1.727200X1.727200*%
%ADD12O,1.727200X1.727200*%
%ADD13R,2.235200X2.235200*%
%ADD14C,4.064000*%
%ADD15C,0.254000*%
G04 APERTURE END LIST*
D10*
D11*
X48260000Y-30480000D03*
D12*
X48260000Y-33020000D03*
X50800000Y-30480000D03*
X50800000Y-33020000D03*
X53340000Y-30480000D03*
X53340000Y-33020000D03*
X55880000Y-30480000D03*
X55880000Y-33020000D03*
X58420000Y-30480000D03*
X58420000Y-33020000D03*
X60960000Y-30480000D03*
X60960000Y-33020000D03*
X63500000Y-30480000D03*
X63500000Y-33020000D03*
X66040000Y-30480000D03*
X66040000Y-33020000D03*
D13*
X48260000Y-55880000D03*
X48260000Y-81280000D03*
X48260000Y-106680000D03*
X48260000Y-132080000D03*
X48260000Y-157480000D03*
X48260000Y-182880000D03*
X48260000Y-208280000D03*
X48260000Y-233680000D03*
X73660000Y-55880000D03*
X73660000Y-81280000D03*
X73660000Y-106680000D03*
X73660000Y-132080000D03*
X73660000Y-157480000D03*
X73660000Y-182880000D03*
X73660000Y-208280000D03*
X73660000Y-233680000D03*
D11*
X99060000Y-30480000D03*
D12*
X99060000Y-33020000D03*
X101600000Y-30480000D03*
X101600000Y-33020000D03*
X104140000Y-30480000D03*
X104140000Y-33020000D03*
X106680000Y-30480000D03*
X106680000Y-33020000D03*
X109220000Y-30480000D03*
X109220000Y-33020000D03*
X111760000Y-30480000D03*
X111760000Y-33020000D03*
X114300000Y-30480000D03*
X114300000Y-33020000D03*
X116840000Y-30480000D03*
X116840000Y-33020000D03*
D13*
X99060000Y-55880000D03*
X99060000Y-81280000D03*
X99060000Y-106680000D03*
X99060000Y-132080000D03*
X99060000Y-157480000D03*
X99060000Y-182880000D03*
X99060000Y-208280000D03*
X99060000Y-233680000D03*
X124460000Y-55880000D03*
X124460000Y-81280000D03*
X124460000Y-106680000D03*
X124460000Y-132080000D03*
X124460000Y-157480000D03*
X124460000Y-182880000D03*
X124460000Y-208280000D03*
X124460000Y-233680000D03*
D11*
X149860000Y-30480000D03*
D12*
X149860000Y-33020000D03*
X152400000Y-30480000D03*
X152400000Y-33020000D03*
X154940000Y-30480000D03*
X154940000Y-33020000D03*
X157480000Y-30480000D03*
X157480000Y-33020000D03*
X160020000Y-30480000D03*
X160020000Y-33020000D03*
X162560000Y-30480000D03*
X162560000Y-33020000D03*
X165100000Y-30480000D03*
X165100000Y-33020000D03*
X167640000Y-30480000D03*
X167640000Y-33020000D03*
D13*
X149860000Y-55880000D03*
X149860000Y-81280000D03*
X149860000Y-106680000D03*
X149860000Y-132080000D03*
X149860000Y-157480000D03*
X149860000Y-182880000D03*
X149860000Y-208280000D03*
X149860000Y-233680000D03*
X175260000Y-55880000D03*
X175260000Y-81280000D03*
X175260000Y-106680000D03*
X175260000Y-132080000D03*
X175260000Y-157480000D03*
X175260000Y-182880000D03*
X175260000Y-208280000D03*
X175260000Y-233680000D03*
D11*
X200660000Y-30480000D03*
D12*
X200660000Y-33020000D03*
X203200000Y-30480000D03*
X203200000Y-33020000D03*
X205740000Y-30480000D03*
X205740000Y-33020000D03*
X208280000Y-30480000D03*
X208280000Y-33020000D03*
X210820000Y-30480000D03*
X210820000Y-33020000D03*
X213360000Y-30480000D03*
X213360000Y-33020000D03*
X215900000Y-30480000D03*
X215900000Y-33020000D03*
X218440000Y-30480000D03*
X218440000Y-33020000D03*
D13*
X200660000Y-55880000D03*
X200660000Y-81280000D03*
X200660000Y-106680000D03*
X200660000Y-132080000D03*
X200660000Y-157480000D03*
X200660000Y-182880000D03*
X200660000Y-208280000D03*
X200660000Y-233680000D03*
X226060000Y-55880000D03*
X226060000Y-81280000D03*
X226060000Y-106680000D03*
X226060000Y-132080000D03*
X226060000Y-157480000D03*
X226060000Y-182880000D03*
X226060000Y-208280000D03*
X226060000Y-233680000D03*
D14*
X30480000Y-27940000D03*
X30480000Y-55880000D03*
X30480000Y-83820000D03*
X30480000Y-111760000D03*
X30480000Y-139700000D03*
X30480000Y-167640000D03*
X30480000Y-195580000D03*
X30480000Y-223520000D03*
X55880000Y-251460000D03*
X83820000Y-251460000D03*
X111760000Y-251460000D03*
X139700000Y-251460000D03*
X167640000Y-251460000D03*
X195580000Y-251460000D03*
X223520000Y-251460000D03*
X243840000Y-223520000D03*
X243840000Y-195580000D03*
X243840000Y-167640000D03*
X243840000Y-139700000D03*
X243840000Y-111760000D03*
X243840000Y-83820000D03*
X243840000Y-55880000D03*
X243840000Y-27940000D03*
X187960000Y-27940000D03*
X137160000Y-27940000D03*
X86360000Y-27940000D03*
D15*
X47793100Y-31724900D02*
X48260000Y-31724900D01*
X47015100Y-32502900D02*
X47793100Y-31724900D01*
X47015100Y-53136200D02*
X47015100Y-32502900D01*
X48260000Y-54381100D02*
X47015100Y-53136200D01*
X48260000Y-55880000D02*
X48260000Y-54381100D01*
X48260000Y-30480000D02*
X48260000Y-31724900D01*
X48260000Y-46771700D02*
X48260000Y-33020000D01*
X49759000Y-48270700D02*
X48260000Y-46771700D01*
X49759000Y-78282100D02*
X49759000Y-48270700D01*
X48260000Y-79781100D02*
X49759000Y-78282100D01*
X48260000Y-81280000D02*
X48260000Y-79781100D01*
X48260000Y-106680000D02*
X48260000Y-105181100D01*
X50800000Y-30480000D02*
X50800000Y-31724900D01*
X50284200Y-31724900D02*
X50800000Y-31724900D01*
X49530000Y-32479100D02*
X50284200Y-31724900D01*
X49530000Y-42608500D02*
X49530000Y-32479100D01*
X50280700Y-43359200D02*
X49530000Y-42608500D01*
X50280700Y-103160400D02*
X50280700Y-43359200D01*
X48260000Y-105181100D02*
X50280700Y-103160400D01*
X48260000Y-132080000D02*
X48260000Y-130581100D01*
X50800000Y-128041100D02*
X50800000Y-34264900D01*
X48260000Y-130581100D02*
X50800000Y-128041100D01*
X50800000Y-33020000D02*
X50800000Y-34264900D01*
X52824200Y-31724900D02*
X53340000Y-31724900D01*
X52070000Y-32479100D02*
X52824200Y-31724900D01*
X52070000Y-152171100D02*
X52070000Y-32479100D01*
X48260000Y-155981100D02*
X52070000Y-152171100D01*
X48260000Y-157480000D02*
X48260000Y-155981100D01*
X53340000Y-30480000D02*
X53340000Y-31724900D01*
X53340000Y-176301100D02*
X53340000Y-33020000D01*
X48260000Y-181381100D02*
X53340000Y-176301100D01*
X48260000Y-182880000D02*
X48260000Y-181381100D01*
X55364200Y-31724900D02*
X55880000Y-31724900D01*
X54610000Y-32479100D02*
X55364200Y-31724900D01*
X54610000Y-200431100D02*
X54610000Y-32479100D01*
X48260000Y-206781100D02*
X54610000Y-200431100D01*
X48260000Y-208280000D02*
X48260000Y-206781100D01*
X55880000Y-30480000D02*
X55880000Y-31724900D01*
X55880000Y-224561100D02*
X55880000Y-33020000D01*
X48260000Y-232181100D02*
X55880000Y-224561100D01*
X48260000Y-233680000D02*
X48260000Y-232181100D01*
X61046200Y-26608900D02*
X58420000Y-29235100D01*
X67836700Y-26608900D02*
X61046200Y-26608900D01*
X73660000Y-32432200D02*
X67836700Y-26608900D01*
X73660000Y-55880000D02*
X73660000Y-32432200D01*
X58420000Y-30480000D02*
X58420000Y-29235100D01*
X58420000Y-33020000D02*
X58420000Y-31775100D01*
X73660000Y-81280000D02*
X73660000Y-79781100D01*
X72161100Y-78282200D02*
X73660000Y-79781100D01*
X72161100Y-31716200D02*
X72161100Y-78282200D01*
X67562200Y-27117300D02*
X72161100Y-31716200D01*
X62359100Y-27117300D02*
X67562200Y-27117300D01*
X59690000Y-29786400D02*
X62359100Y-27117300D01*
X59690000Y-31020900D02*
X59690000Y-29786400D01*
X58935800Y-31775100D02*
X59690000Y-31020900D01*
X58420000Y-31775100D02*
X58935800Y-31775100D01*
X60960000Y-30480000D02*
X60960000Y-29235100D01*
X73660000Y-106680000D02*
X73660000Y-105181100D01*
X71652800Y-103173900D02*
X73660000Y-105181100D01*
X71652800Y-31992500D02*
X71652800Y-103173900D01*
X67291900Y-27631600D02*
X71652800Y-31992500D01*
X62563500Y-27631600D02*
X67291900Y-27631600D01*
X60960000Y-29235100D02*
X62563500Y-27631600D01*
X60960000Y-33020000D02*
X60960000Y-31775100D01*
X73660000Y-132080000D02*
X73660000Y-130581100D01*
X71144500Y-128065600D02*
X73660000Y-130581100D01*
X71144500Y-32275000D02*
X71144500Y-128065600D01*
X67009500Y-28140000D02*
X71144500Y-32275000D01*
X64078100Y-28140000D02*
X67009500Y-28140000D01*
X62230000Y-29988100D02*
X64078100Y-28140000D01*
X62230000Y-31020900D02*
X62230000Y-29988100D01*
X61475800Y-31775100D02*
X62230000Y-31020900D01*
X60960000Y-31775100D02*
X61475800Y-31775100D01*
X65304500Y-28675500D02*
X63500000Y-30480000D01*
X66826000Y-28675500D02*
X65304500Y-28675500D01*
X70636100Y-32485600D02*
X66826000Y-28675500D01*
X70636100Y-152957200D02*
X70636100Y-32485600D01*
X73660000Y-155981100D02*
X70636100Y-152957200D01*
X73660000Y-157480000D02*
X73660000Y-155981100D01*
X63500000Y-33020000D02*
X63500000Y-31775100D01*
X73660000Y-182880000D02*
X73660000Y-181381100D01*
X69619600Y-177340700D02*
X73660000Y-181381100D01*
X69619600Y-32225700D02*
X69619600Y-177340700D01*
X66616600Y-29222700D02*
X69619600Y-32225700D01*
X65488700Y-29222700D02*
X66616600Y-29222700D01*
X64770000Y-29941400D02*
X65488700Y-29222700D01*
X64770000Y-31020900D02*
X64770000Y-29941400D01*
X64015800Y-31775100D02*
X64770000Y-31020900D01*
X63500000Y-31775100D02*
X64015800Y-31775100D01*
X73660000Y-208280000D02*
X73660000Y-206781100D01*
X66040000Y-30480000D02*
X66040000Y-31724900D01*
X69111300Y-202232400D02*
X73660000Y-206781100D01*
X69111300Y-34280400D02*
X69111300Y-202232400D01*
X66555800Y-31724900D02*
X69111300Y-34280400D01*
X66040000Y-31724900D02*
X66555800Y-31724900D01*
X66040000Y-224561100D02*
X66040000Y-33020000D01*
X73660000Y-232181100D02*
X66040000Y-224561100D01*
X73660000Y-233680000D02*
X73660000Y-232181100D01*
X98593100Y-31724900D02*
X99060000Y-31724900D01*
X97815100Y-32502900D02*
X98593100Y-31724900D01*
X97815100Y-53136200D02*
X97815100Y-32502900D01*
X99060000Y-54381100D02*
X97815100Y-53136200D01*
X99060000Y-55880000D02*
X99060000Y-54381100D01*
X99060000Y-30480000D02*
X99060000Y-31724900D01*
X99060000Y-46771700D02*
X99060000Y-33020000D01*
X100559000Y-48270700D02*
X99060000Y-46771700D01*
X100559000Y-78282100D02*
X100559000Y-48270700D01*
X99060000Y-79781100D02*
X100559000Y-78282100D01*
X99060000Y-81280000D02*
X99060000Y-79781100D01*
X99060000Y-106680000D02*
X99060000Y-105181100D01*
X101600000Y-30480000D02*
X101600000Y-31724900D01*
X101084200Y-31724900D02*
X101600000Y-31724900D01*
X100330000Y-32479100D02*
X101084200Y-31724900D01*
X100330000Y-42608500D02*
X100330000Y-32479100D01*
X101080700Y-43359200D02*
X100330000Y-42608500D01*
X101080700Y-103160400D02*
X101080700Y-43359200D01*
X99060000Y-105181100D02*
X101080700Y-103160400D01*
X99060000Y-132080000D02*
X99060000Y-130581100D01*
X101600000Y-128041100D02*
X101600000Y-34264900D01*
X99060000Y-130581100D02*
X101600000Y-128041100D01*
X101600000Y-33020000D02*
X101600000Y-34264900D01*
X103624200Y-31724900D02*
X104140000Y-31724900D01*
X102870000Y-32479100D02*
X103624200Y-31724900D01*
X102870000Y-152171100D02*
X102870000Y-32479100D01*
X99060000Y-155981100D02*
X102870000Y-152171100D01*
X99060000Y-157480000D02*
X99060000Y-155981100D01*
X104140000Y-30480000D02*
X104140000Y-31724900D01*
X104140000Y-176301100D02*
X104140000Y-33020000D01*
X99060000Y-181381100D02*
X104140000Y-176301100D01*
X99060000Y-182880000D02*
X99060000Y-181381100D01*
X106164200Y-31724900D02*
X106680000Y-31724900D01*
X105410000Y-32479100D02*
X106164200Y-31724900D01*
X105410000Y-200431100D02*
X105410000Y-32479100D01*
X99060000Y-206781100D02*
X105410000Y-200431100D01*
X99060000Y-208280000D02*
X99060000Y-206781100D01*
X106680000Y-30480000D02*
X106680000Y-31724900D01*
X106680000Y-224561100D02*
X106680000Y-33020000D01*
X99060000Y-232181100D02*
X106680000Y-224561100D01*
X99060000Y-233680000D02*
X99060000Y-232181100D01*
X111846200Y-26608900D02*
X109220000Y-29235100D01*
X118636700Y-26608900D02*
X111846200Y-26608900D01*
X124460000Y-32432200D02*
X118636700Y-26608900D01*
X124460000Y-55880000D02*
X124460000Y-32432200D01*
X109220000Y-30480000D02*
X109220000Y-29235100D01*
X109220000Y-33020000D02*
X109220000Y-31775100D01*
X124460000Y-81280000D02*
X124460000Y-79781100D01*
X122961100Y-78282200D02*
X124460000Y-79781100D01*
X122961100Y-31716200D02*
X122961100Y-78282200D01*
X118362200Y-27117300D02*
X122961100Y-31716200D01*
X113159100Y-27117300D02*
X118362200Y-27117300D01*
X110490000Y-29786400D02*
X113159100Y-27117300D01*
X110490000Y-31020900D02*
X110490000Y-29786400D01*
X109735800Y-31775100D02*
X110490000Y-31020900D01*
X109220000Y-31775100D02*
X109735800Y-31775100D01*
X111760000Y-30480000D02*
X111760000Y-29235100D01*
X124460000Y-106680000D02*
X124460000Y-105181100D01*
X122452800Y-103173900D02*
X124460000Y-105181100D01*
X122452800Y-31992500D02*
X122452800Y-103173900D01*
X118091900Y-27631600D02*
X122452800Y-31992500D01*
X113363500Y-27631600D02*
X118091900Y-27631600D01*
X111760000Y-29235100D02*
X113363500Y-27631600D01*
X111760000Y-33020000D02*
X111760000Y-31775100D01*
X124460000Y-132080000D02*
X124460000Y-130581100D01*
X121944500Y-128065600D02*
X124460000Y-130581100D01*
X121944500Y-32275000D02*
X121944500Y-128065600D01*
X117809500Y-28140000D02*
X121944500Y-32275000D01*
X114878100Y-28140000D02*
X117809500Y-28140000D01*
X113030000Y-29988100D02*
X114878100Y-28140000D01*
X113030000Y-31020900D02*
X113030000Y-29988100D01*
X112275800Y-31775100D02*
X113030000Y-31020900D01*
X111760000Y-31775100D02*
X112275800Y-31775100D01*
X116104500Y-28675500D02*
X114300000Y-30480000D01*
X117626000Y-28675500D02*
X116104500Y-28675500D01*
X121436100Y-32485600D02*
X117626000Y-28675500D01*
X121436100Y-152957200D02*
X121436100Y-32485600D01*
X124460000Y-155981100D02*
X121436100Y-152957200D01*
X124460000Y-157480000D02*
X124460000Y-155981100D01*
X114300000Y-33020000D02*
X114300000Y-31775100D01*
X124460000Y-182880000D02*
X124460000Y-181381100D01*
X120419600Y-177340700D02*
X124460000Y-181381100D01*
X120419600Y-32225700D02*
X120419600Y-177340700D01*
X117416600Y-29222700D02*
X120419600Y-32225700D01*
X116288700Y-29222700D02*
X117416600Y-29222700D01*
X115570000Y-29941400D02*
X116288700Y-29222700D01*
X115570000Y-31020900D02*
X115570000Y-29941400D01*
X114815800Y-31775100D02*
X115570000Y-31020900D01*
X114300000Y-31775100D02*
X114815800Y-31775100D01*
X124460000Y-208280000D02*
X124460000Y-206781100D01*
X116840000Y-30480000D02*
X116840000Y-31724900D01*
X119911300Y-202232400D02*
X124460000Y-206781100D01*
X119911300Y-34280400D02*
X119911300Y-202232400D01*
X117355800Y-31724900D02*
X119911300Y-34280400D01*
X116840000Y-31724900D02*
X117355800Y-31724900D01*
X116840000Y-224561100D02*
X116840000Y-33020000D01*
X124460000Y-232181100D02*
X116840000Y-224561100D01*
X124460000Y-233680000D02*
X124460000Y-232181100D01*
X149393100Y-31724900D02*
X149860000Y-31724900D01*
X148615100Y-32502900D02*
X149393100Y-31724900D01*
X148615100Y-53136200D02*
X148615100Y-32502900D01*
X149860000Y-54381100D02*
X148615100Y-53136200D01*
X149860000Y-55880000D02*
X149860000Y-54381100D01*
X149860000Y-30480000D02*
X149860000Y-31724900D01*
X149860000Y-46771700D02*
X149860000Y-33020000D01*
X151359000Y-48270700D02*
X149860000Y-46771700D01*
X151359000Y-78282100D02*
X151359000Y-48270700D01*
X149860000Y-79781100D02*
X151359000Y-78282100D01*
X149860000Y-81280000D02*
X149860000Y-79781100D01*
X149860000Y-106680000D02*
X149860000Y-105181100D01*
X152400000Y-30480000D02*
X152400000Y-31724900D01*
X151884200Y-31724900D02*
X152400000Y-31724900D01*
X151130000Y-32479100D02*
X151884200Y-31724900D01*
X151130000Y-42608500D02*
X151130000Y-32479100D01*
X151880700Y-43359200D02*
X151130000Y-42608500D01*
X151880700Y-103160400D02*
X151880700Y-43359200D01*
X149860000Y-105181100D02*
X151880700Y-103160400D01*
X149860000Y-132080000D02*
X149860000Y-130581100D01*
X152400000Y-128041100D02*
X152400000Y-34264900D01*
X149860000Y-130581100D02*
X152400000Y-128041100D01*
X152400000Y-33020000D02*
X152400000Y-34264900D01*
X154424200Y-31724900D02*
X154940000Y-31724900D01*
X153670000Y-32479100D02*
X154424200Y-31724900D01*
X153670000Y-152171100D02*
X153670000Y-32479100D01*
X149860000Y-155981100D02*
X153670000Y-152171100D01*
X149860000Y-157480000D02*
X149860000Y-155981100D01*
X154940000Y-30480000D02*
X154940000Y-31724900D01*
X154940000Y-176301100D02*
X154940000Y-33020000D01*
X149860000Y-181381100D02*
X154940000Y-176301100D01*
X149860000Y-182880000D02*
X149860000Y-181381100D01*
X156964200Y-31724900D02*
X157480000Y-31724900D01*
X156210000Y-32479100D02*
X156964200Y-31724900D01*
X156210000Y-200431100D02*
X156210000Y-32479100D01*
X149860000Y-206781100D02*
X156210000Y-200431100D01*
X149860000Y-208280000D02*
X149860000Y-206781100D01*
X157480000Y-30480000D02*
X157480000Y-31724900D01*
X157480000Y-224561100D02*
X157480000Y-33020000D01*
X149860000Y-232181100D02*
X157480000Y-224561100D01*
X149860000Y-233680000D02*
X149860000Y-232181100D01*
X162646200Y-26608900D02*
X160020000Y-29235100D01*
X169436700Y-26608900D02*
X162646200Y-26608900D01*
X175260000Y-32432200D02*
X169436700Y-26608900D01*
X175260000Y-55880000D02*
X175260000Y-32432200D01*
X160020000Y-30480000D02*
X160020000Y-29235100D01*
X160020000Y-33020000D02*
X160020000Y-31775100D01*
X175260000Y-81280000D02*
X175260000Y-79781100D01*
X173761100Y-78282200D02*
X175260000Y-79781100D01*
X173761100Y-31716200D02*
X173761100Y-78282200D01*
X169162200Y-27117300D02*
X173761100Y-31716200D01*
X163959100Y-27117300D02*
X169162200Y-27117300D01*
X161290000Y-29786400D02*
X163959100Y-27117300D01*
X161290000Y-31020900D02*
X161290000Y-29786400D01*
X160535800Y-31775100D02*
X161290000Y-31020900D01*
X160020000Y-31775100D02*
X160535800Y-31775100D01*
X162560000Y-30480000D02*
X162560000Y-29235100D01*
X175260000Y-106680000D02*
X175260000Y-105181100D01*
X173252800Y-103173900D02*
X175260000Y-105181100D01*
X173252800Y-31992500D02*
X173252800Y-103173900D01*
X168891900Y-27631600D02*
X173252800Y-31992500D01*
X164163500Y-27631600D02*
X168891900Y-27631600D01*
X162560000Y-29235100D02*
X164163500Y-27631600D01*
X162560000Y-33020000D02*
X162560000Y-31775100D01*
X175260000Y-132080000D02*
X175260000Y-130581100D01*
X172744500Y-128065600D02*
X175260000Y-130581100D01*
X172744500Y-32275000D02*
X172744500Y-128065600D01*
X168609500Y-28140000D02*
X172744500Y-32275000D01*
X165678100Y-28140000D02*
X168609500Y-28140000D01*
X163830000Y-29988100D02*
X165678100Y-28140000D01*
X163830000Y-31020900D02*
X163830000Y-29988100D01*
X163075800Y-31775100D02*
X163830000Y-31020900D01*
X162560000Y-31775100D02*
X163075800Y-31775100D01*
X166904500Y-28675500D02*
X165100000Y-30480000D01*
X168426000Y-28675500D02*
X166904500Y-28675500D01*
X172236100Y-32485600D02*
X168426000Y-28675500D01*
X172236100Y-152957200D02*
X172236100Y-32485600D01*
X175260000Y-155981100D02*
X172236100Y-152957200D01*
X175260000Y-157480000D02*
X175260000Y-155981100D01*
X165100000Y-33020000D02*
X165100000Y-31775100D01*
X175260000Y-182880000D02*
X175260000Y-181381100D01*
X171219600Y-177340700D02*
X175260000Y-181381100D01*
X171219600Y-32225700D02*
X171219600Y-177340700D01*
X168216600Y-29222700D02*
X171219600Y-32225700D01*
X167088700Y-29222700D02*
X168216600Y-29222700D01*
X166370000Y-29941400D02*
X167088700Y-29222700D01*
X166370000Y-31020900D02*
X166370000Y-29941400D01*
X165615800Y-31775100D02*
X166370000Y-31020900D01*
X165100000Y-31775100D02*
X165615800Y-31775100D01*
X175260000Y-208280000D02*
X175260000Y-206781100D01*
X167640000Y-30480000D02*
X167640000Y-31724900D01*
X170711300Y-202232400D02*
X175260000Y-206781100D01*
X170711300Y-34280400D02*
X170711300Y-202232400D01*
X168155800Y-31724900D02*
X170711300Y-34280400D01*
X167640000Y-31724900D02*
X168155800Y-31724900D01*
X167640000Y-224561100D02*
X167640000Y-33020000D01*
X175260000Y-232181100D02*
X167640000Y-224561100D01*
X175260000Y-233680000D02*
X175260000Y-232181100D01*
X200193100Y-31724900D02*
X200660000Y-31724900D01*
X199415100Y-32502900D02*
X200193100Y-31724900D01*
X199415100Y-53136200D02*
X199415100Y-32502900D01*
X200660000Y-54381100D02*
X199415100Y-53136200D01*
X200660000Y-55880000D02*
X200660000Y-54381100D01*
X200660000Y-30480000D02*
X200660000Y-31724900D01*
X200660000Y-46771700D02*
X200660000Y-33020000D01*
X202159000Y-48270700D02*
X200660000Y-46771700D01*
X202159000Y-78282100D02*
X202159000Y-48270700D01*
X200660000Y-79781100D02*
X202159000Y-78282100D01*
X200660000Y-81280000D02*
X200660000Y-79781100D01*
X200660000Y-106680000D02*
X200660000Y-105181100D01*
X203200000Y-30480000D02*
X203200000Y-31724900D01*
X202684200Y-31724900D02*
X203200000Y-31724900D01*
X201930000Y-32479100D02*
X202684200Y-31724900D01*
X201930000Y-42608500D02*
X201930000Y-32479100D01*
X202680700Y-43359200D02*
X201930000Y-42608500D01*
X202680700Y-103160400D02*
X202680700Y-43359200D01*
X200660000Y-105181100D02*
X202680700Y-103160400D01*
X200660000Y-132080000D02*
X200660000Y-130581100D01*
X203200000Y-128041100D02*
X203200000Y-34264900D01*
X200660000Y-130581100D02*
X203200000Y-128041100D01*
X203200000Y-33020000D02*
X203200000Y-34264900D01*
X205224200Y-31724900D02*
X205740000Y-31724900D01*
X204470000Y-32479100D02*
X205224200Y-31724900D01*
X204470000Y-152171100D02*
X204470000Y-32479100D01*
X200660000Y-155981100D02*
X204470000Y-152171100D01*
X200660000Y-157480000D02*
X200660000Y-155981100D01*
X205740000Y-30480000D02*
X205740000Y-31724900D01*
X205740000Y-176301100D02*
X205740000Y-33020000D01*
X200660000Y-181381100D02*
X205740000Y-176301100D01*
X200660000Y-182880000D02*
X200660000Y-181381100D01*
X207764200Y-31724900D02*
X208280000Y-31724900D01*
X207010000Y-32479100D02*
X207764200Y-31724900D01*
X207010000Y-200431100D02*
X207010000Y-32479100D01*
X200660000Y-206781100D02*
X207010000Y-200431100D01*
X200660000Y-208280000D02*
X200660000Y-206781100D01*
X208280000Y-30480000D02*
X208280000Y-31724900D01*
X208280000Y-224561100D02*
X208280000Y-33020000D01*
X200660000Y-232181100D02*
X208280000Y-224561100D01*
X200660000Y-233680000D02*
X200660000Y-232181100D01*
X214691100Y-26608900D02*
X210820000Y-30480000D01*
X220064000Y-26608900D02*
X214691100Y-26608900D01*
X226060000Y-32604900D02*
X220064000Y-26608900D01*
X226060000Y-55880000D02*
X226060000Y-32604900D01*
X210820000Y-33020000D02*
X210820000Y-31775100D01*
X226060000Y-81280000D02*
X226060000Y-79781100D01*
X224561100Y-78282200D02*
X226060000Y-79781100D01*
X224561000Y-78282200D02*
X224561100Y-78282200D01*
X224561000Y-31843900D02*
X224561000Y-78282200D01*
X219834400Y-27117300D02*
X224561000Y-31843900D01*
X214948100Y-27117300D02*
X219834400Y-27117300D01*
X212090000Y-29975400D02*
X214948100Y-27117300D01*
X212090000Y-31020900D02*
X212090000Y-29975400D01*
X211335800Y-31775100D02*
X212090000Y-31020900D01*
X210820000Y-31775100D02*
X211335800Y-31775100D01*
X226060000Y-106680000D02*
X226060000Y-105181100D01*
X224052600Y-103173700D02*
X226060000Y-105181100D01*
X224052600Y-32054500D02*
X224052600Y-103173700D01*
X219629700Y-27631600D02*
X224052600Y-32054500D01*
X216208400Y-27631600D02*
X219629700Y-27631600D01*
X213360000Y-30480000D02*
X216208400Y-27631600D01*
X213360000Y-33020000D02*
X213360000Y-31775100D01*
X226060000Y-132080000D02*
X226060000Y-130581100D01*
X223036100Y-127557200D02*
X226060000Y-130581100D01*
X223036100Y-31766500D02*
X223036100Y-127557200D01*
X219409600Y-28140000D02*
X223036100Y-31766500D01*
X216478100Y-28140000D02*
X219409600Y-28140000D01*
X214630000Y-29988100D02*
X216478100Y-28140000D01*
X214630000Y-31020900D02*
X214630000Y-29988100D01*
X213875800Y-31775100D02*
X214630000Y-31020900D01*
X213360000Y-31775100D02*
X213875800Y-31775100D01*
X226060000Y-157480000D02*
X226060000Y-155981100D01*
X222527800Y-152448900D02*
X226060000Y-155981100D01*
X222527800Y-31977300D02*
X222527800Y-152448900D01*
X219226000Y-28675500D02*
X222527800Y-31977300D01*
X217704500Y-28675500D02*
X219226000Y-28675500D01*
X215900000Y-30480000D02*
X217704500Y-28675500D01*
X215900000Y-33020000D02*
X215900000Y-31775100D01*
X226060000Y-182880000D02*
X226060000Y-181381100D01*
X221511300Y-176832400D02*
X226060000Y-181381100D01*
X221511300Y-31717400D02*
X221511300Y-176832400D01*
X219016600Y-29222700D02*
X221511300Y-31717400D01*
X217888700Y-29222700D02*
X219016600Y-29222700D01*
X217170000Y-29941400D02*
X217888700Y-29222700D01*
X217170000Y-31020900D02*
X217170000Y-29941400D01*
X216415800Y-31775100D02*
X217170000Y-31020900D01*
X215900000Y-31775100D02*
X216415800Y-31775100D01*
X226060000Y-208280000D02*
X226060000Y-206781100D01*
X218440000Y-30480000D02*
X218440000Y-31724900D01*
X221003000Y-201724100D02*
X226060000Y-206781100D01*
X221003000Y-33772100D02*
X221003000Y-201724100D01*
X218955800Y-31724900D02*
X221003000Y-33772100D01*
X218440000Y-31724900D02*
X218955800Y-31724900D01*
X218440000Y-224561100D02*
X218440000Y-33020000D01*
X226060000Y-232181100D02*
X218440000Y-224561100D01*
X226060000Y-233680000D02*
X226060000Y-232181100D01*
M02*
