G04 #@! TF.FileFunction,Copper,L2,Bot,Signal*
%FSLAX46Y46*%
G04 Gerber Fmt 4.6, Leading zero omitted, Abs format (unit mm)*
G04 Created by KiCad (PCBNEW 4.0.1-stable) date 2016-05-02 16:33:35*
%MOMM*%
G01*
G04 APERTURE LIST*
%ADD10C,0.100000*%
%ADD11R,1.727200X1.727200*%
%ADD12O,1.727200X1.727200*%
%ADD13R,2.235200X2.235200*%
%ADD14C,4.064000*%
%ADD15C,0.254000*%
G04 APERTURE END LIST*
D10*
D11*
X48260000Y-30480000D03*
D12*
X48260000Y-33020000D03*
X50800000Y-30480000D03*
X50800000Y-33020000D03*
X53340000Y-30480000D03*
X53340000Y-33020000D03*
X55880000Y-30480000D03*
X55880000Y-33020000D03*
X58420000Y-30480000D03*
X58420000Y-33020000D03*
X60960000Y-30480000D03*
X60960000Y-33020000D03*
X63500000Y-30480000D03*
X63500000Y-33020000D03*
X66040000Y-30480000D03*
X66040000Y-33020000D03*
D13*
X48260000Y-55880000D03*
X48260000Y-81280000D03*
X48260000Y-106680000D03*
X48260000Y-132080000D03*
X48260000Y-157480000D03*
X48260000Y-182880000D03*
X48260000Y-208280000D03*
X48260000Y-233680000D03*
X73660000Y-55880000D03*
X73660000Y-81280000D03*
X73660000Y-106680000D03*
X73660000Y-132080000D03*
X73660000Y-157480000D03*
X73660000Y-182880000D03*
X73660000Y-208280000D03*
X73660000Y-233680000D03*
D11*
X99060000Y-30480000D03*
D12*
X99060000Y-33020000D03*
X101600000Y-30480000D03*
X101600000Y-33020000D03*
X104140000Y-30480000D03*
X104140000Y-33020000D03*
X106680000Y-30480000D03*
X106680000Y-33020000D03*
X109220000Y-30480000D03*
X109220000Y-33020000D03*
X111760000Y-30480000D03*
X111760000Y-33020000D03*
X114300000Y-30480000D03*
X114300000Y-33020000D03*
X116840000Y-30480000D03*
X116840000Y-33020000D03*
D13*
X99060000Y-55880000D03*
X99060000Y-81280000D03*
X99060000Y-106680000D03*
X99060000Y-132080000D03*
X99060000Y-157480000D03*
X99060000Y-182880000D03*
X99060000Y-208280000D03*
X99060000Y-233680000D03*
X124460000Y-55880000D03*
X124460000Y-81280000D03*
X124460000Y-106680000D03*
X124460000Y-132080000D03*
X124460000Y-157480000D03*
X124460000Y-182880000D03*
X124460000Y-208280000D03*
X124460000Y-233680000D03*
D11*
X149860000Y-30480000D03*
D12*
X149860000Y-33020000D03*
X152400000Y-30480000D03*
X152400000Y-33020000D03*
X154940000Y-30480000D03*
X154940000Y-33020000D03*
X157480000Y-30480000D03*
X157480000Y-33020000D03*
X160020000Y-30480000D03*
X160020000Y-33020000D03*
X162560000Y-30480000D03*
X162560000Y-33020000D03*
X165100000Y-30480000D03*
X165100000Y-33020000D03*
X167640000Y-30480000D03*
X167640000Y-33020000D03*
D13*
X149860000Y-55880000D03*
X149860000Y-81280000D03*
X149860000Y-106680000D03*
X149860000Y-132080000D03*
X149860000Y-157480000D03*
X149860000Y-182880000D03*
X149860000Y-208280000D03*
X149860000Y-233680000D03*
X175260000Y-55880000D03*
X175260000Y-81280000D03*
X175260000Y-106680000D03*
X175260000Y-132080000D03*
X175260000Y-157480000D03*
X175260000Y-182880000D03*
X175260000Y-208280000D03*
X175260000Y-233680000D03*
D11*
X200660000Y-30480000D03*
D12*
X200660000Y-33020000D03*
X203200000Y-30480000D03*
X203200000Y-33020000D03*
X205740000Y-30480000D03*
X205740000Y-33020000D03*
X208280000Y-30480000D03*
X208280000Y-33020000D03*
X210820000Y-30480000D03*
X210820000Y-33020000D03*
X213360000Y-30480000D03*
X213360000Y-33020000D03*
X215900000Y-30480000D03*
X215900000Y-33020000D03*
X218440000Y-30480000D03*
X218440000Y-33020000D03*
D13*
X200660000Y-55880000D03*
X200660000Y-81280000D03*
X200660000Y-106680000D03*
X200660000Y-132080000D03*
X200660000Y-157480000D03*
X200660000Y-182880000D03*
X200660000Y-208280000D03*
X200660000Y-233680000D03*
X226060000Y-55880000D03*
X226060000Y-81280000D03*
X226060000Y-106680000D03*
X226060000Y-132080000D03*
X226060000Y-157480000D03*
X226060000Y-182880000D03*
X226060000Y-208280000D03*
X226060000Y-233680000D03*
D14*
X30480000Y-27940000D03*
X30480000Y-55880000D03*
X30480000Y-83820000D03*
X30480000Y-111760000D03*
X30480000Y-139700000D03*
X30480000Y-167640000D03*
X30480000Y-195580000D03*
X30480000Y-223520000D03*
X55880000Y-251460000D03*
X83820000Y-251460000D03*
X111760000Y-251460000D03*
X139700000Y-251460000D03*
X167640000Y-251460000D03*
X195580000Y-251460000D03*
X223520000Y-251460000D03*
X243840000Y-223520000D03*
X243840000Y-195580000D03*
X243840000Y-167640000D03*
X243840000Y-139700000D03*
X243840000Y-111760000D03*
X243840000Y-83820000D03*
X243840000Y-55880000D03*
X243840000Y-27940000D03*
X187960000Y-27940000D03*
X137160000Y-27940000D03*
X86360000Y-27940000D03*
D15*
G36*
X60198000Y-67818000D02*
X36322000Y-67818000D01*
X36322000Y-43942000D01*
X60198000Y-43942000D01*
X60198000Y-67818000D01*
X60198000Y-67818000D01*
G37*
X60198000Y-67818000D02*
X36322000Y-67818000D01*
X36322000Y-43942000D01*
X60198000Y-43942000D01*
X60198000Y-67818000D01*
G36*
X60198000Y-93218000D02*
X36322000Y-93218000D01*
X36322000Y-69342000D01*
X60198000Y-69342000D01*
X60198000Y-93218000D01*
X60198000Y-93218000D01*
G37*
X60198000Y-93218000D02*
X36322000Y-93218000D01*
X36322000Y-69342000D01*
X60198000Y-69342000D01*
X60198000Y-93218000D01*
G36*
X60198000Y-118618000D02*
X36322000Y-118618000D01*
X36322000Y-94742000D01*
X60198000Y-94742000D01*
X60198000Y-118618000D01*
X60198000Y-118618000D01*
G37*
X60198000Y-118618000D02*
X36322000Y-118618000D01*
X36322000Y-94742000D01*
X60198000Y-94742000D01*
X60198000Y-118618000D01*
G36*
X60198000Y-144018000D02*
X36322000Y-144018000D01*
X36322000Y-120142000D01*
X60198000Y-120142000D01*
X60198000Y-144018000D01*
X60198000Y-144018000D01*
G37*
X60198000Y-144018000D02*
X36322000Y-144018000D01*
X36322000Y-120142000D01*
X60198000Y-120142000D01*
X60198000Y-144018000D01*
G36*
X60198000Y-169418000D02*
X36322000Y-169418000D01*
X36322000Y-145542000D01*
X60198000Y-145542000D01*
X60198000Y-169418000D01*
X60198000Y-169418000D01*
G37*
X60198000Y-169418000D02*
X36322000Y-169418000D01*
X36322000Y-145542000D01*
X60198000Y-145542000D01*
X60198000Y-169418000D01*
G36*
X60198000Y-194818000D02*
X36322000Y-194818000D01*
X36322000Y-170942000D01*
X60198000Y-170942000D01*
X60198000Y-194818000D01*
X60198000Y-194818000D01*
G37*
X60198000Y-194818000D02*
X36322000Y-194818000D01*
X36322000Y-170942000D01*
X60198000Y-170942000D01*
X60198000Y-194818000D01*
G36*
X60198000Y-220218000D02*
X36322000Y-220218000D01*
X36322000Y-196342000D01*
X60198000Y-196342000D01*
X60198000Y-220218000D01*
X60198000Y-220218000D01*
G37*
X60198000Y-220218000D02*
X36322000Y-220218000D01*
X36322000Y-196342000D01*
X60198000Y-196342000D01*
X60198000Y-220218000D01*
G36*
X60198000Y-245618000D02*
X36322000Y-245618000D01*
X36322000Y-221742000D01*
X60198000Y-221742000D01*
X60198000Y-245618000D01*
X60198000Y-245618000D01*
G37*
X60198000Y-245618000D02*
X36322000Y-245618000D01*
X36322000Y-221742000D01*
X60198000Y-221742000D01*
X60198000Y-245618000D01*
G36*
X85598000Y-67818000D02*
X61722000Y-67818000D01*
X61722000Y-43942000D01*
X85598000Y-43942000D01*
X85598000Y-67818000D01*
X85598000Y-67818000D01*
G37*
X85598000Y-67818000D02*
X61722000Y-67818000D01*
X61722000Y-43942000D01*
X85598000Y-43942000D01*
X85598000Y-67818000D01*
G36*
X85598000Y-93218000D02*
X61722000Y-93218000D01*
X61722000Y-69342000D01*
X85598000Y-69342000D01*
X85598000Y-93218000D01*
X85598000Y-93218000D01*
G37*
X85598000Y-93218000D02*
X61722000Y-93218000D01*
X61722000Y-69342000D01*
X85598000Y-69342000D01*
X85598000Y-93218000D01*
G36*
X85598000Y-118618000D02*
X61722000Y-118618000D01*
X61722000Y-94742000D01*
X85598000Y-94742000D01*
X85598000Y-118618000D01*
X85598000Y-118618000D01*
G37*
X85598000Y-118618000D02*
X61722000Y-118618000D01*
X61722000Y-94742000D01*
X85598000Y-94742000D01*
X85598000Y-118618000D01*
G36*
X85598000Y-144018000D02*
X61722000Y-144018000D01*
X61722000Y-120142000D01*
X85598000Y-120142000D01*
X85598000Y-144018000D01*
X85598000Y-144018000D01*
G37*
X85598000Y-144018000D02*
X61722000Y-144018000D01*
X61722000Y-120142000D01*
X85598000Y-120142000D01*
X85598000Y-144018000D01*
G36*
X85598000Y-169418000D02*
X61722000Y-169418000D01*
X61722000Y-145542000D01*
X85598000Y-145542000D01*
X85598000Y-169418000D01*
X85598000Y-169418000D01*
G37*
X85598000Y-169418000D02*
X61722000Y-169418000D01*
X61722000Y-145542000D01*
X85598000Y-145542000D01*
X85598000Y-169418000D01*
G36*
X85598000Y-194818000D02*
X61722000Y-194818000D01*
X61722000Y-170942000D01*
X85598000Y-170942000D01*
X85598000Y-194818000D01*
X85598000Y-194818000D01*
G37*
X85598000Y-194818000D02*
X61722000Y-194818000D01*
X61722000Y-170942000D01*
X85598000Y-170942000D01*
X85598000Y-194818000D01*
G36*
X85598000Y-220218000D02*
X61722000Y-220218000D01*
X61722000Y-196342000D01*
X85598000Y-196342000D01*
X85598000Y-220218000D01*
X85598000Y-220218000D01*
G37*
X85598000Y-220218000D02*
X61722000Y-220218000D01*
X61722000Y-196342000D01*
X85598000Y-196342000D01*
X85598000Y-220218000D01*
G36*
X85598000Y-245618000D02*
X61722000Y-245618000D01*
X61722000Y-221742000D01*
X85598000Y-221742000D01*
X85598000Y-245618000D01*
X85598000Y-245618000D01*
G37*
X85598000Y-245618000D02*
X61722000Y-245618000D01*
X61722000Y-221742000D01*
X85598000Y-221742000D01*
X85598000Y-245618000D01*
G36*
X110998000Y-67818000D02*
X87122000Y-67818000D01*
X87122000Y-43942000D01*
X110998000Y-43942000D01*
X110998000Y-67818000D01*
X110998000Y-67818000D01*
G37*
X110998000Y-67818000D02*
X87122000Y-67818000D01*
X87122000Y-43942000D01*
X110998000Y-43942000D01*
X110998000Y-67818000D01*
G36*
X110998000Y-93218000D02*
X87122000Y-93218000D01*
X87122000Y-69342000D01*
X110998000Y-69342000D01*
X110998000Y-93218000D01*
X110998000Y-93218000D01*
G37*
X110998000Y-93218000D02*
X87122000Y-93218000D01*
X87122000Y-69342000D01*
X110998000Y-69342000D01*
X110998000Y-93218000D01*
G36*
X110998000Y-118618000D02*
X87122000Y-118618000D01*
X87122000Y-94742000D01*
X110998000Y-94742000D01*
X110998000Y-118618000D01*
X110998000Y-118618000D01*
G37*
X110998000Y-118618000D02*
X87122000Y-118618000D01*
X87122000Y-94742000D01*
X110998000Y-94742000D01*
X110998000Y-118618000D01*
G36*
X110998000Y-144018000D02*
X87122000Y-144018000D01*
X87122000Y-120142000D01*
X110998000Y-120142000D01*
X110998000Y-144018000D01*
X110998000Y-144018000D01*
G37*
X110998000Y-144018000D02*
X87122000Y-144018000D01*
X87122000Y-120142000D01*
X110998000Y-120142000D01*
X110998000Y-144018000D01*
G36*
X110998000Y-169418000D02*
X87122000Y-169418000D01*
X87122000Y-145542000D01*
X110998000Y-145542000D01*
X110998000Y-169418000D01*
X110998000Y-169418000D01*
G37*
X110998000Y-169418000D02*
X87122000Y-169418000D01*
X87122000Y-145542000D01*
X110998000Y-145542000D01*
X110998000Y-169418000D01*
G36*
X110998000Y-194818000D02*
X87122000Y-194818000D01*
X87122000Y-170942000D01*
X110998000Y-170942000D01*
X110998000Y-194818000D01*
X110998000Y-194818000D01*
G37*
X110998000Y-194818000D02*
X87122000Y-194818000D01*
X87122000Y-170942000D01*
X110998000Y-170942000D01*
X110998000Y-194818000D01*
G36*
X110998000Y-220218000D02*
X87122000Y-220218000D01*
X87122000Y-196342000D01*
X110998000Y-196342000D01*
X110998000Y-220218000D01*
X110998000Y-220218000D01*
G37*
X110998000Y-220218000D02*
X87122000Y-220218000D01*
X87122000Y-196342000D01*
X110998000Y-196342000D01*
X110998000Y-220218000D01*
G36*
X110998000Y-245618000D02*
X87122000Y-245618000D01*
X87122000Y-221742000D01*
X110998000Y-221742000D01*
X110998000Y-245618000D01*
X110998000Y-245618000D01*
G37*
X110998000Y-245618000D02*
X87122000Y-245618000D01*
X87122000Y-221742000D01*
X110998000Y-221742000D01*
X110998000Y-245618000D01*
G36*
X136398000Y-67818000D02*
X112522000Y-67818000D01*
X112522000Y-43942000D01*
X136398000Y-43942000D01*
X136398000Y-67818000D01*
X136398000Y-67818000D01*
G37*
X136398000Y-67818000D02*
X112522000Y-67818000D01*
X112522000Y-43942000D01*
X136398000Y-43942000D01*
X136398000Y-67818000D01*
G36*
X136398000Y-93218000D02*
X112522000Y-93218000D01*
X112522000Y-69342000D01*
X136398000Y-69342000D01*
X136398000Y-93218000D01*
X136398000Y-93218000D01*
G37*
X136398000Y-93218000D02*
X112522000Y-93218000D01*
X112522000Y-69342000D01*
X136398000Y-69342000D01*
X136398000Y-93218000D01*
G36*
X136398000Y-118618000D02*
X112522000Y-118618000D01*
X112522000Y-94742000D01*
X136398000Y-94742000D01*
X136398000Y-118618000D01*
X136398000Y-118618000D01*
G37*
X136398000Y-118618000D02*
X112522000Y-118618000D01*
X112522000Y-94742000D01*
X136398000Y-94742000D01*
X136398000Y-118618000D01*
G36*
X136398000Y-144018000D02*
X112522000Y-144018000D01*
X112522000Y-120142000D01*
X136398000Y-120142000D01*
X136398000Y-144018000D01*
X136398000Y-144018000D01*
G37*
X136398000Y-144018000D02*
X112522000Y-144018000D01*
X112522000Y-120142000D01*
X136398000Y-120142000D01*
X136398000Y-144018000D01*
G36*
X136398000Y-169418000D02*
X112522000Y-169418000D01*
X112522000Y-145542000D01*
X136398000Y-145542000D01*
X136398000Y-169418000D01*
X136398000Y-169418000D01*
G37*
X136398000Y-169418000D02*
X112522000Y-169418000D01*
X112522000Y-145542000D01*
X136398000Y-145542000D01*
X136398000Y-169418000D01*
G36*
X136398000Y-194818000D02*
X112522000Y-194818000D01*
X112522000Y-170942000D01*
X136398000Y-170942000D01*
X136398000Y-194818000D01*
X136398000Y-194818000D01*
G37*
X136398000Y-194818000D02*
X112522000Y-194818000D01*
X112522000Y-170942000D01*
X136398000Y-170942000D01*
X136398000Y-194818000D01*
G36*
X136398000Y-220218000D02*
X112522000Y-220218000D01*
X112522000Y-196342000D01*
X136398000Y-196342000D01*
X136398000Y-220218000D01*
X136398000Y-220218000D01*
G37*
X136398000Y-220218000D02*
X112522000Y-220218000D01*
X112522000Y-196342000D01*
X136398000Y-196342000D01*
X136398000Y-220218000D01*
G36*
X136398000Y-245618000D02*
X112522000Y-245618000D01*
X112522000Y-221742000D01*
X136398000Y-221742000D01*
X136398000Y-245618000D01*
X136398000Y-245618000D01*
G37*
X136398000Y-245618000D02*
X112522000Y-245618000D01*
X112522000Y-221742000D01*
X136398000Y-221742000D01*
X136398000Y-245618000D01*
G36*
X161798000Y-67818000D02*
X137922000Y-67818000D01*
X137922000Y-43942000D01*
X161798000Y-43942000D01*
X161798000Y-67818000D01*
X161798000Y-67818000D01*
G37*
X161798000Y-67818000D02*
X137922000Y-67818000D01*
X137922000Y-43942000D01*
X161798000Y-43942000D01*
X161798000Y-67818000D01*
G36*
X161798000Y-93218000D02*
X137922000Y-93218000D01*
X137922000Y-69342000D01*
X161798000Y-69342000D01*
X161798000Y-93218000D01*
X161798000Y-93218000D01*
G37*
X161798000Y-93218000D02*
X137922000Y-93218000D01*
X137922000Y-69342000D01*
X161798000Y-69342000D01*
X161798000Y-93218000D01*
G36*
X161798000Y-118618000D02*
X137922000Y-118618000D01*
X137922000Y-94742000D01*
X161798000Y-94742000D01*
X161798000Y-118618000D01*
X161798000Y-118618000D01*
G37*
X161798000Y-118618000D02*
X137922000Y-118618000D01*
X137922000Y-94742000D01*
X161798000Y-94742000D01*
X161798000Y-118618000D01*
G36*
X161798000Y-144018000D02*
X137922000Y-144018000D01*
X137922000Y-120142000D01*
X161798000Y-120142000D01*
X161798000Y-144018000D01*
X161798000Y-144018000D01*
G37*
X161798000Y-144018000D02*
X137922000Y-144018000D01*
X137922000Y-120142000D01*
X161798000Y-120142000D01*
X161798000Y-144018000D01*
G36*
X161798000Y-169418000D02*
X137922000Y-169418000D01*
X137922000Y-145542000D01*
X161798000Y-145542000D01*
X161798000Y-169418000D01*
X161798000Y-169418000D01*
G37*
X161798000Y-169418000D02*
X137922000Y-169418000D01*
X137922000Y-145542000D01*
X161798000Y-145542000D01*
X161798000Y-169418000D01*
G36*
X161798000Y-194818000D02*
X137922000Y-194818000D01*
X137922000Y-170942000D01*
X161798000Y-170942000D01*
X161798000Y-194818000D01*
X161798000Y-194818000D01*
G37*
X161798000Y-194818000D02*
X137922000Y-194818000D01*
X137922000Y-170942000D01*
X161798000Y-170942000D01*
X161798000Y-194818000D01*
G36*
X161798000Y-220218000D02*
X137922000Y-220218000D01*
X137922000Y-196342000D01*
X161798000Y-196342000D01*
X161798000Y-220218000D01*
X161798000Y-220218000D01*
G37*
X161798000Y-220218000D02*
X137922000Y-220218000D01*
X137922000Y-196342000D01*
X161798000Y-196342000D01*
X161798000Y-220218000D01*
G36*
X161798000Y-245618000D02*
X137922000Y-245618000D01*
X137922000Y-221742000D01*
X161798000Y-221742000D01*
X161798000Y-245618000D01*
X161798000Y-245618000D01*
G37*
X161798000Y-245618000D02*
X137922000Y-245618000D01*
X137922000Y-221742000D01*
X161798000Y-221742000D01*
X161798000Y-245618000D01*
G36*
X187198000Y-67818000D02*
X163322000Y-67818000D01*
X163322000Y-43942000D01*
X187198000Y-43942000D01*
X187198000Y-67818000D01*
X187198000Y-67818000D01*
G37*
X187198000Y-67818000D02*
X163322000Y-67818000D01*
X163322000Y-43942000D01*
X187198000Y-43942000D01*
X187198000Y-67818000D01*
G36*
X187198000Y-93218000D02*
X163322000Y-93218000D01*
X163322000Y-69342000D01*
X187198000Y-69342000D01*
X187198000Y-93218000D01*
X187198000Y-93218000D01*
G37*
X187198000Y-93218000D02*
X163322000Y-93218000D01*
X163322000Y-69342000D01*
X187198000Y-69342000D01*
X187198000Y-93218000D01*
G36*
X187198000Y-118618000D02*
X163322000Y-118618000D01*
X163322000Y-94742000D01*
X187198000Y-94742000D01*
X187198000Y-118618000D01*
X187198000Y-118618000D01*
G37*
X187198000Y-118618000D02*
X163322000Y-118618000D01*
X163322000Y-94742000D01*
X187198000Y-94742000D01*
X187198000Y-118618000D01*
G36*
X187198000Y-144018000D02*
X163322000Y-144018000D01*
X163322000Y-120142000D01*
X187198000Y-120142000D01*
X187198000Y-144018000D01*
X187198000Y-144018000D01*
G37*
X187198000Y-144018000D02*
X163322000Y-144018000D01*
X163322000Y-120142000D01*
X187198000Y-120142000D01*
X187198000Y-144018000D01*
G36*
X187198000Y-169418000D02*
X163322000Y-169418000D01*
X163322000Y-145542000D01*
X187198000Y-145542000D01*
X187198000Y-169418000D01*
X187198000Y-169418000D01*
G37*
X187198000Y-169418000D02*
X163322000Y-169418000D01*
X163322000Y-145542000D01*
X187198000Y-145542000D01*
X187198000Y-169418000D01*
G36*
X187198000Y-194818000D02*
X163322000Y-194818000D01*
X163322000Y-170942000D01*
X187198000Y-170942000D01*
X187198000Y-194818000D01*
X187198000Y-194818000D01*
G37*
X187198000Y-194818000D02*
X163322000Y-194818000D01*
X163322000Y-170942000D01*
X187198000Y-170942000D01*
X187198000Y-194818000D01*
G36*
X187198000Y-220218000D02*
X163322000Y-220218000D01*
X163322000Y-196342000D01*
X187198000Y-196342000D01*
X187198000Y-220218000D01*
X187198000Y-220218000D01*
G37*
X187198000Y-220218000D02*
X163322000Y-220218000D01*
X163322000Y-196342000D01*
X187198000Y-196342000D01*
X187198000Y-220218000D01*
G36*
X187198000Y-245618000D02*
X163322000Y-245618000D01*
X163322000Y-221742000D01*
X187198000Y-221742000D01*
X187198000Y-245618000D01*
X187198000Y-245618000D01*
G37*
X187198000Y-245618000D02*
X163322000Y-245618000D01*
X163322000Y-221742000D01*
X187198000Y-221742000D01*
X187198000Y-245618000D01*
G36*
X212598000Y-67818000D02*
X188722000Y-67818000D01*
X188722000Y-43942000D01*
X212598000Y-43942000D01*
X212598000Y-67818000D01*
X212598000Y-67818000D01*
G37*
X212598000Y-67818000D02*
X188722000Y-67818000D01*
X188722000Y-43942000D01*
X212598000Y-43942000D01*
X212598000Y-67818000D01*
G36*
X212598000Y-93218000D02*
X188722000Y-93218000D01*
X188722000Y-69342000D01*
X212598000Y-69342000D01*
X212598000Y-93218000D01*
X212598000Y-93218000D01*
G37*
X212598000Y-93218000D02*
X188722000Y-93218000D01*
X188722000Y-69342000D01*
X212598000Y-69342000D01*
X212598000Y-93218000D01*
G36*
X212598000Y-118618000D02*
X188722000Y-118618000D01*
X188722000Y-94742000D01*
X212598000Y-94742000D01*
X212598000Y-118618000D01*
X212598000Y-118618000D01*
G37*
X212598000Y-118618000D02*
X188722000Y-118618000D01*
X188722000Y-94742000D01*
X212598000Y-94742000D01*
X212598000Y-118618000D01*
G36*
X212598000Y-144018000D02*
X188722000Y-144018000D01*
X188722000Y-120142000D01*
X212598000Y-120142000D01*
X212598000Y-144018000D01*
X212598000Y-144018000D01*
G37*
X212598000Y-144018000D02*
X188722000Y-144018000D01*
X188722000Y-120142000D01*
X212598000Y-120142000D01*
X212598000Y-144018000D01*
G36*
X212598000Y-169418000D02*
X188722000Y-169418000D01*
X188722000Y-145542000D01*
X212598000Y-145542000D01*
X212598000Y-169418000D01*
X212598000Y-169418000D01*
G37*
X212598000Y-169418000D02*
X188722000Y-169418000D01*
X188722000Y-145542000D01*
X212598000Y-145542000D01*
X212598000Y-169418000D01*
G36*
X212598000Y-194818000D02*
X188722000Y-194818000D01*
X188722000Y-170942000D01*
X212598000Y-170942000D01*
X212598000Y-194818000D01*
X212598000Y-194818000D01*
G37*
X212598000Y-194818000D02*
X188722000Y-194818000D01*
X188722000Y-170942000D01*
X212598000Y-170942000D01*
X212598000Y-194818000D01*
G36*
X212598000Y-220218000D02*
X188722000Y-220218000D01*
X188722000Y-196342000D01*
X212598000Y-196342000D01*
X212598000Y-220218000D01*
X212598000Y-220218000D01*
G37*
X212598000Y-220218000D02*
X188722000Y-220218000D01*
X188722000Y-196342000D01*
X212598000Y-196342000D01*
X212598000Y-220218000D01*
G36*
X212598000Y-245618000D02*
X188722000Y-245618000D01*
X188722000Y-221742000D01*
X212598000Y-221742000D01*
X212598000Y-245618000D01*
X212598000Y-245618000D01*
G37*
X212598000Y-245618000D02*
X188722000Y-245618000D01*
X188722000Y-221742000D01*
X212598000Y-221742000D01*
X212598000Y-245618000D01*
G36*
X237998000Y-67818000D02*
X214122000Y-67818000D01*
X214122000Y-43942000D01*
X237998000Y-43942000D01*
X237998000Y-67818000D01*
X237998000Y-67818000D01*
G37*
X237998000Y-67818000D02*
X214122000Y-67818000D01*
X214122000Y-43942000D01*
X237998000Y-43942000D01*
X237998000Y-67818000D01*
G36*
X237998000Y-93218000D02*
X214122000Y-93218000D01*
X214122000Y-69342000D01*
X237998000Y-69342000D01*
X237998000Y-93218000D01*
X237998000Y-93218000D01*
G37*
X237998000Y-93218000D02*
X214122000Y-93218000D01*
X214122000Y-69342000D01*
X237998000Y-69342000D01*
X237998000Y-93218000D01*
G36*
X237998000Y-118618000D02*
X214122000Y-118618000D01*
X214122000Y-94742000D01*
X237998000Y-94742000D01*
X237998000Y-118618000D01*
X237998000Y-118618000D01*
G37*
X237998000Y-118618000D02*
X214122000Y-118618000D01*
X214122000Y-94742000D01*
X237998000Y-94742000D01*
X237998000Y-118618000D01*
G36*
X237998000Y-144018000D02*
X214122000Y-144018000D01*
X214122000Y-120142000D01*
X237998000Y-120142000D01*
X237998000Y-144018000D01*
X237998000Y-144018000D01*
G37*
X237998000Y-144018000D02*
X214122000Y-144018000D01*
X214122000Y-120142000D01*
X237998000Y-120142000D01*
X237998000Y-144018000D01*
G36*
X237998000Y-169418000D02*
X214122000Y-169418000D01*
X214122000Y-145542000D01*
X237998000Y-145542000D01*
X237998000Y-169418000D01*
X237998000Y-169418000D01*
G37*
X237998000Y-169418000D02*
X214122000Y-169418000D01*
X214122000Y-145542000D01*
X237998000Y-145542000D01*
X237998000Y-169418000D01*
G36*
X237998000Y-194818000D02*
X214122000Y-194818000D01*
X214122000Y-170942000D01*
X237998000Y-170942000D01*
X237998000Y-194818000D01*
X237998000Y-194818000D01*
G37*
X237998000Y-194818000D02*
X214122000Y-194818000D01*
X214122000Y-170942000D01*
X237998000Y-170942000D01*
X237998000Y-194818000D01*
G36*
X237998000Y-220218000D02*
X214122000Y-220218000D01*
X214122000Y-196342000D01*
X237998000Y-196342000D01*
X237998000Y-220218000D01*
X237998000Y-220218000D01*
G37*
X237998000Y-220218000D02*
X214122000Y-220218000D01*
X214122000Y-196342000D01*
X237998000Y-196342000D01*
X237998000Y-220218000D01*
G36*
X237998000Y-245618000D02*
X214122000Y-245618000D01*
X214122000Y-221742000D01*
X237998000Y-221742000D01*
X237998000Y-245618000D01*
X237998000Y-245618000D01*
G37*
X237998000Y-245618000D02*
X214122000Y-245618000D01*
X214122000Y-221742000D01*
X237998000Y-221742000D01*
X237998000Y-245618000D01*
M02*
