%FSLAX45Y45*%
G04 Gerber Fmt 4.5, Leading zero omitted, Abs format (unit mm)*
G04 Created by KiCad (PCBNEW 4.0.1-stable) date 2016-05-02 16:34:03*
%MOMM*%
G01*
G04 APERTURE LIST*
%ADD10C,0.127000*%
%ADD11C,0.150000*%
%ADD12C,0.200000*%
%ADD13C,0.300000*%
G04 APERTURE END LIST*
D10*
D11*
X24892000Y-25654000D02*
X24892000Y-24638000D01*
X23876000Y-25654000D02*
X24892000Y-25654000D01*
X2540000Y-25654000D02*
X3556000Y-25654000D01*
X2540000Y-24638000D02*
X2540000Y-25654000D01*
X2540000Y-1778000D02*
X3556000Y-1778000D01*
X23876000Y-1778000D02*
X24892000Y-1778000D01*
X2540000Y-24638000D02*
X2540000Y-1778000D01*
X23876000Y-25654000D02*
X3556000Y-25654000D01*
X24892000Y-1778000D02*
X24892000Y-24638000D01*
X3556000Y-1778000D02*
X23876000Y-1778000D01*
D12*
X4775200Y-2997200D02*
X4876800Y-3098800D01*
X4876800Y-2997200D02*
X4775200Y-3098800D01*
X4775200Y-3251200D02*
X4876800Y-3352800D01*
X4876800Y-3251200D02*
X4775200Y-3352800D01*
X4775200Y-5537200D02*
X4876800Y-5638800D01*
X4876800Y-5537200D02*
X4775200Y-5638800D01*
X4775200Y-8077200D02*
X4876800Y-8178800D01*
X4876800Y-8077200D02*
X4775200Y-8178800D01*
X4775200Y-10617200D02*
X4876800Y-10718800D01*
X4876800Y-10617200D02*
X4775200Y-10718800D01*
X4775200Y-13157200D02*
X4876800Y-13258800D01*
X4876800Y-13157200D02*
X4775200Y-13258800D01*
X4775200Y-15697200D02*
X4876800Y-15798800D01*
X4876800Y-15697200D02*
X4775200Y-15798800D01*
X4775200Y-18237200D02*
X4876800Y-18338800D01*
X4876800Y-18237200D02*
X4775200Y-18338800D01*
X4775200Y-20777200D02*
X4876800Y-20878800D01*
X4876800Y-20777200D02*
X4775200Y-20878800D01*
X4775200Y-23317200D02*
X4876800Y-23418800D01*
X4876800Y-23317200D02*
X4775200Y-23418800D01*
X5029200Y-2997200D02*
X5130800Y-3098800D01*
X5130800Y-2997200D02*
X5029200Y-3098800D01*
X5029200Y-3251200D02*
X5130800Y-3352800D01*
X5130800Y-3251200D02*
X5029200Y-3352800D01*
X5283200Y-2997200D02*
X5384800Y-3098800D01*
X5384800Y-2997200D02*
X5283200Y-3098800D01*
X5283200Y-3251200D02*
X5384800Y-3352800D01*
X5384800Y-3251200D02*
X5283200Y-3352800D01*
X5537200Y-2997200D02*
X5638800Y-3098800D01*
X5638800Y-2997200D02*
X5537200Y-3098800D01*
X5537200Y-3251200D02*
X5638800Y-3352800D01*
X5638800Y-3251200D02*
X5537200Y-3352800D01*
X5791200Y-2997200D02*
X5892800Y-3098800D01*
X5892800Y-2997200D02*
X5791200Y-3098800D01*
X5791200Y-3251200D02*
X5892800Y-3352800D01*
X5892800Y-3251200D02*
X5791200Y-3352800D01*
X6045200Y-2997200D02*
X6146800Y-3098800D01*
X6146800Y-2997200D02*
X6045200Y-3098800D01*
X6045200Y-3251200D02*
X6146800Y-3352800D01*
X6146800Y-3251200D02*
X6045200Y-3352800D01*
X6299200Y-2997200D02*
X6400800Y-3098800D01*
X6400800Y-2997200D02*
X6299200Y-3098800D01*
X6299200Y-3251200D02*
X6400800Y-3352800D01*
X6400800Y-3251200D02*
X6299200Y-3352800D01*
X6553200Y-2997200D02*
X6654800Y-3098800D01*
X6654800Y-2997200D02*
X6553200Y-3098800D01*
X6553200Y-3251200D02*
X6654800Y-3352800D01*
X6654800Y-3251200D02*
X6553200Y-3352800D01*
X7315200Y-5537200D02*
X7416800Y-5638800D01*
X7416800Y-5537200D02*
X7315200Y-5638800D01*
X7315200Y-8077200D02*
X7416800Y-8178800D01*
X7416800Y-8077200D02*
X7315200Y-8178800D01*
X7315200Y-10617200D02*
X7416800Y-10718800D01*
X7416800Y-10617200D02*
X7315200Y-10718800D01*
X7315200Y-13157200D02*
X7416800Y-13258800D01*
X7416800Y-13157200D02*
X7315200Y-13258800D01*
X7315200Y-15697200D02*
X7416800Y-15798800D01*
X7416800Y-15697200D02*
X7315200Y-15798800D01*
X7315200Y-18237200D02*
X7416800Y-18338800D01*
X7416800Y-18237200D02*
X7315200Y-18338800D01*
X7315200Y-20777200D02*
X7416800Y-20878800D01*
X7416800Y-20777200D02*
X7315200Y-20878800D01*
X7315200Y-23317200D02*
X7416800Y-23418800D01*
X7416800Y-23317200D02*
X7315200Y-23418800D01*
X9855200Y-2997200D02*
X9956800Y-3098800D01*
X9956800Y-2997200D02*
X9855200Y-3098800D01*
X9855200Y-3251200D02*
X9956800Y-3352800D01*
X9956800Y-3251200D02*
X9855200Y-3352800D01*
X9855200Y-5537200D02*
X9956800Y-5638800D01*
X9956800Y-5537200D02*
X9855200Y-5638800D01*
X9855200Y-8077200D02*
X9956800Y-8178800D01*
X9956800Y-8077200D02*
X9855200Y-8178800D01*
X9855200Y-10617200D02*
X9956800Y-10718800D01*
X9956800Y-10617200D02*
X9855200Y-10718800D01*
X9855200Y-13157200D02*
X9956800Y-13258800D01*
X9956800Y-13157200D02*
X9855200Y-13258800D01*
X9855200Y-15697200D02*
X9956800Y-15798800D01*
X9956800Y-15697200D02*
X9855200Y-15798800D01*
X9855200Y-18237200D02*
X9956800Y-18338800D01*
X9956800Y-18237200D02*
X9855200Y-18338800D01*
X9855200Y-20777200D02*
X9956800Y-20878800D01*
X9956800Y-20777200D02*
X9855200Y-20878800D01*
X9855200Y-23317200D02*
X9956800Y-23418800D01*
X9956800Y-23317200D02*
X9855200Y-23418800D01*
X10109200Y-2997200D02*
X10210800Y-3098800D01*
X10210800Y-2997200D02*
X10109200Y-3098800D01*
X10109200Y-3251200D02*
X10210800Y-3352800D01*
X10210800Y-3251200D02*
X10109200Y-3352800D01*
X10363200Y-2997200D02*
X10464800Y-3098800D01*
X10464800Y-2997200D02*
X10363200Y-3098800D01*
X10363200Y-3251200D02*
X10464800Y-3352800D01*
X10464800Y-3251200D02*
X10363200Y-3352800D01*
X10617200Y-2997200D02*
X10718800Y-3098800D01*
X10718800Y-2997200D02*
X10617200Y-3098800D01*
X10617200Y-3251200D02*
X10718800Y-3352800D01*
X10718800Y-3251200D02*
X10617200Y-3352800D01*
X10871200Y-2997200D02*
X10972800Y-3098800D01*
X10972800Y-2997200D02*
X10871200Y-3098800D01*
X10871200Y-3251200D02*
X10972800Y-3352800D01*
X10972800Y-3251200D02*
X10871200Y-3352800D01*
X11125200Y-2997200D02*
X11226800Y-3098800D01*
X11226800Y-2997200D02*
X11125200Y-3098800D01*
X11125200Y-3251200D02*
X11226800Y-3352800D01*
X11226800Y-3251200D02*
X11125200Y-3352800D01*
X11379200Y-2997200D02*
X11480800Y-3098800D01*
X11480800Y-2997200D02*
X11379200Y-3098800D01*
X11379200Y-3251200D02*
X11480800Y-3352800D01*
X11480800Y-3251200D02*
X11379200Y-3352800D01*
X11633200Y-2997200D02*
X11734800Y-3098800D01*
X11734800Y-2997200D02*
X11633200Y-3098800D01*
X11633200Y-3251200D02*
X11734800Y-3352800D01*
X11734800Y-3251200D02*
X11633200Y-3352800D01*
X12395200Y-5537200D02*
X12496800Y-5638800D01*
X12496800Y-5537200D02*
X12395200Y-5638800D01*
X12395200Y-8077200D02*
X12496800Y-8178800D01*
X12496800Y-8077200D02*
X12395200Y-8178800D01*
X12395200Y-10617200D02*
X12496800Y-10718800D01*
X12496800Y-10617200D02*
X12395200Y-10718800D01*
X12395200Y-13157200D02*
X12496800Y-13258800D01*
X12496800Y-13157200D02*
X12395200Y-13258800D01*
X12395200Y-15697200D02*
X12496800Y-15798800D01*
X12496800Y-15697200D02*
X12395200Y-15798800D01*
X12395200Y-18237200D02*
X12496800Y-18338800D01*
X12496800Y-18237200D02*
X12395200Y-18338800D01*
X12395200Y-20777200D02*
X12496800Y-20878800D01*
X12496800Y-20777200D02*
X12395200Y-20878800D01*
X12395200Y-23317200D02*
X12496800Y-23418800D01*
X12496800Y-23317200D02*
X12395200Y-23418800D01*
X14935200Y-2997200D02*
X15036800Y-3098800D01*
X15036800Y-2997200D02*
X14935200Y-3098800D01*
X14935200Y-3251200D02*
X15036800Y-3352800D01*
X15036800Y-3251200D02*
X14935200Y-3352800D01*
X14935200Y-5537200D02*
X15036800Y-5638800D01*
X15036800Y-5537200D02*
X14935200Y-5638800D01*
X14935200Y-8077200D02*
X15036800Y-8178800D01*
X15036800Y-8077200D02*
X14935200Y-8178800D01*
X14935200Y-10617200D02*
X15036800Y-10718800D01*
X15036800Y-10617200D02*
X14935200Y-10718800D01*
X14935200Y-13157200D02*
X15036800Y-13258800D01*
X15036800Y-13157200D02*
X14935200Y-13258800D01*
X14935200Y-15697200D02*
X15036800Y-15798800D01*
X15036800Y-15697200D02*
X14935200Y-15798800D01*
X14935200Y-18237200D02*
X15036800Y-18338800D01*
X15036800Y-18237200D02*
X14935200Y-18338800D01*
X14935200Y-20777200D02*
X15036800Y-20878800D01*
X15036800Y-20777200D02*
X14935200Y-20878800D01*
X14935200Y-23317200D02*
X15036800Y-23418800D01*
X15036800Y-23317200D02*
X14935200Y-23418800D01*
X15189200Y-2997200D02*
X15290800Y-3098800D01*
X15290800Y-2997200D02*
X15189200Y-3098800D01*
X15189200Y-3251200D02*
X15290800Y-3352800D01*
X15290800Y-3251200D02*
X15189200Y-3352800D01*
X15443200Y-2997200D02*
X15544800Y-3098800D01*
X15544800Y-2997200D02*
X15443200Y-3098800D01*
X15443200Y-3251200D02*
X15544800Y-3352800D01*
X15544800Y-3251200D02*
X15443200Y-3352800D01*
X15697200Y-2997200D02*
X15798800Y-3098800D01*
X15798800Y-2997200D02*
X15697200Y-3098800D01*
X15697200Y-3251200D02*
X15798800Y-3352800D01*
X15798800Y-3251200D02*
X15697200Y-3352800D01*
X15951200Y-2997200D02*
X16052800Y-3098800D01*
X16052800Y-2997200D02*
X15951200Y-3098800D01*
X15951200Y-3251200D02*
X16052800Y-3352800D01*
X16052800Y-3251200D02*
X15951200Y-3352800D01*
X16205200Y-2997200D02*
X16306800Y-3098800D01*
X16306800Y-2997200D02*
X16205200Y-3098800D01*
X16205200Y-3251200D02*
X16306800Y-3352800D01*
X16306800Y-3251200D02*
X16205200Y-3352800D01*
X16459200Y-2997200D02*
X16560800Y-3098800D01*
X16560800Y-2997200D02*
X16459200Y-3098800D01*
X16459200Y-3251200D02*
X16560800Y-3352800D01*
X16560800Y-3251200D02*
X16459200Y-3352800D01*
X16713200Y-2997200D02*
X16814800Y-3098800D01*
X16814800Y-2997200D02*
X16713200Y-3098800D01*
X16713200Y-3251200D02*
X16814800Y-3352800D01*
X16814800Y-3251200D02*
X16713200Y-3352800D01*
X17475200Y-5537200D02*
X17576800Y-5638800D01*
X17576800Y-5537200D02*
X17475200Y-5638800D01*
X17475200Y-8077200D02*
X17576800Y-8178800D01*
X17576800Y-8077200D02*
X17475200Y-8178800D01*
X17475200Y-10617200D02*
X17576800Y-10718800D01*
X17576800Y-10617200D02*
X17475200Y-10718800D01*
X17475200Y-13157200D02*
X17576800Y-13258800D01*
X17576800Y-13157200D02*
X17475200Y-13258800D01*
X17475200Y-15697200D02*
X17576800Y-15798800D01*
X17576800Y-15697200D02*
X17475200Y-15798800D01*
X17475200Y-18237200D02*
X17576800Y-18338800D01*
X17576800Y-18237200D02*
X17475200Y-18338800D01*
X17475200Y-20777200D02*
X17576800Y-20878800D01*
X17576800Y-20777200D02*
X17475200Y-20878800D01*
X17475200Y-23317200D02*
X17576800Y-23418800D01*
X17576800Y-23317200D02*
X17475200Y-23418800D01*
X20015200Y-2997200D02*
X20116800Y-3098800D01*
X20116800Y-2997200D02*
X20015200Y-3098800D01*
X20015200Y-3251200D02*
X20116800Y-3352800D01*
X20116800Y-3251200D02*
X20015200Y-3352800D01*
X20015200Y-5537200D02*
X20116800Y-5638800D01*
X20116800Y-5537200D02*
X20015200Y-5638800D01*
X20015200Y-8077200D02*
X20116800Y-8178800D01*
X20116800Y-8077200D02*
X20015200Y-8178800D01*
X20015200Y-10617200D02*
X20116800Y-10718800D01*
X20116800Y-10617200D02*
X20015200Y-10718800D01*
X20015200Y-13157200D02*
X20116800Y-13258800D01*
X20116800Y-13157200D02*
X20015200Y-13258800D01*
X20015200Y-15697200D02*
X20116800Y-15798800D01*
X20116800Y-15697200D02*
X20015200Y-15798800D01*
X20015200Y-18237200D02*
X20116800Y-18338800D01*
X20116800Y-18237200D02*
X20015200Y-18338800D01*
X20015200Y-20777200D02*
X20116800Y-20878800D01*
X20116800Y-20777200D02*
X20015200Y-20878800D01*
X20015200Y-23317200D02*
X20116800Y-23418800D01*
X20116800Y-23317200D02*
X20015200Y-23418800D01*
X20269200Y-2997200D02*
X20370800Y-3098800D01*
X20370800Y-2997200D02*
X20269200Y-3098800D01*
X20269200Y-3251200D02*
X20370800Y-3352800D01*
X20370800Y-3251200D02*
X20269200Y-3352800D01*
X20523200Y-2997200D02*
X20624800Y-3098800D01*
X20624800Y-2997200D02*
X20523200Y-3098800D01*
X20523200Y-3251200D02*
X20624800Y-3352800D01*
X20624800Y-3251200D02*
X20523200Y-3352800D01*
X20777200Y-2997200D02*
X20878800Y-3098800D01*
X20878800Y-2997200D02*
X20777200Y-3098800D01*
X20777200Y-3251200D02*
X20878800Y-3352800D01*
X20878800Y-3251200D02*
X20777200Y-3352800D01*
X21031200Y-2997200D02*
X21132800Y-3098800D01*
X21132800Y-2997200D02*
X21031200Y-3098800D01*
X21031200Y-3251200D02*
X21132800Y-3352800D01*
X21132800Y-3251200D02*
X21031200Y-3352800D01*
X21285200Y-2997200D02*
X21386800Y-3098800D01*
X21386800Y-2997200D02*
X21285200Y-3098800D01*
X21285200Y-3251200D02*
X21386800Y-3352800D01*
X21386800Y-3251200D02*
X21285200Y-3352800D01*
X21539200Y-2997200D02*
X21640800Y-3098800D01*
X21640800Y-2997200D02*
X21539200Y-3098800D01*
X21539200Y-3251200D02*
X21640800Y-3352800D01*
X21640800Y-3251200D02*
X21539200Y-3352800D01*
X21793200Y-2997200D02*
X21894800Y-3098800D01*
X21894800Y-2997200D02*
X21793200Y-3098800D01*
X21793200Y-3251200D02*
X21894800Y-3352800D01*
X21894800Y-3251200D02*
X21793200Y-3352800D01*
X22555200Y-5537200D02*
X22656800Y-5638800D01*
X22656800Y-5537200D02*
X22555200Y-5638800D01*
X22555200Y-8077200D02*
X22656800Y-8178800D01*
X22656800Y-8077200D02*
X22555200Y-8178800D01*
X22555200Y-10617200D02*
X22656800Y-10718800D01*
X22656800Y-10617200D02*
X22555200Y-10718800D01*
X22555200Y-13157200D02*
X22656800Y-13258800D01*
X22656800Y-13157200D02*
X22555200Y-13258800D01*
X22555200Y-15697200D02*
X22656800Y-15798800D01*
X22656800Y-15697200D02*
X22555200Y-15798800D01*
X22555200Y-18237200D02*
X22656800Y-18338800D01*
X22656800Y-18237200D02*
X22555200Y-18338800D01*
X22555200Y-20777200D02*
X22656800Y-20878800D01*
X22656800Y-20777200D02*
X22555200Y-20878800D01*
X22555200Y-23317200D02*
X22656800Y-23418800D01*
X22656800Y-23317200D02*
X22555200Y-23418800D01*
X3200400Y-2794000D02*
G75*
G03X3200400Y-2794000I-152400J0D01*
G01*
X3200400Y-5588000D02*
G75*
G03X3200400Y-5588000I-152400J0D01*
G01*
X3200400Y-8382000D02*
G75*
G03X3200400Y-8382000I-152400J0D01*
G01*
X3200400Y-11176000D02*
G75*
G03X3200400Y-11176000I-152400J0D01*
G01*
X3200400Y-13970000D02*
G75*
G03X3200400Y-13970000I-152400J0D01*
G01*
X3200400Y-16764000D02*
G75*
G03X3200400Y-16764000I-152400J0D01*
G01*
X3200400Y-19558000D02*
G75*
G03X3200400Y-19558000I-152400J0D01*
G01*
X3200400Y-22352000D02*
G75*
G03X3200400Y-22352000I-152400J0D01*
G01*
X5740400Y-25146000D02*
G75*
G03X5740400Y-25146000I-152400J0D01*
G01*
X8534400Y-25146000D02*
G75*
G03X8534400Y-25146000I-152400J0D01*
G01*
X8788400Y-2794000D02*
G75*
G03X8788400Y-2794000I-152400J0D01*
G01*
X11328400Y-25146000D02*
G75*
G03X11328400Y-25146000I-152400J0D01*
G01*
X13868400Y-2794000D02*
G75*
G03X13868400Y-2794000I-152400J0D01*
G01*
X14122400Y-25146000D02*
G75*
G03X14122400Y-25146000I-152400J0D01*
G01*
X16916400Y-25146000D02*
G75*
G03X16916400Y-25146000I-152400J0D01*
G01*
X18948400Y-2794000D02*
G75*
G03X18948400Y-2794000I-152400J0D01*
G01*
X19710400Y-25146000D02*
G75*
G03X19710400Y-25146000I-152400J0D01*
G01*
X22504400Y-25146000D02*
G75*
G03X22504400Y-25146000I-152400J0D01*
G01*
X24536400Y-2794000D02*
G75*
G03X24536400Y-2794000I-152400J0D01*
G01*
X24536400Y-5588000D02*
G75*
G03X24536400Y-5588000I-152400J0D01*
G01*
X24536400Y-8382000D02*
G75*
G03X24536400Y-8382000I-152400J0D01*
G01*
X24536400Y-11176000D02*
G75*
G03X24536400Y-11176000I-152400J0D01*
G01*
X24536400Y-13970000D02*
G75*
G03X24536400Y-13970000I-152400J0D01*
G01*
X24536400Y-16764000D02*
G75*
G03X24536400Y-16764000I-152400J0D01*
G01*
X24536400Y-19558000D02*
G75*
G03X24536400Y-19558000I-152400J0D01*
G01*
X24536400Y-22352000D02*
G75*
G03X24536400Y-22352000I-152400J0D01*
G01*
D13*
X2803928Y-26127214D02*
X2803928Y-25827214D01*
X2875357Y-25827214D01*
X2918214Y-25841500D01*
X2946786Y-25870071D01*
X2961071Y-25898643D01*
X2975357Y-25955786D01*
X2975357Y-25998643D01*
X2961071Y-26055786D01*
X2946786Y-26084357D01*
X2918214Y-26112929D01*
X2875357Y-26127214D01*
X2803928Y-26127214D01*
X3103928Y-26127214D02*
X3103928Y-25927214D01*
X3103928Y-25984357D02*
X3118214Y-25955786D01*
X3132500Y-25941500D01*
X3161071Y-25927214D01*
X3189643Y-25927214D01*
X3289643Y-26127214D02*
X3289643Y-25927214D01*
X3289643Y-25827214D02*
X3275357Y-25841500D01*
X3289643Y-25855786D01*
X3303928Y-25841500D01*
X3289643Y-25827214D01*
X3289643Y-25855786D01*
X3475357Y-26127214D02*
X3446786Y-26112929D01*
X3432500Y-26084357D01*
X3432500Y-25827214D01*
X3632500Y-26127214D02*
X3603928Y-26112929D01*
X3589643Y-26084357D01*
X3589643Y-25827214D01*
X3975357Y-26127214D02*
X3975357Y-25827214D01*
X4075357Y-26041500D01*
X4175357Y-25827214D01*
X4175357Y-26127214D01*
X4446786Y-26127214D02*
X4446786Y-25970071D01*
X4432500Y-25941500D01*
X4403929Y-25927214D01*
X4346786Y-25927214D01*
X4318214Y-25941500D01*
X4446786Y-26112929D02*
X4418214Y-26127214D01*
X4346786Y-26127214D01*
X4318214Y-26112929D01*
X4303929Y-26084357D01*
X4303929Y-26055786D01*
X4318214Y-26027214D01*
X4346786Y-26012929D01*
X4418214Y-26012929D01*
X4446786Y-25998643D01*
X4589643Y-25927214D02*
X4589643Y-26227214D01*
X4589643Y-25941500D02*
X4618214Y-25927214D01*
X4675357Y-25927214D01*
X4703929Y-25941500D01*
X4718214Y-25955786D01*
X4732500Y-25984357D01*
X4732500Y-26070071D01*
X4718214Y-26098643D01*
X4703929Y-26112929D01*
X4675357Y-26127214D01*
X4618214Y-26127214D01*
X4589643Y-26112929D01*
X4861071Y-26098643D02*
X4875357Y-26112929D01*
X4861071Y-26127214D01*
X4846786Y-26112929D01*
X4861071Y-26098643D01*
X4861071Y-26127214D01*
X4861071Y-25941500D02*
X4875357Y-25955786D01*
X4861071Y-25970071D01*
X4846786Y-25955786D01*
X4861071Y-25941500D01*
X4861071Y-25970071D01*
X2430900Y-26570700D02*
X2532500Y-26672300D01*
X2532500Y-26570700D02*
X2430900Y-26672300D01*
X2961071Y-26757214D02*
X2789643Y-26757214D01*
X2875357Y-26757214D02*
X2875357Y-26457214D01*
X2846786Y-26500071D01*
X2818214Y-26528643D01*
X2789643Y-26542929D01*
X3089643Y-26728643D02*
X3103928Y-26742929D01*
X3089643Y-26757214D01*
X3075357Y-26742929D01*
X3089643Y-26728643D01*
X3089643Y-26757214D01*
X3289643Y-26457214D02*
X3318214Y-26457214D01*
X3346786Y-26471500D01*
X3361071Y-26485786D01*
X3375357Y-26514357D01*
X3389643Y-26571500D01*
X3389643Y-26642929D01*
X3375357Y-26700071D01*
X3361071Y-26728643D01*
X3346786Y-26742929D01*
X3318214Y-26757214D01*
X3289643Y-26757214D01*
X3261071Y-26742929D01*
X3246786Y-26728643D01*
X3232500Y-26700071D01*
X3218214Y-26642929D01*
X3218214Y-26571500D01*
X3232500Y-26514357D01*
X3246786Y-26485786D01*
X3261071Y-26471500D01*
X3289643Y-26457214D01*
X3503928Y-26485786D02*
X3518214Y-26471500D01*
X3546786Y-26457214D01*
X3618214Y-26457214D01*
X3646786Y-26471500D01*
X3661071Y-26485786D01*
X3675357Y-26514357D01*
X3675357Y-26542929D01*
X3661071Y-26585786D01*
X3489643Y-26757214D01*
X3675357Y-26757214D01*
X3803928Y-26757214D02*
X3803928Y-26557214D01*
X3803928Y-26585786D02*
X3818214Y-26571500D01*
X3846786Y-26557214D01*
X3889643Y-26557214D01*
X3918214Y-26571500D01*
X3932500Y-26600071D01*
X3932500Y-26757214D01*
X3932500Y-26600071D02*
X3946786Y-26571500D01*
X3975357Y-26557214D01*
X4018214Y-26557214D01*
X4046786Y-26571500D01*
X4061071Y-26600071D01*
X4061071Y-26757214D01*
X4203929Y-26757214D02*
X4203929Y-26557214D01*
X4203929Y-26585786D02*
X4218214Y-26571500D01*
X4246786Y-26557214D01*
X4289643Y-26557214D01*
X4318214Y-26571500D01*
X4332500Y-26600071D01*
X4332500Y-26757214D01*
X4332500Y-26600071D02*
X4346786Y-26571500D01*
X4375357Y-26557214D01*
X4418214Y-26557214D01*
X4446786Y-26571500D01*
X4461071Y-26600071D01*
X4461071Y-26757214D01*
X5046786Y-26442929D02*
X4789643Y-26828643D01*
X5432500Y-26457214D02*
X5461071Y-26457214D01*
X5489643Y-26471500D01*
X5503928Y-26485786D01*
X5518214Y-26514357D01*
X5532500Y-26571500D01*
X5532500Y-26642929D01*
X5518214Y-26700071D01*
X5503928Y-26728643D01*
X5489643Y-26742929D01*
X5461071Y-26757214D01*
X5432500Y-26757214D01*
X5403928Y-26742929D01*
X5389643Y-26728643D01*
X5375357Y-26700071D01*
X5361071Y-26642929D01*
X5361071Y-26571500D01*
X5375357Y-26514357D01*
X5389643Y-26485786D01*
X5403928Y-26471500D01*
X5432500Y-26457214D01*
X5661071Y-26728643D02*
X5675357Y-26742929D01*
X5661071Y-26757214D01*
X5646786Y-26742929D01*
X5661071Y-26728643D01*
X5661071Y-26757214D01*
X5861071Y-26457214D02*
X5889643Y-26457214D01*
X5918214Y-26471500D01*
X5932500Y-26485786D01*
X5946785Y-26514357D01*
X5961071Y-26571500D01*
X5961071Y-26642929D01*
X5946785Y-26700071D01*
X5932500Y-26728643D01*
X5918214Y-26742929D01*
X5889643Y-26757214D01*
X5861071Y-26757214D01*
X5832500Y-26742929D01*
X5818214Y-26728643D01*
X5803928Y-26700071D01*
X5789643Y-26642929D01*
X5789643Y-26571500D01*
X5803928Y-26514357D01*
X5818214Y-26485786D01*
X5832500Y-26471500D01*
X5861071Y-26457214D01*
X6218214Y-26557214D02*
X6218214Y-26757214D01*
X6146785Y-26442929D02*
X6075357Y-26657214D01*
X6261071Y-26657214D01*
X6432500Y-26457214D02*
X6461071Y-26457214D01*
X6489643Y-26471500D01*
X6503928Y-26485786D01*
X6518214Y-26514357D01*
X6532500Y-26571500D01*
X6532500Y-26642929D01*
X6518214Y-26700071D01*
X6503928Y-26728643D01*
X6489643Y-26742929D01*
X6461071Y-26757214D01*
X6432500Y-26757214D01*
X6403928Y-26742929D01*
X6389643Y-26728643D01*
X6375357Y-26700071D01*
X6361071Y-26642929D01*
X6361071Y-26571500D01*
X6375357Y-26514357D01*
X6389643Y-26485786D01*
X6403928Y-26471500D01*
X6432500Y-26457214D01*
X6646786Y-26457214D02*
X6646786Y-26514357D01*
X6761071Y-26457214D02*
X6761071Y-26514357D01*
X7203928Y-26871500D02*
X7189643Y-26857214D01*
X7161071Y-26814357D01*
X7146785Y-26785786D01*
X7132500Y-26742929D01*
X7118214Y-26671500D01*
X7118214Y-26614357D01*
X7132500Y-26542929D01*
X7146785Y-26500071D01*
X7161071Y-26471500D01*
X7189643Y-26428643D01*
X7203928Y-26414357D01*
X7475357Y-26757214D02*
X7303928Y-26757214D01*
X7389643Y-26757214D02*
X7389643Y-26457214D01*
X7361071Y-26500071D01*
X7332500Y-26528643D01*
X7303928Y-26542929D01*
X7589643Y-26485786D02*
X7603928Y-26471500D01*
X7632500Y-26457214D01*
X7703928Y-26457214D01*
X7732500Y-26471500D01*
X7746785Y-26485786D01*
X7761071Y-26514357D01*
X7761071Y-26542929D01*
X7746785Y-26585786D01*
X7575357Y-26757214D01*
X7761071Y-26757214D01*
X7932500Y-26585786D02*
X7903928Y-26571500D01*
X7889643Y-26557214D01*
X7875357Y-26528643D01*
X7875357Y-26514357D01*
X7889643Y-26485786D01*
X7903928Y-26471500D01*
X7932500Y-26457214D01*
X7989643Y-26457214D01*
X8018214Y-26471500D01*
X8032500Y-26485786D01*
X8046785Y-26514357D01*
X8046785Y-26528643D01*
X8032500Y-26557214D01*
X8018214Y-26571500D01*
X7989643Y-26585786D01*
X7932500Y-26585786D01*
X7903928Y-26600071D01*
X7889643Y-26614357D01*
X7875357Y-26642929D01*
X7875357Y-26700071D01*
X7889643Y-26728643D01*
X7903928Y-26742929D01*
X7932500Y-26757214D01*
X7989643Y-26757214D01*
X8018214Y-26742929D01*
X8032500Y-26728643D01*
X8046785Y-26700071D01*
X8046785Y-26642929D01*
X8032500Y-26614357D01*
X8018214Y-26600071D01*
X7989643Y-26585786D01*
X8403928Y-26757214D02*
X8403928Y-26457214D01*
X8532500Y-26757214D02*
X8532500Y-26600071D01*
X8518214Y-26571500D01*
X8489643Y-26557214D01*
X8446786Y-26557214D01*
X8418214Y-26571500D01*
X8403928Y-26585786D01*
X8718214Y-26757214D02*
X8689643Y-26742929D01*
X8675357Y-26728643D01*
X8661071Y-26700071D01*
X8661071Y-26614357D01*
X8675357Y-26585786D01*
X8689643Y-26571500D01*
X8718214Y-26557214D01*
X8761071Y-26557214D01*
X8789643Y-26571500D01*
X8803928Y-26585786D01*
X8818214Y-26614357D01*
X8818214Y-26700071D01*
X8803928Y-26728643D01*
X8789643Y-26742929D01*
X8761071Y-26757214D01*
X8718214Y-26757214D01*
X8989643Y-26757214D02*
X8961071Y-26742929D01*
X8946786Y-26714357D01*
X8946786Y-26457214D01*
X9218214Y-26742929D02*
X9189643Y-26757214D01*
X9132500Y-26757214D01*
X9103929Y-26742929D01*
X9089643Y-26714357D01*
X9089643Y-26600071D01*
X9103929Y-26571500D01*
X9132500Y-26557214D01*
X9189643Y-26557214D01*
X9218214Y-26571500D01*
X9232500Y-26600071D01*
X9232500Y-26628643D01*
X9089643Y-26657214D01*
X9346786Y-26742929D02*
X9375357Y-26757214D01*
X9432500Y-26757214D01*
X9461071Y-26742929D01*
X9475357Y-26714357D01*
X9475357Y-26700071D01*
X9461071Y-26671500D01*
X9432500Y-26657214D01*
X9389643Y-26657214D01*
X9361071Y-26642929D01*
X9346786Y-26614357D01*
X9346786Y-26600071D01*
X9361071Y-26571500D01*
X9389643Y-26557214D01*
X9432500Y-26557214D01*
X9461071Y-26571500D01*
X9575357Y-26871500D02*
X9589643Y-26857214D01*
X9618214Y-26814357D01*
X9632500Y-26785786D01*
X9646786Y-26742929D01*
X9661071Y-26671500D01*
X9661071Y-26614357D01*
X9646786Y-26542929D01*
X9632500Y-26500071D01*
X9618214Y-26471500D01*
X9589643Y-26428643D01*
X9575357Y-26414357D01*
X2532500Y-27017500D02*
G75*
G03X2532500Y-27017500I-152400J0D01*
G01*
X2775357Y-26853214D02*
X2961071Y-26853214D01*
X2861071Y-26967500D01*
X2903928Y-26967500D01*
X2932500Y-26981786D01*
X2946786Y-26996071D01*
X2961071Y-27024643D01*
X2961071Y-27096071D01*
X2946786Y-27124643D01*
X2932500Y-27138929D01*
X2903928Y-27153214D01*
X2818214Y-27153214D01*
X2789643Y-27138929D01*
X2775357Y-27124643D01*
X3089643Y-27124643D02*
X3103928Y-27138929D01*
X3089643Y-27153214D01*
X3075357Y-27138929D01*
X3089643Y-27124643D01*
X3089643Y-27153214D01*
X3289643Y-26853214D02*
X3318214Y-26853214D01*
X3346786Y-26867500D01*
X3361071Y-26881786D01*
X3375357Y-26910357D01*
X3389643Y-26967500D01*
X3389643Y-27038929D01*
X3375357Y-27096071D01*
X3361071Y-27124643D01*
X3346786Y-27138929D01*
X3318214Y-27153214D01*
X3289643Y-27153214D01*
X3261071Y-27138929D01*
X3246786Y-27124643D01*
X3232500Y-27096071D01*
X3218214Y-27038929D01*
X3218214Y-26967500D01*
X3232500Y-26910357D01*
X3246786Y-26881786D01*
X3261071Y-26867500D01*
X3289643Y-26853214D01*
X3661071Y-26853214D02*
X3518214Y-26853214D01*
X3503928Y-26996071D01*
X3518214Y-26981786D01*
X3546786Y-26967500D01*
X3618214Y-26967500D01*
X3646786Y-26981786D01*
X3661071Y-26996071D01*
X3675357Y-27024643D01*
X3675357Y-27096071D01*
X3661071Y-27124643D01*
X3646786Y-27138929D01*
X3618214Y-27153214D01*
X3546786Y-27153214D01*
X3518214Y-27138929D01*
X3503928Y-27124643D01*
X3803928Y-27153214D02*
X3803928Y-26953214D01*
X3803928Y-26981786D02*
X3818214Y-26967500D01*
X3846786Y-26953214D01*
X3889643Y-26953214D01*
X3918214Y-26967500D01*
X3932500Y-26996071D01*
X3932500Y-27153214D01*
X3932500Y-26996071D02*
X3946786Y-26967500D01*
X3975357Y-26953214D01*
X4018214Y-26953214D01*
X4046786Y-26967500D01*
X4061071Y-26996071D01*
X4061071Y-27153214D01*
X4203929Y-27153214D02*
X4203929Y-26953214D01*
X4203929Y-26981786D02*
X4218214Y-26967500D01*
X4246786Y-26953214D01*
X4289643Y-26953214D01*
X4318214Y-26967500D01*
X4332500Y-26996071D01*
X4332500Y-27153214D01*
X4332500Y-26996071D02*
X4346786Y-26967500D01*
X4375357Y-26953214D01*
X4418214Y-26953214D01*
X4446786Y-26967500D01*
X4461071Y-26996071D01*
X4461071Y-27153214D01*
X5046786Y-26838929D02*
X4789643Y-27224643D01*
X5432500Y-26853214D02*
X5461071Y-26853214D01*
X5489643Y-26867500D01*
X5503928Y-26881786D01*
X5518214Y-26910357D01*
X5532500Y-26967500D01*
X5532500Y-27038929D01*
X5518214Y-27096071D01*
X5503928Y-27124643D01*
X5489643Y-27138929D01*
X5461071Y-27153214D01*
X5432500Y-27153214D01*
X5403928Y-27138929D01*
X5389643Y-27124643D01*
X5375357Y-27096071D01*
X5361071Y-27038929D01*
X5361071Y-26967500D01*
X5375357Y-26910357D01*
X5389643Y-26881786D01*
X5403928Y-26867500D01*
X5432500Y-26853214D01*
X5661071Y-27124643D02*
X5675357Y-27138929D01*
X5661071Y-27153214D01*
X5646786Y-27138929D01*
X5661071Y-27124643D01*
X5661071Y-27153214D01*
X5961071Y-27153214D02*
X5789643Y-27153214D01*
X5875357Y-27153214D02*
X5875357Y-26853214D01*
X5846785Y-26896071D01*
X5818214Y-26924643D01*
X5789643Y-26938929D01*
X6075357Y-26881786D02*
X6089643Y-26867500D01*
X6118214Y-26853214D01*
X6189643Y-26853214D01*
X6218214Y-26867500D01*
X6232500Y-26881786D01*
X6246785Y-26910357D01*
X6246785Y-26938929D01*
X6232500Y-26981786D01*
X6061071Y-27153214D01*
X6246785Y-27153214D01*
X6432500Y-26853214D02*
X6461071Y-26853214D01*
X6489643Y-26867500D01*
X6503928Y-26881786D01*
X6518214Y-26910357D01*
X6532500Y-26967500D01*
X6532500Y-27038929D01*
X6518214Y-27096071D01*
X6503928Y-27124643D01*
X6489643Y-27138929D01*
X6461071Y-27153214D01*
X6432500Y-27153214D01*
X6403928Y-27138929D01*
X6389643Y-27124643D01*
X6375357Y-27096071D01*
X6361071Y-27038929D01*
X6361071Y-26967500D01*
X6375357Y-26910357D01*
X6389643Y-26881786D01*
X6403928Y-26867500D01*
X6432500Y-26853214D01*
X6646786Y-26853214D02*
X6646786Y-26910357D01*
X6761071Y-26853214D02*
X6761071Y-26910357D01*
X7203928Y-27267500D02*
X7189643Y-27253214D01*
X7161071Y-27210357D01*
X7146785Y-27181786D01*
X7132500Y-27138929D01*
X7118214Y-27067500D01*
X7118214Y-27010357D01*
X7132500Y-26938929D01*
X7146785Y-26896071D01*
X7161071Y-26867500D01*
X7189643Y-26824643D01*
X7203928Y-26810357D01*
X7303928Y-26881786D02*
X7318214Y-26867500D01*
X7346785Y-26853214D01*
X7418214Y-26853214D01*
X7446785Y-26867500D01*
X7461071Y-26881786D01*
X7475357Y-26910357D01*
X7475357Y-26938929D01*
X7461071Y-26981786D01*
X7289643Y-27153214D01*
X7475357Y-27153214D01*
X7732500Y-26853214D02*
X7675357Y-26853214D01*
X7646785Y-26867500D01*
X7632500Y-26881786D01*
X7603928Y-26924643D01*
X7589643Y-26981786D01*
X7589643Y-27096071D01*
X7603928Y-27124643D01*
X7618214Y-27138929D01*
X7646785Y-27153214D01*
X7703928Y-27153214D01*
X7732500Y-27138929D01*
X7746785Y-27124643D01*
X7761071Y-27096071D01*
X7761071Y-27024643D01*
X7746785Y-26996071D01*
X7732500Y-26981786D01*
X7703928Y-26967500D01*
X7646785Y-26967500D01*
X7618214Y-26981786D01*
X7603928Y-26996071D01*
X7589643Y-27024643D01*
X8118214Y-27153214D02*
X8118214Y-26853214D01*
X8246785Y-27153214D02*
X8246785Y-26996071D01*
X8232500Y-26967500D01*
X8203928Y-26953214D01*
X8161071Y-26953214D01*
X8132500Y-26967500D01*
X8118214Y-26981786D01*
X8432500Y-27153214D02*
X8403928Y-27138929D01*
X8389643Y-27124643D01*
X8375357Y-27096071D01*
X8375357Y-27010357D01*
X8389643Y-26981786D01*
X8403928Y-26967500D01*
X8432500Y-26953214D01*
X8475357Y-26953214D01*
X8503928Y-26967500D01*
X8518214Y-26981786D01*
X8532500Y-27010357D01*
X8532500Y-27096071D01*
X8518214Y-27124643D01*
X8503928Y-27138929D01*
X8475357Y-27153214D01*
X8432500Y-27153214D01*
X8703928Y-27153214D02*
X8675357Y-27138929D01*
X8661071Y-27110357D01*
X8661071Y-26853214D01*
X8932500Y-27138929D02*
X8903929Y-27153214D01*
X8846786Y-27153214D01*
X8818214Y-27138929D01*
X8803929Y-27110357D01*
X8803929Y-26996071D01*
X8818214Y-26967500D01*
X8846786Y-26953214D01*
X8903929Y-26953214D01*
X8932500Y-26967500D01*
X8946786Y-26996071D01*
X8946786Y-27024643D01*
X8803929Y-27053214D01*
X9061071Y-27138929D02*
X9089643Y-27153214D01*
X9146786Y-27153214D01*
X9175357Y-27138929D01*
X9189643Y-27110357D01*
X9189643Y-27096071D01*
X9175357Y-27067500D01*
X9146786Y-27053214D01*
X9103929Y-27053214D01*
X9075357Y-27038929D01*
X9061071Y-27010357D01*
X9061071Y-26996071D01*
X9075357Y-26967500D01*
X9103929Y-26953214D01*
X9146786Y-26953214D01*
X9175357Y-26967500D01*
X9289643Y-27267500D02*
X9303929Y-27253214D01*
X9332500Y-27210357D01*
X9346786Y-27181786D01*
X9361071Y-27138929D01*
X9375357Y-27067500D01*
X9375357Y-27010357D01*
X9361071Y-26938929D01*
X9346786Y-26896071D01*
X9332500Y-26867500D01*
X9303929Y-26824643D01*
X9289643Y-26810357D01*
M02*
