M48
;DRILL file {KiCad 4.0.1-stable} date 2016-05-02 16:34:01
;FORMAT={-:-/ absolute / metric / decimal}
FMAT,2
METRIC,TZ
T1C1.016
T2C3.048
%
G90
G05
M71
T1
X48.26Y-30.48
X48.26Y-33.02
X48.26Y-55.88
X48.26Y-81.28
X48.26Y-106.68
X48.26Y-132.08
X48.26Y-157.48
X48.26Y-182.88
X48.26Y-208.28
X48.26Y-233.68
X50.8Y-30.48
X50.8Y-33.02
X53.34Y-30.48
X53.34Y-33.02
X55.88Y-30.48
X55.88Y-33.02
X58.42Y-30.48
X58.42Y-33.02
X60.96Y-30.48
X60.96Y-33.02
X63.5Y-30.48
X63.5Y-33.02
X66.04Y-30.48
X66.04Y-33.02
X73.66Y-55.88
X73.66Y-81.28
X73.66Y-106.68
X73.66Y-132.08
X73.66Y-157.48
X73.66Y-182.88
X73.66Y-208.28
X73.66Y-233.68
X99.06Y-30.48
X99.06Y-33.02
X99.06Y-55.88
X99.06Y-81.28
X99.06Y-106.68
X99.06Y-132.08
X99.06Y-157.48
X99.06Y-182.88
X99.06Y-208.28
X99.06Y-233.68
X101.6Y-30.48
X101.6Y-33.02
X104.14Y-30.48
X104.14Y-33.02
X106.68Y-30.48
X106.68Y-33.02
X109.22Y-30.48
X109.22Y-33.02
X111.76Y-30.48
X111.76Y-33.02
X114.3Y-30.48
X114.3Y-33.02
X116.84Y-30.48
X116.84Y-33.02
X124.46Y-55.88
X124.46Y-81.28
X124.46Y-106.68
X124.46Y-132.08
X124.46Y-157.48
X124.46Y-182.88
X124.46Y-208.28
X124.46Y-233.68
X149.86Y-30.48
X149.86Y-33.02
X149.86Y-55.88
X149.86Y-81.28
X149.86Y-106.68
X149.86Y-132.08
X149.86Y-157.48
X149.86Y-182.88
X149.86Y-208.28
X149.86Y-233.68
X152.4Y-30.48
X152.4Y-33.02
X154.94Y-30.48
X154.94Y-33.02
X157.48Y-30.48
X157.48Y-33.02
X160.02Y-30.48
X160.02Y-33.02
X162.56Y-30.48
X162.56Y-33.02
X165.1Y-30.48
X165.1Y-33.02
X167.64Y-30.48
X167.64Y-33.02
X175.26Y-55.88
X175.26Y-81.28
X175.26Y-106.68
X175.26Y-132.08
X175.26Y-157.48
X175.26Y-182.88
X175.26Y-208.28
X175.26Y-233.68
X200.66Y-30.48
X200.66Y-33.02
X200.66Y-55.88
X200.66Y-81.28
X200.66Y-106.68
X200.66Y-132.08
X200.66Y-157.48
X200.66Y-182.88
X200.66Y-208.28
X200.66Y-233.68
X203.2Y-30.48
X203.2Y-33.02
X205.74Y-30.48
X205.74Y-33.02
X208.28Y-30.48
X208.28Y-33.02
X210.82Y-30.48
X210.82Y-33.02
X213.36Y-30.48
X213.36Y-33.02
X215.9Y-30.48
X215.9Y-33.02
X218.44Y-30.48
X218.44Y-33.02
X226.06Y-55.88
X226.06Y-81.28
X226.06Y-106.68
X226.06Y-132.08
X226.06Y-157.48
X226.06Y-182.88
X226.06Y-208.28
X226.06Y-233.68
T2
X30.48Y-27.94
X30.48Y-55.88
X30.48Y-83.82
X30.48Y-111.76
X30.48Y-139.7
X30.48Y-167.64
X30.48Y-195.58
X30.48Y-223.52
X55.88Y-251.46
X83.82Y-251.46
X86.36Y-27.94
X111.76Y-251.46
X137.16Y-27.94
X139.7Y-251.46
X167.64Y-251.46
X187.96Y-27.94
X195.58Y-251.46
X223.52Y-251.46
X243.84Y-27.94
X243.84Y-55.88
X243.84Y-83.82
X243.84Y-111.76
X243.84Y-139.7
X243.84Y-167.64
X243.84Y-195.58
X243.84Y-223.52
T0
M30
