
		<svg xmlns="http://www.w3.org/2000/svg" xmlns:xlink="http://www.w3.org/1999/xlink" version="1.1" width="2453.531598513011" height="3223.0483271375465">
			
			<g transform="scale(11.152416356877323) translate(10, 10)">
				<defs id="SvgjsDefs6826"></defs><g id="SvgjsG6827" featureKey="root" fill="#c9fbfa"></g><g id="SvgjsG6828" featureKey="container1" fill="#000000" transform="matrix(3.375,0,0,3.375,16,0)"><path d="M5,0H50a0,0,0,0,1,0,0V45a5,5,0,0,1-5,5H0a0,0,0,0,1,0,0V5A5,5,0,0,1,5,0Z"></path></g><g id="SvgjsG6829" featureKey="symbol1" fill="#c9fbfa" transform="matrix(1.2359983921051025,0,0,1.2359983921051025,38.20007724990344,22.93472383159521)"><g id="SvgjsG6830"><g xmlns="http://www.w3.org/2000/svg"><path d="M31.112,39.094v21.812L49.999,71.81l18.89-10.903V39.094l-18.89-10.905L31.112,39.094z M60.925,56.308l-10.926,6.307   l-10.924-6.307V43.692l10.924-6.308l10.926,6.308V56.308z"></path><path d="M49.999,3.29L9.547,26.646v46.709L49.999,96.71l40.454-23.355V26.646L49.999,3.29z M82.19,68.584L49.999,87.169   L17.811,68.584v-37.17l32.188-18.585L82.19,31.414V68.584z"></path><path d="M20.368,32.89v34.218l29.631,17.108l29.634-17.108V32.89L49.999,15.782L20.368,32.89z M71.446,62.383l-21.447,12.38   l-21.444-12.38V37.618l21.444-12.382l21.447,12.382V62.383z"></path></g></g></g><g id="SvgjsG6831" featureKey="text1" fill="#000000" transform="matrix(1.958833932876587,0,0,1.958833932876587,-1.9588338817047977,179.46177978422222)"><path d="M1 21.2 l0 -13.78 l5.24 0 c0.92 0 1.78 0.36 2.42 1 c0.66 0.66 1.02 1.52 1.02 2.42 l0 1.16 c0 0.76 -0.26 1.48 -0.72 2.08 l-0.18 0.22 l0.18 0.24 c0.46 0.6 0.72 1.32 0.72 2.08 l0 1.16 c0 0.9 -0.36 1.76 -1.02 2.42 c-0.64 0.64 -1.5 1 -2.42 1 l-5.24 0 z M3.22 18.98 l3.02 0 c0.34 0 0.64 -0.12 0.86 -0.36 c0.24 -0.22 0.36 -0.52 0.36 -0.84 l0 -1.16 c0 -0.32 -0.12 -0.62 -0.36 -0.84 c-0.22 -0.24 -0.52 -0.36 -0.86 -0.36 l-3.02 0 l0 3.56 z M3.22 13.2 l3.02 0 c0.34 0 0.64 -0.12 0.86 -0.36 c0.22 -0.22 0.36 -0.52 0.36 -0.84 l0 -1.16 c0 -0.32 -0.12 -0.62 -0.36 -0.84 c-0.22 -0.24 -0.52 -0.36 -0.86 -0.36 l-3.02 0 l0 3.56 z M11.68 21.2 l0 -13.78 l2.22 0 l0 13.78 l-2.22 0 z M19.299999999999997 21.24 c-0.9 0 -1.76 -0.34 -2.4 -0.98 s-1 -1.5 -1 -2.4 l0 -6.86 c0 -0.92 0.36 -1.76 1 -2.4 s1.5 -1 2.4 -1 l1.8 0 c0.9 0 1.76 0.36 2.4 1 s1 1.48 1 2.4 l0 6.86 c0 0.9 -0.36 1.76 -1 2.4 s-1.5 0.98 -2.4 0.98 l-1.8 0 z M19.299999999999997 9.799999999999999 c-0.32 0 -0.62 0.12 -0.84 0.34 c-0.24 0.24 -0.36 0.54 -0.36 0.86 l0 6.86 c0 0.32 0.12 0.62 0.36 0.84 c0.22 0.22 0.52 0.36 0.84 0.36 l1.8 0 c0.32 0 0.62 -0.14 0.84 -0.36 c0.24 -0.22 0.36 -0.52 0.36 -0.84 l0 -6.86 c0 -0.32 -0.12 -0.62 -0.36 -0.86 c-0.22 -0.22 -0.52 -0.34 -0.84 -0.34 l-1.8 0 z  M30.560000000000002 21.2 l0 -13.78 l5.24 0 c0.92 0 1.78 0.36 2.42 1 c0.66 0.66 1.02 1.52 1.02 2.42 l0 1.16 c0 0.76 -0.26 1.48 -0.72 2.08 l-0.18 0.22 l0.18 0.24 c0.46 0.6 0.72 1.32 0.72 2.08 l0 1.16 c0 0.9 -0.36 1.76 -1.02 2.42 c-0.64 0.64 -1.5 1 -2.42 1 l-5.24 0 z M32.78 18.98 l3.02 0 c0.34 0 0.64 -0.12 0.86 -0.36 c0.24 -0.22 0.36 -0.52 0.36 -0.84 l0 -1.16 c0 -0.32 -0.12 -0.62 -0.36 -0.84 c-0.22 -0.24 -0.52 -0.36 -0.86 -0.36 l-3.02 0 l0 3.56 z M32.78 13.2 l3.02 0 c0.34 0 0.64 -0.12 0.86 -0.36 c0.22 -0.22 0.36 -0.52 0.36 -0.84 l0 -1.16 c0 -0.32 -0.12 -0.62 -0.36 -0.84 c-0.22 -0.24 -0.52 -0.36 -0.86 -0.36 l-3.02 0 l0 3.56 z M47.7 21.2 l0 -1.98 l-4.24 0 l0 1.98 l-2.22 0 l0 -10.36 c0 -0.9 0.36 -1.76 1.02 -2.42 c0.64 -0.64 1.5 -1 2.42 -1 l1.82 0 c0.9 0 1.76 0.36 2.42 1 c0.64 0.66 1 1.52 1 2.42 l0 10.36 l-2.22 0 z M44.68 9.639999999999999 c-0.32 0 -0.64 0.12 -0.86 0.36 c-0.22 0.22 -0.36 0.52 -0.36 0.84 l0 6.16 l4.24 0 l0 -6.16 c0 -0.32 -0.12 -0.62 -0.36 -0.84 c-0.22 -0.24 -0.52 -0.36 -0.84 -0.36 l-1.82 0 z M51.92 21.24 l0 -13.64 l2.18 0 l0 11.46 l6.4 0 l0 2.18 l-8.58 0 z M68.96 21.2 l0 -1.98 l-4.24 0 l0 1.98 l-2.22 0 l0 -10.36 c0 -0.9 0.36 -1.76 1.02 -2.42 c0.64 -0.64 1.5 -1 2.42 -1 l1.82 0 c0.9 0 1.76 0.36 2.42 1 c0.64 0.66 1 1.52 1 2.42 l0 10.36 l-2.22 0 z M65.94 9.639999999999999 c-0.32 0 -0.64 0.12 -0.86 0.36 c-0.22 0.22 -0.36 0.52 -0.36 0.84 l0 6.16 l4.24 0 l0 -6.16 c0 -0.32 -0.12 -0.62 -0.36 -0.84 c-0.22 -0.24 -0.52 -0.36 -0.84 -0.36 l-1.82 0 z M79.56 21.24 l0 -4 l-4.18 -2.94 l0 6.94 l-2.2 0 l0 -13.64 l2.2 0 l0 4.02 l4.18 2.94 l0 -6.96 l2.2 0 l0 13.64 l-2.2 0 z M87.2 21.2 c-0.92 0 -1.78 -0.36 -2.42 -1 c-0.66 -0.66 -1.02 -1.52 -1.02 -2.42 l0 -6.94 c0 -0.9 0.36 -1.76 1.02 -2.42 c0.64 -0.64 1.5 -1 2.42 -1 l1.82 0 c0.9 0 1.76 0.36 2.42 1 c0.64 0.66 1 1.52 1 2.42 l0 0.2 l-2.22 0 l0 -0.2 c0 -0.32 -0.12 -0.62 -0.36 -0.84 c-0.22 -0.24 -0.52 -0.36 -0.84 -0.36 l-1.82 0 c-0.32 0 -0.64 0.12 -0.86 0.36 c-0.22 0.22 -0.36 0.52 -0.36 0.84 l0 6.94 c0 0.32 0.14 0.62 0.36 0.84 c0.22 0.24 0.54 0.36 0.86 0.36 l1.82 0 c0.32 0 0.62 -0.12 0.84 -0.36 c0.24 -0.22 0.36 -0.52 0.36 -0.84 l0 -0.2 l2.22 0 l0 0.2 c0 0.9 -0.36 1.76 -1 2.42 c-0.66 0.64 -1.52 1 -2.42 1 l-1.82 0 z M94.44 21.2 l0 -13.78 l8.66 0 l0 2.22 l-6.46 0 l0 3.56 l4.18 0 l0 2.22 l-4.18 0 l0 3.56 l6.46 0 l0 2.22 l-8.66 0 z"></path></g><g id="SvgjsG6832" featureKey="text2" fill="#000000" transform="matrix(2.431957483291626,0,0,2.431957483291626,-2.431957440744787,212.9503158694723)"><path d="M1 21.2 l0 -13.78 l5.24 0 c0.92 0 1.78 0.36 2.42 1 c0.66 0.66 1.02 1.52 1.02 2.42 l0 6.94 c0 0.9 -0.36 1.76 -1.02 2.42 c-0.64 0.64 -1.5 1 -2.42 1 l-5.24 0 z M3.22 18.98 l3.02 0 c0.34 0 0.64 -0.12 0.86 -0.36 c0.24 -0.22 0.36 -0.52 0.36 -0.84 l0 -6.94 c0 -0.32 -0.12 -0.62 -0.36 -0.84 c-0.22 -0.24 -0.52 -0.36 -0.86 -0.36 l-3.02 0 l0 9.34 z M11.68 21.2 l0 -13.78 l8.66 0 l0 2.22 l-6.46 0 l0 3.56 l4.18 0 l0 2.22 l-4.18 0 l0 3.56 l6.46 0 l0 2.22 l-8.66 0 z M25.34 21.24 l0 -11.44 l-3.2 0 l0 -2.2 l8.58 0 l0 2.2 l-3.18 0 l0 11.44 l-2.2 0 z M32.519999999999996 21.2 l0 -13.78 l8.66 0 l0 2.22 l-6.46 0 l0 3.56 l4.18 0 l0 2.22 l-4.18 0 l0 3.56 l6.46 0 l0 2.22 l-8.66 0 z M46.62 21.2 c-0.92 0 -1.78 -0.36 -2.42 -1 c-0.66 -0.66 -1.02 -1.52 -1.02 -2.42 l0 -6.94 c0 -0.9 0.36 -1.76 1.02 -2.42 c0.64 -0.64 1.5 -1 2.42 -1 l1.82 0 c0.9 0 1.76 0.36 2.42 1 c0.64 0.66 1 1.52 1 2.42 l0 0.2 l-2.22 0 l0 -0.2 c0 -0.32 -0.12 -0.62 -0.36 -0.84 c-0.22 -0.24 -0.52 -0.36 -0.84 -0.36 l-1.82 0 c-0.32 0 -0.64 0.12 -0.86 0.36 c-0.22 0.22 -0.36 0.52 -0.36 0.84 l0 6.94 c0 0.32 0.14 0.62 0.36 0.84 c0.22 0.24 0.54 0.36 0.86 0.36 l1.82 0 c0.32 0 0.62 -0.12 0.84 -0.36 c0.24 -0.22 0.36 -0.52 0.36 -0.84 l0 -0.2 l2.22 0 l0 0.2 c0 0.9 -0.36 1.76 -1 2.42 c-0.66 0.64 -1.52 1 -2.42 1 l-1.82 0 z M56.86 21.24 l0 -11.44 l-3.2 0 l0 -2.2 l8.58 0 l0 2.2 l-3.18 0 l0 11.44 l-2.2 0 z M67.44 21.24 c-0.9 0 -1.76 -0.34 -2.4 -0.98 s-1 -1.5 -1 -2.4 l0 -6.86 c0 -0.92 0.36 -1.76 1 -2.4 s1.5 -1 2.4 -1 l1.8 0 c0.9 0 1.76 0.36 2.4 1 s1 1.48 1 2.4 l0 6.86 c0 0.9 -0.36 1.76 -1 2.4 s-1.5 0.98 -2.4 0.98 l-1.8 0 z M67.44 9.799999999999999 c-0.32 0 -0.62 0.12 -0.84 0.34 c-0.24 0.24 -0.36 0.54 -0.36 0.86 l0 6.86 c0 0.32 0.12 0.62 0.36 0.84 c0.22 0.22 0.52 0.36 0.84 0.36 l1.8 0 c0.32 0 0.62 -0.14 0.84 -0.36 c0.24 -0.22 0.36 -0.52 0.36 -0.84 l0 -6.86 c0 -0.32 -0.12 -0.62 -0.36 -0.86 c-0.22 -0.22 -0.52 -0.34 -0.84 -0.34 l-1.8 0 z M81.04 21.24 l0 -4.52 c0 -0.32 -0.12 -0.62 -0.36 -0.84 c-0.22 -0.24 -0.52 -0.36 -0.84 -0.36 l-3 0 l0 5.72 l-2.2 0 l0 -13.64 l5.2 0 c0.9 0 1.76 0.36 2.4 1 s1 1.48 1 2.4 l0 1.12 c0 0.76 -0.24 1.48 -0.7 2.08 l-0.18 0.22 l0.18 0.24 c0.46 0.6 0.7 1.3 0.7 2.06 l0 4.52 l-2.2 0 z M76.84 13.32 l3 0 c0.32 0 0.62 -0.12 0.84 -0.34 c0.24 -0.24 0.36 -0.54 0.36 -0.86 l0 -1.12 c0 -0.32 -0.12 -0.62 -0.36 -0.86 c-0.22 -0.22 -0.52 -0.34 -0.84 -0.34 l-3 0 l0 3.52 z"></path></g>
			</g>
		</svg>
	