G04 #@! TF.FileFunction,Soldermask,Bot*
%FSLAX46Y46*%
G04 Gerber Fmt 4.6, Leading zero omitted, Abs format (unit mm)*
G04 Created by KiCad (PCBNEW 4.0.1-stable) date 2016-04-19 17:05:27*
%MOMM*%
G01*
G04 APERTURE LIST*
%ADD10C,0.100000*%
%ADD11O,1.727200X2.032000*%
%ADD12C,4.064000*%
%ADD13R,1.727200X1.727200*%
%ADD14O,1.727200X1.727200*%
G04 APERTURE END LIST*
D10*
D11*
X56388000Y-117475000D03*
X58928000Y-117475000D03*
X61468000Y-117475000D03*
X64008000Y-117475000D03*
X66548000Y-117475000D03*
X69088000Y-117475000D03*
X71628000Y-117475000D03*
X74168000Y-117475000D03*
X79248000Y-117475000D03*
X81788000Y-117475000D03*
X84328000Y-117475000D03*
X86868000Y-117475000D03*
X89408000Y-117475000D03*
X91948000Y-117475000D03*
X47244000Y-69215000D03*
X49784000Y-69215000D03*
X52324000Y-69215000D03*
X54864000Y-69215000D03*
X57404000Y-69215000D03*
X59944000Y-69215000D03*
X62484000Y-69215000D03*
X65024000Y-69215000D03*
X67564000Y-69215000D03*
X70104000Y-69215000D03*
X74168000Y-69215000D03*
X76708000Y-69215000D03*
X79248000Y-69215000D03*
X81788000Y-69215000D03*
X84328000Y-69215000D03*
X86868000Y-69215000D03*
X89408000Y-69215000D03*
X91948000Y-69215000D03*
D12*
X42418000Y-117475000D03*
X94488000Y-112395000D03*
X43688000Y-69215000D03*
X94488000Y-84455000D03*
D13*
X36068000Y-43815000D03*
D14*
X36068000Y-46355000D03*
X38608000Y-43815000D03*
X38608000Y-46355000D03*
X41148000Y-43815000D03*
X41148000Y-46355000D03*
X43688000Y-43815000D03*
X43688000Y-46355000D03*
X46228000Y-43815000D03*
X46228000Y-46355000D03*
X48768000Y-43815000D03*
X48768000Y-46355000D03*
X51308000Y-43815000D03*
X51308000Y-46355000D03*
X53848000Y-43815000D03*
X53848000Y-46355000D03*
D13*
X62738000Y-43815000D03*
D14*
X62738000Y-46355000D03*
X65278000Y-43815000D03*
X65278000Y-46355000D03*
X67818000Y-43815000D03*
X67818000Y-46355000D03*
X70358000Y-43815000D03*
X70358000Y-46355000D03*
X72898000Y-43815000D03*
X72898000Y-46355000D03*
X75438000Y-43815000D03*
X75438000Y-46355000D03*
X77978000Y-43815000D03*
X77978000Y-46355000D03*
X80518000Y-43815000D03*
X80518000Y-46355000D03*
D13*
X53848000Y-142875000D03*
D14*
X53848000Y-140335000D03*
X51308000Y-142875000D03*
X51308000Y-140335000D03*
X48768000Y-142875000D03*
X48768000Y-140335000D03*
X46228000Y-142875000D03*
X46228000Y-140335000D03*
X43688000Y-142875000D03*
X43688000Y-140335000D03*
X41148000Y-142875000D03*
X41148000Y-140335000D03*
X38608000Y-142875000D03*
X38608000Y-140335000D03*
X36068000Y-142875000D03*
X36068000Y-140335000D03*
D13*
X80518000Y-142875000D03*
D14*
X80518000Y-140335000D03*
X77978000Y-142875000D03*
X77978000Y-140335000D03*
X75438000Y-142875000D03*
X75438000Y-140335000D03*
X72898000Y-142875000D03*
X72898000Y-140335000D03*
X70358000Y-142875000D03*
X70358000Y-140335000D03*
X67818000Y-142875000D03*
X67818000Y-140335000D03*
X65278000Y-142875000D03*
X65278000Y-140335000D03*
X62738000Y-142875000D03*
X62738000Y-140335000D03*
D13*
X32258000Y-103505000D03*
D14*
X34798000Y-103505000D03*
X32258000Y-100965000D03*
X34798000Y-100965000D03*
X32258000Y-98425000D03*
X34798000Y-98425000D03*
X32258000Y-95885000D03*
X34798000Y-95885000D03*
X32258000Y-93345000D03*
X34798000Y-93345000D03*
D13*
X116078000Y-43815000D03*
D14*
X113538000Y-43815000D03*
X116078000Y-46355000D03*
X113538000Y-46355000D03*
X116078000Y-48895000D03*
X113538000Y-48895000D03*
X116078000Y-51435000D03*
X113538000Y-51435000D03*
X116078000Y-53975000D03*
X113538000Y-53975000D03*
X116078000Y-56515000D03*
X113538000Y-56515000D03*
X116078000Y-59055000D03*
X113538000Y-59055000D03*
X116078000Y-61595000D03*
X113538000Y-61595000D03*
D13*
X116078000Y-70485000D03*
D14*
X113538000Y-70485000D03*
X116078000Y-73025000D03*
X113538000Y-73025000D03*
X116078000Y-75565000D03*
X113538000Y-75565000D03*
X116078000Y-78105000D03*
X113538000Y-78105000D03*
X116078000Y-80645000D03*
X113538000Y-80645000D03*
X116078000Y-83185000D03*
X113538000Y-83185000D03*
X116078000Y-85725000D03*
X113538000Y-85725000D03*
X116078000Y-88265000D03*
X113538000Y-88265000D03*
D13*
X116078000Y-97155000D03*
D14*
X113538000Y-97155000D03*
X116078000Y-99695000D03*
X113538000Y-99695000D03*
X116078000Y-102235000D03*
X113538000Y-102235000D03*
X116078000Y-104775000D03*
X113538000Y-104775000D03*
X116078000Y-107315000D03*
X113538000Y-107315000D03*
X116078000Y-109855000D03*
X113538000Y-109855000D03*
X116078000Y-112395000D03*
X113538000Y-112395000D03*
X116078000Y-114935000D03*
X113538000Y-114935000D03*
D13*
X116078000Y-123825000D03*
D14*
X113538000Y-123825000D03*
X116078000Y-126365000D03*
X113538000Y-126365000D03*
X116078000Y-128905000D03*
X113538000Y-128905000D03*
X116078000Y-131445000D03*
X113538000Y-131445000D03*
X116078000Y-133985000D03*
X113538000Y-133985000D03*
X116078000Y-136525000D03*
X113538000Y-136525000D03*
X116078000Y-139065000D03*
X113538000Y-139065000D03*
X116078000Y-141605000D03*
X113538000Y-141605000D03*
M02*
