%FSLAX45Y45*%
G04 Gerber Fmt 4.5, Leading zero omitted, Abs format (unit mm)*
G04 Created by KiCad (PCBNEW 4.0.1-stable) date 2016-04-15 14:33:04*
%MOMM*%
G01*
G04 APERTURE LIST*
%ADD10C,0.127000*%
%ADD11C,0.150000*%
%ADD12C,0.200000*%
%ADD13C,0.300000*%
G04 APERTURE END LIST*
D10*
D11*
X2844800Y-14668500D02*
X2844800Y-4000500D01*
X11988800Y-14668500D02*
X2844800Y-14668500D01*
X11988800Y-4000500D02*
X11988800Y-14668500D01*
X2844800Y-4000500D02*
X11988800Y-4000500D01*
D12*
X3858200Y-9348360D02*
X3898200Y-9388360D01*
X3898200Y-9348360D02*
X3858200Y-9388360D01*
X3886960Y-13061860D02*
X3926960Y-13101860D01*
X3926960Y-13061860D02*
X3886960Y-13101860D01*
X3964510Y-12130240D02*
X4004510Y-12170240D01*
X4004510Y-12130240D02*
X3964510Y-12170240D01*
X4062790Y-8132460D02*
X4102790Y-8172460D01*
X4102790Y-8132460D02*
X4062790Y-8172460D01*
X4155270Y-10394000D02*
X4195270Y-10434000D01*
X4195270Y-10394000D02*
X4155270Y-10434000D01*
X4156110Y-9759000D02*
X4196110Y-9799000D01*
X4196110Y-9759000D02*
X4156110Y-9799000D01*
X4421010Y-6047740D02*
X4461010Y-6087740D01*
X4461010Y-6047740D02*
X4421010Y-6087740D01*
X4497640Y-6204390D02*
X4537640Y-6244390D01*
X4537640Y-6204390D02*
X4497640Y-6244390D01*
X4590400Y-9462210D02*
X4630400Y-9502210D01*
X4630400Y-9462210D02*
X4590400Y-9502210D01*
X4709980Y-6134210D02*
X4749980Y-6174210D01*
X4749980Y-6134210D02*
X4709980Y-6174210D01*
X4772520Y-6071670D02*
X4812520Y-6111670D01*
X4812520Y-6071670D02*
X4772520Y-6111670D01*
X4773770Y-9949500D02*
X4813770Y-9989500D01*
X4813770Y-9949500D02*
X4773770Y-9989500D01*
X4776380Y-6181020D02*
X4816380Y-6221020D01*
X4816380Y-6181020D02*
X4776380Y-6221020D01*
X4884620Y-9003810D02*
X4924620Y-9043810D01*
X4924620Y-9003810D02*
X4884620Y-9043810D01*
X4899160Y-6203720D02*
X4939160Y-6243720D01*
X4939160Y-6203720D02*
X4899160Y-6243720D01*
X4907570Y-7677760D02*
X4947570Y-7717760D01*
X4947570Y-7677760D02*
X4907570Y-7717760D01*
X5007230Y-13001570D02*
X5047230Y-13041570D01*
X5047230Y-13001570D02*
X5007230Y-13041570D01*
X5045380Y-12424820D02*
X5085380Y-12464820D01*
X5085380Y-12424820D02*
X5045380Y-12464820D01*
X5104120Y-9520040D02*
X5144120Y-9560040D01*
X5144120Y-9520040D02*
X5104120Y-9560040D01*
X5194780Y-5568510D02*
X5234780Y-5608510D01*
X5234780Y-5568510D02*
X5194780Y-5608510D01*
X5211860Y-9974850D02*
X5251860Y-10014850D01*
X5251860Y-9974850D02*
X5211860Y-10014850D01*
X5280310Y-9315460D02*
X5320310Y-9355460D01*
X5320310Y-9315460D02*
X5280310Y-9355460D01*
X5368420Y-8038320D02*
X5408420Y-8078320D01*
X5408420Y-8038320D02*
X5368420Y-8078320D01*
X5413170Y-10729710D02*
X5453170Y-10769710D01*
X5453170Y-10729710D02*
X5413170Y-10769710D01*
X5413910Y-9910700D02*
X5453910Y-9950700D01*
X5453910Y-9910700D02*
X5413910Y-9950700D01*
X5434580Y-7991290D02*
X5474580Y-8031290D01*
X5474580Y-7991290D02*
X5434580Y-8031290D01*
X5588980Y-6591460D02*
X5628980Y-6631460D01*
X5628980Y-6591460D02*
X5588980Y-6631460D01*
X5696850Y-8959870D02*
X5736850Y-8999870D01*
X5736850Y-8959870D02*
X5696850Y-8999870D01*
X5872620Y-10115320D02*
X5912620Y-10155320D01*
X5912620Y-10115320D02*
X5872620Y-10155320D01*
X5887570Y-8484760D02*
X5927570Y-8524760D01*
X5927570Y-8484760D02*
X5887570Y-8524760D01*
X5938510Y-9632000D02*
X5978510Y-9672000D01*
X5978510Y-9632000D02*
X5938510Y-9672000D01*
X6041590Y-9600260D02*
X6081590Y-9640260D01*
X6081590Y-9600260D02*
X6041590Y-9640260D01*
X6070750Y-12145150D02*
X6110750Y-12185150D01*
X6110750Y-12145150D02*
X6070750Y-12185150D01*
X6071380Y-11468970D02*
X6111380Y-11508970D01*
X6111380Y-11468970D02*
X6071380Y-11508970D01*
X6125830Y-8293320D02*
X6165830Y-8333320D01*
X6165830Y-8293320D02*
X6125830Y-8333320D01*
X6143510Y-8743000D02*
X6183510Y-8783000D01*
X6183510Y-8743000D02*
X6143510Y-8783000D01*
X6256390Y-10989960D02*
X6296390Y-11029960D01*
X6296390Y-10989960D02*
X6256390Y-11029960D01*
X6284650Y-11551590D02*
X6324650Y-11591590D01*
X6324650Y-11551590D02*
X6284650Y-11591590D01*
X6291430Y-9390990D02*
X6331430Y-9430990D01*
X6331430Y-9390990D02*
X6291430Y-9430990D01*
X6403410Y-6528920D02*
X6443410Y-6568920D01*
X6443410Y-6528920D02*
X6403410Y-6568920D01*
X6438380Y-9751110D02*
X6478380Y-9791110D01*
X6478380Y-9751110D02*
X6438380Y-9791110D01*
X6485450Y-12122300D02*
X6525450Y-12162300D01*
X6525450Y-12122300D02*
X6485450Y-12162300D01*
X6709010Y-13364040D02*
X6749010Y-13404040D01*
X6749010Y-13364040D02*
X6709010Y-13404040D01*
X6808360Y-13368080D02*
X6848360Y-13408080D01*
X6848360Y-13368080D02*
X6808360Y-13408080D01*
X6934030Y-13364300D02*
X6974030Y-13404300D01*
X6974030Y-13364300D02*
X6934030Y-13404300D01*
X7060760Y-13364570D02*
X7100760Y-13404570D01*
X7100760Y-13364570D02*
X7060760Y-13404570D01*
X7188060Y-13364270D02*
X7228060Y-13404270D01*
X7228060Y-13364270D02*
X7188060Y-13404270D01*
X7213390Y-12425270D02*
X7253390Y-12465270D01*
X7253390Y-12425270D02*
X7213390Y-12465270D01*
X7268840Y-6215770D02*
X7308840Y-6255770D01*
X7308840Y-6215770D02*
X7268840Y-6255770D01*
X7290260Y-13364060D02*
X7330260Y-13404060D01*
X7330260Y-13364060D02*
X7290260Y-13404060D01*
X7312340Y-12426990D02*
X7352340Y-12466990D01*
X7352340Y-12426990D02*
X7312340Y-12466990D01*
X7352840Y-6204790D02*
X7392840Y-6244790D01*
X7392840Y-6204790D02*
X7352840Y-6244790D01*
X7359760Y-12573440D02*
X7399760Y-12613440D01*
X7399760Y-12573440D02*
X7359760Y-12613440D01*
X7390780Y-12492090D02*
X7430780Y-12532090D01*
X7430780Y-12492090D02*
X7390780Y-12532090D01*
X7402760Y-13357230D02*
X7442760Y-13397230D01*
X7442760Y-13357230D02*
X7402760Y-13397230D01*
X7407700Y-13441010D02*
X7447700Y-13481010D01*
X7447700Y-13441010D02*
X7407700Y-13481010D01*
X7414060Y-12966340D02*
X7454060Y-13006340D01*
X7454060Y-12966340D02*
X7414060Y-13006340D01*
X7455030Y-5956600D02*
X7495030Y-5996600D01*
X7495030Y-5956600D02*
X7455030Y-5996600D01*
X7478710Y-12424440D02*
X7518710Y-12464440D01*
X7518710Y-12424440D02*
X7478710Y-12464440D01*
X7545870Y-12635970D02*
X7585870Y-12675970D01*
X7585870Y-12635970D02*
X7545870Y-12675970D01*
X7621430Y-12598340D02*
X7661430Y-12638340D01*
X7661430Y-12598340D02*
X7621430Y-12638340D01*
X7643180Y-7555020D02*
X7683180Y-7595020D01*
X7683180Y-7555020D02*
X7643180Y-7595020D01*
X7673840Y-9260240D02*
X7713840Y-9300240D01*
X7713840Y-9260240D02*
X7673840Y-9300240D01*
X7712360Y-11173550D02*
X7752360Y-11213550D01*
X7752360Y-11173550D02*
X7712360Y-11213550D01*
X7746000Y-7899630D02*
X7786000Y-7939630D01*
X7786000Y-7899630D02*
X7746000Y-7939630D01*
X7788740Y-5852020D02*
X7828740Y-5892020D01*
X7828740Y-5852020D02*
X7788740Y-5892020D01*
X7812290Y-5567030D02*
X7852290Y-5607030D01*
X7852290Y-5567030D02*
X7812290Y-5607030D01*
X8676160Y-11904840D02*
X8716160Y-11944840D01*
X8716160Y-11904840D02*
X8676160Y-11944840D01*
X8807250Y-8792710D02*
X8847250Y-8832710D01*
X8847250Y-8792710D02*
X8807250Y-8832710D01*
X8938040Y-10684990D02*
X8978040Y-10724990D01*
X8978040Y-10684990D02*
X8938040Y-10724990D01*
X9202080Y-12629010D02*
X9242080Y-12669010D01*
X9242080Y-12629010D02*
X9202080Y-12669010D01*
X9284620Y-5019260D02*
X9324620Y-5059260D01*
X9324620Y-5019260D02*
X9284620Y-5059260D01*
X10635300Y-4935120D02*
X10675300Y-4975120D01*
X10675300Y-4935120D02*
X10635300Y-4975120D01*
X3276600Y-9334500D02*
G75*
G03X3276600Y-9334500I-50800J0D01*
G01*
X3276600Y-9588500D02*
G75*
G03X3276600Y-9588500I-50800J0D01*
G01*
X3276600Y-9842500D02*
G75*
G03X3276600Y-9842500I-50800J0D01*
G01*
X3276600Y-10096500D02*
G75*
G03X3276600Y-10096500I-50800J0D01*
G01*
X3276600Y-10350500D02*
G75*
G03X3276600Y-10350500I-50800J0D01*
G01*
X3530600Y-9334500D02*
G75*
G03X3530600Y-9334500I-50800J0D01*
G01*
X3530600Y-9588500D02*
G75*
G03X3530600Y-9588500I-50800J0D01*
G01*
X3530600Y-9842500D02*
G75*
G03X3530600Y-9842500I-50800J0D01*
G01*
X3530600Y-10096500D02*
G75*
G03X3530600Y-10096500I-50800J0D01*
G01*
X3530600Y-10350500D02*
G75*
G03X3530600Y-10350500I-50800J0D01*
G01*
X3657600Y-4381500D02*
G75*
G03X3657600Y-4381500I-50800J0D01*
G01*
X3657600Y-4635500D02*
G75*
G03X3657600Y-4635500I-50800J0D01*
G01*
X3657600Y-14033500D02*
G75*
G03X3657600Y-14033500I-50800J0D01*
G01*
X3657600Y-14287500D02*
G75*
G03X3657600Y-14287500I-50800J0D01*
G01*
X3911600Y-4381500D02*
G75*
G03X3911600Y-4381500I-50800J0D01*
G01*
X3911600Y-4635500D02*
G75*
G03X3911600Y-4635500I-50800J0D01*
G01*
X3911600Y-14033500D02*
G75*
G03X3911600Y-14033500I-50800J0D01*
G01*
X3911600Y-14287500D02*
G75*
G03X3911600Y-14287500I-50800J0D01*
G01*
X4165600Y-4381500D02*
G75*
G03X4165600Y-4381500I-50800J0D01*
G01*
X4165600Y-4635500D02*
G75*
G03X4165600Y-4635500I-50800J0D01*
G01*
X4165600Y-14033500D02*
G75*
G03X4165600Y-14033500I-50800J0D01*
G01*
X4165600Y-14287500D02*
G75*
G03X4165600Y-14287500I-50800J0D01*
G01*
X4419600Y-4381500D02*
G75*
G03X4419600Y-4381500I-50800J0D01*
G01*
X4419600Y-4635500D02*
G75*
G03X4419600Y-4635500I-50800J0D01*
G01*
X4419600Y-14033500D02*
G75*
G03X4419600Y-14033500I-50800J0D01*
G01*
X4419600Y-14287500D02*
G75*
G03X4419600Y-14287500I-50800J0D01*
G01*
X4673600Y-4381500D02*
G75*
G03X4673600Y-4381500I-50800J0D01*
G01*
X4673600Y-4635500D02*
G75*
G03X4673600Y-4635500I-50800J0D01*
G01*
X4673600Y-14033500D02*
G75*
G03X4673600Y-14033500I-50800J0D01*
G01*
X4673600Y-14287500D02*
G75*
G03X4673600Y-14287500I-50800J0D01*
G01*
X4775200Y-6921500D02*
G75*
G03X4775200Y-6921500I-50800J0D01*
G01*
X4927600Y-4381500D02*
G75*
G03X4927600Y-4381500I-50800J0D01*
G01*
X4927600Y-4635500D02*
G75*
G03X4927600Y-4635500I-50800J0D01*
G01*
X4927600Y-14033500D02*
G75*
G03X4927600Y-14033500I-50800J0D01*
G01*
X4927600Y-14287500D02*
G75*
G03X4927600Y-14287500I-50800J0D01*
G01*
X5029200Y-6921500D02*
G75*
G03X5029200Y-6921500I-50800J0D01*
G01*
X5181600Y-4381500D02*
G75*
G03X5181600Y-4381500I-50800J0D01*
G01*
X5181600Y-4635500D02*
G75*
G03X5181600Y-4635500I-50800J0D01*
G01*
X5181600Y-14033500D02*
G75*
G03X5181600Y-14033500I-50800J0D01*
G01*
X5181600Y-14287500D02*
G75*
G03X5181600Y-14287500I-50800J0D01*
G01*
X5283200Y-6921500D02*
G75*
G03X5283200Y-6921500I-50800J0D01*
G01*
X5435600Y-4381500D02*
G75*
G03X5435600Y-4381500I-50800J0D01*
G01*
X5435600Y-4635500D02*
G75*
G03X5435600Y-4635500I-50800J0D01*
G01*
X5435600Y-14033500D02*
G75*
G03X5435600Y-14033500I-50800J0D01*
G01*
X5435600Y-14287500D02*
G75*
G03X5435600Y-14287500I-50800J0D01*
G01*
X5537200Y-6921500D02*
G75*
G03X5537200Y-6921500I-50800J0D01*
G01*
X5689600Y-11747500D02*
G75*
G03X5689600Y-11747500I-50800J0D01*
G01*
X5791200Y-6921500D02*
G75*
G03X5791200Y-6921500I-50800J0D01*
G01*
X5943600Y-11747500D02*
G75*
G03X5943600Y-11747500I-50800J0D01*
G01*
X6045200Y-6921500D02*
G75*
G03X6045200Y-6921500I-50800J0D01*
G01*
X6197600Y-11747500D02*
G75*
G03X6197600Y-11747500I-50800J0D01*
G01*
X6299200Y-6921500D02*
G75*
G03X6299200Y-6921500I-50800J0D01*
G01*
X6324600Y-4381500D02*
G75*
G03X6324600Y-4381500I-50800J0D01*
G01*
X6324600Y-4635500D02*
G75*
G03X6324600Y-4635500I-50800J0D01*
G01*
X6324600Y-14033500D02*
G75*
G03X6324600Y-14033500I-50800J0D01*
G01*
X6324600Y-14287500D02*
G75*
G03X6324600Y-14287500I-50800J0D01*
G01*
X6451600Y-11747500D02*
G75*
G03X6451600Y-11747500I-50800J0D01*
G01*
X6553200Y-6921500D02*
G75*
G03X6553200Y-6921500I-50800J0D01*
G01*
X6578600Y-4381500D02*
G75*
G03X6578600Y-4381500I-50800J0D01*
G01*
X6578600Y-4635500D02*
G75*
G03X6578600Y-4635500I-50800J0D01*
G01*
X6578600Y-14033500D02*
G75*
G03X6578600Y-14033500I-50800J0D01*
G01*
X6578600Y-14287500D02*
G75*
G03X6578600Y-14287500I-50800J0D01*
G01*
X6705600Y-11747500D02*
G75*
G03X6705600Y-11747500I-50800J0D01*
G01*
X6807200Y-6921500D02*
G75*
G03X6807200Y-6921500I-50800J0D01*
G01*
X6832600Y-4381500D02*
G75*
G03X6832600Y-4381500I-50800J0D01*
G01*
X6832600Y-4635500D02*
G75*
G03X6832600Y-4635500I-50800J0D01*
G01*
X6832600Y-14033500D02*
G75*
G03X6832600Y-14033500I-50800J0D01*
G01*
X6832600Y-14287500D02*
G75*
G03X6832600Y-14287500I-50800J0D01*
G01*
X6959600Y-11747500D02*
G75*
G03X6959600Y-11747500I-50800J0D01*
G01*
X7061200Y-6921500D02*
G75*
G03X7061200Y-6921500I-50800J0D01*
G01*
X7086600Y-4381500D02*
G75*
G03X7086600Y-4381500I-50800J0D01*
G01*
X7086600Y-4635500D02*
G75*
G03X7086600Y-4635500I-50800J0D01*
G01*
X7086600Y-14033500D02*
G75*
G03X7086600Y-14033500I-50800J0D01*
G01*
X7086600Y-14287500D02*
G75*
G03X7086600Y-14287500I-50800J0D01*
G01*
X7213600Y-11747500D02*
G75*
G03X7213600Y-11747500I-50800J0D01*
G01*
X7340600Y-4381500D02*
G75*
G03X7340600Y-4381500I-50800J0D01*
G01*
X7340600Y-4635500D02*
G75*
G03X7340600Y-4635500I-50800J0D01*
G01*
X7340600Y-14033500D02*
G75*
G03X7340600Y-14033500I-50800J0D01*
G01*
X7340600Y-14287500D02*
G75*
G03X7340600Y-14287500I-50800J0D01*
G01*
X7467600Y-6921500D02*
G75*
G03X7467600Y-6921500I-50800J0D01*
G01*
X7467600Y-11747500D02*
G75*
G03X7467600Y-11747500I-50800J0D01*
G01*
X7594600Y-4381500D02*
G75*
G03X7594600Y-4381500I-50800J0D01*
G01*
X7594600Y-4635500D02*
G75*
G03X7594600Y-4635500I-50800J0D01*
G01*
X7594600Y-14033500D02*
G75*
G03X7594600Y-14033500I-50800J0D01*
G01*
X7594600Y-14287500D02*
G75*
G03X7594600Y-14287500I-50800J0D01*
G01*
X7721600Y-6921500D02*
G75*
G03X7721600Y-6921500I-50800J0D01*
G01*
X7848600Y-4381500D02*
G75*
G03X7848600Y-4381500I-50800J0D01*
G01*
X7848600Y-4635500D02*
G75*
G03X7848600Y-4635500I-50800J0D01*
G01*
X7848600Y-14033500D02*
G75*
G03X7848600Y-14033500I-50800J0D01*
G01*
X7848600Y-14287500D02*
G75*
G03X7848600Y-14287500I-50800J0D01*
G01*
X7975600Y-6921500D02*
G75*
G03X7975600Y-6921500I-50800J0D01*
G01*
X7975600Y-11747500D02*
G75*
G03X7975600Y-11747500I-50800J0D01*
G01*
X8102600Y-4381500D02*
G75*
G03X8102600Y-4381500I-50800J0D01*
G01*
X8102600Y-4635500D02*
G75*
G03X8102600Y-4635500I-50800J0D01*
G01*
X8102600Y-14033500D02*
G75*
G03X8102600Y-14033500I-50800J0D01*
G01*
X8102600Y-14287500D02*
G75*
G03X8102600Y-14287500I-50800J0D01*
G01*
X8229600Y-6921500D02*
G75*
G03X8229600Y-6921500I-50800J0D01*
G01*
X8229600Y-11747500D02*
G75*
G03X8229600Y-11747500I-50800J0D01*
G01*
X8483600Y-6921500D02*
G75*
G03X8483600Y-6921500I-50800J0D01*
G01*
X8483600Y-11747500D02*
G75*
G03X8483600Y-11747500I-50800J0D01*
G01*
X8737600Y-6921500D02*
G75*
G03X8737600Y-6921500I-50800J0D01*
G01*
X8737600Y-11747500D02*
G75*
G03X8737600Y-11747500I-50800J0D01*
G01*
X8991600Y-6921500D02*
G75*
G03X8991600Y-6921500I-50800J0D01*
G01*
X8991600Y-11747500D02*
G75*
G03X8991600Y-11747500I-50800J0D01*
G01*
X9245600Y-6921500D02*
G75*
G03X9245600Y-6921500I-50800J0D01*
G01*
X9245600Y-11747500D02*
G75*
G03X9245600Y-11747500I-50800J0D01*
G01*
X11404600Y-4381500D02*
G75*
G03X11404600Y-4381500I-50800J0D01*
G01*
X11404600Y-4635500D02*
G75*
G03X11404600Y-4635500I-50800J0D01*
G01*
X11404600Y-4889500D02*
G75*
G03X11404600Y-4889500I-50800J0D01*
G01*
X11404600Y-5143500D02*
G75*
G03X11404600Y-5143500I-50800J0D01*
G01*
X11404600Y-5397500D02*
G75*
G03X11404600Y-5397500I-50800J0D01*
G01*
X11404600Y-5651500D02*
G75*
G03X11404600Y-5651500I-50800J0D01*
G01*
X11404600Y-5905500D02*
G75*
G03X11404600Y-5905500I-50800J0D01*
G01*
X11404600Y-6159500D02*
G75*
G03X11404600Y-6159500I-50800J0D01*
G01*
X11404600Y-7048500D02*
G75*
G03X11404600Y-7048500I-50800J0D01*
G01*
X11404600Y-7302500D02*
G75*
G03X11404600Y-7302500I-50800J0D01*
G01*
X11404600Y-7556500D02*
G75*
G03X11404600Y-7556500I-50800J0D01*
G01*
X11404600Y-7810500D02*
G75*
G03X11404600Y-7810500I-50800J0D01*
G01*
X11404600Y-8064500D02*
G75*
G03X11404600Y-8064500I-50800J0D01*
G01*
X11404600Y-8318500D02*
G75*
G03X11404600Y-8318500I-50800J0D01*
G01*
X11404600Y-8572500D02*
G75*
G03X11404600Y-8572500I-50800J0D01*
G01*
X11404600Y-8826500D02*
G75*
G03X11404600Y-8826500I-50800J0D01*
G01*
X11404600Y-9715500D02*
G75*
G03X11404600Y-9715500I-50800J0D01*
G01*
X11404600Y-9969500D02*
G75*
G03X11404600Y-9969500I-50800J0D01*
G01*
X11404600Y-10223500D02*
G75*
G03X11404600Y-10223500I-50800J0D01*
G01*
X11404600Y-10477500D02*
G75*
G03X11404600Y-10477500I-50800J0D01*
G01*
X11404600Y-10731500D02*
G75*
G03X11404600Y-10731500I-50800J0D01*
G01*
X11404600Y-10985500D02*
G75*
G03X11404600Y-10985500I-50800J0D01*
G01*
X11404600Y-11239500D02*
G75*
G03X11404600Y-11239500I-50800J0D01*
G01*
X11404600Y-11493500D02*
G75*
G03X11404600Y-11493500I-50800J0D01*
G01*
X11404600Y-12382500D02*
G75*
G03X11404600Y-12382500I-50800J0D01*
G01*
X11404600Y-12636500D02*
G75*
G03X11404600Y-12636500I-50800J0D01*
G01*
X11404600Y-12890500D02*
G75*
G03X11404600Y-12890500I-50800J0D01*
G01*
X11404600Y-13144500D02*
G75*
G03X11404600Y-13144500I-50800J0D01*
G01*
X11404600Y-13398500D02*
G75*
G03X11404600Y-13398500I-50800J0D01*
G01*
X11404600Y-13652500D02*
G75*
G03X11404600Y-13652500I-50800J0D01*
G01*
X11404600Y-13906500D02*
G75*
G03X11404600Y-13906500I-50800J0D01*
G01*
X11404600Y-14160500D02*
G75*
G03X11404600Y-14160500I-50800J0D01*
G01*
X11658600Y-4381500D02*
G75*
G03X11658600Y-4381500I-50800J0D01*
G01*
X11658600Y-4635500D02*
G75*
G03X11658600Y-4635500I-50800J0D01*
G01*
X11658600Y-4889500D02*
G75*
G03X11658600Y-4889500I-50800J0D01*
G01*
X11658600Y-5143500D02*
G75*
G03X11658600Y-5143500I-50800J0D01*
G01*
X11658600Y-5397500D02*
G75*
G03X11658600Y-5397500I-50800J0D01*
G01*
X11658600Y-5651500D02*
G75*
G03X11658600Y-5651500I-50800J0D01*
G01*
X11658600Y-5905500D02*
G75*
G03X11658600Y-5905500I-50800J0D01*
G01*
X11658600Y-6159500D02*
G75*
G03X11658600Y-6159500I-50800J0D01*
G01*
X11658600Y-7048500D02*
G75*
G03X11658600Y-7048500I-50800J0D01*
G01*
X11658600Y-7302500D02*
G75*
G03X11658600Y-7302500I-50800J0D01*
G01*
X11658600Y-7556500D02*
G75*
G03X11658600Y-7556500I-50800J0D01*
G01*
X11658600Y-7810500D02*
G75*
G03X11658600Y-7810500I-50800J0D01*
G01*
X11658600Y-8064500D02*
G75*
G03X11658600Y-8064500I-50800J0D01*
G01*
X11658600Y-8318500D02*
G75*
G03X11658600Y-8318500I-50800J0D01*
G01*
X11658600Y-8572500D02*
G75*
G03X11658600Y-8572500I-50800J0D01*
G01*
X11658600Y-8826500D02*
G75*
G03X11658600Y-8826500I-50800J0D01*
G01*
X11658600Y-9715500D02*
G75*
G03X11658600Y-9715500I-50800J0D01*
G01*
X11658600Y-9969500D02*
G75*
G03X11658600Y-9969500I-50800J0D01*
G01*
X11658600Y-10223500D02*
G75*
G03X11658600Y-10223500I-50800J0D01*
G01*
X11658600Y-10477500D02*
G75*
G03X11658600Y-10477500I-50800J0D01*
G01*
X11658600Y-10731500D02*
G75*
G03X11658600Y-10731500I-50800J0D01*
G01*
X11658600Y-10985500D02*
G75*
G03X11658600Y-10985500I-50800J0D01*
G01*
X11658600Y-11239500D02*
G75*
G03X11658600Y-11239500I-50800J0D01*
G01*
X11658600Y-11493500D02*
G75*
G03X11658600Y-11493500I-50800J0D01*
G01*
X11658600Y-12382500D02*
G75*
G03X11658600Y-12382500I-50800J0D01*
G01*
X11658600Y-12636500D02*
G75*
G03X11658600Y-12636500I-50800J0D01*
G01*
X11658600Y-12890500D02*
G75*
G03X11658600Y-12890500I-50800J0D01*
G01*
X11658600Y-13144500D02*
G75*
G03X11658600Y-13144500I-50800J0D01*
G01*
X11658600Y-13398500D02*
G75*
G03X11658600Y-13398500I-50800J0D01*
G01*
X11658600Y-13652500D02*
G75*
G03X11658600Y-13652500I-50800J0D01*
G01*
X11658600Y-13906500D02*
G75*
G03X11658600Y-13906500I-50800J0D01*
G01*
X11658600Y-14160500D02*
G75*
G03X11658600Y-14160500I-50800J0D01*
G01*
X4241800Y-11595100D02*
X4241800Y-11899900D01*
X4089400Y-11747500D02*
X4394200Y-11747500D01*
X4368800Y-6769100D02*
X4368800Y-7073900D01*
X4216400Y-6921500D02*
X4521200Y-6921500D01*
X9448800Y-8293100D02*
X9448800Y-8597900D01*
X9296400Y-8445500D02*
X9601200Y-8445500D01*
X9448800Y-11087100D02*
X9448800Y-11391900D01*
X9296400Y-11239500D02*
X9601200Y-11239500D01*
D13*
X3108728Y-15141714D02*
X3108728Y-14841714D01*
X3180157Y-14841714D01*
X3223014Y-14856000D01*
X3251586Y-14884571D01*
X3265871Y-14913143D01*
X3280157Y-14970286D01*
X3280157Y-15013143D01*
X3265871Y-15070286D01*
X3251586Y-15098857D01*
X3223014Y-15127429D01*
X3180157Y-15141714D01*
X3108728Y-15141714D01*
X3408728Y-15141714D02*
X3408728Y-14941714D01*
X3408728Y-14998857D02*
X3423014Y-14970286D01*
X3437300Y-14956000D01*
X3465871Y-14941714D01*
X3494443Y-14941714D01*
X3594443Y-15141714D02*
X3594443Y-14941714D01*
X3594443Y-14841714D02*
X3580157Y-14856000D01*
X3594443Y-14870286D01*
X3608728Y-14856000D01*
X3594443Y-14841714D01*
X3594443Y-14870286D01*
X3780157Y-15141714D02*
X3751586Y-15127429D01*
X3737300Y-15098857D01*
X3737300Y-14841714D01*
X3937300Y-15141714D02*
X3908728Y-15127429D01*
X3894443Y-15098857D01*
X3894443Y-14841714D01*
X4280157Y-15141714D02*
X4280157Y-14841714D01*
X4380157Y-15056000D01*
X4480157Y-14841714D01*
X4480157Y-15141714D01*
X4751586Y-15141714D02*
X4751586Y-14984571D01*
X4737300Y-14956000D01*
X4708729Y-14941714D01*
X4651586Y-14941714D01*
X4623014Y-14956000D01*
X4751586Y-15127429D02*
X4723014Y-15141714D01*
X4651586Y-15141714D01*
X4623014Y-15127429D01*
X4608729Y-15098857D01*
X4608729Y-15070286D01*
X4623014Y-15041714D01*
X4651586Y-15027429D01*
X4723014Y-15027429D01*
X4751586Y-15013143D01*
X4894443Y-14941714D02*
X4894443Y-15241714D01*
X4894443Y-14956000D02*
X4923014Y-14941714D01*
X4980157Y-14941714D01*
X5008729Y-14956000D01*
X5023014Y-14970286D01*
X5037300Y-14998857D01*
X5037300Y-15084571D01*
X5023014Y-15113143D01*
X5008729Y-15127429D01*
X4980157Y-15141714D01*
X4923014Y-15141714D01*
X4894443Y-15127429D01*
X5165871Y-15113143D02*
X5180157Y-15127429D01*
X5165871Y-15141714D01*
X5151586Y-15127429D01*
X5165871Y-15113143D01*
X5165871Y-15141714D01*
X5165871Y-14956000D02*
X5180157Y-14970286D01*
X5165871Y-14984571D01*
X5151586Y-14970286D01*
X5165871Y-14956000D01*
X5165871Y-14984571D01*
X2797300Y-15616000D02*
X2837300Y-15656000D01*
X2837300Y-15616000D02*
X2797300Y-15656000D01*
X3165871Y-15471714D02*
X3194443Y-15471714D01*
X3223014Y-15486000D01*
X3237300Y-15500286D01*
X3251586Y-15528857D01*
X3265871Y-15586000D01*
X3265871Y-15657429D01*
X3251586Y-15714571D01*
X3237300Y-15743143D01*
X3223014Y-15757429D01*
X3194443Y-15771714D01*
X3165871Y-15771714D01*
X3137300Y-15757429D01*
X3123014Y-15743143D01*
X3108728Y-15714571D01*
X3094443Y-15657429D01*
X3094443Y-15586000D01*
X3108728Y-15528857D01*
X3123014Y-15500286D01*
X3137300Y-15486000D01*
X3165871Y-15471714D01*
X3394443Y-15743143D02*
X3408728Y-15757429D01*
X3394443Y-15771714D01*
X3380157Y-15757429D01*
X3394443Y-15743143D01*
X3394443Y-15771714D01*
X3665871Y-15571714D02*
X3665871Y-15771714D01*
X3594443Y-15457429D02*
X3523014Y-15671714D01*
X3708728Y-15671714D01*
X3880157Y-15471714D02*
X3908728Y-15471714D01*
X3937300Y-15486000D01*
X3951586Y-15500286D01*
X3965871Y-15528857D01*
X3980157Y-15586000D01*
X3980157Y-15657429D01*
X3965871Y-15714571D01*
X3951586Y-15743143D01*
X3937300Y-15757429D01*
X3908728Y-15771714D01*
X3880157Y-15771714D01*
X3851586Y-15757429D01*
X3837300Y-15743143D01*
X3823014Y-15714571D01*
X3808728Y-15657429D01*
X3808728Y-15586000D01*
X3823014Y-15528857D01*
X3837300Y-15500286D01*
X3851586Y-15486000D01*
X3880157Y-15471714D01*
X4108728Y-15771714D02*
X4108728Y-15571714D01*
X4108728Y-15600286D02*
X4123014Y-15586000D01*
X4151586Y-15571714D01*
X4194443Y-15571714D01*
X4223014Y-15586000D01*
X4237300Y-15614571D01*
X4237300Y-15771714D01*
X4237300Y-15614571D02*
X4251586Y-15586000D01*
X4280157Y-15571714D01*
X4323014Y-15571714D01*
X4351586Y-15586000D01*
X4365871Y-15614571D01*
X4365871Y-15771714D01*
X4508729Y-15771714D02*
X4508729Y-15571714D01*
X4508729Y-15600286D02*
X4523014Y-15586000D01*
X4551586Y-15571714D01*
X4594443Y-15571714D01*
X4623014Y-15586000D01*
X4637300Y-15614571D01*
X4637300Y-15771714D01*
X4637300Y-15614571D02*
X4651586Y-15586000D01*
X4680157Y-15571714D01*
X4723014Y-15571714D01*
X4751586Y-15586000D01*
X4765871Y-15614571D01*
X4765871Y-15771714D01*
X5351586Y-15457429D02*
X5094443Y-15843143D01*
X5737300Y-15471714D02*
X5765871Y-15471714D01*
X5794443Y-15486000D01*
X5808728Y-15500286D01*
X5823014Y-15528857D01*
X5837300Y-15586000D01*
X5837300Y-15657429D01*
X5823014Y-15714571D01*
X5808728Y-15743143D01*
X5794443Y-15757429D01*
X5765871Y-15771714D01*
X5737300Y-15771714D01*
X5708728Y-15757429D01*
X5694443Y-15743143D01*
X5680157Y-15714571D01*
X5665871Y-15657429D01*
X5665871Y-15586000D01*
X5680157Y-15528857D01*
X5694443Y-15500286D01*
X5708728Y-15486000D01*
X5737300Y-15471714D01*
X5965871Y-15743143D02*
X5980157Y-15757429D01*
X5965871Y-15771714D01*
X5951586Y-15757429D01*
X5965871Y-15743143D01*
X5965871Y-15771714D01*
X6165871Y-15471714D02*
X6194443Y-15471714D01*
X6223014Y-15486000D01*
X6237300Y-15500286D01*
X6251585Y-15528857D01*
X6265871Y-15586000D01*
X6265871Y-15657429D01*
X6251585Y-15714571D01*
X6237300Y-15743143D01*
X6223014Y-15757429D01*
X6194443Y-15771714D01*
X6165871Y-15771714D01*
X6137300Y-15757429D01*
X6123014Y-15743143D01*
X6108728Y-15714571D01*
X6094443Y-15657429D01*
X6094443Y-15586000D01*
X6108728Y-15528857D01*
X6123014Y-15500286D01*
X6137300Y-15486000D01*
X6165871Y-15471714D01*
X6551585Y-15771714D02*
X6380157Y-15771714D01*
X6465871Y-15771714D02*
X6465871Y-15471714D01*
X6437300Y-15514571D01*
X6408728Y-15543143D01*
X6380157Y-15557429D01*
X6808728Y-15471714D02*
X6751585Y-15471714D01*
X6723014Y-15486000D01*
X6708728Y-15500286D01*
X6680157Y-15543143D01*
X6665871Y-15600286D01*
X6665871Y-15714571D01*
X6680157Y-15743143D01*
X6694443Y-15757429D01*
X6723014Y-15771714D01*
X6780157Y-15771714D01*
X6808728Y-15757429D01*
X6823014Y-15743143D01*
X6837300Y-15714571D01*
X6837300Y-15643143D01*
X6823014Y-15614571D01*
X6808728Y-15600286D01*
X6780157Y-15586000D01*
X6723014Y-15586000D01*
X6694443Y-15600286D01*
X6680157Y-15614571D01*
X6665871Y-15643143D01*
X6951586Y-15471714D02*
X6951586Y-15528857D01*
X7065871Y-15471714D02*
X7065871Y-15528857D01*
X7508728Y-15886000D02*
X7494443Y-15871714D01*
X7465871Y-15828857D01*
X7451585Y-15800286D01*
X7437300Y-15757429D01*
X7423014Y-15686000D01*
X7423014Y-15628857D01*
X7437300Y-15557429D01*
X7451585Y-15514571D01*
X7465871Y-15486000D01*
X7494443Y-15443143D01*
X7508728Y-15428857D01*
X7594443Y-15471714D02*
X7794443Y-15471714D01*
X7665871Y-15771714D01*
X7880157Y-15471714D02*
X8065871Y-15471714D01*
X7965871Y-15586000D01*
X8008728Y-15586000D01*
X8037300Y-15600286D01*
X8051585Y-15614571D01*
X8065871Y-15643143D01*
X8065871Y-15714571D01*
X8051585Y-15743143D01*
X8037300Y-15757429D01*
X8008728Y-15771714D01*
X7923014Y-15771714D01*
X7894443Y-15757429D01*
X7880157Y-15743143D01*
X8423014Y-15771714D02*
X8423014Y-15471714D01*
X8551586Y-15771714D02*
X8551586Y-15614571D01*
X8537300Y-15586000D01*
X8508728Y-15571714D01*
X8465871Y-15571714D01*
X8437300Y-15586000D01*
X8423014Y-15600286D01*
X8737300Y-15771714D02*
X8708728Y-15757429D01*
X8694443Y-15743143D01*
X8680157Y-15714571D01*
X8680157Y-15628857D01*
X8694443Y-15600286D01*
X8708728Y-15586000D01*
X8737300Y-15571714D01*
X8780157Y-15571714D01*
X8808728Y-15586000D01*
X8823014Y-15600286D01*
X8837300Y-15628857D01*
X8837300Y-15714571D01*
X8823014Y-15743143D01*
X8808728Y-15757429D01*
X8780157Y-15771714D01*
X8737300Y-15771714D01*
X9008728Y-15771714D02*
X8980157Y-15757429D01*
X8965871Y-15728857D01*
X8965871Y-15471714D01*
X9237300Y-15757429D02*
X9208729Y-15771714D01*
X9151586Y-15771714D01*
X9123014Y-15757429D01*
X9108729Y-15728857D01*
X9108729Y-15614571D01*
X9123014Y-15586000D01*
X9151586Y-15571714D01*
X9208729Y-15571714D01*
X9237300Y-15586000D01*
X9251586Y-15614571D01*
X9251586Y-15643143D01*
X9108729Y-15671714D01*
X9365871Y-15757429D02*
X9394443Y-15771714D01*
X9451586Y-15771714D01*
X9480157Y-15757429D01*
X9494443Y-15728857D01*
X9494443Y-15714571D01*
X9480157Y-15686000D01*
X9451586Y-15671714D01*
X9408729Y-15671714D01*
X9380157Y-15657429D01*
X9365871Y-15628857D01*
X9365871Y-15614571D01*
X9380157Y-15586000D01*
X9408729Y-15571714D01*
X9451586Y-15571714D01*
X9480157Y-15586000D01*
X9594443Y-15886000D02*
X9608729Y-15871714D01*
X9637300Y-15828857D01*
X9651586Y-15800286D01*
X9665871Y-15757429D01*
X9680157Y-15686000D01*
X9680157Y-15628857D01*
X9665871Y-15557429D01*
X9651586Y-15514571D01*
X9637300Y-15486000D01*
X9608729Y-15443143D01*
X9594443Y-15428857D01*
X2837300Y-16032000D02*
G75*
G03X2837300Y-16032000I-50800J0D01*
G01*
X3265871Y-16167714D02*
X3094443Y-16167714D01*
X3180157Y-16167714D02*
X3180157Y-15867714D01*
X3151586Y-15910571D01*
X3123014Y-15939143D01*
X3094443Y-15953429D01*
X3394443Y-16139143D02*
X3408728Y-16153429D01*
X3394443Y-16167714D01*
X3380157Y-16153429D01*
X3394443Y-16139143D01*
X3394443Y-16167714D01*
X3594443Y-15867714D02*
X3623014Y-15867714D01*
X3651586Y-15882000D01*
X3665871Y-15896286D01*
X3680157Y-15924857D01*
X3694443Y-15982000D01*
X3694443Y-16053429D01*
X3680157Y-16110571D01*
X3665871Y-16139143D01*
X3651586Y-16153429D01*
X3623014Y-16167714D01*
X3594443Y-16167714D01*
X3565871Y-16153429D01*
X3551586Y-16139143D01*
X3537300Y-16110571D01*
X3523014Y-16053429D01*
X3523014Y-15982000D01*
X3537300Y-15924857D01*
X3551586Y-15896286D01*
X3565871Y-15882000D01*
X3594443Y-15867714D01*
X3808728Y-15896286D02*
X3823014Y-15882000D01*
X3851586Y-15867714D01*
X3923014Y-15867714D01*
X3951586Y-15882000D01*
X3965871Y-15896286D01*
X3980157Y-15924857D01*
X3980157Y-15953429D01*
X3965871Y-15996286D01*
X3794443Y-16167714D01*
X3980157Y-16167714D01*
X4108728Y-16167714D02*
X4108728Y-15967714D01*
X4108728Y-15996286D02*
X4123014Y-15982000D01*
X4151586Y-15967714D01*
X4194443Y-15967714D01*
X4223014Y-15982000D01*
X4237300Y-16010571D01*
X4237300Y-16167714D01*
X4237300Y-16010571D02*
X4251586Y-15982000D01*
X4280157Y-15967714D01*
X4323014Y-15967714D01*
X4351586Y-15982000D01*
X4365871Y-16010571D01*
X4365871Y-16167714D01*
X4508729Y-16167714D02*
X4508729Y-15967714D01*
X4508729Y-15996286D02*
X4523014Y-15982000D01*
X4551586Y-15967714D01*
X4594443Y-15967714D01*
X4623014Y-15982000D01*
X4637300Y-16010571D01*
X4637300Y-16167714D01*
X4637300Y-16010571D02*
X4651586Y-15982000D01*
X4680157Y-15967714D01*
X4723014Y-15967714D01*
X4751586Y-15982000D01*
X4765871Y-16010571D01*
X4765871Y-16167714D01*
X5351586Y-15853429D02*
X5094443Y-16239143D01*
X5737300Y-15867714D02*
X5765871Y-15867714D01*
X5794443Y-15882000D01*
X5808728Y-15896286D01*
X5823014Y-15924857D01*
X5837300Y-15982000D01*
X5837300Y-16053429D01*
X5823014Y-16110571D01*
X5808728Y-16139143D01*
X5794443Y-16153429D01*
X5765871Y-16167714D01*
X5737300Y-16167714D01*
X5708728Y-16153429D01*
X5694443Y-16139143D01*
X5680157Y-16110571D01*
X5665871Y-16053429D01*
X5665871Y-15982000D01*
X5680157Y-15924857D01*
X5694443Y-15896286D01*
X5708728Y-15882000D01*
X5737300Y-15867714D01*
X5965871Y-16139143D02*
X5980157Y-16153429D01*
X5965871Y-16167714D01*
X5951586Y-16153429D01*
X5965871Y-16139143D01*
X5965871Y-16167714D01*
X6165871Y-15867714D02*
X6194443Y-15867714D01*
X6223014Y-15882000D01*
X6237300Y-15896286D01*
X6251585Y-15924857D01*
X6265871Y-15982000D01*
X6265871Y-16053429D01*
X6251585Y-16110571D01*
X6237300Y-16139143D01*
X6223014Y-16153429D01*
X6194443Y-16167714D01*
X6165871Y-16167714D01*
X6137300Y-16153429D01*
X6123014Y-16139143D01*
X6108728Y-16110571D01*
X6094443Y-16053429D01*
X6094443Y-15982000D01*
X6108728Y-15924857D01*
X6123014Y-15896286D01*
X6137300Y-15882000D01*
X6165871Y-15867714D01*
X6523014Y-15967714D02*
X6523014Y-16167714D01*
X6451585Y-15853429D02*
X6380157Y-16067714D01*
X6565871Y-16067714D01*
X6737300Y-15867714D02*
X6765871Y-15867714D01*
X6794443Y-15882000D01*
X6808728Y-15896286D01*
X6823014Y-15924857D01*
X6837300Y-15982000D01*
X6837300Y-16053429D01*
X6823014Y-16110571D01*
X6808728Y-16139143D01*
X6794443Y-16153429D01*
X6765871Y-16167714D01*
X6737300Y-16167714D01*
X6708728Y-16153429D01*
X6694443Y-16139143D01*
X6680157Y-16110571D01*
X6665871Y-16053429D01*
X6665871Y-15982000D01*
X6680157Y-15924857D01*
X6694443Y-15896286D01*
X6708728Y-15882000D01*
X6737300Y-15867714D01*
X6951586Y-15867714D02*
X6951586Y-15924857D01*
X7065871Y-15867714D02*
X7065871Y-15924857D01*
X7508728Y-16282000D02*
X7494443Y-16267714D01*
X7465871Y-16224857D01*
X7451585Y-16196286D01*
X7437300Y-16153429D01*
X7423014Y-16082000D01*
X7423014Y-16024857D01*
X7437300Y-15953429D01*
X7451585Y-15910571D01*
X7465871Y-15882000D01*
X7494443Y-15839143D01*
X7508728Y-15824857D01*
X7780157Y-16167714D02*
X7608728Y-16167714D01*
X7694443Y-16167714D02*
X7694443Y-15867714D01*
X7665871Y-15910571D01*
X7637300Y-15939143D01*
X7608728Y-15953429D01*
X7880157Y-15867714D02*
X8080157Y-15867714D01*
X7951585Y-16167714D01*
X8251585Y-15867714D02*
X8280157Y-15867714D01*
X8308728Y-15882000D01*
X8323014Y-15896286D01*
X8337300Y-15924857D01*
X8351585Y-15982000D01*
X8351585Y-16053429D01*
X8337300Y-16110571D01*
X8323014Y-16139143D01*
X8308728Y-16153429D01*
X8280157Y-16167714D01*
X8251585Y-16167714D01*
X8223014Y-16153429D01*
X8208728Y-16139143D01*
X8194443Y-16110571D01*
X8180157Y-16053429D01*
X8180157Y-15982000D01*
X8194443Y-15924857D01*
X8208728Y-15896286D01*
X8223014Y-15882000D01*
X8251585Y-15867714D01*
X8708728Y-16167714D02*
X8708728Y-15867714D01*
X8837300Y-16167714D02*
X8837300Y-16010571D01*
X8823014Y-15982000D01*
X8794443Y-15967714D01*
X8751586Y-15967714D01*
X8723014Y-15982000D01*
X8708728Y-15996286D01*
X9023014Y-16167714D02*
X8994443Y-16153429D01*
X8980157Y-16139143D01*
X8965871Y-16110571D01*
X8965871Y-16024857D01*
X8980157Y-15996286D01*
X8994443Y-15982000D01*
X9023014Y-15967714D01*
X9065871Y-15967714D01*
X9094443Y-15982000D01*
X9108728Y-15996286D01*
X9123014Y-16024857D01*
X9123014Y-16110571D01*
X9108728Y-16139143D01*
X9094443Y-16153429D01*
X9065871Y-16167714D01*
X9023014Y-16167714D01*
X9294443Y-16167714D02*
X9265871Y-16153429D01*
X9251586Y-16124857D01*
X9251586Y-15867714D01*
X9523014Y-16153429D02*
X9494443Y-16167714D01*
X9437300Y-16167714D01*
X9408729Y-16153429D01*
X9394443Y-16124857D01*
X9394443Y-16010571D01*
X9408729Y-15982000D01*
X9437300Y-15967714D01*
X9494443Y-15967714D01*
X9523014Y-15982000D01*
X9537300Y-16010571D01*
X9537300Y-16039143D01*
X9394443Y-16067714D01*
X9651586Y-16153429D02*
X9680157Y-16167714D01*
X9737300Y-16167714D01*
X9765871Y-16153429D01*
X9780157Y-16124857D01*
X9780157Y-16110571D01*
X9765871Y-16082000D01*
X9737300Y-16067714D01*
X9694443Y-16067714D01*
X9665871Y-16053429D01*
X9651586Y-16024857D01*
X9651586Y-16010571D01*
X9665871Y-15982000D01*
X9694443Y-15967714D01*
X9737300Y-15967714D01*
X9765871Y-15982000D01*
X9880157Y-16282000D02*
X9894443Y-16267714D01*
X9923014Y-16224857D01*
X9937300Y-16196286D01*
X9951586Y-16153429D01*
X9965871Y-16082000D01*
X9965871Y-16024857D01*
X9951586Y-15953429D01*
X9937300Y-15910571D01*
X9923014Y-15882000D01*
X9894443Y-15839143D01*
X9880157Y-15824857D01*
X2684900Y-16275600D02*
X2684900Y-16580400D01*
X2532500Y-16428000D02*
X2837300Y-16428000D01*
X3080157Y-16263714D02*
X3265871Y-16263714D01*
X3165871Y-16378000D01*
X3208728Y-16378000D01*
X3237300Y-16392286D01*
X3251586Y-16406571D01*
X3265871Y-16435143D01*
X3265871Y-16506571D01*
X3251586Y-16535143D01*
X3237300Y-16549429D01*
X3208728Y-16563714D01*
X3123014Y-16563714D01*
X3094443Y-16549429D01*
X3080157Y-16535143D01*
X3394443Y-16535143D02*
X3408728Y-16549429D01*
X3394443Y-16563714D01*
X3380157Y-16549429D01*
X3394443Y-16535143D01*
X3394443Y-16563714D01*
X3594443Y-16263714D02*
X3623014Y-16263714D01*
X3651586Y-16278000D01*
X3665871Y-16292286D01*
X3680157Y-16320857D01*
X3694443Y-16378000D01*
X3694443Y-16449429D01*
X3680157Y-16506571D01*
X3665871Y-16535143D01*
X3651586Y-16549429D01*
X3623014Y-16563714D01*
X3594443Y-16563714D01*
X3565871Y-16549429D01*
X3551586Y-16535143D01*
X3537300Y-16506571D01*
X3523014Y-16449429D01*
X3523014Y-16378000D01*
X3537300Y-16320857D01*
X3551586Y-16292286D01*
X3565871Y-16278000D01*
X3594443Y-16263714D01*
X3965871Y-16263714D02*
X3823014Y-16263714D01*
X3808728Y-16406571D01*
X3823014Y-16392286D01*
X3851586Y-16378000D01*
X3923014Y-16378000D01*
X3951586Y-16392286D01*
X3965871Y-16406571D01*
X3980157Y-16435143D01*
X3980157Y-16506571D01*
X3965871Y-16535143D01*
X3951586Y-16549429D01*
X3923014Y-16563714D01*
X3851586Y-16563714D01*
X3823014Y-16549429D01*
X3808728Y-16535143D01*
X4108728Y-16563714D02*
X4108728Y-16363714D01*
X4108728Y-16392286D02*
X4123014Y-16378000D01*
X4151586Y-16363714D01*
X4194443Y-16363714D01*
X4223014Y-16378000D01*
X4237300Y-16406571D01*
X4237300Y-16563714D01*
X4237300Y-16406571D02*
X4251586Y-16378000D01*
X4280157Y-16363714D01*
X4323014Y-16363714D01*
X4351586Y-16378000D01*
X4365871Y-16406571D01*
X4365871Y-16563714D01*
X4508729Y-16563714D02*
X4508729Y-16363714D01*
X4508729Y-16392286D02*
X4523014Y-16378000D01*
X4551586Y-16363714D01*
X4594443Y-16363714D01*
X4623014Y-16378000D01*
X4637300Y-16406571D01*
X4637300Y-16563714D01*
X4637300Y-16406571D02*
X4651586Y-16378000D01*
X4680157Y-16363714D01*
X4723014Y-16363714D01*
X4751586Y-16378000D01*
X4765871Y-16406571D01*
X4765871Y-16563714D01*
X5351586Y-16249429D02*
X5094443Y-16635143D01*
X5737300Y-16263714D02*
X5765871Y-16263714D01*
X5794443Y-16278000D01*
X5808728Y-16292286D01*
X5823014Y-16320857D01*
X5837300Y-16378000D01*
X5837300Y-16449429D01*
X5823014Y-16506571D01*
X5808728Y-16535143D01*
X5794443Y-16549429D01*
X5765871Y-16563714D01*
X5737300Y-16563714D01*
X5708728Y-16549429D01*
X5694443Y-16535143D01*
X5680157Y-16506571D01*
X5665871Y-16449429D01*
X5665871Y-16378000D01*
X5680157Y-16320857D01*
X5694443Y-16292286D01*
X5708728Y-16278000D01*
X5737300Y-16263714D01*
X5965871Y-16535143D02*
X5980157Y-16549429D01*
X5965871Y-16563714D01*
X5951586Y-16549429D01*
X5965871Y-16535143D01*
X5965871Y-16563714D01*
X6265871Y-16563714D02*
X6094443Y-16563714D01*
X6180157Y-16563714D02*
X6180157Y-16263714D01*
X6151585Y-16306571D01*
X6123014Y-16335143D01*
X6094443Y-16349429D01*
X6380157Y-16292286D02*
X6394443Y-16278000D01*
X6423014Y-16263714D01*
X6494443Y-16263714D01*
X6523014Y-16278000D01*
X6537300Y-16292286D01*
X6551585Y-16320857D01*
X6551585Y-16349429D01*
X6537300Y-16392286D01*
X6365871Y-16563714D01*
X6551585Y-16563714D01*
X6737300Y-16263714D02*
X6765871Y-16263714D01*
X6794443Y-16278000D01*
X6808728Y-16292286D01*
X6823014Y-16320857D01*
X6837300Y-16378000D01*
X6837300Y-16449429D01*
X6823014Y-16506571D01*
X6808728Y-16535143D01*
X6794443Y-16549429D01*
X6765871Y-16563714D01*
X6737300Y-16563714D01*
X6708728Y-16549429D01*
X6694443Y-16535143D01*
X6680157Y-16506571D01*
X6665871Y-16449429D01*
X6665871Y-16378000D01*
X6680157Y-16320857D01*
X6694443Y-16292286D01*
X6708728Y-16278000D01*
X6737300Y-16263714D01*
X6951586Y-16263714D02*
X6951586Y-16320857D01*
X7065871Y-16263714D02*
X7065871Y-16320857D01*
X7508728Y-16678000D02*
X7494443Y-16663714D01*
X7465871Y-16620857D01*
X7451585Y-16592286D01*
X7437300Y-16549429D01*
X7423014Y-16478000D01*
X7423014Y-16420857D01*
X7437300Y-16349429D01*
X7451585Y-16306571D01*
X7465871Y-16278000D01*
X7494443Y-16235143D01*
X7508728Y-16220857D01*
X7751585Y-16363714D02*
X7751585Y-16563714D01*
X7680157Y-16249429D02*
X7608728Y-16463714D01*
X7794443Y-16463714D01*
X8137300Y-16563714D02*
X8137300Y-16263714D01*
X8265871Y-16563714D02*
X8265871Y-16406571D01*
X8251585Y-16378000D01*
X8223014Y-16363714D01*
X8180157Y-16363714D01*
X8151585Y-16378000D01*
X8137300Y-16392286D01*
X8451586Y-16563714D02*
X8423014Y-16549429D01*
X8408728Y-16535143D01*
X8394443Y-16506571D01*
X8394443Y-16420857D01*
X8408728Y-16392286D01*
X8423014Y-16378000D01*
X8451586Y-16363714D01*
X8494443Y-16363714D01*
X8523014Y-16378000D01*
X8537300Y-16392286D01*
X8551586Y-16420857D01*
X8551586Y-16506571D01*
X8537300Y-16535143D01*
X8523014Y-16549429D01*
X8494443Y-16563714D01*
X8451586Y-16563714D01*
X8723014Y-16563714D02*
X8694443Y-16549429D01*
X8680157Y-16520857D01*
X8680157Y-16263714D01*
X8951586Y-16549429D02*
X8923014Y-16563714D01*
X8865871Y-16563714D01*
X8837300Y-16549429D01*
X8823014Y-16520857D01*
X8823014Y-16406571D01*
X8837300Y-16378000D01*
X8865871Y-16363714D01*
X8923014Y-16363714D01*
X8951586Y-16378000D01*
X8965871Y-16406571D01*
X8965871Y-16435143D01*
X8823014Y-16463714D01*
X9080157Y-16549429D02*
X9108729Y-16563714D01*
X9165871Y-16563714D01*
X9194443Y-16549429D01*
X9208729Y-16520857D01*
X9208729Y-16506571D01*
X9194443Y-16478000D01*
X9165871Y-16463714D01*
X9123014Y-16463714D01*
X9094443Y-16449429D01*
X9080157Y-16420857D01*
X9080157Y-16406571D01*
X9094443Y-16378000D01*
X9123014Y-16363714D01*
X9165871Y-16363714D01*
X9194443Y-16378000D01*
X9308728Y-16678000D02*
X9323014Y-16663714D01*
X9351586Y-16620857D01*
X9365871Y-16592286D01*
X9380157Y-16549429D01*
X9394443Y-16478000D01*
X9394443Y-16420857D01*
X9380157Y-16349429D01*
X9365871Y-16306571D01*
X9351586Y-16278000D01*
X9323014Y-16235143D01*
X9308728Y-16220857D01*
M02*
