G04 #@! TF.FileFunction,Legend,Top*
%FSLAX46Y46*%
G04 Gerber Fmt 4.6, Leading zero omitted, Abs format (unit mm)*
G04 Created by KiCad (PCBNEW 4.0.1-stable) date 2016-04-19 17:05:27*
%MOMM*%
G01*
G04 APERTURE LIST*
%ADD10C,0.100000*%
%ADD11C,0.150000*%
G04 APERTURE END LIST*
D10*
D11*
X94488000Y-120015000D02*
X28448000Y-120015000D01*
X93218000Y-66675000D02*
X28448000Y-66675000D01*
X94488000Y-67945000D02*
X93218000Y-66675000D01*
X94488000Y-79375000D02*
X94488000Y-67945000D01*
X97028000Y-81915000D02*
X94488000Y-79375000D01*
X97028000Y-114935000D02*
X97028000Y-81915000D01*
X94488000Y-117475000D02*
X97028000Y-114935000D01*
X94488000Y-120015000D02*
X94488000Y-117475000D01*
X56840381Y-114649285D02*
X56840381Y-115220714D01*
X56840381Y-114935000D02*
X55840381Y-114935000D01*
X55983238Y-115030238D01*
X56078476Y-115125476D01*
X56126095Y-115220714D01*
X57658000Y-118745000D02*
X75438000Y-118745000D01*
X75438000Y-118745000D02*
X75438000Y-116205000D01*
X75438000Y-116205000D02*
X57658000Y-116205000D01*
X54838000Y-119025000D02*
X56388000Y-119025000D01*
X57658000Y-118745000D02*
X57658000Y-116205000D01*
X56388000Y-115925000D02*
X54838000Y-115925000D01*
X54838000Y-115925000D02*
X54838000Y-119025000D01*
X80518000Y-118745000D02*
X93218000Y-118745000D01*
X93218000Y-118745000D02*
X93218000Y-116205000D01*
X93218000Y-116205000D02*
X80518000Y-116205000D01*
X77698000Y-119025000D02*
X79248000Y-119025000D01*
X80518000Y-118745000D02*
X80518000Y-116205000D01*
X79248000Y-115925000D02*
X77698000Y-115925000D01*
X77698000Y-115925000D02*
X77698000Y-119025000D01*
X48514000Y-70485000D02*
X71374000Y-70485000D01*
X71374000Y-70485000D02*
X71374000Y-67945000D01*
X71374000Y-67945000D02*
X48514000Y-67945000D01*
X45694000Y-70765000D02*
X47244000Y-70765000D01*
X48514000Y-70485000D02*
X48514000Y-67945000D01*
X47244000Y-67665000D02*
X45694000Y-67665000D01*
X45694000Y-67665000D02*
X45694000Y-70765000D01*
X75438000Y-70485000D02*
X93218000Y-70485000D01*
X93218000Y-70485000D02*
X93218000Y-67945000D01*
X93218000Y-67945000D02*
X75438000Y-67945000D01*
X72618000Y-70765000D02*
X74168000Y-70765000D01*
X75438000Y-70485000D02*
X75438000Y-67945000D01*
X74168000Y-67665000D02*
X72618000Y-67665000D01*
X72618000Y-67665000D02*
X72618000Y-70765000D01*
X44704000Y-117475000D02*
G75*
G03X44704000Y-117475000I-2286000J0D01*
G01*
X96774000Y-112395000D02*
G75*
G03X96774000Y-112395000I-2286000J0D01*
G01*
X45974000Y-69215000D02*
G75*
G03X45974000Y-69215000I-2286000J0D01*
G01*
X96774000Y-84455000D02*
G75*
G03X96774000Y-84455000I-2286000J0D01*
G01*
X55118000Y-47625000D02*
X34798000Y-47625000D01*
X37338000Y-42545000D02*
X55118000Y-42545000D01*
X55118000Y-47625000D02*
X55118000Y-42545000D01*
X34798000Y-47625000D02*
X34798000Y-45085000D01*
X36068000Y-42265000D02*
X34518000Y-42265000D01*
X34798000Y-45085000D02*
X37338000Y-45085000D01*
X37338000Y-45085000D02*
X37338000Y-42545000D01*
X34518000Y-42265000D02*
X34518000Y-43815000D01*
X81788000Y-47625000D02*
X61468000Y-47625000D01*
X64008000Y-42545000D02*
X81788000Y-42545000D01*
X81788000Y-47625000D02*
X81788000Y-42545000D01*
X61468000Y-47625000D02*
X61468000Y-45085000D01*
X62738000Y-42265000D02*
X61188000Y-42265000D01*
X61468000Y-45085000D02*
X64008000Y-45085000D01*
X64008000Y-45085000D02*
X64008000Y-42545000D01*
X61188000Y-42265000D02*
X61188000Y-43815000D01*
X34798000Y-139065000D02*
X55118000Y-139065000D01*
X52578000Y-144145000D02*
X34798000Y-144145000D01*
X34798000Y-139065000D02*
X34798000Y-144145000D01*
X55118000Y-139065000D02*
X55118000Y-141605000D01*
X53848000Y-144425000D02*
X55398000Y-144425000D01*
X55118000Y-141605000D02*
X52578000Y-141605000D01*
X52578000Y-141605000D02*
X52578000Y-144145000D01*
X55398000Y-144425000D02*
X55398000Y-142875000D01*
X41083000Y-91850000D02*
X41083000Y-92185000D01*
X48833000Y-91850000D02*
X48833000Y-92185000D01*
X48833000Y-105000000D02*
X48833000Y-104665000D01*
X41083000Y-105000000D02*
X41083000Y-104665000D01*
X41083000Y-91850000D02*
X48833000Y-91850000D01*
X41083000Y-105000000D02*
X48833000Y-105000000D01*
X41083000Y-92185000D02*
X39283000Y-92185000D01*
X55583000Y-83150000D02*
X55583000Y-83295000D01*
X59733000Y-83150000D02*
X59733000Y-83295000D01*
X59733000Y-88300000D02*
X59733000Y-88155000D01*
X55583000Y-88300000D02*
X55583000Y-88155000D01*
X55583000Y-83150000D02*
X59733000Y-83150000D01*
X55583000Y-88300000D02*
X59733000Y-88300000D01*
X55583000Y-83295000D02*
X54183000Y-83295000D01*
X61468000Y-139065000D02*
X81788000Y-139065000D01*
X79248000Y-144145000D02*
X61468000Y-144145000D01*
X61468000Y-139065000D02*
X61468000Y-144145000D01*
X81788000Y-139065000D02*
X81788000Y-141605000D01*
X80518000Y-144425000D02*
X82068000Y-144425000D01*
X81788000Y-141605000D02*
X79248000Y-141605000D01*
X79248000Y-141605000D02*
X79248000Y-144145000D01*
X82068000Y-144425000D02*
X82068000Y-142875000D01*
X78233000Y-123760000D02*
X77868000Y-123760000D01*
X78233000Y-131510000D02*
X77868000Y-131510000D01*
X62483000Y-131510000D02*
X62848000Y-131510000D01*
X62483000Y-123760000D02*
X62848000Y-123760000D01*
X78233000Y-123760000D02*
X78233000Y-131510000D01*
X62483000Y-123760000D02*
X62483000Y-131510000D01*
X77868000Y-123760000D02*
X77868000Y-121935000D01*
X42883000Y-76800000D02*
X42883000Y-76945000D01*
X47033000Y-76800000D02*
X47033000Y-76945000D01*
X47033000Y-81950000D02*
X47033000Y-81805000D01*
X42883000Y-81950000D02*
X42883000Y-81805000D01*
X42883000Y-76800000D02*
X47033000Y-76800000D01*
X42883000Y-81950000D02*
X47033000Y-81950000D01*
X42883000Y-76945000D02*
X41483000Y-76945000D01*
X57593000Y-91820000D02*
X57593000Y-92185000D01*
X65343000Y-91820000D02*
X65343000Y-92185000D01*
X65343000Y-107570000D02*
X65343000Y-107205000D01*
X57593000Y-107570000D02*
X57593000Y-107205000D01*
X57593000Y-91820000D02*
X65343000Y-91820000D01*
X57593000Y-107570000D02*
X65343000Y-107570000D01*
X57593000Y-92185000D02*
X55768000Y-92185000D01*
X52833000Y-55180000D02*
X52468000Y-55180000D01*
X52833000Y-62930000D02*
X52468000Y-62930000D01*
X37083000Y-62930000D02*
X37448000Y-62930000D01*
X37083000Y-55180000D02*
X37448000Y-55180000D01*
X52833000Y-55180000D02*
X52833000Y-62930000D01*
X37083000Y-55180000D02*
X37083000Y-62930000D01*
X52468000Y-55180000D02*
X52468000Y-53355000D01*
X79503000Y-55180000D02*
X79138000Y-55180000D01*
X79503000Y-62930000D02*
X79138000Y-62930000D01*
X63753000Y-62930000D02*
X64118000Y-62930000D01*
X63753000Y-55180000D02*
X64118000Y-55180000D01*
X79503000Y-55180000D02*
X79503000Y-62930000D01*
X63753000Y-55180000D02*
X63753000Y-62930000D01*
X79138000Y-55180000D02*
X79138000Y-53355000D01*
X52833000Y-123760000D02*
X52468000Y-123760000D01*
X52833000Y-131510000D02*
X52468000Y-131510000D01*
X37083000Y-131510000D02*
X37448000Y-131510000D01*
X37083000Y-123760000D02*
X37448000Y-123760000D01*
X52833000Y-123760000D02*
X52833000Y-131510000D01*
X37083000Y-123760000D02*
X37083000Y-131510000D01*
X52468000Y-123760000D02*
X52468000Y-121935000D01*
X36068000Y-104775000D02*
X36068000Y-92075000D01*
X36068000Y-92075000D02*
X30988000Y-92075000D01*
X30988000Y-92075000D02*
X30988000Y-102235000D01*
X36068000Y-104775000D02*
X33528000Y-104775000D01*
X30708000Y-103505000D02*
X30708000Y-105055000D01*
X33528000Y-104775000D02*
X33528000Y-102235000D01*
X33528000Y-102235000D02*
X30988000Y-102235000D01*
X30708000Y-105055000D02*
X32258000Y-105055000D01*
X112268000Y-62865000D02*
X112268000Y-42545000D01*
X117348000Y-45085000D02*
X117348000Y-62865000D01*
X112268000Y-62865000D02*
X117348000Y-62865000D01*
X112268000Y-42545000D02*
X114808000Y-42545000D01*
X117628000Y-43815000D02*
X117628000Y-42265000D01*
X114808000Y-42545000D02*
X114808000Y-45085000D01*
X114808000Y-45085000D02*
X117348000Y-45085000D01*
X117628000Y-42265000D02*
X116078000Y-42265000D01*
X112268000Y-89535000D02*
X112268000Y-69215000D01*
X117348000Y-71755000D02*
X117348000Y-89535000D01*
X112268000Y-89535000D02*
X117348000Y-89535000D01*
X112268000Y-69215000D02*
X114808000Y-69215000D01*
X117628000Y-70485000D02*
X117628000Y-68935000D01*
X114808000Y-69215000D02*
X114808000Y-71755000D01*
X114808000Y-71755000D02*
X117348000Y-71755000D01*
X117628000Y-68935000D02*
X116078000Y-68935000D01*
X112268000Y-116205000D02*
X112268000Y-95885000D01*
X117348000Y-98425000D02*
X117348000Y-116205000D01*
X112268000Y-116205000D02*
X117348000Y-116205000D01*
X112268000Y-95885000D02*
X114808000Y-95885000D01*
X117628000Y-97155000D02*
X117628000Y-95605000D01*
X114808000Y-95885000D02*
X114808000Y-98425000D01*
X114808000Y-98425000D02*
X117348000Y-98425000D01*
X117628000Y-95605000D02*
X116078000Y-95605000D01*
X112268000Y-142875000D02*
X112268000Y-122555000D01*
X117348000Y-125095000D02*
X117348000Y-142875000D01*
X112268000Y-142875000D02*
X117348000Y-142875000D01*
X112268000Y-122555000D02*
X114808000Y-122555000D01*
X117628000Y-123825000D02*
X117628000Y-122275000D01*
X114808000Y-122555000D02*
X114808000Y-125095000D01*
X114808000Y-125095000D02*
X117348000Y-125095000D01*
X117628000Y-122275000D02*
X116078000Y-122275000D01*
X107443000Y-48830000D02*
X107078000Y-48830000D01*
X107443000Y-56580000D02*
X107078000Y-56580000D01*
X91693000Y-56580000D02*
X92058000Y-56580000D01*
X91693000Y-48830000D02*
X92058000Y-48830000D01*
X107443000Y-48830000D02*
X107443000Y-56580000D01*
X91693000Y-48830000D02*
X91693000Y-56580000D01*
X107078000Y-48830000D02*
X107078000Y-47005000D01*
X89663000Y-78040000D02*
X89298000Y-78040000D01*
X89663000Y-85790000D02*
X89298000Y-85790000D01*
X73913000Y-85790000D02*
X74278000Y-85790000D01*
X73913000Y-78040000D02*
X74278000Y-78040000D01*
X89663000Y-78040000D02*
X89663000Y-85790000D01*
X73913000Y-78040000D02*
X73913000Y-85790000D01*
X89298000Y-78040000D02*
X89298000Y-76215000D01*
X89663000Y-99630000D02*
X89298000Y-99630000D01*
X89663000Y-107380000D02*
X89298000Y-107380000D01*
X73913000Y-107380000D02*
X74278000Y-107380000D01*
X73913000Y-99630000D02*
X74278000Y-99630000D01*
X89663000Y-99630000D02*
X89663000Y-107380000D01*
X73913000Y-99630000D02*
X73913000Y-107380000D01*
X89298000Y-99630000D02*
X89298000Y-97805000D01*
X107443000Y-128840000D02*
X107078000Y-128840000D01*
X107443000Y-136590000D02*
X107078000Y-136590000D01*
X91693000Y-136590000D02*
X92058000Y-136590000D01*
X91693000Y-128840000D02*
X92058000Y-128840000D01*
X107443000Y-128840000D02*
X107443000Y-136590000D01*
X91693000Y-128840000D02*
X91693000Y-136590000D01*
X107078000Y-128840000D02*
X107078000Y-127015000D01*
X32428000Y-81195000D02*
X34328000Y-81195000D01*
X32428000Y-80095000D02*
X34328000Y-80095000D01*
X33328000Y-80645000D02*
X33778000Y-80645000D01*
X33278000Y-80395000D02*
X33278000Y-80895000D01*
X33278000Y-80645000D02*
X33528000Y-80395000D01*
X33528000Y-80395000D02*
X33528000Y-80895000D01*
X33528000Y-80895000D02*
X33278000Y-80645000D01*
X66777820Y-79324200D02*
X66777820Y-80025240D01*
X66777820Y-80025240D02*
X66528900Y-80025240D01*
X63978840Y-80025240D02*
X63778180Y-80025240D01*
X63778180Y-80025240D02*
X63778180Y-79324200D01*
X34028000Y-87670000D02*
X33028000Y-87670000D01*
X33028000Y-86320000D02*
X34028000Y-86320000D01*
X56888000Y-78780000D02*
X55888000Y-78780000D01*
X55888000Y-77430000D02*
X56888000Y-77430000D01*
X30528000Y-68755000D02*
X30728000Y-68755000D01*
X36528000Y-68755000D02*
X36328000Y-68755000D01*
X36528000Y-74755000D02*
X36328000Y-74755000D01*
X30528000Y-74755000D02*
X30728000Y-74755000D01*
X32328000Y-74755000D02*
X34728000Y-74755000D01*
X32328000Y-68755000D02*
X34728000Y-68755000D01*
X30528000Y-68755000D02*
X30528000Y-74755000D01*
X36528000Y-74755000D02*
X36528000Y-68755000D01*
X35228000Y-71755000D02*
G75*
G03X35228000Y-71755000I-1700000J0D01*
G01*
X64539905Y-115387381D02*
X64539905Y-114387381D01*
X64920858Y-114387381D01*
X65016096Y-114435000D01*
X65063715Y-114482619D01*
X65111334Y-114577857D01*
X65111334Y-114720714D01*
X65063715Y-114815952D01*
X65016096Y-114863571D01*
X64920858Y-114911190D01*
X64539905Y-114911190D01*
X66063715Y-115387381D02*
X65492286Y-115387381D01*
X65778000Y-115387381D02*
X65778000Y-114387381D01*
X65682762Y-114530238D01*
X65587524Y-114625476D01*
X65492286Y-114673095D01*
X85113905Y-115387381D02*
X85113905Y-114387381D01*
X85494858Y-114387381D01*
X85590096Y-114435000D01*
X85637715Y-114482619D01*
X85685334Y-114577857D01*
X85685334Y-114720714D01*
X85637715Y-114815952D01*
X85590096Y-114863571D01*
X85494858Y-114911190D01*
X85113905Y-114911190D01*
X86066286Y-114482619D02*
X86113905Y-114435000D01*
X86209143Y-114387381D01*
X86447239Y-114387381D01*
X86542477Y-114435000D01*
X86590096Y-114482619D01*
X86637715Y-114577857D01*
X86637715Y-114673095D01*
X86590096Y-114815952D01*
X86018667Y-115387381D01*
X86637715Y-115387381D01*
X57935905Y-72461381D02*
X57935905Y-71461381D01*
X58316858Y-71461381D01*
X58412096Y-71509000D01*
X58459715Y-71556619D01*
X58507334Y-71651857D01*
X58507334Y-71794714D01*
X58459715Y-71889952D01*
X58412096Y-71937571D01*
X58316858Y-71985190D01*
X57935905Y-71985190D01*
X58840667Y-71461381D02*
X59459715Y-71461381D01*
X59126381Y-71842333D01*
X59269239Y-71842333D01*
X59364477Y-71889952D01*
X59412096Y-71937571D01*
X59459715Y-72032810D01*
X59459715Y-72270905D01*
X59412096Y-72366143D01*
X59364477Y-72413762D01*
X59269239Y-72461381D01*
X58983524Y-72461381D01*
X58888286Y-72413762D01*
X58840667Y-72366143D01*
X82319905Y-72461381D02*
X82319905Y-71461381D01*
X82700858Y-71461381D01*
X82796096Y-71509000D01*
X82843715Y-71556619D01*
X82891334Y-71651857D01*
X82891334Y-71794714D01*
X82843715Y-71889952D01*
X82796096Y-71937571D01*
X82700858Y-71985190D01*
X82319905Y-71985190D01*
X83748477Y-71794714D02*
X83748477Y-72461381D01*
X83510381Y-71413762D02*
X83272286Y-72128048D01*
X83891334Y-72128048D01*
X34853714Y-41727381D02*
X34853714Y-40727381D01*
X35234667Y-40727381D01*
X35329905Y-40775000D01*
X35377524Y-40822619D01*
X35425143Y-40917857D01*
X35425143Y-41060714D01*
X35377524Y-41155952D01*
X35329905Y-41203571D01*
X35234667Y-41251190D01*
X34853714Y-41251190D01*
X36377524Y-41727381D02*
X35806095Y-41727381D01*
X36091809Y-41727381D02*
X36091809Y-40727381D01*
X35996571Y-40870238D01*
X35901333Y-40965476D01*
X35806095Y-41013095D01*
X37329905Y-41727381D02*
X36758476Y-41727381D01*
X37044190Y-41727381D02*
X37044190Y-40727381D01*
X36948952Y-40870238D01*
X36853714Y-40965476D01*
X36758476Y-41013095D01*
X61523714Y-41727381D02*
X61523714Y-40727381D01*
X61904667Y-40727381D01*
X61999905Y-40775000D01*
X62047524Y-40822619D01*
X62095143Y-40917857D01*
X62095143Y-41060714D01*
X62047524Y-41155952D01*
X61999905Y-41203571D01*
X61904667Y-41251190D01*
X61523714Y-41251190D01*
X63047524Y-41727381D02*
X62476095Y-41727381D01*
X62761809Y-41727381D02*
X62761809Y-40727381D01*
X62666571Y-40870238D01*
X62571333Y-40965476D01*
X62476095Y-41013095D01*
X63428476Y-40822619D02*
X63476095Y-40775000D01*
X63571333Y-40727381D01*
X63809429Y-40727381D01*
X63904667Y-40775000D01*
X63952286Y-40822619D01*
X63999905Y-40917857D01*
X63999905Y-41013095D01*
X63952286Y-41155952D01*
X63380857Y-41727381D01*
X63999905Y-41727381D01*
X34853714Y-145867381D02*
X34853714Y-144867381D01*
X35234667Y-144867381D01*
X35329905Y-144915000D01*
X35377524Y-144962619D01*
X35425143Y-145057857D01*
X35425143Y-145200714D01*
X35377524Y-145295952D01*
X35329905Y-145343571D01*
X35234667Y-145391190D01*
X34853714Y-145391190D01*
X36377524Y-145867381D02*
X35806095Y-145867381D01*
X36091809Y-145867381D02*
X36091809Y-144867381D01*
X35996571Y-145010238D01*
X35901333Y-145105476D01*
X35806095Y-145153095D01*
X36710857Y-144867381D02*
X37329905Y-144867381D01*
X36996571Y-145248333D01*
X37139429Y-145248333D01*
X37234667Y-145295952D01*
X37282286Y-145343571D01*
X37329905Y-145438810D01*
X37329905Y-145676905D01*
X37282286Y-145772143D01*
X37234667Y-145819762D01*
X37139429Y-145867381D01*
X36853714Y-145867381D01*
X36758476Y-145819762D01*
X36710857Y-145772143D01*
X44196095Y-90377381D02*
X44196095Y-91186905D01*
X44243714Y-91282143D01*
X44291333Y-91329762D01*
X44386571Y-91377381D01*
X44577048Y-91377381D01*
X44672286Y-91329762D01*
X44719905Y-91282143D01*
X44767524Y-91186905D01*
X44767524Y-90377381D01*
X45767524Y-91377381D02*
X45196095Y-91377381D01*
X45481809Y-91377381D02*
X45481809Y-90377381D01*
X45386571Y-90520238D01*
X45291333Y-90615476D01*
X45196095Y-90663095D01*
X56896095Y-81677381D02*
X56896095Y-82486905D01*
X56943714Y-82582143D01*
X56991333Y-82629762D01*
X57086571Y-82677381D01*
X57277048Y-82677381D01*
X57372286Y-82629762D01*
X57419905Y-82582143D01*
X57467524Y-82486905D01*
X57467524Y-81677381D01*
X57896095Y-81772619D02*
X57943714Y-81725000D01*
X58038952Y-81677381D01*
X58277048Y-81677381D01*
X58372286Y-81725000D01*
X58419905Y-81772619D01*
X58467524Y-81867857D01*
X58467524Y-81963095D01*
X58419905Y-82105952D01*
X57848476Y-82677381D01*
X58467524Y-82677381D01*
X61523714Y-145867381D02*
X61523714Y-144867381D01*
X61904667Y-144867381D01*
X61999905Y-144915000D01*
X62047524Y-144962619D01*
X62095143Y-145057857D01*
X62095143Y-145200714D01*
X62047524Y-145295952D01*
X61999905Y-145343571D01*
X61904667Y-145391190D01*
X61523714Y-145391190D01*
X63047524Y-145867381D02*
X62476095Y-145867381D01*
X62761809Y-145867381D02*
X62761809Y-144867381D01*
X62666571Y-145010238D01*
X62571333Y-145105476D01*
X62476095Y-145153095D01*
X63904667Y-145200714D02*
X63904667Y-145867381D01*
X63666571Y-144819762D02*
X63428476Y-145534048D01*
X64047524Y-145534048D01*
X78610381Y-128873095D02*
X79419905Y-128873095D01*
X79515143Y-128825476D01*
X79562762Y-128777857D01*
X79610381Y-128682619D01*
X79610381Y-128492142D01*
X79562762Y-128396904D01*
X79515143Y-128349285D01*
X79419905Y-128301666D01*
X78610381Y-128301666D01*
X79610381Y-127301666D02*
X79610381Y-127873095D01*
X79610381Y-127587381D02*
X78610381Y-127587381D01*
X78753238Y-127682619D01*
X78848476Y-127777857D01*
X78896095Y-127873095D01*
X78943714Y-126444523D02*
X79610381Y-126444523D01*
X78562762Y-126682619D02*
X79277048Y-126920714D01*
X79277048Y-126301666D01*
X44196095Y-75327381D02*
X44196095Y-76136905D01*
X44243714Y-76232143D01*
X44291333Y-76279762D01*
X44386571Y-76327381D01*
X44577048Y-76327381D01*
X44672286Y-76279762D01*
X44719905Y-76232143D01*
X44767524Y-76136905D01*
X44767524Y-75327381D01*
X45148476Y-75327381D02*
X45767524Y-75327381D01*
X45434190Y-75708333D01*
X45577048Y-75708333D01*
X45672286Y-75755952D01*
X45719905Y-75803571D01*
X45767524Y-75898810D01*
X45767524Y-76136905D01*
X45719905Y-76232143D01*
X45672286Y-76279762D01*
X45577048Y-76327381D01*
X45291333Y-76327381D01*
X45196095Y-76279762D01*
X45148476Y-76232143D01*
X60229905Y-90347381D02*
X60229905Y-91156905D01*
X60277524Y-91252143D01*
X60325143Y-91299762D01*
X60420381Y-91347381D01*
X60610858Y-91347381D01*
X60706096Y-91299762D01*
X60753715Y-91252143D01*
X60801334Y-91156905D01*
X60801334Y-90347381D01*
X61801334Y-91347381D02*
X61229905Y-91347381D01*
X61515619Y-91347381D02*
X61515619Y-90347381D01*
X61420381Y-90490238D01*
X61325143Y-90585476D01*
X61229905Y-90633095D01*
X62420381Y-90347381D02*
X62515620Y-90347381D01*
X62610858Y-90395000D01*
X62658477Y-90442619D01*
X62706096Y-90537857D01*
X62753715Y-90728333D01*
X62753715Y-90966429D01*
X62706096Y-91156905D01*
X62658477Y-91252143D01*
X62610858Y-91299762D01*
X62515620Y-91347381D01*
X62420381Y-91347381D01*
X62325143Y-91299762D01*
X62277524Y-91252143D01*
X62229905Y-91156905D01*
X62182286Y-90966429D01*
X62182286Y-90728333D01*
X62229905Y-90537857D01*
X62277524Y-90442619D01*
X62325143Y-90395000D01*
X62420381Y-90347381D01*
X53210381Y-60293095D02*
X54019905Y-60293095D01*
X54115143Y-60245476D01*
X54162762Y-60197857D01*
X54210381Y-60102619D01*
X54210381Y-59912142D01*
X54162762Y-59816904D01*
X54115143Y-59769285D01*
X54019905Y-59721666D01*
X53210381Y-59721666D01*
X54210381Y-58721666D02*
X54210381Y-59293095D01*
X54210381Y-59007381D02*
X53210381Y-59007381D01*
X53353238Y-59102619D01*
X53448476Y-59197857D01*
X53496095Y-59293095D01*
X54210381Y-57769285D02*
X54210381Y-58340714D01*
X54210381Y-58055000D02*
X53210381Y-58055000D01*
X53353238Y-58150238D01*
X53448476Y-58245476D01*
X53496095Y-58340714D01*
X79880381Y-60293095D02*
X80689905Y-60293095D01*
X80785143Y-60245476D01*
X80832762Y-60197857D01*
X80880381Y-60102619D01*
X80880381Y-59912142D01*
X80832762Y-59816904D01*
X80785143Y-59769285D01*
X80689905Y-59721666D01*
X79880381Y-59721666D01*
X80880381Y-58721666D02*
X80880381Y-59293095D01*
X80880381Y-59007381D02*
X79880381Y-59007381D01*
X80023238Y-59102619D01*
X80118476Y-59197857D01*
X80166095Y-59293095D01*
X79975619Y-58340714D02*
X79928000Y-58293095D01*
X79880381Y-58197857D01*
X79880381Y-57959761D01*
X79928000Y-57864523D01*
X79975619Y-57816904D01*
X80070857Y-57769285D01*
X80166095Y-57769285D01*
X80308952Y-57816904D01*
X80880381Y-58388333D01*
X80880381Y-57769285D01*
X53210381Y-128873095D02*
X54019905Y-128873095D01*
X54115143Y-128825476D01*
X54162762Y-128777857D01*
X54210381Y-128682619D01*
X54210381Y-128492142D01*
X54162762Y-128396904D01*
X54115143Y-128349285D01*
X54019905Y-128301666D01*
X53210381Y-128301666D01*
X54210381Y-127301666D02*
X54210381Y-127873095D01*
X54210381Y-127587381D02*
X53210381Y-127587381D01*
X53353238Y-127682619D01*
X53448476Y-127777857D01*
X53496095Y-127873095D01*
X53210381Y-126968333D02*
X53210381Y-126349285D01*
X53591333Y-126682619D01*
X53591333Y-126539761D01*
X53638952Y-126444523D01*
X53686571Y-126396904D01*
X53781810Y-126349285D01*
X54019905Y-126349285D01*
X54115143Y-126396904D01*
X54162762Y-126444523D01*
X54210381Y-126539761D01*
X54210381Y-126825476D01*
X54162762Y-126920714D01*
X54115143Y-126968333D01*
X30170381Y-104243095D02*
X29170381Y-104243095D01*
X29170381Y-103862142D01*
X29218000Y-103766904D01*
X29265619Y-103719285D01*
X29360857Y-103671666D01*
X29503714Y-103671666D01*
X29598952Y-103719285D01*
X29646571Y-103766904D01*
X29694190Y-103862142D01*
X29694190Y-104243095D01*
X30170381Y-103195476D02*
X30170381Y-103005000D01*
X30122762Y-102909761D01*
X30075143Y-102862142D01*
X29932286Y-102766904D01*
X29741810Y-102719285D01*
X29360857Y-102719285D01*
X29265619Y-102766904D01*
X29218000Y-102814523D01*
X29170381Y-102909761D01*
X29170381Y-103100238D01*
X29218000Y-103195476D01*
X29265619Y-103243095D01*
X29360857Y-103290714D01*
X29598952Y-103290714D01*
X29694190Y-103243095D01*
X29741810Y-103195476D01*
X29789429Y-103100238D01*
X29789429Y-102909761D01*
X29741810Y-102814523D01*
X29694190Y-102766904D01*
X29598952Y-102719285D01*
X119070381Y-62809286D02*
X118070381Y-62809286D01*
X118070381Y-62428333D01*
X118118000Y-62333095D01*
X118165619Y-62285476D01*
X118260857Y-62237857D01*
X118403714Y-62237857D01*
X118498952Y-62285476D01*
X118546571Y-62333095D01*
X118594190Y-62428333D01*
X118594190Y-62809286D01*
X119070381Y-61285476D02*
X119070381Y-61856905D01*
X119070381Y-61571191D02*
X118070381Y-61571191D01*
X118213238Y-61666429D01*
X118308476Y-61761667D01*
X118356095Y-61856905D01*
X118070381Y-60380714D02*
X118070381Y-60856905D01*
X118546571Y-60904524D01*
X118498952Y-60856905D01*
X118451333Y-60761667D01*
X118451333Y-60523571D01*
X118498952Y-60428333D01*
X118546571Y-60380714D01*
X118641810Y-60333095D01*
X118879905Y-60333095D01*
X118975143Y-60380714D01*
X119022762Y-60428333D01*
X119070381Y-60523571D01*
X119070381Y-60761667D01*
X119022762Y-60856905D01*
X118975143Y-60904524D01*
X119070381Y-89479286D02*
X118070381Y-89479286D01*
X118070381Y-89098333D01*
X118118000Y-89003095D01*
X118165619Y-88955476D01*
X118260857Y-88907857D01*
X118403714Y-88907857D01*
X118498952Y-88955476D01*
X118546571Y-89003095D01*
X118594190Y-89098333D01*
X118594190Y-89479286D01*
X119070381Y-87955476D02*
X119070381Y-88526905D01*
X119070381Y-88241191D02*
X118070381Y-88241191D01*
X118213238Y-88336429D01*
X118308476Y-88431667D01*
X118356095Y-88526905D01*
X118070381Y-87098333D02*
X118070381Y-87288810D01*
X118118000Y-87384048D01*
X118165619Y-87431667D01*
X118308476Y-87526905D01*
X118498952Y-87574524D01*
X118879905Y-87574524D01*
X118975143Y-87526905D01*
X119022762Y-87479286D01*
X119070381Y-87384048D01*
X119070381Y-87193571D01*
X119022762Y-87098333D01*
X118975143Y-87050714D01*
X118879905Y-87003095D01*
X118641810Y-87003095D01*
X118546571Y-87050714D01*
X118498952Y-87098333D01*
X118451333Y-87193571D01*
X118451333Y-87384048D01*
X118498952Y-87479286D01*
X118546571Y-87526905D01*
X118641810Y-87574524D01*
X119070381Y-116149286D02*
X118070381Y-116149286D01*
X118070381Y-115768333D01*
X118118000Y-115673095D01*
X118165619Y-115625476D01*
X118260857Y-115577857D01*
X118403714Y-115577857D01*
X118498952Y-115625476D01*
X118546571Y-115673095D01*
X118594190Y-115768333D01*
X118594190Y-116149286D01*
X119070381Y-114625476D02*
X119070381Y-115196905D01*
X119070381Y-114911191D02*
X118070381Y-114911191D01*
X118213238Y-115006429D01*
X118308476Y-115101667D01*
X118356095Y-115196905D01*
X118070381Y-114292143D02*
X118070381Y-113625476D01*
X119070381Y-114054048D01*
X119070381Y-142819286D02*
X118070381Y-142819286D01*
X118070381Y-142438333D01*
X118118000Y-142343095D01*
X118165619Y-142295476D01*
X118260857Y-142247857D01*
X118403714Y-142247857D01*
X118498952Y-142295476D01*
X118546571Y-142343095D01*
X118594190Y-142438333D01*
X118594190Y-142819286D01*
X119070381Y-141295476D02*
X119070381Y-141866905D01*
X119070381Y-141581191D02*
X118070381Y-141581191D01*
X118213238Y-141676429D01*
X118308476Y-141771667D01*
X118356095Y-141866905D01*
X118498952Y-140724048D02*
X118451333Y-140819286D01*
X118403714Y-140866905D01*
X118308476Y-140914524D01*
X118260857Y-140914524D01*
X118165619Y-140866905D01*
X118118000Y-140819286D01*
X118070381Y-140724048D01*
X118070381Y-140533571D01*
X118118000Y-140438333D01*
X118165619Y-140390714D01*
X118260857Y-140343095D01*
X118308476Y-140343095D01*
X118403714Y-140390714D01*
X118451333Y-140438333D01*
X118498952Y-140533571D01*
X118498952Y-140724048D01*
X118546571Y-140819286D01*
X118594190Y-140866905D01*
X118689429Y-140914524D01*
X118879905Y-140914524D01*
X118975143Y-140866905D01*
X119022762Y-140819286D01*
X119070381Y-140724048D01*
X119070381Y-140533571D01*
X119022762Y-140438333D01*
X118975143Y-140390714D01*
X118879905Y-140343095D01*
X118689429Y-140343095D01*
X118594190Y-140390714D01*
X118546571Y-140438333D01*
X118498952Y-140533571D01*
X107820381Y-53943095D02*
X108629905Y-53943095D01*
X108725143Y-53895476D01*
X108772762Y-53847857D01*
X108820381Y-53752619D01*
X108820381Y-53562142D01*
X108772762Y-53466904D01*
X108725143Y-53419285D01*
X108629905Y-53371666D01*
X107820381Y-53371666D01*
X108820381Y-52371666D02*
X108820381Y-52943095D01*
X108820381Y-52657381D02*
X107820381Y-52657381D01*
X107963238Y-52752619D01*
X108058476Y-52847857D01*
X108106095Y-52943095D01*
X107820381Y-51466904D02*
X107820381Y-51943095D01*
X108296571Y-51990714D01*
X108248952Y-51943095D01*
X108201333Y-51847857D01*
X108201333Y-51609761D01*
X108248952Y-51514523D01*
X108296571Y-51466904D01*
X108391810Y-51419285D01*
X108629905Y-51419285D01*
X108725143Y-51466904D01*
X108772762Y-51514523D01*
X108820381Y-51609761D01*
X108820381Y-51847857D01*
X108772762Y-51943095D01*
X108725143Y-51990714D01*
X90040381Y-83153095D02*
X90849905Y-83153095D01*
X90945143Y-83105476D01*
X90992762Y-83057857D01*
X91040381Y-82962619D01*
X91040381Y-82772142D01*
X90992762Y-82676904D01*
X90945143Y-82629285D01*
X90849905Y-82581666D01*
X90040381Y-82581666D01*
X91040381Y-81581666D02*
X91040381Y-82153095D01*
X91040381Y-81867381D02*
X90040381Y-81867381D01*
X90183238Y-81962619D01*
X90278476Y-82057857D01*
X90326095Y-82153095D01*
X90040381Y-80724523D02*
X90040381Y-80915000D01*
X90088000Y-81010238D01*
X90135619Y-81057857D01*
X90278476Y-81153095D01*
X90468952Y-81200714D01*
X90849905Y-81200714D01*
X90945143Y-81153095D01*
X90992762Y-81105476D01*
X91040381Y-81010238D01*
X91040381Y-80819761D01*
X90992762Y-80724523D01*
X90945143Y-80676904D01*
X90849905Y-80629285D01*
X90611810Y-80629285D01*
X90516571Y-80676904D01*
X90468952Y-80724523D01*
X90421333Y-80819761D01*
X90421333Y-81010238D01*
X90468952Y-81105476D01*
X90516571Y-81153095D01*
X90611810Y-81200714D01*
X90040381Y-104743095D02*
X90849905Y-104743095D01*
X90945143Y-104695476D01*
X90992762Y-104647857D01*
X91040381Y-104552619D01*
X91040381Y-104362142D01*
X90992762Y-104266904D01*
X90945143Y-104219285D01*
X90849905Y-104171666D01*
X90040381Y-104171666D01*
X91040381Y-103171666D02*
X91040381Y-103743095D01*
X91040381Y-103457381D02*
X90040381Y-103457381D01*
X90183238Y-103552619D01*
X90278476Y-103647857D01*
X90326095Y-103743095D01*
X90040381Y-102838333D02*
X90040381Y-102171666D01*
X91040381Y-102600238D01*
X107820381Y-133953095D02*
X108629905Y-133953095D01*
X108725143Y-133905476D01*
X108772762Y-133857857D01*
X108820381Y-133762619D01*
X108820381Y-133572142D01*
X108772762Y-133476904D01*
X108725143Y-133429285D01*
X108629905Y-133381666D01*
X107820381Y-133381666D01*
X108820381Y-132381666D02*
X108820381Y-132953095D01*
X108820381Y-132667381D02*
X107820381Y-132667381D01*
X107963238Y-132762619D01*
X108058476Y-132857857D01*
X108106095Y-132953095D01*
X108248952Y-131810238D02*
X108201333Y-131905476D01*
X108153714Y-131953095D01*
X108058476Y-132000714D01*
X108010857Y-132000714D01*
X107915619Y-131953095D01*
X107868000Y-131905476D01*
X107820381Y-131810238D01*
X107820381Y-131619761D01*
X107868000Y-131524523D01*
X107915619Y-131476904D01*
X108010857Y-131429285D01*
X108058476Y-131429285D01*
X108153714Y-131476904D01*
X108201333Y-131524523D01*
X108248952Y-131619761D01*
X108248952Y-131810238D01*
X108296571Y-131905476D01*
X108344190Y-131953095D01*
X108439429Y-132000714D01*
X108629905Y-132000714D01*
X108725143Y-131953095D01*
X108772762Y-131905476D01*
X108820381Y-131810238D01*
X108820381Y-131619761D01*
X108772762Y-131524523D01*
X108725143Y-131476904D01*
X108629905Y-131429285D01*
X108439429Y-131429285D01*
X108344190Y-131476904D01*
X108296571Y-131524523D01*
X108248952Y-131619761D01*
X32789905Y-79597381D02*
X32789905Y-78597381D01*
X33028000Y-78597381D01*
X33170858Y-78645000D01*
X33266096Y-78740238D01*
X33313715Y-78835476D01*
X33361334Y-79025952D01*
X33361334Y-79168810D01*
X33313715Y-79359286D01*
X33266096Y-79454524D01*
X33170858Y-79549762D01*
X33028000Y-79597381D01*
X32789905Y-79597381D01*
X34313715Y-79597381D02*
X33742286Y-79597381D01*
X34028000Y-79597381D02*
X34028000Y-78597381D01*
X33932762Y-78740238D01*
X33837524Y-78835476D01*
X33742286Y-78883095D01*
X65182762Y-83732619D02*
X65087524Y-83685000D01*
X64992286Y-83589762D01*
X64849429Y-83446905D01*
X64754190Y-83399286D01*
X64658952Y-83399286D01*
X64706571Y-83637381D02*
X64611333Y-83589762D01*
X64516095Y-83494524D01*
X64468476Y-83304048D01*
X64468476Y-82970714D01*
X64516095Y-82780238D01*
X64611333Y-82685000D01*
X64706571Y-82637381D01*
X64897048Y-82637381D01*
X64992286Y-82685000D01*
X65087524Y-82780238D01*
X65135143Y-82970714D01*
X65135143Y-83304048D01*
X65087524Y-83494524D01*
X64992286Y-83589762D01*
X64897048Y-83637381D01*
X64706571Y-83637381D01*
X66087524Y-83637381D02*
X65516095Y-83637381D01*
X65801809Y-83637381D02*
X65801809Y-82637381D01*
X65706571Y-82780238D01*
X65611333Y-82875476D01*
X65516095Y-82923095D01*
X33361334Y-85547381D02*
X33028000Y-85071190D01*
X32789905Y-85547381D02*
X32789905Y-84547381D01*
X33170858Y-84547381D01*
X33266096Y-84595000D01*
X33313715Y-84642619D01*
X33361334Y-84737857D01*
X33361334Y-84880714D01*
X33313715Y-84975952D01*
X33266096Y-85023571D01*
X33170858Y-85071190D01*
X32789905Y-85071190D01*
X34313715Y-85547381D02*
X33742286Y-85547381D01*
X34028000Y-85547381D02*
X34028000Y-84547381D01*
X33932762Y-84690238D01*
X33837524Y-84785476D01*
X33742286Y-84833095D01*
X56221334Y-76657381D02*
X55888000Y-76181190D01*
X55649905Y-76657381D02*
X55649905Y-75657381D01*
X56030858Y-75657381D01*
X56126096Y-75705000D01*
X56173715Y-75752619D01*
X56221334Y-75847857D01*
X56221334Y-75990714D01*
X56173715Y-76085952D01*
X56126096Y-76133571D01*
X56030858Y-76181190D01*
X55649905Y-76181190D01*
X56602286Y-75752619D02*
X56649905Y-75705000D01*
X56745143Y-75657381D01*
X56983239Y-75657381D01*
X57078477Y-75705000D01*
X57126096Y-75752619D01*
X57173715Y-75847857D01*
X57173715Y-75943095D01*
X57126096Y-76085952D01*
X56554667Y-76657381D01*
X57173715Y-76657381D01*
X29932762Y-74088333D02*
X29980381Y-73945476D01*
X29980381Y-73707380D01*
X29932762Y-73612142D01*
X29885143Y-73564523D01*
X29789905Y-73516904D01*
X29694667Y-73516904D01*
X29599429Y-73564523D01*
X29551810Y-73612142D01*
X29504190Y-73707380D01*
X29456571Y-73897857D01*
X29408952Y-73993095D01*
X29361333Y-74040714D01*
X29266095Y-74088333D01*
X29170857Y-74088333D01*
X29075619Y-74040714D01*
X29028000Y-73993095D01*
X28980381Y-73897857D01*
X28980381Y-73659761D01*
X29028000Y-73516904D01*
X28980381Y-73183571D02*
X29980381Y-72945476D01*
X29266095Y-72754999D01*
X29980381Y-72564523D01*
X28980381Y-72326428D01*
X29980381Y-71421666D02*
X29980381Y-71993095D01*
X29980381Y-71707381D02*
X28980381Y-71707381D01*
X29123238Y-71802619D01*
X29218476Y-71897857D01*
X29266095Y-71993095D01*
M02*
