M48
;DRILL file {KiCad 4.0.1-stable} date 2016-04-15 14:32:52
;FORMAT={-:-/ absolute / metric / decimal}
FMAT,2
METRIC,TZ
T1C0.400
T2C1.016
T3C3.048
%
G90
G05
M71
T1
X38.782Y-93.684
X39.07Y-130.819
X39.845Y-121.502
X40.828Y-81.525
X41.753Y-104.14
X41.761Y-97.79
X44.41Y-60.677
X45.176Y-62.244
X46.104Y-94.822
X47.3Y-61.542
X47.925Y-60.917
X47.938Y-99.695
X47.964Y-62.01
X49.046Y-90.238
X49.192Y-62.237
X49.276Y-76.978
X50.272Y-130.216
X50.654Y-124.448
X51.241Y-95.4
X52.148Y-55.885
X52.319Y-99.948
X53.003Y-93.355
X53.884Y-80.583
X54.332Y-107.497
X54.339Y-99.307
X54.546Y-80.113
X56.09Y-66.115
X57.168Y-89.799
X58.926Y-101.353
X59.076Y-85.048
X59.585Y-96.52
X60.616Y-96.203
X60.907Y-121.651
X60.914Y-114.89
X61.458Y-83.133
X61.635Y-87.63
X62.764Y-110.1
X63.046Y-115.716
X63.114Y-94.11
X64.234Y-65.489
X64.584Y-97.711
X65.054Y-121.423
X67.29Y-133.84
X68.284Y-133.881
X69.54Y-133.843
X70.808Y-133.846
X72.081Y-133.843
X72.334Y-124.453
X72.888Y-62.358
X73.103Y-133.841
X73.323Y-124.47
X73.728Y-62.248
X73.798Y-125.934
X74.108Y-125.121
X74.228Y-133.772
X74.277Y-134.61
X74.341Y-129.863
X74.75Y-59.766
X74.987Y-124.444
X75.659Y-126.56
X76.414Y-126.183
X76.632Y-75.75
X76.938Y-92.802
X77.324Y-111.935
X77.66Y-79.196
X78.087Y-58.72
X78.323Y-55.87
X86.962Y-119.248
X88.272Y-88.127
X89.58Y-107.05
X92.221Y-126.49
X93.046Y-50.393
X106.553Y-49.551
T2
X32.258Y-93.345
X32.258Y-95.885
X32.258Y-98.425
X32.258Y-100.965
X32.258Y-103.505
X34.798Y-93.345
X34.798Y-95.885
X34.798Y-98.425
X34.798Y-100.965
X34.798Y-103.505
X36.068Y-43.815
X36.068Y-46.355
X36.068Y-140.335
X36.068Y-142.875
X38.608Y-43.815
X38.608Y-46.355
X38.608Y-140.335
X38.608Y-142.875
X41.148Y-43.815
X41.148Y-46.355
X41.148Y-140.335
X41.148Y-142.875
X43.688Y-43.815
X43.688Y-46.355
X43.688Y-140.335
X43.688Y-142.875
X46.228Y-43.815
X46.228Y-46.355
X46.228Y-140.335
X46.228Y-142.875
X47.244Y-69.215
X48.768Y-43.815
X48.768Y-46.355
X48.768Y-140.335
X48.768Y-142.875
X49.784Y-69.215
X51.308Y-43.815
X51.308Y-46.355
X51.308Y-140.335
X51.308Y-142.875
X52.324Y-69.215
X53.848Y-43.815
X53.848Y-46.355
X53.848Y-140.335
X53.848Y-142.875
X54.864Y-69.215
X56.388Y-117.475
X57.404Y-69.215
X58.928Y-117.475
X59.944Y-69.215
X61.468Y-117.475
X62.484Y-69.215
X62.738Y-43.815
X62.738Y-46.355
X62.738Y-140.335
X62.738Y-142.875
X64.008Y-117.475
X65.024Y-69.215
X65.278Y-43.815
X65.278Y-46.355
X65.278Y-140.335
X65.278Y-142.875
X66.548Y-117.475
X67.564Y-69.215
X67.818Y-43.815
X67.818Y-46.355
X67.818Y-140.335
X67.818Y-142.875
X69.088Y-117.475
X70.104Y-69.215
X70.358Y-43.815
X70.358Y-46.355
X70.358Y-140.335
X70.358Y-142.875
X71.628Y-117.475
X72.898Y-43.815
X72.898Y-46.355
X72.898Y-140.335
X72.898Y-142.875
X74.168Y-69.215
X74.168Y-117.475
X75.438Y-43.815
X75.438Y-46.355
X75.438Y-140.335
X75.438Y-142.875
X76.708Y-69.215
X77.978Y-43.815
X77.978Y-46.355
X77.978Y-140.335
X77.978Y-142.875
X79.248Y-69.215
X79.248Y-117.475
X80.518Y-43.815
X80.518Y-46.355
X80.518Y-140.335
X80.518Y-142.875
X81.788Y-69.215
X81.788Y-117.475
X84.328Y-69.215
X84.328Y-117.475
X86.868Y-69.215
X86.868Y-117.475
X89.408Y-69.215
X89.408Y-117.475
X91.948Y-69.215
X91.948Y-117.475
X113.538Y-43.815
X113.538Y-46.355
X113.538Y-48.895
X113.538Y-51.435
X113.538Y-53.975
X113.538Y-56.515
X113.538Y-59.055
X113.538Y-61.595
X113.538Y-70.485
X113.538Y-73.025
X113.538Y-75.565
X113.538Y-78.105
X113.538Y-80.645
X113.538Y-83.185
X113.538Y-85.725
X113.538Y-88.265
X113.538Y-97.155
X113.538Y-99.695
X113.538Y-102.235
X113.538Y-104.775
X113.538Y-107.315
X113.538Y-109.855
X113.538Y-112.395
X113.538Y-114.935
X113.538Y-123.825
X113.538Y-126.365
X113.538Y-128.905
X113.538Y-131.445
X113.538Y-133.985
X113.538Y-136.525
X113.538Y-139.065
X113.538Y-141.605
X116.078Y-43.815
X116.078Y-46.355
X116.078Y-48.895
X116.078Y-51.435
X116.078Y-53.975
X116.078Y-56.515
X116.078Y-59.055
X116.078Y-61.595
X116.078Y-70.485
X116.078Y-73.025
X116.078Y-75.565
X116.078Y-78.105
X116.078Y-80.645
X116.078Y-83.185
X116.078Y-85.725
X116.078Y-88.265
X116.078Y-97.155
X116.078Y-99.695
X116.078Y-102.235
X116.078Y-104.775
X116.078Y-107.315
X116.078Y-109.855
X116.078Y-112.395
X116.078Y-114.935
X116.078Y-123.825
X116.078Y-126.365
X116.078Y-128.905
X116.078Y-131.445
X116.078Y-133.985
X116.078Y-136.525
X116.078Y-139.065
X116.078Y-141.605
T3
X42.418Y-117.475
X43.688Y-69.215
X94.488Y-84.455
X94.488Y-112.395
T0
M30
