G04 #@! TF.FileFunction,Soldermask,Top*
%FSLAX46Y46*%
G04 Gerber Fmt 4.6, Leading zero omitted, Abs format (unit mm)*
G04 Created by KiCad (PCBNEW 4.0.1-stable) date 2016-04-19 17:05:27*
%MOMM*%
G01*
G04 APERTURE LIST*
%ADD10C,0.100000*%
%ADD11O,1.727200X2.032000*%
%ADD12C,4.064000*%
%ADD13R,1.727200X1.727200*%
%ADD14O,1.727200X1.727200*%
%ADD15R,1.950000X0.600000*%
%ADD16R,1.550000X0.600000*%
%ADD17R,0.600000X2.000000*%
%ADD18R,2.000000X0.600000*%
%ADD19R,0.797560X0.797560*%
%ADD20R,0.800100X1.800860*%
%ADD21R,1.200000X0.900000*%
%ADD22R,1.000000X2.750000*%
G04 APERTURE END LIST*
D10*
D11*
X56388000Y-117475000D03*
X58928000Y-117475000D03*
X61468000Y-117475000D03*
X64008000Y-117475000D03*
X66548000Y-117475000D03*
X69088000Y-117475000D03*
X71628000Y-117475000D03*
X74168000Y-117475000D03*
X79248000Y-117475000D03*
X81788000Y-117475000D03*
X84328000Y-117475000D03*
X86868000Y-117475000D03*
X89408000Y-117475000D03*
X91948000Y-117475000D03*
X47244000Y-69215000D03*
X49784000Y-69215000D03*
X52324000Y-69215000D03*
X54864000Y-69215000D03*
X57404000Y-69215000D03*
X59944000Y-69215000D03*
X62484000Y-69215000D03*
X65024000Y-69215000D03*
X67564000Y-69215000D03*
X70104000Y-69215000D03*
X74168000Y-69215000D03*
X76708000Y-69215000D03*
X79248000Y-69215000D03*
X81788000Y-69215000D03*
X84328000Y-69215000D03*
X86868000Y-69215000D03*
X89408000Y-69215000D03*
X91948000Y-69215000D03*
D12*
X42418000Y-117475000D03*
X94488000Y-112395000D03*
X43688000Y-69215000D03*
X94488000Y-84455000D03*
D13*
X36068000Y-43815000D03*
D14*
X36068000Y-46355000D03*
X38608000Y-43815000D03*
X38608000Y-46355000D03*
X41148000Y-43815000D03*
X41148000Y-46355000D03*
X43688000Y-43815000D03*
X43688000Y-46355000D03*
X46228000Y-43815000D03*
X46228000Y-46355000D03*
X48768000Y-43815000D03*
X48768000Y-46355000D03*
X51308000Y-43815000D03*
X51308000Y-46355000D03*
X53848000Y-43815000D03*
X53848000Y-46355000D03*
D13*
X62738000Y-43815000D03*
D14*
X62738000Y-46355000D03*
X65278000Y-43815000D03*
X65278000Y-46355000D03*
X67818000Y-43815000D03*
X67818000Y-46355000D03*
X70358000Y-43815000D03*
X70358000Y-46355000D03*
X72898000Y-43815000D03*
X72898000Y-46355000D03*
X75438000Y-43815000D03*
X75438000Y-46355000D03*
X77978000Y-43815000D03*
X77978000Y-46355000D03*
X80518000Y-43815000D03*
X80518000Y-46355000D03*
D13*
X53848000Y-142875000D03*
D14*
X53848000Y-140335000D03*
X51308000Y-142875000D03*
X51308000Y-140335000D03*
X48768000Y-142875000D03*
X48768000Y-140335000D03*
X46228000Y-142875000D03*
X46228000Y-140335000D03*
X43688000Y-142875000D03*
X43688000Y-140335000D03*
X41148000Y-142875000D03*
X41148000Y-140335000D03*
X38608000Y-142875000D03*
X38608000Y-140335000D03*
X36068000Y-142875000D03*
X36068000Y-140335000D03*
D15*
X40258000Y-92710000D03*
X40258000Y-93980000D03*
X40258000Y-95250000D03*
X40258000Y-96520000D03*
X40258000Y-97790000D03*
X40258000Y-99060000D03*
X40258000Y-100330000D03*
X40258000Y-101600000D03*
X40258000Y-102870000D03*
X40258000Y-104140000D03*
X49658000Y-104140000D03*
X49658000Y-102870000D03*
X49658000Y-101600000D03*
X49658000Y-100330000D03*
X49658000Y-99060000D03*
X49658000Y-97790000D03*
X49658000Y-96520000D03*
X49658000Y-95250000D03*
X49658000Y-93980000D03*
X49658000Y-92710000D03*
D16*
X54958000Y-83820000D03*
X54958000Y-85090000D03*
X54958000Y-86360000D03*
X54958000Y-87630000D03*
X60358000Y-87630000D03*
X60358000Y-86360000D03*
X60358000Y-85090000D03*
X60358000Y-83820000D03*
D13*
X80518000Y-142875000D03*
D14*
X80518000Y-140335000D03*
X77978000Y-142875000D03*
X77978000Y-140335000D03*
X75438000Y-142875000D03*
X75438000Y-140335000D03*
X72898000Y-142875000D03*
X72898000Y-140335000D03*
X70358000Y-142875000D03*
X70358000Y-140335000D03*
X67818000Y-142875000D03*
X67818000Y-140335000D03*
X65278000Y-142875000D03*
X65278000Y-140335000D03*
X62738000Y-142875000D03*
X62738000Y-140335000D03*
D17*
X77343000Y-122935000D03*
X76073000Y-122935000D03*
X74803000Y-122935000D03*
X73533000Y-122935000D03*
X72263000Y-122935000D03*
X70993000Y-122935000D03*
X69723000Y-122935000D03*
X68453000Y-122935000D03*
X67183000Y-122935000D03*
X65913000Y-122935000D03*
X64643000Y-122935000D03*
X63373000Y-122935000D03*
X63373000Y-132335000D03*
X64643000Y-132335000D03*
X65913000Y-132335000D03*
X67183000Y-132335000D03*
X68453000Y-132335000D03*
X69723000Y-132335000D03*
X70993000Y-132335000D03*
X72263000Y-132335000D03*
X73533000Y-132335000D03*
X74803000Y-132335000D03*
X76073000Y-132335000D03*
X77343000Y-132335000D03*
D16*
X42258000Y-77470000D03*
X42258000Y-78740000D03*
X42258000Y-80010000D03*
X42258000Y-81280000D03*
X47658000Y-81280000D03*
X47658000Y-80010000D03*
X47658000Y-78740000D03*
X47658000Y-77470000D03*
D18*
X56768000Y-92710000D03*
X56768000Y-93980000D03*
X56768000Y-95250000D03*
X56768000Y-96520000D03*
X56768000Y-97790000D03*
X56768000Y-99060000D03*
X56768000Y-100330000D03*
X56768000Y-101600000D03*
X56768000Y-102870000D03*
X56768000Y-104140000D03*
X56768000Y-105410000D03*
X56768000Y-106680000D03*
X66168000Y-106680000D03*
X66168000Y-105410000D03*
X66168000Y-104140000D03*
X66168000Y-102870000D03*
X66168000Y-101600000D03*
X66168000Y-100330000D03*
X66168000Y-99060000D03*
X66168000Y-97790000D03*
X66168000Y-96520000D03*
X66168000Y-95250000D03*
X66168000Y-93980000D03*
X66168000Y-92710000D03*
D17*
X51943000Y-54355000D03*
X50673000Y-54355000D03*
X49403000Y-54355000D03*
X48133000Y-54355000D03*
X46863000Y-54355000D03*
X45593000Y-54355000D03*
X44323000Y-54355000D03*
X43053000Y-54355000D03*
X41783000Y-54355000D03*
X40513000Y-54355000D03*
X39243000Y-54355000D03*
X37973000Y-54355000D03*
X37973000Y-63755000D03*
X39243000Y-63755000D03*
X40513000Y-63755000D03*
X41783000Y-63755000D03*
X43053000Y-63755000D03*
X44323000Y-63755000D03*
X45593000Y-63755000D03*
X46863000Y-63755000D03*
X48133000Y-63755000D03*
X49403000Y-63755000D03*
X50673000Y-63755000D03*
X51943000Y-63755000D03*
X78613000Y-54355000D03*
X77343000Y-54355000D03*
X76073000Y-54355000D03*
X74803000Y-54355000D03*
X73533000Y-54355000D03*
X72263000Y-54355000D03*
X70993000Y-54355000D03*
X69723000Y-54355000D03*
X68453000Y-54355000D03*
X67183000Y-54355000D03*
X65913000Y-54355000D03*
X64643000Y-54355000D03*
X64643000Y-63755000D03*
X65913000Y-63755000D03*
X67183000Y-63755000D03*
X68453000Y-63755000D03*
X69723000Y-63755000D03*
X70993000Y-63755000D03*
X72263000Y-63755000D03*
X73533000Y-63755000D03*
X74803000Y-63755000D03*
X76073000Y-63755000D03*
X77343000Y-63755000D03*
X78613000Y-63755000D03*
X51943000Y-122935000D03*
X50673000Y-122935000D03*
X49403000Y-122935000D03*
X48133000Y-122935000D03*
X46863000Y-122935000D03*
X45593000Y-122935000D03*
X44323000Y-122935000D03*
X43053000Y-122935000D03*
X41783000Y-122935000D03*
X40513000Y-122935000D03*
X39243000Y-122935000D03*
X37973000Y-122935000D03*
X37973000Y-132335000D03*
X39243000Y-132335000D03*
X40513000Y-132335000D03*
X41783000Y-132335000D03*
X43053000Y-132335000D03*
X44323000Y-132335000D03*
X45593000Y-132335000D03*
X46863000Y-132335000D03*
X48133000Y-132335000D03*
X49403000Y-132335000D03*
X50673000Y-132335000D03*
X51943000Y-132335000D03*
D13*
X32258000Y-103505000D03*
D14*
X34798000Y-103505000D03*
X32258000Y-100965000D03*
X34798000Y-100965000D03*
X32258000Y-98425000D03*
X34798000Y-98425000D03*
X32258000Y-95885000D03*
X34798000Y-95885000D03*
X32258000Y-93345000D03*
X34798000Y-93345000D03*
D13*
X116078000Y-43815000D03*
D14*
X113538000Y-43815000D03*
X116078000Y-46355000D03*
X113538000Y-46355000D03*
X116078000Y-48895000D03*
X113538000Y-48895000D03*
X116078000Y-51435000D03*
X113538000Y-51435000D03*
X116078000Y-53975000D03*
X113538000Y-53975000D03*
X116078000Y-56515000D03*
X113538000Y-56515000D03*
X116078000Y-59055000D03*
X113538000Y-59055000D03*
X116078000Y-61595000D03*
X113538000Y-61595000D03*
D13*
X116078000Y-70485000D03*
D14*
X113538000Y-70485000D03*
X116078000Y-73025000D03*
X113538000Y-73025000D03*
X116078000Y-75565000D03*
X113538000Y-75565000D03*
X116078000Y-78105000D03*
X113538000Y-78105000D03*
X116078000Y-80645000D03*
X113538000Y-80645000D03*
X116078000Y-83185000D03*
X113538000Y-83185000D03*
X116078000Y-85725000D03*
X113538000Y-85725000D03*
X116078000Y-88265000D03*
X113538000Y-88265000D03*
D13*
X116078000Y-97155000D03*
D14*
X113538000Y-97155000D03*
X116078000Y-99695000D03*
X113538000Y-99695000D03*
X116078000Y-102235000D03*
X113538000Y-102235000D03*
X116078000Y-104775000D03*
X113538000Y-104775000D03*
X116078000Y-107315000D03*
X113538000Y-107315000D03*
X116078000Y-109855000D03*
X113538000Y-109855000D03*
X116078000Y-112395000D03*
X113538000Y-112395000D03*
X116078000Y-114935000D03*
X113538000Y-114935000D03*
D13*
X116078000Y-123825000D03*
D14*
X113538000Y-123825000D03*
X116078000Y-126365000D03*
X113538000Y-126365000D03*
X116078000Y-128905000D03*
X113538000Y-128905000D03*
X116078000Y-131445000D03*
X113538000Y-131445000D03*
X116078000Y-133985000D03*
X113538000Y-133985000D03*
X116078000Y-136525000D03*
X113538000Y-136525000D03*
X116078000Y-139065000D03*
X113538000Y-139065000D03*
X116078000Y-141605000D03*
X113538000Y-141605000D03*
D17*
X106553000Y-48005000D03*
X105283000Y-48005000D03*
X104013000Y-48005000D03*
X102743000Y-48005000D03*
X101473000Y-48005000D03*
X100203000Y-48005000D03*
X98933000Y-48005000D03*
X97663000Y-48005000D03*
X96393000Y-48005000D03*
X95123000Y-48005000D03*
X93853000Y-48005000D03*
X92583000Y-48005000D03*
X92583000Y-57405000D03*
X93853000Y-57405000D03*
X95123000Y-57405000D03*
X96393000Y-57405000D03*
X97663000Y-57405000D03*
X98933000Y-57405000D03*
X100203000Y-57405000D03*
X101473000Y-57405000D03*
X102743000Y-57405000D03*
X104013000Y-57405000D03*
X105283000Y-57405000D03*
X106553000Y-57405000D03*
X88773000Y-77215000D03*
X87503000Y-77215000D03*
X86233000Y-77215000D03*
X84963000Y-77215000D03*
X83693000Y-77215000D03*
X82423000Y-77215000D03*
X81153000Y-77215000D03*
X79883000Y-77215000D03*
X78613000Y-77215000D03*
X77343000Y-77215000D03*
X76073000Y-77215000D03*
X74803000Y-77215000D03*
X74803000Y-86615000D03*
X76073000Y-86615000D03*
X77343000Y-86615000D03*
X78613000Y-86615000D03*
X79883000Y-86615000D03*
X81153000Y-86615000D03*
X82423000Y-86615000D03*
X83693000Y-86615000D03*
X84963000Y-86615000D03*
X86233000Y-86615000D03*
X87503000Y-86615000D03*
X88773000Y-86615000D03*
X88773000Y-98805000D03*
X87503000Y-98805000D03*
X86233000Y-98805000D03*
X84963000Y-98805000D03*
X83693000Y-98805000D03*
X82423000Y-98805000D03*
X81153000Y-98805000D03*
X79883000Y-98805000D03*
X78613000Y-98805000D03*
X77343000Y-98805000D03*
X76073000Y-98805000D03*
X74803000Y-98805000D03*
X74803000Y-108205000D03*
X76073000Y-108205000D03*
X77343000Y-108205000D03*
X78613000Y-108205000D03*
X79883000Y-108205000D03*
X81153000Y-108205000D03*
X82423000Y-108205000D03*
X83693000Y-108205000D03*
X84963000Y-108205000D03*
X86233000Y-108205000D03*
X87503000Y-108205000D03*
X88773000Y-108205000D03*
X106553000Y-128015000D03*
X105283000Y-128015000D03*
X104013000Y-128015000D03*
X102743000Y-128015000D03*
X101473000Y-128015000D03*
X100203000Y-128015000D03*
X98933000Y-128015000D03*
X97663000Y-128015000D03*
X96393000Y-128015000D03*
X95123000Y-128015000D03*
X93853000Y-128015000D03*
X92583000Y-128015000D03*
X92583000Y-137415000D03*
X93853000Y-137415000D03*
X95123000Y-137415000D03*
X96393000Y-137415000D03*
X97663000Y-137415000D03*
X98933000Y-137415000D03*
X100203000Y-137415000D03*
X101473000Y-137415000D03*
X102743000Y-137415000D03*
X104013000Y-137415000D03*
X105283000Y-137415000D03*
X106553000Y-137415000D03*
D19*
X34277300Y-80645000D03*
X32778700Y-80645000D03*
D20*
X66228000Y-77873860D03*
X64328000Y-77873860D03*
X65278000Y-80876140D03*
D21*
X32428000Y-86995000D03*
X34628000Y-86995000D03*
X55288000Y-78105000D03*
X57488000Y-78105000D03*
D22*
X31528000Y-68880000D03*
X31528000Y-74630000D03*
X35528000Y-74630000D03*
X35528000Y-68880000D03*
M02*
