%FSLAX45Y45*%
G04 Gerber Fmt 4.5, Leading zero omitted, Abs format (unit mm)*
G04 Created by KiCad (PCBNEW 4.0.6) date 10/02/17 09:48:55*
%MOMM*%
%LPD*%
G01*
G04 APERTURE LIST*
%ADD10C,0.127000*%
%ADD11C,0.150000*%
%ADD12C,0.200000*%
%ADD13C,0.300000*%
G04 APERTURE END LIST*
D10*
D11*
X1500000Y-12500000D02*
X1500000Y-1500000D01*
X18500000Y-12500000D02*
X1500000Y-12500000D01*
X18500000Y-1500000D02*
X18500000Y-12500000D01*
X1500000Y-1500000D02*
X18500000Y-1500000D01*
D12*
X3130000Y-3280000D02*
X3170000Y-3320000D01*
X3170000Y-3280000D02*
X3130000Y-3320000D01*
X3130000Y-4780000D02*
X3170000Y-4820000D01*
X3170000Y-4780000D02*
X3130000Y-4820000D01*
X3130000Y-6280000D02*
X3170000Y-6320000D01*
X3170000Y-6280000D02*
X3130000Y-6320000D01*
X3130000Y-7780000D02*
X3170000Y-7820000D01*
X3170000Y-7780000D02*
X3130000Y-7820000D01*
X3130000Y-9280000D02*
X3170000Y-9320000D01*
X3170000Y-9280000D02*
X3130000Y-9320000D01*
X3130000Y-10780000D02*
X3170000Y-10820000D01*
X3170000Y-10780000D02*
X3130000Y-10820000D01*
X3330000Y-3180000D02*
X3370000Y-3220000D01*
X3370000Y-3180000D02*
X3330000Y-3220000D01*
X3330000Y-4680000D02*
X3370000Y-4720000D01*
X3370000Y-4680000D02*
X3330000Y-4720000D01*
X3330000Y-6180000D02*
X3370000Y-6220000D01*
X3370000Y-6180000D02*
X3330000Y-6220000D01*
X3330000Y-7680000D02*
X3370000Y-7720000D01*
X3370000Y-7680000D02*
X3330000Y-7720000D01*
X3330000Y-9180000D02*
X3370000Y-9220000D01*
X3370000Y-9180000D02*
X3330000Y-9220000D01*
X3330000Y-10680000D02*
X3370000Y-10720000D01*
X3370000Y-10680000D02*
X3330000Y-10720000D01*
X4630000Y-3280000D02*
X4670000Y-3320000D01*
X4670000Y-3280000D02*
X4630000Y-3320000D01*
X4630000Y-4780000D02*
X4670000Y-4820000D01*
X4670000Y-4780000D02*
X4630000Y-4820000D01*
X4630000Y-6280000D02*
X4670000Y-6320000D01*
X4670000Y-6280000D02*
X4630000Y-6320000D01*
X4630000Y-7780000D02*
X4670000Y-7820000D01*
X4670000Y-7780000D02*
X4630000Y-7820000D01*
X4630000Y-9280000D02*
X4670000Y-9320000D01*
X4670000Y-9280000D02*
X4630000Y-9320000D01*
X4630000Y-10780000D02*
X4670000Y-10820000D01*
X4670000Y-10780000D02*
X4630000Y-10820000D01*
X4830000Y-3180000D02*
X4870000Y-3220000D01*
X4870000Y-3180000D02*
X4830000Y-3220000D01*
X4830000Y-4680000D02*
X4870000Y-4720000D01*
X4870000Y-4680000D02*
X4830000Y-4720000D01*
X4830000Y-6180000D02*
X4870000Y-6220000D01*
X4870000Y-6180000D02*
X4830000Y-6220000D01*
X4830000Y-7680000D02*
X4870000Y-7720000D01*
X4870000Y-7680000D02*
X4830000Y-7720000D01*
X4830000Y-9180000D02*
X4870000Y-9220000D01*
X4870000Y-9180000D02*
X4830000Y-9220000D01*
X4830000Y-10680000D02*
X4870000Y-10720000D01*
X4870000Y-10680000D02*
X4830000Y-10720000D01*
X6130000Y-3280000D02*
X6170000Y-3320000D01*
X6170000Y-3280000D02*
X6130000Y-3320000D01*
X6130000Y-4780000D02*
X6170000Y-4820000D01*
X6170000Y-4780000D02*
X6130000Y-4820000D01*
X6130000Y-6280000D02*
X6170000Y-6320000D01*
X6170000Y-6280000D02*
X6130000Y-6320000D01*
X6130000Y-7780000D02*
X6170000Y-7820000D01*
X6170000Y-7780000D02*
X6130000Y-7820000D01*
X6130000Y-9280000D02*
X6170000Y-9320000D01*
X6170000Y-9280000D02*
X6130000Y-9320000D01*
X6130000Y-10780000D02*
X6170000Y-10820000D01*
X6170000Y-10780000D02*
X6130000Y-10820000D01*
X6330000Y-3180000D02*
X6370000Y-3220000D01*
X6370000Y-3180000D02*
X6330000Y-3220000D01*
X6330000Y-4680000D02*
X6370000Y-4720000D01*
X6370000Y-4680000D02*
X6330000Y-4720000D01*
X6330000Y-6180000D02*
X6370000Y-6220000D01*
X6370000Y-6180000D02*
X6330000Y-6220000D01*
X6330000Y-7680000D02*
X6370000Y-7720000D01*
X6370000Y-7680000D02*
X6330000Y-7720000D01*
X6330000Y-9180000D02*
X6370000Y-9220000D01*
X6370000Y-9180000D02*
X6330000Y-9220000D01*
X6330000Y-10680000D02*
X6370000Y-10720000D01*
X6370000Y-10680000D02*
X6330000Y-10720000D01*
X7630000Y-3280000D02*
X7670000Y-3320000D01*
X7670000Y-3280000D02*
X7630000Y-3320000D01*
X7630000Y-4780000D02*
X7670000Y-4820000D01*
X7670000Y-4780000D02*
X7630000Y-4820000D01*
X7630000Y-6280000D02*
X7670000Y-6320000D01*
X7670000Y-6280000D02*
X7630000Y-6320000D01*
X7630000Y-7780000D02*
X7670000Y-7820000D01*
X7670000Y-7780000D02*
X7630000Y-7820000D01*
X7630000Y-9280000D02*
X7670000Y-9320000D01*
X7670000Y-9280000D02*
X7630000Y-9320000D01*
X7630000Y-10780000D02*
X7670000Y-10820000D01*
X7670000Y-10780000D02*
X7630000Y-10820000D01*
X7830000Y-3180000D02*
X7870000Y-3220000D01*
X7870000Y-3180000D02*
X7830000Y-3220000D01*
X7830000Y-4680000D02*
X7870000Y-4720000D01*
X7870000Y-4680000D02*
X7830000Y-4720000D01*
X7830000Y-6180000D02*
X7870000Y-6220000D01*
X7870000Y-6180000D02*
X7830000Y-6220000D01*
X7830000Y-7680000D02*
X7870000Y-7720000D01*
X7870000Y-7680000D02*
X7830000Y-7720000D01*
X7830000Y-9180000D02*
X7870000Y-9220000D01*
X7870000Y-9180000D02*
X7830000Y-9220000D01*
X7830000Y-10680000D02*
X7870000Y-10720000D01*
X7870000Y-10680000D02*
X7830000Y-10720000D01*
X9130000Y-3280000D02*
X9170000Y-3320000D01*
X9170000Y-3280000D02*
X9130000Y-3320000D01*
X9130000Y-4780000D02*
X9170000Y-4820000D01*
X9170000Y-4780000D02*
X9130000Y-4820000D01*
X9130000Y-6280000D02*
X9170000Y-6320000D01*
X9170000Y-6280000D02*
X9130000Y-6320000D01*
X9130000Y-7780000D02*
X9170000Y-7820000D01*
X9170000Y-7780000D02*
X9130000Y-7820000D01*
X9130000Y-9280000D02*
X9170000Y-9320000D01*
X9170000Y-9280000D02*
X9130000Y-9320000D01*
X9130000Y-10780000D02*
X9170000Y-10820000D01*
X9170000Y-10780000D02*
X9130000Y-10820000D01*
X9330000Y-3180000D02*
X9370000Y-3220000D01*
X9370000Y-3180000D02*
X9330000Y-3220000D01*
X9330000Y-4680000D02*
X9370000Y-4720000D01*
X9370000Y-4680000D02*
X9330000Y-4720000D01*
X9330000Y-6180000D02*
X9370000Y-6220000D01*
X9370000Y-6180000D02*
X9330000Y-6220000D01*
X9330000Y-7680000D02*
X9370000Y-7720000D01*
X9370000Y-7680000D02*
X9330000Y-7720000D01*
X9330000Y-9180000D02*
X9370000Y-9220000D01*
X9370000Y-9180000D02*
X9330000Y-9220000D01*
X9330000Y-10680000D02*
X9370000Y-10720000D01*
X9370000Y-10680000D02*
X9330000Y-10720000D01*
X10630000Y-3280000D02*
X10670000Y-3320000D01*
X10670000Y-3280000D02*
X10630000Y-3320000D01*
X10630000Y-4780000D02*
X10670000Y-4820000D01*
X10670000Y-4780000D02*
X10630000Y-4820000D01*
X10630000Y-6280000D02*
X10670000Y-6320000D01*
X10670000Y-6280000D02*
X10630000Y-6320000D01*
X10630000Y-7780000D02*
X10670000Y-7820000D01*
X10670000Y-7780000D02*
X10630000Y-7820000D01*
X10630000Y-9280000D02*
X10670000Y-9320000D01*
X10670000Y-9280000D02*
X10630000Y-9320000D01*
X10630000Y-10780000D02*
X10670000Y-10820000D01*
X10670000Y-10780000D02*
X10630000Y-10820000D01*
X10830000Y-3180000D02*
X10870000Y-3220000D01*
X10870000Y-3180000D02*
X10830000Y-3220000D01*
X10830000Y-4680000D02*
X10870000Y-4720000D01*
X10870000Y-4680000D02*
X10830000Y-4720000D01*
X10830000Y-6180000D02*
X10870000Y-6220000D01*
X10870000Y-6180000D02*
X10830000Y-6220000D01*
X10830000Y-7680000D02*
X10870000Y-7720000D01*
X10870000Y-7680000D02*
X10830000Y-7720000D01*
X10830000Y-9180000D02*
X10870000Y-9220000D01*
X10870000Y-9180000D02*
X10830000Y-9220000D01*
X10830000Y-10680000D02*
X10870000Y-10720000D01*
X10870000Y-10680000D02*
X10830000Y-10720000D01*
X12130000Y-3280000D02*
X12170000Y-3320000D01*
X12170000Y-3280000D02*
X12130000Y-3320000D01*
X12130000Y-4780000D02*
X12170000Y-4820000D01*
X12170000Y-4780000D02*
X12130000Y-4820000D01*
X12130000Y-6280000D02*
X12170000Y-6320000D01*
X12170000Y-6280000D02*
X12130000Y-6320000D01*
X12130000Y-7780000D02*
X12170000Y-7820000D01*
X12170000Y-7780000D02*
X12130000Y-7820000D01*
X12130000Y-9280000D02*
X12170000Y-9320000D01*
X12170000Y-9280000D02*
X12130000Y-9320000D01*
X12130000Y-10780000D02*
X12170000Y-10820000D01*
X12170000Y-10780000D02*
X12130000Y-10820000D01*
X12330000Y-3180000D02*
X12370000Y-3220000D01*
X12370000Y-3180000D02*
X12330000Y-3220000D01*
X12330000Y-4680000D02*
X12370000Y-4720000D01*
X12370000Y-4680000D02*
X12330000Y-4720000D01*
X12330000Y-6180000D02*
X12370000Y-6220000D01*
X12370000Y-6180000D02*
X12330000Y-6220000D01*
X12330000Y-7680000D02*
X12370000Y-7720000D01*
X12370000Y-7680000D02*
X12330000Y-7720000D01*
X12330000Y-9180000D02*
X12370000Y-9220000D01*
X12370000Y-9180000D02*
X12330000Y-9220000D01*
X12330000Y-10680000D02*
X12370000Y-10720000D01*
X12370000Y-10680000D02*
X12330000Y-10720000D01*
X13630000Y-3280000D02*
X13670000Y-3320000D01*
X13670000Y-3280000D02*
X13630000Y-3320000D01*
X13630000Y-4780000D02*
X13670000Y-4820000D01*
X13670000Y-4780000D02*
X13630000Y-4820000D01*
X13630000Y-6280000D02*
X13670000Y-6320000D01*
X13670000Y-6280000D02*
X13630000Y-6320000D01*
X13630000Y-7780000D02*
X13670000Y-7820000D01*
X13670000Y-7780000D02*
X13630000Y-7820000D01*
X13630000Y-9280000D02*
X13670000Y-9320000D01*
X13670000Y-9280000D02*
X13630000Y-9320000D01*
X13630000Y-10780000D02*
X13670000Y-10820000D01*
X13670000Y-10780000D02*
X13630000Y-10820000D01*
X13830000Y-3180000D02*
X13870000Y-3220000D01*
X13870000Y-3180000D02*
X13830000Y-3220000D01*
X13830000Y-4680000D02*
X13870000Y-4720000D01*
X13870000Y-4680000D02*
X13830000Y-4720000D01*
X13830000Y-6180000D02*
X13870000Y-6220000D01*
X13870000Y-6180000D02*
X13830000Y-6220000D01*
X13830000Y-7680000D02*
X13870000Y-7720000D01*
X13870000Y-7680000D02*
X13830000Y-7720000D01*
X13830000Y-9180000D02*
X13870000Y-9220000D01*
X13870000Y-9180000D02*
X13830000Y-9220000D01*
X13830000Y-10680000D02*
X13870000Y-10720000D01*
X13870000Y-10680000D02*
X13830000Y-10720000D01*
X15130000Y-3280000D02*
X15170000Y-3320000D01*
X15170000Y-3280000D02*
X15130000Y-3320000D01*
X15130000Y-4780000D02*
X15170000Y-4820000D01*
X15170000Y-4780000D02*
X15130000Y-4820000D01*
X15130000Y-6280000D02*
X15170000Y-6320000D01*
X15170000Y-6280000D02*
X15130000Y-6320000D01*
X15130000Y-7780000D02*
X15170000Y-7820000D01*
X15170000Y-7780000D02*
X15130000Y-7820000D01*
X15130000Y-9280000D02*
X15170000Y-9320000D01*
X15170000Y-9280000D02*
X15130000Y-9320000D01*
X15130000Y-10780000D02*
X15170000Y-10820000D01*
X15170000Y-10780000D02*
X15130000Y-10820000D01*
X15330000Y-3180000D02*
X15370000Y-3220000D01*
X15370000Y-3180000D02*
X15330000Y-3220000D01*
X15330000Y-4680000D02*
X15370000Y-4720000D01*
X15370000Y-4680000D02*
X15330000Y-4720000D01*
X15330000Y-6180000D02*
X15370000Y-6220000D01*
X15370000Y-6180000D02*
X15330000Y-6220000D01*
X15330000Y-7680000D02*
X15370000Y-7720000D01*
X15370000Y-7680000D02*
X15330000Y-7720000D01*
X15330000Y-9180000D02*
X15370000Y-9220000D01*
X15370000Y-9180000D02*
X15330000Y-9220000D01*
X15330000Y-10680000D02*
X15370000Y-10720000D01*
X15370000Y-10680000D02*
X15330000Y-10720000D01*
X16630000Y-3280000D02*
X16670000Y-3320000D01*
X16670000Y-3280000D02*
X16630000Y-3320000D01*
X16630000Y-4780000D02*
X16670000Y-4820000D01*
X16670000Y-4780000D02*
X16630000Y-4820000D01*
X16630000Y-6280000D02*
X16670000Y-6320000D01*
X16670000Y-6280000D02*
X16630000Y-6320000D01*
X16630000Y-7780000D02*
X16670000Y-7820000D01*
X16670000Y-7780000D02*
X16630000Y-7820000D01*
X16630000Y-9280000D02*
X16670000Y-9320000D01*
X16670000Y-9280000D02*
X16630000Y-9320000D01*
X16630000Y-10780000D02*
X16670000Y-10820000D01*
X16670000Y-10780000D02*
X16630000Y-10820000D01*
X16830000Y-3180000D02*
X16870000Y-3220000D01*
X16870000Y-3180000D02*
X16830000Y-3220000D01*
X16830000Y-4680000D02*
X16870000Y-4720000D01*
X16870000Y-4680000D02*
X16830000Y-4720000D01*
X16830000Y-6180000D02*
X16870000Y-6220000D01*
X16870000Y-6180000D02*
X16830000Y-6220000D01*
X16830000Y-7680000D02*
X16870000Y-7720000D01*
X16870000Y-7680000D02*
X16830000Y-7720000D01*
X16830000Y-9180000D02*
X16870000Y-9220000D01*
X16870000Y-9180000D02*
X16830000Y-9220000D01*
X16830000Y-10680000D02*
X16870000Y-10720000D01*
X16870000Y-10680000D02*
X16830000Y-10720000D01*
X2152400Y-2000000D02*
G75*
G03X2152400Y-2000000I-152400J0D01*
G01*
X2152400Y-12000000D02*
G75*
G03X2152400Y-12000000I-152400J0D01*
G01*
X18152400Y-2000000D02*
G75*
G03X18152400Y-2000000I-152400J0D01*
G01*
X18152400Y-12000000D02*
G75*
G03X18152400Y-12000000I-152400J0D01*
G01*
D13*
X1763928Y-12973214D02*
X1763928Y-12673214D01*
X1835357Y-12673214D01*
X1878214Y-12687500D01*
X1906786Y-12716071D01*
X1921071Y-12744643D01*
X1935357Y-12801786D01*
X1935357Y-12844643D01*
X1921071Y-12901786D01*
X1906786Y-12930357D01*
X1878214Y-12958929D01*
X1835357Y-12973214D01*
X1763928Y-12973214D01*
X2063928Y-12973214D02*
X2063928Y-12773214D01*
X2063928Y-12830357D02*
X2078214Y-12801786D01*
X2092500Y-12787500D01*
X2121071Y-12773214D01*
X2149643Y-12773214D01*
X2249643Y-12973214D02*
X2249643Y-12773214D01*
X2249643Y-12673214D02*
X2235357Y-12687500D01*
X2249643Y-12701786D01*
X2263929Y-12687500D01*
X2249643Y-12673214D01*
X2249643Y-12701786D01*
X2435357Y-12973214D02*
X2406786Y-12958929D01*
X2392500Y-12930357D01*
X2392500Y-12673214D01*
X2592500Y-12973214D02*
X2563929Y-12958929D01*
X2549643Y-12930357D01*
X2549643Y-12673214D01*
X2935357Y-12973214D02*
X2935357Y-12673214D01*
X3035357Y-12887500D01*
X3135357Y-12673214D01*
X3135357Y-12973214D01*
X3406786Y-12973214D02*
X3406786Y-12816071D01*
X3392500Y-12787500D01*
X3363928Y-12773214D01*
X3306786Y-12773214D01*
X3278214Y-12787500D01*
X3406786Y-12958929D02*
X3378214Y-12973214D01*
X3306786Y-12973214D01*
X3278214Y-12958929D01*
X3263928Y-12930357D01*
X3263928Y-12901786D01*
X3278214Y-12873214D01*
X3306786Y-12858929D01*
X3378214Y-12858929D01*
X3406786Y-12844643D01*
X3549643Y-12773214D02*
X3549643Y-13073214D01*
X3549643Y-12787500D02*
X3578214Y-12773214D01*
X3635357Y-12773214D01*
X3663928Y-12787500D01*
X3678214Y-12801786D01*
X3692500Y-12830357D01*
X3692500Y-12916071D01*
X3678214Y-12944643D01*
X3663928Y-12958929D01*
X3635357Y-12973214D01*
X3578214Y-12973214D01*
X3549643Y-12958929D01*
X3821071Y-12944643D02*
X3835357Y-12958929D01*
X3821071Y-12973214D01*
X3806786Y-12958929D01*
X3821071Y-12944643D01*
X3821071Y-12973214D01*
X3821071Y-12787500D02*
X3835357Y-12801786D01*
X3821071Y-12816071D01*
X3806786Y-12801786D01*
X3821071Y-12787500D01*
X3821071Y-12816071D01*
X1452500Y-13447500D02*
X1492500Y-13487500D01*
X1492500Y-13447500D02*
X1452500Y-13487500D01*
X1821071Y-13303214D02*
X1849643Y-13303214D01*
X1878214Y-13317500D01*
X1892500Y-13331786D01*
X1906786Y-13360357D01*
X1921071Y-13417500D01*
X1921071Y-13488929D01*
X1906786Y-13546071D01*
X1892500Y-13574643D01*
X1878214Y-13588929D01*
X1849643Y-13603214D01*
X1821071Y-13603214D01*
X1792500Y-13588929D01*
X1778214Y-13574643D01*
X1763928Y-13546071D01*
X1749643Y-13488929D01*
X1749643Y-13417500D01*
X1763928Y-13360357D01*
X1778214Y-13331786D01*
X1792500Y-13317500D01*
X1821071Y-13303214D01*
X2049643Y-13574643D02*
X2063928Y-13588929D01*
X2049643Y-13603214D01*
X2035357Y-13588929D01*
X2049643Y-13574643D01*
X2049643Y-13603214D01*
X2321071Y-13403214D02*
X2321071Y-13603214D01*
X2249643Y-13288929D02*
X2178214Y-13503214D01*
X2363928Y-13503214D01*
X2535357Y-13303214D02*
X2563929Y-13303214D01*
X2592500Y-13317500D01*
X2606786Y-13331786D01*
X2621071Y-13360357D01*
X2635357Y-13417500D01*
X2635357Y-13488929D01*
X2621071Y-13546071D01*
X2606786Y-13574643D01*
X2592500Y-13588929D01*
X2563929Y-13603214D01*
X2535357Y-13603214D01*
X2506786Y-13588929D01*
X2492500Y-13574643D01*
X2478214Y-13546071D01*
X2463929Y-13488929D01*
X2463929Y-13417500D01*
X2478214Y-13360357D01*
X2492500Y-13331786D01*
X2506786Y-13317500D01*
X2535357Y-13303214D01*
X2763929Y-13603214D02*
X2763929Y-13403214D01*
X2763929Y-13431786D02*
X2778214Y-13417500D01*
X2806786Y-13403214D01*
X2849643Y-13403214D01*
X2878214Y-13417500D01*
X2892500Y-13446071D01*
X2892500Y-13603214D01*
X2892500Y-13446071D02*
X2906786Y-13417500D01*
X2935357Y-13403214D01*
X2978214Y-13403214D01*
X3006786Y-13417500D01*
X3021071Y-13446071D01*
X3021071Y-13603214D01*
X3163928Y-13603214D02*
X3163928Y-13403214D01*
X3163928Y-13431786D02*
X3178214Y-13417500D01*
X3206786Y-13403214D01*
X3249643Y-13403214D01*
X3278214Y-13417500D01*
X3292500Y-13446071D01*
X3292500Y-13603214D01*
X3292500Y-13446071D02*
X3306786Y-13417500D01*
X3335357Y-13403214D01*
X3378214Y-13403214D01*
X3406786Y-13417500D01*
X3421071Y-13446071D01*
X3421071Y-13603214D01*
X4006786Y-13288929D02*
X3749643Y-13674643D01*
X4392500Y-13303214D02*
X4421071Y-13303214D01*
X4449643Y-13317500D01*
X4463928Y-13331786D01*
X4478214Y-13360357D01*
X4492500Y-13417500D01*
X4492500Y-13488929D01*
X4478214Y-13546071D01*
X4463928Y-13574643D01*
X4449643Y-13588929D01*
X4421071Y-13603214D01*
X4392500Y-13603214D01*
X4363928Y-13588929D01*
X4349643Y-13574643D01*
X4335357Y-13546071D01*
X4321071Y-13488929D01*
X4321071Y-13417500D01*
X4335357Y-13360357D01*
X4349643Y-13331786D01*
X4363928Y-13317500D01*
X4392500Y-13303214D01*
X4621071Y-13574643D02*
X4635357Y-13588929D01*
X4621071Y-13603214D01*
X4606786Y-13588929D01*
X4621071Y-13574643D01*
X4621071Y-13603214D01*
X4821071Y-13303214D02*
X4849643Y-13303214D01*
X4878214Y-13317500D01*
X4892500Y-13331786D01*
X4906786Y-13360357D01*
X4921071Y-13417500D01*
X4921071Y-13488929D01*
X4906786Y-13546071D01*
X4892500Y-13574643D01*
X4878214Y-13588929D01*
X4849643Y-13603214D01*
X4821071Y-13603214D01*
X4792500Y-13588929D01*
X4778214Y-13574643D01*
X4763928Y-13546071D01*
X4749643Y-13488929D01*
X4749643Y-13417500D01*
X4763928Y-13360357D01*
X4778214Y-13331786D01*
X4792500Y-13317500D01*
X4821071Y-13303214D01*
X5206786Y-13603214D02*
X5035357Y-13603214D01*
X5121071Y-13603214D02*
X5121071Y-13303214D01*
X5092500Y-13346071D01*
X5063928Y-13374643D01*
X5035357Y-13388929D01*
X5463928Y-13303214D02*
X5406786Y-13303214D01*
X5378214Y-13317500D01*
X5363928Y-13331786D01*
X5335357Y-13374643D01*
X5321071Y-13431786D01*
X5321071Y-13546071D01*
X5335357Y-13574643D01*
X5349643Y-13588929D01*
X5378214Y-13603214D01*
X5435357Y-13603214D01*
X5463928Y-13588929D01*
X5478214Y-13574643D01*
X5492500Y-13546071D01*
X5492500Y-13474643D01*
X5478214Y-13446071D01*
X5463928Y-13431786D01*
X5435357Y-13417500D01*
X5378214Y-13417500D01*
X5349643Y-13431786D01*
X5335357Y-13446071D01*
X5321071Y-13474643D01*
X5606786Y-13303214D02*
X5606786Y-13360357D01*
X5721071Y-13303214D02*
X5721071Y-13360357D01*
X6163928Y-13717500D02*
X6149643Y-13703214D01*
X6121071Y-13660357D01*
X6106785Y-13631786D01*
X6092500Y-13588929D01*
X6078214Y-13517500D01*
X6078214Y-13460357D01*
X6092500Y-13388929D01*
X6106785Y-13346071D01*
X6121071Y-13317500D01*
X6149643Y-13274643D01*
X6163928Y-13260357D01*
X6435357Y-13603214D02*
X6263928Y-13603214D01*
X6349643Y-13603214D02*
X6349643Y-13303214D01*
X6321071Y-13346071D01*
X6292500Y-13374643D01*
X6263928Y-13388929D01*
X6549643Y-13331786D02*
X6563928Y-13317500D01*
X6592500Y-13303214D01*
X6663928Y-13303214D01*
X6692500Y-13317500D01*
X6706785Y-13331786D01*
X6721071Y-13360357D01*
X6721071Y-13388929D01*
X6706785Y-13431786D01*
X6535357Y-13603214D01*
X6721071Y-13603214D01*
X6906785Y-13303214D02*
X6935357Y-13303214D01*
X6963928Y-13317500D01*
X6978214Y-13331786D01*
X6992500Y-13360357D01*
X7006785Y-13417500D01*
X7006785Y-13488929D01*
X6992500Y-13546071D01*
X6978214Y-13574643D01*
X6963928Y-13588929D01*
X6935357Y-13603214D01*
X6906785Y-13603214D01*
X6878214Y-13588929D01*
X6863928Y-13574643D01*
X6849643Y-13546071D01*
X6835357Y-13488929D01*
X6835357Y-13417500D01*
X6849643Y-13360357D01*
X6863928Y-13331786D01*
X6878214Y-13317500D01*
X6906785Y-13303214D01*
X7363928Y-13603214D02*
X7363928Y-13303214D01*
X7492500Y-13603214D02*
X7492500Y-13446071D01*
X7478214Y-13417500D01*
X7449643Y-13403214D01*
X7406785Y-13403214D01*
X7378214Y-13417500D01*
X7363928Y-13431786D01*
X7678214Y-13603214D02*
X7649643Y-13588929D01*
X7635357Y-13574643D01*
X7621071Y-13546071D01*
X7621071Y-13460357D01*
X7635357Y-13431786D01*
X7649643Y-13417500D01*
X7678214Y-13403214D01*
X7721071Y-13403214D01*
X7749643Y-13417500D01*
X7763928Y-13431786D01*
X7778214Y-13460357D01*
X7778214Y-13546071D01*
X7763928Y-13574643D01*
X7749643Y-13588929D01*
X7721071Y-13603214D01*
X7678214Y-13603214D01*
X7949643Y-13603214D02*
X7921071Y-13588929D01*
X7906786Y-13560357D01*
X7906786Y-13303214D01*
X8178214Y-13588929D02*
X8149643Y-13603214D01*
X8092500Y-13603214D01*
X8063928Y-13588929D01*
X8049643Y-13560357D01*
X8049643Y-13446071D01*
X8063928Y-13417500D01*
X8092500Y-13403214D01*
X8149643Y-13403214D01*
X8178214Y-13417500D01*
X8192500Y-13446071D01*
X8192500Y-13474643D01*
X8049643Y-13503214D01*
X8306786Y-13588929D02*
X8335357Y-13603214D01*
X8392500Y-13603214D01*
X8421071Y-13588929D01*
X8435357Y-13560357D01*
X8435357Y-13546071D01*
X8421071Y-13517500D01*
X8392500Y-13503214D01*
X8349643Y-13503214D01*
X8321071Y-13488929D01*
X8306786Y-13460357D01*
X8306786Y-13446071D01*
X8321071Y-13417500D01*
X8349643Y-13403214D01*
X8392500Y-13403214D01*
X8421071Y-13417500D01*
X8535357Y-13717500D02*
X8549643Y-13703214D01*
X8578214Y-13660357D01*
X8592500Y-13631786D01*
X8606786Y-13588929D01*
X8621071Y-13517500D01*
X8621071Y-13460357D01*
X8606786Y-13388929D01*
X8592500Y-13346071D01*
X8578214Y-13317500D01*
X8549643Y-13274643D01*
X8535357Y-13260357D01*
X1492500Y-13863500D02*
G75*
G03X1492500Y-13863500I-152400J0D01*
G01*
X1735357Y-13699214D02*
X1921071Y-13699214D01*
X1821071Y-13813500D01*
X1863928Y-13813500D01*
X1892500Y-13827786D01*
X1906786Y-13842071D01*
X1921071Y-13870643D01*
X1921071Y-13942071D01*
X1906786Y-13970643D01*
X1892500Y-13984929D01*
X1863928Y-13999214D01*
X1778214Y-13999214D01*
X1749643Y-13984929D01*
X1735357Y-13970643D01*
X2049643Y-13970643D02*
X2063928Y-13984929D01*
X2049643Y-13999214D01*
X2035357Y-13984929D01*
X2049643Y-13970643D01*
X2049643Y-13999214D01*
X2249643Y-13699214D02*
X2278214Y-13699214D01*
X2306786Y-13713500D01*
X2321071Y-13727786D01*
X2335357Y-13756357D01*
X2349643Y-13813500D01*
X2349643Y-13884929D01*
X2335357Y-13942071D01*
X2321071Y-13970643D01*
X2306786Y-13984929D01*
X2278214Y-13999214D01*
X2249643Y-13999214D01*
X2221071Y-13984929D01*
X2206786Y-13970643D01*
X2192500Y-13942071D01*
X2178214Y-13884929D01*
X2178214Y-13813500D01*
X2192500Y-13756357D01*
X2206786Y-13727786D01*
X2221071Y-13713500D01*
X2249643Y-13699214D01*
X2621071Y-13699214D02*
X2478214Y-13699214D01*
X2463929Y-13842071D01*
X2478214Y-13827786D01*
X2506786Y-13813500D01*
X2578214Y-13813500D01*
X2606786Y-13827786D01*
X2621071Y-13842071D01*
X2635357Y-13870643D01*
X2635357Y-13942071D01*
X2621071Y-13970643D01*
X2606786Y-13984929D01*
X2578214Y-13999214D01*
X2506786Y-13999214D01*
X2478214Y-13984929D01*
X2463929Y-13970643D01*
X2763929Y-13999214D02*
X2763929Y-13799214D01*
X2763929Y-13827786D02*
X2778214Y-13813500D01*
X2806786Y-13799214D01*
X2849643Y-13799214D01*
X2878214Y-13813500D01*
X2892500Y-13842071D01*
X2892500Y-13999214D01*
X2892500Y-13842071D02*
X2906786Y-13813500D01*
X2935357Y-13799214D01*
X2978214Y-13799214D01*
X3006786Y-13813500D01*
X3021071Y-13842071D01*
X3021071Y-13999214D01*
X3163928Y-13999214D02*
X3163928Y-13799214D01*
X3163928Y-13827786D02*
X3178214Y-13813500D01*
X3206786Y-13799214D01*
X3249643Y-13799214D01*
X3278214Y-13813500D01*
X3292500Y-13842071D01*
X3292500Y-13999214D01*
X3292500Y-13842071D02*
X3306786Y-13813500D01*
X3335357Y-13799214D01*
X3378214Y-13799214D01*
X3406786Y-13813500D01*
X3421071Y-13842071D01*
X3421071Y-13999214D01*
X4006786Y-13684929D02*
X3749643Y-14070643D01*
X4392500Y-13699214D02*
X4421071Y-13699214D01*
X4449643Y-13713500D01*
X4463928Y-13727786D01*
X4478214Y-13756357D01*
X4492500Y-13813500D01*
X4492500Y-13884929D01*
X4478214Y-13942071D01*
X4463928Y-13970643D01*
X4449643Y-13984929D01*
X4421071Y-13999214D01*
X4392500Y-13999214D01*
X4363928Y-13984929D01*
X4349643Y-13970643D01*
X4335357Y-13942071D01*
X4321071Y-13884929D01*
X4321071Y-13813500D01*
X4335357Y-13756357D01*
X4349643Y-13727786D01*
X4363928Y-13713500D01*
X4392500Y-13699214D01*
X4621071Y-13970643D02*
X4635357Y-13984929D01*
X4621071Y-13999214D01*
X4606786Y-13984929D01*
X4621071Y-13970643D01*
X4621071Y-13999214D01*
X4921071Y-13999214D02*
X4749643Y-13999214D01*
X4835357Y-13999214D02*
X4835357Y-13699214D01*
X4806786Y-13742071D01*
X4778214Y-13770643D01*
X4749643Y-13784929D01*
X5035357Y-13727786D02*
X5049643Y-13713500D01*
X5078214Y-13699214D01*
X5149643Y-13699214D01*
X5178214Y-13713500D01*
X5192500Y-13727786D01*
X5206786Y-13756357D01*
X5206786Y-13784929D01*
X5192500Y-13827786D01*
X5021071Y-13999214D01*
X5206786Y-13999214D01*
X5392500Y-13699214D02*
X5421071Y-13699214D01*
X5449643Y-13713500D01*
X5463928Y-13727786D01*
X5478214Y-13756357D01*
X5492500Y-13813500D01*
X5492500Y-13884929D01*
X5478214Y-13942071D01*
X5463928Y-13970643D01*
X5449643Y-13984929D01*
X5421071Y-13999214D01*
X5392500Y-13999214D01*
X5363928Y-13984929D01*
X5349643Y-13970643D01*
X5335357Y-13942071D01*
X5321071Y-13884929D01*
X5321071Y-13813500D01*
X5335357Y-13756357D01*
X5349643Y-13727786D01*
X5363928Y-13713500D01*
X5392500Y-13699214D01*
X5606786Y-13699214D02*
X5606786Y-13756357D01*
X5721071Y-13699214D02*
X5721071Y-13756357D01*
X6163928Y-14113500D02*
X6149643Y-14099214D01*
X6121071Y-14056357D01*
X6106785Y-14027786D01*
X6092500Y-13984929D01*
X6078214Y-13913500D01*
X6078214Y-13856357D01*
X6092500Y-13784929D01*
X6106785Y-13742071D01*
X6121071Y-13713500D01*
X6149643Y-13670643D01*
X6163928Y-13656357D01*
X6406785Y-13799214D02*
X6406785Y-13999214D01*
X6335357Y-13684929D02*
X6263928Y-13899214D01*
X6449643Y-13899214D01*
X6792500Y-13999214D02*
X6792500Y-13699214D01*
X6921071Y-13999214D02*
X6921071Y-13842071D01*
X6906785Y-13813500D01*
X6878214Y-13799214D01*
X6835357Y-13799214D01*
X6806785Y-13813500D01*
X6792500Y-13827786D01*
X7106785Y-13999214D02*
X7078214Y-13984929D01*
X7063928Y-13970643D01*
X7049643Y-13942071D01*
X7049643Y-13856357D01*
X7063928Y-13827786D01*
X7078214Y-13813500D01*
X7106785Y-13799214D01*
X7149643Y-13799214D01*
X7178214Y-13813500D01*
X7192500Y-13827786D01*
X7206785Y-13856357D01*
X7206785Y-13942071D01*
X7192500Y-13970643D01*
X7178214Y-13984929D01*
X7149643Y-13999214D01*
X7106785Y-13999214D01*
X7378214Y-13999214D02*
X7349643Y-13984929D01*
X7335357Y-13956357D01*
X7335357Y-13699214D01*
X7606786Y-13984929D02*
X7578214Y-13999214D01*
X7521071Y-13999214D01*
X7492500Y-13984929D01*
X7478214Y-13956357D01*
X7478214Y-13842071D01*
X7492500Y-13813500D01*
X7521071Y-13799214D01*
X7578214Y-13799214D01*
X7606786Y-13813500D01*
X7621071Y-13842071D01*
X7621071Y-13870643D01*
X7478214Y-13899214D01*
X7735357Y-13984929D02*
X7763928Y-13999214D01*
X7821071Y-13999214D01*
X7849643Y-13984929D01*
X7863928Y-13956357D01*
X7863928Y-13942071D01*
X7849643Y-13913500D01*
X7821071Y-13899214D01*
X7778214Y-13899214D01*
X7749643Y-13884929D01*
X7735357Y-13856357D01*
X7735357Y-13842071D01*
X7749643Y-13813500D01*
X7778214Y-13799214D01*
X7821071Y-13799214D01*
X7849643Y-13813500D01*
X7963928Y-14113500D02*
X7978214Y-14099214D01*
X8006786Y-14056357D01*
X8021071Y-14027786D01*
X8035357Y-13984929D01*
X8049643Y-13913500D01*
X8049643Y-13856357D01*
X8035357Y-13784929D01*
X8021071Y-13742071D01*
X8006786Y-13713500D01*
X7978214Y-13670643D01*
X7963928Y-13656357D01*
M02*
