G04 #@! TF.FileFunction,Copper,L2,Bot,Signal*
%FSLAX46Y46*%
G04 Gerber Fmt 4.6, Leading zero omitted, Abs format (unit mm)*
G04 Created by KiCad (PCBNEW 4.0.6) date 09/25/17 22:32:02*
%MOMM*%
%LPD*%
G01*
G04 APERTURE LIST*
%ADD10C,0.100000*%
%ADD11C,4.064000*%
%ADD12C,0.600000*%
G04 APERTURE END LIST*
D10*
D11*
X20000000Y-20000000D03*
X20000000Y-120000000D03*
X180000000Y-20000000D03*
X180000000Y-120000000D03*
D12*
X31500000Y-33000000D03*
X33500000Y-32000000D03*
X31500000Y-48000000D03*
X33500000Y-47000000D03*
X31500000Y-63000000D03*
X33500000Y-62000000D03*
X31500000Y-78000000D03*
X33500000Y-77000000D03*
X31500000Y-93000000D03*
X33500000Y-92000000D03*
X31500000Y-108000000D03*
X33500000Y-107000000D03*
X46500000Y-33000000D03*
X48500000Y-32000000D03*
X46500000Y-48000000D03*
X48500000Y-47000000D03*
X46500000Y-63000000D03*
X48500000Y-62000000D03*
X46500000Y-78000000D03*
X48500000Y-77000000D03*
X46500000Y-93000000D03*
X48500000Y-92000000D03*
X46500000Y-108000000D03*
X48500000Y-107000000D03*
X61500000Y-33000000D03*
X63500000Y-32000000D03*
X61500000Y-48000000D03*
X63500000Y-47000000D03*
X61500000Y-63000000D03*
X63500000Y-62000000D03*
X61500000Y-78000000D03*
X63500000Y-77000000D03*
X61500000Y-93000000D03*
X63500000Y-92000000D03*
X61500000Y-108000000D03*
X63500000Y-107000000D03*
X76500000Y-33000000D03*
X78500000Y-32000000D03*
X76500000Y-48000000D03*
X78500000Y-47000000D03*
X76500000Y-63000000D03*
X78500000Y-62000000D03*
X76500000Y-78000000D03*
X78500000Y-77000000D03*
X76500000Y-93000000D03*
X78500000Y-92000000D03*
X76500000Y-108000000D03*
X78500000Y-107000000D03*
X91500000Y-33000000D03*
X93500000Y-32000000D03*
X91500000Y-48000000D03*
X93500000Y-47000000D03*
X91500000Y-63000000D03*
X93500000Y-62000000D03*
X91500000Y-78000000D03*
X93500000Y-77000000D03*
X91500000Y-93000000D03*
X93500000Y-92000000D03*
X91500000Y-108000000D03*
X93500000Y-107000000D03*
X106500000Y-33000000D03*
X108500000Y-32000000D03*
X106500000Y-48000000D03*
X108500000Y-47000000D03*
X106500000Y-63000000D03*
X108500000Y-62000000D03*
X106500000Y-78000000D03*
X108500000Y-77000000D03*
X106500000Y-93000000D03*
X108500000Y-92000000D03*
X106500000Y-108000000D03*
X108500000Y-107000000D03*
X121500000Y-33000000D03*
X123500000Y-32000000D03*
X121500000Y-48000000D03*
X123500000Y-47000000D03*
X121500000Y-63000000D03*
X123500000Y-62000000D03*
X121500000Y-78000000D03*
X123500000Y-77000000D03*
X121500000Y-93000000D03*
X123500000Y-92000000D03*
X121500000Y-108000000D03*
X123500000Y-107000000D03*
X136500000Y-33000000D03*
X138500000Y-32000000D03*
X136500000Y-48000000D03*
X138500000Y-47000000D03*
X136500000Y-63000000D03*
X138500000Y-62000000D03*
X136500000Y-78000000D03*
X138500000Y-77000000D03*
X136500000Y-93000000D03*
X138500000Y-92000000D03*
X136500000Y-108000000D03*
X138500000Y-107000000D03*
X151500000Y-33000000D03*
X153500000Y-32000000D03*
X151500000Y-48000000D03*
X153500000Y-47000000D03*
X151500000Y-63000000D03*
X153500000Y-62000000D03*
X153500000Y-77000000D03*
X151500000Y-78000000D03*
X151500000Y-93000000D03*
X153500000Y-92000000D03*
X151500000Y-108000000D03*
X153500000Y-107000000D03*
X166500000Y-33000000D03*
X168500000Y-32000000D03*
X166500000Y-48000000D03*
X168500000Y-47000000D03*
X166500000Y-63000000D03*
X168500000Y-62000000D03*
X166500000Y-78000000D03*
X168500000Y-77000000D03*
X166500000Y-93000000D03*
X168500000Y-92000000D03*
X166500000Y-108000000D03*
X168500000Y-107000000D03*
M02*
