M48
;DRILL file {KiCad 4.0.6} date 10/02/17 09:48:53
;FORMAT={-:-/ absolute / metric / decimal}
FMAT,2
METRIC,TZ
T1C0.400
T2C3.048
%
G90
G05
M71
T1
X31.5Y-33.
X31.5Y-48.
X31.5Y-63.
X31.5Y-78.
X31.5Y-93.
X31.5Y-108.
X33.5Y-32.
X33.5Y-47.
X33.5Y-62.
X33.5Y-77.
X33.5Y-92.
X33.5Y-107.
X46.5Y-33.
X46.5Y-48.
X46.5Y-63.
X46.5Y-78.
X46.5Y-93.
X46.5Y-108.
X48.5Y-32.
X48.5Y-47.
X48.5Y-62.
X48.5Y-77.
X48.5Y-92.
X48.5Y-107.
X61.5Y-33.
X61.5Y-48.
X61.5Y-63.
X61.5Y-78.
X61.5Y-93.
X61.5Y-108.
X63.5Y-32.
X63.5Y-47.
X63.5Y-62.
X63.5Y-77.
X63.5Y-92.
X63.5Y-107.
X76.5Y-33.
X76.5Y-48.
X76.5Y-63.
X76.5Y-78.
X76.5Y-93.
X76.5Y-108.
X78.5Y-32.
X78.5Y-47.
X78.5Y-62.
X78.5Y-77.
X78.5Y-92.
X78.5Y-107.
X91.5Y-33.
X91.5Y-48.
X91.5Y-63.
X91.5Y-78.
X91.5Y-93.
X91.5Y-108.
X93.5Y-32.
X93.5Y-47.
X93.5Y-62.
X93.5Y-77.
X93.5Y-92.
X93.5Y-107.
X106.5Y-33.
X106.5Y-48.
X106.5Y-63.
X106.5Y-78.
X106.5Y-93.
X106.5Y-108.
X108.5Y-32.
X108.5Y-47.
X108.5Y-62.
X108.5Y-77.
X108.5Y-92.
X108.5Y-107.
X121.5Y-33.
X121.5Y-48.
X121.5Y-63.
X121.5Y-78.
X121.5Y-93.
X121.5Y-108.
X123.5Y-32.
X123.5Y-47.
X123.5Y-62.
X123.5Y-77.
X123.5Y-92.
X123.5Y-107.
X136.5Y-33.
X136.5Y-48.
X136.5Y-63.
X136.5Y-78.
X136.5Y-93.
X136.5Y-108.
X138.5Y-32.
X138.5Y-47.
X138.5Y-62.
X138.5Y-77.
X138.5Y-92.
X138.5Y-107.
X151.5Y-33.
X151.5Y-48.
X151.5Y-63.
X151.5Y-78.
X151.5Y-93.
X151.5Y-108.
X153.5Y-32.
X153.5Y-47.
X153.5Y-62.
X153.5Y-77.
X153.5Y-92.
X153.5Y-107.
X166.5Y-33.
X166.5Y-48.
X166.5Y-63.
X166.5Y-78.
X166.5Y-93.
X166.5Y-108.
X168.5Y-32.
X168.5Y-47.
X168.5Y-62.
X168.5Y-77.
X168.5Y-92.
X168.5Y-107.
T2
X20.Y-20.
X20.Y-120.
X180.Y-20.
X180.Y-120.
T0
M30
