G04 #@! TF.FileFunction,Legend,Bot*
%FSLAX46Y46*%
G04 Gerber Fmt 4.6, Leading zero omitted, Abs format (unit mm)*
G04 Created by KiCad (PCBNEW 4.0.6) date 10/02/17 09:49:40*
%MOMM*%
%LPD*%
G01*
G04 APERTURE LIST*
%ADD10C,0.100000*%
%ADD11C,0.300000*%
G04 APERTURE END LIST*
D10*
D11*
X174142857Y-19892857D02*
X173928571Y-19964286D01*
X173857143Y-20035714D01*
X173785714Y-20178571D01*
X173785714Y-20392857D01*
X173857143Y-20535714D01*
X173928571Y-20607143D01*
X174071429Y-20678571D01*
X174642857Y-20678571D01*
X174642857Y-19178571D01*
X174142857Y-19178571D01*
X174000000Y-19250000D01*
X173928571Y-19321429D01*
X173857143Y-19464286D01*
X173857143Y-19607143D01*
X173928571Y-19750000D01*
X174000000Y-19821429D01*
X174142857Y-19892857D01*
X174642857Y-19892857D01*
X173142857Y-20678571D02*
X173142857Y-19678571D01*
X173142857Y-19178571D02*
X173214286Y-19250000D01*
X173142857Y-19321429D01*
X173071429Y-19250000D01*
X173142857Y-19178571D01*
X173142857Y-19321429D01*
X172214285Y-20678571D02*
X172357143Y-20607143D01*
X172428571Y-20535714D01*
X172500000Y-20392857D01*
X172500000Y-19964286D01*
X172428571Y-19821429D01*
X172357143Y-19750000D01*
X172214285Y-19678571D01*
X172000000Y-19678571D01*
X171857143Y-19750000D01*
X171785714Y-19821429D01*
X171714285Y-19964286D01*
X171714285Y-20392857D01*
X171785714Y-20535714D01*
X171857143Y-20607143D01*
X172000000Y-20678571D01*
X172214285Y-20678571D01*
X169428571Y-19892857D02*
X169214285Y-19964286D01*
X169142857Y-20035714D01*
X169071428Y-20178571D01*
X169071428Y-20392857D01*
X169142857Y-20535714D01*
X169214285Y-20607143D01*
X169357143Y-20678571D01*
X169928571Y-20678571D01*
X169928571Y-19178571D01*
X169428571Y-19178571D01*
X169285714Y-19250000D01*
X169214285Y-19321429D01*
X169142857Y-19464286D01*
X169142857Y-19607143D01*
X169214285Y-19750000D01*
X169285714Y-19821429D01*
X169428571Y-19892857D01*
X169928571Y-19892857D01*
X167785714Y-20678571D02*
X167785714Y-19892857D01*
X167857143Y-19750000D01*
X168000000Y-19678571D01*
X168285714Y-19678571D01*
X168428571Y-19750000D01*
X167785714Y-20607143D02*
X167928571Y-20678571D01*
X168285714Y-20678571D01*
X168428571Y-20607143D01*
X168500000Y-20464286D01*
X168500000Y-20321429D01*
X168428571Y-20178571D01*
X168285714Y-20107143D01*
X167928571Y-20107143D01*
X167785714Y-20035714D01*
X166857142Y-20678571D02*
X167000000Y-20607143D01*
X167071428Y-20464286D01*
X167071428Y-19178571D01*
X165642857Y-20678571D02*
X165642857Y-19892857D01*
X165714286Y-19750000D01*
X165857143Y-19678571D01*
X166142857Y-19678571D01*
X166285714Y-19750000D01*
X165642857Y-20607143D02*
X165785714Y-20678571D01*
X166142857Y-20678571D01*
X166285714Y-20607143D01*
X166357143Y-20464286D01*
X166357143Y-20321429D01*
X166285714Y-20178571D01*
X166142857Y-20107143D01*
X165785714Y-20107143D01*
X165642857Y-20035714D01*
X164928571Y-19678571D02*
X164928571Y-20678571D01*
X164928571Y-19821429D02*
X164857143Y-19750000D01*
X164714285Y-19678571D01*
X164500000Y-19678571D01*
X164357143Y-19750000D01*
X164285714Y-19892857D01*
X164285714Y-20678571D01*
X162928571Y-20607143D02*
X163071428Y-20678571D01*
X163357142Y-20678571D01*
X163500000Y-20607143D01*
X163571428Y-20535714D01*
X163642857Y-20392857D01*
X163642857Y-19964286D01*
X163571428Y-19821429D01*
X163500000Y-19750000D01*
X163357142Y-19678571D01*
X163071428Y-19678571D01*
X162928571Y-19750000D01*
X161714286Y-20607143D02*
X161857143Y-20678571D01*
X162142857Y-20678571D01*
X162285714Y-20607143D01*
X162357143Y-20464286D01*
X162357143Y-19892857D01*
X162285714Y-19750000D01*
X162142857Y-19678571D01*
X161857143Y-19678571D01*
X161714286Y-19750000D01*
X161642857Y-19892857D01*
X161642857Y-20035714D01*
X162357143Y-20178571D01*
X159857143Y-20678571D02*
X159857143Y-19178571D01*
X159500000Y-19178571D01*
X159285715Y-19250000D01*
X159142857Y-19392857D01*
X159071429Y-19535714D01*
X159000000Y-19821429D01*
X159000000Y-20035714D01*
X159071429Y-20321429D01*
X159142857Y-20464286D01*
X159285715Y-20607143D01*
X159500000Y-20678571D01*
X159857143Y-20678571D01*
X157785715Y-20607143D02*
X157928572Y-20678571D01*
X158214286Y-20678571D01*
X158357143Y-20607143D01*
X158428572Y-20464286D01*
X158428572Y-19892857D01*
X158357143Y-19750000D01*
X158214286Y-19678571D01*
X157928572Y-19678571D01*
X157785715Y-19750000D01*
X157714286Y-19892857D01*
X157714286Y-20035714D01*
X158428572Y-20178571D01*
X157285715Y-19678571D02*
X156714286Y-19678571D01*
X157071429Y-19178571D02*
X157071429Y-20464286D01*
X157000001Y-20607143D01*
X156857143Y-20678571D01*
X156714286Y-20678571D01*
X155642858Y-20607143D02*
X155785715Y-20678571D01*
X156071429Y-20678571D01*
X156214286Y-20607143D01*
X156285715Y-20464286D01*
X156285715Y-19892857D01*
X156214286Y-19750000D01*
X156071429Y-19678571D01*
X155785715Y-19678571D01*
X155642858Y-19750000D01*
X155571429Y-19892857D01*
X155571429Y-20035714D01*
X156285715Y-20178571D01*
X154285715Y-20607143D02*
X154428572Y-20678571D01*
X154714286Y-20678571D01*
X154857144Y-20607143D01*
X154928572Y-20535714D01*
X155000001Y-20392857D01*
X155000001Y-19964286D01*
X154928572Y-19821429D01*
X154857144Y-19750000D01*
X154714286Y-19678571D01*
X154428572Y-19678571D01*
X154285715Y-19750000D01*
X153857144Y-19678571D02*
X153285715Y-19678571D01*
X153642858Y-19178571D02*
X153642858Y-20464286D01*
X153571430Y-20607143D01*
X153428572Y-20678571D01*
X153285715Y-20678571D01*
X152571429Y-20678571D02*
X152714287Y-20607143D01*
X152785715Y-20535714D01*
X152857144Y-20392857D01*
X152857144Y-19964286D01*
X152785715Y-19821429D01*
X152714287Y-19750000D01*
X152571429Y-19678571D01*
X152357144Y-19678571D01*
X152214287Y-19750000D01*
X152142858Y-19821429D01*
X152071429Y-19964286D01*
X152071429Y-20392857D01*
X152142858Y-20535714D01*
X152214287Y-20607143D01*
X152357144Y-20678571D01*
X152571429Y-20678571D01*
X151428572Y-20678571D02*
X151428572Y-19678571D01*
X151428572Y-19964286D02*
X151357144Y-19821429D01*
X151285715Y-19750000D01*
X151142858Y-19678571D01*
X151000001Y-19678571D01*
X149428573Y-19678571D02*
X148357144Y-19678571D01*
X149000001Y-19035714D02*
X149428573Y-20964286D01*
X148500001Y-20321429D02*
X149571430Y-20321429D01*
X148928573Y-20964286D02*
X148500001Y-19035714D01*
X147142858Y-19178571D02*
X147857144Y-19178571D01*
X147928573Y-19892857D01*
X147857144Y-19821429D01*
X147714287Y-19750000D01*
X147357144Y-19750000D01*
X147214287Y-19821429D01*
X147142858Y-19892857D01*
X147071430Y-20035714D01*
X147071430Y-20392857D01*
X147142858Y-20535714D01*
X147214287Y-20607143D01*
X147357144Y-20678571D01*
X147714287Y-20678571D01*
X147857144Y-20607143D01*
X147928573Y-20535714D01*
X144428573Y-20678571D02*
X144928573Y-19964286D01*
X145285716Y-20678571D02*
X145285716Y-19178571D01*
X144714288Y-19178571D01*
X144571430Y-19250000D01*
X144500002Y-19321429D01*
X144428573Y-19464286D01*
X144428573Y-19678571D01*
X144500002Y-19821429D01*
X144571430Y-19892857D01*
X144714288Y-19964286D01*
X145285716Y-19964286D01*
X143214288Y-20607143D02*
X143357145Y-20678571D01*
X143642859Y-20678571D01*
X143785716Y-20607143D01*
X143857145Y-20464286D01*
X143857145Y-19892857D01*
X143785716Y-19750000D01*
X143642859Y-19678571D01*
X143357145Y-19678571D01*
X143214288Y-19750000D01*
X143142859Y-19892857D01*
X143142859Y-20035714D01*
X143857145Y-20178571D01*
X142642859Y-19678571D02*
X142285716Y-20678571D01*
X141928574Y-19678571D01*
X141357145Y-20535714D02*
X141285717Y-20607143D01*
X141357145Y-20678571D01*
X141428574Y-20607143D01*
X141357145Y-20535714D01*
X141357145Y-20678571D01*
X139571431Y-20250000D02*
X138857145Y-20250000D01*
X139714288Y-20678571D02*
X139214288Y-19178571D01*
X138714288Y-20678571D01*
X136642860Y-21250000D02*
X136714288Y-21178571D01*
X136857145Y-20964286D01*
X136928574Y-20821429D01*
X137000003Y-20607143D01*
X137071431Y-20250000D01*
X137071431Y-19964286D01*
X137000003Y-19607143D01*
X136928574Y-19392857D01*
X136857145Y-19250000D01*
X136714288Y-19035714D01*
X136642860Y-18964286D01*
X136142860Y-19321429D02*
X136071431Y-19250000D01*
X135928574Y-19178571D01*
X135571431Y-19178571D01*
X135428574Y-19250000D01*
X135357145Y-19321429D01*
X135285717Y-19464286D01*
X135285717Y-19607143D01*
X135357145Y-19821429D01*
X136214288Y-20678571D01*
X135285717Y-20678571D01*
X134357146Y-19178571D02*
X134214289Y-19178571D01*
X134071432Y-19250000D01*
X134000003Y-19321429D01*
X133928574Y-19464286D01*
X133857146Y-19750000D01*
X133857146Y-20107143D01*
X133928574Y-20392857D01*
X134000003Y-20535714D01*
X134071432Y-20607143D01*
X134214289Y-20678571D01*
X134357146Y-20678571D01*
X134500003Y-20607143D01*
X134571432Y-20535714D01*
X134642860Y-20392857D01*
X134714289Y-20107143D01*
X134714289Y-19750000D01*
X134642860Y-19464286D01*
X134571432Y-19321429D01*
X134500003Y-19250000D01*
X134357146Y-19178571D01*
X132428575Y-20678571D02*
X133285718Y-20678571D01*
X132857146Y-20678571D02*
X132857146Y-19178571D01*
X133000003Y-19392857D01*
X133142861Y-19535714D01*
X133285718Y-19607143D01*
X131928575Y-19178571D02*
X130928575Y-19178571D01*
X131571432Y-20678571D01*
X130357147Y-20107143D02*
X129214290Y-20107143D01*
X127714290Y-20678571D02*
X128571433Y-20678571D01*
X128142861Y-20678571D02*
X128142861Y-19178571D01*
X128285718Y-19392857D01*
X128428576Y-19535714D01*
X128571433Y-19607143D01*
X126785719Y-19178571D02*
X126642862Y-19178571D01*
X126500005Y-19250000D01*
X126428576Y-19321429D01*
X126357147Y-19464286D01*
X126285719Y-19750000D01*
X126285719Y-20107143D01*
X126357147Y-20392857D01*
X126428576Y-20535714D01*
X126500005Y-20607143D01*
X126642862Y-20678571D01*
X126785719Y-20678571D01*
X126928576Y-20607143D01*
X127000005Y-20535714D01*
X127071433Y-20392857D01*
X127142862Y-20107143D01*
X127142862Y-19750000D01*
X127071433Y-19464286D01*
X127000005Y-19321429D01*
X126928576Y-19250000D01*
X126785719Y-19178571D01*
X125642862Y-20107143D02*
X124500005Y-20107143D01*
X123500005Y-19178571D02*
X123357148Y-19178571D01*
X123214291Y-19250000D01*
X123142862Y-19321429D01*
X123071433Y-19464286D01*
X123000005Y-19750000D01*
X123000005Y-20107143D01*
X123071433Y-20392857D01*
X123142862Y-20535714D01*
X123214291Y-20607143D01*
X123357148Y-20678571D01*
X123500005Y-20678571D01*
X123642862Y-20607143D01*
X123714291Y-20535714D01*
X123785719Y-20392857D01*
X123857148Y-20107143D01*
X123857148Y-19750000D01*
X123785719Y-19464286D01*
X123714291Y-19321429D01*
X123642862Y-19250000D01*
X123500005Y-19178571D01*
X122428577Y-19321429D02*
X122357148Y-19250000D01*
X122214291Y-19178571D01*
X121857148Y-19178571D01*
X121714291Y-19250000D01*
X121642862Y-19321429D01*
X121571434Y-19464286D01*
X121571434Y-19607143D01*
X121642862Y-19821429D01*
X122500005Y-20678571D01*
X121571434Y-20678571D01*
X121071434Y-21250000D02*
X121000006Y-21178571D01*
X120857149Y-20964286D01*
X120785720Y-20821429D01*
X120714291Y-20607143D01*
X120642863Y-20250000D01*
X120642863Y-19964286D01*
X120714291Y-19607143D01*
X120785720Y-19392857D01*
X120857149Y-19250000D01*
X121000006Y-19035714D01*
X121071434Y-18964286D01*
X118428577Y-21178571D02*
X118428577Y-19035714D01*
X115714292Y-19892857D02*
X116214292Y-19892857D01*
X116214292Y-20678571D02*
X116214292Y-19178571D01*
X115500006Y-19178571D01*
X114714292Y-20678571D02*
X114857150Y-20607143D01*
X114928578Y-20464286D01*
X114928578Y-19178571D01*
X113500007Y-20678571D02*
X113500007Y-19892857D01*
X113571436Y-19750000D01*
X113714293Y-19678571D01*
X114000007Y-19678571D01*
X114142864Y-19750000D01*
X113500007Y-20607143D02*
X113642864Y-20678571D01*
X114000007Y-20678571D01*
X114142864Y-20607143D01*
X114214293Y-20464286D01*
X114214293Y-20321429D01*
X114142864Y-20178571D01*
X114000007Y-20107143D01*
X113642864Y-20107143D01*
X113500007Y-20035714D01*
X113000007Y-19678571D02*
X112428578Y-19678571D01*
X112785721Y-19178571D02*
X112785721Y-20464286D01*
X112714293Y-20607143D01*
X112571435Y-20678571D01*
X112428578Y-20678571D01*
X110785721Y-20678571D02*
X110785721Y-19178571D01*
X110214293Y-19178571D01*
X110071435Y-19250000D01*
X110000007Y-19321429D01*
X109928578Y-19464286D01*
X109928578Y-19678571D01*
X110000007Y-19821429D01*
X110071435Y-19892857D01*
X110214293Y-19964286D01*
X110785721Y-19964286D01*
X108642864Y-20678571D02*
X108642864Y-19892857D01*
X108714293Y-19750000D01*
X108857150Y-19678571D01*
X109142864Y-19678571D01*
X109285721Y-19750000D01*
X108642864Y-20607143D02*
X108785721Y-20678571D01*
X109142864Y-20678571D01*
X109285721Y-20607143D01*
X109357150Y-20464286D01*
X109357150Y-20321429D01*
X109285721Y-20178571D01*
X109142864Y-20107143D01*
X108785721Y-20107143D01*
X108642864Y-20035714D01*
X107928578Y-19678571D02*
X107928578Y-20678571D01*
X107928578Y-19821429D02*
X107857150Y-19750000D01*
X107714292Y-19678571D01*
X107500007Y-19678571D01*
X107357150Y-19750000D01*
X107285721Y-19892857D01*
X107285721Y-20678571D01*
X106000007Y-20607143D02*
X106142864Y-20678571D01*
X106428578Y-20678571D01*
X106571435Y-20607143D01*
X106642864Y-20464286D01*
X106642864Y-19892857D01*
X106571435Y-19750000D01*
X106428578Y-19678571D01*
X106142864Y-19678571D01*
X106000007Y-19750000D01*
X105928578Y-19892857D01*
X105928578Y-20035714D01*
X106642864Y-20178571D01*
X105071435Y-20678571D02*
X105214293Y-20607143D01*
X105285721Y-20464286D01*
X105285721Y-19178571D01*
X103357150Y-20678571D02*
X103357150Y-19178571D01*
X103000007Y-19178571D01*
X102785722Y-19250000D01*
X102642864Y-19392857D01*
X102571436Y-19535714D01*
X102500007Y-19821429D01*
X102500007Y-20035714D01*
X102571436Y-20321429D01*
X102642864Y-20464286D01*
X102785722Y-20607143D01*
X103000007Y-20678571D01*
X103357150Y-20678571D01*
X101285722Y-20607143D02*
X101428579Y-20678571D01*
X101714293Y-20678571D01*
X101857150Y-20607143D01*
X101928579Y-20464286D01*
X101928579Y-19892857D01*
X101857150Y-19750000D01*
X101714293Y-19678571D01*
X101428579Y-19678571D01*
X101285722Y-19750000D01*
X101214293Y-19892857D01*
X101214293Y-20035714D01*
X101928579Y-20178571D01*
X100785722Y-19678571D02*
X100214293Y-19678571D01*
X100571436Y-19178571D02*
X100571436Y-20464286D01*
X100500008Y-20607143D01*
X100357150Y-20678571D01*
X100214293Y-20678571D01*
X99142865Y-20607143D02*
X99285722Y-20678571D01*
X99571436Y-20678571D01*
X99714293Y-20607143D01*
X99785722Y-20464286D01*
X99785722Y-19892857D01*
X99714293Y-19750000D01*
X99571436Y-19678571D01*
X99285722Y-19678571D01*
X99142865Y-19750000D01*
X99071436Y-19892857D01*
X99071436Y-20035714D01*
X99785722Y-20178571D01*
X97785722Y-20607143D02*
X97928579Y-20678571D01*
X98214293Y-20678571D01*
X98357151Y-20607143D01*
X98428579Y-20535714D01*
X98500008Y-20392857D01*
X98500008Y-19964286D01*
X98428579Y-19821429D01*
X98357151Y-19750000D01*
X98214293Y-19678571D01*
X97928579Y-19678571D01*
X97785722Y-19750000D01*
X97357151Y-19678571D02*
X96785722Y-19678571D01*
X97142865Y-19178571D02*
X97142865Y-20464286D01*
X97071437Y-20607143D01*
X96928579Y-20678571D01*
X96785722Y-20678571D01*
X96071436Y-20678571D02*
X96214294Y-20607143D01*
X96285722Y-20535714D01*
X96357151Y-20392857D01*
X96357151Y-19964286D01*
X96285722Y-19821429D01*
X96214294Y-19750000D01*
X96071436Y-19678571D01*
X95857151Y-19678571D01*
X95714294Y-19750000D01*
X95642865Y-19821429D01*
X95571436Y-19964286D01*
X95571436Y-20392857D01*
X95642865Y-20535714D01*
X95714294Y-20607143D01*
X95857151Y-20678571D01*
X96071436Y-20678571D01*
X94928579Y-20678571D02*
X94928579Y-19678571D01*
X94928579Y-19964286D02*
X94857151Y-19821429D01*
X94785722Y-19750000D01*
X94642865Y-19678571D01*
X94500008Y-19678571D01*
X92500008Y-21178571D02*
X92500008Y-19035714D01*
X90357152Y-20250000D02*
X89642866Y-20250000D01*
X90500009Y-20678571D02*
X90000009Y-19178571D01*
X89500009Y-20678571D01*
X89000009Y-19678571D02*
X89000009Y-20678571D01*
X89000009Y-19821429D02*
X88928581Y-19750000D01*
X88785723Y-19678571D01*
X88571438Y-19678571D01*
X88428581Y-19750000D01*
X88357152Y-19892857D01*
X88357152Y-20678571D01*
X87000009Y-20678571D02*
X87000009Y-19178571D01*
X87000009Y-20607143D02*
X87142866Y-20678571D01*
X87428580Y-20678571D01*
X87571438Y-20607143D01*
X87642866Y-20535714D01*
X87714295Y-20392857D01*
X87714295Y-19964286D01*
X87642866Y-19821429D01*
X87571438Y-19750000D01*
X87428580Y-19678571D01*
X87142866Y-19678571D01*
X87000009Y-19750000D01*
X86285723Y-20678571D02*
X86285723Y-19678571D01*
X86285723Y-19964286D02*
X86214295Y-19821429D01*
X86142866Y-19750000D01*
X86000009Y-19678571D01*
X85857152Y-19678571D01*
X84714295Y-20678571D02*
X84714295Y-19892857D01*
X84785724Y-19750000D01*
X84928581Y-19678571D01*
X85214295Y-19678571D01*
X85357152Y-19750000D01*
X84714295Y-20607143D02*
X84857152Y-20678571D01*
X85214295Y-20678571D01*
X85357152Y-20607143D01*
X85428581Y-20464286D01*
X85428581Y-20321429D01*
X85357152Y-20178571D01*
X85214295Y-20107143D01*
X84857152Y-20107143D01*
X84714295Y-20035714D01*
X84071438Y-20607143D02*
X83928581Y-20678571D01*
X83642866Y-20678571D01*
X83500009Y-20607143D01*
X83428581Y-20464286D01*
X83428581Y-20392857D01*
X83500009Y-20250000D01*
X83642866Y-20178571D01*
X83857152Y-20178571D01*
X84000009Y-20107143D01*
X84071438Y-19964286D01*
X84071438Y-19892857D01*
X84000009Y-19750000D01*
X83857152Y-19678571D01*
X83642866Y-19678571D01*
X83500009Y-19750000D01*
X81142866Y-19892857D02*
X81642866Y-19892857D01*
X81642866Y-20678571D02*
X81642866Y-19178571D01*
X80928580Y-19178571D01*
X79714295Y-19678571D02*
X79714295Y-20678571D01*
X80357152Y-19678571D02*
X80357152Y-20464286D01*
X80285724Y-20607143D01*
X80142866Y-20678571D01*
X79928581Y-20678571D01*
X79785724Y-20607143D01*
X79714295Y-20535714D01*
X78357152Y-20607143D02*
X78500009Y-20678571D01*
X78785723Y-20678571D01*
X78928581Y-20607143D01*
X79000009Y-20535714D01*
X79071438Y-20392857D01*
X79071438Y-19964286D01*
X79000009Y-19821429D01*
X78928581Y-19750000D01*
X78785723Y-19678571D01*
X78500009Y-19678571D01*
X78357152Y-19750000D01*
X77714295Y-20678571D02*
X77714295Y-19178571D01*
X77071438Y-20678571D02*
X77071438Y-19892857D01*
X77142867Y-19750000D01*
X77285724Y-19678571D01*
X77500009Y-19678571D01*
X77642867Y-19750000D01*
X77714295Y-19821429D01*
X76428581Y-20607143D02*
X76285724Y-20678571D01*
X76000009Y-20678571D01*
X75857152Y-20607143D01*
X75785724Y-20464286D01*
X75785724Y-20392857D01*
X75857152Y-20250000D01*
X76000009Y-20178571D01*
X76214295Y-20178571D01*
X76357152Y-20107143D01*
X76428581Y-19964286D01*
X76428581Y-19892857D01*
X76357152Y-19750000D01*
X76214295Y-19678571D01*
X76000009Y-19678571D01*
X75857152Y-19750000D01*
X73571438Y-21250000D02*
X73642866Y-21178571D01*
X73785723Y-20964286D01*
X73857152Y-20821429D01*
X73928581Y-20607143D01*
X74000009Y-20250000D01*
X74000009Y-19964286D01*
X73928581Y-19607143D01*
X73857152Y-19392857D01*
X73785723Y-19250000D01*
X73642866Y-19035714D01*
X73571438Y-18964286D01*
X72357152Y-20678571D02*
X72357152Y-19892857D01*
X72428581Y-19750000D01*
X72571438Y-19678571D01*
X72857152Y-19678571D01*
X73000009Y-19750000D01*
X72357152Y-20607143D02*
X72500009Y-20678571D01*
X72857152Y-20678571D01*
X73000009Y-20607143D01*
X73071438Y-20464286D01*
X73071438Y-20321429D01*
X73000009Y-20178571D01*
X72857152Y-20107143D01*
X72500009Y-20107143D01*
X72357152Y-20035714D01*
X71642866Y-19678571D02*
X71642866Y-20678571D01*
X71642866Y-19821429D02*
X71571438Y-19750000D01*
X71428580Y-19678571D01*
X71214295Y-19678571D01*
X71071438Y-19750000D01*
X71000009Y-19892857D01*
X71000009Y-20678571D01*
X69642866Y-20678571D02*
X69642866Y-19178571D01*
X69642866Y-20607143D02*
X69785723Y-20678571D01*
X70071437Y-20678571D01*
X70214295Y-20607143D01*
X70285723Y-20535714D01*
X70357152Y-20392857D01*
X70357152Y-19964286D01*
X70285723Y-19821429D01*
X70214295Y-19750000D01*
X70071437Y-19678571D01*
X69785723Y-19678571D01*
X69642866Y-19750000D01*
X68928580Y-20678571D02*
X68928580Y-19678571D01*
X68928580Y-19964286D02*
X68857152Y-19821429D01*
X68785723Y-19750000D01*
X68642866Y-19678571D01*
X68500009Y-19678571D01*
X67357152Y-20678571D02*
X67357152Y-19892857D01*
X67428581Y-19750000D01*
X67571438Y-19678571D01*
X67857152Y-19678571D01*
X68000009Y-19750000D01*
X67357152Y-20607143D02*
X67500009Y-20678571D01*
X67857152Y-20678571D01*
X68000009Y-20607143D01*
X68071438Y-20464286D01*
X68071438Y-20321429D01*
X68000009Y-20178571D01*
X67857152Y-20107143D01*
X67500009Y-20107143D01*
X67357152Y-20035714D01*
X66714295Y-20607143D02*
X66571438Y-20678571D01*
X66285723Y-20678571D01*
X66142866Y-20607143D01*
X66071438Y-20464286D01*
X66071438Y-20392857D01*
X66142866Y-20250000D01*
X66285723Y-20178571D01*
X66500009Y-20178571D01*
X66642866Y-20107143D01*
X66714295Y-19964286D01*
X66714295Y-19892857D01*
X66642866Y-19750000D01*
X66500009Y-19678571D01*
X66285723Y-19678571D01*
X66142866Y-19750000D01*
X65428580Y-20535714D02*
X65357152Y-20607143D01*
X65428580Y-20678571D01*
X65500009Y-20607143D01*
X65428580Y-20535714D01*
X65428580Y-20678571D01*
X64928580Y-19678571D02*
X64357151Y-19678571D01*
X64714294Y-20678571D02*
X64714294Y-19392857D01*
X64642866Y-19250000D01*
X64500008Y-19178571D01*
X64357151Y-19178571D01*
X63214294Y-19678571D02*
X63214294Y-20678571D01*
X63857151Y-19678571D02*
X63857151Y-20464286D01*
X63785723Y-20607143D01*
X63642865Y-20678571D01*
X63428580Y-20678571D01*
X63285723Y-20607143D01*
X63214294Y-20535714D01*
X61857151Y-20607143D02*
X62000008Y-20678571D01*
X62285722Y-20678571D01*
X62428580Y-20607143D01*
X62500008Y-20535714D01*
X62571437Y-20392857D01*
X62571437Y-19964286D01*
X62500008Y-19821429D01*
X62428580Y-19750000D01*
X62285722Y-19678571D01*
X62000008Y-19678571D01*
X61857151Y-19750000D01*
X61214294Y-20678571D02*
X61214294Y-19178571D01*
X60571437Y-20678571D02*
X60571437Y-19892857D01*
X60642866Y-19750000D01*
X60785723Y-19678571D01*
X61000008Y-19678571D01*
X61142866Y-19750000D01*
X61214294Y-19821429D01*
X59928580Y-20607143D02*
X59785723Y-20678571D01*
X59500008Y-20678571D01*
X59357151Y-20607143D01*
X59285723Y-20464286D01*
X59285723Y-20392857D01*
X59357151Y-20250000D01*
X59500008Y-20178571D01*
X59714294Y-20178571D01*
X59857151Y-20107143D01*
X59928580Y-19964286D01*
X59928580Y-19892857D01*
X59857151Y-19750000D01*
X59714294Y-19678571D01*
X59500008Y-19678571D01*
X59357151Y-19750000D01*
X57714294Y-19964286D02*
X57785722Y-19892857D01*
X57928579Y-19821429D01*
X58071437Y-19821429D01*
X58214294Y-19892857D01*
X58285722Y-19964286D01*
X58357151Y-20107143D01*
X58357151Y-20250000D01*
X58285722Y-20392857D01*
X58214294Y-20464286D01*
X58071437Y-20535714D01*
X57928579Y-20535714D01*
X57785722Y-20464286D01*
X57714294Y-20392857D01*
X57714294Y-19821429D02*
X57714294Y-20392857D01*
X57642865Y-20464286D01*
X57571437Y-20464286D01*
X57428579Y-20392857D01*
X57357151Y-20250000D01*
X57357151Y-19892857D01*
X57500008Y-19678571D01*
X57714294Y-19535714D01*
X58000008Y-19464286D01*
X58285722Y-19535714D01*
X58500008Y-19678571D01*
X58642865Y-19892857D01*
X58714294Y-20178571D01*
X58642865Y-20464286D01*
X58500008Y-20678571D01*
X58285722Y-20821429D01*
X58000008Y-20892857D01*
X57714294Y-20821429D01*
X57500008Y-20678571D01*
X56071437Y-19678571D02*
X56071437Y-20892857D01*
X56142866Y-21035714D01*
X56214294Y-21107143D01*
X56357151Y-21178571D01*
X56571437Y-21178571D01*
X56714294Y-21107143D01*
X56071437Y-20607143D02*
X56214294Y-20678571D01*
X56500008Y-20678571D01*
X56642866Y-20607143D01*
X56714294Y-20535714D01*
X56785723Y-20392857D01*
X56785723Y-19964286D01*
X56714294Y-19821429D01*
X56642866Y-19750000D01*
X56500008Y-19678571D01*
X56214294Y-19678571D01*
X56071437Y-19750000D01*
X55357151Y-20678571D02*
X55357151Y-19678571D01*
X55357151Y-19821429D02*
X55285723Y-19750000D01*
X55142865Y-19678571D01*
X54928580Y-19678571D01*
X54785723Y-19750000D01*
X54714294Y-19892857D01*
X54714294Y-20678571D01*
X54714294Y-19892857D02*
X54642865Y-19750000D01*
X54500008Y-19678571D01*
X54285723Y-19678571D01*
X54142865Y-19750000D01*
X54071437Y-19892857D01*
X54071437Y-20678571D01*
X52714294Y-20678571D02*
X52714294Y-19892857D01*
X52785723Y-19750000D01*
X52928580Y-19678571D01*
X53214294Y-19678571D01*
X53357151Y-19750000D01*
X52714294Y-20607143D02*
X52857151Y-20678571D01*
X53214294Y-20678571D01*
X53357151Y-20607143D01*
X53428580Y-20464286D01*
X53428580Y-20321429D01*
X53357151Y-20178571D01*
X53214294Y-20107143D01*
X52857151Y-20107143D01*
X52714294Y-20035714D01*
X52000008Y-20678571D02*
X52000008Y-19678571D01*
X52000008Y-19178571D02*
X52071437Y-19250000D01*
X52000008Y-19321429D01*
X51928580Y-19250000D01*
X52000008Y-19178571D01*
X52000008Y-19321429D01*
X51071436Y-20678571D02*
X51214294Y-20607143D01*
X51285722Y-20464286D01*
X51285722Y-19178571D01*
X50500008Y-20535714D02*
X50428580Y-20607143D01*
X50500008Y-20678571D01*
X50571437Y-20607143D01*
X50500008Y-20535714D01*
X50500008Y-20678571D01*
X49142865Y-20607143D02*
X49285722Y-20678571D01*
X49571436Y-20678571D01*
X49714294Y-20607143D01*
X49785722Y-20535714D01*
X49857151Y-20392857D01*
X49857151Y-19964286D01*
X49785722Y-19821429D01*
X49714294Y-19750000D01*
X49571436Y-19678571D01*
X49285722Y-19678571D01*
X49142865Y-19750000D01*
X48285722Y-20678571D02*
X48428580Y-20607143D01*
X48500008Y-20535714D01*
X48571437Y-20392857D01*
X48571437Y-19964286D01*
X48500008Y-19821429D01*
X48428580Y-19750000D01*
X48285722Y-19678571D01*
X48071437Y-19678571D01*
X47928580Y-19750000D01*
X47857151Y-19821429D01*
X47785722Y-19964286D01*
X47785722Y-20392857D01*
X47857151Y-20535714D01*
X47928580Y-20607143D01*
X48071437Y-20678571D01*
X48285722Y-20678571D01*
X47142865Y-20678571D02*
X47142865Y-19678571D01*
X47142865Y-19821429D02*
X47071437Y-19750000D01*
X46928579Y-19678571D01*
X46714294Y-19678571D01*
X46571437Y-19750000D01*
X46500008Y-19892857D01*
X46500008Y-20678571D01*
X46500008Y-19892857D02*
X46428579Y-19750000D01*
X46285722Y-19678571D01*
X46071437Y-19678571D01*
X45928579Y-19750000D01*
X45857151Y-19892857D01*
X45857151Y-20678571D01*
X45285722Y-21250000D02*
X45214294Y-21178571D01*
X45071437Y-20964286D01*
X45000008Y-20821429D01*
X44928579Y-20607143D01*
X44857151Y-20250000D01*
X44857151Y-19964286D01*
X44928579Y-19607143D01*
X45000008Y-19392857D01*
X45071437Y-19250000D01*
X45214294Y-19035714D01*
X45285722Y-18964286D01*
X35142856Y-29178571D02*
X34999999Y-29178571D01*
X34857142Y-29250000D01*
X34785713Y-29321429D01*
X34714284Y-29464286D01*
X34642856Y-29750000D01*
X34642856Y-30107143D01*
X34714284Y-30392857D01*
X34785713Y-30535714D01*
X34857142Y-30607143D01*
X34999999Y-30678571D01*
X35142856Y-30678571D01*
X35285713Y-30607143D01*
X35357142Y-30535714D01*
X35428570Y-30392857D01*
X35499999Y-30107143D01*
X35499999Y-29750000D01*
X35428570Y-29464286D01*
X35357142Y-29321429D01*
X35285713Y-29250000D01*
X35142856Y-29178571D01*
X33214285Y-30678571D02*
X34071428Y-30678571D01*
X33642856Y-30678571D02*
X33642856Y-29178571D01*
X33785713Y-29392857D01*
X33928571Y-29535714D01*
X34071428Y-29607143D01*
X32571428Y-30107143D02*
X31428571Y-30107143D01*
X30428571Y-29178571D02*
X30285714Y-29178571D01*
X30142857Y-29250000D01*
X30071428Y-29321429D01*
X29999999Y-29464286D01*
X29928571Y-29750000D01*
X29928571Y-30107143D01*
X29999999Y-30392857D01*
X30071428Y-30535714D01*
X30142857Y-30607143D01*
X30285714Y-30678571D01*
X30428571Y-30678571D01*
X30571428Y-30607143D01*
X30642857Y-30535714D01*
X30714285Y-30392857D01*
X30785714Y-30107143D01*
X30785714Y-29750000D01*
X30714285Y-29464286D01*
X30642857Y-29321429D01*
X30571428Y-29250000D01*
X30428571Y-29178571D01*
X28500000Y-30678571D02*
X29357143Y-30678571D01*
X28928571Y-30678571D02*
X28928571Y-29178571D01*
X29071428Y-29392857D01*
X29214286Y-29535714D01*
X29357143Y-29607143D01*
X35142856Y-44178571D02*
X34999999Y-44178571D01*
X34857142Y-44250000D01*
X34785713Y-44321429D01*
X34714284Y-44464286D01*
X34642856Y-44750000D01*
X34642856Y-45107143D01*
X34714284Y-45392857D01*
X34785713Y-45535714D01*
X34857142Y-45607143D01*
X34999999Y-45678571D01*
X35142856Y-45678571D01*
X35285713Y-45607143D01*
X35357142Y-45535714D01*
X35428570Y-45392857D01*
X35499999Y-45107143D01*
X35499999Y-44750000D01*
X35428570Y-44464286D01*
X35357142Y-44321429D01*
X35285713Y-44250000D01*
X35142856Y-44178571D01*
X33214285Y-45678571D02*
X34071428Y-45678571D01*
X33642856Y-45678571D02*
X33642856Y-44178571D01*
X33785713Y-44392857D01*
X33928571Y-44535714D01*
X34071428Y-44607143D01*
X32571428Y-45107143D02*
X31428571Y-45107143D01*
X30428571Y-44178571D02*
X30285714Y-44178571D01*
X30142857Y-44250000D01*
X30071428Y-44321429D01*
X29999999Y-44464286D01*
X29928571Y-44750000D01*
X29928571Y-45107143D01*
X29999999Y-45392857D01*
X30071428Y-45535714D01*
X30142857Y-45607143D01*
X30285714Y-45678571D01*
X30428571Y-45678571D01*
X30571428Y-45607143D01*
X30642857Y-45535714D01*
X30714285Y-45392857D01*
X30785714Y-45107143D01*
X30785714Y-44750000D01*
X30714285Y-44464286D01*
X30642857Y-44321429D01*
X30571428Y-44250000D01*
X30428571Y-44178571D01*
X29357143Y-44321429D02*
X29285714Y-44250000D01*
X29142857Y-44178571D01*
X28785714Y-44178571D01*
X28642857Y-44250000D01*
X28571428Y-44321429D01*
X28500000Y-44464286D01*
X28500000Y-44607143D01*
X28571428Y-44821429D01*
X29428571Y-45678571D01*
X28500000Y-45678571D01*
X35142856Y-59178571D02*
X34999999Y-59178571D01*
X34857142Y-59250000D01*
X34785713Y-59321429D01*
X34714284Y-59464286D01*
X34642856Y-59750000D01*
X34642856Y-60107143D01*
X34714284Y-60392857D01*
X34785713Y-60535714D01*
X34857142Y-60607143D01*
X34999999Y-60678571D01*
X35142856Y-60678571D01*
X35285713Y-60607143D01*
X35357142Y-60535714D01*
X35428570Y-60392857D01*
X35499999Y-60107143D01*
X35499999Y-59750000D01*
X35428570Y-59464286D01*
X35357142Y-59321429D01*
X35285713Y-59250000D01*
X35142856Y-59178571D01*
X33214285Y-60678571D02*
X34071428Y-60678571D01*
X33642856Y-60678571D02*
X33642856Y-59178571D01*
X33785713Y-59392857D01*
X33928571Y-59535714D01*
X34071428Y-59607143D01*
X32571428Y-60107143D02*
X31428571Y-60107143D01*
X30428571Y-59178571D02*
X30285714Y-59178571D01*
X30142857Y-59250000D01*
X30071428Y-59321429D01*
X29999999Y-59464286D01*
X29928571Y-59750000D01*
X29928571Y-60107143D01*
X29999999Y-60392857D01*
X30071428Y-60535714D01*
X30142857Y-60607143D01*
X30285714Y-60678571D01*
X30428571Y-60678571D01*
X30571428Y-60607143D01*
X30642857Y-60535714D01*
X30714285Y-60392857D01*
X30785714Y-60107143D01*
X30785714Y-59750000D01*
X30714285Y-59464286D01*
X30642857Y-59321429D01*
X30571428Y-59250000D01*
X30428571Y-59178571D01*
X29428571Y-59178571D02*
X28500000Y-59178571D01*
X29000000Y-59750000D01*
X28785714Y-59750000D01*
X28642857Y-59821429D01*
X28571428Y-59892857D01*
X28500000Y-60035714D01*
X28500000Y-60392857D01*
X28571428Y-60535714D01*
X28642857Y-60607143D01*
X28785714Y-60678571D01*
X29214286Y-60678571D01*
X29357143Y-60607143D01*
X29428571Y-60535714D01*
X35142856Y-74178571D02*
X34999999Y-74178571D01*
X34857142Y-74250000D01*
X34785713Y-74321429D01*
X34714284Y-74464286D01*
X34642856Y-74750000D01*
X34642856Y-75107143D01*
X34714284Y-75392857D01*
X34785713Y-75535714D01*
X34857142Y-75607143D01*
X34999999Y-75678571D01*
X35142856Y-75678571D01*
X35285713Y-75607143D01*
X35357142Y-75535714D01*
X35428570Y-75392857D01*
X35499999Y-75107143D01*
X35499999Y-74750000D01*
X35428570Y-74464286D01*
X35357142Y-74321429D01*
X35285713Y-74250000D01*
X35142856Y-74178571D01*
X33214285Y-75678571D02*
X34071428Y-75678571D01*
X33642856Y-75678571D02*
X33642856Y-74178571D01*
X33785713Y-74392857D01*
X33928571Y-74535714D01*
X34071428Y-74607143D01*
X32571428Y-75107143D02*
X31428571Y-75107143D01*
X30428571Y-74178571D02*
X30285714Y-74178571D01*
X30142857Y-74250000D01*
X30071428Y-74321429D01*
X29999999Y-74464286D01*
X29928571Y-74750000D01*
X29928571Y-75107143D01*
X29999999Y-75392857D01*
X30071428Y-75535714D01*
X30142857Y-75607143D01*
X30285714Y-75678571D01*
X30428571Y-75678571D01*
X30571428Y-75607143D01*
X30642857Y-75535714D01*
X30714285Y-75392857D01*
X30785714Y-75107143D01*
X30785714Y-74750000D01*
X30714285Y-74464286D01*
X30642857Y-74321429D01*
X30571428Y-74250000D01*
X30428571Y-74178571D01*
X28642857Y-74678571D02*
X28642857Y-75678571D01*
X29000000Y-74107143D02*
X29357143Y-75178571D01*
X28428571Y-75178571D01*
X35142856Y-89178571D02*
X34999999Y-89178571D01*
X34857142Y-89250000D01*
X34785713Y-89321429D01*
X34714284Y-89464286D01*
X34642856Y-89750000D01*
X34642856Y-90107143D01*
X34714284Y-90392857D01*
X34785713Y-90535714D01*
X34857142Y-90607143D01*
X34999999Y-90678571D01*
X35142856Y-90678571D01*
X35285713Y-90607143D01*
X35357142Y-90535714D01*
X35428570Y-90392857D01*
X35499999Y-90107143D01*
X35499999Y-89750000D01*
X35428570Y-89464286D01*
X35357142Y-89321429D01*
X35285713Y-89250000D01*
X35142856Y-89178571D01*
X33214285Y-90678571D02*
X34071428Y-90678571D01*
X33642856Y-90678571D02*
X33642856Y-89178571D01*
X33785713Y-89392857D01*
X33928571Y-89535714D01*
X34071428Y-89607143D01*
X32571428Y-90107143D02*
X31428571Y-90107143D01*
X30428571Y-89178571D02*
X30285714Y-89178571D01*
X30142857Y-89250000D01*
X30071428Y-89321429D01*
X29999999Y-89464286D01*
X29928571Y-89750000D01*
X29928571Y-90107143D01*
X29999999Y-90392857D01*
X30071428Y-90535714D01*
X30142857Y-90607143D01*
X30285714Y-90678571D01*
X30428571Y-90678571D01*
X30571428Y-90607143D01*
X30642857Y-90535714D01*
X30714285Y-90392857D01*
X30785714Y-90107143D01*
X30785714Y-89750000D01*
X30714285Y-89464286D01*
X30642857Y-89321429D01*
X30571428Y-89250000D01*
X30428571Y-89178571D01*
X28571428Y-89178571D02*
X29285714Y-89178571D01*
X29357143Y-89892857D01*
X29285714Y-89821429D01*
X29142857Y-89750000D01*
X28785714Y-89750000D01*
X28642857Y-89821429D01*
X28571428Y-89892857D01*
X28500000Y-90035714D01*
X28500000Y-90392857D01*
X28571428Y-90535714D01*
X28642857Y-90607143D01*
X28785714Y-90678571D01*
X29142857Y-90678571D01*
X29285714Y-90607143D01*
X29357143Y-90535714D01*
X35142856Y-104178571D02*
X34999999Y-104178571D01*
X34857142Y-104250000D01*
X34785713Y-104321429D01*
X34714284Y-104464286D01*
X34642856Y-104750000D01*
X34642856Y-105107143D01*
X34714284Y-105392857D01*
X34785713Y-105535714D01*
X34857142Y-105607143D01*
X34999999Y-105678571D01*
X35142856Y-105678571D01*
X35285713Y-105607143D01*
X35357142Y-105535714D01*
X35428570Y-105392857D01*
X35499999Y-105107143D01*
X35499999Y-104750000D01*
X35428570Y-104464286D01*
X35357142Y-104321429D01*
X35285713Y-104250000D01*
X35142856Y-104178571D01*
X33214285Y-105678571D02*
X34071428Y-105678571D01*
X33642856Y-105678571D02*
X33642856Y-104178571D01*
X33785713Y-104392857D01*
X33928571Y-104535714D01*
X34071428Y-104607143D01*
X32571428Y-105107143D02*
X31428571Y-105107143D01*
X30428571Y-104178571D02*
X30285714Y-104178571D01*
X30142857Y-104250000D01*
X30071428Y-104321429D01*
X29999999Y-104464286D01*
X29928571Y-104750000D01*
X29928571Y-105107143D01*
X29999999Y-105392857D01*
X30071428Y-105535714D01*
X30142857Y-105607143D01*
X30285714Y-105678571D01*
X30428571Y-105678571D01*
X30571428Y-105607143D01*
X30642857Y-105535714D01*
X30714285Y-105392857D01*
X30785714Y-105107143D01*
X30785714Y-104750000D01*
X30714285Y-104464286D01*
X30642857Y-104321429D01*
X30571428Y-104250000D01*
X30428571Y-104178571D01*
X28642857Y-104178571D02*
X28928571Y-104178571D01*
X29071428Y-104250000D01*
X29142857Y-104321429D01*
X29285714Y-104535714D01*
X29357143Y-104821429D01*
X29357143Y-105392857D01*
X29285714Y-105535714D01*
X29214286Y-105607143D01*
X29071428Y-105678571D01*
X28785714Y-105678571D01*
X28642857Y-105607143D01*
X28571428Y-105535714D01*
X28500000Y-105392857D01*
X28500000Y-105035714D01*
X28571428Y-104892857D01*
X28642857Y-104821429D01*
X28785714Y-104750000D01*
X29071428Y-104750000D01*
X29214286Y-104821429D01*
X29285714Y-104892857D01*
X29357143Y-105035714D01*
X50142856Y-29178571D02*
X49999999Y-29178571D01*
X49857142Y-29250000D01*
X49785713Y-29321429D01*
X49714284Y-29464286D01*
X49642856Y-29750000D01*
X49642856Y-30107143D01*
X49714284Y-30392857D01*
X49785713Y-30535714D01*
X49857142Y-30607143D01*
X49999999Y-30678571D01*
X50142856Y-30678571D01*
X50285713Y-30607143D01*
X50357142Y-30535714D01*
X50428570Y-30392857D01*
X50499999Y-30107143D01*
X50499999Y-29750000D01*
X50428570Y-29464286D01*
X50357142Y-29321429D01*
X50285713Y-29250000D01*
X50142856Y-29178571D01*
X49071428Y-29321429D02*
X48999999Y-29250000D01*
X48857142Y-29178571D01*
X48499999Y-29178571D01*
X48357142Y-29250000D01*
X48285713Y-29321429D01*
X48214285Y-29464286D01*
X48214285Y-29607143D01*
X48285713Y-29821429D01*
X49142856Y-30678571D01*
X48214285Y-30678571D01*
X47571428Y-30107143D02*
X46428571Y-30107143D01*
X45428571Y-29178571D02*
X45285714Y-29178571D01*
X45142857Y-29250000D01*
X45071428Y-29321429D01*
X44999999Y-29464286D01*
X44928571Y-29750000D01*
X44928571Y-30107143D01*
X44999999Y-30392857D01*
X45071428Y-30535714D01*
X45142857Y-30607143D01*
X45285714Y-30678571D01*
X45428571Y-30678571D01*
X45571428Y-30607143D01*
X45642857Y-30535714D01*
X45714285Y-30392857D01*
X45785714Y-30107143D01*
X45785714Y-29750000D01*
X45714285Y-29464286D01*
X45642857Y-29321429D01*
X45571428Y-29250000D01*
X45428571Y-29178571D01*
X43500000Y-30678571D02*
X44357143Y-30678571D01*
X43928571Y-30678571D02*
X43928571Y-29178571D01*
X44071428Y-29392857D01*
X44214286Y-29535714D01*
X44357143Y-29607143D01*
X50142856Y-44178571D02*
X49999999Y-44178571D01*
X49857142Y-44250000D01*
X49785713Y-44321429D01*
X49714284Y-44464286D01*
X49642856Y-44750000D01*
X49642856Y-45107143D01*
X49714284Y-45392857D01*
X49785713Y-45535714D01*
X49857142Y-45607143D01*
X49999999Y-45678571D01*
X50142856Y-45678571D01*
X50285713Y-45607143D01*
X50357142Y-45535714D01*
X50428570Y-45392857D01*
X50499999Y-45107143D01*
X50499999Y-44750000D01*
X50428570Y-44464286D01*
X50357142Y-44321429D01*
X50285713Y-44250000D01*
X50142856Y-44178571D01*
X49071428Y-44321429D02*
X48999999Y-44250000D01*
X48857142Y-44178571D01*
X48499999Y-44178571D01*
X48357142Y-44250000D01*
X48285713Y-44321429D01*
X48214285Y-44464286D01*
X48214285Y-44607143D01*
X48285713Y-44821429D01*
X49142856Y-45678571D01*
X48214285Y-45678571D01*
X47571428Y-45107143D02*
X46428571Y-45107143D01*
X45428571Y-44178571D02*
X45285714Y-44178571D01*
X45142857Y-44250000D01*
X45071428Y-44321429D01*
X44999999Y-44464286D01*
X44928571Y-44750000D01*
X44928571Y-45107143D01*
X44999999Y-45392857D01*
X45071428Y-45535714D01*
X45142857Y-45607143D01*
X45285714Y-45678571D01*
X45428571Y-45678571D01*
X45571428Y-45607143D01*
X45642857Y-45535714D01*
X45714285Y-45392857D01*
X45785714Y-45107143D01*
X45785714Y-44750000D01*
X45714285Y-44464286D01*
X45642857Y-44321429D01*
X45571428Y-44250000D01*
X45428571Y-44178571D01*
X44357143Y-44321429D02*
X44285714Y-44250000D01*
X44142857Y-44178571D01*
X43785714Y-44178571D01*
X43642857Y-44250000D01*
X43571428Y-44321429D01*
X43500000Y-44464286D01*
X43500000Y-44607143D01*
X43571428Y-44821429D01*
X44428571Y-45678571D01*
X43500000Y-45678571D01*
X50142856Y-59178571D02*
X49999999Y-59178571D01*
X49857142Y-59250000D01*
X49785713Y-59321429D01*
X49714284Y-59464286D01*
X49642856Y-59750000D01*
X49642856Y-60107143D01*
X49714284Y-60392857D01*
X49785713Y-60535714D01*
X49857142Y-60607143D01*
X49999999Y-60678571D01*
X50142856Y-60678571D01*
X50285713Y-60607143D01*
X50357142Y-60535714D01*
X50428570Y-60392857D01*
X50499999Y-60107143D01*
X50499999Y-59750000D01*
X50428570Y-59464286D01*
X50357142Y-59321429D01*
X50285713Y-59250000D01*
X50142856Y-59178571D01*
X49071428Y-59321429D02*
X48999999Y-59250000D01*
X48857142Y-59178571D01*
X48499999Y-59178571D01*
X48357142Y-59250000D01*
X48285713Y-59321429D01*
X48214285Y-59464286D01*
X48214285Y-59607143D01*
X48285713Y-59821429D01*
X49142856Y-60678571D01*
X48214285Y-60678571D01*
X47571428Y-60107143D02*
X46428571Y-60107143D01*
X45428571Y-59178571D02*
X45285714Y-59178571D01*
X45142857Y-59250000D01*
X45071428Y-59321429D01*
X44999999Y-59464286D01*
X44928571Y-59750000D01*
X44928571Y-60107143D01*
X44999999Y-60392857D01*
X45071428Y-60535714D01*
X45142857Y-60607143D01*
X45285714Y-60678571D01*
X45428571Y-60678571D01*
X45571428Y-60607143D01*
X45642857Y-60535714D01*
X45714285Y-60392857D01*
X45785714Y-60107143D01*
X45785714Y-59750000D01*
X45714285Y-59464286D01*
X45642857Y-59321429D01*
X45571428Y-59250000D01*
X45428571Y-59178571D01*
X44428571Y-59178571D02*
X43500000Y-59178571D01*
X44000000Y-59750000D01*
X43785714Y-59750000D01*
X43642857Y-59821429D01*
X43571428Y-59892857D01*
X43500000Y-60035714D01*
X43500000Y-60392857D01*
X43571428Y-60535714D01*
X43642857Y-60607143D01*
X43785714Y-60678571D01*
X44214286Y-60678571D01*
X44357143Y-60607143D01*
X44428571Y-60535714D01*
X50142856Y-74178571D02*
X49999999Y-74178571D01*
X49857142Y-74250000D01*
X49785713Y-74321429D01*
X49714284Y-74464286D01*
X49642856Y-74750000D01*
X49642856Y-75107143D01*
X49714284Y-75392857D01*
X49785713Y-75535714D01*
X49857142Y-75607143D01*
X49999999Y-75678571D01*
X50142856Y-75678571D01*
X50285713Y-75607143D01*
X50357142Y-75535714D01*
X50428570Y-75392857D01*
X50499999Y-75107143D01*
X50499999Y-74750000D01*
X50428570Y-74464286D01*
X50357142Y-74321429D01*
X50285713Y-74250000D01*
X50142856Y-74178571D01*
X49071428Y-74321429D02*
X48999999Y-74250000D01*
X48857142Y-74178571D01*
X48499999Y-74178571D01*
X48357142Y-74250000D01*
X48285713Y-74321429D01*
X48214285Y-74464286D01*
X48214285Y-74607143D01*
X48285713Y-74821429D01*
X49142856Y-75678571D01*
X48214285Y-75678571D01*
X47571428Y-75107143D02*
X46428571Y-75107143D01*
X45428571Y-74178571D02*
X45285714Y-74178571D01*
X45142857Y-74250000D01*
X45071428Y-74321429D01*
X44999999Y-74464286D01*
X44928571Y-74750000D01*
X44928571Y-75107143D01*
X44999999Y-75392857D01*
X45071428Y-75535714D01*
X45142857Y-75607143D01*
X45285714Y-75678571D01*
X45428571Y-75678571D01*
X45571428Y-75607143D01*
X45642857Y-75535714D01*
X45714285Y-75392857D01*
X45785714Y-75107143D01*
X45785714Y-74750000D01*
X45714285Y-74464286D01*
X45642857Y-74321429D01*
X45571428Y-74250000D01*
X45428571Y-74178571D01*
X43642857Y-74678571D02*
X43642857Y-75678571D01*
X44000000Y-74107143D02*
X44357143Y-75178571D01*
X43428571Y-75178571D01*
X50142856Y-89178571D02*
X49999999Y-89178571D01*
X49857142Y-89250000D01*
X49785713Y-89321429D01*
X49714284Y-89464286D01*
X49642856Y-89750000D01*
X49642856Y-90107143D01*
X49714284Y-90392857D01*
X49785713Y-90535714D01*
X49857142Y-90607143D01*
X49999999Y-90678571D01*
X50142856Y-90678571D01*
X50285713Y-90607143D01*
X50357142Y-90535714D01*
X50428570Y-90392857D01*
X50499999Y-90107143D01*
X50499999Y-89750000D01*
X50428570Y-89464286D01*
X50357142Y-89321429D01*
X50285713Y-89250000D01*
X50142856Y-89178571D01*
X49071428Y-89321429D02*
X48999999Y-89250000D01*
X48857142Y-89178571D01*
X48499999Y-89178571D01*
X48357142Y-89250000D01*
X48285713Y-89321429D01*
X48214285Y-89464286D01*
X48214285Y-89607143D01*
X48285713Y-89821429D01*
X49142856Y-90678571D01*
X48214285Y-90678571D01*
X47571428Y-90107143D02*
X46428571Y-90107143D01*
X45428571Y-89178571D02*
X45285714Y-89178571D01*
X45142857Y-89250000D01*
X45071428Y-89321429D01*
X44999999Y-89464286D01*
X44928571Y-89750000D01*
X44928571Y-90107143D01*
X44999999Y-90392857D01*
X45071428Y-90535714D01*
X45142857Y-90607143D01*
X45285714Y-90678571D01*
X45428571Y-90678571D01*
X45571428Y-90607143D01*
X45642857Y-90535714D01*
X45714285Y-90392857D01*
X45785714Y-90107143D01*
X45785714Y-89750000D01*
X45714285Y-89464286D01*
X45642857Y-89321429D01*
X45571428Y-89250000D01*
X45428571Y-89178571D01*
X43571428Y-89178571D02*
X44285714Y-89178571D01*
X44357143Y-89892857D01*
X44285714Y-89821429D01*
X44142857Y-89750000D01*
X43785714Y-89750000D01*
X43642857Y-89821429D01*
X43571428Y-89892857D01*
X43500000Y-90035714D01*
X43500000Y-90392857D01*
X43571428Y-90535714D01*
X43642857Y-90607143D01*
X43785714Y-90678571D01*
X44142857Y-90678571D01*
X44285714Y-90607143D01*
X44357143Y-90535714D01*
X50142856Y-104178571D02*
X49999999Y-104178571D01*
X49857142Y-104250000D01*
X49785713Y-104321429D01*
X49714284Y-104464286D01*
X49642856Y-104750000D01*
X49642856Y-105107143D01*
X49714284Y-105392857D01*
X49785713Y-105535714D01*
X49857142Y-105607143D01*
X49999999Y-105678571D01*
X50142856Y-105678571D01*
X50285713Y-105607143D01*
X50357142Y-105535714D01*
X50428570Y-105392857D01*
X50499999Y-105107143D01*
X50499999Y-104750000D01*
X50428570Y-104464286D01*
X50357142Y-104321429D01*
X50285713Y-104250000D01*
X50142856Y-104178571D01*
X49071428Y-104321429D02*
X48999999Y-104250000D01*
X48857142Y-104178571D01*
X48499999Y-104178571D01*
X48357142Y-104250000D01*
X48285713Y-104321429D01*
X48214285Y-104464286D01*
X48214285Y-104607143D01*
X48285713Y-104821429D01*
X49142856Y-105678571D01*
X48214285Y-105678571D01*
X47571428Y-105107143D02*
X46428571Y-105107143D01*
X45428571Y-104178571D02*
X45285714Y-104178571D01*
X45142857Y-104250000D01*
X45071428Y-104321429D01*
X44999999Y-104464286D01*
X44928571Y-104750000D01*
X44928571Y-105107143D01*
X44999999Y-105392857D01*
X45071428Y-105535714D01*
X45142857Y-105607143D01*
X45285714Y-105678571D01*
X45428571Y-105678571D01*
X45571428Y-105607143D01*
X45642857Y-105535714D01*
X45714285Y-105392857D01*
X45785714Y-105107143D01*
X45785714Y-104750000D01*
X45714285Y-104464286D01*
X45642857Y-104321429D01*
X45571428Y-104250000D01*
X45428571Y-104178571D01*
X43642857Y-104178571D02*
X43928571Y-104178571D01*
X44071428Y-104250000D01*
X44142857Y-104321429D01*
X44285714Y-104535714D01*
X44357143Y-104821429D01*
X44357143Y-105392857D01*
X44285714Y-105535714D01*
X44214286Y-105607143D01*
X44071428Y-105678571D01*
X43785714Y-105678571D01*
X43642857Y-105607143D01*
X43571428Y-105535714D01*
X43500000Y-105392857D01*
X43500000Y-105035714D01*
X43571428Y-104892857D01*
X43642857Y-104821429D01*
X43785714Y-104750000D01*
X44071428Y-104750000D01*
X44214286Y-104821429D01*
X44285714Y-104892857D01*
X44357143Y-105035714D01*
X65142856Y-29178571D02*
X64999999Y-29178571D01*
X64857142Y-29250000D01*
X64785713Y-29321429D01*
X64714284Y-29464286D01*
X64642856Y-29750000D01*
X64642856Y-30107143D01*
X64714284Y-30392857D01*
X64785713Y-30535714D01*
X64857142Y-30607143D01*
X64999999Y-30678571D01*
X65142856Y-30678571D01*
X65285713Y-30607143D01*
X65357142Y-30535714D01*
X65428570Y-30392857D01*
X65499999Y-30107143D01*
X65499999Y-29750000D01*
X65428570Y-29464286D01*
X65357142Y-29321429D01*
X65285713Y-29250000D01*
X65142856Y-29178571D01*
X64142856Y-29178571D02*
X63214285Y-29178571D01*
X63714285Y-29750000D01*
X63499999Y-29750000D01*
X63357142Y-29821429D01*
X63285713Y-29892857D01*
X63214285Y-30035714D01*
X63214285Y-30392857D01*
X63285713Y-30535714D01*
X63357142Y-30607143D01*
X63499999Y-30678571D01*
X63928571Y-30678571D01*
X64071428Y-30607143D01*
X64142856Y-30535714D01*
X62571428Y-30107143D02*
X61428571Y-30107143D01*
X60428571Y-29178571D02*
X60285714Y-29178571D01*
X60142857Y-29250000D01*
X60071428Y-29321429D01*
X59999999Y-29464286D01*
X59928571Y-29750000D01*
X59928571Y-30107143D01*
X59999999Y-30392857D01*
X60071428Y-30535714D01*
X60142857Y-30607143D01*
X60285714Y-30678571D01*
X60428571Y-30678571D01*
X60571428Y-30607143D01*
X60642857Y-30535714D01*
X60714285Y-30392857D01*
X60785714Y-30107143D01*
X60785714Y-29750000D01*
X60714285Y-29464286D01*
X60642857Y-29321429D01*
X60571428Y-29250000D01*
X60428571Y-29178571D01*
X58500000Y-30678571D02*
X59357143Y-30678571D01*
X58928571Y-30678571D02*
X58928571Y-29178571D01*
X59071428Y-29392857D01*
X59214286Y-29535714D01*
X59357143Y-29607143D01*
X65142856Y-44178571D02*
X64999999Y-44178571D01*
X64857142Y-44250000D01*
X64785713Y-44321429D01*
X64714284Y-44464286D01*
X64642856Y-44750000D01*
X64642856Y-45107143D01*
X64714284Y-45392857D01*
X64785713Y-45535714D01*
X64857142Y-45607143D01*
X64999999Y-45678571D01*
X65142856Y-45678571D01*
X65285713Y-45607143D01*
X65357142Y-45535714D01*
X65428570Y-45392857D01*
X65499999Y-45107143D01*
X65499999Y-44750000D01*
X65428570Y-44464286D01*
X65357142Y-44321429D01*
X65285713Y-44250000D01*
X65142856Y-44178571D01*
X64142856Y-44178571D02*
X63214285Y-44178571D01*
X63714285Y-44750000D01*
X63499999Y-44750000D01*
X63357142Y-44821429D01*
X63285713Y-44892857D01*
X63214285Y-45035714D01*
X63214285Y-45392857D01*
X63285713Y-45535714D01*
X63357142Y-45607143D01*
X63499999Y-45678571D01*
X63928571Y-45678571D01*
X64071428Y-45607143D01*
X64142856Y-45535714D01*
X62571428Y-45107143D02*
X61428571Y-45107143D01*
X60428571Y-44178571D02*
X60285714Y-44178571D01*
X60142857Y-44250000D01*
X60071428Y-44321429D01*
X59999999Y-44464286D01*
X59928571Y-44750000D01*
X59928571Y-45107143D01*
X59999999Y-45392857D01*
X60071428Y-45535714D01*
X60142857Y-45607143D01*
X60285714Y-45678571D01*
X60428571Y-45678571D01*
X60571428Y-45607143D01*
X60642857Y-45535714D01*
X60714285Y-45392857D01*
X60785714Y-45107143D01*
X60785714Y-44750000D01*
X60714285Y-44464286D01*
X60642857Y-44321429D01*
X60571428Y-44250000D01*
X60428571Y-44178571D01*
X59357143Y-44321429D02*
X59285714Y-44250000D01*
X59142857Y-44178571D01*
X58785714Y-44178571D01*
X58642857Y-44250000D01*
X58571428Y-44321429D01*
X58500000Y-44464286D01*
X58500000Y-44607143D01*
X58571428Y-44821429D01*
X59428571Y-45678571D01*
X58500000Y-45678571D01*
X65142856Y-59178571D02*
X64999999Y-59178571D01*
X64857142Y-59250000D01*
X64785713Y-59321429D01*
X64714284Y-59464286D01*
X64642856Y-59750000D01*
X64642856Y-60107143D01*
X64714284Y-60392857D01*
X64785713Y-60535714D01*
X64857142Y-60607143D01*
X64999999Y-60678571D01*
X65142856Y-60678571D01*
X65285713Y-60607143D01*
X65357142Y-60535714D01*
X65428570Y-60392857D01*
X65499999Y-60107143D01*
X65499999Y-59750000D01*
X65428570Y-59464286D01*
X65357142Y-59321429D01*
X65285713Y-59250000D01*
X65142856Y-59178571D01*
X64142856Y-59178571D02*
X63214285Y-59178571D01*
X63714285Y-59750000D01*
X63499999Y-59750000D01*
X63357142Y-59821429D01*
X63285713Y-59892857D01*
X63214285Y-60035714D01*
X63214285Y-60392857D01*
X63285713Y-60535714D01*
X63357142Y-60607143D01*
X63499999Y-60678571D01*
X63928571Y-60678571D01*
X64071428Y-60607143D01*
X64142856Y-60535714D01*
X62571428Y-60107143D02*
X61428571Y-60107143D01*
X60428571Y-59178571D02*
X60285714Y-59178571D01*
X60142857Y-59250000D01*
X60071428Y-59321429D01*
X59999999Y-59464286D01*
X59928571Y-59750000D01*
X59928571Y-60107143D01*
X59999999Y-60392857D01*
X60071428Y-60535714D01*
X60142857Y-60607143D01*
X60285714Y-60678571D01*
X60428571Y-60678571D01*
X60571428Y-60607143D01*
X60642857Y-60535714D01*
X60714285Y-60392857D01*
X60785714Y-60107143D01*
X60785714Y-59750000D01*
X60714285Y-59464286D01*
X60642857Y-59321429D01*
X60571428Y-59250000D01*
X60428571Y-59178571D01*
X59428571Y-59178571D02*
X58500000Y-59178571D01*
X59000000Y-59750000D01*
X58785714Y-59750000D01*
X58642857Y-59821429D01*
X58571428Y-59892857D01*
X58500000Y-60035714D01*
X58500000Y-60392857D01*
X58571428Y-60535714D01*
X58642857Y-60607143D01*
X58785714Y-60678571D01*
X59214286Y-60678571D01*
X59357143Y-60607143D01*
X59428571Y-60535714D01*
X65142856Y-74178571D02*
X64999999Y-74178571D01*
X64857142Y-74250000D01*
X64785713Y-74321429D01*
X64714284Y-74464286D01*
X64642856Y-74750000D01*
X64642856Y-75107143D01*
X64714284Y-75392857D01*
X64785713Y-75535714D01*
X64857142Y-75607143D01*
X64999999Y-75678571D01*
X65142856Y-75678571D01*
X65285713Y-75607143D01*
X65357142Y-75535714D01*
X65428570Y-75392857D01*
X65499999Y-75107143D01*
X65499999Y-74750000D01*
X65428570Y-74464286D01*
X65357142Y-74321429D01*
X65285713Y-74250000D01*
X65142856Y-74178571D01*
X64142856Y-74178571D02*
X63214285Y-74178571D01*
X63714285Y-74750000D01*
X63499999Y-74750000D01*
X63357142Y-74821429D01*
X63285713Y-74892857D01*
X63214285Y-75035714D01*
X63214285Y-75392857D01*
X63285713Y-75535714D01*
X63357142Y-75607143D01*
X63499999Y-75678571D01*
X63928571Y-75678571D01*
X64071428Y-75607143D01*
X64142856Y-75535714D01*
X62571428Y-75107143D02*
X61428571Y-75107143D01*
X60428571Y-74178571D02*
X60285714Y-74178571D01*
X60142857Y-74250000D01*
X60071428Y-74321429D01*
X59999999Y-74464286D01*
X59928571Y-74750000D01*
X59928571Y-75107143D01*
X59999999Y-75392857D01*
X60071428Y-75535714D01*
X60142857Y-75607143D01*
X60285714Y-75678571D01*
X60428571Y-75678571D01*
X60571428Y-75607143D01*
X60642857Y-75535714D01*
X60714285Y-75392857D01*
X60785714Y-75107143D01*
X60785714Y-74750000D01*
X60714285Y-74464286D01*
X60642857Y-74321429D01*
X60571428Y-74250000D01*
X60428571Y-74178571D01*
X58642857Y-74678571D02*
X58642857Y-75678571D01*
X59000000Y-74107143D02*
X59357143Y-75178571D01*
X58428571Y-75178571D01*
X65142856Y-89178571D02*
X64999999Y-89178571D01*
X64857142Y-89250000D01*
X64785713Y-89321429D01*
X64714284Y-89464286D01*
X64642856Y-89750000D01*
X64642856Y-90107143D01*
X64714284Y-90392857D01*
X64785713Y-90535714D01*
X64857142Y-90607143D01*
X64999999Y-90678571D01*
X65142856Y-90678571D01*
X65285713Y-90607143D01*
X65357142Y-90535714D01*
X65428570Y-90392857D01*
X65499999Y-90107143D01*
X65499999Y-89750000D01*
X65428570Y-89464286D01*
X65357142Y-89321429D01*
X65285713Y-89250000D01*
X65142856Y-89178571D01*
X64142856Y-89178571D02*
X63214285Y-89178571D01*
X63714285Y-89750000D01*
X63499999Y-89750000D01*
X63357142Y-89821429D01*
X63285713Y-89892857D01*
X63214285Y-90035714D01*
X63214285Y-90392857D01*
X63285713Y-90535714D01*
X63357142Y-90607143D01*
X63499999Y-90678571D01*
X63928571Y-90678571D01*
X64071428Y-90607143D01*
X64142856Y-90535714D01*
X62571428Y-90107143D02*
X61428571Y-90107143D01*
X60428571Y-89178571D02*
X60285714Y-89178571D01*
X60142857Y-89250000D01*
X60071428Y-89321429D01*
X59999999Y-89464286D01*
X59928571Y-89750000D01*
X59928571Y-90107143D01*
X59999999Y-90392857D01*
X60071428Y-90535714D01*
X60142857Y-90607143D01*
X60285714Y-90678571D01*
X60428571Y-90678571D01*
X60571428Y-90607143D01*
X60642857Y-90535714D01*
X60714285Y-90392857D01*
X60785714Y-90107143D01*
X60785714Y-89750000D01*
X60714285Y-89464286D01*
X60642857Y-89321429D01*
X60571428Y-89250000D01*
X60428571Y-89178571D01*
X58571428Y-89178571D02*
X59285714Y-89178571D01*
X59357143Y-89892857D01*
X59285714Y-89821429D01*
X59142857Y-89750000D01*
X58785714Y-89750000D01*
X58642857Y-89821429D01*
X58571428Y-89892857D01*
X58500000Y-90035714D01*
X58500000Y-90392857D01*
X58571428Y-90535714D01*
X58642857Y-90607143D01*
X58785714Y-90678571D01*
X59142857Y-90678571D01*
X59285714Y-90607143D01*
X59357143Y-90535714D01*
X65142856Y-104178571D02*
X64999999Y-104178571D01*
X64857142Y-104250000D01*
X64785713Y-104321429D01*
X64714284Y-104464286D01*
X64642856Y-104750000D01*
X64642856Y-105107143D01*
X64714284Y-105392857D01*
X64785713Y-105535714D01*
X64857142Y-105607143D01*
X64999999Y-105678571D01*
X65142856Y-105678571D01*
X65285713Y-105607143D01*
X65357142Y-105535714D01*
X65428570Y-105392857D01*
X65499999Y-105107143D01*
X65499999Y-104750000D01*
X65428570Y-104464286D01*
X65357142Y-104321429D01*
X65285713Y-104250000D01*
X65142856Y-104178571D01*
X64142856Y-104178571D02*
X63214285Y-104178571D01*
X63714285Y-104750000D01*
X63499999Y-104750000D01*
X63357142Y-104821429D01*
X63285713Y-104892857D01*
X63214285Y-105035714D01*
X63214285Y-105392857D01*
X63285713Y-105535714D01*
X63357142Y-105607143D01*
X63499999Y-105678571D01*
X63928571Y-105678571D01*
X64071428Y-105607143D01*
X64142856Y-105535714D01*
X62571428Y-105107143D02*
X61428571Y-105107143D01*
X60428571Y-104178571D02*
X60285714Y-104178571D01*
X60142857Y-104250000D01*
X60071428Y-104321429D01*
X59999999Y-104464286D01*
X59928571Y-104750000D01*
X59928571Y-105107143D01*
X59999999Y-105392857D01*
X60071428Y-105535714D01*
X60142857Y-105607143D01*
X60285714Y-105678571D01*
X60428571Y-105678571D01*
X60571428Y-105607143D01*
X60642857Y-105535714D01*
X60714285Y-105392857D01*
X60785714Y-105107143D01*
X60785714Y-104750000D01*
X60714285Y-104464286D01*
X60642857Y-104321429D01*
X60571428Y-104250000D01*
X60428571Y-104178571D01*
X58642857Y-104178571D02*
X58928571Y-104178571D01*
X59071428Y-104250000D01*
X59142857Y-104321429D01*
X59285714Y-104535714D01*
X59357143Y-104821429D01*
X59357143Y-105392857D01*
X59285714Y-105535714D01*
X59214286Y-105607143D01*
X59071428Y-105678571D01*
X58785714Y-105678571D01*
X58642857Y-105607143D01*
X58571428Y-105535714D01*
X58500000Y-105392857D01*
X58500000Y-105035714D01*
X58571428Y-104892857D01*
X58642857Y-104821429D01*
X58785714Y-104750000D01*
X59071428Y-104750000D01*
X59214286Y-104821429D01*
X59285714Y-104892857D01*
X59357143Y-105035714D01*
X80142856Y-29178571D02*
X79999999Y-29178571D01*
X79857142Y-29250000D01*
X79785713Y-29321429D01*
X79714284Y-29464286D01*
X79642856Y-29750000D01*
X79642856Y-30107143D01*
X79714284Y-30392857D01*
X79785713Y-30535714D01*
X79857142Y-30607143D01*
X79999999Y-30678571D01*
X80142856Y-30678571D01*
X80285713Y-30607143D01*
X80357142Y-30535714D01*
X80428570Y-30392857D01*
X80499999Y-30107143D01*
X80499999Y-29750000D01*
X80428570Y-29464286D01*
X80357142Y-29321429D01*
X80285713Y-29250000D01*
X80142856Y-29178571D01*
X78357142Y-29678571D02*
X78357142Y-30678571D01*
X78714285Y-29107143D02*
X79071428Y-30178571D01*
X78142856Y-30178571D01*
X77571428Y-30107143D02*
X76428571Y-30107143D01*
X75428571Y-29178571D02*
X75285714Y-29178571D01*
X75142857Y-29250000D01*
X75071428Y-29321429D01*
X74999999Y-29464286D01*
X74928571Y-29750000D01*
X74928571Y-30107143D01*
X74999999Y-30392857D01*
X75071428Y-30535714D01*
X75142857Y-30607143D01*
X75285714Y-30678571D01*
X75428571Y-30678571D01*
X75571428Y-30607143D01*
X75642857Y-30535714D01*
X75714285Y-30392857D01*
X75785714Y-30107143D01*
X75785714Y-29750000D01*
X75714285Y-29464286D01*
X75642857Y-29321429D01*
X75571428Y-29250000D01*
X75428571Y-29178571D01*
X73500000Y-30678571D02*
X74357143Y-30678571D01*
X73928571Y-30678571D02*
X73928571Y-29178571D01*
X74071428Y-29392857D01*
X74214286Y-29535714D01*
X74357143Y-29607143D01*
X80142856Y-44178571D02*
X79999999Y-44178571D01*
X79857142Y-44250000D01*
X79785713Y-44321429D01*
X79714284Y-44464286D01*
X79642856Y-44750000D01*
X79642856Y-45107143D01*
X79714284Y-45392857D01*
X79785713Y-45535714D01*
X79857142Y-45607143D01*
X79999999Y-45678571D01*
X80142856Y-45678571D01*
X80285713Y-45607143D01*
X80357142Y-45535714D01*
X80428570Y-45392857D01*
X80499999Y-45107143D01*
X80499999Y-44750000D01*
X80428570Y-44464286D01*
X80357142Y-44321429D01*
X80285713Y-44250000D01*
X80142856Y-44178571D01*
X78357142Y-44678571D02*
X78357142Y-45678571D01*
X78714285Y-44107143D02*
X79071428Y-45178571D01*
X78142856Y-45178571D01*
X77571428Y-45107143D02*
X76428571Y-45107143D01*
X75428571Y-44178571D02*
X75285714Y-44178571D01*
X75142857Y-44250000D01*
X75071428Y-44321429D01*
X74999999Y-44464286D01*
X74928571Y-44750000D01*
X74928571Y-45107143D01*
X74999999Y-45392857D01*
X75071428Y-45535714D01*
X75142857Y-45607143D01*
X75285714Y-45678571D01*
X75428571Y-45678571D01*
X75571428Y-45607143D01*
X75642857Y-45535714D01*
X75714285Y-45392857D01*
X75785714Y-45107143D01*
X75785714Y-44750000D01*
X75714285Y-44464286D01*
X75642857Y-44321429D01*
X75571428Y-44250000D01*
X75428571Y-44178571D01*
X74357143Y-44321429D02*
X74285714Y-44250000D01*
X74142857Y-44178571D01*
X73785714Y-44178571D01*
X73642857Y-44250000D01*
X73571428Y-44321429D01*
X73500000Y-44464286D01*
X73500000Y-44607143D01*
X73571428Y-44821429D01*
X74428571Y-45678571D01*
X73500000Y-45678571D01*
X80142856Y-59178571D02*
X79999999Y-59178571D01*
X79857142Y-59250000D01*
X79785713Y-59321429D01*
X79714284Y-59464286D01*
X79642856Y-59750000D01*
X79642856Y-60107143D01*
X79714284Y-60392857D01*
X79785713Y-60535714D01*
X79857142Y-60607143D01*
X79999999Y-60678571D01*
X80142856Y-60678571D01*
X80285713Y-60607143D01*
X80357142Y-60535714D01*
X80428570Y-60392857D01*
X80499999Y-60107143D01*
X80499999Y-59750000D01*
X80428570Y-59464286D01*
X80357142Y-59321429D01*
X80285713Y-59250000D01*
X80142856Y-59178571D01*
X78357142Y-59678571D02*
X78357142Y-60678571D01*
X78714285Y-59107143D02*
X79071428Y-60178571D01*
X78142856Y-60178571D01*
X77571428Y-60107143D02*
X76428571Y-60107143D01*
X75428571Y-59178571D02*
X75285714Y-59178571D01*
X75142857Y-59250000D01*
X75071428Y-59321429D01*
X74999999Y-59464286D01*
X74928571Y-59750000D01*
X74928571Y-60107143D01*
X74999999Y-60392857D01*
X75071428Y-60535714D01*
X75142857Y-60607143D01*
X75285714Y-60678571D01*
X75428571Y-60678571D01*
X75571428Y-60607143D01*
X75642857Y-60535714D01*
X75714285Y-60392857D01*
X75785714Y-60107143D01*
X75785714Y-59750000D01*
X75714285Y-59464286D01*
X75642857Y-59321429D01*
X75571428Y-59250000D01*
X75428571Y-59178571D01*
X74428571Y-59178571D02*
X73500000Y-59178571D01*
X74000000Y-59750000D01*
X73785714Y-59750000D01*
X73642857Y-59821429D01*
X73571428Y-59892857D01*
X73500000Y-60035714D01*
X73500000Y-60392857D01*
X73571428Y-60535714D01*
X73642857Y-60607143D01*
X73785714Y-60678571D01*
X74214286Y-60678571D01*
X74357143Y-60607143D01*
X74428571Y-60535714D01*
X80142856Y-74178571D02*
X79999999Y-74178571D01*
X79857142Y-74250000D01*
X79785713Y-74321429D01*
X79714284Y-74464286D01*
X79642856Y-74750000D01*
X79642856Y-75107143D01*
X79714284Y-75392857D01*
X79785713Y-75535714D01*
X79857142Y-75607143D01*
X79999999Y-75678571D01*
X80142856Y-75678571D01*
X80285713Y-75607143D01*
X80357142Y-75535714D01*
X80428570Y-75392857D01*
X80499999Y-75107143D01*
X80499999Y-74750000D01*
X80428570Y-74464286D01*
X80357142Y-74321429D01*
X80285713Y-74250000D01*
X80142856Y-74178571D01*
X78357142Y-74678571D02*
X78357142Y-75678571D01*
X78714285Y-74107143D02*
X79071428Y-75178571D01*
X78142856Y-75178571D01*
X77571428Y-75107143D02*
X76428571Y-75107143D01*
X75428571Y-74178571D02*
X75285714Y-74178571D01*
X75142857Y-74250000D01*
X75071428Y-74321429D01*
X74999999Y-74464286D01*
X74928571Y-74750000D01*
X74928571Y-75107143D01*
X74999999Y-75392857D01*
X75071428Y-75535714D01*
X75142857Y-75607143D01*
X75285714Y-75678571D01*
X75428571Y-75678571D01*
X75571428Y-75607143D01*
X75642857Y-75535714D01*
X75714285Y-75392857D01*
X75785714Y-75107143D01*
X75785714Y-74750000D01*
X75714285Y-74464286D01*
X75642857Y-74321429D01*
X75571428Y-74250000D01*
X75428571Y-74178571D01*
X73642857Y-74678571D02*
X73642857Y-75678571D01*
X74000000Y-74107143D02*
X74357143Y-75178571D01*
X73428571Y-75178571D01*
X80142856Y-89178571D02*
X79999999Y-89178571D01*
X79857142Y-89250000D01*
X79785713Y-89321429D01*
X79714284Y-89464286D01*
X79642856Y-89750000D01*
X79642856Y-90107143D01*
X79714284Y-90392857D01*
X79785713Y-90535714D01*
X79857142Y-90607143D01*
X79999999Y-90678571D01*
X80142856Y-90678571D01*
X80285713Y-90607143D01*
X80357142Y-90535714D01*
X80428570Y-90392857D01*
X80499999Y-90107143D01*
X80499999Y-89750000D01*
X80428570Y-89464286D01*
X80357142Y-89321429D01*
X80285713Y-89250000D01*
X80142856Y-89178571D01*
X78357142Y-89678571D02*
X78357142Y-90678571D01*
X78714285Y-89107143D02*
X79071428Y-90178571D01*
X78142856Y-90178571D01*
X77571428Y-90107143D02*
X76428571Y-90107143D01*
X75428571Y-89178571D02*
X75285714Y-89178571D01*
X75142857Y-89250000D01*
X75071428Y-89321429D01*
X74999999Y-89464286D01*
X74928571Y-89750000D01*
X74928571Y-90107143D01*
X74999999Y-90392857D01*
X75071428Y-90535714D01*
X75142857Y-90607143D01*
X75285714Y-90678571D01*
X75428571Y-90678571D01*
X75571428Y-90607143D01*
X75642857Y-90535714D01*
X75714285Y-90392857D01*
X75785714Y-90107143D01*
X75785714Y-89750000D01*
X75714285Y-89464286D01*
X75642857Y-89321429D01*
X75571428Y-89250000D01*
X75428571Y-89178571D01*
X73571428Y-89178571D02*
X74285714Y-89178571D01*
X74357143Y-89892857D01*
X74285714Y-89821429D01*
X74142857Y-89750000D01*
X73785714Y-89750000D01*
X73642857Y-89821429D01*
X73571428Y-89892857D01*
X73500000Y-90035714D01*
X73500000Y-90392857D01*
X73571428Y-90535714D01*
X73642857Y-90607143D01*
X73785714Y-90678571D01*
X74142857Y-90678571D01*
X74285714Y-90607143D01*
X74357143Y-90535714D01*
X80142856Y-104178571D02*
X79999999Y-104178571D01*
X79857142Y-104250000D01*
X79785713Y-104321429D01*
X79714284Y-104464286D01*
X79642856Y-104750000D01*
X79642856Y-105107143D01*
X79714284Y-105392857D01*
X79785713Y-105535714D01*
X79857142Y-105607143D01*
X79999999Y-105678571D01*
X80142856Y-105678571D01*
X80285713Y-105607143D01*
X80357142Y-105535714D01*
X80428570Y-105392857D01*
X80499999Y-105107143D01*
X80499999Y-104750000D01*
X80428570Y-104464286D01*
X80357142Y-104321429D01*
X80285713Y-104250000D01*
X80142856Y-104178571D01*
X78357142Y-104678571D02*
X78357142Y-105678571D01*
X78714285Y-104107143D02*
X79071428Y-105178571D01*
X78142856Y-105178571D01*
X77571428Y-105107143D02*
X76428571Y-105107143D01*
X75428571Y-104178571D02*
X75285714Y-104178571D01*
X75142857Y-104250000D01*
X75071428Y-104321429D01*
X74999999Y-104464286D01*
X74928571Y-104750000D01*
X74928571Y-105107143D01*
X74999999Y-105392857D01*
X75071428Y-105535714D01*
X75142857Y-105607143D01*
X75285714Y-105678571D01*
X75428571Y-105678571D01*
X75571428Y-105607143D01*
X75642857Y-105535714D01*
X75714285Y-105392857D01*
X75785714Y-105107143D01*
X75785714Y-104750000D01*
X75714285Y-104464286D01*
X75642857Y-104321429D01*
X75571428Y-104250000D01*
X75428571Y-104178571D01*
X73642857Y-104178571D02*
X73928571Y-104178571D01*
X74071428Y-104250000D01*
X74142857Y-104321429D01*
X74285714Y-104535714D01*
X74357143Y-104821429D01*
X74357143Y-105392857D01*
X74285714Y-105535714D01*
X74214286Y-105607143D01*
X74071428Y-105678571D01*
X73785714Y-105678571D01*
X73642857Y-105607143D01*
X73571428Y-105535714D01*
X73500000Y-105392857D01*
X73500000Y-105035714D01*
X73571428Y-104892857D01*
X73642857Y-104821429D01*
X73785714Y-104750000D01*
X74071428Y-104750000D01*
X74214286Y-104821429D01*
X74285714Y-104892857D01*
X74357143Y-105035714D01*
X95142856Y-29178571D02*
X94999999Y-29178571D01*
X94857142Y-29250000D01*
X94785713Y-29321429D01*
X94714284Y-29464286D01*
X94642856Y-29750000D01*
X94642856Y-30107143D01*
X94714284Y-30392857D01*
X94785713Y-30535714D01*
X94857142Y-30607143D01*
X94999999Y-30678571D01*
X95142856Y-30678571D01*
X95285713Y-30607143D01*
X95357142Y-30535714D01*
X95428570Y-30392857D01*
X95499999Y-30107143D01*
X95499999Y-29750000D01*
X95428570Y-29464286D01*
X95357142Y-29321429D01*
X95285713Y-29250000D01*
X95142856Y-29178571D01*
X93285713Y-29178571D02*
X93999999Y-29178571D01*
X94071428Y-29892857D01*
X93999999Y-29821429D01*
X93857142Y-29750000D01*
X93499999Y-29750000D01*
X93357142Y-29821429D01*
X93285713Y-29892857D01*
X93214285Y-30035714D01*
X93214285Y-30392857D01*
X93285713Y-30535714D01*
X93357142Y-30607143D01*
X93499999Y-30678571D01*
X93857142Y-30678571D01*
X93999999Y-30607143D01*
X94071428Y-30535714D01*
X92571428Y-30107143D02*
X91428571Y-30107143D01*
X90428571Y-29178571D02*
X90285714Y-29178571D01*
X90142857Y-29250000D01*
X90071428Y-29321429D01*
X89999999Y-29464286D01*
X89928571Y-29750000D01*
X89928571Y-30107143D01*
X89999999Y-30392857D01*
X90071428Y-30535714D01*
X90142857Y-30607143D01*
X90285714Y-30678571D01*
X90428571Y-30678571D01*
X90571428Y-30607143D01*
X90642857Y-30535714D01*
X90714285Y-30392857D01*
X90785714Y-30107143D01*
X90785714Y-29750000D01*
X90714285Y-29464286D01*
X90642857Y-29321429D01*
X90571428Y-29250000D01*
X90428571Y-29178571D01*
X88500000Y-30678571D02*
X89357143Y-30678571D01*
X88928571Y-30678571D02*
X88928571Y-29178571D01*
X89071428Y-29392857D01*
X89214286Y-29535714D01*
X89357143Y-29607143D01*
X95142856Y-44178571D02*
X94999999Y-44178571D01*
X94857142Y-44250000D01*
X94785713Y-44321429D01*
X94714284Y-44464286D01*
X94642856Y-44750000D01*
X94642856Y-45107143D01*
X94714284Y-45392857D01*
X94785713Y-45535714D01*
X94857142Y-45607143D01*
X94999999Y-45678571D01*
X95142856Y-45678571D01*
X95285713Y-45607143D01*
X95357142Y-45535714D01*
X95428570Y-45392857D01*
X95499999Y-45107143D01*
X95499999Y-44750000D01*
X95428570Y-44464286D01*
X95357142Y-44321429D01*
X95285713Y-44250000D01*
X95142856Y-44178571D01*
X93285713Y-44178571D02*
X93999999Y-44178571D01*
X94071428Y-44892857D01*
X93999999Y-44821429D01*
X93857142Y-44750000D01*
X93499999Y-44750000D01*
X93357142Y-44821429D01*
X93285713Y-44892857D01*
X93214285Y-45035714D01*
X93214285Y-45392857D01*
X93285713Y-45535714D01*
X93357142Y-45607143D01*
X93499999Y-45678571D01*
X93857142Y-45678571D01*
X93999999Y-45607143D01*
X94071428Y-45535714D01*
X92571428Y-45107143D02*
X91428571Y-45107143D01*
X90428571Y-44178571D02*
X90285714Y-44178571D01*
X90142857Y-44250000D01*
X90071428Y-44321429D01*
X89999999Y-44464286D01*
X89928571Y-44750000D01*
X89928571Y-45107143D01*
X89999999Y-45392857D01*
X90071428Y-45535714D01*
X90142857Y-45607143D01*
X90285714Y-45678571D01*
X90428571Y-45678571D01*
X90571428Y-45607143D01*
X90642857Y-45535714D01*
X90714285Y-45392857D01*
X90785714Y-45107143D01*
X90785714Y-44750000D01*
X90714285Y-44464286D01*
X90642857Y-44321429D01*
X90571428Y-44250000D01*
X90428571Y-44178571D01*
X89357143Y-44321429D02*
X89285714Y-44250000D01*
X89142857Y-44178571D01*
X88785714Y-44178571D01*
X88642857Y-44250000D01*
X88571428Y-44321429D01*
X88500000Y-44464286D01*
X88500000Y-44607143D01*
X88571428Y-44821429D01*
X89428571Y-45678571D01*
X88500000Y-45678571D01*
X95142856Y-59178571D02*
X94999999Y-59178571D01*
X94857142Y-59250000D01*
X94785713Y-59321429D01*
X94714284Y-59464286D01*
X94642856Y-59750000D01*
X94642856Y-60107143D01*
X94714284Y-60392857D01*
X94785713Y-60535714D01*
X94857142Y-60607143D01*
X94999999Y-60678571D01*
X95142856Y-60678571D01*
X95285713Y-60607143D01*
X95357142Y-60535714D01*
X95428570Y-60392857D01*
X95499999Y-60107143D01*
X95499999Y-59750000D01*
X95428570Y-59464286D01*
X95357142Y-59321429D01*
X95285713Y-59250000D01*
X95142856Y-59178571D01*
X93285713Y-59178571D02*
X93999999Y-59178571D01*
X94071428Y-59892857D01*
X93999999Y-59821429D01*
X93857142Y-59750000D01*
X93499999Y-59750000D01*
X93357142Y-59821429D01*
X93285713Y-59892857D01*
X93214285Y-60035714D01*
X93214285Y-60392857D01*
X93285713Y-60535714D01*
X93357142Y-60607143D01*
X93499999Y-60678571D01*
X93857142Y-60678571D01*
X93999999Y-60607143D01*
X94071428Y-60535714D01*
X92571428Y-60107143D02*
X91428571Y-60107143D01*
X90428571Y-59178571D02*
X90285714Y-59178571D01*
X90142857Y-59250000D01*
X90071428Y-59321429D01*
X89999999Y-59464286D01*
X89928571Y-59750000D01*
X89928571Y-60107143D01*
X89999999Y-60392857D01*
X90071428Y-60535714D01*
X90142857Y-60607143D01*
X90285714Y-60678571D01*
X90428571Y-60678571D01*
X90571428Y-60607143D01*
X90642857Y-60535714D01*
X90714285Y-60392857D01*
X90785714Y-60107143D01*
X90785714Y-59750000D01*
X90714285Y-59464286D01*
X90642857Y-59321429D01*
X90571428Y-59250000D01*
X90428571Y-59178571D01*
X89428571Y-59178571D02*
X88500000Y-59178571D01*
X89000000Y-59750000D01*
X88785714Y-59750000D01*
X88642857Y-59821429D01*
X88571428Y-59892857D01*
X88500000Y-60035714D01*
X88500000Y-60392857D01*
X88571428Y-60535714D01*
X88642857Y-60607143D01*
X88785714Y-60678571D01*
X89214286Y-60678571D01*
X89357143Y-60607143D01*
X89428571Y-60535714D01*
X95142856Y-74178571D02*
X94999999Y-74178571D01*
X94857142Y-74250000D01*
X94785713Y-74321429D01*
X94714284Y-74464286D01*
X94642856Y-74750000D01*
X94642856Y-75107143D01*
X94714284Y-75392857D01*
X94785713Y-75535714D01*
X94857142Y-75607143D01*
X94999999Y-75678571D01*
X95142856Y-75678571D01*
X95285713Y-75607143D01*
X95357142Y-75535714D01*
X95428570Y-75392857D01*
X95499999Y-75107143D01*
X95499999Y-74750000D01*
X95428570Y-74464286D01*
X95357142Y-74321429D01*
X95285713Y-74250000D01*
X95142856Y-74178571D01*
X93285713Y-74178571D02*
X93999999Y-74178571D01*
X94071428Y-74892857D01*
X93999999Y-74821429D01*
X93857142Y-74750000D01*
X93499999Y-74750000D01*
X93357142Y-74821429D01*
X93285713Y-74892857D01*
X93214285Y-75035714D01*
X93214285Y-75392857D01*
X93285713Y-75535714D01*
X93357142Y-75607143D01*
X93499999Y-75678571D01*
X93857142Y-75678571D01*
X93999999Y-75607143D01*
X94071428Y-75535714D01*
X92571428Y-75107143D02*
X91428571Y-75107143D01*
X90428571Y-74178571D02*
X90285714Y-74178571D01*
X90142857Y-74250000D01*
X90071428Y-74321429D01*
X89999999Y-74464286D01*
X89928571Y-74750000D01*
X89928571Y-75107143D01*
X89999999Y-75392857D01*
X90071428Y-75535714D01*
X90142857Y-75607143D01*
X90285714Y-75678571D01*
X90428571Y-75678571D01*
X90571428Y-75607143D01*
X90642857Y-75535714D01*
X90714285Y-75392857D01*
X90785714Y-75107143D01*
X90785714Y-74750000D01*
X90714285Y-74464286D01*
X90642857Y-74321429D01*
X90571428Y-74250000D01*
X90428571Y-74178571D01*
X88642857Y-74678571D02*
X88642857Y-75678571D01*
X89000000Y-74107143D02*
X89357143Y-75178571D01*
X88428571Y-75178571D01*
X95142856Y-89178571D02*
X94999999Y-89178571D01*
X94857142Y-89250000D01*
X94785713Y-89321429D01*
X94714284Y-89464286D01*
X94642856Y-89750000D01*
X94642856Y-90107143D01*
X94714284Y-90392857D01*
X94785713Y-90535714D01*
X94857142Y-90607143D01*
X94999999Y-90678571D01*
X95142856Y-90678571D01*
X95285713Y-90607143D01*
X95357142Y-90535714D01*
X95428570Y-90392857D01*
X95499999Y-90107143D01*
X95499999Y-89750000D01*
X95428570Y-89464286D01*
X95357142Y-89321429D01*
X95285713Y-89250000D01*
X95142856Y-89178571D01*
X93285713Y-89178571D02*
X93999999Y-89178571D01*
X94071428Y-89892857D01*
X93999999Y-89821429D01*
X93857142Y-89750000D01*
X93499999Y-89750000D01*
X93357142Y-89821429D01*
X93285713Y-89892857D01*
X93214285Y-90035714D01*
X93214285Y-90392857D01*
X93285713Y-90535714D01*
X93357142Y-90607143D01*
X93499999Y-90678571D01*
X93857142Y-90678571D01*
X93999999Y-90607143D01*
X94071428Y-90535714D01*
X92571428Y-90107143D02*
X91428571Y-90107143D01*
X90428571Y-89178571D02*
X90285714Y-89178571D01*
X90142857Y-89250000D01*
X90071428Y-89321429D01*
X89999999Y-89464286D01*
X89928571Y-89750000D01*
X89928571Y-90107143D01*
X89999999Y-90392857D01*
X90071428Y-90535714D01*
X90142857Y-90607143D01*
X90285714Y-90678571D01*
X90428571Y-90678571D01*
X90571428Y-90607143D01*
X90642857Y-90535714D01*
X90714285Y-90392857D01*
X90785714Y-90107143D01*
X90785714Y-89750000D01*
X90714285Y-89464286D01*
X90642857Y-89321429D01*
X90571428Y-89250000D01*
X90428571Y-89178571D01*
X88571428Y-89178571D02*
X89285714Y-89178571D01*
X89357143Y-89892857D01*
X89285714Y-89821429D01*
X89142857Y-89750000D01*
X88785714Y-89750000D01*
X88642857Y-89821429D01*
X88571428Y-89892857D01*
X88500000Y-90035714D01*
X88500000Y-90392857D01*
X88571428Y-90535714D01*
X88642857Y-90607143D01*
X88785714Y-90678571D01*
X89142857Y-90678571D01*
X89285714Y-90607143D01*
X89357143Y-90535714D01*
X95142856Y-104178571D02*
X94999999Y-104178571D01*
X94857142Y-104250000D01*
X94785713Y-104321429D01*
X94714284Y-104464286D01*
X94642856Y-104750000D01*
X94642856Y-105107143D01*
X94714284Y-105392857D01*
X94785713Y-105535714D01*
X94857142Y-105607143D01*
X94999999Y-105678571D01*
X95142856Y-105678571D01*
X95285713Y-105607143D01*
X95357142Y-105535714D01*
X95428570Y-105392857D01*
X95499999Y-105107143D01*
X95499999Y-104750000D01*
X95428570Y-104464286D01*
X95357142Y-104321429D01*
X95285713Y-104250000D01*
X95142856Y-104178571D01*
X93285713Y-104178571D02*
X93999999Y-104178571D01*
X94071428Y-104892857D01*
X93999999Y-104821429D01*
X93857142Y-104750000D01*
X93499999Y-104750000D01*
X93357142Y-104821429D01*
X93285713Y-104892857D01*
X93214285Y-105035714D01*
X93214285Y-105392857D01*
X93285713Y-105535714D01*
X93357142Y-105607143D01*
X93499999Y-105678571D01*
X93857142Y-105678571D01*
X93999999Y-105607143D01*
X94071428Y-105535714D01*
X92571428Y-105107143D02*
X91428571Y-105107143D01*
X90428571Y-104178571D02*
X90285714Y-104178571D01*
X90142857Y-104250000D01*
X90071428Y-104321429D01*
X89999999Y-104464286D01*
X89928571Y-104750000D01*
X89928571Y-105107143D01*
X89999999Y-105392857D01*
X90071428Y-105535714D01*
X90142857Y-105607143D01*
X90285714Y-105678571D01*
X90428571Y-105678571D01*
X90571428Y-105607143D01*
X90642857Y-105535714D01*
X90714285Y-105392857D01*
X90785714Y-105107143D01*
X90785714Y-104750000D01*
X90714285Y-104464286D01*
X90642857Y-104321429D01*
X90571428Y-104250000D01*
X90428571Y-104178571D01*
X88642857Y-104178571D02*
X88928571Y-104178571D01*
X89071428Y-104250000D01*
X89142857Y-104321429D01*
X89285714Y-104535714D01*
X89357143Y-104821429D01*
X89357143Y-105392857D01*
X89285714Y-105535714D01*
X89214286Y-105607143D01*
X89071428Y-105678571D01*
X88785714Y-105678571D01*
X88642857Y-105607143D01*
X88571428Y-105535714D01*
X88500000Y-105392857D01*
X88500000Y-105035714D01*
X88571428Y-104892857D01*
X88642857Y-104821429D01*
X88785714Y-104750000D01*
X89071428Y-104750000D01*
X89214286Y-104821429D01*
X89285714Y-104892857D01*
X89357143Y-105035714D01*
X110142856Y-29178571D02*
X109999999Y-29178571D01*
X109857142Y-29250000D01*
X109785713Y-29321429D01*
X109714284Y-29464286D01*
X109642856Y-29750000D01*
X109642856Y-30107143D01*
X109714284Y-30392857D01*
X109785713Y-30535714D01*
X109857142Y-30607143D01*
X109999999Y-30678571D01*
X110142856Y-30678571D01*
X110285713Y-30607143D01*
X110357142Y-30535714D01*
X110428570Y-30392857D01*
X110499999Y-30107143D01*
X110499999Y-29750000D01*
X110428570Y-29464286D01*
X110357142Y-29321429D01*
X110285713Y-29250000D01*
X110142856Y-29178571D01*
X108357142Y-29178571D02*
X108642856Y-29178571D01*
X108785713Y-29250000D01*
X108857142Y-29321429D01*
X108999999Y-29535714D01*
X109071428Y-29821429D01*
X109071428Y-30392857D01*
X108999999Y-30535714D01*
X108928571Y-30607143D01*
X108785713Y-30678571D01*
X108499999Y-30678571D01*
X108357142Y-30607143D01*
X108285713Y-30535714D01*
X108214285Y-30392857D01*
X108214285Y-30035714D01*
X108285713Y-29892857D01*
X108357142Y-29821429D01*
X108499999Y-29750000D01*
X108785713Y-29750000D01*
X108928571Y-29821429D01*
X108999999Y-29892857D01*
X109071428Y-30035714D01*
X107571428Y-30107143D02*
X106428571Y-30107143D01*
X105428571Y-29178571D02*
X105285714Y-29178571D01*
X105142857Y-29250000D01*
X105071428Y-29321429D01*
X104999999Y-29464286D01*
X104928571Y-29750000D01*
X104928571Y-30107143D01*
X104999999Y-30392857D01*
X105071428Y-30535714D01*
X105142857Y-30607143D01*
X105285714Y-30678571D01*
X105428571Y-30678571D01*
X105571428Y-30607143D01*
X105642857Y-30535714D01*
X105714285Y-30392857D01*
X105785714Y-30107143D01*
X105785714Y-29750000D01*
X105714285Y-29464286D01*
X105642857Y-29321429D01*
X105571428Y-29250000D01*
X105428571Y-29178571D01*
X103500000Y-30678571D02*
X104357143Y-30678571D01*
X103928571Y-30678571D02*
X103928571Y-29178571D01*
X104071428Y-29392857D01*
X104214286Y-29535714D01*
X104357143Y-29607143D01*
X110142856Y-44178571D02*
X109999999Y-44178571D01*
X109857142Y-44250000D01*
X109785713Y-44321429D01*
X109714284Y-44464286D01*
X109642856Y-44750000D01*
X109642856Y-45107143D01*
X109714284Y-45392857D01*
X109785713Y-45535714D01*
X109857142Y-45607143D01*
X109999999Y-45678571D01*
X110142856Y-45678571D01*
X110285713Y-45607143D01*
X110357142Y-45535714D01*
X110428570Y-45392857D01*
X110499999Y-45107143D01*
X110499999Y-44750000D01*
X110428570Y-44464286D01*
X110357142Y-44321429D01*
X110285713Y-44250000D01*
X110142856Y-44178571D01*
X108357142Y-44178571D02*
X108642856Y-44178571D01*
X108785713Y-44250000D01*
X108857142Y-44321429D01*
X108999999Y-44535714D01*
X109071428Y-44821429D01*
X109071428Y-45392857D01*
X108999999Y-45535714D01*
X108928571Y-45607143D01*
X108785713Y-45678571D01*
X108499999Y-45678571D01*
X108357142Y-45607143D01*
X108285713Y-45535714D01*
X108214285Y-45392857D01*
X108214285Y-45035714D01*
X108285713Y-44892857D01*
X108357142Y-44821429D01*
X108499999Y-44750000D01*
X108785713Y-44750000D01*
X108928571Y-44821429D01*
X108999999Y-44892857D01*
X109071428Y-45035714D01*
X107571428Y-45107143D02*
X106428571Y-45107143D01*
X105428571Y-44178571D02*
X105285714Y-44178571D01*
X105142857Y-44250000D01*
X105071428Y-44321429D01*
X104999999Y-44464286D01*
X104928571Y-44750000D01*
X104928571Y-45107143D01*
X104999999Y-45392857D01*
X105071428Y-45535714D01*
X105142857Y-45607143D01*
X105285714Y-45678571D01*
X105428571Y-45678571D01*
X105571428Y-45607143D01*
X105642857Y-45535714D01*
X105714285Y-45392857D01*
X105785714Y-45107143D01*
X105785714Y-44750000D01*
X105714285Y-44464286D01*
X105642857Y-44321429D01*
X105571428Y-44250000D01*
X105428571Y-44178571D01*
X104357143Y-44321429D02*
X104285714Y-44250000D01*
X104142857Y-44178571D01*
X103785714Y-44178571D01*
X103642857Y-44250000D01*
X103571428Y-44321429D01*
X103500000Y-44464286D01*
X103500000Y-44607143D01*
X103571428Y-44821429D01*
X104428571Y-45678571D01*
X103500000Y-45678571D01*
X110142856Y-59178571D02*
X109999999Y-59178571D01*
X109857142Y-59250000D01*
X109785713Y-59321429D01*
X109714284Y-59464286D01*
X109642856Y-59750000D01*
X109642856Y-60107143D01*
X109714284Y-60392857D01*
X109785713Y-60535714D01*
X109857142Y-60607143D01*
X109999999Y-60678571D01*
X110142856Y-60678571D01*
X110285713Y-60607143D01*
X110357142Y-60535714D01*
X110428570Y-60392857D01*
X110499999Y-60107143D01*
X110499999Y-59750000D01*
X110428570Y-59464286D01*
X110357142Y-59321429D01*
X110285713Y-59250000D01*
X110142856Y-59178571D01*
X108357142Y-59178571D02*
X108642856Y-59178571D01*
X108785713Y-59250000D01*
X108857142Y-59321429D01*
X108999999Y-59535714D01*
X109071428Y-59821429D01*
X109071428Y-60392857D01*
X108999999Y-60535714D01*
X108928571Y-60607143D01*
X108785713Y-60678571D01*
X108499999Y-60678571D01*
X108357142Y-60607143D01*
X108285713Y-60535714D01*
X108214285Y-60392857D01*
X108214285Y-60035714D01*
X108285713Y-59892857D01*
X108357142Y-59821429D01*
X108499999Y-59750000D01*
X108785713Y-59750000D01*
X108928571Y-59821429D01*
X108999999Y-59892857D01*
X109071428Y-60035714D01*
X107571428Y-60107143D02*
X106428571Y-60107143D01*
X105428571Y-59178571D02*
X105285714Y-59178571D01*
X105142857Y-59250000D01*
X105071428Y-59321429D01*
X104999999Y-59464286D01*
X104928571Y-59750000D01*
X104928571Y-60107143D01*
X104999999Y-60392857D01*
X105071428Y-60535714D01*
X105142857Y-60607143D01*
X105285714Y-60678571D01*
X105428571Y-60678571D01*
X105571428Y-60607143D01*
X105642857Y-60535714D01*
X105714285Y-60392857D01*
X105785714Y-60107143D01*
X105785714Y-59750000D01*
X105714285Y-59464286D01*
X105642857Y-59321429D01*
X105571428Y-59250000D01*
X105428571Y-59178571D01*
X104428571Y-59178571D02*
X103500000Y-59178571D01*
X104000000Y-59750000D01*
X103785714Y-59750000D01*
X103642857Y-59821429D01*
X103571428Y-59892857D01*
X103500000Y-60035714D01*
X103500000Y-60392857D01*
X103571428Y-60535714D01*
X103642857Y-60607143D01*
X103785714Y-60678571D01*
X104214286Y-60678571D01*
X104357143Y-60607143D01*
X104428571Y-60535714D01*
X110142856Y-74178571D02*
X109999999Y-74178571D01*
X109857142Y-74250000D01*
X109785713Y-74321429D01*
X109714284Y-74464286D01*
X109642856Y-74750000D01*
X109642856Y-75107143D01*
X109714284Y-75392857D01*
X109785713Y-75535714D01*
X109857142Y-75607143D01*
X109999999Y-75678571D01*
X110142856Y-75678571D01*
X110285713Y-75607143D01*
X110357142Y-75535714D01*
X110428570Y-75392857D01*
X110499999Y-75107143D01*
X110499999Y-74750000D01*
X110428570Y-74464286D01*
X110357142Y-74321429D01*
X110285713Y-74250000D01*
X110142856Y-74178571D01*
X108357142Y-74178571D02*
X108642856Y-74178571D01*
X108785713Y-74250000D01*
X108857142Y-74321429D01*
X108999999Y-74535714D01*
X109071428Y-74821429D01*
X109071428Y-75392857D01*
X108999999Y-75535714D01*
X108928571Y-75607143D01*
X108785713Y-75678571D01*
X108499999Y-75678571D01*
X108357142Y-75607143D01*
X108285713Y-75535714D01*
X108214285Y-75392857D01*
X108214285Y-75035714D01*
X108285713Y-74892857D01*
X108357142Y-74821429D01*
X108499999Y-74750000D01*
X108785713Y-74750000D01*
X108928571Y-74821429D01*
X108999999Y-74892857D01*
X109071428Y-75035714D01*
X107571428Y-75107143D02*
X106428571Y-75107143D01*
X105428571Y-74178571D02*
X105285714Y-74178571D01*
X105142857Y-74250000D01*
X105071428Y-74321429D01*
X104999999Y-74464286D01*
X104928571Y-74750000D01*
X104928571Y-75107143D01*
X104999999Y-75392857D01*
X105071428Y-75535714D01*
X105142857Y-75607143D01*
X105285714Y-75678571D01*
X105428571Y-75678571D01*
X105571428Y-75607143D01*
X105642857Y-75535714D01*
X105714285Y-75392857D01*
X105785714Y-75107143D01*
X105785714Y-74750000D01*
X105714285Y-74464286D01*
X105642857Y-74321429D01*
X105571428Y-74250000D01*
X105428571Y-74178571D01*
X103642857Y-74678571D02*
X103642857Y-75678571D01*
X104000000Y-74107143D02*
X104357143Y-75178571D01*
X103428571Y-75178571D01*
X110142856Y-89178571D02*
X109999999Y-89178571D01*
X109857142Y-89250000D01*
X109785713Y-89321429D01*
X109714284Y-89464286D01*
X109642856Y-89750000D01*
X109642856Y-90107143D01*
X109714284Y-90392857D01*
X109785713Y-90535714D01*
X109857142Y-90607143D01*
X109999999Y-90678571D01*
X110142856Y-90678571D01*
X110285713Y-90607143D01*
X110357142Y-90535714D01*
X110428570Y-90392857D01*
X110499999Y-90107143D01*
X110499999Y-89750000D01*
X110428570Y-89464286D01*
X110357142Y-89321429D01*
X110285713Y-89250000D01*
X110142856Y-89178571D01*
X108357142Y-89178571D02*
X108642856Y-89178571D01*
X108785713Y-89250000D01*
X108857142Y-89321429D01*
X108999999Y-89535714D01*
X109071428Y-89821429D01*
X109071428Y-90392857D01*
X108999999Y-90535714D01*
X108928571Y-90607143D01*
X108785713Y-90678571D01*
X108499999Y-90678571D01*
X108357142Y-90607143D01*
X108285713Y-90535714D01*
X108214285Y-90392857D01*
X108214285Y-90035714D01*
X108285713Y-89892857D01*
X108357142Y-89821429D01*
X108499999Y-89750000D01*
X108785713Y-89750000D01*
X108928571Y-89821429D01*
X108999999Y-89892857D01*
X109071428Y-90035714D01*
X107571428Y-90107143D02*
X106428571Y-90107143D01*
X105428571Y-89178571D02*
X105285714Y-89178571D01*
X105142857Y-89250000D01*
X105071428Y-89321429D01*
X104999999Y-89464286D01*
X104928571Y-89750000D01*
X104928571Y-90107143D01*
X104999999Y-90392857D01*
X105071428Y-90535714D01*
X105142857Y-90607143D01*
X105285714Y-90678571D01*
X105428571Y-90678571D01*
X105571428Y-90607143D01*
X105642857Y-90535714D01*
X105714285Y-90392857D01*
X105785714Y-90107143D01*
X105785714Y-89750000D01*
X105714285Y-89464286D01*
X105642857Y-89321429D01*
X105571428Y-89250000D01*
X105428571Y-89178571D01*
X103571428Y-89178571D02*
X104285714Y-89178571D01*
X104357143Y-89892857D01*
X104285714Y-89821429D01*
X104142857Y-89750000D01*
X103785714Y-89750000D01*
X103642857Y-89821429D01*
X103571428Y-89892857D01*
X103500000Y-90035714D01*
X103500000Y-90392857D01*
X103571428Y-90535714D01*
X103642857Y-90607143D01*
X103785714Y-90678571D01*
X104142857Y-90678571D01*
X104285714Y-90607143D01*
X104357143Y-90535714D01*
X110142856Y-104178571D02*
X109999999Y-104178571D01*
X109857142Y-104250000D01*
X109785713Y-104321429D01*
X109714284Y-104464286D01*
X109642856Y-104750000D01*
X109642856Y-105107143D01*
X109714284Y-105392857D01*
X109785713Y-105535714D01*
X109857142Y-105607143D01*
X109999999Y-105678571D01*
X110142856Y-105678571D01*
X110285713Y-105607143D01*
X110357142Y-105535714D01*
X110428570Y-105392857D01*
X110499999Y-105107143D01*
X110499999Y-104750000D01*
X110428570Y-104464286D01*
X110357142Y-104321429D01*
X110285713Y-104250000D01*
X110142856Y-104178571D01*
X108357142Y-104178571D02*
X108642856Y-104178571D01*
X108785713Y-104250000D01*
X108857142Y-104321429D01*
X108999999Y-104535714D01*
X109071428Y-104821429D01*
X109071428Y-105392857D01*
X108999999Y-105535714D01*
X108928571Y-105607143D01*
X108785713Y-105678571D01*
X108499999Y-105678571D01*
X108357142Y-105607143D01*
X108285713Y-105535714D01*
X108214285Y-105392857D01*
X108214285Y-105035714D01*
X108285713Y-104892857D01*
X108357142Y-104821429D01*
X108499999Y-104750000D01*
X108785713Y-104750000D01*
X108928571Y-104821429D01*
X108999999Y-104892857D01*
X109071428Y-105035714D01*
X107571428Y-105107143D02*
X106428571Y-105107143D01*
X105428571Y-104178571D02*
X105285714Y-104178571D01*
X105142857Y-104250000D01*
X105071428Y-104321429D01*
X104999999Y-104464286D01*
X104928571Y-104750000D01*
X104928571Y-105107143D01*
X104999999Y-105392857D01*
X105071428Y-105535714D01*
X105142857Y-105607143D01*
X105285714Y-105678571D01*
X105428571Y-105678571D01*
X105571428Y-105607143D01*
X105642857Y-105535714D01*
X105714285Y-105392857D01*
X105785714Y-105107143D01*
X105785714Y-104750000D01*
X105714285Y-104464286D01*
X105642857Y-104321429D01*
X105571428Y-104250000D01*
X105428571Y-104178571D01*
X103642857Y-104178571D02*
X103928571Y-104178571D01*
X104071428Y-104250000D01*
X104142857Y-104321429D01*
X104285714Y-104535714D01*
X104357143Y-104821429D01*
X104357143Y-105392857D01*
X104285714Y-105535714D01*
X104214286Y-105607143D01*
X104071428Y-105678571D01*
X103785714Y-105678571D01*
X103642857Y-105607143D01*
X103571428Y-105535714D01*
X103500000Y-105392857D01*
X103500000Y-105035714D01*
X103571428Y-104892857D01*
X103642857Y-104821429D01*
X103785714Y-104750000D01*
X104071428Y-104750000D01*
X104214286Y-104821429D01*
X104285714Y-104892857D01*
X104357143Y-105035714D01*
X125142856Y-29178571D02*
X124999999Y-29178571D01*
X124857142Y-29250000D01*
X124785713Y-29321429D01*
X124714284Y-29464286D01*
X124642856Y-29750000D01*
X124642856Y-30107143D01*
X124714284Y-30392857D01*
X124785713Y-30535714D01*
X124857142Y-30607143D01*
X124999999Y-30678571D01*
X125142856Y-30678571D01*
X125285713Y-30607143D01*
X125357142Y-30535714D01*
X125428570Y-30392857D01*
X125499999Y-30107143D01*
X125499999Y-29750000D01*
X125428570Y-29464286D01*
X125357142Y-29321429D01*
X125285713Y-29250000D01*
X125142856Y-29178571D01*
X124142856Y-29178571D02*
X123142856Y-29178571D01*
X123785713Y-30678571D01*
X122571428Y-30107143D02*
X121428571Y-30107143D01*
X120428571Y-29178571D02*
X120285714Y-29178571D01*
X120142857Y-29250000D01*
X120071428Y-29321429D01*
X119999999Y-29464286D01*
X119928571Y-29750000D01*
X119928571Y-30107143D01*
X119999999Y-30392857D01*
X120071428Y-30535714D01*
X120142857Y-30607143D01*
X120285714Y-30678571D01*
X120428571Y-30678571D01*
X120571428Y-30607143D01*
X120642857Y-30535714D01*
X120714285Y-30392857D01*
X120785714Y-30107143D01*
X120785714Y-29750000D01*
X120714285Y-29464286D01*
X120642857Y-29321429D01*
X120571428Y-29250000D01*
X120428571Y-29178571D01*
X118500000Y-30678571D02*
X119357143Y-30678571D01*
X118928571Y-30678571D02*
X118928571Y-29178571D01*
X119071428Y-29392857D01*
X119214286Y-29535714D01*
X119357143Y-29607143D01*
X125142856Y-44178571D02*
X124999999Y-44178571D01*
X124857142Y-44250000D01*
X124785713Y-44321429D01*
X124714284Y-44464286D01*
X124642856Y-44750000D01*
X124642856Y-45107143D01*
X124714284Y-45392857D01*
X124785713Y-45535714D01*
X124857142Y-45607143D01*
X124999999Y-45678571D01*
X125142856Y-45678571D01*
X125285713Y-45607143D01*
X125357142Y-45535714D01*
X125428570Y-45392857D01*
X125499999Y-45107143D01*
X125499999Y-44750000D01*
X125428570Y-44464286D01*
X125357142Y-44321429D01*
X125285713Y-44250000D01*
X125142856Y-44178571D01*
X124142856Y-44178571D02*
X123142856Y-44178571D01*
X123785713Y-45678571D01*
X122571428Y-45107143D02*
X121428571Y-45107143D01*
X120428571Y-44178571D02*
X120285714Y-44178571D01*
X120142857Y-44250000D01*
X120071428Y-44321429D01*
X119999999Y-44464286D01*
X119928571Y-44750000D01*
X119928571Y-45107143D01*
X119999999Y-45392857D01*
X120071428Y-45535714D01*
X120142857Y-45607143D01*
X120285714Y-45678571D01*
X120428571Y-45678571D01*
X120571428Y-45607143D01*
X120642857Y-45535714D01*
X120714285Y-45392857D01*
X120785714Y-45107143D01*
X120785714Y-44750000D01*
X120714285Y-44464286D01*
X120642857Y-44321429D01*
X120571428Y-44250000D01*
X120428571Y-44178571D01*
X119357143Y-44321429D02*
X119285714Y-44250000D01*
X119142857Y-44178571D01*
X118785714Y-44178571D01*
X118642857Y-44250000D01*
X118571428Y-44321429D01*
X118500000Y-44464286D01*
X118500000Y-44607143D01*
X118571428Y-44821429D01*
X119428571Y-45678571D01*
X118500000Y-45678571D01*
X125142856Y-59178571D02*
X124999999Y-59178571D01*
X124857142Y-59250000D01*
X124785713Y-59321429D01*
X124714284Y-59464286D01*
X124642856Y-59750000D01*
X124642856Y-60107143D01*
X124714284Y-60392857D01*
X124785713Y-60535714D01*
X124857142Y-60607143D01*
X124999999Y-60678571D01*
X125142856Y-60678571D01*
X125285713Y-60607143D01*
X125357142Y-60535714D01*
X125428570Y-60392857D01*
X125499999Y-60107143D01*
X125499999Y-59750000D01*
X125428570Y-59464286D01*
X125357142Y-59321429D01*
X125285713Y-59250000D01*
X125142856Y-59178571D01*
X124142856Y-59178571D02*
X123142856Y-59178571D01*
X123785713Y-60678571D01*
X122571428Y-60107143D02*
X121428571Y-60107143D01*
X120428571Y-59178571D02*
X120285714Y-59178571D01*
X120142857Y-59250000D01*
X120071428Y-59321429D01*
X119999999Y-59464286D01*
X119928571Y-59750000D01*
X119928571Y-60107143D01*
X119999999Y-60392857D01*
X120071428Y-60535714D01*
X120142857Y-60607143D01*
X120285714Y-60678571D01*
X120428571Y-60678571D01*
X120571428Y-60607143D01*
X120642857Y-60535714D01*
X120714285Y-60392857D01*
X120785714Y-60107143D01*
X120785714Y-59750000D01*
X120714285Y-59464286D01*
X120642857Y-59321429D01*
X120571428Y-59250000D01*
X120428571Y-59178571D01*
X119428571Y-59178571D02*
X118500000Y-59178571D01*
X119000000Y-59750000D01*
X118785714Y-59750000D01*
X118642857Y-59821429D01*
X118571428Y-59892857D01*
X118500000Y-60035714D01*
X118500000Y-60392857D01*
X118571428Y-60535714D01*
X118642857Y-60607143D01*
X118785714Y-60678571D01*
X119214286Y-60678571D01*
X119357143Y-60607143D01*
X119428571Y-60535714D01*
X125142856Y-74178571D02*
X124999999Y-74178571D01*
X124857142Y-74250000D01*
X124785713Y-74321429D01*
X124714284Y-74464286D01*
X124642856Y-74750000D01*
X124642856Y-75107143D01*
X124714284Y-75392857D01*
X124785713Y-75535714D01*
X124857142Y-75607143D01*
X124999999Y-75678571D01*
X125142856Y-75678571D01*
X125285713Y-75607143D01*
X125357142Y-75535714D01*
X125428570Y-75392857D01*
X125499999Y-75107143D01*
X125499999Y-74750000D01*
X125428570Y-74464286D01*
X125357142Y-74321429D01*
X125285713Y-74250000D01*
X125142856Y-74178571D01*
X124142856Y-74178571D02*
X123142856Y-74178571D01*
X123785713Y-75678571D01*
X122571428Y-75107143D02*
X121428571Y-75107143D01*
X120428571Y-74178571D02*
X120285714Y-74178571D01*
X120142857Y-74250000D01*
X120071428Y-74321429D01*
X119999999Y-74464286D01*
X119928571Y-74750000D01*
X119928571Y-75107143D01*
X119999999Y-75392857D01*
X120071428Y-75535714D01*
X120142857Y-75607143D01*
X120285714Y-75678571D01*
X120428571Y-75678571D01*
X120571428Y-75607143D01*
X120642857Y-75535714D01*
X120714285Y-75392857D01*
X120785714Y-75107143D01*
X120785714Y-74750000D01*
X120714285Y-74464286D01*
X120642857Y-74321429D01*
X120571428Y-74250000D01*
X120428571Y-74178571D01*
X118642857Y-74678571D02*
X118642857Y-75678571D01*
X119000000Y-74107143D02*
X119357143Y-75178571D01*
X118428571Y-75178571D01*
X125142856Y-89178571D02*
X124999999Y-89178571D01*
X124857142Y-89250000D01*
X124785713Y-89321429D01*
X124714284Y-89464286D01*
X124642856Y-89750000D01*
X124642856Y-90107143D01*
X124714284Y-90392857D01*
X124785713Y-90535714D01*
X124857142Y-90607143D01*
X124999999Y-90678571D01*
X125142856Y-90678571D01*
X125285713Y-90607143D01*
X125357142Y-90535714D01*
X125428570Y-90392857D01*
X125499999Y-90107143D01*
X125499999Y-89750000D01*
X125428570Y-89464286D01*
X125357142Y-89321429D01*
X125285713Y-89250000D01*
X125142856Y-89178571D01*
X124142856Y-89178571D02*
X123142856Y-89178571D01*
X123785713Y-90678571D01*
X122571428Y-90107143D02*
X121428571Y-90107143D01*
X120428571Y-89178571D02*
X120285714Y-89178571D01*
X120142857Y-89250000D01*
X120071428Y-89321429D01*
X119999999Y-89464286D01*
X119928571Y-89750000D01*
X119928571Y-90107143D01*
X119999999Y-90392857D01*
X120071428Y-90535714D01*
X120142857Y-90607143D01*
X120285714Y-90678571D01*
X120428571Y-90678571D01*
X120571428Y-90607143D01*
X120642857Y-90535714D01*
X120714285Y-90392857D01*
X120785714Y-90107143D01*
X120785714Y-89750000D01*
X120714285Y-89464286D01*
X120642857Y-89321429D01*
X120571428Y-89250000D01*
X120428571Y-89178571D01*
X118571428Y-89178571D02*
X119285714Y-89178571D01*
X119357143Y-89892857D01*
X119285714Y-89821429D01*
X119142857Y-89750000D01*
X118785714Y-89750000D01*
X118642857Y-89821429D01*
X118571428Y-89892857D01*
X118500000Y-90035714D01*
X118500000Y-90392857D01*
X118571428Y-90535714D01*
X118642857Y-90607143D01*
X118785714Y-90678571D01*
X119142857Y-90678571D01*
X119285714Y-90607143D01*
X119357143Y-90535714D01*
X125142856Y-104178571D02*
X124999999Y-104178571D01*
X124857142Y-104250000D01*
X124785713Y-104321429D01*
X124714284Y-104464286D01*
X124642856Y-104750000D01*
X124642856Y-105107143D01*
X124714284Y-105392857D01*
X124785713Y-105535714D01*
X124857142Y-105607143D01*
X124999999Y-105678571D01*
X125142856Y-105678571D01*
X125285713Y-105607143D01*
X125357142Y-105535714D01*
X125428570Y-105392857D01*
X125499999Y-105107143D01*
X125499999Y-104750000D01*
X125428570Y-104464286D01*
X125357142Y-104321429D01*
X125285713Y-104250000D01*
X125142856Y-104178571D01*
X124142856Y-104178571D02*
X123142856Y-104178571D01*
X123785713Y-105678571D01*
X122571428Y-105107143D02*
X121428571Y-105107143D01*
X120428571Y-104178571D02*
X120285714Y-104178571D01*
X120142857Y-104250000D01*
X120071428Y-104321429D01*
X119999999Y-104464286D01*
X119928571Y-104750000D01*
X119928571Y-105107143D01*
X119999999Y-105392857D01*
X120071428Y-105535714D01*
X120142857Y-105607143D01*
X120285714Y-105678571D01*
X120428571Y-105678571D01*
X120571428Y-105607143D01*
X120642857Y-105535714D01*
X120714285Y-105392857D01*
X120785714Y-105107143D01*
X120785714Y-104750000D01*
X120714285Y-104464286D01*
X120642857Y-104321429D01*
X120571428Y-104250000D01*
X120428571Y-104178571D01*
X118642857Y-104178571D02*
X118928571Y-104178571D01*
X119071428Y-104250000D01*
X119142857Y-104321429D01*
X119285714Y-104535714D01*
X119357143Y-104821429D01*
X119357143Y-105392857D01*
X119285714Y-105535714D01*
X119214286Y-105607143D01*
X119071428Y-105678571D01*
X118785714Y-105678571D01*
X118642857Y-105607143D01*
X118571428Y-105535714D01*
X118500000Y-105392857D01*
X118500000Y-105035714D01*
X118571428Y-104892857D01*
X118642857Y-104821429D01*
X118785714Y-104750000D01*
X119071428Y-104750000D01*
X119214286Y-104821429D01*
X119285714Y-104892857D01*
X119357143Y-105035714D01*
X140142856Y-29178571D02*
X139999999Y-29178571D01*
X139857142Y-29250000D01*
X139785713Y-29321429D01*
X139714284Y-29464286D01*
X139642856Y-29750000D01*
X139642856Y-30107143D01*
X139714284Y-30392857D01*
X139785713Y-30535714D01*
X139857142Y-30607143D01*
X139999999Y-30678571D01*
X140142856Y-30678571D01*
X140285713Y-30607143D01*
X140357142Y-30535714D01*
X140428570Y-30392857D01*
X140499999Y-30107143D01*
X140499999Y-29750000D01*
X140428570Y-29464286D01*
X140357142Y-29321429D01*
X140285713Y-29250000D01*
X140142856Y-29178571D01*
X138785713Y-29821429D02*
X138928571Y-29750000D01*
X138999999Y-29678571D01*
X139071428Y-29535714D01*
X139071428Y-29464286D01*
X138999999Y-29321429D01*
X138928571Y-29250000D01*
X138785713Y-29178571D01*
X138499999Y-29178571D01*
X138357142Y-29250000D01*
X138285713Y-29321429D01*
X138214285Y-29464286D01*
X138214285Y-29535714D01*
X138285713Y-29678571D01*
X138357142Y-29750000D01*
X138499999Y-29821429D01*
X138785713Y-29821429D01*
X138928571Y-29892857D01*
X138999999Y-29964286D01*
X139071428Y-30107143D01*
X139071428Y-30392857D01*
X138999999Y-30535714D01*
X138928571Y-30607143D01*
X138785713Y-30678571D01*
X138499999Y-30678571D01*
X138357142Y-30607143D01*
X138285713Y-30535714D01*
X138214285Y-30392857D01*
X138214285Y-30107143D01*
X138285713Y-29964286D01*
X138357142Y-29892857D01*
X138499999Y-29821429D01*
X137571428Y-30107143D02*
X136428571Y-30107143D01*
X135428571Y-29178571D02*
X135285714Y-29178571D01*
X135142857Y-29250000D01*
X135071428Y-29321429D01*
X134999999Y-29464286D01*
X134928571Y-29750000D01*
X134928571Y-30107143D01*
X134999999Y-30392857D01*
X135071428Y-30535714D01*
X135142857Y-30607143D01*
X135285714Y-30678571D01*
X135428571Y-30678571D01*
X135571428Y-30607143D01*
X135642857Y-30535714D01*
X135714285Y-30392857D01*
X135785714Y-30107143D01*
X135785714Y-29750000D01*
X135714285Y-29464286D01*
X135642857Y-29321429D01*
X135571428Y-29250000D01*
X135428571Y-29178571D01*
X133500000Y-30678571D02*
X134357143Y-30678571D01*
X133928571Y-30678571D02*
X133928571Y-29178571D01*
X134071428Y-29392857D01*
X134214286Y-29535714D01*
X134357143Y-29607143D01*
X140142856Y-44178571D02*
X139999999Y-44178571D01*
X139857142Y-44250000D01*
X139785713Y-44321429D01*
X139714284Y-44464286D01*
X139642856Y-44750000D01*
X139642856Y-45107143D01*
X139714284Y-45392857D01*
X139785713Y-45535714D01*
X139857142Y-45607143D01*
X139999999Y-45678571D01*
X140142856Y-45678571D01*
X140285713Y-45607143D01*
X140357142Y-45535714D01*
X140428570Y-45392857D01*
X140499999Y-45107143D01*
X140499999Y-44750000D01*
X140428570Y-44464286D01*
X140357142Y-44321429D01*
X140285713Y-44250000D01*
X140142856Y-44178571D01*
X138785713Y-44821429D02*
X138928571Y-44750000D01*
X138999999Y-44678571D01*
X139071428Y-44535714D01*
X139071428Y-44464286D01*
X138999999Y-44321429D01*
X138928571Y-44250000D01*
X138785713Y-44178571D01*
X138499999Y-44178571D01*
X138357142Y-44250000D01*
X138285713Y-44321429D01*
X138214285Y-44464286D01*
X138214285Y-44535714D01*
X138285713Y-44678571D01*
X138357142Y-44750000D01*
X138499999Y-44821429D01*
X138785713Y-44821429D01*
X138928571Y-44892857D01*
X138999999Y-44964286D01*
X139071428Y-45107143D01*
X139071428Y-45392857D01*
X138999999Y-45535714D01*
X138928571Y-45607143D01*
X138785713Y-45678571D01*
X138499999Y-45678571D01*
X138357142Y-45607143D01*
X138285713Y-45535714D01*
X138214285Y-45392857D01*
X138214285Y-45107143D01*
X138285713Y-44964286D01*
X138357142Y-44892857D01*
X138499999Y-44821429D01*
X137571428Y-45107143D02*
X136428571Y-45107143D01*
X135428571Y-44178571D02*
X135285714Y-44178571D01*
X135142857Y-44250000D01*
X135071428Y-44321429D01*
X134999999Y-44464286D01*
X134928571Y-44750000D01*
X134928571Y-45107143D01*
X134999999Y-45392857D01*
X135071428Y-45535714D01*
X135142857Y-45607143D01*
X135285714Y-45678571D01*
X135428571Y-45678571D01*
X135571428Y-45607143D01*
X135642857Y-45535714D01*
X135714285Y-45392857D01*
X135785714Y-45107143D01*
X135785714Y-44750000D01*
X135714285Y-44464286D01*
X135642857Y-44321429D01*
X135571428Y-44250000D01*
X135428571Y-44178571D01*
X134357143Y-44321429D02*
X134285714Y-44250000D01*
X134142857Y-44178571D01*
X133785714Y-44178571D01*
X133642857Y-44250000D01*
X133571428Y-44321429D01*
X133500000Y-44464286D01*
X133500000Y-44607143D01*
X133571428Y-44821429D01*
X134428571Y-45678571D01*
X133500000Y-45678571D01*
X140142856Y-59178571D02*
X139999999Y-59178571D01*
X139857142Y-59250000D01*
X139785713Y-59321429D01*
X139714284Y-59464286D01*
X139642856Y-59750000D01*
X139642856Y-60107143D01*
X139714284Y-60392857D01*
X139785713Y-60535714D01*
X139857142Y-60607143D01*
X139999999Y-60678571D01*
X140142856Y-60678571D01*
X140285713Y-60607143D01*
X140357142Y-60535714D01*
X140428570Y-60392857D01*
X140499999Y-60107143D01*
X140499999Y-59750000D01*
X140428570Y-59464286D01*
X140357142Y-59321429D01*
X140285713Y-59250000D01*
X140142856Y-59178571D01*
X138785713Y-59821429D02*
X138928571Y-59750000D01*
X138999999Y-59678571D01*
X139071428Y-59535714D01*
X139071428Y-59464286D01*
X138999999Y-59321429D01*
X138928571Y-59250000D01*
X138785713Y-59178571D01*
X138499999Y-59178571D01*
X138357142Y-59250000D01*
X138285713Y-59321429D01*
X138214285Y-59464286D01*
X138214285Y-59535714D01*
X138285713Y-59678571D01*
X138357142Y-59750000D01*
X138499999Y-59821429D01*
X138785713Y-59821429D01*
X138928571Y-59892857D01*
X138999999Y-59964286D01*
X139071428Y-60107143D01*
X139071428Y-60392857D01*
X138999999Y-60535714D01*
X138928571Y-60607143D01*
X138785713Y-60678571D01*
X138499999Y-60678571D01*
X138357142Y-60607143D01*
X138285713Y-60535714D01*
X138214285Y-60392857D01*
X138214285Y-60107143D01*
X138285713Y-59964286D01*
X138357142Y-59892857D01*
X138499999Y-59821429D01*
X137571428Y-60107143D02*
X136428571Y-60107143D01*
X135428571Y-59178571D02*
X135285714Y-59178571D01*
X135142857Y-59250000D01*
X135071428Y-59321429D01*
X134999999Y-59464286D01*
X134928571Y-59750000D01*
X134928571Y-60107143D01*
X134999999Y-60392857D01*
X135071428Y-60535714D01*
X135142857Y-60607143D01*
X135285714Y-60678571D01*
X135428571Y-60678571D01*
X135571428Y-60607143D01*
X135642857Y-60535714D01*
X135714285Y-60392857D01*
X135785714Y-60107143D01*
X135785714Y-59750000D01*
X135714285Y-59464286D01*
X135642857Y-59321429D01*
X135571428Y-59250000D01*
X135428571Y-59178571D01*
X134428571Y-59178571D02*
X133500000Y-59178571D01*
X134000000Y-59750000D01*
X133785714Y-59750000D01*
X133642857Y-59821429D01*
X133571428Y-59892857D01*
X133500000Y-60035714D01*
X133500000Y-60392857D01*
X133571428Y-60535714D01*
X133642857Y-60607143D01*
X133785714Y-60678571D01*
X134214286Y-60678571D01*
X134357143Y-60607143D01*
X134428571Y-60535714D01*
X140142856Y-74178571D02*
X139999999Y-74178571D01*
X139857142Y-74250000D01*
X139785713Y-74321429D01*
X139714284Y-74464286D01*
X139642856Y-74750000D01*
X139642856Y-75107143D01*
X139714284Y-75392857D01*
X139785713Y-75535714D01*
X139857142Y-75607143D01*
X139999999Y-75678571D01*
X140142856Y-75678571D01*
X140285713Y-75607143D01*
X140357142Y-75535714D01*
X140428570Y-75392857D01*
X140499999Y-75107143D01*
X140499999Y-74750000D01*
X140428570Y-74464286D01*
X140357142Y-74321429D01*
X140285713Y-74250000D01*
X140142856Y-74178571D01*
X138785713Y-74821429D02*
X138928571Y-74750000D01*
X138999999Y-74678571D01*
X139071428Y-74535714D01*
X139071428Y-74464286D01*
X138999999Y-74321429D01*
X138928571Y-74250000D01*
X138785713Y-74178571D01*
X138499999Y-74178571D01*
X138357142Y-74250000D01*
X138285713Y-74321429D01*
X138214285Y-74464286D01*
X138214285Y-74535714D01*
X138285713Y-74678571D01*
X138357142Y-74750000D01*
X138499999Y-74821429D01*
X138785713Y-74821429D01*
X138928571Y-74892857D01*
X138999999Y-74964286D01*
X139071428Y-75107143D01*
X139071428Y-75392857D01*
X138999999Y-75535714D01*
X138928571Y-75607143D01*
X138785713Y-75678571D01*
X138499999Y-75678571D01*
X138357142Y-75607143D01*
X138285713Y-75535714D01*
X138214285Y-75392857D01*
X138214285Y-75107143D01*
X138285713Y-74964286D01*
X138357142Y-74892857D01*
X138499999Y-74821429D01*
X137571428Y-75107143D02*
X136428571Y-75107143D01*
X135428571Y-74178571D02*
X135285714Y-74178571D01*
X135142857Y-74250000D01*
X135071428Y-74321429D01*
X134999999Y-74464286D01*
X134928571Y-74750000D01*
X134928571Y-75107143D01*
X134999999Y-75392857D01*
X135071428Y-75535714D01*
X135142857Y-75607143D01*
X135285714Y-75678571D01*
X135428571Y-75678571D01*
X135571428Y-75607143D01*
X135642857Y-75535714D01*
X135714285Y-75392857D01*
X135785714Y-75107143D01*
X135785714Y-74750000D01*
X135714285Y-74464286D01*
X135642857Y-74321429D01*
X135571428Y-74250000D01*
X135428571Y-74178571D01*
X133642857Y-74678571D02*
X133642857Y-75678571D01*
X134000000Y-74107143D02*
X134357143Y-75178571D01*
X133428571Y-75178571D01*
X140142856Y-89178571D02*
X139999999Y-89178571D01*
X139857142Y-89250000D01*
X139785713Y-89321429D01*
X139714284Y-89464286D01*
X139642856Y-89750000D01*
X139642856Y-90107143D01*
X139714284Y-90392857D01*
X139785713Y-90535714D01*
X139857142Y-90607143D01*
X139999999Y-90678571D01*
X140142856Y-90678571D01*
X140285713Y-90607143D01*
X140357142Y-90535714D01*
X140428570Y-90392857D01*
X140499999Y-90107143D01*
X140499999Y-89750000D01*
X140428570Y-89464286D01*
X140357142Y-89321429D01*
X140285713Y-89250000D01*
X140142856Y-89178571D01*
X138785713Y-89821429D02*
X138928571Y-89750000D01*
X138999999Y-89678571D01*
X139071428Y-89535714D01*
X139071428Y-89464286D01*
X138999999Y-89321429D01*
X138928571Y-89250000D01*
X138785713Y-89178571D01*
X138499999Y-89178571D01*
X138357142Y-89250000D01*
X138285713Y-89321429D01*
X138214285Y-89464286D01*
X138214285Y-89535714D01*
X138285713Y-89678571D01*
X138357142Y-89750000D01*
X138499999Y-89821429D01*
X138785713Y-89821429D01*
X138928571Y-89892857D01*
X138999999Y-89964286D01*
X139071428Y-90107143D01*
X139071428Y-90392857D01*
X138999999Y-90535714D01*
X138928571Y-90607143D01*
X138785713Y-90678571D01*
X138499999Y-90678571D01*
X138357142Y-90607143D01*
X138285713Y-90535714D01*
X138214285Y-90392857D01*
X138214285Y-90107143D01*
X138285713Y-89964286D01*
X138357142Y-89892857D01*
X138499999Y-89821429D01*
X137571428Y-90107143D02*
X136428571Y-90107143D01*
X135428571Y-89178571D02*
X135285714Y-89178571D01*
X135142857Y-89250000D01*
X135071428Y-89321429D01*
X134999999Y-89464286D01*
X134928571Y-89750000D01*
X134928571Y-90107143D01*
X134999999Y-90392857D01*
X135071428Y-90535714D01*
X135142857Y-90607143D01*
X135285714Y-90678571D01*
X135428571Y-90678571D01*
X135571428Y-90607143D01*
X135642857Y-90535714D01*
X135714285Y-90392857D01*
X135785714Y-90107143D01*
X135785714Y-89750000D01*
X135714285Y-89464286D01*
X135642857Y-89321429D01*
X135571428Y-89250000D01*
X135428571Y-89178571D01*
X133571428Y-89178571D02*
X134285714Y-89178571D01*
X134357143Y-89892857D01*
X134285714Y-89821429D01*
X134142857Y-89750000D01*
X133785714Y-89750000D01*
X133642857Y-89821429D01*
X133571428Y-89892857D01*
X133500000Y-90035714D01*
X133500000Y-90392857D01*
X133571428Y-90535714D01*
X133642857Y-90607143D01*
X133785714Y-90678571D01*
X134142857Y-90678571D01*
X134285714Y-90607143D01*
X134357143Y-90535714D01*
X140142856Y-104178571D02*
X139999999Y-104178571D01*
X139857142Y-104250000D01*
X139785713Y-104321429D01*
X139714284Y-104464286D01*
X139642856Y-104750000D01*
X139642856Y-105107143D01*
X139714284Y-105392857D01*
X139785713Y-105535714D01*
X139857142Y-105607143D01*
X139999999Y-105678571D01*
X140142856Y-105678571D01*
X140285713Y-105607143D01*
X140357142Y-105535714D01*
X140428570Y-105392857D01*
X140499999Y-105107143D01*
X140499999Y-104750000D01*
X140428570Y-104464286D01*
X140357142Y-104321429D01*
X140285713Y-104250000D01*
X140142856Y-104178571D01*
X138785713Y-104821429D02*
X138928571Y-104750000D01*
X138999999Y-104678571D01*
X139071428Y-104535714D01*
X139071428Y-104464286D01*
X138999999Y-104321429D01*
X138928571Y-104250000D01*
X138785713Y-104178571D01*
X138499999Y-104178571D01*
X138357142Y-104250000D01*
X138285713Y-104321429D01*
X138214285Y-104464286D01*
X138214285Y-104535714D01*
X138285713Y-104678571D01*
X138357142Y-104750000D01*
X138499999Y-104821429D01*
X138785713Y-104821429D01*
X138928571Y-104892857D01*
X138999999Y-104964286D01*
X139071428Y-105107143D01*
X139071428Y-105392857D01*
X138999999Y-105535714D01*
X138928571Y-105607143D01*
X138785713Y-105678571D01*
X138499999Y-105678571D01*
X138357142Y-105607143D01*
X138285713Y-105535714D01*
X138214285Y-105392857D01*
X138214285Y-105107143D01*
X138285713Y-104964286D01*
X138357142Y-104892857D01*
X138499999Y-104821429D01*
X137571428Y-105107143D02*
X136428571Y-105107143D01*
X135428571Y-104178571D02*
X135285714Y-104178571D01*
X135142857Y-104250000D01*
X135071428Y-104321429D01*
X134999999Y-104464286D01*
X134928571Y-104750000D01*
X134928571Y-105107143D01*
X134999999Y-105392857D01*
X135071428Y-105535714D01*
X135142857Y-105607143D01*
X135285714Y-105678571D01*
X135428571Y-105678571D01*
X135571428Y-105607143D01*
X135642857Y-105535714D01*
X135714285Y-105392857D01*
X135785714Y-105107143D01*
X135785714Y-104750000D01*
X135714285Y-104464286D01*
X135642857Y-104321429D01*
X135571428Y-104250000D01*
X135428571Y-104178571D01*
X133642857Y-104178571D02*
X133928571Y-104178571D01*
X134071428Y-104250000D01*
X134142857Y-104321429D01*
X134285714Y-104535714D01*
X134357143Y-104821429D01*
X134357143Y-105392857D01*
X134285714Y-105535714D01*
X134214286Y-105607143D01*
X134071428Y-105678571D01*
X133785714Y-105678571D01*
X133642857Y-105607143D01*
X133571428Y-105535714D01*
X133500000Y-105392857D01*
X133500000Y-105035714D01*
X133571428Y-104892857D01*
X133642857Y-104821429D01*
X133785714Y-104750000D01*
X134071428Y-104750000D01*
X134214286Y-104821429D01*
X134285714Y-104892857D01*
X134357143Y-105035714D01*
X155142856Y-29178571D02*
X154999999Y-29178571D01*
X154857142Y-29250000D01*
X154785713Y-29321429D01*
X154714284Y-29464286D01*
X154642856Y-29750000D01*
X154642856Y-30107143D01*
X154714284Y-30392857D01*
X154785713Y-30535714D01*
X154857142Y-30607143D01*
X154999999Y-30678571D01*
X155142856Y-30678571D01*
X155285713Y-30607143D01*
X155357142Y-30535714D01*
X155428570Y-30392857D01*
X155499999Y-30107143D01*
X155499999Y-29750000D01*
X155428570Y-29464286D01*
X155357142Y-29321429D01*
X155285713Y-29250000D01*
X155142856Y-29178571D01*
X153928571Y-30678571D02*
X153642856Y-30678571D01*
X153499999Y-30607143D01*
X153428571Y-30535714D01*
X153285713Y-30321429D01*
X153214285Y-30035714D01*
X153214285Y-29464286D01*
X153285713Y-29321429D01*
X153357142Y-29250000D01*
X153499999Y-29178571D01*
X153785713Y-29178571D01*
X153928571Y-29250000D01*
X153999999Y-29321429D01*
X154071428Y-29464286D01*
X154071428Y-29821429D01*
X153999999Y-29964286D01*
X153928571Y-30035714D01*
X153785713Y-30107143D01*
X153499999Y-30107143D01*
X153357142Y-30035714D01*
X153285713Y-29964286D01*
X153214285Y-29821429D01*
X152571428Y-30107143D02*
X151428571Y-30107143D01*
X150428571Y-29178571D02*
X150285714Y-29178571D01*
X150142857Y-29250000D01*
X150071428Y-29321429D01*
X149999999Y-29464286D01*
X149928571Y-29750000D01*
X149928571Y-30107143D01*
X149999999Y-30392857D01*
X150071428Y-30535714D01*
X150142857Y-30607143D01*
X150285714Y-30678571D01*
X150428571Y-30678571D01*
X150571428Y-30607143D01*
X150642857Y-30535714D01*
X150714285Y-30392857D01*
X150785714Y-30107143D01*
X150785714Y-29750000D01*
X150714285Y-29464286D01*
X150642857Y-29321429D01*
X150571428Y-29250000D01*
X150428571Y-29178571D01*
X148500000Y-30678571D02*
X149357143Y-30678571D01*
X148928571Y-30678571D02*
X148928571Y-29178571D01*
X149071428Y-29392857D01*
X149214286Y-29535714D01*
X149357143Y-29607143D01*
X155142856Y-44178571D02*
X154999999Y-44178571D01*
X154857142Y-44250000D01*
X154785713Y-44321429D01*
X154714284Y-44464286D01*
X154642856Y-44750000D01*
X154642856Y-45107143D01*
X154714284Y-45392857D01*
X154785713Y-45535714D01*
X154857142Y-45607143D01*
X154999999Y-45678571D01*
X155142856Y-45678571D01*
X155285713Y-45607143D01*
X155357142Y-45535714D01*
X155428570Y-45392857D01*
X155499999Y-45107143D01*
X155499999Y-44750000D01*
X155428570Y-44464286D01*
X155357142Y-44321429D01*
X155285713Y-44250000D01*
X155142856Y-44178571D01*
X153928571Y-45678571D02*
X153642856Y-45678571D01*
X153499999Y-45607143D01*
X153428571Y-45535714D01*
X153285713Y-45321429D01*
X153214285Y-45035714D01*
X153214285Y-44464286D01*
X153285713Y-44321429D01*
X153357142Y-44250000D01*
X153499999Y-44178571D01*
X153785713Y-44178571D01*
X153928571Y-44250000D01*
X153999999Y-44321429D01*
X154071428Y-44464286D01*
X154071428Y-44821429D01*
X153999999Y-44964286D01*
X153928571Y-45035714D01*
X153785713Y-45107143D01*
X153499999Y-45107143D01*
X153357142Y-45035714D01*
X153285713Y-44964286D01*
X153214285Y-44821429D01*
X152571428Y-45107143D02*
X151428571Y-45107143D01*
X150428571Y-44178571D02*
X150285714Y-44178571D01*
X150142857Y-44250000D01*
X150071428Y-44321429D01*
X149999999Y-44464286D01*
X149928571Y-44750000D01*
X149928571Y-45107143D01*
X149999999Y-45392857D01*
X150071428Y-45535714D01*
X150142857Y-45607143D01*
X150285714Y-45678571D01*
X150428571Y-45678571D01*
X150571428Y-45607143D01*
X150642857Y-45535714D01*
X150714285Y-45392857D01*
X150785714Y-45107143D01*
X150785714Y-44750000D01*
X150714285Y-44464286D01*
X150642857Y-44321429D01*
X150571428Y-44250000D01*
X150428571Y-44178571D01*
X149357143Y-44321429D02*
X149285714Y-44250000D01*
X149142857Y-44178571D01*
X148785714Y-44178571D01*
X148642857Y-44250000D01*
X148571428Y-44321429D01*
X148500000Y-44464286D01*
X148500000Y-44607143D01*
X148571428Y-44821429D01*
X149428571Y-45678571D01*
X148500000Y-45678571D01*
X155142856Y-59178571D02*
X154999999Y-59178571D01*
X154857142Y-59250000D01*
X154785713Y-59321429D01*
X154714284Y-59464286D01*
X154642856Y-59750000D01*
X154642856Y-60107143D01*
X154714284Y-60392857D01*
X154785713Y-60535714D01*
X154857142Y-60607143D01*
X154999999Y-60678571D01*
X155142856Y-60678571D01*
X155285713Y-60607143D01*
X155357142Y-60535714D01*
X155428570Y-60392857D01*
X155499999Y-60107143D01*
X155499999Y-59750000D01*
X155428570Y-59464286D01*
X155357142Y-59321429D01*
X155285713Y-59250000D01*
X155142856Y-59178571D01*
X153928571Y-60678571D02*
X153642856Y-60678571D01*
X153499999Y-60607143D01*
X153428571Y-60535714D01*
X153285713Y-60321429D01*
X153214285Y-60035714D01*
X153214285Y-59464286D01*
X153285713Y-59321429D01*
X153357142Y-59250000D01*
X153499999Y-59178571D01*
X153785713Y-59178571D01*
X153928571Y-59250000D01*
X153999999Y-59321429D01*
X154071428Y-59464286D01*
X154071428Y-59821429D01*
X153999999Y-59964286D01*
X153928571Y-60035714D01*
X153785713Y-60107143D01*
X153499999Y-60107143D01*
X153357142Y-60035714D01*
X153285713Y-59964286D01*
X153214285Y-59821429D01*
X152571428Y-60107143D02*
X151428571Y-60107143D01*
X150428571Y-59178571D02*
X150285714Y-59178571D01*
X150142857Y-59250000D01*
X150071428Y-59321429D01*
X149999999Y-59464286D01*
X149928571Y-59750000D01*
X149928571Y-60107143D01*
X149999999Y-60392857D01*
X150071428Y-60535714D01*
X150142857Y-60607143D01*
X150285714Y-60678571D01*
X150428571Y-60678571D01*
X150571428Y-60607143D01*
X150642857Y-60535714D01*
X150714285Y-60392857D01*
X150785714Y-60107143D01*
X150785714Y-59750000D01*
X150714285Y-59464286D01*
X150642857Y-59321429D01*
X150571428Y-59250000D01*
X150428571Y-59178571D01*
X149428571Y-59178571D02*
X148500000Y-59178571D01*
X149000000Y-59750000D01*
X148785714Y-59750000D01*
X148642857Y-59821429D01*
X148571428Y-59892857D01*
X148500000Y-60035714D01*
X148500000Y-60392857D01*
X148571428Y-60535714D01*
X148642857Y-60607143D01*
X148785714Y-60678571D01*
X149214286Y-60678571D01*
X149357143Y-60607143D01*
X149428571Y-60535714D01*
X155142856Y-74178571D02*
X154999999Y-74178571D01*
X154857142Y-74250000D01*
X154785713Y-74321429D01*
X154714284Y-74464286D01*
X154642856Y-74750000D01*
X154642856Y-75107143D01*
X154714284Y-75392857D01*
X154785713Y-75535714D01*
X154857142Y-75607143D01*
X154999999Y-75678571D01*
X155142856Y-75678571D01*
X155285713Y-75607143D01*
X155357142Y-75535714D01*
X155428570Y-75392857D01*
X155499999Y-75107143D01*
X155499999Y-74750000D01*
X155428570Y-74464286D01*
X155357142Y-74321429D01*
X155285713Y-74250000D01*
X155142856Y-74178571D01*
X153928571Y-75678571D02*
X153642856Y-75678571D01*
X153499999Y-75607143D01*
X153428571Y-75535714D01*
X153285713Y-75321429D01*
X153214285Y-75035714D01*
X153214285Y-74464286D01*
X153285713Y-74321429D01*
X153357142Y-74250000D01*
X153499999Y-74178571D01*
X153785713Y-74178571D01*
X153928571Y-74250000D01*
X153999999Y-74321429D01*
X154071428Y-74464286D01*
X154071428Y-74821429D01*
X153999999Y-74964286D01*
X153928571Y-75035714D01*
X153785713Y-75107143D01*
X153499999Y-75107143D01*
X153357142Y-75035714D01*
X153285713Y-74964286D01*
X153214285Y-74821429D01*
X152571428Y-75107143D02*
X151428571Y-75107143D01*
X150428571Y-74178571D02*
X150285714Y-74178571D01*
X150142857Y-74250000D01*
X150071428Y-74321429D01*
X149999999Y-74464286D01*
X149928571Y-74750000D01*
X149928571Y-75107143D01*
X149999999Y-75392857D01*
X150071428Y-75535714D01*
X150142857Y-75607143D01*
X150285714Y-75678571D01*
X150428571Y-75678571D01*
X150571428Y-75607143D01*
X150642857Y-75535714D01*
X150714285Y-75392857D01*
X150785714Y-75107143D01*
X150785714Y-74750000D01*
X150714285Y-74464286D01*
X150642857Y-74321429D01*
X150571428Y-74250000D01*
X150428571Y-74178571D01*
X148642857Y-74678571D02*
X148642857Y-75678571D01*
X149000000Y-74107143D02*
X149357143Y-75178571D01*
X148428571Y-75178571D01*
X155142856Y-89178571D02*
X154999999Y-89178571D01*
X154857142Y-89250000D01*
X154785713Y-89321429D01*
X154714284Y-89464286D01*
X154642856Y-89750000D01*
X154642856Y-90107143D01*
X154714284Y-90392857D01*
X154785713Y-90535714D01*
X154857142Y-90607143D01*
X154999999Y-90678571D01*
X155142856Y-90678571D01*
X155285713Y-90607143D01*
X155357142Y-90535714D01*
X155428570Y-90392857D01*
X155499999Y-90107143D01*
X155499999Y-89750000D01*
X155428570Y-89464286D01*
X155357142Y-89321429D01*
X155285713Y-89250000D01*
X155142856Y-89178571D01*
X153928571Y-90678571D02*
X153642856Y-90678571D01*
X153499999Y-90607143D01*
X153428571Y-90535714D01*
X153285713Y-90321429D01*
X153214285Y-90035714D01*
X153214285Y-89464286D01*
X153285713Y-89321429D01*
X153357142Y-89250000D01*
X153499999Y-89178571D01*
X153785713Y-89178571D01*
X153928571Y-89250000D01*
X153999999Y-89321429D01*
X154071428Y-89464286D01*
X154071428Y-89821429D01*
X153999999Y-89964286D01*
X153928571Y-90035714D01*
X153785713Y-90107143D01*
X153499999Y-90107143D01*
X153357142Y-90035714D01*
X153285713Y-89964286D01*
X153214285Y-89821429D01*
X152571428Y-90107143D02*
X151428571Y-90107143D01*
X150428571Y-89178571D02*
X150285714Y-89178571D01*
X150142857Y-89250000D01*
X150071428Y-89321429D01*
X149999999Y-89464286D01*
X149928571Y-89750000D01*
X149928571Y-90107143D01*
X149999999Y-90392857D01*
X150071428Y-90535714D01*
X150142857Y-90607143D01*
X150285714Y-90678571D01*
X150428571Y-90678571D01*
X150571428Y-90607143D01*
X150642857Y-90535714D01*
X150714285Y-90392857D01*
X150785714Y-90107143D01*
X150785714Y-89750000D01*
X150714285Y-89464286D01*
X150642857Y-89321429D01*
X150571428Y-89250000D01*
X150428571Y-89178571D01*
X148571428Y-89178571D02*
X149285714Y-89178571D01*
X149357143Y-89892857D01*
X149285714Y-89821429D01*
X149142857Y-89750000D01*
X148785714Y-89750000D01*
X148642857Y-89821429D01*
X148571428Y-89892857D01*
X148500000Y-90035714D01*
X148500000Y-90392857D01*
X148571428Y-90535714D01*
X148642857Y-90607143D01*
X148785714Y-90678571D01*
X149142857Y-90678571D01*
X149285714Y-90607143D01*
X149357143Y-90535714D01*
X155142856Y-104178571D02*
X154999999Y-104178571D01*
X154857142Y-104250000D01*
X154785713Y-104321429D01*
X154714284Y-104464286D01*
X154642856Y-104750000D01*
X154642856Y-105107143D01*
X154714284Y-105392857D01*
X154785713Y-105535714D01*
X154857142Y-105607143D01*
X154999999Y-105678571D01*
X155142856Y-105678571D01*
X155285713Y-105607143D01*
X155357142Y-105535714D01*
X155428570Y-105392857D01*
X155499999Y-105107143D01*
X155499999Y-104750000D01*
X155428570Y-104464286D01*
X155357142Y-104321429D01*
X155285713Y-104250000D01*
X155142856Y-104178571D01*
X153928571Y-105678571D02*
X153642856Y-105678571D01*
X153499999Y-105607143D01*
X153428571Y-105535714D01*
X153285713Y-105321429D01*
X153214285Y-105035714D01*
X153214285Y-104464286D01*
X153285713Y-104321429D01*
X153357142Y-104250000D01*
X153499999Y-104178571D01*
X153785713Y-104178571D01*
X153928571Y-104250000D01*
X153999999Y-104321429D01*
X154071428Y-104464286D01*
X154071428Y-104821429D01*
X153999999Y-104964286D01*
X153928571Y-105035714D01*
X153785713Y-105107143D01*
X153499999Y-105107143D01*
X153357142Y-105035714D01*
X153285713Y-104964286D01*
X153214285Y-104821429D01*
X152571428Y-105107143D02*
X151428571Y-105107143D01*
X150428571Y-104178571D02*
X150285714Y-104178571D01*
X150142857Y-104250000D01*
X150071428Y-104321429D01*
X149999999Y-104464286D01*
X149928571Y-104750000D01*
X149928571Y-105107143D01*
X149999999Y-105392857D01*
X150071428Y-105535714D01*
X150142857Y-105607143D01*
X150285714Y-105678571D01*
X150428571Y-105678571D01*
X150571428Y-105607143D01*
X150642857Y-105535714D01*
X150714285Y-105392857D01*
X150785714Y-105107143D01*
X150785714Y-104750000D01*
X150714285Y-104464286D01*
X150642857Y-104321429D01*
X150571428Y-104250000D01*
X150428571Y-104178571D01*
X148642857Y-104178571D02*
X148928571Y-104178571D01*
X149071428Y-104250000D01*
X149142857Y-104321429D01*
X149285714Y-104535714D01*
X149357143Y-104821429D01*
X149357143Y-105392857D01*
X149285714Y-105535714D01*
X149214286Y-105607143D01*
X149071428Y-105678571D01*
X148785714Y-105678571D01*
X148642857Y-105607143D01*
X148571428Y-105535714D01*
X148500000Y-105392857D01*
X148500000Y-105035714D01*
X148571428Y-104892857D01*
X148642857Y-104821429D01*
X148785714Y-104750000D01*
X149071428Y-104750000D01*
X149214286Y-104821429D01*
X149285714Y-104892857D01*
X149357143Y-105035714D01*
X169642856Y-30678571D02*
X170499999Y-30678571D01*
X170071427Y-30678571D02*
X170071427Y-29178571D01*
X170214284Y-29392857D01*
X170357142Y-29535714D01*
X170499999Y-29607143D01*
X168714285Y-29178571D02*
X168571428Y-29178571D01*
X168428571Y-29250000D01*
X168357142Y-29321429D01*
X168285713Y-29464286D01*
X168214285Y-29750000D01*
X168214285Y-30107143D01*
X168285713Y-30392857D01*
X168357142Y-30535714D01*
X168428571Y-30607143D01*
X168571428Y-30678571D01*
X168714285Y-30678571D01*
X168857142Y-30607143D01*
X168928571Y-30535714D01*
X168999999Y-30392857D01*
X169071428Y-30107143D01*
X169071428Y-29750000D01*
X168999999Y-29464286D01*
X168928571Y-29321429D01*
X168857142Y-29250000D01*
X168714285Y-29178571D01*
X167571428Y-30107143D02*
X166428571Y-30107143D01*
X165428571Y-29178571D02*
X165285714Y-29178571D01*
X165142857Y-29250000D01*
X165071428Y-29321429D01*
X164999999Y-29464286D01*
X164928571Y-29750000D01*
X164928571Y-30107143D01*
X164999999Y-30392857D01*
X165071428Y-30535714D01*
X165142857Y-30607143D01*
X165285714Y-30678571D01*
X165428571Y-30678571D01*
X165571428Y-30607143D01*
X165642857Y-30535714D01*
X165714285Y-30392857D01*
X165785714Y-30107143D01*
X165785714Y-29750000D01*
X165714285Y-29464286D01*
X165642857Y-29321429D01*
X165571428Y-29250000D01*
X165428571Y-29178571D01*
X163500000Y-30678571D02*
X164357143Y-30678571D01*
X163928571Y-30678571D02*
X163928571Y-29178571D01*
X164071428Y-29392857D01*
X164214286Y-29535714D01*
X164357143Y-29607143D01*
X169642856Y-45678571D02*
X170499999Y-45678571D01*
X170071427Y-45678571D02*
X170071427Y-44178571D01*
X170214284Y-44392857D01*
X170357142Y-44535714D01*
X170499999Y-44607143D01*
X168714285Y-44178571D02*
X168571428Y-44178571D01*
X168428571Y-44250000D01*
X168357142Y-44321429D01*
X168285713Y-44464286D01*
X168214285Y-44750000D01*
X168214285Y-45107143D01*
X168285713Y-45392857D01*
X168357142Y-45535714D01*
X168428571Y-45607143D01*
X168571428Y-45678571D01*
X168714285Y-45678571D01*
X168857142Y-45607143D01*
X168928571Y-45535714D01*
X168999999Y-45392857D01*
X169071428Y-45107143D01*
X169071428Y-44750000D01*
X168999999Y-44464286D01*
X168928571Y-44321429D01*
X168857142Y-44250000D01*
X168714285Y-44178571D01*
X167571428Y-45107143D02*
X166428571Y-45107143D01*
X165428571Y-44178571D02*
X165285714Y-44178571D01*
X165142857Y-44250000D01*
X165071428Y-44321429D01*
X164999999Y-44464286D01*
X164928571Y-44750000D01*
X164928571Y-45107143D01*
X164999999Y-45392857D01*
X165071428Y-45535714D01*
X165142857Y-45607143D01*
X165285714Y-45678571D01*
X165428571Y-45678571D01*
X165571428Y-45607143D01*
X165642857Y-45535714D01*
X165714285Y-45392857D01*
X165785714Y-45107143D01*
X165785714Y-44750000D01*
X165714285Y-44464286D01*
X165642857Y-44321429D01*
X165571428Y-44250000D01*
X165428571Y-44178571D01*
X164357143Y-44321429D02*
X164285714Y-44250000D01*
X164142857Y-44178571D01*
X163785714Y-44178571D01*
X163642857Y-44250000D01*
X163571428Y-44321429D01*
X163500000Y-44464286D01*
X163500000Y-44607143D01*
X163571428Y-44821429D01*
X164428571Y-45678571D01*
X163500000Y-45678571D01*
X169642856Y-60678571D02*
X170499999Y-60678571D01*
X170071427Y-60678571D02*
X170071427Y-59178571D01*
X170214284Y-59392857D01*
X170357142Y-59535714D01*
X170499999Y-59607143D01*
X168714285Y-59178571D02*
X168571428Y-59178571D01*
X168428571Y-59250000D01*
X168357142Y-59321429D01*
X168285713Y-59464286D01*
X168214285Y-59750000D01*
X168214285Y-60107143D01*
X168285713Y-60392857D01*
X168357142Y-60535714D01*
X168428571Y-60607143D01*
X168571428Y-60678571D01*
X168714285Y-60678571D01*
X168857142Y-60607143D01*
X168928571Y-60535714D01*
X168999999Y-60392857D01*
X169071428Y-60107143D01*
X169071428Y-59750000D01*
X168999999Y-59464286D01*
X168928571Y-59321429D01*
X168857142Y-59250000D01*
X168714285Y-59178571D01*
X167571428Y-60107143D02*
X166428571Y-60107143D01*
X165428571Y-59178571D02*
X165285714Y-59178571D01*
X165142857Y-59250000D01*
X165071428Y-59321429D01*
X164999999Y-59464286D01*
X164928571Y-59750000D01*
X164928571Y-60107143D01*
X164999999Y-60392857D01*
X165071428Y-60535714D01*
X165142857Y-60607143D01*
X165285714Y-60678571D01*
X165428571Y-60678571D01*
X165571428Y-60607143D01*
X165642857Y-60535714D01*
X165714285Y-60392857D01*
X165785714Y-60107143D01*
X165785714Y-59750000D01*
X165714285Y-59464286D01*
X165642857Y-59321429D01*
X165571428Y-59250000D01*
X165428571Y-59178571D01*
X164428571Y-59178571D02*
X163500000Y-59178571D01*
X164000000Y-59750000D01*
X163785714Y-59750000D01*
X163642857Y-59821429D01*
X163571428Y-59892857D01*
X163500000Y-60035714D01*
X163500000Y-60392857D01*
X163571428Y-60535714D01*
X163642857Y-60607143D01*
X163785714Y-60678571D01*
X164214286Y-60678571D01*
X164357143Y-60607143D01*
X164428571Y-60535714D01*
X169642856Y-75678571D02*
X170499999Y-75678571D01*
X170071427Y-75678571D02*
X170071427Y-74178571D01*
X170214284Y-74392857D01*
X170357142Y-74535714D01*
X170499999Y-74607143D01*
X168714285Y-74178571D02*
X168571428Y-74178571D01*
X168428571Y-74250000D01*
X168357142Y-74321429D01*
X168285713Y-74464286D01*
X168214285Y-74750000D01*
X168214285Y-75107143D01*
X168285713Y-75392857D01*
X168357142Y-75535714D01*
X168428571Y-75607143D01*
X168571428Y-75678571D01*
X168714285Y-75678571D01*
X168857142Y-75607143D01*
X168928571Y-75535714D01*
X168999999Y-75392857D01*
X169071428Y-75107143D01*
X169071428Y-74750000D01*
X168999999Y-74464286D01*
X168928571Y-74321429D01*
X168857142Y-74250000D01*
X168714285Y-74178571D01*
X167571428Y-75107143D02*
X166428571Y-75107143D01*
X165428571Y-74178571D02*
X165285714Y-74178571D01*
X165142857Y-74250000D01*
X165071428Y-74321429D01*
X164999999Y-74464286D01*
X164928571Y-74750000D01*
X164928571Y-75107143D01*
X164999999Y-75392857D01*
X165071428Y-75535714D01*
X165142857Y-75607143D01*
X165285714Y-75678571D01*
X165428571Y-75678571D01*
X165571428Y-75607143D01*
X165642857Y-75535714D01*
X165714285Y-75392857D01*
X165785714Y-75107143D01*
X165785714Y-74750000D01*
X165714285Y-74464286D01*
X165642857Y-74321429D01*
X165571428Y-74250000D01*
X165428571Y-74178571D01*
X163642857Y-74678571D02*
X163642857Y-75678571D01*
X164000000Y-74107143D02*
X164357143Y-75178571D01*
X163428571Y-75178571D01*
X169642856Y-90678571D02*
X170499999Y-90678571D01*
X170071427Y-90678571D02*
X170071427Y-89178571D01*
X170214284Y-89392857D01*
X170357142Y-89535714D01*
X170499999Y-89607143D01*
X168714285Y-89178571D02*
X168571428Y-89178571D01*
X168428571Y-89250000D01*
X168357142Y-89321429D01*
X168285713Y-89464286D01*
X168214285Y-89750000D01*
X168214285Y-90107143D01*
X168285713Y-90392857D01*
X168357142Y-90535714D01*
X168428571Y-90607143D01*
X168571428Y-90678571D01*
X168714285Y-90678571D01*
X168857142Y-90607143D01*
X168928571Y-90535714D01*
X168999999Y-90392857D01*
X169071428Y-90107143D01*
X169071428Y-89750000D01*
X168999999Y-89464286D01*
X168928571Y-89321429D01*
X168857142Y-89250000D01*
X168714285Y-89178571D01*
X167571428Y-90107143D02*
X166428571Y-90107143D01*
X165428571Y-89178571D02*
X165285714Y-89178571D01*
X165142857Y-89250000D01*
X165071428Y-89321429D01*
X164999999Y-89464286D01*
X164928571Y-89750000D01*
X164928571Y-90107143D01*
X164999999Y-90392857D01*
X165071428Y-90535714D01*
X165142857Y-90607143D01*
X165285714Y-90678571D01*
X165428571Y-90678571D01*
X165571428Y-90607143D01*
X165642857Y-90535714D01*
X165714285Y-90392857D01*
X165785714Y-90107143D01*
X165785714Y-89750000D01*
X165714285Y-89464286D01*
X165642857Y-89321429D01*
X165571428Y-89250000D01*
X165428571Y-89178571D01*
X163571428Y-89178571D02*
X164285714Y-89178571D01*
X164357143Y-89892857D01*
X164285714Y-89821429D01*
X164142857Y-89750000D01*
X163785714Y-89750000D01*
X163642857Y-89821429D01*
X163571428Y-89892857D01*
X163500000Y-90035714D01*
X163500000Y-90392857D01*
X163571428Y-90535714D01*
X163642857Y-90607143D01*
X163785714Y-90678571D01*
X164142857Y-90678571D01*
X164285714Y-90607143D01*
X164357143Y-90535714D01*
X169642856Y-105678571D02*
X170499999Y-105678571D01*
X170071427Y-105678571D02*
X170071427Y-104178571D01*
X170214284Y-104392857D01*
X170357142Y-104535714D01*
X170499999Y-104607143D01*
X168714285Y-104178571D02*
X168571428Y-104178571D01*
X168428571Y-104250000D01*
X168357142Y-104321429D01*
X168285713Y-104464286D01*
X168214285Y-104750000D01*
X168214285Y-105107143D01*
X168285713Y-105392857D01*
X168357142Y-105535714D01*
X168428571Y-105607143D01*
X168571428Y-105678571D01*
X168714285Y-105678571D01*
X168857142Y-105607143D01*
X168928571Y-105535714D01*
X168999999Y-105392857D01*
X169071428Y-105107143D01*
X169071428Y-104750000D01*
X168999999Y-104464286D01*
X168928571Y-104321429D01*
X168857142Y-104250000D01*
X168714285Y-104178571D01*
X167571428Y-105107143D02*
X166428571Y-105107143D01*
X165428571Y-104178571D02*
X165285714Y-104178571D01*
X165142857Y-104250000D01*
X165071428Y-104321429D01*
X164999999Y-104464286D01*
X164928571Y-104750000D01*
X164928571Y-105107143D01*
X164999999Y-105392857D01*
X165071428Y-105535714D01*
X165142857Y-105607143D01*
X165285714Y-105678571D01*
X165428571Y-105678571D01*
X165571428Y-105607143D01*
X165642857Y-105535714D01*
X165714285Y-105392857D01*
X165785714Y-105107143D01*
X165785714Y-104750000D01*
X165714285Y-104464286D01*
X165642857Y-104321429D01*
X165571428Y-104250000D01*
X165428571Y-104178571D01*
X163642857Y-104178571D02*
X163928571Y-104178571D01*
X164071428Y-104250000D01*
X164142857Y-104321429D01*
X164285714Y-104535714D01*
X164357143Y-104821429D01*
X164357143Y-105392857D01*
X164285714Y-105535714D01*
X164214286Y-105607143D01*
X164071428Y-105678571D01*
X163785714Y-105678571D01*
X163642857Y-105607143D01*
X163571428Y-105535714D01*
X163500000Y-105392857D01*
X163500000Y-105035714D01*
X163571428Y-104892857D01*
X163642857Y-104821429D01*
X163785714Y-104750000D01*
X164071428Y-104750000D01*
X164214286Y-104821429D01*
X164285714Y-104892857D01*
X164357143Y-105035714D01*
M02*
