G04 #@! TF.GenerationSoftware,KiCad,Pcbnew,(5.1.5)-3*
G04 #@! TF.CreationDate,2020-02-10T18:10:01+01:00*
G04 #@! TF.ProjectId,Mars-64,4d617273-2d36-4342-9e6b-696361645f70,A*
G04 #@! TF.SameCoordinates,Original*
G04 #@! TF.FileFunction,Copper,L2,Inr*
G04 #@! TF.FilePolarity,Positive*
%FSLAX46Y46*%
G04 Gerber Fmt 4.6, Leading zero omitted, Abs format (unit mm)*
G04 Created by KiCad (PCBNEW (5.1.5)-3) date 2020-02-10 18:10:01*
%MOMM*%
%LPD*%
G04 APERTURE LIST*
%ADD10C,0.800000*%
%ADD11C,0.250000*%
%ADD12C,0.254000*%
G04 APERTURE END LIST*
D10*
X65957100Y-60877100D03*
X66173100Y-55955100D03*
X45618400Y-60845000D03*
X60881600Y-61063400D03*
X38756100Y-50953800D03*
X55688800Y-50798800D03*
X60750900Y-50782400D03*
X43180000Y-33020000D03*
X43180000Y-34925000D03*
X76200000Y-34925000D03*
X81915000Y-58420000D03*
X40005000Y-58420000D03*
X73591000Y-34538900D03*
X81188600Y-45720000D03*
X70465100Y-76302100D03*
X83447000Y-53506200D03*
X80005000Y-35489300D03*
X43180000Y-38100000D03*
X66525200Y-33863200D03*
X48260000Y-38100000D03*
X54477300Y-33444500D03*
X53340000Y-38100000D03*
X65826400Y-45708300D03*
X58420000Y-38100000D03*
X71115900Y-40764500D03*
X63500000Y-38100000D03*
X70783200Y-34484300D03*
X68580000Y-38100000D03*
X70565800Y-35485400D03*
X73660000Y-38100000D03*
X69525700Y-35481400D03*
X78544800Y-38295200D03*
X65625800Y-35498700D03*
X43180000Y-43180000D03*
X67388000Y-34588500D03*
X48260000Y-43180000D03*
X69311200Y-33422400D03*
X53340000Y-43180000D03*
X63266900Y-35498600D03*
X58420000Y-43180000D03*
X63796700Y-33441900D03*
X63500000Y-43180000D03*
X61517600Y-35480100D03*
X62720500Y-33637400D03*
X73660000Y-43180000D03*
X64806200Y-33082500D03*
X78740000Y-43180000D03*
X45920200Y-50774300D03*
X43180000Y-48260000D03*
X51019000Y-45725700D03*
X48260000Y-48260000D03*
X39240900Y-47501600D03*
X53340000Y-48260000D03*
X39268000Y-46368200D03*
X58420000Y-48260000D03*
X45812200Y-45627800D03*
X63500000Y-48260000D03*
X39275200Y-43526800D03*
X68580000Y-48260000D03*
X37486800Y-42501200D03*
X73660000Y-48260000D03*
X51347300Y-33562400D03*
X78740000Y-48260000D03*
X51857100Y-34467400D03*
X43180000Y-53340000D03*
X50866200Y-50662700D03*
X48260000Y-53340000D03*
X52876900Y-35499300D03*
X53340000Y-53340000D03*
X50600000Y-35279600D03*
X58420000Y-53340000D03*
X55519900Y-35490700D03*
X63500000Y-53340000D03*
X56520300Y-35497800D03*
X68580000Y-53340000D03*
X57692400Y-35473500D03*
X73660000Y-53340000D03*
X77734600Y-35366300D03*
X78740000Y-53340000D03*
X40773900Y-61050200D03*
X43180000Y-58420000D03*
X40536100Y-63348000D03*
X48260000Y-58420000D03*
X39307500Y-64088400D03*
X53340000Y-58420000D03*
X58420000Y-58420000D03*
X58420000Y-60198000D03*
X76114400Y-60874400D03*
X63500000Y-58420000D03*
X68580000Y-58420000D03*
X50892090Y-66141410D03*
X54681900Y-76288100D03*
X73660000Y-58420000D03*
X40006000Y-64813800D03*
X78740000Y-58420000D03*
X40552600Y-65710600D03*
X43180000Y-63500000D03*
X45783800Y-66178500D03*
X48260000Y-63500000D03*
X50166100Y-76291300D03*
X53340000Y-63500000D03*
X53681500Y-76288500D03*
X58420000Y-63500000D03*
X55682300Y-76314700D03*
X64031376Y-64006476D03*
X56682700Y-76291200D03*
X68580000Y-63500000D03*
X57683100Y-76265800D03*
X73660000Y-63500000D03*
X59526400Y-76271900D03*
X78740000Y-63500000D03*
X83882200Y-63376000D03*
X43180000Y-68580000D03*
X65840200Y-66040000D03*
X48260000Y-68580000D03*
X83861900Y-69463600D03*
X53340000Y-68580000D03*
X84274200Y-68293400D03*
X58420000Y-68580000D03*
X81714600Y-71863500D03*
X63500000Y-68580000D03*
X81350900Y-65700500D03*
X68580000Y-68580000D03*
X75988800Y-66040000D03*
X73660000Y-68580000D03*
X81344500Y-67239700D03*
X78740000Y-68580000D03*
X69289300Y-76471300D03*
X43180000Y-73660000D03*
X65952200Y-76058500D03*
X48260000Y-73660000D03*
X69093400Y-77582800D03*
X53340000Y-73660000D03*
X63792100Y-78586000D03*
X58420000Y-73660000D03*
X64811000Y-76276200D03*
X63500000Y-73660000D03*
X66979900Y-76720500D03*
X68580000Y-73660000D03*
X62703600Y-77622800D03*
X73660000Y-73660000D03*
X61977100Y-78947900D03*
X78740000Y-73660000D03*
X81347800Y-69937500D03*
X76200000Y-45508000D03*
D11*
X81915000Y-58420000D02*
X81915000Y-40640000D01*
X81915000Y-40640000D02*
X76200000Y-34925000D01*
X40005000Y-58420000D02*
X40005000Y-38100000D01*
X40005000Y-38100000D02*
X43180000Y-34925000D01*
X53340000Y-38100000D02*
X54477300Y-36962700D01*
X54477300Y-36962700D02*
X54477300Y-33444500D01*
X73660000Y-38100000D02*
X71045400Y-35485400D01*
X71045400Y-35485400D02*
X70565800Y-35485400D01*
X67388000Y-34588500D02*
X63132200Y-34588500D01*
X63132200Y-34588500D02*
X62541600Y-35179100D01*
X62541600Y-35179100D02*
X62541600Y-35485200D01*
X62541600Y-35485200D02*
X58972600Y-39054200D01*
X58972600Y-39054200D02*
X52385800Y-39054200D01*
X52385800Y-39054200D02*
X48260000Y-43180000D01*
X58420000Y-43180000D02*
X58420000Y-40345500D01*
X58420000Y-40345500D02*
X63266900Y-35498600D01*
X63500000Y-43180000D02*
X63500000Y-40055600D01*
X63500000Y-40055600D02*
X68113400Y-35442200D01*
X68113400Y-35442200D02*
X68113400Y-34248100D01*
X68113400Y-34248100D02*
X67003100Y-33137800D01*
X67003100Y-33137800D02*
X66081000Y-33137800D01*
X66081000Y-33137800D02*
X65388500Y-33830300D01*
X65388500Y-33830300D02*
X64185100Y-33830300D01*
X64185100Y-33830300D02*
X63796700Y-33441900D01*
X45812200Y-45627800D02*
X46457200Y-44982800D01*
X46457200Y-44982800D02*
X60222800Y-44982800D01*
X60222800Y-44982800D02*
X63500000Y-48260000D01*
X58420000Y-60198000D02*
X58420000Y-58420000D01*
X63500000Y-58420000D02*
X64225400Y-59145400D01*
X64225400Y-59145400D02*
X74385400Y-59145400D01*
X74385400Y-59145400D02*
X76114400Y-60874400D01*
X53340000Y-68580000D02*
X55422900Y-70662900D01*
X55422900Y-70662900D02*
X82662600Y-70662900D01*
X82662600Y-70662900D02*
X83861900Y-69463600D01*
X58420000Y-68580000D02*
X59145400Y-69305400D01*
X59145400Y-69305400D02*
X80642100Y-69305400D01*
X80642100Y-69305400D02*
X81654100Y-68293400D01*
X81654100Y-68293400D02*
X84274200Y-68293400D01*
X68580000Y-68580000D02*
X70012700Y-67147300D01*
X70012700Y-67147300D02*
X79904100Y-67147300D01*
X79904100Y-67147300D02*
X81350900Y-65700500D01*
X53340000Y-73660000D02*
X56103200Y-73660000D01*
X56103200Y-73660000D02*
X58705100Y-76261900D01*
X58705100Y-76261900D02*
X58705100Y-76494700D01*
X58705100Y-76494700D02*
X60165300Y-77954900D01*
X60165300Y-77954900D02*
X62010000Y-77954900D01*
X62010000Y-77954900D02*
X62403200Y-78348100D01*
X62403200Y-78348100D02*
X63004100Y-78348100D01*
X63004100Y-78348100D02*
X63769400Y-77582800D01*
X63769400Y-77582800D02*
X69093400Y-77582800D01*
D12*
G36*
X49940226Y-34475663D02*
G01*
X49796063Y-34619826D01*
X49682795Y-34789344D01*
X49604774Y-34977702D01*
X49565000Y-35177661D01*
X49565000Y-35381539D01*
X49604774Y-35581498D01*
X49682795Y-35769856D01*
X49796063Y-35939374D01*
X49940226Y-36083537D01*
X50109744Y-36196805D01*
X50298102Y-36274826D01*
X50498061Y-36314600D01*
X50701939Y-36314600D01*
X50901898Y-36274826D01*
X51090256Y-36196805D01*
X51259774Y-36083537D01*
X51403937Y-35939374D01*
X51517205Y-35769856D01*
X51595226Y-35581498D01*
X51616448Y-35474808D01*
X51755161Y-35502400D01*
X51841900Y-35502400D01*
X51841900Y-35601239D01*
X51881674Y-35801198D01*
X51959695Y-35989556D01*
X52072963Y-36159074D01*
X52217126Y-36303237D01*
X52386644Y-36416505D01*
X52575002Y-36494526D01*
X52774961Y-36534300D01*
X52978839Y-36534300D01*
X53178798Y-36494526D01*
X53367156Y-36416505D01*
X53536674Y-36303237D01*
X53680837Y-36159074D01*
X53717300Y-36104503D01*
X53717300Y-36647898D01*
X53300199Y-37065000D01*
X53238061Y-37065000D01*
X53038102Y-37104774D01*
X52849744Y-37182795D01*
X52680226Y-37296063D01*
X52536063Y-37440226D01*
X52422795Y-37609744D01*
X52344774Y-37798102D01*
X52305000Y-37998061D01*
X52305000Y-38201939D01*
X52323834Y-38296626D01*
X52236814Y-38305197D01*
X52093553Y-38348654D01*
X51961524Y-38419226D01*
X51845799Y-38514199D01*
X51822001Y-38543197D01*
X48220199Y-42145000D01*
X48158061Y-42145000D01*
X47958102Y-42184774D01*
X47769744Y-42262795D01*
X47600226Y-42376063D01*
X47456063Y-42520226D01*
X47342795Y-42689744D01*
X47264774Y-42878102D01*
X47225000Y-43078061D01*
X47225000Y-43281939D01*
X47264774Y-43481898D01*
X47342795Y-43670256D01*
X47456063Y-43839774D01*
X47600226Y-43983937D01*
X47769744Y-44097205D01*
X47958102Y-44175226D01*
X48158061Y-44215000D01*
X48361939Y-44215000D01*
X48561898Y-44175226D01*
X48750256Y-44097205D01*
X48919774Y-43983937D01*
X49063937Y-43839774D01*
X49177205Y-43670256D01*
X49255226Y-43481898D01*
X49295000Y-43281939D01*
X49295000Y-43219801D01*
X49436740Y-43078061D01*
X52305000Y-43078061D01*
X52305000Y-43281939D01*
X52344774Y-43481898D01*
X52422795Y-43670256D01*
X52536063Y-43839774D01*
X52680226Y-43983937D01*
X52849744Y-44097205D01*
X53038102Y-44175226D01*
X53238061Y-44215000D01*
X53441939Y-44215000D01*
X53641898Y-44175226D01*
X53830256Y-44097205D01*
X53999774Y-43983937D01*
X54143937Y-43839774D01*
X54257205Y-43670256D01*
X54335226Y-43481898D01*
X54375000Y-43281939D01*
X54375000Y-43078061D01*
X54335226Y-42878102D01*
X54257205Y-42689744D01*
X54143937Y-42520226D01*
X53999774Y-42376063D01*
X53830256Y-42262795D01*
X53641898Y-42184774D01*
X53441939Y-42145000D01*
X53238061Y-42145000D01*
X53038102Y-42184774D01*
X52849744Y-42262795D01*
X52680226Y-42376063D01*
X52536063Y-42520226D01*
X52422795Y-42689744D01*
X52344774Y-42878102D01*
X52305000Y-43078061D01*
X49436740Y-43078061D01*
X52700602Y-39814200D01*
X57872859Y-39814200D01*
X57856202Y-39834497D01*
X57856201Y-39834498D01*
X57785026Y-39921224D01*
X57714454Y-40053254D01*
X57670998Y-40196515D01*
X57656324Y-40345500D01*
X57660001Y-40382832D01*
X57660000Y-42476289D01*
X57616063Y-42520226D01*
X57502795Y-42689744D01*
X57424774Y-42878102D01*
X57385000Y-43078061D01*
X57385000Y-43281939D01*
X57424774Y-43481898D01*
X57502795Y-43670256D01*
X57616063Y-43839774D01*
X57760226Y-43983937D01*
X57929744Y-44097205D01*
X58118102Y-44175226D01*
X58318061Y-44215000D01*
X58521939Y-44215000D01*
X58721898Y-44175226D01*
X58910256Y-44097205D01*
X59079774Y-43983937D01*
X59223937Y-43839774D01*
X59337205Y-43670256D01*
X59415226Y-43481898D01*
X59455000Y-43281939D01*
X59455000Y-43078061D01*
X59415226Y-42878102D01*
X59337205Y-42689744D01*
X59223937Y-42520226D01*
X59180000Y-42476289D01*
X59180000Y-40660301D01*
X63306702Y-36533600D01*
X63368839Y-36533600D01*
X63568798Y-36493826D01*
X63757156Y-36415805D01*
X63926674Y-36302537D01*
X64070837Y-36158374D01*
X64184105Y-35988856D01*
X64262126Y-35800498D01*
X64301900Y-35600539D01*
X64301900Y-35396661D01*
X64292320Y-35348500D01*
X64600400Y-35348500D01*
X64590800Y-35396761D01*
X64590800Y-35600639D01*
X64630574Y-35800598D01*
X64708595Y-35988956D01*
X64821863Y-36158474D01*
X64966026Y-36302637D01*
X65135544Y-36415905D01*
X65323902Y-36493926D01*
X65523861Y-36533700D01*
X65727739Y-36533700D01*
X65927698Y-36493926D01*
X66028715Y-36452083D01*
X64526329Y-37954469D01*
X64495226Y-37798102D01*
X64417205Y-37609744D01*
X64303937Y-37440226D01*
X64159774Y-37296063D01*
X63990256Y-37182795D01*
X63801898Y-37104774D01*
X63601939Y-37065000D01*
X63398061Y-37065000D01*
X63198102Y-37104774D01*
X63009744Y-37182795D01*
X62840226Y-37296063D01*
X62696063Y-37440226D01*
X62582795Y-37609744D01*
X62504774Y-37798102D01*
X62465000Y-37998061D01*
X62465000Y-38201939D01*
X62504774Y-38401898D01*
X62582795Y-38590256D01*
X62696063Y-38759774D01*
X62840226Y-38903937D01*
X63009744Y-39017205D01*
X63198102Y-39095226D01*
X63354470Y-39126329D01*
X62988998Y-39491801D01*
X62960000Y-39515599D01*
X62936202Y-39544597D01*
X62936201Y-39544598D01*
X62865026Y-39631324D01*
X62794454Y-39763354D01*
X62750998Y-39906615D01*
X62736324Y-40055600D01*
X62740001Y-40092932D01*
X62740000Y-42476289D01*
X62696063Y-42520226D01*
X62582795Y-42689744D01*
X62504774Y-42878102D01*
X62465000Y-43078061D01*
X62465000Y-43281939D01*
X62504774Y-43481898D01*
X62582795Y-43670256D01*
X62696063Y-43839774D01*
X62840226Y-43983937D01*
X63009744Y-44097205D01*
X63198102Y-44175226D01*
X63398061Y-44215000D01*
X63601939Y-44215000D01*
X63801898Y-44175226D01*
X63990256Y-44097205D01*
X64159774Y-43983937D01*
X64303937Y-43839774D01*
X64417205Y-43670256D01*
X64495226Y-43481898D01*
X64535000Y-43281939D01*
X64535000Y-43078061D01*
X72625000Y-43078061D01*
X72625000Y-43281939D01*
X72664774Y-43481898D01*
X72742795Y-43670256D01*
X72856063Y-43839774D01*
X73000226Y-43983937D01*
X73169744Y-44097205D01*
X73358102Y-44175226D01*
X73558061Y-44215000D01*
X73761939Y-44215000D01*
X73961898Y-44175226D01*
X74150256Y-44097205D01*
X74319774Y-43983937D01*
X74463937Y-43839774D01*
X74577205Y-43670256D01*
X74655226Y-43481898D01*
X74695000Y-43281939D01*
X74695000Y-43078061D01*
X77705000Y-43078061D01*
X77705000Y-43281939D01*
X77744774Y-43481898D01*
X77822795Y-43670256D01*
X77936063Y-43839774D01*
X78080226Y-43983937D01*
X78249744Y-44097205D01*
X78438102Y-44175226D01*
X78638061Y-44215000D01*
X78841939Y-44215000D01*
X79041898Y-44175226D01*
X79230256Y-44097205D01*
X79399774Y-43983937D01*
X79543937Y-43839774D01*
X79657205Y-43670256D01*
X79735226Y-43481898D01*
X79775000Y-43281939D01*
X79775000Y-43078061D01*
X79735226Y-42878102D01*
X79657205Y-42689744D01*
X79543937Y-42520226D01*
X79399774Y-42376063D01*
X79230256Y-42262795D01*
X79041898Y-42184774D01*
X78841939Y-42145000D01*
X78638061Y-42145000D01*
X78438102Y-42184774D01*
X78249744Y-42262795D01*
X78080226Y-42376063D01*
X77936063Y-42520226D01*
X77822795Y-42689744D01*
X77744774Y-42878102D01*
X77705000Y-43078061D01*
X74695000Y-43078061D01*
X74655226Y-42878102D01*
X74577205Y-42689744D01*
X74463937Y-42520226D01*
X74319774Y-42376063D01*
X74150256Y-42262795D01*
X73961898Y-42184774D01*
X73761939Y-42145000D01*
X73558061Y-42145000D01*
X73358102Y-42184774D01*
X73169744Y-42262795D01*
X73000226Y-42376063D01*
X72856063Y-42520226D01*
X72742795Y-42689744D01*
X72664774Y-42878102D01*
X72625000Y-43078061D01*
X64535000Y-43078061D01*
X64495226Y-42878102D01*
X64417205Y-42689744D01*
X64303937Y-42520226D01*
X64260000Y-42476289D01*
X64260000Y-40662561D01*
X70080900Y-40662561D01*
X70080900Y-40866439D01*
X70120674Y-41066398D01*
X70198695Y-41254756D01*
X70311963Y-41424274D01*
X70456126Y-41568437D01*
X70625644Y-41681705D01*
X70814002Y-41759726D01*
X71013961Y-41799500D01*
X71217839Y-41799500D01*
X71417798Y-41759726D01*
X71606156Y-41681705D01*
X71775674Y-41568437D01*
X71919837Y-41424274D01*
X72033105Y-41254756D01*
X72111126Y-41066398D01*
X72150900Y-40866439D01*
X72150900Y-40662561D01*
X72111126Y-40462602D01*
X72033105Y-40274244D01*
X71919837Y-40104726D01*
X71775674Y-39960563D01*
X71606156Y-39847295D01*
X71417798Y-39769274D01*
X71217839Y-39729500D01*
X71013961Y-39729500D01*
X70814002Y-39769274D01*
X70625644Y-39847295D01*
X70456126Y-39960563D01*
X70311963Y-40104726D01*
X70198695Y-40274244D01*
X70120674Y-40462602D01*
X70080900Y-40662561D01*
X64260000Y-40662561D01*
X64260000Y-40370401D01*
X66632340Y-37998061D01*
X67545000Y-37998061D01*
X67545000Y-38201939D01*
X67584774Y-38401898D01*
X67662795Y-38590256D01*
X67776063Y-38759774D01*
X67920226Y-38903937D01*
X68089744Y-39017205D01*
X68278102Y-39095226D01*
X68478061Y-39135000D01*
X68681939Y-39135000D01*
X68881898Y-39095226D01*
X69070256Y-39017205D01*
X69239774Y-38903937D01*
X69383937Y-38759774D01*
X69497205Y-38590256D01*
X69575226Y-38401898D01*
X69615000Y-38201939D01*
X69615000Y-37998061D01*
X69575226Y-37798102D01*
X69497205Y-37609744D01*
X69383937Y-37440226D01*
X69239774Y-37296063D01*
X69070256Y-37182795D01*
X68881898Y-37104774D01*
X68681939Y-37065000D01*
X68478061Y-37065000D01*
X68278102Y-37104774D01*
X68089744Y-37182795D01*
X67920226Y-37296063D01*
X67776063Y-37440226D01*
X67662795Y-37609744D01*
X67584774Y-37798102D01*
X67545000Y-37998061D01*
X66632340Y-37998061D01*
X68624404Y-36005998D01*
X68628949Y-36002268D01*
X68721763Y-36141174D01*
X68865926Y-36285337D01*
X69035444Y-36398605D01*
X69223802Y-36476626D01*
X69423761Y-36516400D01*
X69627639Y-36516400D01*
X69827598Y-36476626D01*
X70015956Y-36398605D01*
X70042757Y-36380697D01*
X70075544Y-36402605D01*
X70263902Y-36480626D01*
X70463861Y-36520400D01*
X70667739Y-36520400D01*
X70867698Y-36480626D01*
X70937084Y-36451885D01*
X72625000Y-38139802D01*
X72625000Y-38201939D01*
X72664774Y-38401898D01*
X72742795Y-38590256D01*
X72856063Y-38759774D01*
X73000226Y-38903937D01*
X73169744Y-39017205D01*
X73358102Y-39095226D01*
X73558061Y-39135000D01*
X73761939Y-39135000D01*
X73961898Y-39095226D01*
X74150256Y-39017205D01*
X74319774Y-38903937D01*
X74463937Y-38759774D01*
X74577205Y-38590256D01*
X74655226Y-38401898D01*
X74695000Y-38201939D01*
X74695000Y-38193261D01*
X77509800Y-38193261D01*
X77509800Y-38397139D01*
X77549574Y-38597098D01*
X77627595Y-38785456D01*
X77740863Y-38954974D01*
X77885026Y-39099137D01*
X78054544Y-39212405D01*
X78242902Y-39290426D01*
X78442861Y-39330200D01*
X78646739Y-39330200D01*
X78846698Y-39290426D01*
X79035056Y-39212405D01*
X79204574Y-39099137D01*
X79348737Y-38954974D01*
X79462005Y-38785456D01*
X79540026Y-38597098D01*
X79579800Y-38397139D01*
X79579800Y-38193261D01*
X79540026Y-37993302D01*
X79462005Y-37804944D01*
X79348737Y-37635426D01*
X79204574Y-37491263D01*
X79035056Y-37377995D01*
X78846698Y-37299974D01*
X78646739Y-37260200D01*
X78442861Y-37260200D01*
X78242902Y-37299974D01*
X78054544Y-37377995D01*
X77885026Y-37491263D01*
X77740863Y-37635426D01*
X77627595Y-37804944D01*
X77549574Y-37993302D01*
X77509800Y-38193261D01*
X74695000Y-38193261D01*
X74695000Y-37998061D01*
X74655226Y-37798102D01*
X74577205Y-37609744D01*
X74463937Y-37440226D01*
X74319774Y-37296063D01*
X74150256Y-37182795D01*
X73961898Y-37104774D01*
X73761939Y-37065000D01*
X73699802Y-37065000D01*
X71663936Y-35029135D01*
X71700405Y-34974556D01*
X71778426Y-34786198D01*
X71818200Y-34586239D01*
X71818200Y-34417000D01*
X72559970Y-34417000D01*
X72556000Y-34436961D01*
X72556000Y-34640839D01*
X72595774Y-34840798D01*
X72673795Y-35029156D01*
X72787063Y-35198674D01*
X72931226Y-35342837D01*
X73100744Y-35456105D01*
X73289102Y-35534126D01*
X73489061Y-35573900D01*
X73692939Y-35573900D01*
X73892898Y-35534126D01*
X74081256Y-35456105D01*
X74250774Y-35342837D01*
X74394937Y-35198674D01*
X74508205Y-35029156D01*
X74586226Y-34840798D01*
X74626000Y-34640839D01*
X74626000Y-34436961D01*
X74622030Y-34417000D01*
X77321828Y-34417000D01*
X77244344Y-34449095D01*
X77074826Y-34562363D01*
X76930663Y-34706526D01*
X76817395Y-34876044D01*
X76739374Y-35064402D01*
X76699600Y-35264361D01*
X76699600Y-35468239D01*
X76739374Y-35668198D01*
X76817395Y-35856556D01*
X76930663Y-36026074D01*
X77074826Y-36170237D01*
X77244344Y-36283505D01*
X77432702Y-36361526D01*
X77632661Y-36401300D01*
X77836539Y-36401300D01*
X78036498Y-36361526D01*
X78224856Y-36283505D01*
X78394374Y-36170237D01*
X78538537Y-36026074D01*
X78651805Y-35856556D01*
X78729826Y-35668198D01*
X78769600Y-35468239D01*
X78769600Y-35387361D01*
X78970000Y-35387361D01*
X78970000Y-35591239D01*
X79009774Y-35791198D01*
X79087795Y-35979556D01*
X79201063Y-36149074D01*
X79345226Y-36293237D01*
X79514744Y-36406505D01*
X79703102Y-36484526D01*
X79903061Y-36524300D01*
X80106939Y-36524300D01*
X80306898Y-36484526D01*
X80495256Y-36406505D01*
X80664774Y-36293237D01*
X80808937Y-36149074D01*
X80922205Y-35979556D01*
X81000226Y-35791198D01*
X81040000Y-35591239D01*
X81040000Y-35387361D01*
X81000226Y-35187402D01*
X80922205Y-34999044D01*
X80808937Y-34829526D01*
X80664774Y-34685363D01*
X80495256Y-34572095D01*
X80306898Y-34494074D01*
X80106939Y-34454300D01*
X79903061Y-34454300D01*
X79703102Y-34494074D01*
X79514744Y-34572095D01*
X79345226Y-34685363D01*
X79201063Y-34829526D01*
X79087795Y-34999044D01*
X79009774Y-35187402D01*
X78970000Y-35387361D01*
X78769600Y-35387361D01*
X78769600Y-35264361D01*
X78729826Y-35064402D01*
X78651805Y-34876044D01*
X78538537Y-34706526D01*
X78394374Y-34562363D01*
X78224856Y-34449095D01*
X78147372Y-34417000D01*
X82423000Y-34417000D01*
X82423000Y-53348960D01*
X82412000Y-53404261D01*
X82412000Y-53608139D01*
X82423000Y-53663440D01*
X82423000Y-67533400D01*
X82341357Y-67533400D01*
X82379500Y-67341639D01*
X82379500Y-67137761D01*
X82339726Y-66937802D01*
X82261705Y-66749444D01*
X82148437Y-66579926D01*
X82041811Y-66473300D01*
X82154837Y-66360274D01*
X82268105Y-66190756D01*
X82346126Y-66002398D01*
X82385900Y-65802439D01*
X82385900Y-65598561D01*
X82346126Y-65398602D01*
X82268105Y-65210244D01*
X82154837Y-65040726D01*
X82010674Y-64896563D01*
X81841156Y-64783295D01*
X81652798Y-64705274D01*
X81452839Y-64665500D01*
X81248961Y-64665500D01*
X81049002Y-64705274D01*
X80860644Y-64783295D01*
X80691126Y-64896563D01*
X80546963Y-65040726D01*
X80433695Y-65210244D01*
X80355674Y-65398602D01*
X80315900Y-65598561D01*
X80315900Y-65660698D01*
X79589299Y-66387300D01*
X76965220Y-66387300D01*
X76984026Y-66341898D01*
X77023800Y-66141939D01*
X77023800Y-65938061D01*
X76984026Y-65738102D01*
X76906005Y-65549744D01*
X76792737Y-65380226D01*
X76648574Y-65236063D01*
X76479056Y-65122795D01*
X76290698Y-65044774D01*
X76090739Y-65005000D01*
X75886861Y-65005000D01*
X75686902Y-65044774D01*
X75498544Y-65122795D01*
X75329026Y-65236063D01*
X75184863Y-65380226D01*
X75071595Y-65549744D01*
X74993574Y-65738102D01*
X74953800Y-65938061D01*
X74953800Y-66141939D01*
X74993574Y-66341898D01*
X75012380Y-66387300D01*
X70050025Y-66387300D01*
X70012700Y-66383624D01*
X69975375Y-66387300D01*
X69975367Y-66387300D01*
X69863714Y-66398297D01*
X69720453Y-66441754D01*
X69588424Y-66512326D01*
X69472699Y-66607299D01*
X69448901Y-66636297D01*
X68540199Y-67545000D01*
X68478061Y-67545000D01*
X68278102Y-67584774D01*
X68089744Y-67662795D01*
X67920226Y-67776063D01*
X67776063Y-67920226D01*
X67662795Y-68089744D01*
X67584774Y-68278102D01*
X67545000Y-68478061D01*
X67545000Y-68545400D01*
X64535000Y-68545400D01*
X64535000Y-68478061D01*
X64495226Y-68278102D01*
X64417205Y-68089744D01*
X64303937Y-67920226D01*
X64159774Y-67776063D01*
X63990256Y-67662795D01*
X63801898Y-67584774D01*
X63601939Y-67545000D01*
X63398061Y-67545000D01*
X63198102Y-67584774D01*
X63009744Y-67662795D01*
X62840226Y-67776063D01*
X62696063Y-67920226D01*
X62582795Y-68089744D01*
X62504774Y-68278102D01*
X62465000Y-68478061D01*
X62465000Y-68545400D01*
X59460202Y-68545400D01*
X59455000Y-68540198D01*
X59455000Y-68478061D01*
X59415226Y-68278102D01*
X59337205Y-68089744D01*
X59223937Y-67920226D01*
X59079774Y-67776063D01*
X58910256Y-67662795D01*
X58721898Y-67584774D01*
X58521939Y-67545000D01*
X58318061Y-67545000D01*
X58118102Y-67584774D01*
X57929744Y-67662795D01*
X57760226Y-67776063D01*
X57616063Y-67920226D01*
X57502795Y-68089744D01*
X57424774Y-68278102D01*
X57385000Y-68478061D01*
X57385000Y-68681939D01*
X57424774Y-68881898D01*
X57502795Y-69070256D01*
X57616063Y-69239774D01*
X57760226Y-69383937D01*
X57929744Y-69497205D01*
X58118102Y-69575226D01*
X58318061Y-69615000D01*
X58380198Y-69615000D01*
X58581601Y-69816402D01*
X58605399Y-69845401D01*
X58634397Y-69869199D01*
X58675462Y-69902900D01*
X55737703Y-69902900D01*
X54375000Y-68540199D01*
X54375000Y-68478061D01*
X54335226Y-68278102D01*
X54257205Y-68089744D01*
X54143937Y-67920226D01*
X53999774Y-67776063D01*
X53830256Y-67662795D01*
X53641898Y-67584774D01*
X53441939Y-67545000D01*
X53238061Y-67545000D01*
X53038102Y-67584774D01*
X52849744Y-67662795D01*
X52680226Y-67776063D01*
X52536063Y-67920226D01*
X52422795Y-68089744D01*
X52344774Y-68278102D01*
X52305000Y-68478061D01*
X52305000Y-68681939D01*
X52344774Y-68881898D01*
X52422795Y-69070256D01*
X52536063Y-69239774D01*
X52680226Y-69383937D01*
X52849744Y-69497205D01*
X53038102Y-69575226D01*
X53238061Y-69615000D01*
X53300199Y-69615000D01*
X54859105Y-71173908D01*
X54882899Y-71202901D01*
X54911892Y-71226695D01*
X54911896Y-71226699D01*
X54982585Y-71284711D01*
X54998624Y-71297874D01*
X55130653Y-71368446D01*
X55273914Y-71411903D01*
X55385567Y-71422900D01*
X55385576Y-71422900D01*
X55422899Y-71426576D01*
X55460222Y-71422900D01*
X80776827Y-71422900D01*
X80719374Y-71561602D01*
X80679600Y-71761561D01*
X80679600Y-71965439D01*
X80719374Y-72165398D01*
X80797395Y-72353756D01*
X80910663Y-72523274D01*
X81054826Y-72667437D01*
X81224344Y-72780705D01*
X81412702Y-72858726D01*
X81612661Y-72898500D01*
X81816539Y-72898500D01*
X82016498Y-72858726D01*
X82204856Y-72780705D01*
X82374374Y-72667437D01*
X82423000Y-72618811D01*
X82423000Y-77343000D01*
X70100978Y-77343000D01*
X70088626Y-77280902D01*
X70081393Y-77263439D01*
X70163202Y-77297326D01*
X70363161Y-77337100D01*
X70567039Y-77337100D01*
X70766998Y-77297326D01*
X70955356Y-77219305D01*
X71124874Y-77106037D01*
X71269037Y-76961874D01*
X71382305Y-76792356D01*
X71460326Y-76603998D01*
X71500100Y-76404039D01*
X71500100Y-76200161D01*
X71460326Y-76000202D01*
X71382305Y-75811844D01*
X71269037Y-75642326D01*
X71124874Y-75498163D01*
X70955356Y-75384895D01*
X70766998Y-75306874D01*
X70567039Y-75267100D01*
X70363161Y-75267100D01*
X70163202Y-75306874D01*
X69974844Y-75384895D01*
X69805326Y-75498163D01*
X69758228Y-75545261D01*
X69591198Y-75476074D01*
X69391239Y-75436300D01*
X69187361Y-75436300D01*
X68987402Y-75476074D01*
X68799044Y-75554095D01*
X68629526Y-75667363D01*
X68485363Y-75811526D01*
X68372095Y-75981044D01*
X68294074Y-76169402D01*
X68254300Y-76369361D01*
X68254300Y-76573239D01*
X68294074Y-76773198D01*
X68314620Y-76822800D01*
X68014828Y-76822800D01*
X68014900Y-76822439D01*
X68014900Y-76618561D01*
X67975126Y-76418602D01*
X67897105Y-76230244D01*
X67783837Y-76060726D01*
X67639674Y-75916563D01*
X67470156Y-75803295D01*
X67281798Y-75725274D01*
X67081839Y-75685500D01*
X66917974Y-75685500D01*
X66869405Y-75568244D01*
X66756137Y-75398726D01*
X66611974Y-75254563D01*
X66442456Y-75141295D01*
X66254098Y-75063274D01*
X66054139Y-75023500D01*
X65850261Y-75023500D01*
X65650302Y-75063274D01*
X65461944Y-75141295D01*
X65292426Y-75254563D01*
X65221168Y-75325821D01*
X65112898Y-75280974D01*
X64912939Y-75241200D01*
X64709061Y-75241200D01*
X64509102Y-75280974D01*
X64320744Y-75358995D01*
X64151226Y-75472263D01*
X64007063Y-75616426D01*
X63893795Y-75785944D01*
X63815774Y-75974302D01*
X63776000Y-76174261D01*
X63776000Y-76378139D01*
X63815774Y-76578098D01*
X63893795Y-76766456D01*
X63931443Y-76822800D01*
X63806725Y-76822800D01*
X63769400Y-76819124D01*
X63732075Y-76822800D01*
X63732067Y-76822800D01*
X63620414Y-76833797D01*
X63477153Y-76877254D01*
X63441058Y-76896547D01*
X63363374Y-76818863D01*
X63193856Y-76705595D01*
X63005498Y-76627574D01*
X62805539Y-76587800D01*
X62601661Y-76587800D01*
X62401702Y-76627574D01*
X62213344Y-76705595D01*
X62043826Y-76818863D01*
X61899663Y-76963026D01*
X61786395Y-77132544D01*
X61760566Y-77194900D01*
X60480102Y-77194900D01*
X60273606Y-76988405D01*
X60330337Y-76931674D01*
X60443605Y-76762156D01*
X60521626Y-76573798D01*
X60561400Y-76373839D01*
X60561400Y-76169961D01*
X60521626Y-75970002D01*
X60443605Y-75781644D01*
X60330337Y-75612126D01*
X60186174Y-75467963D01*
X60016656Y-75354695D01*
X59828298Y-75276674D01*
X59628339Y-75236900D01*
X59424461Y-75236900D01*
X59224502Y-75276674D01*
X59036144Y-75354695D01*
X58938165Y-75420163D01*
X58186915Y-74668914D01*
X58318061Y-74695000D01*
X58521939Y-74695000D01*
X58721898Y-74655226D01*
X58910256Y-74577205D01*
X59079774Y-74463937D01*
X59223937Y-74319774D01*
X59337205Y-74150256D01*
X59415226Y-73961898D01*
X59455000Y-73761939D01*
X59455000Y-73558061D01*
X62465000Y-73558061D01*
X62465000Y-73761939D01*
X62504774Y-73961898D01*
X62582795Y-74150256D01*
X62696063Y-74319774D01*
X62840226Y-74463937D01*
X63009744Y-74577205D01*
X63198102Y-74655226D01*
X63398061Y-74695000D01*
X63601939Y-74695000D01*
X63801898Y-74655226D01*
X63990256Y-74577205D01*
X64159774Y-74463937D01*
X64303937Y-74319774D01*
X64417205Y-74150256D01*
X64495226Y-73961898D01*
X64535000Y-73761939D01*
X64535000Y-73558061D01*
X67545000Y-73558061D01*
X67545000Y-73761939D01*
X67584774Y-73961898D01*
X67662795Y-74150256D01*
X67776063Y-74319774D01*
X67920226Y-74463937D01*
X68089744Y-74577205D01*
X68278102Y-74655226D01*
X68478061Y-74695000D01*
X68681939Y-74695000D01*
X68881898Y-74655226D01*
X69070256Y-74577205D01*
X69239774Y-74463937D01*
X69383937Y-74319774D01*
X69497205Y-74150256D01*
X69575226Y-73961898D01*
X69615000Y-73761939D01*
X69615000Y-73558061D01*
X72625000Y-73558061D01*
X72625000Y-73761939D01*
X72664774Y-73961898D01*
X72742795Y-74150256D01*
X72856063Y-74319774D01*
X73000226Y-74463937D01*
X73169744Y-74577205D01*
X73358102Y-74655226D01*
X73558061Y-74695000D01*
X73761939Y-74695000D01*
X73961898Y-74655226D01*
X74150256Y-74577205D01*
X74319774Y-74463937D01*
X74463937Y-74319774D01*
X74577205Y-74150256D01*
X74655226Y-73961898D01*
X74695000Y-73761939D01*
X74695000Y-73558061D01*
X77705000Y-73558061D01*
X77705000Y-73761939D01*
X77744774Y-73961898D01*
X77822795Y-74150256D01*
X77936063Y-74319774D01*
X78080226Y-74463937D01*
X78249744Y-74577205D01*
X78438102Y-74655226D01*
X78638061Y-74695000D01*
X78841939Y-74695000D01*
X79041898Y-74655226D01*
X79230256Y-74577205D01*
X79399774Y-74463937D01*
X79543937Y-74319774D01*
X79657205Y-74150256D01*
X79735226Y-73961898D01*
X79775000Y-73761939D01*
X79775000Y-73558061D01*
X79735226Y-73358102D01*
X79657205Y-73169744D01*
X79543937Y-73000226D01*
X79399774Y-72856063D01*
X79230256Y-72742795D01*
X79041898Y-72664774D01*
X78841939Y-72625000D01*
X78638061Y-72625000D01*
X78438102Y-72664774D01*
X78249744Y-72742795D01*
X78080226Y-72856063D01*
X77936063Y-73000226D01*
X77822795Y-73169744D01*
X77744774Y-73358102D01*
X77705000Y-73558061D01*
X74695000Y-73558061D01*
X74655226Y-73358102D01*
X74577205Y-73169744D01*
X74463937Y-73000226D01*
X74319774Y-72856063D01*
X74150256Y-72742795D01*
X73961898Y-72664774D01*
X73761939Y-72625000D01*
X73558061Y-72625000D01*
X73358102Y-72664774D01*
X73169744Y-72742795D01*
X73000226Y-72856063D01*
X72856063Y-73000226D01*
X72742795Y-73169744D01*
X72664774Y-73358102D01*
X72625000Y-73558061D01*
X69615000Y-73558061D01*
X69575226Y-73358102D01*
X69497205Y-73169744D01*
X69383937Y-73000226D01*
X69239774Y-72856063D01*
X69070256Y-72742795D01*
X68881898Y-72664774D01*
X68681939Y-72625000D01*
X68478061Y-72625000D01*
X68278102Y-72664774D01*
X68089744Y-72742795D01*
X67920226Y-72856063D01*
X67776063Y-73000226D01*
X67662795Y-73169744D01*
X67584774Y-73358102D01*
X67545000Y-73558061D01*
X64535000Y-73558061D01*
X64495226Y-73358102D01*
X64417205Y-73169744D01*
X64303937Y-73000226D01*
X64159774Y-72856063D01*
X63990256Y-72742795D01*
X63801898Y-72664774D01*
X63601939Y-72625000D01*
X63398061Y-72625000D01*
X63198102Y-72664774D01*
X63009744Y-72742795D01*
X62840226Y-72856063D01*
X62696063Y-73000226D01*
X62582795Y-73169744D01*
X62504774Y-73358102D01*
X62465000Y-73558061D01*
X59455000Y-73558061D01*
X59415226Y-73358102D01*
X59337205Y-73169744D01*
X59223937Y-73000226D01*
X59079774Y-72856063D01*
X58910256Y-72742795D01*
X58721898Y-72664774D01*
X58521939Y-72625000D01*
X58318061Y-72625000D01*
X58118102Y-72664774D01*
X57929744Y-72742795D01*
X57760226Y-72856063D01*
X57616063Y-73000226D01*
X57502795Y-73169744D01*
X57424774Y-73358102D01*
X57385000Y-73558061D01*
X57385000Y-73761939D01*
X57411086Y-73893085D01*
X56667004Y-73149003D01*
X56643201Y-73119999D01*
X56527476Y-73025026D01*
X56395447Y-72954454D01*
X56252186Y-72910997D01*
X56140533Y-72900000D01*
X56140522Y-72900000D01*
X56103200Y-72896324D01*
X56065878Y-72900000D01*
X54043711Y-72900000D01*
X53999774Y-72856063D01*
X53830256Y-72742795D01*
X53641898Y-72664774D01*
X53441939Y-72625000D01*
X53238061Y-72625000D01*
X53038102Y-72664774D01*
X52849744Y-72742795D01*
X52680226Y-72856063D01*
X52536063Y-73000226D01*
X52422795Y-73169744D01*
X52344774Y-73358102D01*
X52305000Y-73558061D01*
X52305000Y-73761939D01*
X52344774Y-73961898D01*
X52422795Y-74150256D01*
X52536063Y-74319774D01*
X52680226Y-74463937D01*
X52849744Y-74577205D01*
X53038102Y-74655226D01*
X53238061Y-74695000D01*
X53441939Y-74695000D01*
X53641898Y-74655226D01*
X53830256Y-74577205D01*
X53999774Y-74463937D01*
X54043711Y-74420000D01*
X55788399Y-74420000D01*
X56624599Y-75256200D01*
X56580761Y-75256200D01*
X56380802Y-75295974D01*
X56192444Y-75373995D01*
X56163122Y-75393587D01*
X55984198Y-75319474D01*
X55784239Y-75279700D01*
X55580361Y-75279700D01*
X55380402Y-75319474D01*
X55204342Y-75392401D01*
X55172156Y-75370895D01*
X54983798Y-75292874D01*
X54783839Y-75253100D01*
X54579961Y-75253100D01*
X54380002Y-75292874D01*
X54191644Y-75370895D01*
X54181401Y-75377739D01*
X54171756Y-75371295D01*
X53983398Y-75293274D01*
X53783439Y-75253500D01*
X53579561Y-75253500D01*
X53379602Y-75293274D01*
X53191244Y-75371295D01*
X53021726Y-75484563D01*
X52877563Y-75628726D01*
X52764295Y-75798244D01*
X52686274Y-75986602D01*
X52646500Y-76186561D01*
X52646500Y-76390439D01*
X52686274Y-76590398D01*
X52764295Y-76778756D01*
X52877563Y-76948274D01*
X53021726Y-77092437D01*
X53191244Y-77205705D01*
X53379602Y-77283726D01*
X53579561Y-77323500D01*
X53783439Y-77323500D01*
X53983398Y-77283726D01*
X54171756Y-77205705D01*
X54181999Y-77198861D01*
X54191644Y-77205305D01*
X54380002Y-77283326D01*
X54579961Y-77323100D01*
X54783839Y-77323100D01*
X54983798Y-77283326D01*
X55159858Y-77210399D01*
X55192044Y-77231905D01*
X55380402Y-77309926D01*
X55546678Y-77343000D01*
X39497000Y-77343000D01*
X39497000Y-76189361D01*
X49131100Y-76189361D01*
X49131100Y-76393239D01*
X49170874Y-76593198D01*
X49248895Y-76781556D01*
X49362163Y-76951074D01*
X49506326Y-77095237D01*
X49675844Y-77208505D01*
X49864202Y-77286526D01*
X50064161Y-77326300D01*
X50268039Y-77326300D01*
X50467998Y-77286526D01*
X50656356Y-77208505D01*
X50825874Y-77095237D01*
X50970037Y-76951074D01*
X51083305Y-76781556D01*
X51161326Y-76593198D01*
X51201100Y-76393239D01*
X51201100Y-76189361D01*
X51161326Y-75989402D01*
X51083305Y-75801044D01*
X50970037Y-75631526D01*
X50825874Y-75487363D01*
X50656356Y-75374095D01*
X50467998Y-75296074D01*
X50268039Y-75256300D01*
X50064161Y-75256300D01*
X49864202Y-75296074D01*
X49675844Y-75374095D01*
X49506326Y-75487363D01*
X49362163Y-75631526D01*
X49248895Y-75801044D01*
X49170874Y-75989402D01*
X49131100Y-76189361D01*
X39497000Y-76189361D01*
X39497000Y-73558061D01*
X42145000Y-73558061D01*
X42145000Y-73761939D01*
X42184774Y-73961898D01*
X42262795Y-74150256D01*
X42376063Y-74319774D01*
X42520226Y-74463937D01*
X42689744Y-74577205D01*
X42878102Y-74655226D01*
X43078061Y-74695000D01*
X43281939Y-74695000D01*
X43481898Y-74655226D01*
X43670256Y-74577205D01*
X43839774Y-74463937D01*
X43983937Y-74319774D01*
X44097205Y-74150256D01*
X44175226Y-73961898D01*
X44215000Y-73761939D01*
X44215000Y-73558061D01*
X47225000Y-73558061D01*
X47225000Y-73761939D01*
X47264774Y-73961898D01*
X47342795Y-74150256D01*
X47456063Y-74319774D01*
X47600226Y-74463937D01*
X47769744Y-74577205D01*
X47958102Y-74655226D01*
X48158061Y-74695000D01*
X48361939Y-74695000D01*
X48561898Y-74655226D01*
X48750256Y-74577205D01*
X48919774Y-74463937D01*
X49063937Y-74319774D01*
X49177205Y-74150256D01*
X49255226Y-73961898D01*
X49295000Y-73761939D01*
X49295000Y-73558061D01*
X49255226Y-73358102D01*
X49177205Y-73169744D01*
X49063937Y-73000226D01*
X48919774Y-72856063D01*
X48750256Y-72742795D01*
X48561898Y-72664774D01*
X48361939Y-72625000D01*
X48158061Y-72625000D01*
X47958102Y-72664774D01*
X47769744Y-72742795D01*
X47600226Y-72856063D01*
X47456063Y-73000226D01*
X47342795Y-73169744D01*
X47264774Y-73358102D01*
X47225000Y-73558061D01*
X44215000Y-73558061D01*
X44175226Y-73358102D01*
X44097205Y-73169744D01*
X43983937Y-73000226D01*
X43839774Y-72856063D01*
X43670256Y-72742795D01*
X43481898Y-72664774D01*
X43281939Y-72625000D01*
X43078061Y-72625000D01*
X42878102Y-72664774D01*
X42689744Y-72742795D01*
X42520226Y-72856063D01*
X42376063Y-73000226D01*
X42262795Y-73169744D01*
X42184774Y-73358102D01*
X42145000Y-73558061D01*
X39497000Y-73558061D01*
X39497000Y-68478061D01*
X42145000Y-68478061D01*
X42145000Y-68681939D01*
X42184774Y-68881898D01*
X42262795Y-69070256D01*
X42376063Y-69239774D01*
X42520226Y-69383937D01*
X42689744Y-69497205D01*
X42878102Y-69575226D01*
X43078061Y-69615000D01*
X43281939Y-69615000D01*
X43481898Y-69575226D01*
X43670256Y-69497205D01*
X43839774Y-69383937D01*
X43983937Y-69239774D01*
X44097205Y-69070256D01*
X44175226Y-68881898D01*
X44215000Y-68681939D01*
X44215000Y-68478061D01*
X47225000Y-68478061D01*
X47225000Y-68681939D01*
X47264774Y-68881898D01*
X47342795Y-69070256D01*
X47456063Y-69239774D01*
X47600226Y-69383937D01*
X47769744Y-69497205D01*
X47958102Y-69575226D01*
X48158061Y-69615000D01*
X48361939Y-69615000D01*
X48561898Y-69575226D01*
X48750256Y-69497205D01*
X48919774Y-69383937D01*
X49063937Y-69239774D01*
X49177205Y-69070256D01*
X49255226Y-68881898D01*
X49295000Y-68681939D01*
X49295000Y-68478061D01*
X49255226Y-68278102D01*
X49177205Y-68089744D01*
X49063937Y-67920226D01*
X48919774Y-67776063D01*
X48750256Y-67662795D01*
X48561898Y-67584774D01*
X48361939Y-67545000D01*
X48158061Y-67545000D01*
X47958102Y-67584774D01*
X47769744Y-67662795D01*
X47600226Y-67776063D01*
X47456063Y-67920226D01*
X47342795Y-68089744D01*
X47264774Y-68278102D01*
X47225000Y-68478061D01*
X44215000Y-68478061D01*
X44175226Y-68278102D01*
X44097205Y-68089744D01*
X43983937Y-67920226D01*
X43839774Y-67776063D01*
X43670256Y-67662795D01*
X43481898Y-67584774D01*
X43281939Y-67545000D01*
X43078061Y-67545000D01*
X42878102Y-67584774D01*
X42689744Y-67662795D01*
X42520226Y-67776063D01*
X42376063Y-67920226D01*
X42262795Y-68089744D01*
X42184774Y-68278102D01*
X42145000Y-68478061D01*
X39497000Y-68478061D01*
X39497000Y-65718481D01*
X39515744Y-65731005D01*
X39517600Y-65731774D01*
X39517600Y-65812539D01*
X39557374Y-66012498D01*
X39635395Y-66200856D01*
X39748663Y-66370374D01*
X39892826Y-66514537D01*
X40062344Y-66627805D01*
X40250702Y-66705826D01*
X40450661Y-66745600D01*
X40654539Y-66745600D01*
X40854498Y-66705826D01*
X41042856Y-66627805D01*
X41212374Y-66514537D01*
X41356537Y-66370374D01*
X41469805Y-66200856D01*
X41521290Y-66076561D01*
X44748800Y-66076561D01*
X44748800Y-66280439D01*
X44788574Y-66480398D01*
X44866595Y-66668756D01*
X44979863Y-66838274D01*
X45124026Y-66982437D01*
X45293544Y-67095705D01*
X45481902Y-67173726D01*
X45681861Y-67213500D01*
X45885739Y-67213500D01*
X46085698Y-67173726D01*
X46274056Y-67095705D01*
X46443574Y-66982437D01*
X46587737Y-66838274D01*
X46701005Y-66668756D01*
X46779026Y-66480398D01*
X46818800Y-66280439D01*
X46818800Y-66076561D01*
X46811423Y-66039471D01*
X49857090Y-66039471D01*
X49857090Y-66243349D01*
X49896864Y-66443308D01*
X49974885Y-66631666D01*
X50088153Y-66801184D01*
X50232316Y-66945347D01*
X50401834Y-67058615D01*
X50590192Y-67136636D01*
X50790151Y-67176410D01*
X50994029Y-67176410D01*
X51193988Y-67136636D01*
X51382346Y-67058615D01*
X51551864Y-66945347D01*
X51696027Y-66801184D01*
X51809295Y-66631666D01*
X51887316Y-66443308D01*
X51927090Y-66243349D01*
X51927090Y-66039471D01*
X51906919Y-65938061D01*
X64805200Y-65938061D01*
X64805200Y-66141939D01*
X64844974Y-66341898D01*
X64922995Y-66530256D01*
X65036263Y-66699774D01*
X65180426Y-66843937D01*
X65349944Y-66957205D01*
X65538302Y-67035226D01*
X65738261Y-67075000D01*
X65942139Y-67075000D01*
X66142098Y-67035226D01*
X66330456Y-66957205D01*
X66499974Y-66843937D01*
X66644137Y-66699774D01*
X66757405Y-66530256D01*
X66835426Y-66341898D01*
X66875200Y-66141939D01*
X66875200Y-65938061D01*
X66835426Y-65738102D01*
X66757405Y-65549744D01*
X66644137Y-65380226D01*
X66499974Y-65236063D01*
X66330456Y-65122795D01*
X66142098Y-65044774D01*
X65942139Y-65005000D01*
X65738261Y-65005000D01*
X65538302Y-65044774D01*
X65349944Y-65122795D01*
X65180426Y-65236063D01*
X65036263Y-65380226D01*
X64922995Y-65549744D01*
X64844974Y-65738102D01*
X64805200Y-65938061D01*
X51906919Y-65938061D01*
X51887316Y-65839512D01*
X51809295Y-65651154D01*
X51696027Y-65481636D01*
X51551864Y-65337473D01*
X51382346Y-65224205D01*
X51193988Y-65146184D01*
X50994029Y-65106410D01*
X50790151Y-65106410D01*
X50590192Y-65146184D01*
X50401834Y-65224205D01*
X50232316Y-65337473D01*
X50088153Y-65481636D01*
X49974885Y-65651154D01*
X49896864Y-65839512D01*
X49857090Y-66039471D01*
X46811423Y-66039471D01*
X46779026Y-65876602D01*
X46701005Y-65688244D01*
X46587737Y-65518726D01*
X46443574Y-65374563D01*
X46274056Y-65261295D01*
X46085698Y-65183274D01*
X45885739Y-65143500D01*
X45681861Y-65143500D01*
X45481902Y-65183274D01*
X45293544Y-65261295D01*
X45124026Y-65374563D01*
X44979863Y-65518726D01*
X44866595Y-65688244D01*
X44788574Y-65876602D01*
X44748800Y-66076561D01*
X41521290Y-66076561D01*
X41547826Y-66012498D01*
X41587600Y-65812539D01*
X41587600Y-65608661D01*
X41547826Y-65408702D01*
X41469805Y-65220344D01*
X41356537Y-65050826D01*
X41212374Y-64906663D01*
X41042856Y-64793395D01*
X41041000Y-64792626D01*
X41041000Y-64711861D01*
X41001226Y-64511902D01*
X40923205Y-64323544D01*
X40915035Y-64311316D01*
X41026356Y-64265205D01*
X41195874Y-64151937D01*
X41340037Y-64007774D01*
X41453305Y-63838256D01*
X41531326Y-63649898D01*
X41571100Y-63449939D01*
X41571100Y-63398061D01*
X42145000Y-63398061D01*
X42145000Y-63601939D01*
X42184774Y-63801898D01*
X42262795Y-63990256D01*
X42376063Y-64159774D01*
X42520226Y-64303937D01*
X42689744Y-64417205D01*
X42878102Y-64495226D01*
X43078061Y-64535000D01*
X43281939Y-64535000D01*
X43481898Y-64495226D01*
X43670256Y-64417205D01*
X43839774Y-64303937D01*
X43983937Y-64159774D01*
X44097205Y-63990256D01*
X44175226Y-63801898D01*
X44215000Y-63601939D01*
X44215000Y-63398061D01*
X47225000Y-63398061D01*
X47225000Y-63601939D01*
X47264774Y-63801898D01*
X47342795Y-63990256D01*
X47456063Y-64159774D01*
X47600226Y-64303937D01*
X47769744Y-64417205D01*
X47958102Y-64495226D01*
X48158061Y-64535000D01*
X48361939Y-64535000D01*
X48561898Y-64495226D01*
X48750256Y-64417205D01*
X48919774Y-64303937D01*
X49063937Y-64159774D01*
X49177205Y-63990256D01*
X49255226Y-63801898D01*
X49295000Y-63601939D01*
X49295000Y-63398061D01*
X52305000Y-63398061D01*
X52305000Y-63601939D01*
X52344774Y-63801898D01*
X52422795Y-63990256D01*
X52536063Y-64159774D01*
X52680226Y-64303937D01*
X52849744Y-64417205D01*
X53038102Y-64495226D01*
X53238061Y-64535000D01*
X53441939Y-64535000D01*
X53641898Y-64495226D01*
X53830256Y-64417205D01*
X53999774Y-64303937D01*
X54143937Y-64159774D01*
X54257205Y-63990256D01*
X54335226Y-63801898D01*
X54375000Y-63601939D01*
X54375000Y-63398061D01*
X57385000Y-63398061D01*
X57385000Y-63601939D01*
X57424774Y-63801898D01*
X57502795Y-63990256D01*
X57616063Y-64159774D01*
X57760226Y-64303937D01*
X57929744Y-64417205D01*
X58118102Y-64495226D01*
X58318061Y-64535000D01*
X58521939Y-64535000D01*
X58721898Y-64495226D01*
X58910256Y-64417205D01*
X59079774Y-64303937D01*
X59223937Y-64159774D01*
X59337205Y-63990256D01*
X59372711Y-63904537D01*
X62996376Y-63904537D01*
X62996376Y-64108415D01*
X63036150Y-64308374D01*
X63114171Y-64496732D01*
X63227439Y-64666250D01*
X63371602Y-64810413D01*
X63541120Y-64923681D01*
X63729478Y-65001702D01*
X63929437Y-65041476D01*
X64133315Y-65041476D01*
X64333274Y-65001702D01*
X64521632Y-64923681D01*
X64691150Y-64810413D01*
X64835313Y-64666250D01*
X64948581Y-64496732D01*
X65026602Y-64308374D01*
X65066376Y-64108415D01*
X65066376Y-63904537D01*
X65026602Y-63704578D01*
X64948581Y-63516220D01*
X64869630Y-63398061D01*
X67545000Y-63398061D01*
X67545000Y-63601939D01*
X67584774Y-63801898D01*
X67662795Y-63990256D01*
X67776063Y-64159774D01*
X67920226Y-64303937D01*
X68089744Y-64417205D01*
X68278102Y-64495226D01*
X68478061Y-64535000D01*
X68681939Y-64535000D01*
X68881898Y-64495226D01*
X69070256Y-64417205D01*
X69239774Y-64303937D01*
X69383937Y-64159774D01*
X69497205Y-63990256D01*
X69575226Y-63801898D01*
X69615000Y-63601939D01*
X69615000Y-63398061D01*
X72625000Y-63398061D01*
X72625000Y-63601939D01*
X72664774Y-63801898D01*
X72742795Y-63990256D01*
X72856063Y-64159774D01*
X73000226Y-64303937D01*
X73169744Y-64417205D01*
X73358102Y-64495226D01*
X73558061Y-64535000D01*
X73761939Y-64535000D01*
X73961898Y-64495226D01*
X74150256Y-64417205D01*
X74319774Y-64303937D01*
X74463937Y-64159774D01*
X74577205Y-63990256D01*
X74655226Y-63801898D01*
X74695000Y-63601939D01*
X74695000Y-63398061D01*
X77705000Y-63398061D01*
X77705000Y-63601939D01*
X77744774Y-63801898D01*
X77822795Y-63990256D01*
X77936063Y-64159774D01*
X78080226Y-64303937D01*
X78249744Y-64417205D01*
X78438102Y-64495226D01*
X78638061Y-64535000D01*
X78841939Y-64535000D01*
X79041898Y-64495226D01*
X79230256Y-64417205D01*
X79399774Y-64303937D01*
X79543937Y-64159774D01*
X79657205Y-63990256D01*
X79735226Y-63801898D01*
X79775000Y-63601939D01*
X79775000Y-63398061D01*
X79735226Y-63198102D01*
X79657205Y-63009744D01*
X79543937Y-62840226D01*
X79399774Y-62696063D01*
X79230256Y-62582795D01*
X79041898Y-62504774D01*
X78841939Y-62465000D01*
X78638061Y-62465000D01*
X78438102Y-62504774D01*
X78249744Y-62582795D01*
X78080226Y-62696063D01*
X77936063Y-62840226D01*
X77822795Y-63009744D01*
X77744774Y-63198102D01*
X77705000Y-63398061D01*
X74695000Y-63398061D01*
X74655226Y-63198102D01*
X74577205Y-63009744D01*
X74463937Y-62840226D01*
X74319774Y-62696063D01*
X74150256Y-62582795D01*
X73961898Y-62504774D01*
X73761939Y-62465000D01*
X73558061Y-62465000D01*
X73358102Y-62504774D01*
X73169744Y-62582795D01*
X73000226Y-62696063D01*
X72856063Y-62840226D01*
X72742795Y-63009744D01*
X72664774Y-63198102D01*
X72625000Y-63398061D01*
X69615000Y-63398061D01*
X69575226Y-63198102D01*
X69497205Y-63009744D01*
X69383937Y-62840226D01*
X69239774Y-62696063D01*
X69070256Y-62582795D01*
X68881898Y-62504774D01*
X68681939Y-62465000D01*
X68478061Y-62465000D01*
X68278102Y-62504774D01*
X68089744Y-62582795D01*
X67920226Y-62696063D01*
X67776063Y-62840226D01*
X67662795Y-63009744D01*
X67584774Y-63198102D01*
X67545000Y-63398061D01*
X64869630Y-63398061D01*
X64835313Y-63346702D01*
X64691150Y-63202539D01*
X64521632Y-63089271D01*
X64333274Y-63011250D01*
X64133315Y-62971476D01*
X63929437Y-62971476D01*
X63729478Y-63011250D01*
X63541120Y-63089271D01*
X63371602Y-63202539D01*
X63227439Y-63346702D01*
X63114171Y-63516220D01*
X63036150Y-63704578D01*
X62996376Y-63904537D01*
X59372711Y-63904537D01*
X59415226Y-63801898D01*
X59455000Y-63601939D01*
X59455000Y-63398061D01*
X59415226Y-63198102D01*
X59337205Y-63009744D01*
X59223937Y-62840226D01*
X59079774Y-62696063D01*
X58910256Y-62582795D01*
X58721898Y-62504774D01*
X58521939Y-62465000D01*
X58318061Y-62465000D01*
X58118102Y-62504774D01*
X57929744Y-62582795D01*
X57760226Y-62696063D01*
X57616063Y-62840226D01*
X57502795Y-63009744D01*
X57424774Y-63198102D01*
X57385000Y-63398061D01*
X54375000Y-63398061D01*
X54335226Y-63198102D01*
X54257205Y-63009744D01*
X54143937Y-62840226D01*
X53999774Y-62696063D01*
X53830256Y-62582795D01*
X53641898Y-62504774D01*
X53441939Y-62465000D01*
X53238061Y-62465000D01*
X53038102Y-62504774D01*
X52849744Y-62582795D01*
X52680226Y-62696063D01*
X52536063Y-62840226D01*
X52422795Y-63009744D01*
X52344774Y-63198102D01*
X52305000Y-63398061D01*
X49295000Y-63398061D01*
X49255226Y-63198102D01*
X49177205Y-63009744D01*
X49063937Y-62840226D01*
X48919774Y-62696063D01*
X48750256Y-62582795D01*
X48561898Y-62504774D01*
X48361939Y-62465000D01*
X48158061Y-62465000D01*
X47958102Y-62504774D01*
X47769744Y-62582795D01*
X47600226Y-62696063D01*
X47456063Y-62840226D01*
X47342795Y-63009744D01*
X47264774Y-63198102D01*
X47225000Y-63398061D01*
X44215000Y-63398061D01*
X44175226Y-63198102D01*
X44097205Y-63009744D01*
X43983937Y-62840226D01*
X43839774Y-62696063D01*
X43670256Y-62582795D01*
X43481898Y-62504774D01*
X43281939Y-62465000D01*
X43078061Y-62465000D01*
X42878102Y-62504774D01*
X42689744Y-62582795D01*
X42520226Y-62696063D01*
X42376063Y-62840226D01*
X42262795Y-63009744D01*
X42184774Y-63198102D01*
X42145000Y-63398061D01*
X41571100Y-63398061D01*
X41571100Y-63246061D01*
X41531326Y-63046102D01*
X41453305Y-62857744D01*
X41340037Y-62688226D01*
X41195874Y-62544063D01*
X41026356Y-62430795D01*
X40837998Y-62352774D01*
X40638039Y-62313000D01*
X40434161Y-62313000D01*
X40234202Y-62352774D01*
X40045844Y-62430795D01*
X39876326Y-62544063D01*
X39732163Y-62688226D01*
X39618895Y-62857744D01*
X39540874Y-63046102D01*
X39534475Y-63078271D01*
X39497000Y-63070817D01*
X39497000Y-60948261D01*
X39738900Y-60948261D01*
X39738900Y-61152139D01*
X39778674Y-61352098D01*
X39856695Y-61540456D01*
X39969963Y-61709974D01*
X40114126Y-61854137D01*
X40283644Y-61967405D01*
X40472002Y-62045426D01*
X40671961Y-62085200D01*
X40875839Y-62085200D01*
X41075798Y-62045426D01*
X41264156Y-61967405D01*
X41433674Y-61854137D01*
X41577837Y-61709974D01*
X41691105Y-61540456D01*
X41769126Y-61352098D01*
X41808900Y-61152139D01*
X41808900Y-60948261D01*
X41769126Y-60748302D01*
X41766956Y-60743061D01*
X44583400Y-60743061D01*
X44583400Y-60946939D01*
X44623174Y-61146898D01*
X44701195Y-61335256D01*
X44814463Y-61504774D01*
X44958626Y-61648937D01*
X45128144Y-61762205D01*
X45316502Y-61840226D01*
X45516461Y-61880000D01*
X45720339Y-61880000D01*
X45920298Y-61840226D01*
X46108656Y-61762205D01*
X46278174Y-61648937D01*
X46422337Y-61504774D01*
X46535605Y-61335256D01*
X46613626Y-61146898D01*
X46653400Y-60946939D01*
X46653400Y-60743061D01*
X46613626Y-60543102D01*
X46535605Y-60354744D01*
X46422337Y-60185226D01*
X46278174Y-60041063D01*
X46108656Y-59927795D01*
X45920298Y-59849774D01*
X45720339Y-59810000D01*
X45516461Y-59810000D01*
X45316502Y-59849774D01*
X45128144Y-59927795D01*
X44958626Y-60041063D01*
X44814463Y-60185226D01*
X44701195Y-60354744D01*
X44623174Y-60543102D01*
X44583400Y-60743061D01*
X41766956Y-60743061D01*
X41691105Y-60559944D01*
X41577837Y-60390426D01*
X41433674Y-60246263D01*
X41264156Y-60132995D01*
X41075798Y-60054974D01*
X40875839Y-60015200D01*
X40671961Y-60015200D01*
X40472002Y-60054974D01*
X40283644Y-60132995D01*
X40114126Y-60246263D01*
X39969963Y-60390426D01*
X39856695Y-60559944D01*
X39778674Y-60748302D01*
X39738900Y-60948261D01*
X39497000Y-60948261D01*
X39497000Y-58318061D01*
X42145000Y-58318061D01*
X42145000Y-58521939D01*
X42184774Y-58721898D01*
X42262795Y-58910256D01*
X42376063Y-59079774D01*
X42520226Y-59223937D01*
X42689744Y-59337205D01*
X42878102Y-59415226D01*
X43078061Y-59455000D01*
X43281939Y-59455000D01*
X43481898Y-59415226D01*
X43670256Y-59337205D01*
X43839774Y-59223937D01*
X43983937Y-59079774D01*
X44097205Y-58910256D01*
X44175226Y-58721898D01*
X44215000Y-58521939D01*
X44215000Y-58318061D01*
X47225000Y-58318061D01*
X47225000Y-58521939D01*
X47264774Y-58721898D01*
X47342795Y-58910256D01*
X47456063Y-59079774D01*
X47600226Y-59223937D01*
X47769744Y-59337205D01*
X47958102Y-59415226D01*
X48158061Y-59455000D01*
X48361939Y-59455000D01*
X48561898Y-59415226D01*
X48750256Y-59337205D01*
X48919774Y-59223937D01*
X49063937Y-59079774D01*
X49177205Y-58910256D01*
X49255226Y-58721898D01*
X49295000Y-58521939D01*
X49295000Y-58318061D01*
X52305000Y-58318061D01*
X52305000Y-58521939D01*
X52344774Y-58721898D01*
X52422795Y-58910256D01*
X52536063Y-59079774D01*
X52680226Y-59223937D01*
X52849744Y-59337205D01*
X53038102Y-59415226D01*
X53238061Y-59455000D01*
X53441939Y-59455000D01*
X53641898Y-59415226D01*
X53830256Y-59337205D01*
X53999774Y-59223937D01*
X54143937Y-59079774D01*
X54257205Y-58910256D01*
X54335226Y-58721898D01*
X54375000Y-58521939D01*
X54375000Y-58318061D01*
X57385000Y-58318061D01*
X57385000Y-58521939D01*
X57424774Y-58721898D01*
X57502795Y-58910256D01*
X57616063Y-59079774D01*
X57660001Y-59123712D01*
X57660000Y-59494289D01*
X57616063Y-59538226D01*
X57502795Y-59707744D01*
X57424774Y-59896102D01*
X57385000Y-60096061D01*
X57385000Y-60299939D01*
X57424774Y-60499898D01*
X57502795Y-60688256D01*
X57616063Y-60857774D01*
X57760226Y-61001937D01*
X57929744Y-61115205D01*
X58118102Y-61193226D01*
X58318061Y-61233000D01*
X58521939Y-61233000D01*
X58721898Y-61193226D01*
X58910256Y-61115205D01*
X59079774Y-61001937D01*
X59120250Y-60961461D01*
X59846600Y-60961461D01*
X59846600Y-61165339D01*
X59886374Y-61365298D01*
X59964395Y-61553656D01*
X60077663Y-61723174D01*
X60221826Y-61867337D01*
X60391344Y-61980605D01*
X60579702Y-62058626D01*
X60779661Y-62098400D01*
X60983539Y-62098400D01*
X61183498Y-62058626D01*
X61371856Y-61980605D01*
X61541374Y-61867337D01*
X61685537Y-61723174D01*
X61798805Y-61553656D01*
X61876826Y-61365298D01*
X61916600Y-61165339D01*
X61916600Y-60961461D01*
X61876826Y-60761502D01*
X61798805Y-60573144D01*
X61685537Y-60403626D01*
X61541374Y-60259463D01*
X61371856Y-60146195D01*
X61183498Y-60068174D01*
X60983539Y-60028400D01*
X60779661Y-60028400D01*
X60579702Y-60068174D01*
X60391344Y-60146195D01*
X60221826Y-60259463D01*
X60077663Y-60403626D01*
X59964395Y-60573144D01*
X59886374Y-60761502D01*
X59846600Y-60961461D01*
X59120250Y-60961461D01*
X59223937Y-60857774D01*
X59337205Y-60688256D01*
X59415226Y-60499898D01*
X59455000Y-60299939D01*
X59455000Y-60096061D01*
X59415226Y-59896102D01*
X59337205Y-59707744D01*
X59223937Y-59538226D01*
X59180000Y-59494289D01*
X59180000Y-59123711D01*
X59223937Y-59079774D01*
X59337205Y-58910256D01*
X59415226Y-58721898D01*
X59455000Y-58521939D01*
X59455000Y-58318061D01*
X62465000Y-58318061D01*
X62465000Y-58521939D01*
X62504774Y-58721898D01*
X62582795Y-58910256D01*
X62696063Y-59079774D01*
X62840226Y-59223937D01*
X63009744Y-59337205D01*
X63198102Y-59415226D01*
X63398061Y-59455000D01*
X63460198Y-59455000D01*
X63661601Y-59656402D01*
X63685399Y-59685401D01*
X63714397Y-59709199D01*
X63801124Y-59780374D01*
X63933153Y-59850946D01*
X64076414Y-59894403D01*
X64225400Y-59909077D01*
X64262733Y-59905400D01*
X65598406Y-59905400D01*
X65466844Y-59959895D01*
X65297326Y-60073163D01*
X65153163Y-60217326D01*
X65039895Y-60386844D01*
X64961874Y-60575202D01*
X64922100Y-60775161D01*
X64922100Y-60979039D01*
X64961874Y-61178998D01*
X65039895Y-61367356D01*
X65153163Y-61536874D01*
X65297326Y-61681037D01*
X65466844Y-61794305D01*
X65655202Y-61872326D01*
X65855161Y-61912100D01*
X66059039Y-61912100D01*
X66258998Y-61872326D01*
X66447356Y-61794305D01*
X66616874Y-61681037D01*
X66761037Y-61536874D01*
X66874305Y-61367356D01*
X66952326Y-61178998D01*
X66992100Y-60979039D01*
X66992100Y-60775161D01*
X66952326Y-60575202D01*
X66874305Y-60386844D01*
X66761037Y-60217326D01*
X66616874Y-60073163D01*
X66447356Y-59959895D01*
X66315794Y-59905400D01*
X74070599Y-59905400D01*
X75079400Y-60914202D01*
X75079400Y-60976339D01*
X75119174Y-61176298D01*
X75197195Y-61364656D01*
X75310463Y-61534174D01*
X75454626Y-61678337D01*
X75624144Y-61791605D01*
X75812502Y-61869626D01*
X76012461Y-61909400D01*
X76216339Y-61909400D01*
X76416298Y-61869626D01*
X76604656Y-61791605D01*
X76774174Y-61678337D01*
X76918337Y-61534174D01*
X77031605Y-61364656D01*
X77109626Y-61176298D01*
X77149400Y-60976339D01*
X77149400Y-60772461D01*
X77109626Y-60572502D01*
X77031605Y-60384144D01*
X76918337Y-60214626D01*
X76774174Y-60070463D01*
X76604656Y-59957195D01*
X76416298Y-59879174D01*
X76216339Y-59839400D01*
X76154202Y-59839400D01*
X74949204Y-58634403D01*
X74925401Y-58605399D01*
X74809676Y-58510426D01*
X74695000Y-58449130D01*
X74695000Y-58318061D01*
X77705000Y-58318061D01*
X77705000Y-58521939D01*
X77744774Y-58721898D01*
X77822795Y-58910256D01*
X77936063Y-59079774D01*
X78080226Y-59223937D01*
X78249744Y-59337205D01*
X78438102Y-59415226D01*
X78638061Y-59455000D01*
X78841939Y-59455000D01*
X79041898Y-59415226D01*
X79230256Y-59337205D01*
X79399774Y-59223937D01*
X79543937Y-59079774D01*
X79657205Y-58910256D01*
X79735226Y-58721898D01*
X79775000Y-58521939D01*
X79775000Y-58318061D01*
X79735226Y-58118102D01*
X79657205Y-57929744D01*
X79543937Y-57760226D01*
X79399774Y-57616063D01*
X79230256Y-57502795D01*
X79041898Y-57424774D01*
X78841939Y-57385000D01*
X78638061Y-57385000D01*
X78438102Y-57424774D01*
X78249744Y-57502795D01*
X78080226Y-57616063D01*
X77936063Y-57760226D01*
X77822795Y-57929744D01*
X77744774Y-58118102D01*
X77705000Y-58318061D01*
X74695000Y-58318061D01*
X74655226Y-58118102D01*
X74577205Y-57929744D01*
X74463937Y-57760226D01*
X74319774Y-57616063D01*
X74150256Y-57502795D01*
X73961898Y-57424774D01*
X73761939Y-57385000D01*
X73558061Y-57385000D01*
X73358102Y-57424774D01*
X73169744Y-57502795D01*
X73000226Y-57616063D01*
X72856063Y-57760226D01*
X72742795Y-57929744D01*
X72664774Y-58118102D01*
X72625000Y-58318061D01*
X72625000Y-58385400D01*
X69615000Y-58385400D01*
X69615000Y-58318061D01*
X69575226Y-58118102D01*
X69497205Y-57929744D01*
X69383937Y-57760226D01*
X69239774Y-57616063D01*
X69070256Y-57502795D01*
X68881898Y-57424774D01*
X68681939Y-57385000D01*
X68478061Y-57385000D01*
X68278102Y-57424774D01*
X68089744Y-57502795D01*
X67920226Y-57616063D01*
X67776063Y-57760226D01*
X67662795Y-57929744D01*
X67584774Y-58118102D01*
X67545000Y-58318061D01*
X67545000Y-58385400D01*
X64540202Y-58385400D01*
X64535000Y-58380198D01*
X64535000Y-58318061D01*
X64495226Y-58118102D01*
X64417205Y-57929744D01*
X64303937Y-57760226D01*
X64159774Y-57616063D01*
X63990256Y-57502795D01*
X63801898Y-57424774D01*
X63601939Y-57385000D01*
X63398061Y-57385000D01*
X63198102Y-57424774D01*
X63009744Y-57502795D01*
X62840226Y-57616063D01*
X62696063Y-57760226D01*
X62582795Y-57929744D01*
X62504774Y-58118102D01*
X62465000Y-58318061D01*
X59455000Y-58318061D01*
X59415226Y-58118102D01*
X59337205Y-57929744D01*
X59223937Y-57760226D01*
X59079774Y-57616063D01*
X58910256Y-57502795D01*
X58721898Y-57424774D01*
X58521939Y-57385000D01*
X58318061Y-57385000D01*
X58118102Y-57424774D01*
X57929744Y-57502795D01*
X57760226Y-57616063D01*
X57616063Y-57760226D01*
X57502795Y-57929744D01*
X57424774Y-58118102D01*
X57385000Y-58318061D01*
X54375000Y-58318061D01*
X54335226Y-58118102D01*
X54257205Y-57929744D01*
X54143937Y-57760226D01*
X53999774Y-57616063D01*
X53830256Y-57502795D01*
X53641898Y-57424774D01*
X53441939Y-57385000D01*
X53238061Y-57385000D01*
X53038102Y-57424774D01*
X52849744Y-57502795D01*
X52680226Y-57616063D01*
X52536063Y-57760226D01*
X52422795Y-57929744D01*
X52344774Y-58118102D01*
X52305000Y-58318061D01*
X49295000Y-58318061D01*
X49255226Y-58118102D01*
X49177205Y-57929744D01*
X49063937Y-57760226D01*
X48919774Y-57616063D01*
X48750256Y-57502795D01*
X48561898Y-57424774D01*
X48361939Y-57385000D01*
X48158061Y-57385000D01*
X47958102Y-57424774D01*
X47769744Y-57502795D01*
X47600226Y-57616063D01*
X47456063Y-57760226D01*
X47342795Y-57929744D01*
X47264774Y-58118102D01*
X47225000Y-58318061D01*
X44215000Y-58318061D01*
X44175226Y-58118102D01*
X44097205Y-57929744D01*
X43983937Y-57760226D01*
X43839774Y-57616063D01*
X43670256Y-57502795D01*
X43481898Y-57424774D01*
X43281939Y-57385000D01*
X43078061Y-57385000D01*
X42878102Y-57424774D01*
X42689744Y-57502795D01*
X42520226Y-57616063D01*
X42376063Y-57760226D01*
X42262795Y-57929744D01*
X42184774Y-58118102D01*
X42145000Y-58318061D01*
X39497000Y-58318061D01*
X39497000Y-55853161D01*
X65138100Y-55853161D01*
X65138100Y-56057039D01*
X65177874Y-56256998D01*
X65255895Y-56445356D01*
X65369163Y-56614874D01*
X65513326Y-56759037D01*
X65682844Y-56872305D01*
X65871202Y-56950326D01*
X66071161Y-56990100D01*
X66275039Y-56990100D01*
X66474998Y-56950326D01*
X66663356Y-56872305D01*
X66832874Y-56759037D01*
X66977037Y-56614874D01*
X67090305Y-56445356D01*
X67168326Y-56256998D01*
X67208100Y-56057039D01*
X67208100Y-55853161D01*
X67168326Y-55653202D01*
X67090305Y-55464844D01*
X66977037Y-55295326D01*
X66832874Y-55151163D01*
X66663356Y-55037895D01*
X66474998Y-54959874D01*
X66275039Y-54920100D01*
X66071161Y-54920100D01*
X65871202Y-54959874D01*
X65682844Y-55037895D01*
X65513326Y-55151163D01*
X65369163Y-55295326D01*
X65255895Y-55464844D01*
X65177874Y-55653202D01*
X65138100Y-55853161D01*
X39497000Y-55853161D01*
X39497000Y-53238061D01*
X42145000Y-53238061D01*
X42145000Y-53441939D01*
X42184774Y-53641898D01*
X42262795Y-53830256D01*
X42376063Y-53999774D01*
X42520226Y-54143937D01*
X42689744Y-54257205D01*
X42878102Y-54335226D01*
X43078061Y-54375000D01*
X43281939Y-54375000D01*
X43481898Y-54335226D01*
X43670256Y-54257205D01*
X43839774Y-54143937D01*
X43983937Y-53999774D01*
X44097205Y-53830256D01*
X44175226Y-53641898D01*
X44215000Y-53441939D01*
X44215000Y-53238061D01*
X47225000Y-53238061D01*
X47225000Y-53441939D01*
X47264774Y-53641898D01*
X47342795Y-53830256D01*
X47456063Y-53999774D01*
X47600226Y-54143937D01*
X47769744Y-54257205D01*
X47958102Y-54335226D01*
X48158061Y-54375000D01*
X48361939Y-54375000D01*
X48561898Y-54335226D01*
X48750256Y-54257205D01*
X48919774Y-54143937D01*
X49063937Y-53999774D01*
X49177205Y-53830256D01*
X49255226Y-53641898D01*
X49295000Y-53441939D01*
X49295000Y-53238061D01*
X52305000Y-53238061D01*
X52305000Y-53441939D01*
X52344774Y-53641898D01*
X52422795Y-53830256D01*
X52536063Y-53999774D01*
X52680226Y-54143937D01*
X52849744Y-54257205D01*
X53038102Y-54335226D01*
X53238061Y-54375000D01*
X53441939Y-54375000D01*
X53641898Y-54335226D01*
X53830256Y-54257205D01*
X53999774Y-54143937D01*
X54143937Y-53999774D01*
X54257205Y-53830256D01*
X54335226Y-53641898D01*
X54375000Y-53441939D01*
X54375000Y-53238061D01*
X57385000Y-53238061D01*
X57385000Y-53441939D01*
X57424774Y-53641898D01*
X57502795Y-53830256D01*
X57616063Y-53999774D01*
X57760226Y-54143937D01*
X57929744Y-54257205D01*
X58118102Y-54335226D01*
X58318061Y-54375000D01*
X58521939Y-54375000D01*
X58721898Y-54335226D01*
X58910256Y-54257205D01*
X59079774Y-54143937D01*
X59223937Y-53999774D01*
X59337205Y-53830256D01*
X59415226Y-53641898D01*
X59455000Y-53441939D01*
X59455000Y-53238061D01*
X62465000Y-53238061D01*
X62465000Y-53441939D01*
X62504774Y-53641898D01*
X62582795Y-53830256D01*
X62696063Y-53999774D01*
X62840226Y-54143937D01*
X63009744Y-54257205D01*
X63198102Y-54335226D01*
X63398061Y-54375000D01*
X63601939Y-54375000D01*
X63801898Y-54335226D01*
X63990256Y-54257205D01*
X64159774Y-54143937D01*
X64303937Y-53999774D01*
X64417205Y-53830256D01*
X64495226Y-53641898D01*
X64535000Y-53441939D01*
X64535000Y-53238061D01*
X67545000Y-53238061D01*
X67545000Y-53441939D01*
X67584774Y-53641898D01*
X67662795Y-53830256D01*
X67776063Y-53999774D01*
X67920226Y-54143937D01*
X68089744Y-54257205D01*
X68278102Y-54335226D01*
X68478061Y-54375000D01*
X68681939Y-54375000D01*
X68881898Y-54335226D01*
X69070256Y-54257205D01*
X69239774Y-54143937D01*
X69383937Y-53999774D01*
X69497205Y-53830256D01*
X69575226Y-53641898D01*
X69615000Y-53441939D01*
X69615000Y-53238061D01*
X72625000Y-53238061D01*
X72625000Y-53441939D01*
X72664774Y-53641898D01*
X72742795Y-53830256D01*
X72856063Y-53999774D01*
X73000226Y-54143937D01*
X73169744Y-54257205D01*
X73358102Y-54335226D01*
X73558061Y-54375000D01*
X73761939Y-54375000D01*
X73961898Y-54335226D01*
X74150256Y-54257205D01*
X74319774Y-54143937D01*
X74463937Y-53999774D01*
X74577205Y-53830256D01*
X74655226Y-53641898D01*
X74695000Y-53441939D01*
X74695000Y-53238061D01*
X77705000Y-53238061D01*
X77705000Y-53441939D01*
X77744774Y-53641898D01*
X77822795Y-53830256D01*
X77936063Y-53999774D01*
X78080226Y-54143937D01*
X78249744Y-54257205D01*
X78438102Y-54335226D01*
X78638061Y-54375000D01*
X78841939Y-54375000D01*
X79041898Y-54335226D01*
X79230256Y-54257205D01*
X79399774Y-54143937D01*
X79543937Y-53999774D01*
X79657205Y-53830256D01*
X79735226Y-53641898D01*
X79775000Y-53441939D01*
X79775000Y-53238061D01*
X79735226Y-53038102D01*
X79657205Y-52849744D01*
X79543937Y-52680226D01*
X79399774Y-52536063D01*
X79230256Y-52422795D01*
X79041898Y-52344774D01*
X78841939Y-52305000D01*
X78638061Y-52305000D01*
X78438102Y-52344774D01*
X78249744Y-52422795D01*
X78080226Y-52536063D01*
X77936063Y-52680226D01*
X77822795Y-52849744D01*
X77744774Y-53038102D01*
X77705000Y-53238061D01*
X74695000Y-53238061D01*
X74655226Y-53038102D01*
X74577205Y-52849744D01*
X74463937Y-52680226D01*
X74319774Y-52536063D01*
X74150256Y-52422795D01*
X73961898Y-52344774D01*
X73761939Y-52305000D01*
X73558061Y-52305000D01*
X73358102Y-52344774D01*
X73169744Y-52422795D01*
X73000226Y-52536063D01*
X72856063Y-52680226D01*
X72742795Y-52849744D01*
X72664774Y-53038102D01*
X72625000Y-53238061D01*
X69615000Y-53238061D01*
X69575226Y-53038102D01*
X69497205Y-52849744D01*
X69383937Y-52680226D01*
X69239774Y-52536063D01*
X69070256Y-52422795D01*
X68881898Y-52344774D01*
X68681939Y-52305000D01*
X68478061Y-52305000D01*
X68278102Y-52344774D01*
X68089744Y-52422795D01*
X67920226Y-52536063D01*
X67776063Y-52680226D01*
X67662795Y-52849744D01*
X67584774Y-53038102D01*
X67545000Y-53238061D01*
X64535000Y-53238061D01*
X64495226Y-53038102D01*
X64417205Y-52849744D01*
X64303937Y-52680226D01*
X64159774Y-52536063D01*
X63990256Y-52422795D01*
X63801898Y-52344774D01*
X63601939Y-52305000D01*
X63398061Y-52305000D01*
X63198102Y-52344774D01*
X63009744Y-52422795D01*
X62840226Y-52536063D01*
X62696063Y-52680226D01*
X62582795Y-52849744D01*
X62504774Y-53038102D01*
X62465000Y-53238061D01*
X59455000Y-53238061D01*
X59415226Y-53038102D01*
X59337205Y-52849744D01*
X59223937Y-52680226D01*
X59079774Y-52536063D01*
X58910256Y-52422795D01*
X58721898Y-52344774D01*
X58521939Y-52305000D01*
X58318061Y-52305000D01*
X58118102Y-52344774D01*
X57929744Y-52422795D01*
X57760226Y-52536063D01*
X57616063Y-52680226D01*
X57502795Y-52849744D01*
X57424774Y-53038102D01*
X57385000Y-53238061D01*
X54375000Y-53238061D01*
X54335226Y-53038102D01*
X54257205Y-52849744D01*
X54143937Y-52680226D01*
X53999774Y-52536063D01*
X53830256Y-52422795D01*
X53641898Y-52344774D01*
X53441939Y-52305000D01*
X53238061Y-52305000D01*
X53038102Y-52344774D01*
X52849744Y-52422795D01*
X52680226Y-52536063D01*
X52536063Y-52680226D01*
X52422795Y-52849744D01*
X52344774Y-53038102D01*
X52305000Y-53238061D01*
X49295000Y-53238061D01*
X49255226Y-53038102D01*
X49177205Y-52849744D01*
X49063937Y-52680226D01*
X48919774Y-52536063D01*
X48750256Y-52422795D01*
X48561898Y-52344774D01*
X48361939Y-52305000D01*
X48158061Y-52305000D01*
X47958102Y-52344774D01*
X47769744Y-52422795D01*
X47600226Y-52536063D01*
X47456063Y-52680226D01*
X47342795Y-52849744D01*
X47264774Y-53038102D01*
X47225000Y-53238061D01*
X44215000Y-53238061D01*
X44175226Y-53038102D01*
X44097205Y-52849744D01*
X43983937Y-52680226D01*
X43839774Y-52536063D01*
X43670256Y-52422795D01*
X43481898Y-52344774D01*
X43281939Y-52305000D01*
X43078061Y-52305000D01*
X42878102Y-52344774D01*
X42689744Y-52422795D01*
X42520226Y-52536063D01*
X42376063Y-52680226D01*
X42262795Y-52849744D01*
X42184774Y-53038102D01*
X42145000Y-53238061D01*
X39497000Y-53238061D01*
X39497000Y-51676611D01*
X39560037Y-51613574D01*
X39673305Y-51444056D01*
X39751326Y-51255698D01*
X39791100Y-51055739D01*
X39791100Y-50851861D01*
X39755396Y-50672361D01*
X44885200Y-50672361D01*
X44885200Y-50876239D01*
X44924974Y-51076198D01*
X45002995Y-51264556D01*
X45116263Y-51434074D01*
X45260426Y-51578237D01*
X45429944Y-51691505D01*
X45618302Y-51769526D01*
X45818261Y-51809300D01*
X46022139Y-51809300D01*
X46222098Y-51769526D01*
X46410456Y-51691505D01*
X46579974Y-51578237D01*
X46724137Y-51434074D01*
X46837405Y-51264556D01*
X46915426Y-51076198D01*
X46955200Y-50876239D01*
X46955200Y-50672361D01*
X46933002Y-50560761D01*
X49831200Y-50560761D01*
X49831200Y-50764639D01*
X49870974Y-50964598D01*
X49948995Y-51152956D01*
X50062263Y-51322474D01*
X50206426Y-51466637D01*
X50375944Y-51579905D01*
X50564302Y-51657926D01*
X50764261Y-51697700D01*
X50968139Y-51697700D01*
X51168098Y-51657926D01*
X51356456Y-51579905D01*
X51525974Y-51466637D01*
X51670137Y-51322474D01*
X51783405Y-51152956D01*
X51861426Y-50964598D01*
X51901200Y-50764639D01*
X51901200Y-50696861D01*
X54653800Y-50696861D01*
X54653800Y-50900739D01*
X54693574Y-51100698D01*
X54771595Y-51289056D01*
X54884863Y-51458574D01*
X55029026Y-51602737D01*
X55198544Y-51716005D01*
X55386902Y-51794026D01*
X55586861Y-51833800D01*
X55790739Y-51833800D01*
X55990698Y-51794026D01*
X56179056Y-51716005D01*
X56348574Y-51602737D01*
X56492737Y-51458574D01*
X56606005Y-51289056D01*
X56684026Y-51100698D01*
X56723800Y-50900739D01*
X56723800Y-50696861D01*
X56720538Y-50680461D01*
X59715900Y-50680461D01*
X59715900Y-50884339D01*
X59755674Y-51084298D01*
X59833695Y-51272656D01*
X59946963Y-51442174D01*
X60091126Y-51586337D01*
X60260644Y-51699605D01*
X60449002Y-51777626D01*
X60648961Y-51817400D01*
X60852839Y-51817400D01*
X61052798Y-51777626D01*
X61241156Y-51699605D01*
X61410674Y-51586337D01*
X61554837Y-51442174D01*
X61668105Y-51272656D01*
X61746126Y-51084298D01*
X61785900Y-50884339D01*
X61785900Y-50680461D01*
X61746126Y-50480502D01*
X61668105Y-50292144D01*
X61554837Y-50122626D01*
X61410674Y-49978463D01*
X61241156Y-49865195D01*
X61052798Y-49787174D01*
X60852839Y-49747400D01*
X60648961Y-49747400D01*
X60449002Y-49787174D01*
X60260644Y-49865195D01*
X60091126Y-49978463D01*
X59946963Y-50122626D01*
X59833695Y-50292144D01*
X59755674Y-50480502D01*
X59715900Y-50680461D01*
X56720538Y-50680461D01*
X56684026Y-50496902D01*
X56606005Y-50308544D01*
X56492737Y-50139026D01*
X56348574Y-49994863D01*
X56179056Y-49881595D01*
X55990698Y-49803574D01*
X55790739Y-49763800D01*
X55586861Y-49763800D01*
X55386902Y-49803574D01*
X55198544Y-49881595D01*
X55029026Y-49994863D01*
X54884863Y-50139026D01*
X54771595Y-50308544D01*
X54693574Y-50496902D01*
X54653800Y-50696861D01*
X51901200Y-50696861D01*
X51901200Y-50560761D01*
X51861426Y-50360802D01*
X51783405Y-50172444D01*
X51670137Y-50002926D01*
X51525974Y-49858763D01*
X51356456Y-49745495D01*
X51168098Y-49667474D01*
X50968139Y-49627700D01*
X50764261Y-49627700D01*
X50564302Y-49667474D01*
X50375944Y-49745495D01*
X50206426Y-49858763D01*
X50062263Y-50002926D01*
X49948995Y-50172444D01*
X49870974Y-50360802D01*
X49831200Y-50560761D01*
X46933002Y-50560761D01*
X46915426Y-50472402D01*
X46837405Y-50284044D01*
X46724137Y-50114526D01*
X46579974Y-49970363D01*
X46410456Y-49857095D01*
X46222098Y-49779074D01*
X46022139Y-49739300D01*
X45818261Y-49739300D01*
X45618302Y-49779074D01*
X45429944Y-49857095D01*
X45260426Y-49970363D01*
X45116263Y-50114526D01*
X45002995Y-50284044D01*
X44924974Y-50472402D01*
X44885200Y-50672361D01*
X39755396Y-50672361D01*
X39751326Y-50651902D01*
X39673305Y-50463544D01*
X39560037Y-50294026D01*
X39497000Y-50230989D01*
X39497000Y-48505936D01*
X39542798Y-48496826D01*
X39731156Y-48418805D01*
X39900674Y-48305537D01*
X40044837Y-48161374D01*
X40047050Y-48158061D01*
X42145000Y-48158061D01*
X42145000Y-48361939D01*
X42184774Y-48561898D01*
X42262795Y-48750256D01*
X42376063Y-48919774D01*
X42520226Y-49063937D01*
X42689744Y-49177205D01*
X42878102Y-49255226D01*
X43078061Y-49295000D01*
X43281939Y-49295000D01*
X43481898Y-49255226D01*
X43670256Y-49177205D01*
X43839774Y-49063937D01*
X43983937Y-48919774D01*
X44097205Y-48750256D01*
X44175226Y-48561898D01*
X44215000Y-48361939D01*
X44215000Y-48158061D01*
X47225000Y-48158061D01*
X47225000Y-48361939D01*
X47264774Y-48561898D01*
X47342795Y-48750256D01*
X47456063Y-48919774D01*
X47600226Y-49063937D01*
X47769744Y-49177205D01*
X47958102Y-49255226D01*
X48158061Y-49295000D01*
X48361939Y-49295000D01*
X48561898Y-49255226D01*
X48750256Y-49177205D01*
X48919774Y-49063937D01*
X49063937Y-48919774D01*
X49177205Y-48750256D01*
X49255226Y-48561898D01*
X49295000Y-48361939D01*
X49295000Y-48158061D01*
X52305000Y-48158061D01*
X52305000Y-48361939D01*
X52344774Y-48561898D01*
X52422795Y-48750256D01*
X52536063Y-48919774D01*
X52680226Y-49063937D01*
X52849744Y-49177205D01*
X53038102Y-49255226D01*
X53238061Y-49295000D01*
X53441939Y-49295000D01*
X53641898Y-49255226D01*
X53830256Y-49177205D01*
X53999774Y-49063937D01*
X54143937Y-48919774D01*
X54257205Y-48750256D01*
X54335226Y-48561898D01*
X54375000Y-48361939D01*
X54375000Y-48158061D01*
X57385000Y-48158061D01*
X57385000Y-48361939D01*
X57424774Y-48561898D01*
X57502795Y-48750256D01*
X57616063Y-48919774D01*
X57760226Y-49063937D01*
X57929744Y-49177205D01*
X58118102Y-49255226D01*
X58318061Y-49295000D01*
X58521939Y-49295000D01*
X58721898Y-49255226D01*
X58910256Y-49177205D01*
X59079774Y-49063937D01*
X59223937Y-48919774D01*
X59337205Y-48750256D01*
X59415226Y-48561898D01*
X59455000Y-48361939D01*
X59455000Y-48158061D01*
X59415226Y-47958102D01*
X59337205Y-47769744D01*
X59223937Y-47600226D01*
X59079774Y-47456063D01*
X58910256Y-47342795D01*
X58721898Y-47264774D01*
X58521939Y-47225000D01*
X58318061Y-47225000D01*
X58118102Y-47264774D01*
X57929744Y-47342795D01*
X57760226Y-47456063D01*
X57616063Y-47600226D01*
X57502795Y-47769744D01*
X57424774Y-47958102D01*
X57385000Y-48158061D01*
X54375000Y-48158061D01*
X54335226Y-47958102D01*
X54257205Y-47769744D01*
X54143937Y-47600226D01*
X53999774Y-47456063D01*
X53830256Y-47342795D01*
X53641898Y-47264774D01*
X53441939Y-47225000D01*
X53238061Y-47225000D01*
X53038102Y-47264774D01*
X52849744Y-47342795D01*
X52680226Y-47456063D01*
X52536063Y-47600226D01*
X52422795Y-47769744D01*
X52344774Y-47958102D01*
X52305000Y-48158061D01*
X49295000Y-48158061D01*
X49255226Y-47958102D01*
X49177205Y-47769744D01*
X49063937Y-47600226D01*
X48919774Y-47456063D01*
X48750256Y-47342795D01*
X48561898Y-47264774D01*
X48361939Y-47225000D01*
X48158061Y-47225000D01*
X47958102Y-47264774D01*
X47769744Y-47342795D01*
X47600226Y-47456063D01*
X47456063Y-47600226D01*
X47342795Y-47769744D01*
X47264774Y-47958102D01*
X47225000Y-48158061D01*
X44215000Y-48158061D01*
X44175226Y-47958102D01*
X44097205Y-47769744D01*
X43983937Y-47600226D01*
X43839774Y-47456063D01*
X43670256Y-47342795D01*
X43481898Y-47264774D01*
X43281939Y-47225000D01*
X43078061Y-47225000D01*
X42878102Y-47264774D01*
X42689744Y-47342795D01*
X42520226Y-47456063D01*
X42376063Y-47600226D01*
X42262795Y-47769744D01*
X42184774Y-47958102D01*
X42145000Y-48158061D01*
X40047050Y-48158061D01*
X40158105Y-47991856D01*
X40236126Y-47803498D01*
X40275900Y-47603539D01*
X40275900Y-47399661D01*
X40236126Y-47199702D01*
X40158105Y-47011344D01*
X40120577Y-46955179D01*
X40185205Y-46858456D01*
X40263226Y-46670098D01*
X40303000Y-46470139D01*
X40303000Y-46266261D01*
X40263226Y-46066302D01*
X40185205Y-45877944D01*
X40071937Y-45708426D01*
X39927774Y-45564263D01*
X39870302Y-45525861D01*
X44777200Y-45525861D01*
X44777200Y-45729739D01*
X44816974Y-45929698D01*
X44894995Y-46118056D01*
X45008263Y-46287574D01*
X45152426Y-46431737D01*
X45321944Y-46545005D01*
X45510302Y-46623026D01*
X45710261Y-46662800D01*
X45914139Y-46662800D01*
X46114098Y-46623026D01*
X46302456Y-46545005D01*
X46471974Y-46431737D01*
X46616137Y-46287574D01*
X46729405Y-46118056D01*
X46807426Y-45929698D01*
X46844602Y-45742800D01*
X49984000Y-45742800D01*
X49984000Y-45827639D01*
X50023774Y-46027598D01*
X50101795Y-46215956D01*
X50215063Y-46385474D01*
X50359226Y-46529637D01*
X50528744Y-46642905D01*
X50717102Y-46720926D01*
X50917061Y-46760700D01*
X51120939Y-46760700D01*
X51320898Y-46720926D01*
X51509256Y-46642905D01*
X51678774Y-46529637D01*
X51822937Y-46385474D01*
X51936205Y-46215956D01*
X52014226Y-46027598D01*
X52054000Y-45827639D01*
X52054000Y-45742800D01*
X59907999Y-45742800D01*
X62465000Y-48299802D01*
X62465000Y-48361939D01*
X62504774Y-48561898D01*
X62582795Y-48750256D01*
X62696063Y-48919774D01*
X62840226Y-49063937D01*
X63009744Y-49177205D01*
X63198102Y-49255226D01*
X63398061Y-49295000D01*
X63601939Y-49295000D01*
X63801898Y-49255226D01*
X63990256Y-49177205D01*
X64159774Y-49063937D01*
X64303937Y-48919774D01*
X64417205Y-48750256D01*
X64495226Y-48561898D01*
X64535000Y-48361939D01*
X64535000Y-48158061D01*
X67545000Y-48158061D01*
X67545000Y-48361939D01*
X67584774Y-48561898D01*
X67662795Y-48750256D01*
X67776063Y-48919774D01*
X67920226Y-49063937D01*
X68089744Y-49177205D01*
X68278102Y-49255226D01*
X68478061Y-49295000D01*
X68681939Y-49295000D01*
X68881898Y-49255226D01*
X69070256Y-49177205D01*
X69239774Y-49063937D01*
X69383937Y-48919774D01*
X69497205Y-48750256D01*
X69575226Y-48561898D01*
X69615000Y-48361939D01*
X69615000Y-48158061D01*
X72625000Y-48158061D01*
X72625000Y-48361939D01*
X72664774Y-48561898D01*
X72742795Y-48750256D01*
X72856063Y-48919774D01*
X73000226Y-49063937D01*
X73169744Y-49177205D01*
X73358102Y-49255226D01*
X73558061Y-49295000D01*
X73761939Y-49295000D01*
X73961898Y-49255226D01*
X74150256Y-49177205D01*
X74319774Y-49063937D01*
X74463937Y-48919774D01*
X74577205Y-48750256D01*
X74655226Y-48561898D01*
X74695000Y-48361939D01*
X74695000Y-48158061D01*
X77705000Y-48158061D01*
X77705000Y-48361939D01*
X77744774Y-48561898D01*
X77822795Y-48750256D01*
X77936063Y-48919774D01*
X78080226Y-49063937D01*
X78249744Y-49177205D01*
X78438102Y-49255226D01*
X78638061Y-49295000D01*
X78841939Y-49295000D01*
X79041898Y-49255226D01*
X79230256Y-49177205D01*
X79399774Y-49063937D01*
X79543937Y-48919774D01*
X79657205Y-48750256D01*
X79735226Y-48561898D01*
X79775000Y-48361939D01*
X79775000Y-48158061D01*
X79735226Y-47958102D01*
X79657205Y-47769744D01*
X79543937Y-47600226D01*
X79399774Y-47456063D01*
X79230256Y-47342795D01*
X79041898Y-47264774D01*
X78841939Y-47225000D01*
X78638061Y-47225000D01*
X78438102Y-47264774D01*
X78249744Y-47342795D01*
X78080226Y-47456063D01*
X77936063Y-47600226D01*
X77822795Y-47769744D01*
X77744774Y-47958102D01*
X77705000Y-48158061D01*
X74695000Y-48158061D01*
X74655226Y-47958102D01*
X74577205Y-47769744D01*
X74463937Y-47600226D01*
X74319774Y-47456063D01*
X74150256Y-47342795D01*
X73961898Y-47264774D01*
X73761939Y-47225000D01*
X73558061Y-47225000D01*
X73358102Y-47264774D01*
X73169744Y-47342795D01*
X73000226Y-47456063D01*
X72856063Y-47600226D01*
X72742795Y-47769744D01*
X72664774Y-47958102D01*
X72625000Y-48158061D01*
X69615000Y-48158061D01*
X69575226Y-47958102D01*
X69497205Y-47769744D01*
X69383937Y-47600226D01*
X69239774Y-47456063D01*
X69070256Y-47342795D01*
X68881898Y-47264774D01*
X68681939Y-47225000D01*
X68478061Y-47225000D01*
X68278102Y-47264774D01*
X68089744Y-47342795D01*
X67920226Y-47456063D01*
X67776063Y-47600226D01*
X67662795Y-47769744D01*
X67584774Y-47958102D01*
X67545000Y-48158061D01*
X64535000Y-48158061D01*
X64495226Y-47958102D01*
X64417205Y-47769744D01*
X64303937Y-47600226D01*
X64159774Y-47456063D01*
X63990256Y-47342795D01*
X63801898Y-47264774D01*
X63601939Y-47225000D01*
X63539802Y-47225000D01*
X61921163Y-45606361D01*
X64791400Y-45606361D01*
X64791400Y-45810239D01*
X64831174Y-46010198D01*
X64909195Y-46198556D01*
X65022463Y-46368074D01*
X65166626Y-46512237D01*
X65336144Y-46625505D01*
X65524502Y-46703526D01*
X65724461Y-46743300D01*
X65928339Y-46743300D01*
X66128298Y-46703526D01*
X66316656Y-46625505D01*
X66486174Y-46512237D01*
X66630337Y-46368074D01*
X66743605Y-46198556D01*
X66821626Y-46010198D01*
X66861400Y-45810239D01*
X66861400Y-45606361D01*
X66821626Y-45406402D01*
X66821485Y-45406061D01*
X75165000Y-45406061D01*
X75165000Y-45609939D01*
X75204774Y-45809898D01*
X75282795Y-45998256D01*
X75396063Y-46167774D01*
X75540226Y-46311937D01*
X75709744Y-46425205D01*
X75898102Y-46503226D01*
X76098061Y-46543000D01*
X76301939Y-46543000D01*
X76501898Y-46503226D01*
X76690256Y-46425205D01*
X76859774Y-46311937D01*
X77003937Y-46167774D01*
X77117205Y-45998256D01*
X77195226Y-45809898D01*
X77233384Y-45618061D01*
X80153600Y-45618061D01*
X80153600Y-45821939D01*
X80193374Y-46021898D01*
X80271395Y-46210256D01*
X80384663Y-46379774D01*
X80528826Y-46523937D01*
X80698344Y-46637205D01*
X80886702Y-46715226D01*
X81086661Y-46755000D01*
X81290539Y-46755000D01*
X81490498Y-46715226D01*
X81678856Y-46637205D01*
X81848374Y-46523937D01*
X81992537Y-46379774D01*
X82105805Y-46210256D01*
X82183826Y-46021898D01*
X82223600Y-45821939D01*
X82223600Y-45618061D01*
X82183826Y-45418102D01*
X82105805Y-45229744D01*
X81992537Y-45060226D01*
X81848374Y-44916063D01*
X81678856Y-44802795D01*
X81490498Y-44724774D01*
X81290539Y-44685000D01*
X81086661Y-44685000D01*
X80886702Y-44724774D01*
X80698344Y-44802795D01*
X80528826Y-44916063D01*
X80384663Y-45060226D01*
X80271395Y-45229744D01*
X80193374Y-45418102D01*
X80153600Y-45618061D01*
X77233384Y-45618061D01*
X77235000Y-45609939D01*
X77235000Y-45406061D01*
X77195226Y-45206102D01*
X77117205Y-45017744D01*
X77003937Y-44848226D01*
X76859774Y-44704063D01*
X76690256Y-44590795D01*
X76501898Y-44512774D01*
X76301939Y-44473000D01*
X76098061Y-44473000D01*
X75898102Y-44512774D01*
X75709744Y-44590795D01*
X75540226Y-44704063D01*
X75396063Y-44848226D01*
X75282795Y-45017744D01*
X75204774Y-45206102D01*
X75165000Y-45406061D01*
X66821485Y-45406061D01*
X66743605Y-45218044D01*
X66630337Y-45048526D01*
X66486174Y-44904363D01*
X66316656Y-44791095D01*
X66128298Y-44713074D01*
X65928339Y-44673300D01*
X65724461Y-44673300D01*
X65524502Y-44713074D01*
X65336144Y-44791095D01*
X65166626Y-44904363D01*
X65022463Y-45048526D01*
X64909195Y-45218044D01*
X64831174Y-45406402D01*
X64791400Y-45606361D01*
X61921163Y-45606361D01*
X60786604Y-44471803D01*
X60762801Y-44442799D01*
X60647076Y-44347826D01*
X60515047Y-44277254D01*
X60371786Y-44233797D01*
X60260133Y-44222800D01*
X60260122Y-44222800D01*
X60222800Y-44219124D01*
X60185478Y-44222800D01*
X46494525Y-44222800D01*
X46457200Y-44219124D01*
X46419875Y-44222800D01*
X46419867Y-44222800D01*
X46308214Y-44233797D01*
X46164953Y-44277254D01*
X46032924Y-44347826D01*
X45917199Y-44442799D01*
X45893400Y-44471798D01*
X45772398Y-44592800D01*
X45710261Y-44592800D01*
X45510302Y-44632574D01*
X45321944Y-44710595D01*
X45152426Y-44823863D01*
X45008263Y-44968026D01*
X44894995Y-45137544D01*
X44816974Y-45325902D01*
X44777200Y-45525861D01*
X39870302Y-45525861D01*
X39758256Y-45450995D01*
X39569898Y-45372974D01*
X39497000Y-45358474D01*
X39497000Y-44537958D01*
X39577098Y-44522026D01*
X39765456Y-44444005D01*
X39934974Y-44330737D01*
X40079137Y-44186574D01*
X40192405Y-44017056D01*
X40270426Y-43828698D01*
X40310200Y-43628739D01*
X40310200Y-43424861D01*
X40270426Y-43224902D01*
X40209603Y-43078061D01*
X42145000Y-43078061D01*
X42145000Y-43281939D01*
X42184774Y-43481898D01*
X42262795Y-43670256D01*
X42376063Y-43839774D01*
X42520226Y-43983937D01*
X42689744Y-44097205D01*
X42878102Y-44175226D01*
X43078061Y-44215000D01*
X43281939Y-44215000D01*
X43481898Y-44175226D01*
X43670256Y-44097205D01*
X43839774Y-43983937D01*
X43983937Y-43839774D01*
X44097205Y-43670256D01*
X44175226Y-43481898D01*
X44215000Y-43281939D01*
X44215000Y-43078061D01*
X44175226Y-42878102D01*
X44097205Y-42689744D01*
X43983937Y-42520226D01*
X43839774Y-42376063D01*
X43670256Y-42262795D01*
X43481898Y-42184774D01*
X43281939Y-42145000D01*
X43078061Y-42145000D01*
X42878102Y-42184774D01*
X42689744Y-42262795D01*
X42520226Y-42376063D01*
X42376063Y-42520226D01*
X42262795Y-42689744D01*
X42184774Y-42878102D01*
X42145000Y-43078061D01*
X40209603Y-43078061D01*
X40192405Y-43036544D01*
X40079137Y-42867026D01*
X39934974Y-42722863D01*
X39765456Y-42609595D01*
X39577098Y-42531574D01*
X39497000Y-42515642D01*
X39497000Y-37998061D01*
X42145000Y-37998061D01*
X42145000Y-38201939D01*
X42184774Y-38401898D01*
X42262795Y-38590256D01*
X42376063Y-38759774D01*
X42520226Y-38903937D01*
X42689744Y-39017205D01*
X42878102Y-39095226D01*
X43078061Y-39135000D01*
X43281939Y-39135000D01*
X43481898Y-39095226D01*
X43670256Y-39017205D01*
X43839774Y-38903937D01*
X43983937Y-38759774D01*
X44097205Y-38590256D01*
X44175226Y-38401898D01*
X44215000Y-38201939D01*
X44215000Y-37998061D01*
X47225000Y-37998061D01*
X47225000Y-38201939D01*
X47264774Y-38401898D01*
X47342795Y-38590256D01*
X47456063Y-38759774D01*
X47600226Y-38903937D01*
X47769744Y-39017205D01*
X47958102Y-39095226D01*
X48158061Y-39135000D01*
X48361939Y-39135000D01*
X48561898Y-39095226D01*
X48750256Y-39017205D01*
X48919774Y-38903937D01*
X49063937Y-38759774D01*
X49177205Y-38590256D01*
X49255226Y-38401898D01*
X49295000Y-38201939D01*
X49295000Y-37998061D01*
X49255226Y-37798102D01*
X49177205Y-37609744D01*
X49063937Y-37440226D01*
X48919774Y-37296063D01*
X48750256Y-37182795D01*
X48561898Y-37104774D01*
X48361939Y-37065000D01*
X48158061Y-37065000D01*
X47958102Y-37104774D01*
X47769744Y-37182795D01*
X47600226Y-37296063D01*
X47456063Y-37440226D01*
X47342795Y-37609744D01*
X47264774Y-37798102D01*
X47225000Y-37998061D01*
X44215000Y-37998061D01*
X44175226Y-37798102D01*
X44097205Y-37609744D01*
X43983937Y-37440226D01*
X43839774Y-37296063D01*
X43670256Y-37182795D01*
X43481898Y-37104774D01*
X43281939Y-37065000D01*
X43078061Y-37065000D01*
X42878102Y-37104774D01*
X42689744Y-37182795D01*
X42520226Y-37296063D01*
X42376063Y-37440226D01*
X42262795Y-37609744D01*
X42184774Y-37798102D01*
X42145000Y-37998061D01*
X39497000Y-37998061D01*
X39497000Y-34417000D01*
X50028022Y-34417000D01*
X49940226Y-34475663D01*
G37*
X49940226Y-34475663D02*
X49796063Y-34619826D01*
X49682795Y-34789344D01*
X49604774Y-34977702D01*
X49565000Y-35177661D01*
X49565000Y-35381539D01*
X49604774Y-35581498D01*
X49682795Y-35769856D01*
X49796063Y-35939374D01*
X49940226Y-36083537D01*
X50109744Y-36196805D01*
X50298102Y-36274826D01*
X50498061Y-36314600D01*
X50701939Y-36314600D01*
X50901898Y-36274826D01*
X51090256Y-36196805D01*
X51259774Y-36083537D01*
X51403937Y-35939374D01*
X51517205Y-35769856D01*
X51595226Y-35581498D01*
X51616448Y-35474808D01*
X51755161Y-35502400D01*
X51841900Y-35502400D01*
X51841900Y-35601239D01*
X51881674Y-35801198D01*
X51959695Y-35989556D01*
X52072963Y-36159074D01*
X52217126Y-36303237D01*
X52386644Y-36416505D01*
X52575002Y-36494526D01*
X52774961Y-36534300D01*
X52978839Y-36534300D01*
X53178798Y-36494526D01*
X53367156Y-36416505D01*
X53536674Y-36303237D01*
X53680837Y-36159074D01*
X53717300Y-36104503D01*
X53717300Y-36647898D01*
X53300199Y-37065000D01*
X53238061Y-37065000D01*
X53038102Y-37104774D01*
X52849744Y-37182795D01*
X52680226Y-37296063D01*
X52536063Y-37440226D01*
X52422795Y-37609744D01*
X52344774Y-37798102D01*
X52305000Y-37998061D01*
X52305000Y-38201939D01*
X52323834Y-38296626D01*
X52236814Y-38305197D01*
X52093553Y-38348654D01*
X51961524Y-38419226D01*
X51845799Y-38514199D01*
X51822001Y-38543197D01*
X48220199Y-42145000D01*
X48158061Y-42145000D01*
X47958102Y-42184774D01*
X47769744Y-42262795D01*
X47600226Y-42376063D01*
X47456063Y-42520226D01*
X47342795Y-42689744D01*
X47264774Y-42878102D01*
X47225000Y-43078061D01*
X47225000Y-43281939D01*
X47264774Y-43481898D01*
X47342795Y-43670256D01*
X47456063Y-43839774D01*
X47600226Y-43983937D01*
X47769744Y-44097205D01*
X47958102Y-44175226D01*
X48158061Y-44215000D01*
X48361939Y-44215000D01*
X48561898Y-44175226D01*
X48750256Y-44097205D01*
X48919774Y-43983937D01*
X49063937Y-43839774D01*
X49177205Y-43670256D01*
X49255226Y-43481898D01*
X49295000Y-43281939D01*
X49295000Y-43219801D01*
X49436740Y-43078061D01*
X52305000Y-43078061D01*
X52305000Y-43281939D01*
X52344774Y-43481898D01*
X52422795Y-43670256D01*
X52536063Y-43839774D01*
X52680226Y-43983937D01*
X52849744Y-44097205D01*
X53038102Y-44175226D01*
X53238061Y-44215000D01*
X53441939Y-44215000D01*
X53641898Y-44175226D01*
X53830256Y-44097205D01*
X53999774Y-43983937D01*
X54143937Y-43839774D01*
X54257205Y-43670256D01*
X54335226Y-43481898D01*
X54375000Y-43281939D01*
X54375000Y-43078061D01*
X54335226Y-42878102D01*
X54257205Y-42689744D01*
X54143937Y-42520226D01*
X53999774Y-42376063D01*
X53830256Y-42262795D01*
X53641898Y-42184774D01*
X53441939Y-42145000D01*
X53238061Y-42145000D01*
X53038102Y-42184774D01*
X52849744Y-42262795D01*
X52680226Y-42376063D01*
X52536063Y-42520226D01*
X52422795Y-42689744D01*
X52344774Y-42878102D01*
X52305000Y-43078061D01*
X49436740Y-43078061D01*
X52700602Y-39814200D01*
X57872859Y-39814200D01*
X57856202Y-39834497D01*
X57856201Y-39834498D01*
X57785026Y-39921224D01*
X57714454Y-40053254D01*
X57670998Y-40196515D01*
X57656324Y-40345500D01*
X57660001Y-40382832D01*
X57660000Y-42476289D01*
X57616063Y-42520226D01*
X57502795Y-42689744D01*
X57424774Y-42878102D01*
X57385000Y-43078061D01*
X57385000Y-43281939D01*
X57424774Y-43481898D01*
X57502795Y-43670256D01*
X57616063Y-43839774D01*
X57760226Y-43983937D01*
X57929744Y-44097205D01*
X58118102Y-44175226D01*
X58318061Y-44215000D01*
X58521939Y-44215000D01*
X58721898Y-44175226D01*
X58910256Y-44097205D01*
X59079774Y-43983937D01*
X59223937Y-43839774D01*
X59337205Y-43670256D01*
X59415226Y-43481898D01*
X59455000Y-43281939D01*
X59455000Y-43078061D01*
X59415226Y-42878102D01*
X59337205Y-42689744D01*
X59223937Y-42520226D01*
X59180000Y-42476289D01*
X59180000Y-40660301D01*
X63306702Y-36533600D01*
X63368839Y-36533600D01*
X63568798Y-36493826D01*
X63757156Y-36415805D01*
X63926674Y-36302537D01*
X64070837Y-36158374D01*
X64184105Y-35988856D01*
X64262126Y-35800498D01*
X64301900Y-35600539D01*
X64301900Y-35396661D01*
X64292320Y-35348500D01*
X64600400Y-35348500D01*
X64590800Y-35396761D01*
X64590800Y-35600639D01*
X64630574Y-35800598D01*
X64708595Y-35988956D01*
X64821863Y-36158474D01*
X64966026Y-36302637D01*
X65135544Y-36415905D01*
X65323902Y-36493926D01*
X65523861Y-36533700D01*
X65727739Y-36533700D01*
X65927698Y-36493926D01*
X66028715Y-36452083D01*
X64526329Y-37954469D01*
X64495226Y-37798102D01*
X64417205Y-37609744D01*
X64303937Y-37440226D01*
X64159774Y-37296063D01*
X63990256Y-37182795D01*
X63801898Y-37104774D01*
X63601939Y-37065000D01*
X63398061Y-37065000D01*
X63198102Y-37104774D01*
X63009744Y-37182795D01*
X62840226Y-37296063D01*
X62696063Y-37440226D01*
X62582795Y-37609744D01*
X62504774Y-37798102D01*
X62465000Y-37998061D01*
X62465000Y-38201939D01*
X62504774Y-38401898D01*
X62582795Y-38590256D01*
X62696063Y-38759774D01*
X62840226Y-38903937D01*
X63009744Y-39017205D01*
X63198102Y-39095226D01*
X63354470Y-39126329D01*
X62988998Y-39491801D01*
X62960000Y-39515599D01*
X62936202Y-39544597D01*
X62936201Y-39544598D01*
X62865026Y-39631324D01*
X62794454Y-39763354D01*
X62750998Y-39906615D01*
X62736324Y-40055600D01*
X62740001Y-40092932D01*
X62740000Y-42476289D01*
X62696063Y-42520226D01*
X62582795Y-42689744D01*
X62504774Y-42878102D01*
X62465000Y-43078061D01*
X62465000Y-43281939D01*
X62504774Y-43481898D01*
X62582795Y-43670256D01*
X62696063Y-43839774D01*
X62840226Y-43983937D01*
X63009744Y-44097205D01*
X63198102Y-44175226D01*
X63398061Y-44215000D01*
X63601939Y-44215000D01*
X63801898Y-44175226D01*
X63990256Y-44097205D01*
X64159774Y-43983937D01*
X64303937Y-43839774D01*
X64417205Y-43670256D01*
X64495226Y-43481898D01*
X64535000Y-43281939D01*
X64535000Y-43078061D01*
X72625000Y-43078061D01*
X72625000Y-43281939D01*
X72664774Y-43481898D01*
X72742795Y-43670256D01*
X72856063Y-43839774D01*
X73000226Y-43983937D01*
X73169744Y-44097205D01*
X73358102Y-44175226D01*
X73558061Y-44215000D01*
X73761939Y-44215000D01*
X73961898Y-44175226D01*
X74150256Y-44097205D01*
X74319774Y-43983937D01*
X74463937Y-43839774D01*
X74577205Y-43670256D01*
X74655226Y-43481898D01*
X74695000Y-43281939D01*
X74695000Y-43078061D01*
X77705000Y-43078061D01*
X77705000Y-43281939D01*
X77744774Y-43481898D01*
X77822795Y-43670256D01*
X77936063Y-43839774D01*
X78080226Y-43983937D01*
X78249744Y-44097205D01*
X78438102Y-44175226D01*
X78638061Y-44215000D01*
X78841939Y-44215000D01*
X79041898Y-44175226D01*
X79230256Y-44097205D01*
X79399774Y-43983937D01*
X79543937Y-43839774D01*
X79657205Y-43670256D01*
X79735226Y-43481898D01*
X79775000Y-43281939D01*
X79775000Y-43078061D01*
X79735226Y-42878102D01*
X79657205Y-42689744D01*
X79543937Y-42520226D01*
X79399774Y-42376063D01*
X79230256Y-42262795D01*
X79041898Y-42184774D01*
X78841939Y-42145000D01*
X78638061Y-42145000D01*
X78438102Y-42184774D01*
X78249744Y-42262795D01*
X78080226Y-42376063D01*
X77936063Y-42520226D01*
X77822795Y-42689744D01*
X77744774Y-42878102D01*
X77705000Y-43078061D01*
X74695000Y-43078061D01*
X74655226Y-42878102D01*
X74577205Y-42689744D01*
X74463937Y-42520226D01*
X74319774Y-42376063D01*
X74150256Y-42262795D01*
X73961898Y-42184774D01*
X73761939Y-42145000D01*
X73558061Y-42145000D01*
X73358102Y-42184774D01*
X73169744Y-42262795D01*
X73000226Y-42376063D01*
X72856063Y-42520226D01*
X72742795Y-42689744D01*
X72664774Y-42878102D01*
X72625000Y-43078061D01*
X64535000Y-43078061D01*
X64495226Y-42878102D01*
X64417205Y-42689744D01*
X64303937Y-42520226D01*
X64260000Y-42476289D01*
X64260000Y-40662561D01*
X70080900Y-40662561D01*
X70080900Y-40866439D01*
X70120674Y-41066398D01*
X70198695Y-41254756D01*
X70311963Y-41424274D01*
X70456126Y-41568437D01*
X70625644Y-41681705D01*
X70814002Y-41759726D01*
X71013961Y-41799500D01*
X71217839Y-41799500D01*
X71417798Y-41759726D01*
X71606156Y-41681705D01*
X71775674Y-41568437D01*
X71919837Y-41424274D01*
X72033105Y-41254756D01*
X72111126Y-41066398D01*
X72150900Y-40866439D01*
X72150900Y-40662561D01*
X72111126Y-40462602D01*
X72033105Y-40274244D01*
X71919837Y-40104726D01*
X71775674Y-39960563D01*
X71606156Y-39847295D01*
X71417798Y-39769274D01*
X71217839Y-39729500D01*
X71013961Y-39729500D01*
X70814002Y-39769274D01*
X70625644Y-39847295D01*
X70456126Y-39960563D01*
X70311963Y-40104726D01*
X70198695Y-40274244D01*
X70120674Y-40462602D01*
X70080900Y-40662561D01*
X64260000Y-40662561D01*
X64260000Y-40370401D01*
X66632340Y-37998061D01*
X67545000Y-37998061D01*
X67545000Y-38201939D01*
X67584774Y-38401898D01*
X67662795Y-38590256D01*
X67776063Y-38759774D01*
X67920226Y-38903937D01*
X68089744Y-39017205D01*
X68278102Y-39095226D01*
X68478061Y-39135000D01*
X68681939Y-39135000D01*
X68881898Y-39095226D01*
X69070256Y-39017205D01*
X69239774Y-38903937D01*
X69383937Y-38759774D01*
X69497205Y-38590256D01*
X69575226Y-38401898D01*
X69615000Y-38201939D01*
X69615000Y-37998061D01*
X69575226Y-37798102D01*
X69497205Y-37609744D01*
X69383937Y-37440226D01*
X69239774Y-37296063D01*
X69070256Y-37182795D01*
X68881898Y-37104774D01*
X68681939Y-37065000D01*
X68478061Y-37065000D01*
X68278102Y-37104774D01*
X68089744Y-37182795D01*
X67920226Y-37296063D01*
X67776063Y-37440226D01*
X67662795Y-37609744D01*
X67584774Y-37798102D01*
X67545000Y-37998061D01*
X66632340Y-37998061D01*
X68624404Y-36005998D01*
X68628949Y-36002268D01*
X68721763Y-36141174D01*
X68865926Y-36285337D01*
X69035444Y-36398605D01*
X69223802Y-36476626D01*
X69423761Y-36516400D01*
X69627639Y-36516400D01*
X69827598Y-36476626D01*
X70015956Y-36398605D01*
X70042757Y-36380697D01*
X70075544Y-36402605D01*
X70263902Y-36480626D01*
X70463861Y-36520400D01*
X70667739Y-36520400D01*
X70867698Y-36480626D01*
X70937084Y-36451885D01*
X72625000Y-38139802D01*
X72625000Y-38201939D01*
X72664774Y-38401898D01*
X72742795Y-38590256D01*
X72856063Y-38759774D01*
X73000226Y-38903937D01*
X73169744Y-39017205D01*
X73358102Y-39095226D01*
X73558061Y-39135000D01*
X73761939Y-39135000D01*
X73961898Y-39095226D01*
X74150256Y-39017205D01*
X74319774Y-38903937D01*
X74463937Y-38759774D01*
X74577205Y-38590256D01*
X74655226Y-38401898D01*
X74695000Y-38201939D01*
X74695000Y-38193261D01*
X77509800Y-38193261D01*
X77509800Y-38397139D01*
X77549574Y-38597098D01*
X77627595Y-38785456D01*
X77740863Y-38954974D01*
X77885026Y-39099137D01*
X78054544Y-39212405D01*
X78242902Y-39290426D01*
X78442861Y-39330200D01*
X78646739Y-39330200D01*
X78846698Y-39290426D01*
X79035056Y-39212405D01*
X79204574Y-39099137D01*
X79348737Y-38954974D01*
X79462005Y-38785456D01*
X79540026Y-38597098D01*
X79579800Y-38397139D01*
X79579800Y-38193261D01*
X79540026Y-37993302D01*
X79462005Y-37804944D01*
X79348737Y-37635426D01*
X79204574Y-37491263D01*
X79035056Y-37377995D01*
X78846698Y-37299974D01*
X78646739Y-37260200D01*
X78442861Y-37260200D01*
X78242902Y-37299974D01*
X78054544Y-37377995D01*
X77885026Y-37491263D01*
X77740863Y-37635426D01*
X77627595Y-37804944D01*
X77549574Y-37993302D01*
X77509800Y-38193261D01*
X74695000Y-38193261D01*
X74695000Y-37998061D01*
X74655226Y-37798102D01*
X74577205Y-37609744D01*
X74463937Y-37440226D01*
X74319774Y-37296063D01*
X74150256Y-37182795D01*
X73961898Y-37104774D01*
X73761939Y-37065000D01*
X73699802Y-37065000D01*
X71663936Y-35029135D01*
X71700405Y-34974556D01*
X71778426Y-34786198D01*
X71818200Y-34586239D01*
X71818200Y-34417000D01*
X72559970Y-34417000D01*
X72556000Y-34436961D01*
X72556000Y-34640839D01*
X72595774Y-34840798D01*
X72673795Y-35029156D01*
X72787063Y-35198674D01*
X72931226Y-35342837D01*
X73100744Y-35456105D01*
X73289102Y-35534126D01*
X73489061Y-35573900D01*
X73692939Y-35573900D01*
X73892898Y-35534126D01*
X74081256Y-35456105D01*
X74250774Y-35342837D01*
X74394937Y-35198674D01*
X74508205Y-35029156D01*
X74586226Y-34840798D01*
X74626000Y-34640839D01*
X74626000Y-34436961D01*
X74622030Y-34417000D01*
X77321828Y-34417000D01*
X77244344Y-34449095D01*
X77074826Y-34562363D01*
X76930663Y-34706526D01*
X76817395Y-34876044D01*
X76739374Y-35064402D01*
X76699600Y-35264361D01*
X76699600Y-35468239D01*
X76739374Y-35668198D01*
X76817395Y-35856556D01*
X76930663Y-36026074D01*
X77074826Y-36170237D01*
X77244344Y-36283505D01*
X77432702Y-36361526D01*
X77632661Y-36401300D01*
X77836539Y-36401300D01*
X78036498Y-36361526D01*
X78224856Y-36283505D01*
X78394374Y-36170237D01*
X78538537Y-36026074D01*
X78651805Y-35856556D01*
X78729826Y-35668198D01*
X78769600Y-35468239D01*
X78769600Y-35387361D01*
X78970000Y-35387361D01*
X78970000Y-35591239D01*
X79009774Y-35791198D01*
X79087795Y-35979556D01*
X79201063Y-36149074D01*
X79345226Y-36293237D01*
X79514744Y-36406505D01*
X79703102Y-36484526D01*
X79903061Y-36524300D01*
X80106939Y-36524300D01*
X80306898Y-36484526D01*
X80495256Y-36406505D01*
X80664774Y-36293237D01*
X80808937Y-36149074D01*
X80922205Y-35979556D01*
X81000226Y-35791198D01*
X81040000Y-35591239D01*
X81040000Y-35387361D01*
X81000226Y-35187402D01*
X80922205Y-34999044D01*
X80808937Y-34829526D01*
X80664774Y-34685363D01*
X80495256Y-34572095D01*
X80306898Y-34494074D01*
X80106939Y-34454300D01*
X79903061Y-34454300D01*
X79703102Y-34494074D01*
X79514744Y-34572095D01*
X79345226Y-34685363D01*
X79201063Y-34829526D01*
X79087795Y-34999044D01*
X79009774Y-35187402D01*
X78970000Y-35387361D01*
X78769600Y-35387361D01*
X78769600Y-35264361D01*
X78729826Y-35064402D01*
X78651805Y-34876044D01*
X78538537Y-34706526D01*
X78394374Y-34562363D01*
X78224856Y-34449095D01*
X78147372Y-34417000D01*
X82423000Y-34417000D01*
X82423000Y-53348960D01*
X82412000Y-53404261D01*
X82412000Y-53608139D01*
X82423000Y-53663440D01*
X82423000Y-67533400D01*
X82341357Y-67533400D01*
X82379500Y-67341639D01*
X82379500Y-67137761D01*
X82339726Y-66937802D01*
X82261705Y-66749444D01*
X82148437Y-66579926D01*
X82041811Y-66473300D01*
X82154837Y-66360274D01*
X82268105Y-66190756D01*
X82346126Y-66002398D01*
X82385900Y-65802439D01*
X82385900Y-65598561D01*
X82346126Y-65398602D01*
X82268105Y-65210244D01*
X82154837Y-65040726D01*
X82010674Y-64896563D01*
X81841156Y-64783295D01*
X81652798Y-64705274D01*
X81452839Y-64665500D01*
X81248961Y-64665500D01*
X81049002Y-64705274D01*
X80860644Y-64783295D01*
X80691126Y-64896563D01*
X80546963Y-65040726D01*
X80433695Y-65210244D01*
X80355674Y-65398602D01*
X80315900Y-65598561D01*
X80315900Y-65660698D01*
X79589299Y-66387300D01*
X76965220Y-66387300D01*
X76984026Y-66341898D01*
X77023800Y-66141939D01*
X77023800Y-65938061D01*
X76984026Y-65738102D01*
X76906005Y-65549744D01*
X76792737Y-65380226D01*
X76648574Y-65236063D01*
X76479056Y-65122795D01*
X76290698Y-65044774D01*
X76090739Y-65005000D01*
X75886861Y-65005000D01*
X75686902Y-65044774D01*
X75498544Y-65122795D01*
X75329026Y-65236063D01*
X75184863Y-65380226D01*
X75071595Y-65549744D01*
X74993574Y-65738102D01*
X74953800Y-65938061D01*
X74953800Y-66141939D01*
X74993574Y-66341898D01*
X75012380Y-66387300D01*
X70050025Y-66387300D01*
X70012700Y-66383624D01*
X69975375Y-66387300D01*
X69975367Y-66387300D01*
X69863714Y-66398297D01*
X69720453Y-66441754D01*
X69588424Y-66512326D01*
X69472699Y-66607299D01*
X69448901Y-66636297D01*
X68540199Y-67545000D01*
X68478061Y-67545000D01*
X68278102Y-67584774D01*
X68089744Y-67662795D01*
X67920226Y-67776063D01*
X67776063Y-67920226D01*
X67662795Y-68089744D01*
X67584774Y-68278102D01*
X67545000Y-68478061D01*
X67545000Y-68545400D01*
X64535000Y-68545400D01*
X64535000Y-68478061D01*
X64495226Y-68278102D01*
X64417205Y-68089744D01*
X64303937Y-67920226D01*
X64159774Y-67776063D01*
X63990256Y-67662795D01*
X63801898Y-67584774D01*
X63601939Y-67545000D01*
X63398061Y-67545000D01*
X63198102Y-67584774D01*
X63009744Y-67662795D01*
X62840226Y-67776063D01*
X62696063Y-67920226D01*
X62582795Y-68089744D01*
X62504774Y-68278102D01*
X62465000Y-68478061D01*
X62465000Y-68545400D01*
X59460202Y-68545400D01*
X59455000Y-68540198D01*
X59455000Y-68478061D01*
X59415226Y-68278102D01*
X59337205Y-68089744D01*
X59223937Y-67920226D01*
X59079774Y-67776063D01*
X58910256Y-67662795D01*
X58721898Y-67584774D01*
X58521939Y-67545000D01*
X58318061Y-67545000D01*
X58118102Y-67584774D01*
X57929744Y-67662795D01*
X57760226Y-67776063D01*
X57616063Y-67920226D01*
X57502795Y-68089744D01*
X57424774Y-68278102D01*
X57385000Y-68478061D01*
X57385000Y-68681939D01*
X57424774Y-68881898D01*
X57502795Y-69070256D01*
X57616063Y-69239774D01*
X57760226Y-69383937D01*
X57929744Y-69497205D01*
X58118102Y-69575226D01*
X58318061Y-69615000D01*
X58380198Y-69615000D01*
X58581601Y-69816402D01*
X58605399Y-69845401D01*
X58634397Y-69869199D01*
X58675462Y-69902900D01*
X55737703Y-69902900D01*
X54375000Y-68540199D01*
X54375000Y-68478061D01*
X54335226Y-68278102D01*
X54257205Y-68089744D01*
X54143937Y-67920226D01*
X53999774Y-67776063D01*
X53830256Y-67662795D01*
X53641898Y-67584774D01*
X53441939Y-67545000D01*
X53238061Y-67545000D01*
X53038102Y-67584774D01*
X52849744Y-67662795D01*
X52680226Y-67776063D01*
X52536063Y-67920226D01*
X52422795Y-68089744D01*
X52344774Y-68278102D01*
X52305000Y-68478061D01*
X52305000Y-68681939D01*
X52344774Y-68881898D01*
X52422795Y-69070256D01*
X52536063Y-69239774D01*
X52680226Y-69383937D01*
X52849744Y-69497205D01*
X53038102Y-69575226D01*
X53238061Y-69615000D01*
X53300199Y-69615000D01*
X54859105Y-71173908D01*
X54882899Y-71202901D01*
X54911892Y-71226695D01*
X54911896Y-71226699D01*
X54982585Y-71284711D01*
X54998624Y-71297874D01*
X55130653Y-71368446D01*
X55273914Y-71411903D01*
X55385567Y-71422900D01*
X55385576Y-71422900D01*
X55422899Y-71426576D01*
X55460222Y-71422900D01*
X80776827Y-71422900D01*
X80719374Y-71561602D01*
X80679600Y-71761561D01*
X80679600Y-71965439D01*
X80719374Y-72165398D01*
X80797395Y-72353756D01*
X80910663Y-72523274D01*
X81054826Y-72667437D01*
X81224344Y-72780705D01*
X81412702Y-72858726D01*
X81612661Y-72898500D01*
X81816539Y-72898500D01*
X82016498Y-72858726D01*
X82204856Y-72780705D01*
X82374374Y-72667437D01*
X82423000Y-72618811D01*
X82423000Y-77343000D01*
X70100978Y-77343000D01*
X70088626Y-77280902D01*
X70081393Y-77263439D01*
X70163202Y-77297326D01*
X70363161Y-77337100D01*
X70567039Y-77337100D01*
X70766998Y-77297326D01*
X70955356Y-77219305D01*
X71124874Y-77106037D01*
X71269037Y-76961874D01*
X71382305Y-76792356D01*
X71460326Y-76603998D01*
X71500100Y-76404039D01*
X71500100Y-76200161D01*
X71460326Y-76000202D01*
X71382305Y-75811844D01*
X71269037Y-75642326D01*
X71124874Y-75498163D01*
X70955356Y-75384895D01*
X70766998Y-75306874D01*
X70567039Y-75267100D01*
X70363161Y-75267100D01*
X70163202Y-75306874D01*
X69974844Y-75384895D01*
X69805326Y-75498163D01*
X69758228Y-75545261D01*
X69591198Y-75476074D01*
X69391239Y-75436300D01*
X69187361Y-75436300D01*
X68987402Y-75476074D01*
X68799044Y-75554095D01*
X68629526Y-75667363D01*
X68485363Y-75811526D01*
X68372095Y-75981044D01*
X68294074Y-76169402D01*
X68254300Y-76369361D01*
X68254300Y-76573239D01*
X68294074Y-76773198D01*
X68314620Y-76822800D01*
X68014828Y-76822800D01*
X68014900Y-76822439D01*
X68014900Y-76618561D01*
X67975126Y-76418602D01*
X67897105Y-76230244D01*
X67783837Y-76060726D01*
X67639674Y-75916563D01*
X67470156Y-75803295D01*
X67281798Y-75725274D01*
X67081839Y-75685500D01*
X66917974Y-75685500D01*
X66869405Y-75568244D01*
X66756137Y-75398726D01*
X66611974Y-75254563D01*
X66442456Y-75141295D01*
X66254098Y-75063274D01*
X66054139Y-75023500D01*
X65850261Y-75023500D01*
X65650302Y-75063274D01*
X65461944Y-75141295D01*
X65292426Y-75254563D01*
X65221168Y-75325821D01*
X65112898Y-75280974D01*
X64912939Y-75241200D01*
X64709061Y-75241200D01*
X64509102Y-75280974D01*
X64320744Y-75358995D01*
X64151226Y-75472263D01*
X64007063Y-75616426D01*
X63893795Y-75785944D01*
X63815774Y-75974302D01*
X63776000Y-76174261D01*
X63776000Y-76378139D01*
X63815774Y-76578098D01*
X63893795Y-76766456D01*
X63931443Y-76822800D01*
X63806725Y-76822800D01*
X63769400Y-76819124D01*
X63732075Y-76822800D01*
X63732067Y-76822800D01*
X63620414Y-76833797D01*
X63477153Y-76877254D01*
X63441058Y-76896547D01*
X63363374Y-76818863D01*
X63193856Y-76705595D01*
X63005498Y-76627574D01*
X62805539Y-76587800D01*
X62601661Y-76587800D01*
X62401702Y-76627574D01*
X62213344Y-76705595D01*
X62043826Y-76818863D01*
X61899663Y-76963026D01*
X61786395Y-77132544D01*
X61760566Y-77194900D01*
X60480102Y-77194900D01*
X60273606Y-76988405D01*
X60330337Y-76931674D01*
X60443605Y-76762156D01*
X60521626Y-76573798D01*
X60561400Y-76373839D01*
X60561400Y-76169961D01*
X60521626Y-75970002D01*
X60443605Y-75781644D01*
X60330337Y-75612126D01*
X60186174Y-75467963D01*
X60016656Y-75354695D01*
X59828298Y-75276674D01*
X59628339Y-75236900D01*
X59424461Y-75236900D01*
X59224502Y-75276674D01*
X59036144Y-75354695D01*
X58938165Y-75420163D01*
X58186915Y-74668914D01*
X58318061Y-74695000D01*
X58521939Y-74695000D01*
X58721898Y-74655226D01*
X58910256Y-74577205D01*
X59079774Y-74463937D01*
X59223937Y-74319774D01*
X59337205Y-74150256D01*
X59415226Y-73961898D01*
X59455000Y-73761939D01*
X59455000Y-73558061D01*
X62465000Y-73558061D01*
X62465000Y-73761939D01*
X62504774Y-73961898D01*
X62582795Y-74150256D01*
X62696063Y-74319774D01*
X62840226Y-74463937D01*
X63009744Y-74577205D01*
X63198102Y-74655226D01*
X63398061Y-74695000D01*
X63601939Y-74695000D01*
X63801898Y-74655226D01*
X63990256Y-74577205D01*
X64159774Y-74463937D01*
X64303937Y-74319774D01*
X64417205Y-74150256D01*
X64495226Y-73961898D01*
X64535000Y-73761939D01*
X64535000Y-73558061D01*
X67545000Y-73558061D01*
X67545000Y-73761939D01*
X67584774Y-73961898D01*
X67662795Y-74150256D01*
X67776063Y-74319774D01*
X67920226Y-74463937D01*
X68089744Y-74577205D01*
X68278102Y-74655226D01*
X68478061Y-74695000D01*
X68681939Y-74695000D01*
X68881898Y-74655226D01*
X69070256Y-74577205D01*
X69239774Y-74463937D01*
X69383937Y-74319774D01*
X69497205Y-74150256D01*
X69575226Y-73961898D01*
X69615000Y-73761939D01*
X69615000Y-73558061D01*
X72625000Y-73558061D01*
X72625000Y-73761939D01*
X72664774Y-73961898D01*
X72742795Y-74150256D01*
X72856063Y-74319774D01*
X73000226Y-74463937D01*
X73169744Y-74577205D01*
X73358102Y-74655226D01*
X73558061Y-74695000D01*
X73761939Y-74695000D01*
X73961898Y-74655226D01*
X74150256Y-74577205D01*
X74319774Y-74463937D01*
X74463937Y-74319774D01*
X74577205Y-74150256D01*
X74655226Y-73961898D01*
X74695000Y-73761939D01*
X74695000Y-73558061D01*
X77705000Y-73558061D01*
X77705000Y-73761939D01*
X77744774Y-73961898D01*
X77822795Y-74150256D01*
X77936063Y-74319774D01*
X78080226Y-74463937D01*
X78249744Y-74577205D01*
X78438102Y-74655226D01*
X78638061Y-74695000D01*
X78841939Y-74695000D01*
X79041898Y-74655226D01*
X79230256Y-74577205D01*
X79399774Y-74463937D01*
X79543937Y-74319774D01*
X79657205Y-74150256D01*
X79735226Y-73961898D01*
X79775000Y-73761939D01*
X79775000Y-73558061D01*
X79735226Y-73358102D01*
X79657205Y-73169744D01*
X79543937Y-73000226D01*
X79399774Y-72856063D01*
X79230256Y-72742795D01*
X79041898Y-72664774D01*
X78841939Y-72625000D01*
X78638061Y-72625000D01*
X78438102Y-72664774D01*
X78249744Y-72742795D01*
X78080226Y-72856063D01*
X77936063Y-73000226D01*
X77822795Y-73169744D01*
X77744774Y-73358102D01*
X77705000Y-73558061D01*
X74695000Y-73558061D01*
X74655226Y-73358102D01*
X74577205Y-73169744D01*
X74463937Y-73000226D01*
X74319774Y-72856063D01*
X74150256Y-72742795D01*
X73961898Y-72664774D01*
X73761939Y-72625000D01*
X73558061Y-72625000D01*
X73358102Y-72664774D01*
X73169744Y-72742795D01*
X73000226Y-72856063D01*
X72856063Y-73000226D01*
X72742795Y-73169744D01*
X72664774Y-73358102D01*
X72625000Y-73558061D01*
X69615000Y-73558061D01*
X69575226Y-73358102D01*
X69497205Y-73169744D01*
X69383937Y-73000226D01*
X69239774Y-72856063D01*
X69070256Y-72742795D01*
X68881898Y-72664774D01*
X68681939Y-72625000D01*
X68478061Y-72625000D01*
X68278102Y-72664774D01*
X68089744Y-72742795D01*
X67920226Y-72856063D01*
X67776063Y-73000226D01*
X67662795Y-73169744D01*
X67584774Y-73358102D01*
X67545000Y-73558061D01*
X64535000Y-73558061D01*
X64495226Y-73358102D01*
X64417205Y-73169744D01*
X64303937Y-73000226D01*
X64159774Y-72856063D01*
X63990256Y-72742795D01*
X63801898Y-72664774D01*
X63601939Y-72625000D01*
X63398061Y-72625000D01*
X63198102Y-72664774D01*
X63009744Y-72742795D01*
X62840226Y-72856063D01*
X62696063Y-73000226D01*
X62582795Y-73169744D01*
X62504774Y-73358102D01*
X62465000Y-73558061D01*
X59455000Y-73558061D01*
X59415226Y-73358102D01*
X59337205Y-73169744D01*
X59223937Y-73000226D01*
X59079774Y-72856063D01*
X58910256Y-72742795D01*
X58721898Y-72664774D01*
X58521939Y-72625000D01*
X58318061Y-72625000D01*
X58118102Y-72664774D01*
X57929744Y-72742795D01*
X57760226Y-72856063D01*
X57616063Y-73000226D01*
X57502795Y-73169744D01*
X57424774Y-73358102D01*
X57385000Y-73558061D01*
X57385000Y-73761939D01*
X57411086Y-73893085D01*
X56667004Y-73149003D01*
X56643201Y-73119999D01*
X56527476Y-73025026D01*
X56395447Y-72954454D01*
X56252186Y-72910997D01*
X56140533Y-72900000D01*
X56140522Y-72900000D01*
X56103200Y-72896324D01*
X56065878Y-72900000D01*
X54043711Y-72900000D01*
X53999774Y-72856063D01*
X53830256Y-72742795D01*
X53641898Y-72664774D01*
X53441939Y-72625000D01*
X53238061Y-72625000D01*
X53038102Y-72664774D01*
X52849744Y-72742795D01*
X52680226Y-72856063D01*
X52536063Y-73000226D01*
X52422795Y-73169744D01*
X52344774Y-73358102D01*
X52305000Y-73558061D01*
X52305000Y-73761939D01*
X52344774Y-73961898D01*
X52422795Y-74150256D01*
X52536063Y-74319774D01*
X52680226Y-74463937D01*
X52849744Y-74577205D01*
X53038102Y-74655226D01*
X53238061Y-74695000D01*
X53441939Y-74695000D01*
X53641898Y-74655226D01*
X53830256Y-74577205D01*
X53999774Y-74463937D01*
X54043711Y-74420000D01*
X55788399Y-74420000D01*
X56624599Y-75256200D01*
X56580761Y-75256200D01*
X56380802Y-75295974D01*
X56192444Y-75373995D01*
X56163122Y-75393587D01*
X55984198Y-75319474D01*
X55784239Y-75279700D01*
X55580361Y-75279700D01*
X55380402Y-75319474D01*
X55204342Y-75392401D01*
X55172156Y-75370895D01*
X54983798Y-75292874D01*
X54783839Y-75253100D01*
X54579961Y-75253100D01*
X54380002Y-75292874D01*
X54191644Y-75370895D01*
X54181401Y-75377739D01*
X54171756Y-75371295D01*
X53983398Y-75293274D01*
X53783439Y-75253500D01*
X53579561Y-75253500D01*
X53379602Y-75293274D01*
X53191244Y-75371295D01*
X53021726Y-75484563D01*
X52877563Y-75628726D01*
X52764295Y-75798244D01*
X52686274Y-75986602D01*
X52646500Y-76186561D01*
X52646500Y-76390439D01*
X52686274Y-76590398D01*
X52764295Y-76778756D01*
X52877563Y-76948274D01*
X53021726Y-77092437D01*
X53191244Y-77205705D01*
X53379602Y-77283726D01*
X53579561Y-77323500D01*
X53783439Y-77323500D01*
X53983398Y-77283726D01*
X54171756Y-77205705D01*
X54181999Y-77198861D01*
X54191644Y-77205305D01*
X54380002Y-77283326D01*
X54579961Y-77323100D01*
X54783839Y-77323100D01*
X54983798Y-77283326D01*
X55159858Y-77210399D01*
X55192044Y-77231905D01*
X55380402Y-77309926D01*
X55546678Y-77343000D01*
X39497000Y-77343000D01*
X39497000Y-76189361D01*
X49131100Y-76189361D01*
X49131100Y-76393239D01*
X49170874Y-76593198D01*
X49248895Y-76781556D01*
X49362163Y-76951074D01*
X49506326Y-77095237D01*
X49675844Y-77208505D01*
X49864202Y-77286526D01*
X50064161Y-77326300D01*
X50268039Y-77326300D01*
X50467998Y-77286526D01*
X50656356Y-77208505D01*
X50825874Y-77095237D01*
X50970037Y-76951074D01*
X51083305Y-76781556D01*
X51161326Y-76593198D01*
X51201100Y-76393239D01*
X51201100Y-76189361D01*
X51161326Y-75989402D01*
X51083305Y-75801044D01*
X50970037Y-75631526D01*
X50825874Y-75487363D01*
X50656356Y-75374095D01*
X50467998Y-75296074D01*
X50268039Y-75256300D01*
X50064161Y-75256300D01*
X49864202Y-75296074D01*
X49675844Y-75374095D01*
X49506326Y-75487363D01*
X49362163Y-75631526D01*
X49248895Y-75801044D01*
X49170874Y-75989402D01*
X49131100Y-76189361D01*
X39497000Y-76189361D01*
X39497000Y-73558061D01*
X42145000Y-73558061D01*
X42145000Y-73761939D01*
X42184774Y-73961898D01*
X42262795Y-74150256D01*
X42376063Y-74319774D01*
X42520226Y-74463937D01*
X42689744Y-74577205D01*
X42878102Y-74655226D01*
X43078061Y-74695000D01*
X43281939Y-74695000D01*
X43481898Y-74655226D01*
X43670256Y-74577205D01*
X43839774Y-74463937D01*
X43983937Y-74319774D01*
X44097205Y-74150256D01*
X44175226Y-73961898D01*
X44215000Y-73761939D01*
X44215000Y-73558061D01*
X47225000Y-73558061D01*
X47225000Y-73761939D01*
X47264774Y-73961898D01*
X47342795Y-74150256D01*
X47456063Y-74319774D01*
X47600226Y-74463937D01*
X47769744Y-74577205D01*
X47958102Y-74655226D01*
X48158061Y-74695000D01*
X48361939Y-74695000D01*
X48561898Y-74655226D01*
X48750256Y-74577205D01*
X48919774Y-74463937D01*
X49063937Y-74319774D01*
X49177205Y-74150256D01*
X49255226Y-73961898D01*
X49295000Y-73761939D01*
X49295000Y-73558061D01*
X49255226Y-73358102D01*
X49177205Y-73169744D01*
X49063937Y-73000226D01*
X48919774Y-72856063D01*
X48750256Y-72742795D01*
X48561898Y-72664774D01*
X48361939Y-72625000D01*
X48158061Y-72625000D01*
X47958102Y-72664774D01*
X47769744Y-72742795D01*
X47600226Y-72856063D01*
X47456063Y-73000226D01*
X47342795Y-73169744D01*
X47264774Y-73358102D01*
X47225000Y-73558061D01*
X44215000Y-73558061D01*
X44175226Y-73358102D01*
X44097205Y-73169744D01*
X43983937Y-73000226D01*
X43839774Y-72856063D01*
X43670256Y-72742795D01*
X43481898Y-72664774D01*
X43281939Y-72625000D01*
X43078061Y-72625000D01*
X42878102Y-72664774D01*
X42689744Y-72742795D01*
X42520226Y-72856063D01*
X42376063Y-73000226D01*
X42262795Y-73169744D01*
X42184774Y-73358102D01*
X42145000Y-73558061D01*
X39497000Y-73558061D01*
X39497000Y-68478061D01*
X42145000Y-68478061D01*
X42145000Y-68681939D01*
X42184774Y-68881898D01*
X42262795Y-69070256D01*
X42376063Y-69239774D01*
X42520226Y-69383937D01*
X42689744Y-69497205D01*
X42878102Y-69575226D01*
X43078061Y-69615000D01*
X43281939Y-69615000D01*
X43481898Y-69575226D01*
X43670256Y-69497205D01*
X43839774Y-69383937D01*
X43983937Y-69239774D01*
X44097205Y-69070256D01*
X44175226Y-68881898D01*
X44215000Y-68681939D01*
X44215000Y-68478061D01*
X47225000Y-68478061D01*
X47225000Y-68681939D01*
X47264774Y-68881898D01*
X47342795Y-69070256D01*
X47456063Y-69239774D01*
X47600226Y-69383937D01*
X47769744Y-69497205D01*
X47958102Y-69575226D01*
X48158061Y-69615000D01*
X48361939Y-69615000D01*
X48561898Y-69575226D01*
X48750256Y-69497205D01*
X48919774Y-69383937D01*
X49063937Y-69239774D01*
X49177205Y-69070256D01*
X49255226Y-68881898D01*
X49295000Y-68681939D01*
X49295000Y-68478061D01*
X49255226Y-68278102D01*
X49177205Y-68089744D01*
X49063937Y-67920226D01*
X48919774Y-67776063D01*
X48750256Y-67662795D01*
X48561898Y-67584774D01*
X48361939Y-67545000D01*
X48158061Y-67545000D01*
X47958102Y-67584774D01*
X47769744Y-67662795D01*
X47600226Y-67776063D01*
X47456063Y-67920226D01*
X47342795Y-68089744D01*
X47264774Y-68278102D01*
X47225000Y-68478061D01*
X44215000Y-68478061D01*
X44175226Y-68278102D01*
X44097205Y-68089744D01*
X43983937Y-67920226D01*
X43839774Y-67776063D01*
X43670256Y-67662795D01*
X43481898Y-67584774D01*
X43281939Y-67545000D01*
X43078061Y-67545000D01*
X42878102Y-67584774D01*
X42689744Y-67662795D01*
X42520226Y-67776063D01*
X42376063Y-67920226D01*
X42262795Y-68089744D01*
X42184774Y-68278102D01*
X42145000Y-68478061D01*
X39497000Y-68478061D01*
X39497000Y-65718481D01*
X39515744Y-65731005D01*
X39517600Y-65731774D01*
X39517600Y-65812539D01*
X39557374Y-66012498D01*
X39635395Y-66200856D01*
X39748663Y-66370374D01*
X39892826Y-66514537D01*
X40062344Y-66627805D01*
X40250702Y-66705826D01*
X40450661Y-66745600D01*
X40654539Y-66745600D01*
X40854498Y-66705826D01*
X41042856Y-66627805D01*
X41212374Y-66514537D01*
X41356537Y-66370374D01*
X41469805Y-66200856D01*
X41521290Y-66076561D01*
X44748800Y-66076561D01*
X44748800Y-66280439D01*
X44788574Y-66480398D01*
X44866595Y-66668756D01*
X44979863Y-66838274D01*
X45124026Y-66982437D01*
X45293544Y-67095705D01*
X45481902Y-67173726D01*
X45681861Y-67213500D01*
X45885739Y-67213500D01*
X46085698Y-67173726D01*
X46274056Y-67095705D01*
X46443574Y-66982437D01*
X46587737Y-66838274D01*
X46701005Y-66668756D01*
X46779026Y-66480398D01*
X46818800Y-66280439D01*
X46818800Y-66076561D01*
X46811423Y-66039471D01*
X49857090Y-66039471D01*
X49857090Y-66243349D01*
X49896864Y-66443308D01*
X49974885Y-66631666D01*
X50088153Y-66801184D01*
X50232316Y-66945347D01*
X50401834Y-67058615D01*
X50590192Y-67136636D01*
X50790151Y-67176410D01*
X50994029Y-67176410D01*
X51193988Y-67136636D01*
X51382346Y-67058615D01*
X51551864Y-66945347D01*
X51696027Y-66801184D01*
X51809295Y-66631666D01*
X51887316Y-66443308D01*
X51927090Y-66243349D01*
X51927090Y-66039471D01*
X51906919Y-65938061D01*
X64805200Y-65938061D01*
X64805200Y-66141939D01*
X64844974Y-66341898D01*
X64922995Y-66530256D01*
X65036263Y-66699774D01*
X65180426Y-66843937D01*
X65349944Y-66957205D01*
X65538302Y-67035226D01*
X65738261Y-67075000D01*
X65942139Y-67075000D01*
X66142098Y-67035226D01*
X66330456Y-66957205D01*
X66499974Y-66843937D01*
X66644137Y-66699774D01*
X66757405Y-66530256D01*
X66835426Y-66341898D01*
X66875200Y-66141939D01*
X66875200Y-65938061D01*
X66835426Y-65738102D01*
X66757405Y-65549744D01*
X66644137Y-65380226D01*
X66499974Y-65236063D01*
X66330456Y-65122795D01*
X66142098Y-65044774D01*
X65942139Y-65005000D01*
X65738261Y-65005000D01*
X65538302Y-65044774D01*
X65349944Y-65122795D01*
X65180426Y-65236063D01*
X65036263Y-65380226D01*
X64922995Y-65549744D01*
X64844974Y-65738102D01*
X64805200Y-65938061D01*
X51906919Y-65938061D01*
X51887316Y-65839512D01*
X51809295Y-65651154D01*
X51696027Y-65481636D01*
X51551864Y-65337473D01*
X51382346Y-65224205D01*
X51193988Y-65146184D01*
X50994029Y-65106410D01*
X50790151Y-65106410D01*
X50590192Y-65146184D01*
X50401834Y-65224205D01*
X50232316Y-65337473D01*
X50088153Y-65481636D01*
X49974885Y-65651154D01*
X49896864Y-65839512D01*
X49857090Y-66039471D01*
X46811423Y-66039471D01*
X46779026Y-65876602D01*
X46701005Y-65688244D01*
X46587737Y-65518726D01*
X46443574Y-65374563D01*
X46274056Y-65261295D01*
X46085698Y-65183274D01*
X45885739Y-65143500D01*
X45681861Y-65143500D01*
X45481902Y-65183274D01*
X45293544Y-65261295D01*
X45124026Y-65374563D01*
X44979863Y-65518726D01*
X44866595Y-65688244D01*
X44788574Y-65876602D01*
X44748800Y-66076561D01*
X41521290Y-66076561D01*
X41547826Y-66012498D01*
X41587600Y-65812539D01*
X41587600Y-65608661D01*
X41547826Y-65408702D01*
X41469805Y-65220344D01*
X41356537Y-65050826D01*
X41212374Y-64906663D01*
X41042856Y-64793395D01*
X41041000Y-64792626D01*
X41041000Y-64711861D01*
X41001226Y-64511902D01*
X40923205Y-64323544D01*
X40915035Y-64311316D01*
X41026356Y-64265205D01*
X41195874Y-64151937D01*
X41340037Y-64007774D01*
X41453305Y-63838256D01*
X41531326Y-63649898D01*
X41571100Y-63449939D01*
X41571100Y-63398061D01*
X42145000Y-63398061D01*
X42145000Y-63601939D01*
X42184774Y-63801898D01*
X42262795Y-63990256D01*
X42376063Y-64159774D01*
X42520226Y-64303937D01*
X42689744Y-64417205D01*
X42878102Y-64495226D01*
X43078061Y-64535000D01*
X43281939Y-64535000D01*
X43481898Y-64495226D01*
X43670256Y-64417205D01*
X43839774Y-64303937D01*
X43983937Y-64159774D01*
X44097205Y-63990256D01*
X44175226Y-63801898D01*
X44215000Y-63601939D01*
X44215000Y-63398061D01*
X47225000Y-63398061D01*
X47225000Y-63601939D01*
X47264774Y-63801898D01*
X47342795Y-63990256D01*
X47456063Y-64159774D01*
X47600226Y-64303937D01*
X47769744Y-64417205D01*
X47958102Y-64495226D01*
X48158061Y-64535000D01*
X48361939Y-64535000D01*
X48561898Y-64495226D01*
X48750256Y-64417205D01*
X48919774Y-64303937D01*
X49063937Y-64159774D01*
X49177205Y-63990256D01*
X49255226Y-63801898D01*
X49295000Y-63601939D01*
X49295000Y-63398061D01*
X52305000Y-63398061D01*
X52305000Y-63601939D01*
X52344774Y-63801898D01*
X52422795Y-63990256D01*
X52536063Y-64159774D01*
X52680226Y-64303937D01*
X52849744Y-64417205D01*
X53038102Y-64495226D01*
X53238061Y-64535000D01*
X53441939Y-64535000D01*
X53641898Y-64495226D01*
X53830256Y-64417205D01*
X53999774Y-64303937D01*
X54143937Y-64159774D01*
X54257205Y-63990256D01*
X54335226Y-63801898D01*
X54375000Y-63601939D01*
X54375000Y-63398061D01*
X57385000Y-63398061D01*
X57385000Y-63601939D01*
X57424774Y-63801898D01*
X57502795Y-63990256D01*
X57616063Y-64159774D01*
X57760226Y-64303937D01*
X57929744Y-64417205D01*
X58118102Y-64495226D01*
X58318061Y-64535000D01*
X58521939Y-64535000D01*
X58721898Y-64495226D01*
X58910256Y-64417205D01*
X59079774Y-64303937D01*
X59223937Y-64159774D01*
X59337205Y-63990256D01*
X59372711Y-63904537D01*
X62996376Y-63904537D01*
X62996376Y-64108415D01*
X63036150Y-64308374D01*
X63114171Y-64496732D01*
X63227439Y-64666250D01*
X63371602Y-64810413D01*
X63541120Y-64923681D01*
X63729478Y-65001702D01*
X63929437Y-65041476D01*
X64133315Y-65041476D01*
X64333274Y-65001702D01*
X64521632Y-64923681D01*
X64691150Y-64810413D01*
X64835313Y-64666250D01*
X64948581Y-64496732D01*
X65026602Y-64308374D01*
X65066376Y-64108415D01*
X65066376Y-63904537D01*
X65026602Y-63704578D01*
X64948581Y-63516220D01*
X64869630Y-63398061D01*
X67545000Y-63398061D01*
X67545000Y-63601939D01*
X67584774Y-63801898D01*
X67662795Y-63990256D01*
X67776063Y-64159774D01*
X67920226Y-64303937D01*
X68089744Y-64417205D01*
X68278102Y-64495226D01*
X68478061Y-64535000D01*
X68681939Y-64535000D01*
X68881898Y-64495226D01*
X69070256Y-64417205D01*
X69239774Y-64303937D01*
X69383937Y-64159774D01*
X69497205Y-63990256D01*
X69575226Y-63801898D01*
X69615000Y-63601939D01*
X69615000Y-63398061D01*
X72625000Y-63398061D01*
X72625000Y-63601939D01*
X72664774Y-63801898D01*
X72742795Y-63990256D01*
X72856063Y-64159774D01*
X73000226Y-64303937D01*
X73169744Y-64417205D01*
X73358102Y-64495226D01*
X73558061Y-64535000D01*
X73761939Y-64535000D01*
X73961898Y-64495226D01*
X74150256Y-64417205D01*
X74319774Y-64303937D01*
X74463937Y-64159774D01*
X74577205Y-63990256D01*
X74655226Y-63801898D01*
X74695000Y-63601939D01*
X74695000Y-63398061D01*
X77705000Y-63398061D01*
X77705000Y-63601939D01*
X77744774Y-63801898D01*
X77822795Y-63990256D01*
X77936063Y-64159774D01*
X78080226Y-64303937D01*
X78249744Y-64417205D01*
X78438102Y-64495226D01*
X78638061Y-64535000D01*
X78841939Y-64535000D01*
X79041898Y-64495226D01*
X79230256Y-64417205D01*
X79399774Y-64303937D01*
X79543937Y-64159774D01*
X79657205Y-63990256D01*
X79735226Y-63801898D01*
X79775000Y-63601939D01*
X79775000Y-63398061D01*
X79735226Y-63198102D01*
X79657205Y-63009744D01*
X79543937Y-62840226D01*
X79399774Y-62696063D01*
X79230256Y-62582795D01*
X79041898Y-62504774D01*
X78841939Y-62465000D01*
X78638061Y-62465000D01*
X78438102Y-62504774D01*
X78249744Y-62582795D01*
X78080226Y-62696063D01*
X77936063Y-62840226D01*
X77822795Y-63009744D01*
X77744774Y-63198102D01*
X77705000Y-63398061D01*
X74695000Y-63398061D01*
X74655226Y-63198102D01*
X74577205Y-63009744D01*
X74463937Y-62840226D01*
X74319774Y-62696063D01*
X74150256Y-62582795D01*
X73961898Y-62504774D01*
X73761939Y-62465000D01*
X73558061Y-62465000D01*
X73358102Y-62504774D01*
X73169744Y-62582795D01*
X73000226Y-62696063D01*
X72856063Y-62840226D01*
X72742795Y-63009744D01*
X72664774Y-63198102D01*
X72625000Y-63398061D01*
X69615000Y-63398061D01*
X69575226Y-63198102D01*
X69497205Y-63009744D01*
X69383937Y-62840226D01*
X69239774Y-62696063D01*
X69070256Y-62582795D01*
X68881898Y-62504774D01*
X68681939Y-62465000D01*
X68478061Y-62465000D01*
X68278102Y-62504774D01*
X68089744Y-62582795D01*
X67920226Y-62696063D01*
X67776063Y-62840226D01*
X67662795Y-63009744D01*
X67584774Y-63198102D01*
X67545000Y-63398061D01*
X64869630Y-63398061D01*
X64835313Y-63346702D01*
X64691150Y-63202539D01*
X64521632Y-63089271D01*
X64333274Y-63011250D01*
X64133315Y-62971476D01*
X63929437Y-62971476D01*
X63729478Y-63011250D01*
X63541120Y-63089271D01*
X63371602Y-63202539D01*
X63227439Y-63346702D01*
X63114171Y-63516220D01*
X63036150Y-63704578D01*
X62996376Y-63904537D01*
X59372711Y-63904537D01*
X59415226Y-63801898D01*
X59455000Y-63601939D01*
X59455000Y-63398061D01*
X59415226Y-63198102D01*
X59337205Y-63009744D01*
X59223937Y-62840226D01*
X59079774Y-62696063D01*
X58910256Y-62582795D01*
X58721898Y-62504774D01*
X58521939Y-62465000D01*
X58318061Y-62465000D01*
X58118102Y-62504774D01*
X57929744Y-62582795D01*
X57760226Y-62696063D01*
X57616063Y-62840226D01*
X57502795Y-63009744D01*
X57424774Y-63198102D01*
X57385000Y-63398061D01*
X54375000Y-63398061D01*
X54335226Y-63198102D01*
X54257205Y-63009744D01*
X54143937Y-62840226D01*
X53999774Y-62696063D01*
X53830256Y-62582795D01*
X53641898Y-62504774D01*
X53441939Y-62465000D01*
X53238061Y-62465000D01*
X53038102Y-62504774D01*
X52849744Y-62582795D01*
X52680226Y-62696063D01*
X52536063Y-62840226D01*
X52422795Y-63009744D01*
X52344774Y-63198102D01*
X52305000Y-63398061D01*
X49295000Y-63398061D01*
X49255226Y-63198102D01*
X49177205Y-63009744D01*
X49063937Y-62840226D01*
X48919774Y-62696063D01*
X48750256Y-62582795D01*
X48561898Y-62504774D01*
X48361939Y-62465000D01*
X48158061Y-62465000D01*
X47958102Y-62504774D01*
X47769744Y-62582795D01*
X47600226Y-62696063D01*
X47456063Y-62840226D01*
X47342795Y-63009744D01*
X47264774Y-63198102D01*
X47225000Y-63398061D01*
X44215000Y-63398061D01*
X44175226Y-63198102D01*
X44097205Y-63009744D01*
X43983937Y-62840226D01*
X43839774Y-62696063D01*
X43670256Y-62582795D01*
X43481898Y-62504774D01*
X43281939Y-62465000D01*
X43078061Y-62465000D01*
X42878102Y-62504774D01*
X42689744Y-62582795D01*
X42520226Y-62696063D01*
X42376063Y-62840226D01*
X42262795Y-63009744D01*
X42184774Y-63198102D01*
X42145000Y-63398061D01*
X41571100Y-63398061D01*
X41571100Y-63246061D01*
X41531326Y-63046102D01*
X41453305Y-62857744D01*
X41340037Y-62688226D01*
X41195874Y-62544063D01*
X41026356Y-62430795D01*
X40837998Y-62352774D01*
X40638039Y-62313000D01*
X40434161Y-62313000D01*
X40234202Y-62352774D01*
X40045844Y-62430795D01*
X39876326Y-62544063D01*
X39732163Y-62688226D01*
X39618895Y-62857744D01*
X39540874Y-63046102D01*
X39534475Y-63078271D01*
X39497000Y-63070817D01*
X39497000Y-60948261D01*
X39738900Y-60948261D01*
X39738900Y-61152139D01*
X39778674Y-61352098D01*
X39856695Y-61540456D01*
X39969963Y-61709974D01*
X40114126Y-61854137D01*
X40283644Y-61967405D01*
X40472002Y-62045426D01*
X40671961Y-62085200D01*
X40875839Y-62085200D01*
X41075798Y-62045426D01*
X41264156Y-61967405D01*
X41433674Y-61854137D01*
X41577837Y-61709974D01*
X41691105Y-61540456D01*
X41769126Y-61352098D01*
X41808900Y-61152139D01*
X41808900Y-60948261D01*
X41769126Y-60748302D01*
X41766956Y-60743061D01*
X44583400Y-60743061D01*
X44583400Y-60946939D01*
X44623174Y-61146898D01*
X44701195Y-61335256D01*
X44814463Y-61504774D01*
X44958626Y-61648937D01*
X45128144Y-61762205D01*
X45316502Y-61840226D01*
X45516461Y-61880000D01*
X45720339Y-61880000D01*
X45920298Y-61840226D01*
X46108656Y-61762205D01*
X46278174Y-61648937D01*
X46422337Y-61504774D01*
X46535605Y-61335256D01*
X46613626Y-61146898D01*
X46653400Y-60946939D01*
X46653400Y-60743061D01*
X46613626Y-60543102D01*
X46535605Y-60354744D01*
X46422337Y-60185226D01*
X46278174Y-60041063D01*
X46108656Y-59927795D01*
X45920298Y-59849774D01*
X45720339Y-59810000D01*
X45516461Y-59810000D01*
X45316502Y-59849774D01*
X45128144Y-59927795D01*
X44958626Y-60041063D01*
X44814463Y-60185226D01*
X44701195Y-60354744D01*
X44623174Y-60543102D01*
X44583400Y-60743061D01*
X41766956Y-60743061D01*
X41691105Y-60559944D01*
X41577837Y-60390426D01*
X41433674Y-60246263D01*
X41264156Y-60132995D01*
X41075798Y-60054974D01*
X40875839Y-60015200D01*
X40671961Y-60015200D01*
X40472002Y-60054974D01*
X40283644Y-60132995D01*
X40114126Y-60246263D01*
X39969963Y-60390426D01*
X39856695Y-60559944D01*
X39778674Y-60748302D01*
X39738900Y-60948261D01*
X39497000Y-60948261D01*
X39497000Y-58318061D01*
X42145000Y-58318061D01*
X42145000Y-58521939D01*
X42184774Y-58721898D01*
X42262795Y-58910256D01*
X42376063Y-59079774D01*
X42520226Y-59223937D01*
X42689744Y-59337205D01*
X42878102Y-59415226D01*
X43078061Y-59455000D01*
X43281939Y-59455000D01*
X43481898Y-59415226D01*
X43670256Y-59337205D01*
X43839774Y-59223937D01*
X43983937Y-59079774D01*
X44097205Y-58910256D01*
X44175226Y-58721898D01*
X44215000Y-58521939D01*
X44215000Y-58318061D01*
X47225000Y-58318061D01*
X47225000Y-58521939D01*
X47264774Y-58721898D01*
X47342795Y-58910256D01*
X47456063Y-59079774D01*
X47600226Y-59223937D01*
X47769744Y-59337205D01*
X47958102Y-59415226D01*
X48158061Y-59455000D01*
X48361939Y-59455000D01*
X48561898Y-59415226D01*
X48750256Y-59337205D01*
X48919774Y-59223937D01*
X49063937Y-59079774D01*
X49177205Y-58910256D01*
X49255226Y-58721898D01*
X49295000Y-58521939D01*
X49295000Y-58318061D01*
X52305000Y-58318061D01*
X52305000Y-58521939D01*
X52344774Y-58721898D01*
X52422795Y-58910256D01*
X52536063Y-59079774D01*
X52680226Y-59223937D01*
X52849744Y-59337205D01*
X53038102Y-59415226D01*
X53238061Y-59455000D01*
X53441939Y-59455000D01*
X53641898Y-59415226D01*
X53830256Y-59337205D01*
X53999774Y-59223937D01*
X54143937Y-59079774D01*
X54257205Y-58910256D01*
X54335226Y-58721898D01*
X54375000Y-58521939D01*
X54375000Y-58318061D01*
X57385000Y-58318061D01*
X57385000Y-58521939D01*
X57424774Y-58721898D01*
X57502795Y-58910256D01*
X57616063Y-59079774D01*
X57660001Y-59123712D01*
X57660000Y-59494289D01*
X57616063Y-59538226D01*
X57502795Y-59707744D01*
X57424774Y-59896102D01*
X57385000Y-60096061D01*
X57385000Y-60299939D01*
X57424774Y-60499898D01*
X57502795Y-60688256D01*
X57616063Y-60857774D01*
X57760226Y-61001937D01*
X57929744Y-61115205D01*
X58118102Y-61193226D01*
X58318061Y-61233000D01*
X58521939Y-61233000D01*
X58721898Y-61193226D01*
X58910256Y-61115205D01*
X59079774Y-61001937D01*
X59120250Y-60961461D01*
X59846600Y-60961461D01*
X59846600Y-61165339D01*
X59886374Y-61365298D01*
X59964395Y-61553656D01*
X60077663Y-61723174D01*
X60221826Y-61867337D01*
X60391344Y-61980605D01*
X60579702Y-62058626D01*
X60779661Y-62098400D01*
X60983539Y-62098400D01*
X61183498Y-62058626D01*
X61371856Y-61980605D01*
X61541374Y-61867337D01*
X61685537Y-61723174D01*
X61798805Y-61553656D01*
X61876826Y-61365298D01*
X61916600Y-61165339D01*
X61916600Y-60961461D01*
X61876826Y-60761502D01*
X61798805Y-60573144D01*
X61685537Y-60403626D01*
X61541374Y-60259463D01*
X61371856Y-60146195D01*
X61183498Y-60068174D01*
X60983539Y-60028400D01*
X60779661Y-60028400D01*
X60579702Y-60068174D01*
X60391344Y-60146195D01*
X60221826Y-60259463D01*
X60077663Y-60403626D01*
X59964395Y-60573144D01*
X59886374Y-60761502D01*
X59846600Y-60961461D01*
X59120250Y-60961461D01*
X59223937Y-60857774D01*
X59337205Y-60688256D01*
X59415226Y-60499898D01*
X59455000Y-60299939D01*
X59455000Y-60096061D01*
X59415226Y-59896102D01*
X59337205Y-59707744D01*
X59223937Y-59538226D01*
X59180000Y-59494289D01*
X59180000Y-59123711D01*
X59223937Y-59079774D01*
X59337205Y-58910256D01*
X59415226Y-58721898D01*
X59455000Y-58521939D01*
X59455000Y-58318061D01*
X62465000Y-58318061D01*
X62465000Y-58521939D01*
X62504774Y-58721898D01*
X62582795Y-58910256D01*
X62696063Y-59079774D01*
X62840226Y-59223937D01*
X63009744Y-59337205D01*
X63198102Y-59415226D01*
X63398061Y-59455000D01*
X63460198Y-59455000D01*
X63661601Y-59656402D01*
X63685399Y-59685401D01*
X63714397Y-59709199D01*
X63801124Y-59780374D01*
X63933153Y-59850946D01*
X64076414Y-59894403D01*
X64225400Y-59909077D01*
X64262733Y-59905400D01*
X65598406Y-59905400D01*
X65466844Y-59959895D01*
X65297326Y-60073163D01*
X65153163Y-60217326D01*
X65039895Y-60386844D01*
X64961874Y-60575202D01*
X64922100Y-60775161D01*
X64922100Y-60979039D01*
X64961874Y-61178998D01*
X65039895Y-61367356D01*
X65153163Y-61536874D01*
X65297326Y-61681037D01*
X65466844Y-61794305D01*
X65655202Y-61872326D01*
X65855161Y-61912100D01*
X66059039Y-61912100D01*
X66258998Y-61872326D01*
X66447356Y-61794305D01*
X66616874Y-61681037D01*
X66761037Y-61536874D01*
X66874305Y-61367356D01*
X66952326Y-61178998D01*
X66992100Y-60979039D01*
X66992100Y-60775161D01*
X66952326Y-60575202D01*
X66874305Y-60386844D01*
X66761037Y-60217326D01*
X66616874Y-60073163D01*
X66447356Y-59959895D01*
X66315794Y-59905400D01*
X74070599Y-59905400D01*
X75079400Y-60914202D01*
X75079400Y-60976339D01*
X75119174Y-61176298D01*
X75197195Y-61364656D01*
X75310463Y-61534174D01*
X75454626Y-61678337D01*
X75624144Y-61791605D01*
X75812502Y-61869626D01*
X76012461Y-61909400D01*
X76216339Y-61909400D01*
X76416298Y-61869626D01*
X76604656Y-61791605D01*
X76774174Y-61678337D01*
X76918337Y-61534174D01*
X77031605Y-61364656D01*
X77109626Y-61176298D01*
X77149400Y-60976339D01*
X77149400Y-60772461D01*
X77109626Y-60572502D01*
X77031605Y-60384144D01*
X76918337Y-60214626D01*
X76774174Y-60070463D01*
X76604656Y-59957195D01*
X76416298Y-59879174D01*
X76216339Y-59839400D01*
X76154202Y-59839400D01*
X74949204Y-58634403D01*
X74925401Y-58605399D01*
X74809676Y-58510426D01*
X74695000Y-58449130D01*
X74695000Y-58318061D01*
X77705000Y-58318061D01*
X77705000Y-58521939D01*
X77744774Y-58721898D01*
X77822795Y-58910256D01*
X77936063Y-59079774D01*
X78080226Y-59223937D01*
X78249744Y-59337205D01*
X78438102Y-59415226D01*
X78638061Y-59455000D01*
X78841939Y-59455000D01*
X79041898Y-59415226D01*
X79230256Y-59337205D01*
X79399774Y-59223937D01*
X79543937Y-59079774D01*
X79657205Y-58910256D01*
X79735226Y-58721898D01*
X79775000Y-58521939D01*
X79775000Y-58318061D01*
X79735226Y-58118102D01*
X79657205Y-57929744D01*
X79543937Y-57760226D01*
X79399774Y-57616063D01*
X79230256Y-57502795D01*
X79041898Y-57424774D01*
X78841939Y-57385000D01*
X78638061Y-57385000D01*
X78438102Y-57424774D01*
X78249744Y-57502795D01*
X78080226Y-57616063D01*
X77936063Y-57760226D01*
X77822795Y-57929744D01*
X77744774Y-58118102D01*
X77705000Y-58318061D01*
X74695000Y-58318061D01*
X74655226Y-58118102D01*
X74577205Y-57929744D01*
X74463937Y-57760226D01*
X74319774Y-57616063D01*
X74150256Y-57502795D01*
X73961898Y-57424774D01*
X73761939Y-57385000D01*
X73558061Y-57385000D01*
X73358102Y-57424774D01*
X73169744Y-57502795D01*
X73000226Y-57616063D01*
X72856063Y-57760226D01*
X72742795Y-57929744D01*
X72664774Y-58118102D01*
X72625000Y-58318061D01*
X72625000Y-58385400D01*
X69615000Y-58385400D01*
X69615000Y-58318061D01*
X69575226Y-58118102D01*
X69497205Y-57929744D01*
X69383937Y-57760226D01*
X69239774Y-57616063D01*
X69070256Y-57502795D01*
X68881898Y-57424774D01*
X68681939Y-57385000D01*
X68478061Y-57385000D01*
X68278102Y-57424774D01*
X68089744Y-57502795D01*
X67920226Y-57616063D01*
X67776063Y-57760226D01*
X67662795Y-57929744D01*
X67584774Y-58118102D01*
X67545000Y-58318061D01*
X67545000Y-58385400D01*
X64540202Y-58385400D01*
X64535000Y-58380198D01*
X64535000Y-58318061D01*
X64495226Y-58118102D01*
X64417205Y-57929744D01*
X64303937Y-57760226D01*
X64159774Y-57616063D01*
X63990256Y-57502795D01*
X63801898Y-57424774D01*
X63601939Y-57385000D01*
X63398061Y-57385000D01*
X63198102Y-57424774D01*
X63009744Y-57502795D01*
X62840226Y-57616063D01*
X62696063Y-57760226D01*
X62582795Y-57929744D01*
X62504774Y-58118102D01*
X62465000Y-58318061D01*
X59455000Y-58318061D01*
X59415226Y-58118102D01*
X59337205Y-57929744D01*
X59223937Y-57760226D01*
X59079774Y-57616063D01*
X58910256Y-57502795D01*
X58721898Y-57424774D01*
X58521939Y-57385000D01*
X58318061Y-57385000D01*
X58118102Y-57424774D01*
X57929744Y-57502795D01*
X57760226Y-57616063D01*
X57616063Y-57760226D01*
X57502795Y-57929744D01*
X57424774Y-58118102D01*
X57385000Y-58318061D01*
X54375000Y-58318061D01*
X54335226Y-58118102D01*
X54257205Y-57929744D01*
X54143937Y-57760226D01*
X53999774Y-57616063D01*
X53830256Y-57502795D01*
X53641898Y-57424774D01*
X53441939Y-57385000D01*
X53238061Y-57385000D01*
X53038102Y-57424774D01*
X52849744Y-57502795D01*
X52680226Y-57616063D01*
X52536063Y-57760226D01*
X52422795Y-57929744D01*
X52344774Y-58118102D01*
X52305000Y-58318061D01*
X49295000Y-58318061D01*
X49255226Y-58118102D01*
X49177205Y-57929744D01*
X49063937Y-57760226D01*
X48919774Y-57616063D01*
X48750256Y-57502795D01*
X48561898Y-57424774D01*
X48361939Y-57385000D01*
X48158061Y-57385000D01*
X47958102Y-57424774D01*
X47769744Y-57502795D01*
X47600226Y-57616063D01*
X47456063Y-57760226D01*
X47342795Y-57929744D01*
X47264774Y-58118102D01*
X47225000Y-58318061D01*
X44215000Y-58318061D01*
X44175226Y-58118102D01*
X44097205Y-57929744D01*
X43983937Y-57760226D01*
X43839774Y-57616063D01*
X43670256Y-57502795D01*
X43481898Y-57424774D01*
X43281939Y-57385000D01*
X43078061Y-57385000D01*
X42878102Y-57424774D01*
X42689744Y-57502795D01*
X42520226Y-57616063D01*
X42376063Y-57760226D01*
X42262795Y-57929744D01*
X42184774Y-58118102D01*
X42145000Y-58318061D01*
X39497000Y-58318061D01*
X39497000Y-55853161D01*
X65138100Y-55853161D01*
X65138100Y-56057039D01*
X65177874Y-56256998D01*
X65255895Y-56445356D01*
X65369163Y-56614874D01*
X65513326Y-56759037D01*
X65682844Y-56872305D01*
X65871202Y-56950326D01*
X66071161Y-56990100D01*
X66275039Y-56990100D01*
X66474998Y-56950326D01*
X66663356Y-56872305D01*
X66832874Y-56759037D01*
X66977037Y-56614874D01*
X67090305Y-56445356D01*
X67168326Y-56256998D01*
X67208100Y-56057039D01*
X67208100Y-55853161D01*
X67168326Y-55653202D01*
X67090305Y-55464844D01*
X66977037Y-55295326D01*
X66832874Y-55151163D01*
X66663356Y-55037895D01*
X66474998Y-54959874D01*
X66275039Y-54920100D01*
X66071161Y-54920100D01*
X65871202Y-54959874D01*
X65682844Y-55037895D01*
X65513326Y-55151163D01*
X65369163Y-55295326D01*
X65255895Y-55464844D01*
X65177874Y-55653202D01*
X65138100Y-55853161D01*
X39497000Y-55853161D01*
X39497000Y-53238061D01*
X42145000Y-53238061D01*
X42145000Y-53441939D01*
X42184774Y-53641898D01*
X42262795Y-53830256D01*
X42376063Y-53999774D01*
X42520226Y-54143937D01*
X42689744Y-54257205D01*
X42878102Y-54335226D01*
X43078061Y-54375000D01*
X43281939Y-54375000D01*
X43481898Y-54335226D01*
X43670256Y-54257205D01*
X43839774Y-54143937D01*
X43983937Y-53999774D01*
X44097205Y-53830256D01*
X44175226Y-53641898D01*
X44215000Y-53441939D01*
X44215000Y-53238061D01*
X47225000Y-53238061D01*
X47225000Y-53441939D01*
X47264774Y-53641898D01*
X47342795Y-53830256D01*
X47456063Y-53999774D01*
X47600226Y-54143937D01*
X47769744Y-54257205D01*
X47958102Y-54335226D01*
X48158061Y-54375000D01*
X48361939Y-54375000D01*
X48561898Y-54335226D01*
X48750256Y-54257205D01*
X48919774Y-54143937D01*
X49063937Y-53999774D01*
X49177205Y-53830256D01*
X49255226Y-53641898D01*
X49295000Y-53441939D01*
X49295000Y-53238061D01*
X52305000Y-53238061D01*
X52305000Y-53441939D01*
X52344774Y-53641898D01*
X52422795Y-53830256D01*
X52536063Y-53999774D01*
X52680226Y-54143937D01*
X52849744Y-54257205D01*
X53038102Y-54335226D01*
X53238061Y-54375000D01*
X53441939Y-54375000D01*
X53641898Y-54335226D01*
X53830256Y-54257205D01*
X53999774Y-54143937D01*
X54143937Y-53999774D01*
X54257205Y-53830256D01*
X54335226Y-53641898D01*
X54375000Y-53441939D01*
X54375000Y-53238061D01*
X57385000Y-53238061D01*
X57385000Y-53441939D01*
X57424774Y-53641898D01*
X57502795Y-53830256D01*
X57616063Y-53999774D01*
X57760226Y-54143937D01*
X57929744Y-54257205D01*
X58118102Y-54335226D01*
X58318061Y-54375000D01*
X58521939Y-54375000D01*
X58721898Y-54335226D01*
X58910256Y-54257205D01*
X59079774Y-54143937D01*
X59223937Y-53999774D01*
X59337205Y-53830256D01*
X59415226Y-53641898D01*
X59455000Y-53441939D01*
X59455000Y-53238061D01*
X62465000Y-53238061D01*
X62465000Y-53441939D01*
X62504774Y-53641898D01*
X62582795Y-53830256D01*
X62696063Y-53999774D01*
X62840226Y-54143937D01*
X63009744Y-54257205D01*
X63198102Y-54335226D01*
X63398061Y-54375000D01*
X63601939Y-54375000D01*
X63801898Y-54335226D01*
X63990256Y-54257205D01*
X64159774Y-54143937D01*
X64303937Y-53999774D01*
X64417205Y-53830256D01*
X64495226Y-53641898D01*
X64535000Y-53441939D01*
X64535000Y-53238061D01*
X67545000Y-53238061D01*
X67545000Y-53441939D01*
X67584774Y-53641898D01*
X67662795Y-53830256D01*
X67776063Y-53999774D01*
X67920226Y-54143937D01*
X68089744Y-54257205D01*
X68278102Y-54335226D01*
X68478061Y-54375000D01*
X68681939Y-54375000D01*
X68881898Y-54335226D01*
X69070256Y-54257205D01*
X69239774Y-54143937D01*
X69383937Y-53999774D01*
X69497205Y-53830256D01*
X69575226Y-53641898D01*
X69615000Y-53441939D01*
X69615000Y-53238061D01*
X72625000Y-53238061D01*
X72625000Y-53441939D01*
X72664774Y-53641898D01*
X72742795Y-53830256D01*
X72856063Y-53999774D01*
X73000226Y-54143937D01*
X73169744Y-54257205D01*
X73358102Y-54335226D01*
X73558061Y-54375000D01*
X73761939Y-54375000D01*
X73961898Y-54335226D01*
X74150256Y-54257205D01*
X74319774Y-54143937D01*
X74463937Y-53999774D01*
X74577205Y-53830256D01*
X74655226Y-53641898D01*
X74695000Y-53441939D01*
X74695000Y-53238061D01*
X77705000Y-53238061D01*
X77705000Y-53441939D01*
X77744774Y-53641898D01*
X77822795Y-53830256D01*
X77936063Y-53999774D01*
X78080226Y-54143937D01*
X78249744Y-54257205D01*
X78438102Y-54335226D01*
X78638061Y-54375000D01*
X78841939Y-54375000D01*
X79041898Y-54335226D01*
X79230256Y-54257205D01*
X79399774Y-54143937D01*
X79543937Y-53999774D01*
X79657205Y-53830256D01*
X79735226Y-53641898D01*
X79775000Y-53441939D01*
X79775000Y-53238061D01*
X79735226Y-53038102D01*
X79657205Y-52849744D01*
X79543937Y-52680226D01*
X79399774Y-52536063D01*
X79230256Y-52422795D01*
X79041898Y-52344774D01*
X78841939Y-52305000D01*
X78638061Y-52305000D01*
X78438102Y-52344774D01*
X78249744Y-52422795D01*
X78080226Y-52536063D01*
X77936063Y-52680226D01*
X77822795Y-52849744D01*
X77744774Y-53038102D01*
X77705000Y-53238061D01*
X74695000Y-53238061D01*
X74655226Y-53038102D01*
X74577205Y-52849744D01*
X74463937Y-52680226D01*
X74319774Y-52536063D01*
X74150256Y-52422795D01*
X73961898Y-52344774D01*
X73761939Y-52305000D01*
X73558061Y-52305000D01*
X73358102Y-52344774D01*
X73169744Y-52422795D01*
X73000226Y-52536063D01*
X72856063Y-52680226D01*
X72742795Y-52849744D01*
X72664774Y-53038102D01*
X72625000Y-53238061D01*
X69615000Y-53238061D01*
X69575226Y-53038102D01*
X69497205Y-52849744D01*
X69383937Y-52680226D01*
X69239774Y-52536063D01*
X69070256Y-52422795D01*
X68881898Y-52344774D01*
X68681939Y-52305000D01*
X68478061Y-52305000D01*
X68278102Y-52344774D01*
X68089744Y-52422795D01*
X67920226Y-52536063D01*
X67776063Y-52680226D01*
X67662795Y-52849744D01*
X67584774Y-53038102D01*
X67545000Y-53238061D01*
X64535000Y-53238061D01*
X64495226Y-53038102D01*
X64417205Y-52849744D01*
X64303937Y-52680226D01*
X64159774Y-52536063D01*
X63990256Y-52422795D01*
X63801898Y-52344774D01*
X63601939Y-52305000D01*
X63398061Y-52305000D01*
X63198102Y-52344774D01*
X63009744Y-52422795D01*
X62840226Y-52536063D01*
X62696063Y-52680226D01*
X62582795Y-52849744D01*
X62504774Y-53038102D01*
X62465000Y-53238061D01*
X59455000Y-53238061D01*
X59415226Y-53038102D01*
X59337205Y-52849744D01*
X59223937Y-52680226D01*
X59079774Y-52536063D01*
X58910256Y-52422795D01*
X58721898Y-52344774D01*
X58521939Y-52305000D01*
X58318061Y-52305000D01*
X58118102Y-52344774D01*
X57929744Y-52422795D01*
X57760226Y-52536063D01*
X57616063Y-52680226D01*
X57502795Y-52849744D01*
X57424774Y-53038102D01*
X57385000Y-53238061D01*
X54375000Y-53238061D01*
X54335226Y-53038102D01*
X54257205Y-52849744D01*
X54143937Y-52680226D01*
X53999774Y-52536063D01*
X53830256Y-52422795D01*
X53641898Y-52344774D01*
X53441939Y-52305000D01*
X53238061Y-52305000D01*
X53038102Y-52344774D01*
X52849744Y-52422795D01*
X52680226Y-52536063D01*
X52536063Y-52680226D01*
X52422795Y-52849744D01*
X52344774Y-53038102D01*
X52305000Y-53238061D01*
X49295000Y-53238061D01*
X49255226Y-53038102D01*
X49177205Y-52849744D01*
X49063937Y-52680226D01*
X48919774Y-52536063D01*
X48750256Y-52422795D01*
X48561898Y-52344774D01*
X48361939Y-52305000D01*
X48158061Y-52305000D01*
X47958102Y-52344774D01*
X47769744Y-52422795D01*
X47600226Y-52536063D01*
X47456063Y-52680226D01*
X47342795Y-52849744D01*
X47264774Y-53038102D01*
X47225000Y-53238061D01*
X44215000Y-53238061D01*
X44175226Y-53038102D01*
X44097205Y-52849744D01*
X43983937Y-52680226D01*
X43839774Y-52536063D01*
X43670256Y-52422795D01*
X43481898Y-52344774D01*
X43281939Y-52305000D01*
X43078061Y-52305000D01*
X42878102Y-52344774D01*
X42689744Y-52422795D01*
X42520226Y-52536063D01*
X42376063Y-52680226D01*
X42262795Y-52849744D01*
X42184774Y-53038102D01*
X42145000Y-53238061D01*
X39497000Y-53238061D01*
X39497000Y-51676611D01*
X39560037Y-51613574D01*
X39673305Y-51444056D01*
X39751326Y-51255698D01*
X39791100Y-51055739D01*
X39791100Y-50851861D01*
X39755396Y-50672361D01*
X44885200Y-50672361D01*
X44885200Y-50876239D01*
X44924974Y-51076198D01*
X45002995Y-51264556D01*
X45116263Y-51434074D01*
X45260426Y-51578237D01*
X45429944Y-51691505D01*
X45618302Y-51769526D01*
X45818261Y-51809300D01*
X46022139Y-51809300D01*
X46222098Y-51769526D01*
X46410456Y-51691505D01*
X46579974Y-51578237D01*
X46724137Y-51434074D01*
X46837405Y-51264556D01*
X46915426Y-51076198D01*
X46955200Y-50876239D01*
X46955200Y-50672361D01*
X46933002Y-50560761D01*
X49831200Y-50560761D01*
X49831200Y-50764639D01*
X49870974Y-50964598D01*
X49948995Y-51152956D01*
X50062263Y-51322474D01*
X50206426Y-51466637D01*
X50375944Y-51579905D01*
X50564302Y-51657926D01*
X50764261Y-51697700D01*
X50968139Y-51697700D01*
X51168098Y-51657926D01*
X51356456Y-51579905D01*
X51525974Y-51466637D01*
X51670137Y-51322474D01*
X51783405Y-51152956D01*
X51861426Y-50964598D01*
X51901200Y-50764639D01*
X51901200Y-50696861D01*
X54653800Y-50696861D01*
X54653800Y-50900739D01*
X54693574Y-51100698D01*
X54771595Y-51289056D01*
X54884863Y-51458574D01*
X55029026Y-51602737D01*
X55198544Y-51716005D01*
X55386902Y-51794026D01*
X55586861Y-51833800D01*
X55790739Y-51833800D01*
X55990698Y-51794026D01*
X56179056Y-51716005D01*
X56348574Y-51602737D01*
X56492737Y-51458574D01*
X56606005Y-51289056D01*
X56684026Y-51100698D01*
X56723800Y-50900739D01*
X56723800Y-50696861D01*
X56720538Y-50680461D01*
X59715900Y-50680461D01*
X59715900Y-50884339D01*
X59755674Y-51084298D01*
X59833695Y-51272656D01*
X59946963Y-51442174D01*
X60091126Y-51586337D01*
X60260644Y-51699605D01*
X60449002Y-51777626D01*
X60648961Y-51817400D01*
X60852839Y-51817400D01*
X61052798Y-51777626D01*
X61241156Y-51699605D01*
X61410674Y-51586337D01*
X61554837Y-51442174D01*
X61668105Y-51272656D01*
X61746126Y-51084298D01*
X61785900Y-50884339D01*
X61785900Y-50680461D01*
X61746126Y-50480502D01*
X61668105Y-50292144D01*
X61554837Y-50122626D01*
X61410674Y-49978463D01*
X61241156Y-49865195D01*
X61052798Y-49787174D01*
X60852839Y-49747400D01*
X60648961Y-49747400D01*
X60449002Y-49787174D01*
X60260644Y-49865195D01*
X60091126Y-49978463D01*
X59946963Y-50122626D01*
X59833695Y-50292144D01*
X59755674Y-50480502D01*
X59715900Y-50680461D01*
X56720538Y-50680461D01*
X56684026Y-50496902D01*
X56606005Y-50308544D01*
X56492737Y-50139026D01*
X56348574Y-49994863D01*
X56179056Y-49881595D01*
X55990698Y-49803574D01*
X55790739Y-49763800D01*
X55586861Y-49763800D01*
X55386902Y-49803574D01*
X55198544Y-49881595D01*
X55029026Y-49994863D01*
X54884863Y-50139026D01*
X54771595Y-50308544D01*
X54693574Y-50496902D01*
X54653800Y-50696861D01*
X51901200Y-50696861D01*
X51901200Y-50560761D01*
X51861426Y-50360802D01*
X51783405Y-50172444D01*
X51670137Y-50002926D01*
X51525974Y-49858763D01*
X51356456Y-49745495D01*
X51168098Y-49667474D01*
X50968139Y-49627700D01*
X50764261Y-49627700D01*
X50564302Y-49667474D01*
X50375944Y-49745495D01*
X50206426Y-49858763D01*
X50062263Y-50002926D01*
X49948995Y-50172444D01*
X49870974Y-50360802D01*
X49831200Y-50560761D01*
X46933002Y-50560761D01*
X46915426Y-50472402D01*
X46837405Y-50284044D01*
X46724137Y-50114526D01*
X46579974Y-49970363D01*
X46410456Y-49857095D01*
X46222098Y-49779074D01*
X46022139Y-49739300D01*
X45818261Y-49739300D01*
X45618302Y-49779074D01*
X45429944Y-49857095D01*
X45260426Y-49970363D01*
X45116263Y-50114526D01*
X45002995Y-50284044D01*
X44924974Y-50472402D01*
X44885200Y-50672361D01*
X39755396Y-50672361D01*
X39751326Y-50651902D01*
X39673305Y-50463544D01*
X39560037Y-50294026D01*
X39497000Y-50230989D01*
X39497000Y-48505936D01*
X39542798Y-48496826D01*
X39731156Y-48418805D01*
X39900674Y-48305537D01*
X40044837Y-48161374D01*
X40047050Y-48158061D01*
X42145000Y-48158061D01*
X42145000Y-48361939D01*
X42184774Y-48561898D01*
X42262795Y-48750256D01*
X42376063Y-48919774D01*
X42520226Y-49063937D01*
X42689744Y-49177205D01*
X42878102Y-49255226D01*
X43078061Y-49295000D01*
X43281939Y-49295000D01*
X43481898Y-49255226D01*
X43670256Y-49177205D01*
X43839774Y-49063937D01*
X43983937Y-48919774D01*
X44097205Y-48750256D01*
X44175226Y-48561898D01*
X44215000Y-48361939D01*
X44215000Y-48158061D01*
X47225000Y-48158061D01*
X47225000Y-48361939D01*
X47264774Y-48561898D01*
X47342795Y-48750256D01*
X47456063Y-48919774D01*
X47600226Y-49063937D01*
X47769744Y-49177205D01*
X47958102Y-49255226D01*
X48158061Y-49295000D01*
X48361939Y-49295000D01*
X48561898Y-49255226D01*
X48750256Y-49177205D01*
X48919774Y-49063937D01*
X49063937Y-48919774D01*
X49177205Y-48750256D01*
X49255226Y-48561898D01*
X49295000Y-48361939D01*
X49295000Y-48158061D01*
X52305000Y-48158061D01*
X52305000Y-48361939D01*
X52344774Y-48561898D01*
X52422795Y-48750256D01*
X52536063Y-48919774D01*
X52680226Y-49063937D01*
X52849744Y-49177205D01*
X53038102Y-49255226D01*
X53238061Y-49295000D01*
X53441939Y-49295000D01*
X53641898Y-49255226D01*
X53830256Y-49177205D01*
X53999774Y-49063937D01*
X54143937Y-48919774D01*
X54257205Y-48750256D01*
X54335226Y-48561898D01*
X54375000Y-48361939D01*
X54375000Y-48158061D01*
X57385000Y-48158061D01*
X57385000Y-48361939D01*
X57424774Y-48561898D01*
X57502795Y-48750256D01*
X57616063Y-48919774D01*
X57760226Y-49063937D01*
X57929744Y-49177205D01*
X58118102Y-49255226D01*
X58318061Y-49295000D01*
X58521939Y-49295000D01*
X58721898Y-49255226D01*
X58910256Y-49177205D01*
X59079774Y-49063937D01*
X59223937Y-48919774D01*
X59337205Y-48750256D01*
X59415226Y-48561898D01*
X59455000Y-48361939D01*
X59455000Y-48158061D01*
X59415226Y-47958102D01*
X59337205Y-47769744D01*
X59223937Y-47600226D01*
X59079774Y-47456063D01*
X58910256Y-47342795D01*
X58721898Y-47264774D01*
X58521939Y-47225000D01*
X58318061Y-47225000D01*
X58118102Y-47264774D01*
X57929744Y-47342795D01*
X57760226Y-47456063D01*
X57616063Y-47600226D01*
X57502795Y-47769744D01*
X57424774Y-47958102D01*
X57385000Y-48158061D01*
X54375000Y-48158061D01*
X54335226Y-47958102D01*
X54257205Y-47769744D01*
X54143937Y-47600226D01*
X53999774Y-47456063D01*
X53830256Y-47342795D01*
X53641898Y-47264774D01*
X53441939Y-47225000D01*
X53238061Y-47225000D01*
X53038102Y-47264774D01*
X52849744Y-47342795D01*
X52680226Y-47456063D01*
X52536063Y-47600226D01*
X52422795Y-47769744D01*
X52344774Y-47958102D01*
X52305000Y-48158061D01*
X49295000Y-48158061D01*
X49255226Y-47958102D01*
X49177205Y-47769744D01*
X49063937Y-47600226D01*
X48919774Y-47456063D01*
X48750256Y-47342795D01*
X48561898Y-47264774D01*
X48361939Y-47225000D01*
X48158061Y-47225000D01*
X47958102Y-47264774D01*
X47769744Y-47342795D01*
X47600226Y-47456063D01*
X47456063Y-47600226D01*
X47342795Y-47769744D01*
X47264774Y-47958102D01*
X47225000Y-48158061D01*
X44215000Y-48158061D01*
X44175226Y-47958102D01*
X44097205Y-47769744D01*
X43983937Y-47600226D01*
X43839774Y-47456063D01*
X43670256Y-47342795D01*
X43481898Y-47264774D01*
X43281939Y-47225000D01*
X43078061Y-47225000D01*
X42878102Y-47264774D01*
X42689744Y-47342795D01*
X42520226Y-47456063D01*
X42376063Y-47600226D01*
X42262795Y-47769744D01*
X42184774Y-47958102D01*
X42145000Y-48158061D01*
X40047050Y-48158061D01*
X40158105Y-47991856D01*
X40236126Y-47803498D01*
X40275900Y-47603539D01*
X40275900Y-47399661D01*
X40236126Y-47199702D01*
X40158105Y-47011344D01*
X40120577Y-46955179D01*
X40185205Y-46858456D01*
X40263226Y-46670098D01*
X40303000Y-46470139D01*
X40303000Y-46266261D01*
X40263226Y-46066302D01*
X40185205Y-45877944D01*
X40071937Y-45708426D01*
X39927774Y-45564263D01*
X39870302Y-45525861D01*
X44777200Y-45525861D01*
X44777200Y-45729739D01*
X44816974Y-45929698D01*
X44894995Y-46118056D01*
X45008263Y-46287574D01*
X45152426Y-46431737D01*
X45321944Y-46545005D01*
X45510302Y-46623026D01*
X45710261Y-46662800D01*
X45914139Y-46662800D01*
X46114098Y-46623026D01*
X46302456Y-46545005D01*
X46471974Y-46431737D01*
X46616137Y-46287574D01*
X46729405Y-46118056D01*
X46807426Y-45929698D01*
X46844602Y-45742800D01*
X49984000Y-45742800D01*
X49984000Y-45827639D01*
X50023774Y-46027598D01*
X50101795Y-46215956D01*
X50215063Y-46385474D01*
X50359226Y-46529637D01*
X50528744Y-46642905D01*
X50717102Y-46720926D01*
X50917061Y-46760700D01*
X51120939Y-46760700D01*
X51320898Y-46720926D01*
X51509256Y-46642905D01*
X51678774Y-46529637D01*
X51822937Y-46385474D01*
X51936205Y-46215956D01*
X52014226Y-46027598D01*
X52054000Y-45827639D01*
X52054000Y-45742800D01*
X59907999Y-45742800D01*
X62465000Y-48299802D01*
X62465000Y-48361939D01*
X62504774Y-48561898D01*
X62582795Y-48750256D01*
X62696063Y-48919774D01*
X62840226Y-49063937D01*
X63009744Y-49177205D01*
X63198102Y-49255226D01*
X63398061Y-49295000D01*
X63601939Y-49295000D01*
X63801898Y-49255226D01*
X63990256Y-49177205D01*
X64159774Y-49063937D01*
X64303937Y-48919774D01*
X64417205Y-48750256D01*
X64495226Y-48561898D01*
X64535000Y-48361939D01*
X64535000Y-48158061D01*
X67545000Y-48158061D01*
X67545000Y-48361939D01*
X67584774Y-48561898D01*
X67662795Y-48750256D01*
X67776063Y-48919774D01*
X67920226Y-49063937D01*
X68089744Y-49177205D01*
X68278102Y-49255226D01*
X68478061Y-49295000D01*
X68681939Y-49295000D01*
X68881898Y-49255226D01*
X69070256Y-49177205D01*
X69239774Y-49063937D01*
X69383937Y-48919774D01*
X69497205Y-48750256D01*
X69575226Y-48561898D01*
X69615000Y-48361939D01*
X69615000Y-48158061D01*
X72625000Y-48158061D01*
X72625000Y-48361939D01*
X72664774Y-48561898D01*
X72742795Y-48750256D01*
X72856063Y-48919774D01*
X73000226Y-49063937D01*
X73169744Y-49177205D01*
X73358102Y-49255226D01*
X73558061Y-49295000D01*
X73761939Y-49295000D01*
X73961898Y-49255226D01*
X74150256Y-49177205D01*
X74319774Y-49063937D01*
X74463937Y-48919774D01*
X74577205Y-48750256D01*
X74655226Y-48561898D01*
X74695000Y-48361939D01*
X74695000Y-48158061D01*
X77705000Y-48158061D01*
X77705000Y-48361939D01*
X77744774Y-48561898D01*
X77822795Y-48750256D01*
X77936063Y-48919774D01*
X78080226Y-49063937D01*
X78249744Y-49177205D01*
X78438102Y-49255226D01*
X78638061Y-49295000D01*
X78841939Y-49295000D01*
X79041898Y-49255226D01*
X79230256Y-49177205D01*
X79399774Y-49063937D01*
X79543937Y-48919774D01*
X79657205Y-48750256D01*
X79735226Y-48561898D01*
X79775000Y-48361939D01*
X79775000Y-48158061D01*
X79735226Y-47958102D01*
X79657205Y-47769744D01*
X79543937Y-47600226D01*
X79399774Y-47456063D01*
X79230256Y-47342795D01*
X79041898Y-47264774D01*
X78841939Y-47225000D01*
X78638061Y-47225000D01*
X78438102Y-47264774D01*
X78249744Y-47342795D01*
X78080226Y-47456063D01*
X77936063Y-47600226D01*
X77822795Y-47769744D01*
X77744774Y-47958102D01*
X77705000Y-48158061D01*
X74695000Y-48158061D01*
X74655226Y-47958102D01*
X74577205Y-47769744D01*
X74463937Y-47600226D01*
X74319774Y-47456063D01*
X74150256Y-47342795D01*
X73961898Y-47264774D01*
X73761939Y-47225000D01*
X73558061Y-47225000D01*
X73358102Y-47264774D01*
X73169744Y-47342795D01*
X73000226Y-47456063D01*
X72856063Y-47600226D01*
X72742795Y-47769744D01*
X72664774Y-47958102D01*
X72625000Y-48158061D01*
X69615000Y-48158061D01*
X69575226Y-47958102D01*
X69497205Y-47769744D01*
X69383937Y-47600226D01*
X69239774Y-47456063D01*
X69070256Y-47342795D01*
X68881898Y-47264774D01*
X68681939Y-47225000D01*
X68478061Y-47225000D01*
X68278102Y-47264774D01*
X68089744Y-47342795D01*
X67920226Y-47456063D01*
X67776063Y-47600226D01*
X67662795Y-47769744D01*
X67584774Y-47958102D01*
X67545000Y-48158061D01*
X64535000Y-48158061D01*
X64495226Y-47958102D01*
X64417205Y-47769744D01*
X64303937Y-47600226D01*
X64159774Y-47456063D01*
X63990256Y-47342795D01*
X63801898Y-47264774D01*
X63601939Y-47225000D01*
X63539802Y-47225000D01*
X61921163Y-45606361D01*
X64791400Y-45606361D01*
X64791400Y-45810239D01*
X64831174Y-46010198D01*
X64909195Y-46198556D01*
X65022463Y-46368074D01*
X65166626Y-46512237D01*
X65336144Y-46625505D01*
X65524502Y-46703526D01*
X65724461Y-46743300D01*
X65928339Y-46743300D01*
X66128298Y-46703526D01*
X66316656Y-46625505D01*
X66486174Y-46512237D01*
X66630337Y-46368074D01*
X66743605Y-46198556D01*
X66821626Y-46010198D01*
X66861400Y-45810239D01*
X66861400Y-45606361D01*
X66821626Y-45406402D01*
X66821485Y-45406061D01*
X75165000Y-45406061D01*
X75165000Y-45609939D01*
X75204774Y-45809898D01*
X75282795Y-45998256D01*
X75396063Y-46167774D01*
X75540226Y-46311937D01*
X75709744Y-46425205D01*
X75898102Y-46503226D01*
X76098061Y-46543000D01*
X76301939Y-46543000D01*
X76501898Y-46503226D01*
X76690256Y-46425205D01*
X76859774Y-46311937D01*
X77003937Y-46167774D01*
X77117205Y-45998256D01*
X77195226Y-45809898D01*
X77233384Y-45618061D01*
X80153600Y-45618061D01*
X80153600Y-45821939D01*
X80193374Y-46021898D01*
X80271395Y-46210256D01*
X80384663Y-46379774D01*
X80528826Y-46523937D01*
X80698344Y-46637205D01*
X80886702Y-46715226D01*
X81086661Y-46755000D01*
X81290539Y-46755000D01*
X81490498Y-46715226D01*
X81678856Y-46637205D01*
X81848374Y-46523937D01*
X81992537Y-46379774D01*
X82105805Y-46210256D01*
X82183826Y-46021898D01*
X82223600Y-45821939D01*
X82223600Y-45618061D01*
X82183826Y-45418102D01*
X82105805Y-45229744D01*
X81992537Y-45060226D01*
X81848374Y-44916063D01*
X81678856Y-44802795D01*
X81490498Y-44724774D01*
X81290539Y-44685000D01*
X81086661Y-44685000D01*
X80886702Y-44724774D01*
X80698344Y-44802795D01*
X80528826Y-44916063D01*
X80384663Y-45060226D01*
X80271395Y-45229744D01*
X80193374Y-45418102D01*
X80153600Y-45618061D01*
X77233384Y-45618061D01*
X77235000Y-45609939D01*
X77235000Y-45406061D01*
X77195226Y-45206102D01*
X77117205Y-45017744D01*
X77003937Y-44848226D01*
X76859774Y-44704063D01*
X76690256Y-44590795D01*
X76501898Y-44512774D01*
X76301939Y-44473000D01*
X76098061Y-44473000D01*
X75898102Y-44512774D01*
X75709744Y-44590795D01*
X75540226Y-44704063D01*
X75396063Y-44848226D01*
X75282795Y-45017744D01*
X75204774Y-45206102D01*
X75165000Y-45406061D01*
X66821485Y-45406061D01*
X66743605Y-45218044D01*
X66630337Y-45048526D01*
X66486174Y-44904363D01*
X66316656Y-44791095D01*
X66128298Y-44713074D01*
X65928339Y-44673300D01*
X65724461Y-44673300D01*
X65524502Y-44713074D01*
X65336144Y-44791095D01*
X65166626Y-44904363D01*
X65022463Y-45048526D01*
X64909195Y-45218044D01*
X64831174Y-45406402D01*
X64791400Y-45606361D01*
X61921163Y-45606361D01*
X60786604Y-44471803D01*
X60762801Y-44442799D01*
X60647076Y-44347826D01*
X60515047Y-44277254D01*
X60371786Y-44233797D01*
X60260133Y-44222800D01*
X60260122Y-44222800D01*
X60222800Y-44219124D01*
X60185478Y-44222800D01*
X46494525Y-44222800D01*
X46457200Y-44219124D01*
X46419875Y-44222800D01*
X46419867Y-44222800D01*
X46308214Y-44233797D01*
X46164953Y-44277254D01*
X46032924Y-44347826D01*
X45917199Y-44442799D01*
X45893400Y-44471798D01*
X45772398Y-44592800D01*
X45710261Y-44592800D01*
X45510302Y-44632574D01*
X45321944Y-44710595D01*
X45152426Y-44823863D01*
X45008263Y-44968026D01*
X44894995Y-45137544D01*
X44816974Y-45325902D01*
X44777200Y-45525861D01*
X39870302Y-45525861D01*
X39758256Y-45450995D01*
X39569898Y-45372974D01*
X39497000Y-45358474D01*
X39497000Y-44537958D01*
X39577098Y-44522026D01*
X39765456Y-44444005D01*
X39934974Y-44330737D01*
X40079137Y-44186574D01*
X40192405Y-44017056D01*
X40270426Y-43828698D01*
X40310200Y-43628739D01*
X40310200Y-43424861D01*
X40270426Y-43224902D01*
X40209603Y-43078061D01*
X42145000Y-43078061D01*
X42145000Y-43281939D01*
X42184774Y-43481898D01*
X42262795Y-43670256D01*
X42376063Y-43839774D01*
X42520226Y-43983937D01*
X42689744Y-44097205D01*
X42878102Y-44175226D01*
X43078061Y-44215000D01*
X43281939Y-44215000D01*
X43481898Y-44175226D01*
X43670256Y-44097205D01*
X43839774Y-43983937D01*
X43983937Y-43839774D01*
X44097205Y-43670256D01*
X44175226Y-43481898D01*
X44215000Y-43281939D01*
X44215000Y-43078061D01*
X44175226Y-42878102D01*
X44097205Y-42689744D01*
X43983937Y-42520226D01*
X43839774Y-42376063D01*
X43670256Y-42262795D01*
X43481898Y-42184774D01*
X43281939Y-42145000D01*
X43078061Y-42145000D01*
X42878102Y-42184774D01*
X42689744Y-42262795D01*
X42520226Y-42376063D01*
X42376063Y-42520226D01*
X42262795Y-42689744D01*
X42184774Y-42878102D01*
X42145000Y-43078061D01*
X40209603Y-43078061D01*
X40192405Y-43036544D01*
X40079137Y-42867026D01*
X39934974Y-42722863D01*
X39765456Y-42609595D01*
X39577098Y-42531574D01*
X39497000Y-42515642D01*
X39497000Y-37998061D01*
X42145000Y-37998061D01*
X42145000Y-38201939D01*
X42184774Y-38401898D01*
X42262795Y-38590256D01*
X42376063Y-38759774D01*
X42520226Y-38903937D01*
X42689744Y-39017205D01*
X42878102Y-39095226D01*
X43078061Y-39135000D01*
X43281939Y-39135000D01*
X43481898Y-39095226D01*
X43670256Y-39017205D01*
X43839774Y-38903937D01*
X43983937Y-38759774D01*
X44097205Y-38590256D01*
X44175226Y-38401898D01*
X44215000Y-38201939D01*
X44215000Y-37998061D01*
X47225000Y-37998061D01*
X47225000Y-38201939D01*
X47264774Y-38401898D01*
X47342795Y-38590256D01*
X47456063Y-38759774D01*
X47600226Y-38903937D01*
X47769744Y-39017205D01*
X47958102Y-39095226D01*
X48158061Y-39135000D01*
X48361939Y-39135000D01*
X48561898Y-39095226D01*
X48750256Y-39017205D01*
X48919774Y-38903937D01*
X49063937Y-38759774D01*
X49177205Y-38590256D01*
X49255226Y-38401898D01*
X49295000Y-38201939D01*
X49295000Y-37998061D01*
X49255226Y-37798102D01*
X49177205Y-37609744D01*
X49063937Y-37440226D01*
X48919774Y-37296063D01*
X48750256Y-37182795D01*
X48561898Y-37104774D01*
X48361939Y-37065000D01*
X48158061Y-37065000D01*
X47958102Y-37104774D01*
X47769744Y-37182795D01*
X47600226Y-37296063D01*
X47456063Y-37440226D01*
X47342795Y-37609744D01*
X47264774Y-37798102D01*
X47225000Y-37998061D01*
X44215000Y-37998061D01*
X44175226Y-37798102D01*
X44097205Y-37609744D01*
X43983937Y-37440226D01*
X43839774Y-37296063D01*
X43670256Y-37182795D01*
X43481898Y-37104774D01*
X43281939Y-37065000D01*
X43078061Y-37065000D01*
X42878102Y-37104774D01*
X42689744Y-37182795D01*
X42520226Y-37296063D01*
X42376063Y-37440226D01*
X42262795Y-37609744D01*
X42184774Y-37798102D01*
X42145000Y-37998061D01*
X39497000Y-37998061D01*
X39497000Y-34417000D01*
X50028022Y-34417000D01*
X49940226Y-34475663D01*
M02*
