G04 #@! TF.GenerationSoftware,KiCad,Pcbnew,(5.1.5)-3*
G04 #@! TF.CreationDate,2020-02-10T18:10:01+01:00*
G04 #@! TF.ProjectId,Mars-64,4d617273-2d36-4342-9e6b-696361645f70,A*
G04 #@! TF.SameCoordinates,Original*
G04 #@! TF.FileFunction,Copper,L4,Bot*
G04 #@! TF.FilePolarity,Positive*
%FSLAX46Y46*%
G04 Gerber Fmt 4.6, Leading zero omitted, Abs format (unit mm)*
G04 Created by KiCad (PCBNEW (5.1.5)-3) date 2020-02-10 18:10:01*
%MOMM*%
%LPD*%
G04 APERTURE LIST*
%ADD10C,0.100000*%
%ADD11R,5.000000X5.000000*%
%ADD12C,1.730000*%
%ADD13R,1.000000X1.000000*%
%ADD14R,1.000000X1.500000*%
%ADD15R,3.150000X1.000000*%
%ADD16C,0.800000*%
%ADD17C,0.250000*%
G04 APERTURE END LIST*
D10*
G36*
X76570000Y-32820000D02*
G01*
X77070000Y-32820000D01*
X77070000Y-32420000D01*
X76570000Y-32420000D01*
X76570000Y-32820000D01*
G37*
G36*
X76570000Y-33620000D02*
G01*
X77070000Y-33620000D01*
X77070000Y-33220000D01*
X76570000Y-33220000D01*
X76570000Y-33620000D01*
G37*
G04 #@! TA.AperFunction,SMDPad,CuDef*
G36*
X63252351Y-40280361D02*
G01*
X63259632Y-40281441D01*
X63266771Y-40283229D01*
X63273701Y-40285709D01*
X63280355Y-40288856D01*
X63286668Y-40292640D01*
X63292579Y-40297024D01*
X63298033Y-40301967D01*
X63302976Y-40307421D01*
X63307360Y-40313332D01*
X63311144Y-40319645D01*
X63314291Y-40326299D01*
X63316771Y-40333229D01*
X63318559Y-40340368D01*
X63319639Y-40347649D01*
X63320000Y-40355000D01*
X63320000Y-40505000D01*
X63319639Y-40512351D01*
X63318559Y-40519632D01*
X63316771Y-40526771D01*
X63314291Y-40533701D01*
X63311144Y-40540355D01*
X63307360Y-40546668D01*
X63302976Y-40552579D01*
X63298033Y-40558033D01*
X63292579Y-40562976D01*
X63286668Y-40567360D01*
X63280355Y-40571144D01*
X63273701Y-40574291D01*
X63266771Y-40576771D01*
X63259632Y-40578559D01*
X63252351Y-40579639D01*
X63245000Y-40580000D01*
X61920000Y-40580000D01*
X61912649Y-40579639D01*
X61905368Y-40578559D01*
X61898229Y-40576771D01*
X61891299Y-40574291D01*
X61884645Y-40571144D01*
X61878332Y-40567360D01*
X61872421Y-40562976D01*
X61866967Y-40558033D01*
X61862024Y-40552579D01*
X61857640Y-40546668D01*
X61853856Y-40540355D01*
X61850709Y-40533701D01*
X61848229Y-40526771D01*
X61846441Y-40519632D01*
X61845361Y-40512351D01*
X61845000Y-40505000D01*
X61845000Y-40355000D01*
X61845361Y-40347649D01*
X61846441Y-40340368D01*
X61848229Y-40333229D01*
X61850709Y-40326299D01*
X61853856Y-40319645D01*
X61857640Y-40313332D01*
X61862024Y-40307421D01*
X61866967Y-40301967D01*
X61872421Y-40297024D01*
X61878332Y-40292640D01*
X61884645Y-40288856D01*
X61891299Y-40285709D01*
X61898229Y-40283229D01*
X61905368Y-40281441D01*
X61912649Y-40280361D01*
X61920000Y-40280000D01*
X63245000Y-40280000D01*
X63252351Y-40280361D01*
G37*
G04 #@! TD.AperFunction*
G04 #@! TA.AperFunction,SMDPad,CuDef*
G36*
X63252351Y-40780361D02*
G01*
X63259632Y-40781441D01*
X63266771Y-40783229D01*
X63273701Y-40785709D01*
X63280355Y-40788856D01*
X63286668Y-40792640D01*
X63292579Y-40797024D01*
X63298033Y-40801967D01*
X63302976Y-40807421D01*
X63307360Y-40813332D01*
X63311144Y-40819645D01*
X63314291Y-40826299D01*
X63316771Y-40833229D01*
X63318559Y-40840368D01*
X63319639Y-40847649D01*
X63320000Y-40855000D01*
X63320000Y-41005000D01*
X63319639Y-41012351D01*
X63318559Y-41019632D01*
X63316771Y-41026771D01*
X63314291Y-41033701D01*
X63311144Y-41040355D01*
X63307360Y-41046668D01*
X63302976Y-41052579D01*
X63298033Y-41058033D01*
X63292579Y-41062976D01*
X63286668Y-41067360D01*
X63280355Y-41071144D01*
X63273701Y-41074291D01*
X63266771Y-41076771D01*
X63259632Y-41078559D01*
X63252351Y-41079639D01*
X63245000Y-41080000D01*
X61920000Y-41080000D01*
X61912649Y-41079639D01*
X61905368Y-41078559D01*
X61898229Y-41076771D01*
X61891299Y-41074291D01*
X61884645Y-41071144D01*
X61878332Y-41067360D01*
X61872421Y-41062976D01*
X61866967Y-41058033D01*
X61862024Y-41052579D01*
X61857640Y-41046668D01*
X61853856Y-41040355D01*
X61850709Y-41033701D01*
X61848229Y-41026771D01*
X61846441Y-41019632D01*
X61845361Y-41012351D01*
X61845000Y-41005000D01*
X61845000Y-40855000D01*
X61845361Y-40847649D01*
X61846441Y-40840368D01*
X61848229Y-40833229D01*
X61850709Y-40826299D01*
X61853856Y-40819645D01*
X61857640Y-40813332D01*
X61862024Y-40807421D01*
X61866967Y-40801967D01*
X61872421Y-40797024D01*
X61878332Y-40792640D01*
X61884645Y-40788856D01*
X61891299Y-40785709D01*
X61898229Y-40783229D01*
X61905368Y-40781441D01*
X61912649Y-40780361D01*
X61920000Y-40780000D01*
X63245000Y-40780000D01*
X63252351Y-40780361D01*
G37*
G04 #@! TD.AperFunction*
G04 #@! TA.AperFunction,SMDPad,CuDef*
G36*
X63252351Y-41280361D02*
G01*
X63259632Y-41281441D01*
X63266771Y-41283229D01*
X63273701Y-41285709D01*
X63280355Y-41288856D01*
X63286668Y-41292640D01*
X63292579Y-41297024D01*
X63298033Y-41301967D01*
X63302976Y-41307421D01*
X63307360Y-41313332D01*
X63311144Y-41319645D01*
X63314291Y-41326299D01*
X63316771Y-41333229D01*
X63318559Y-41340368D01*
X63319639Y-41347649D01*
X63320000Y-41355000D01*
X63320000Y-41505000D01*
X63319639Y-41512351D01*
X63318559Y-41519632D01*
X63316771Y-41526771D01*
X63314291Y-41533701D01*
X63311144Y-41540355D01*
X63307360Y-41546668D01*
X63302976Y-41552579D01*
X63298033Y-41558033D01*
X63292579Y-41562976D01*
X63286668Y-41567360D01*
X63280355Y-41571144D01*
X63273701Y-41574291D01*
X63266771Y-41576771D01*
X63259632Y-41578559D01*
X63252351Y-41579639D01*
X63245000Y-41580000D01*
X61920000Y-41580000D01*
X61912649Y-41579639D01*
X61905368Y-41578559D01*
X61898229Y-41576771D01*
X61891299Y-41574291D01*
X61884645Y-41571144D01*
X61878332Y-41567360D01*
X61872421Y-41562976D01*
X61866967Y-41558033D01*
X61862024Y-41552579D01*
X61857640Y-41546668D01*
X61853856Y-41540355D01*
X61850709Y-41533701D01*
X61848229Y-41526771D01*
X61846441Y-41519632D01*
X61845361Y-41512351D01*
X61845000Y-41505000D01*
X61845000Y-41355000D01*
X61845361Y-41347649D01*
X61846441Y-41340368D01*
X61848229Y-41333229D01*
X61850709Y-41326299D01*
X61853856Y-41319645D01*
X61857640Y-41313332D01*
X61862024Y-41307421D01*
X61866967Y-41301967D01*
X61872421Y-41297024D01*
X61878332Y-41292640D01*
X61884645Y-41288856D01*
X61891299Y-41285709D01*
X61898229Y-41283229D01*
X61905368Y-41281441D01*
X61912649Y-41280361D01*
X61920000Y-41280000D01*
X63245000Y-41280000D01*
X63252351Y-41280361D01*
G37*
G04 #@! TD.AperFunction*
G04 #@! TA.AperFunction,SMDPad,CuDef*
G36*
X63252351Y-41780361D02*
G01*
X63259632Y-41781441D01*
X63266771Y-41783229D01*
X63273701Y-41785709D01*
X63280355Y-41788856D01*
X63286668Y-41792640D01*
X63292579Y-41797024D01*
X63298033Y-41801967D01*
X63302976Y-41807421D01*
X63307360Y-41813332D01*
X63311144Y-41819645D01*
X63314291Y-41826299D01*
X63316771Y-41833229D01*
X63318559Y-41840368D01*
X63319639Y-41847649D01*
X63320000Y-41855000D01*
X63320000Y-42005000D01*
X63319639Y-42012351D01*
X63318559Y-42019632D01*
X63316771Y-42026771D01*
X63314291Y-42033701D01*
X63311144Y-42040355D01*
X63307360Y-42046668D01*
X63302976Y-42052579D01*
X63298033Y-42058033D01*
X63292579Y-42062976D01*
X63286668Y-42067360D01*
X63280355Y-42071144D01*
X63273701Y-42074291D01*
X63266771Y-42076771D01*
X63259632Y-42078559D01*
X63252351Y-42079639D01*
X63245000Y-42080000D01*
X61920000Y-42080000D01*
X61912649Y-42079639D01*
X61905368Y-42078559D01*
X61898229Y-42076771D01*
X61891299Y-42074291D01*
X61884645Y-42071144D01*
X61878332Y-42067360D01*
X61872421Y-42062976D01*
X61866967Y-42058033D01*
X61862024Y-42052579D01*
X61857640Y-42046668D01*
X61853856Y-42040355D01*
X61850709Y-42033701D01*
X61848229Y-42026771D01*
X61846441Y-42019632D01*
X61845361Y-42012351D01*
X61845000Y-42005000D01*
X61845000Y-41855000D01*
X61845361Y-41847649D01*
X61846441Y-41840368D01*
X61848229Y-41833229D01*
X61850709Y-41826299D01*
X61853856Y-41819645D01*
X61857640Y-41813332D01*
X61862024Y-41807421D01*
X61866967Y-41801967D01*
X61872421Y-41797024D01*
X61878332Y-41792640D01*
X61884645Y-41788856D01*
X61891299Y-41785709D01*
X61898229Y-41783229D01*
X61905368Y-41781441D01*
X61912649Y-41780361D01*
X61920000Y-41780000D01*
X63245000Y-41780000D01*
X63252351Y-41780361D01*
G37*
G04 #@! TD.AperFunction*
G04 #@! TA.AperFunction,SMDPad,CuDef*
G36*
X63252351Y-42280361D02*
G01*
X63259632Y-42281441D01*
X63266771Y-42283229D01*
X63273701Y-42285709D01*
X63280355Y-42288856D01*
X63286668Y-42292640D01*
X63292579Y-42297024D01*
X63298033Y-42301967D01*
X63302976Y-42307421D01*
X63307360Y-42313332D01*
X63311144Y-42319645D01*
X63314291Y-42326299D01*
X63316771Y-42333229D01*
X63318559Y-42340368D01*
X63319639Y-42347649D01*
X63320000Y-42355000D01*
X63320000Y-42505000D01*
X63319639Y-42512351D01*
X63318559Y-42519632D01*
X63316771Y-42526771D01*
X63314291Y-42533701D01*
X63311144Y-42540355D01*
X63307360Y-42546668D01*
X63302976Y-42552579D01*
X63298033Y-42558033D01*
X63292579Y-42562976D01*
X63286668Y-42567360D01*
X63280355Y-42571144D01*
X63273701Y-42574291D01*
X63266771Y-42576771D01*
X63259632Y-42578559D01*
X63252351Y-42579639D01*
X63245000Y-42580000D01*
X61920000Y-42580000D01*
X61912649Y-42579639D01*
X61905368Y-42578559D01*
X61898229Y-42576771D01*
X61891299Y-42574291D01*
X61884645Y-42571144D01*
X61878332Y-42567360D01*
X61872421Y-42562976D01*
X61866967Y-42558033D01*
X61862024Y-42552579D01*
X61857640Y-42546668D01*
X61853856Y-42540355D01*
X61850709Y-42533701D01*
X61848229Y-42526771D01*
X61846441Y-42519632D01*
X61845361Y-42512351D01*
X61845000Y-42505000D01*
X61845000Y-42355000D01*
X61845361Y-42347649D01*
X61846441Y-42340368D01*
X61848229Y-42333229D01*
X61850709Y-42326299D01*
X61853856Y-42319645D01*
X61857640Y-42313332D01*
X61862024Y-42307421D01*
X61866967Y-42301967D01*
X61872421Y-42297024D01*
X61878332Y-42292640D01*
X61884645Y-42288856D01*
X61891299Y-42285709D01*
X61898229Y-42283229D01*
X61905368Y-42281441D01*
X61912649Y-42280361D01*
X61920000Y-42280000D01*
X63245000Y-42280000D01*
X63252351Y-42280361D01*
G37*
G04 #@! TD.AperFunction*
G04 #@! TA.AperFunction,SMDPad,CuDef*
G36*
X63252351Y-42780361D02*
G01*
X63259632Y-42781441D01*
X63266771Y-42783229D01*
X63273701Y-42785709D01*
X63280355Y-42788856D01*
X63286668Y-42792640D01*
X63292579Y-42797024D01*
X63298033Y-42801967D01*
X63302976Y-42807421D01*
X63307360Y-42813332D01*
X63311144Y-42819645D01*
X63314291Y-42826299D01*
X63316771Y-42833229D01*
X63318559Y-42840368D01*
X63319639Y-42847649D01*
X63320000Y-42855000D01*
X63320000Y-43005000D01*
X63319639Y-43012351D01*
X63318559Y-43019632D01*
X63316771Y-43026771D01*
X63314291Y-43033701D01*
X63311144Y-43040355D01*
X63307360Y-43046668D01*
X63302976Y-43052579D01*
X63298033Y-43058033D01*
X63292579Y-43062976D01*
X63286668Y-43067360D01*
X63280355Y-43071144D01*
X63273701Y-43074291D01*
X63266771Y-43076771D01*
X63259632Y-43078559D01*
X63252351Y-43079639D01*
X63245000Y-43080000D01*
X61920000Y-43080000D01*
X61912649Y-43079639D01*
X61905368Y-43078559D01*
X61898229Y-43076771D01*
X61891299Y-43074291D01*
X61884645Y-43071144D01*
X61878332Y-43067360D01*
X61872421Y-43062976D01*
X61866967Y-43058033D01*
X61862024Y-43052579D01*
X61857640Y-43046668D01*
X61853856Y-43040355D01*
X61850709Y-43033701D01*
X61848229Y-43026771D01*
X61846441Y-43019632D01*
X61845361Y-43012351D01*
X61845000Y-43005000D01*
X61845000Y-42855000D01*
X61845361Y-42847649D01*
X61846441Y-42840368D01*
X61848229Y-42833229D01*
X61850709Y-42826299D01*
X61853856Y-42819645D01*
X61857640Y-42813332D01*
X61862024Y-42807421D01*
X61866967Y-42801967D01*
X61872421Y-42797024D01*
X61878332Y-42792640D01*
X61884645Y-42788856D01*
X61891299Y-42785709D01*
X61898229Y-42783229D01*
X61905368Y-42781441D01*
X61912649Y-42780361D01*
X61920000Y-42780000D01*
X63245000Y-42780000D01*
X63252351Y-42780361D01*
G37*
G04 #@! TD.AperFunction*
G04 #@! TA.AperFunction,SMDPad,CuDef*
G36*
X63252351Y-43280361D02*
G01*
X63259632Y-43281441D01*
X63266771Y-43283229D01*
X63273701Y-43285709D01*
X63280355Y-43288856D01*
X63286668Y-43292640D01*
X63292579Y-43297024D01*
X63298033Y-43301967D01*
X63302976Y-43307421D01*
X63307360Y-43313332D01*
X63311144Y-43319645D01*
X63314291Y-43326299D01*
X63316771Y-43333229D01*
X63318559Y-43340368D01*
X63319639Y-43347649D01*
X63320000Y-43355000D01*
X63320000Y-43505000D01*
X63319639Y-43512351D01*
X63318559Y-43519632D01*
X63316771Y-43526771D01*
X63314291Y-43533701D01*
X63311144Y-43540355D01*
X63307360Y-43546668D01*
X63302976Y-43552579D01*
X63298033Y-43558033D01*
X63292579Y-43562976D01*
X63286668Y-43567360D01*
X63280355Y-43571144D01*
X63273701Y-43574291D01*
X63266771Y-43576771D01*
X63259632Y-43578559D01*
X63252351Y-43579639D01*
X63245000Y-43580000D01*
X61920000Y-43580000D01*
X61912649Y-43579639D01*
X61905368Y-43578559D01*
X61898229Y-43576771D01*
X61891299Y-43574291D01*
X61884645Y-43571144D01*
X61878332Y-43567360D01*
X61872421Y-43562976D01*
X61866967Y-43558033D01*
X61862024Y-43552579D01*
X61857640Y-43546668D01*
X61853856Y-43540355D01*
X61850709Y-43533701D01*
X61848229Y-43526771D01*
X61846441Y-43519632D01*
X61845361Y-43512351D01*
X61845000Y-43505000D01*
X61845000Y-43355000D01*
X61845361Y-43347649D01*
X61846441Y-43340368D01*
X61848229Y-43333229D01*
X61850709Y-43326299D01*
X61853856Y-43319645D01*
X61857640Y-43313332D01*
X61862024Y-43307421D01*
X61866967Y-43301967D01*
X61872421Y-43297024D01*
X61878332Y-43292640D01*
X61884645Y-43288856D01*
X61891299Y-43285709D01*
X61898229Y-43283229D01*
X61905368Y-43281441D01*
X61912649Y-43280361D01*
X61920000Y-43280000D01*
X63245000Y-43280000D01*
X63252351Y-43280361D01*
G37*
G04 #@! TD.AperFunction*
G04 #@! TA.AperFunction,SMDPad,CuDef*
G36*
X63252351Y-43780361D02*
G01*
X63259632Y-43781441D01*
X63266771Y-43783229D01*
X63273701Y-43785709D01*
X63280355Y-43788856D01*
X63286668Y-43792640D01*
X63292579Y-43797024D01*
X63298033Y-43801967D01*
X63302976Y-43807421D01*
X63307360Y-43813332D01*
X63311144Y-43819645D01*
X63314291Y-43826299D01*
X63316771Y-43833229D01*
X63318559Y-43840368D01*
X63319639Y-43847649D01*
X63320000Y-43855000D01*
X63320000Y-44005000D01*
X63319639Y-44012351D01*
X63318559Y-44019632D01*
X63316771Y-44026771D01*
X63314291Y-44033701D01*
X63311144Y-44040355D01*
X63307360Y-44046668D01*
X63302976Y-44052579D01*
X63298033Y-44058033D01*
X63292579Y-44062976D01*
X63286668Y-44067360D01*
X63280355Y-44071144D01*
X63273701Y-44074291D01*
X63266771Y-44076771D01*
X63259632Y-44078559D01*
X63252351Y-44079639D01*
X63245000Y-44080000D01*
X61920000Y-44080000D01*
X61912649Y-44079639D01*
X61905368Y-44078559D01*
X61898229Y-44076771D01*
X61891299Y-44074291D01*
X61884645Y-44071144D01*
X61878332Y-44067360D01*
X61872421Y-44062976D01*
X61866967Y-44058033D01*
X61862024Y-44052579D01*
X61857640Y-44046668D01*
X61853856Y-44040355D01*
X61850709Y-44033701D01*
X61848229Y-44026771D01*
X61846441Y-44019632D01*
X61845361Y-44012351D01*
X61845000Y-44005000D01*
X61845000Y-43855000D01*
X61845361Y-43847649D01*
X61846441Y-43840368D01*
X61848229Y-43833229D01*
X61850709Y-43826299D01*
X61853856Y-43819645D01*
X61857640Y-43813332D01*
X61862024Y-43807421D01*
X61866967Y-43801967D01*
X61872421Y-43797024D01*
X61878332Y-43792640D01*
X61884645Y-43788856D01*
X61891299Y-43785709D01*
X61898229Y-43783229D01*
X61905368Y-43781441D01*
X61912649Y-43780361D01*
X61920000Y-43780000D01*
X63245000Y-43780000D01*
X63252351Y-43780361D01*
G37*
G04 #@! TD.AperFunction*
G04 #@! TA.AperFunction,SMDPad,CuDef*
G36*
X63252351Y-44280361D02*
G01*
X63259632Y-44281441D01*
X63266771Y-44283229D01*
X63273701Y-44285709D01*
X63280355Y-44288856D01*
X63286668Y-44292640D01*
X63292579Y-44297024D01*
X63298033Y-44301967D01*
X63302976Y-44307421D01*
X63307360Y-44313332D01*
X63311144Y-44319645D01*
X63314291Y-44326299D01*
X63316771Y-44333229D01*
X63318559Y-44340368D01*
X63319639Y-44347649D01*
X63320000Y-44355000D01*
X63320000Y-44505000D01*
X63319639Y-44512351D01*
X63318559Y-44519632D01*
X63316771Y-44526771D01*
X63314291Y-44533701D01*
X63311144Y-44540355D01*
X63307360Y-44546668D01*
X63302976Y-44552579D01*
X63298033Y-44558033D01*
X63292579Y-44562976D01*
X63286668Y-44567360D01*
X63280355Y-44571144D01*
X63273701Y-44574291D01*
X63266771Y-44576771D01*
X63259632Y-44578559D01*
X63252351Y-44579639D01*
X63245000Y-44580000D01*
X61920000Y-44580000D01*
X61912649Y-44579639D01*
X61905368Y-44578559D01*
X61898229Y-44576771D01*
X61891299Y-44574291D01*
X61884645Y-44571144D01*
X61878332Y-44567360D01*
X61872421Y-44562976D01*
X61866967Y-44558033D01*
X61862024Y-44552579D01*
X61857640Y-44546668D01*
X61853856Y-44540355D01*
X61850709Y-44533701D01*
X61848229Y-44526771D01*
X61846441Y-44519632D01*
X61845361Y-44512351D01*
X61845000Y-44505000D01*
X61845000Y-44355000D01*
X61845361Y-44347649D01*
X61846441Y-44340368D01*
X61848229Y-44333229D01*
X61850709Y-44326299D01*
X61853856Y-44319645D01*
X61857640Y-44313332D01*
X61862024Y-44307421D01*
X61866967Y-44301967D01*
X61872421Y-44297024D01*
X61878332Y-44292640D01*
X61884645Y-44288856D01*
X61891299Y-44285709D01*
X61898229Y-44283229D01*
X61905368Y-44281441D01*
X61912649Y-44280361D01*
X61920000Y-44280000D01*
X63245000Y-44280000D01*
X63252351Y-44280361D01*
G37*
G04 #@! TD.AperFunction*
G04 #@! TA.AperFunction,SMDPad,CuDef*
G36*
X63252351Y-44780361D02*
G01*
X63259632Y-44781441D01*
X63266771Y-44783229D01*
X63273701Y-44785709D01*
X63280355Y-44788856D01*
X63286668Y-44792640D01*
X63292579Y-44797024D01*
X63298033Y-44801967D01*
X63302976Y-44807421D01*
X63307360Y-44813332D01*
X63311144Y-44819645D01*
X63314291Y-44826299D01*
X63316771Y-44833229D01*
X63318559Y-44840368D01*
X63319639Y-44847649D01*
X63320000Y-44855000D01*
X63320000Y-45005000D01*
X63319639Y-45012351D01*
X63318559Y-45019632D01*
X63316771Y-45026771D01*
X63314291Y-45033701D01*
X63311144Y-45040355D01*
X63307360Y-45046668D01*
X63302976Y-45052579D01*
X63298033Y-45058033D01*
X63292579Y-45062976D01*
X63286668Y-45067360D01*
X63280355Y-45071144D01*
X63273701Y-45074291D01*
X63266771Y-45076771D01*
X63259632Y-45078559D01*
X63252351Y-45079639D01*
X63245000Y-45080000D01*
X61920000Y-45080000D01*
X61912649Y-45079639D01*
X61905368Y-45078559D01*
X61898229Y-45076771D01*
X61891299Y-45074291D01*
X61884645Y-45071144D01*
X61878332Y-45067360D01*
X61872421Y-45062976D01*
X61866967Y-45058033D01*
X61862024Y-45052579D01*
X61857640Y-45046668D01*
X61853856Y-45040355D01*
X61850709Y-45033701D01*
X61848229Y-45026771D01*
X61846441Y-45019632D01*
X61845361Y-45012351D01*
X61845000Y-45005000D01*
X61845000Y-44855000D01*
X61845361Y-44847649D01*
X61846441Y-44840368D01*
X61848229Y-44833229D01*
X61850709Y-44826299D01*
X61853856Y-44819645D01*
X61857640Y-44813332D01*
X61862024Y-44807421D01*
X61866967Y-44801967D01*
X61872421Y-44797024D01*
X61878332Y-44792640D01*
X61884645Y-44788856D01*
X61891299Y-44785709D01*
X61898229Y-44783229D01*
X61905368Y-44781441D01*
X61912649Y-44780361D01*
X61920000Y-44780000D01*
X63245000Y-44780000D01*
X63252351Y-44780361D01*
G37*
G04 #@! TD.AperFunction*
G04 #@! TA.AperFunction,SMDPad,CuDef*
G36*
X63252351Y-45280361D02*
G01*
X63259632Y-45281441D01*
X63266771Y-45283229D01*
X63273701Y-45285709D01*
X63280355Y-45288856D01*
X63286668Y-45292640D01*
X63292579Y-45297024D01*
X63298033Y-45301967D01*
X63302976Y-45307421D01*
X63307360Y-45313332D01*
X63311144Y-45319645D01*
X63314291Y-45326299D01*
X63316771Y-45333229D01*
X63318559Y-45340368D01*
X63319639Y-45347649D01*
X63320000Y-45355000D01*
X63320000Y-45505000D01*
X63319639Y-45512351D01*
X63318559Y-45519632D01*
X63316771Y-45526771D01*
X63314291Y-45533701D01*
X63311144Y-45540355D01*
X63307360Y-45546668D01*
X63302976Y-45552579D01*
X63298033Y-45558033D01*
X63292579Y-45562976D01*
X63286668Y-45567360D01*
X63280355Y-45571144D01*
X63273701Y-45574291D01*
X63266771Y-45576771D01*
X63259632Y-45578559D01*
X63252351Y-45579639D01*
X63245000Y-45580000D01*
X61920000Y-45580000D01*
X61912649Y-45579639D01*
X61905368Y-45578559D01*
X61898229Y-45576771D01*
X61891299Y-45574291D01*
X61884645Y-45571144D01*
X61878332Y-45567360D01*
X61872421Y-45562976D01*
X61866967Y-45558033D01*
X61862024Y-45552579D01*
X61857640Y-45546668D01*
X61853856Y-45540355D01*
X61850709Y-45533701D01*
X61848229Y-45526771D01*
X61846441Y-45519632D01*
X61845361Y-45512351D01*
X61845000Y-45505000D01*
X61845000Y-45355000D01*
X61845361Y-45347649D01*
X61846441Y-45340368D01*
X61848229Y-45333229D01*
X61850709Y-45326299D01*
X61853856Y-45319645D01*
X61857640Y-45313332D01*
X61862024Y-45307421D01*
X61866967Y-45301967D01*
X61872421Y-45297024D01*
X61878332Y-45292640D01*
X61884645Y-45288856D01*
X61891299Y-45285709D01*
X61898229Y-45283229D01*
X61905368Y-45281441D01*
X61912649Y-45280361D01*
X61920000Y-45280000D01*
X63245000Y-45280000D01*
X63252351Y-45280361D01*
G37*
G04 #@! TD.AperFunction*
G04 #@! TA.AperFunction,SMDPad,CuDef*
G36*
X63252351Y-45780361D02*
G01*
X63259632Y-45781441D01*
X63266771Y-45783229D01*
X63273701Y-45785709D01*
X63280355Y-45788856D01*
X63286668Y-45792640D01*
X63292579Y-45797024D01*
X63298033Y-45801967D01*
X63302976Y-45807421D01*
X63307360Y-45813332D01*
X63311144Y-45819645D01*
X63314291Y-45826299D01*
X63316771Y-45833229D01*
X63318559Y-45840368D01*
X63319639Y-45847649D01*
X63320000Y-45855000D01*
X63320000Y-46005000D01*
X63319639Y-46012351D01*
X63318559Y-46019632D01*
X63316771Y-46026771D01*
X63314291Y-46033701D01*
X63311144Y-46040355D01*
X63307360Y-46046668D01*
X63302976Y-46052579D01*
X63298033Y-46058033D01*
X63292579Y-46062976D01*
X63286668Y-46067360D01*
X63280355Y-46071144D01*
X63273701Y-46074291D01*
X63266771Y-46076771D01*
X63259632Y-46078559D01*
X63252351Y-46079639D01*
X63245000Y-46080000D01*
X61920000Y-46080000D01*
X61912649Y-46079639D01*
X61905368Y-46078559D01*
X61898229Y-46076771D01*
X61891299Y-46074291D01*
X61884645Y-46071144D01*
X61878332Y-46067360D01*
X61872421Y-46062976D01*
X61866967Y-46058033D01*
X61862024Y-46052579D01*
X61857640Y-46046668D01*
X61853856Y-46040355D01*
X61850709Y-46033701D01*
X61848229Y-46026771D01*
X61846441Y-46019632D01*
X61845361Y-46012351D01*
X61845000Y-46005000D01*
X61845000Y-45855000D01*
X61845361Y-45847649D01*
X61846441Y-45840368D01*
X61848229Y-45833229D01*
X61850709Y-45826299D01*
X61853856Y-45819645D01*
X61857640Y-45813332D01*
X61862024Y-45807421D01*
X61866967Y-45801967D01*
X61872421Y-45797024D01*
X61878332Y-45792640D01*
X61884645Y-45788856D01*
X61891299Y-45785709D01*
X61898229Y-45783229D01*
X61905368Y-45781441D01*
X61912649Y-45780361D01*
X61920000Y-45780000D01*
X63245000Y-45780000D01*
X63252351Y-45780361D01*
G37*
G04 #@! TD.AperFunction*
G04 #@! TA.AperFunction,SMDPad,CuDef*
G36*
X61252351Y-46605361D02*
G01*
X61259632Y-46606441D01*
X61266771Y-46608229D01*
X61273701Y-46610709D01*
X61280355Y-46613856D01*
X61286668Y-46617640D01*
X61292579Y-46622024D01*
X61298033Y-46626967D01*
X61302976Y-46632421D01*
X61307360Y-46638332D01*
X61311144Y-46644645D01*
X61314291Y-46651299D01*
X61316771Y-46658229D01*
X61318559Y-46665368D01*
X61319639Y-46672649D01*
X61320000Y-46680000D01*
X61320000Y-48005000D01*
X61319639Y-48012351D01*
X61318559Y-48019632D01*
X61316771Y-48026771D01*
X61314291Y-48033701D01*
X61311144Y-48040355D01*
X61307360Y-48046668D01*
X61302976Y-48052579D01*
X61298033Y-48058033D01*
X61292579Y-48062976D01*
X61286668Y-48067360D01*
X61280355Y-48071144D01*
X61273701Y-48074291D01*
X61266771Y-48076771D01*
X61259632Y-48078559D01*
X61252351Y-48079639D01*
X61245000Y-48080000D01*
X61095000Y-48080000D01*
X61087649Y-48079639D01*
X61080368Y-48078559D01*
X61073229Y-48076771D01*
X61066299Y-48074291D01*
X61059645Y-48071144D01*
X61053332Y-48067360D01*
X61047421Y-48062976D01*
X61041967Y-48058033D01*
X61037024Y-48052579D01*
X61032640Y-48046668D01*
X61028856Y-48040355D01*
X61025709Y-48033701D01*
X61023229Y-48026771D01*
X61021441Y-48019632D01*
X61020361Y-48012351D01*
X61020000Y-48005000D01*
X61020000Y-46680000D01*
X61020361Y-46672649D01*
X61021441Y-46665368D01*
X61023229Y-46658229D01*
X61025709Y-46651299D01*
X61028856Y-46644645D01*
X61032640Y-46638332D01*
X61037024Y-46632421D01*
X61041967Y-46626967D01*
X61047421Y-46622024D01*
X61053332Y-46617640D01*
X61059645Y-46613856D01*
X61066299Y-46610709D01*
X61073229Y-46608229D01*
X61080368Y-46606441D01*
X61087649Y-46605361D01*
X61095000Y-46605000D01*
X61245000Y-46605000D01*
X61252351Y-46605361D01*
G37*
G04 #@! TD.AperFunction*
G04 #@! TA.AperFunction,SMDPad,CuDef*
G36*
X60752351Y-46605361D02*
G01*
X60759632Y-46606441D01*
X60766771Y-46608229D01*
X60773701Y-46610709D01*
X60780355Y-46613856D01*
X60786668Y-46617640D01*
X60792579Y-46622024D01*
X60798033Y-46626967D01*
X60802976Y-46632421D01*
X60807360Y-46638332D01*
X60811144Y-46644645D01*
X60814291Y-46651299D01*
X60816771Y-46658229D01*
X60818559Y-46665368D01*
X60819639Y-46672649D01*
X60820000Y-46680000D01*
X60820000Y-48005000D01*
X60819639Y-48012351D01*
X60818559Y-48019632D01*
X60816771Y-48026771D01*
X60814291Y-48033701D01*
X60811144Y-48040355D01*
X60807360Y-48046668D01*
X60802976Y-48052579D01*
X60798033Y-48058033D01*
X60792579Y-48062976D01*
X60786668Y-48067360D01*
X60780355Y-48071144D01*
X60773701Y-48074291D01*
X60766771Y-48076771D01*
X60759632Y-48078559D01*
X60752351Y-48079639D01*
X60745000Y-48080000D01*
X60595000Y-48080000D01*
X60587649Y-48079639D01*
X60580368Y-48078559D01*
X60573229Y-48076771D01*
X60566299Y-48074291D01*
X60559645Y-48071144D01*
X60553332Y-48067360D01*
X60547421Y-48062976D01*
X60541967Y-48058033D01*
X60537024Y-48052579D01*
X60532640Y-48046668D01*
X60528856Y-48040355D01*
X60525709Y-48033701D01*
X60523229Y-48026771D01*
X60521441Y-48019632D01*
X60520361Y-48012351D01*
X60520000Y-48005000D01*
X60520000Y-46680000D01*
X60520361Y-46672649D01*
X60521441Y-46665368D01*
X60523229Y-46658229D01*
X60525709Y-46651299D01*
X60528856Y-46644645D01*
X60532640Y-46638332D01*
X60537024Y-46632421D01*
X60541967Y-46626967D01*
X60547421Y-46622024D01*
X60553332Y-46617640D01*
X60559645Y-46613856D01*
X60566299Y-46610709D01*
X60573229Y-46608229D01*
X60580368Y-46606441D01*
X60587649Y-46605361D01*
X60595000Y-46605000D01*
X60745000Y-46605000D01*
X60752351Y-46605361D01*
G37*
G04 #@! TD.AperFunction*
G04 #@! TA.AperFunction,SMDPad,CuDef*
G36*
X60252351Y-46605361D02*
G01*
X60259632Y-46606441D01*
X60266771Y-46608229D01*
X60273701Y-46610709D01*
X60280355Y-46613856D01*
X60286668Y-46617640D01*
X60292579Y-46622024D01*
X60298033Y-46626967D01*
X60302976Y-46632421D01*
X60307360Y-46638332D01*
X60311144Y-46644645D01*
X60314291Y-46651299D01*
X60316771Y-46658229D01*
X60318559Y-46665368D01*
X60319639Y-46672649D01*
X60320000Y-46680000D01*
X60320000Y-48005000D01*
X60319639Y-48012351D01*
X60318559Y-48019632D01*
X60316771Y-48026771D01*
X60314291Y-48033701D01*
X60311144Y-48040355D01*
X60307360Y-48046668D01*
X60302976Y-48052579D01*
X60298033Y-48058033D01*
X60292579Y-48062976D01*
X60286668Y-48067360D01*
X60280355Y-48071144D01*
X60273701Y-48074291D01*
X60266771Y-48076771D01*
X60259632Y-48078559D01*
X60252351Y-48079639D01*
X60245000Y-48080000D01*
X60095000Y-48080000D01*
X60087649Y-48079639D01*
X60080368Y-48078559D01*
X60073229Y-48076771D01*
X60066299Y-48074291D01*
X60059645Y-48071144D01*
X60053332Y-48067360D01*
X60047421Y-48062976D01*
X60041967Y-48058033D01*
X60037024Y-48052579D01*
X60032640Y-48046668D01*
X60028856Y-48040355D01*
X60025709Y-48033701D01*
X60023229Y-48026771D01*
X60021441Y-48019632D01*
X60020361Y-48012351D01*
X60020000Y-48005000D01*
X60020000Y-46680000D01*
X60020361Y-46672649D01*
X60021441Y-46665368D01*
X60023229Y-46658229D01*
X60025709Y-46651299D01*
X60028856Y-46644645D01*
X60032640Y-46638332D01*
X60037024Y-46632421D01*
X60041967Y-46626967D01*
X60047421Y-46622024D01*
X60053332Y-46617640D01*
X60059645Y-46613856D01*
X60066299Y-46610709D01*
X60073229Y-46608229D01*
X60080368Y-46606441D01*
X60087649Y-46605361D01*
X60095000Y-46605000D01*
X60245000Y-46605000D01*
X60252351Y-46605361D01*
G37*
G04 #@! TD.AperFunction*
G04 #@! TA.AperFunction,SMDPad,CuDef*
G36*
X59752351Y-46605361D02*
G01*
X59759632Y-46606441D01*
X59766771Y-46608229D01*
X59773701Y-46610709D01*
X59780355Y-46613856D01*
X59786668Y-46617640D01*
X59792579Y-46622024D01*
X59798033Y-46626967D01*
X59802976Y-46632421D01*
X59807360Y-46638332D01*
X59811144Y-46644645D01*
X59814291Y-46651299D01*
X59816771Y-46658229D01*
X59818559Y-46665368D01*
X59819639Y-46672649D01*
X59820000Y-46680000D01*
X59820000Y-48005000D01*
X59819639Y-48012351D01*
X59818559Y-48019632D01*
X59816771Y-48026771D01*
X59814291Y-48033701D01*
X59811144Y-48040355D01*
X59807360Y-48046668D01*
X59802976Y-48052579D01*
X59798033Y-48058033D01*
X59792579Y-48062976D01*
X59786668Y-48067360D01*
X59780355Y-48071144D01*
X59773701Y-48074291D01*
X59766771Y-48076771D01*
X59759632Y-48078559D01*
X59752351Y-48079639D01*
X59745000Y-48080000D01*
X59595000Y-48080000D01*
X59587649Y-48079639D01*
X59580368Y-48078559D01*
X59573229Y-48076771D01*
X59566299Y-48074291D01*
X59559645Y-48071144D01*
X59553332Y-48067360D01*
X59547421Y-48062976D01*
X59541967Y-48058033D01*
X59537024Y-48052579D01*
X59532640Y-48046668D01*
X59528856Y-48040355D01*
X59525709Y-48033701D01*
X59523229Y-48026771D01*
X59521441Y-48019632D01*
X59520361Y-48012351D01*
X59520000Y-48005000D01*
X59520000Y-46680000D01*
X59520361Y-46672649D01*
X59521441Y-46665368D01*
X59523229Y-46658229D01*
X59525709Y-46651299D01*
X59528856Y-46644645D01*
X59532640Y-46638332D01*
X59537024Y-46632421D01*
X59541967Y-46626967D01*
X59547421Y-46622024D01*
X59553332Y-46617640D01*
X59559645Y-46613856D01*
X59566299Y-46610709D01*
X59573229Y-46608229D01*
X59580368Y-46606441D01*
X59587649Y-46605361D01*
X59595000Y-46605000D01*
X59745000Y-46605000D01*
X59752351Y-46605361D01*
G37*
G04 #@! TD.AperFunction*
G04 #@! TA.AperFunction,SMDPad,CuDef*
G36*
X59252351Y-46605361D02*
G01*
X59259632Y-46606441D01*
X59266771Y-46608229D01*
X59273701Y-46610709D01*
X59280355Y-46613856D01*
X59286668Y-46617640D01*
X59292579Y-46622024D01*
X59298033Y-46626967D01*
X59302976Y-46632421D01*
X59307360Y-46638332D01*
X59311144Y-46644645D01*
X59314291Y-46651299D01*
X59316771Y-46658229D01*
X59318559Y-46665368D01*
X59319639Y-46672649D01*
X59320000Y-46680000D01*
X59320000Y-48005000D01*
X59319639Y-48012351D01*
X59318559Y-48019632D01*
X59316771Y-48026771D01*
X59314291Y-48033701D01*
X59311144Y-48040355D01*
X59307360Y-48046668D01*
X59302976Y-48052579D01*
X59298033Y-48058033D01*
X59292579Y-48062976D01*
X59286668Y-48067360D01*
X59280355Y-48071144D01*
X59273701Y-48074291D01*
X59266771Y-48076771D01*
X59259632Y-48078559D01*
X59252351Y-48079639D01*
X59245000Y-48080000D01*
X59095000Y-48080000D01*
X59087649Y-48079639D01*
X59080368Y-48078559D01*
X59073229Y-48076771D01*
X59066299Y-48074291D01*
X59059645Y-48071144D01*
X59053332Y-48067360D01*
X59047421Y-48062976D01*
X59041967Y-48058033D01*
X59037024Y-48052579D01*
X59032640Y-48046668D01*
X59028856Y-48040355D01*
X59025709Y-48033701D01*
X59023229Y-48026771D01*
X59021441Y-48019632D01*
X59020361Y-48012351D01*
X59020000Y-48005000D01*
X59020000Y-46680000D01*
X59020361Y-46672649D01*
X59021441Y-46665368D01*
X59023229Y-46658229D01*
X59025709Y-46651299D01*
X59028856Y-46644645D01*
X59032640Y-46638332D01*
X59037024Y-46632421D01*
X59041967Y-46626967D01*
X59047421Y-46622024D01*
X59053332Y-46617640D01*
X59059645Y-46613856D01*
X59066299Y-46610709D01*
X59073229Y-46608229D01*
X59080368Y-46606441D01*
X59087649Y-46605361D01*
X59095000Y-46605000D01*
X59245000Y-46605000D01*
X59252351Y-46605361D01*
G37*
G04 #@! TD.AperFunction*
G04 #@! TA.AperFunction,SMDPad,CuDef*
G36*
X58752351Y-46605361D02*
G01*
X58759632Y-46606441D01*
X58766771Y-46608229D01*
X58773701Y-46610709D01*
X58780355Y-46613856D01*
X58786668Y-46617640D01*
X58792579Y-46622024D01*
X58798033Y-46626967D01*
X58802976Y-46632421D01*
X58807360Y-46638332D01*
X58811144Y-46644645D01*
X58814291Y-46651299D01*
X58816771Y-46658229D01*
X58818559Y-46665368D01*
X58819639Y-46672649D01*
X58820000Y-46680000D01*
X58820000Y-48005000D01*
X58819639Y-48012351D01*
X58818559Y-48019632D01*
X58816771Y-48026771D01*
X58814291Y-48033701D01*
X58811144Y-48040355D01*
X58807360Y-48046668D01*
X58802976Y-48052579D01*
X58798033Y-48058033D01*
X58792579Y-48062976D01*
X58786668Y-48067360D01*
X58780355Y-48071144D01*
X58773701Y-48074291D01*
X58766771Y-48076771D01*
X58759632Y-48078559D01*
X58752351Y-48079639D01*
X58745000Y-48080000D01*
X58595000Y-48080000D01*
X58587649Y-48079639D01*
X58580368Y-48078559D01*
X58573229Y-48076771D01*
X58566299Y-48074291D01*
X58559645Y-48071144D01*
X58553332Y-48067360D01*
X58547421Y-48062976D01*
X58541967Y-48058033D01*
X58537024Y-48052579D01*
X58532640Y-48046668D01*
X58528856Y-48040355D01*
X58525709Y-48033701D01*
X58523229Y-48026771D01*
X58521441Y-48019632D01*
X58520361Y-48012351D01*
X58520000Y-48005000D01*
X58520000Y-46680000D01*
X58520361Y-46672649D01*
X58521441Y-46665368D01*
X58523229Y-46658229D01*
X58525709Y-46651299D01*
X58528856Y-46644645D01*
X58532640Y-46638332D01*
X58537024Y-46632421D01*
X58541967Y-46626967D01*
X58547421Y-46622024D01*
X58553332Y-46617640D01*
X58559645Y-46613856D01*
X58566299Y-46610709D01*
X58573229Y-46608229D01*
X58580368Y-46606441D01*
X58587649Y-46605361D01*
X58595000Y-46605000D01*
X58745000Y-46605000D01*
X58752351Y-46605361D01*
G37*
G04 #@! TD.AperFunction*
G04 #@! TA.AperFunction,SMDPad,CuDef*
G36*
X58252351Y-46605361D02*
G01*
X58259632Y-46606441D01*
X58266771Y-46608229D01*
X58273701Y-46610709D01*
X58280355Y-46613856D01*
X58286668Y-46617640D01*
X58292579Y-46622024D01*
X58298033Y-46626967D01*
X58302976Y-46632421D01*
X58307360Y-46638332D01*
X58311144Y-46644645D01*
X58314291Y-46651299D01*
X58316771Y-46658229D01*
X58318559Y-46665368D01*
X58319639Y-46672649D01*
X58320000Y-46680000D01*
X58320000Y-48005000D01*
X58319639Y-48012351D01*
X58318559Y-48019632D01*
X58316771Y-48026771D01*
X58314291Y-48033701D01*
X58311144Y-48040355D01*
X58307360Y-48046668D01*
X58302976Y-48052579D01*
X58298033Y-48058033D01*
X58292579Y-48062976D01*
X58286668Y-48067360D01*
X58280355Y-48071144D01*
X58273701Y-48074291D01*
X58266771Y-48076771D01*
X58259632Y-48078559D01*
X58252351Y-48079639D01*
X58245000Y-48080000D01*
X58095000Y-48080000D01*
X58087649Y-48079639D01*
X58080368Y-48078559D01*
X58073229Y-48076771D01*
X58066299Y-48074291D01*
X58059645Y-48071144D01*
X58053332Y-48067360D01*
X58047421Y-48062976D01*
X58041967Y-48058033D01*
X58037024Y-48052579D01*
X58032640Y-48046668D01*
X58028856Y-48040355D01*
X58025709Y-48033701D01*
X58023229Y-48026771D01*
X58021441Y-48019632D01*
X58020361Y-48012351D01*
X58020000Y-48005000D01*
X58020000Y-46680000D01*
X58020361Y-46672649D01*
X58021441Y-46665368D01*
X58023229Y-46658229D01*
X58025709Y-46651299D01*
X58028856Y-46644645D01*
X58032640Y-46638332D01*
X58037024Y-46632421D01*
X58041967Y-46626967D01*
X58047421Y-46622024D01*
X58053332Y-46617640D01*
X58059645Y-46613856D01*
X58066299Y-46610709D01*
X58073229Y-46608229D01*
X58080368Y-46606441D01*
X58087649Y-46605361D01*
X58095000Y-46605000D01*
X58245000Y-46605000D01*
X58252351Y-46605361D01*
G37*
G04 #@! TD.AperFunction*
G04 #@! TA.AperFunction,SMDPad,CuDef*
G36*
X57752351Y-46605361D02*
G01*
X57759632Y-46606441D01*
X57766771Y-46608229D01*
X57773701Y-46610709D01*
X57780355Y-46613856D01*
X57786668Y-46617640D01*
X57792579Y-46622024D01*
X57798033Y-46626967D01*
X57802976Y-46632421D01*
X57807360Y-46638332D01*
X57811144Y-46644645D01*
X57814291Y-46651299D01*
X57816771Y-46658229D01*
X57818559Y-46665368D01*
X57819639Y-46672649D01*
X57820000Y-46680000D01*
X57820000Y-48005000D01*
X57819639Y-48012351D01*
X57818559Y-48019632D01*
X57816771Y-48026771D01*
X57814291Y-48033701D01*
X57811144Y-48040355D01*
X57807360Y-48046668D01*
X57802976Y-48052579D01*
X57798033Y-48058033D01*
X57792579Y-48062976D01*
X57786668Y-48067360D01*
X57780355Y-48071144D01*
X57773701Y-48074291D01*
X57766771Y-48076771D01*
X57759632Y-48078559D01*
X57752351Y-48079639D01*
X57745000Y-48080000D01*
X57595000Y-48080000D01*
X57587649Y-48079639D01*
X57580368Y-48078559D01*
X57573229Y-48076771D01*
X57566299Y-48074291D01*
X57559645Y-48071144D01*
X57553332Y-48067360D01*
X57547421Y-48062976D01*
X57541967Y-48058033D01*
X57537024Y-48052579D01*
X57532640Y-48046668D01*
X57528856Y-48040355D01*
X57525709Y-48033701D01*
X57523229Y-48026771D01*
X57521441Y-48019632D01*
X57520361Y-48012351D01*
X57520000Y-48005000D01*
X57520000Y-46680000D01*
X57520361Y-46672649D01*
X57521441Y-46665368D01*
X57523229Y-46658229D01*
X57525709Y-46651299D01*
X57528856Y-46644645D01*
X57532640Y-46638332D01*
X57537024Y-46632421D01*
X57541967Y-46626967D01*
X57547421Y-46622024D01*
X57553332Y-46617640D01*
X57559645Y-46613856D01*
X57566299Y-46610709D01*
X57573229Y-46608229D01*
X57580368Y-46606441D01*
X57587649Y-46605361D01*
X57595000Y-46605000D01*
X57745000Y-46605000D01*
X57752351Y-46605361D01*
G37*
G04 #@! TD.AperFunction*
G04 #@! TA.AperFunction,SMDPad,CuDef*
G36*
X57252351Y-46605361D02*
G01*
X57259632Y-46606441D01*
X57266771Y-46608229D01*
X57273701Y-46610709D01*
X57280355Y-46613856D01*
X57286668Y-46617640D01*
X57292579Y-46622024D01*
X57298033Y-46626967D01*
X57302976Y-46632421D01*
X57307360Y-46638332D01*
X57311144Y-46644645D01*
X57314291Y-46651299D01*
X57316771Y-46658229D01*
X57318559Y-46665368D01*
X57319639Y-46672649D01*
X57320000Y-46680000D01*
X57320000Y-48005000D01*
X57319639Y-48012351D01*
X57318559Y-48019632D01*
X57316771Y-48026771D01*
X57314291Y-48033701D01*
X57311144Y-48040355D01*
X57307360Y-48046668D01*
X57302976Y-48052579D01*
X57298033Y-48058033D01*
X57292579Y-48062976D01*
X57286668Y-48067360D01*
X57280355Y-48071144D01*
X57273701Y-48074291D01*
X57266771Y-48076771D01*
X57259632Y-48078559D01*
X57252351Y-48079639D01*
X57245000Y-48080000D01*
X57095000Y-48080000D01*
X57087649Y-48079639D01*
X57080368Y-48078559D01*
X57073229Y-48076771D01*
X57066299Y-48074291D01*
X57059645Y-48071144D01*
X57053332Y-48067360D01*
X57047421Y-48062976D01*
X57041967Y-48058033D01*
X57037024Y-48052579D01*
X57032640Y-48046668D01*
X57028856Y-48040355D01*
X57025709Y-48033701D01*
X57023229Y-48026771D01*
X57021441Y-48019632D01*
X57020361Y-48012351D01*
X57020000Y-48005000D01*
X57020000Y-46680000D01*
X57020361Y-46672649D01*
X57021441Y-46665368D01*
X57023229Y-46658229D01*
X57025709Y-46651299D01*
X57028856Y-46644645D01*
X57032640Y-46638332D01*
X57037024Y-46632421D01*
X57041967Y-46626967D01*
X57047421Y-46622024D01*
X57053332Y-46617640D01*
X57059645Y-46613856D01*
X57066299Y-46610709D01*
X57073229Y-46608229D01*
X57080368Y-46606441D01*
X57087649Y-46605361D01*
X57095000Y-46605000D01*
X57245000Y-46605000D01*
X57252351Y-46605361D01*
G37*
G04 #@! TD.AperFunction*
G04 #@! TA.AperFunction,SMDPad,CuDef*
G36*
X56752351Y-46605361D02*
G01*
X56759632Y-46606441D01*
X56766771Y-46608229D01*
X56773701Y-46610709D01*
X56780355Y-46613856D01*
X56786668Y-46617640D01*
X56792579Y-46622024D01*
X56798033Y-46626967D01*
X56802976Y-46632421D01*
X56807360Y-46638332D01*
X56811144Y-46644645D01*
X56814291Y-46651299D01*
X56816771Y-46658229D01*
X56818559Y-46665368D01*
X56819639Y-46672649D01*
X56820000Y-46680000D01*
X56820000Y-48005000D01*
X56819639Y-48012351D01*
X56818559Y-48019632D01*
X56816771Y-48026771D01*
X56814291Y-48033701D01*
X56811144Y-48040355D01*
X56807360Y-48046668D01*
X56802976Y-48052579D01*
X56798033Y-48058033D01*
X56792579Y-48062976D01*
X56786668Y-48067360D01*
X56780355Y-48071144D01*
X56773701Y-48074291D01*
X56766771Y-48076771D01*
X56759632Y-48078559D01*
X56752351Y-48079639D01*
X56745000Y-48080000D01*
X56595000Y-48080000D01*
X56587649Y-48079639D01*
X56580368Y-48078559D01*
X56573229Y-48076771D01*
X56566299Y-48074291D01*
X56559645Y-48071144D01*
X56553332Y-48067360D01*
X56547421Y-48062976D01*
X56541967Y-48058033D01*
X56537024Y-48052579D01*
X56532640Y-48046668D01*
X56528856Y-48040355D01*
X56525709Y-48033701D01*
X56523229Y-48026771D01*
X56521441Y-48019632D01*
X56520361Y-48012351D01*
X56520000Y-48005000D01*
X56520000Y-46680000D01*
X56520361Y-46672649D01*
X56521441Y-46665368D01*
X56523229Y-46658229D01*
X56525709Y-46651299D01*
X56528856Y-46644645D01*
X56532640Y-46638332D01*
X56537024Y-46632421D01*
X56541967Y-46626967D01*
X56547421Y-46622024D01*
X56553332Y-46617640D01*
X56559645Y-46613856D01*
X56566299Y-46610709D01*
X56573229Y-46608229D01*
X56580368Y-46606441D01*
X56587649Y-46605361D01*
X56595000Y-46605000D01*
X56745000Y-46605000D01*
X56752351Y-46605361D01*
G37*
G04 #@! TD.AperFunction*
G04 #@! TA.AperFunction,SMDPad,CuDef*
G36*
X56252351Y-46605361D02*
G01*
X56259632Y-46606441D01*
X56266771Y-46608229D01*
X56273701Y-46610709D01*
X56280355Y-46613856D01*
X56286668Y-46617640D01*
X56292579Y-46622024D01*
X56298033Y-46626967D01*
X56302976Y-46632421D01*
X56307360Y-46638332D01*
X56311144Y-46644645D01*
X56314291Y-46651299D01*
X56316771Y-46658229D01*
X56318559Y-46665368D01*
X56319639Y-46672649D01*
X56320000Y-46680000D01*
X56320000Y-48005000D01*
X56319639Y-48012351D01*
X56318559Y-48019632D01*
X56316771Y-48026771D01*
X56314291Y-48033701D01*
X56311144Y-48040355D01*
X56307360Y-48046668D01*
X56302976Y-48052579D01*
X56298033Y-48058033D01*
X56292579Y-48062976D01*
X56286668Y-48067360D01*
X56280355Y-48071144D01*
X56273701Y-48074291D01*
X56266771Y-48076771D01*
X56259632Y-48078559D01*
X56252351Y-48079639D01*
X56245000Y-48080000D01*
X56095000Y-48080000D01*
X56087649Y-48079639D01*
X56080368Y-48078559D01*
X56073229Y-48076771D01*
X56066299Y-48074291D01*
X56059645Y-48071144D01*
X56053332Y-48067360D01*
X56047421Y-48062976D01*
X56041967Y-48058033D01*
X56037024Y-48052579D01*
X56032640Y-48046668D01*
X56028856Y-48040355D01*
X56025709Y-48033701D01*
X56023229Y-48026771D01*
X56021441Y-48019632D01*
X56020361Y-48012351D01*
X56020000Y-48005000D01*
X56020000Y-46680000D01*
X56020361Y-46672649D01*
X56021441Y-46665368D01*
X56023229Y-46658229D01*
X56025709Y-46651299D01*
X56028856Y-46644645D01*
X56032640Y-46638332D01*
X56037024Y-46632421D01*
X56041967Y-46626967D01*
X56047421Y-46622024D01*
X56053332Y-46617640D01*
X56059645Y-46613856D01*
X56066299Y-46610709D01*
X56073229Y-46608229D01*
X56080368Y-46606441D01*
X56087649Y-46605361D01*
X56095000Y-46605000D01*
X56245000Y-46605000D01*
X56252351Y-46605361D01*
G37*
G04 #@! TD.AperFunction*
G04 #@! TA.AperFunction,SMDPad,CuDef*
G36*
X55752351Y-46605361D02*
G01*
X55759632Y-46606441D01*
X55766771Y-46608229D01*
X55773701Y-46610709D01*
X55780355Y-46613856D01*
X55786668Y-46617640D01*
X55792579Y-46622024D01*
X55798033Y-46626967D01*
X55802976Y-46632421D01*
X55807360Y-46638332D01*
X55811144Y-46644645D01*
X55814291Y-46651299D01*
X55816771Y-46658229D01*
X55818559Y-46665368D01*
X55819639Y-46672649D01*
X55820000Y-46680000D01*
X55820000Y-48005000D01*
X55819639Y-48012351D01*
X55818559Y-48019632D01*
X55816771Y-48026771D01*
X55814291Y-48033701D01*
X55811144Y-48040355D01*
X55807360Y-48046668D01*
X55802976Y-48052579D01*
X55798033Y-48058033D01*
X55792579Y-48062976D01*
X55786668Y-48067360D01*
X55780355Y-48071144D01*
X55773701Y-48074291D01*
X55766771Y-48076771D01*
X55759632Y-48078559D01*
X55752351Y-48079639D01*
X55745000Y-48080000D01*
X55595000Y-48080000D01*
X55587649Y-48079639D01*
X55580368Y-48078559D01*
X55573229Y-48076771D01*
X55566299Y-48074291D01*
X55559645Y-48071144D01*
X55553332Y-48067360D01*
X55547421Y-48062976D01*
X55541967Y-48058033D01*
X55537024Y-48052579D01*
X55532640Y-48046668D01*
X55528856Y-48040355D01*
X55525709Y-48033701D01*
X55523229Y-48026771D01*
X55521441Y-48019632D01*
X55520361Y-48012351D01*
X55520000Y-48005000D01*
X55520000Y-46680000D01*
X55520361Y-46672649D01*
X55521441Y-46665368D01*
X55523229Y-46658229D01*
X55525709Y-46651299D01*
X55528856Y-46644645D01*
X55532640Y-46638332D01*
X55537024Y-46632421D01*
X55541967Y-46626967D01*
X55547421Y-46622024D01*
X55553332Y-46617640D01*
X55559645Y-46613856D01*
X55566299Y-46610709D01*
X55573229Y-46608229D01*
X55580368Y-46606441D01*
X55587649Y-46605361D01*
X55595000Y-46605000D01*
X55745000Y-46605000D01*
X55752351Y-46605361D01*
G37*
G04 #@! TD.AperFunction*
G04 #@! TA.AperFunction,SMDPad,CuDef*
G36*
X54927351Y-45780361D02*
G01*
X54934632Y-45781441D01*
X54941771Y-45783229D01*
X54948701Y-45785709D01*
X54955355Y-45788856D01*
X54961668Y-45792640D01*
X54967579Y-45797024D01*
X54973033Y-45801967D01*
X54977976Y-45807421D01*
X54982360Y-45813332D01*
X54986144Y-45819645D01*
X54989291Y-45826299D01*
X54991771Y-45833229D01*
X54993559Y-45840368D01*
X54994639Y-45847649D01*
X54995000Y-45855000D01*
X54995000Y-46005000D01*
X54994639Y-46012351D01*
X54993559Y-46019632D01*
X54991771Y-46026771D01*
X54989291Y-46033701D01*
X54986144Y-46040355D01*
X54982360Y-46046668D01*
X54977976Y-46052579D01*
X54973033Y-46058033D01*
X54967579Y-46062976D01*
X54961668Y-46067360D01*
X54955355Y-46071144D01*
X54948701Y-46074291D01*
X54941771Y-46076771D01*
X54934632Y-46078559D01*
X54927351Y-46079639D01*
X54920000Y-46080000D01*
X53595000Y-46080000D01*
X53587649Y-46079639D01*
X53580368Y-46078559D01*
X53573229Y-46076771D01*
X53566299Y-46074291D01*
X53559645Y-46071144D01*
X53553332Y-46067360D01*
X53547421Y-46062976D01*
X53541967Y-46058033D01*
X53537024Y-46052579D01*
X53532640Y-46046668D01*
X53528856Y-46040355D01*
X53525709Y-46033701D01*
X53523229Y-46026771D01*
X53521441Y-46019632D01*
X53520361Y-46012351D01*
X53520000Y-46005000D01*
X53520000Y-45855000D01*
X53520361Y-45847649D01*
X53521441Y-45840368D01*
X53523229Y-45833229D01*
X53525709Y-45826299D01*
X53528856Y-45819645D01*
X53532640Y-45813332D01*
X53537024Y-45807421D01*
X53541967Y-45801967D01*
X53547421Y-45797024D01*
X53553332Y-45792640D01*
X53559645Y-45788856D01*
X53566299Y-45785709D01*
X53573229Y-45783229D01*
X53580368Y-45781441D01*
X53587649Y-45780361D01*
X53595000Y-45780000D01*
X54920000Y-45780000D01*
X54927351Y-45780361D01*
G37*
G04 #@! TD.AperFunction*
G04 #@! TA.AperFunction,SMDPad,CuDef*
G36*
X54927351Y-45280361D02*
G01*
X54934632Y-45281441D01*
X54941771Y-45283229D01*
X54948701Y-45285709D01*
X54955355Y-45288856D01*
X54961668Y-45292640D01*
X54967579Y-45297024D01*
X54973033Y-45301967D01*
X54977976Y-45307421D01*
X54982360Y-45313332D01*
X54986144Y-45319645D01*
X54989291Y-45326299D01*
X54991771Y-45333229D01*
X54993559Y-45340368D01*
X54994639Y-45347649D01*
X54995000Y-45355000D01*
X54995000Y-45505000D01*
X54994639Y-45512351D01*
X54993559Y-45519632D01*
X54991771Y-45526771D01*
X54989291Y-45533701D01*
X54986144Y-45540355D01*
X54982360Y-45546668D01*
X54977976Y-45552579D01*
X54973033Y-45558033D01*
X54967579Y-45562976D01*
X54961668Y-45567360D01*
X54955355Y-45571144D01*
X54948701Y-45574291D01*
X54941771Y-45576771D01*
X54934632Y-45578559D01*
X54927351Y-45579639D01*
X54920000Y-45580000D01*
X53595000Y-45580000D01*
X53587649Y-45579639D01*
X53580368Y-45578559D01*
X53573229Y-45576771D01*
X53566299Y-45574291D01*
X53559645Y-45571144D01*
X53553332Y-45567360D01*
X53547421Y-45562976D01*
X53541967Y-45558033D01*
X53537024Y-45552579D01*
X53532640Y-45546668D01*
X53528856Y-45540355D01*
X53525709Y-45533701D01*
X53523229Y-45526771D01*
X53521441Y-45519632D01*
X53520361Y-45512351D01*
X53520000Y-45505000D01*
X53520000Y-45355000D01*
X53520361Y-45347649D01*
X53521441Y-45340368D01*
X53523229Y-45333229D01*
X53525709Y-45326299D01*
X53528856Y-45319645D01*
X53532640Y-45313332D01*
X53537024Y-45307421D01*
X53541967Y-45301967D01*
X53547421Y-45297024D01*
X53553332Y-45292640D01*
X53559645Y-45288856D01*
X53566299Y-45285709D01*
X53573229Y-45283229D01*
X53580368Y-45281441D01*
X53587649Y-45280361D01*
X53595000Y-45280000D01*
X54920000Y-45280000D01*
X54927351Y-45280361D01*
G37*
G04 #@! TD.AperFunction*
G04 #@! TA.AperFunction,SMDPad,CuDef*
G36*
X54927351Y-44780361D02*
G01*
X54934632Y-44781441D01*
X54941771Y-44783229D01*
X54948701Y-44785709D01*
X54955355Y-44788856D01*
X54961668Y-44792640D01*
X54967579Y-44797024D01*
X54973033Y-44801967D01*
X54977976Y-44807421D01*
X54982360Y-44813332D01*
X54986144Y-44819645D01*
X54989291Y-44826299D01*
X54991771Y-44833229D01*
X54993559Y-44840368D01*
X54994639Y-44847649D01*
X54995000Y-44855000D01*
X54995000Y-45005000D01*
X54994639Y-45012351D01*
X54993559Y-45019632D01*
X54991771Y-45026771D01*
X54989291Y-45033701D01*
X54986144Y-45040355D01*
X54982360Y-45046668D01*
X54977976Y-45052579D01*
X54973033Y-45058033D01*
X54967579Y-45062976D01*
X54961668Y-45067360D01*
X54955355Y-45071144D01*
X54948701Y-45074291D01*
X54941771Y-45076771D01*
X54934632Y-45078559D01*
X54927351Y-45079639D01*
X54920000Y-45080000D01*
X53595000Y-45080000D01*
X53587649Y-45079639D01*
X53580368Y-45078559D01*
X53573229Y-45076771D01*
X53566299Y-45074291D01*
X53559645Y-45071144D01*
X53553332Y-45067360D01*
X53547421Y-45062976D01*
X53541967Y-45058033D01*
X53537024Y-45052579D01*
X53532640Y-45046668D01*
X53528856Y-45040355D01*
X53525709Y-45033701D01*
X53523229Y-45026771D01*
X53521441Y-45019632D01*
X53520361Y-45012351D01*
X53520000Y-45005000D01*
X53520000Y-44855000D01*
X53520361Y-44847649D01*
X53521441Y-44840368D01*
X53523229Y-44833229D01*
X53525709Y-44826299D01*
X53528856Y-44819645D01*
X53532640Y-44813332D01*
X53537024Y-44807421D01*
X53541967Y-44801967D01*
X53547421Y-44797024D01*
X53553332Y-44792640D01*
X53559645Y-44788856D01*
X53566299Y-44785709D01*
X53573229Y-44783229D01*
X53580368Y-44781441D01*
X53587649Y-44780361D01*
X53595000Y-44780000D01*
X54920000Y-44780000D01*
X54927351Y-44780361D01*
G37*
G04 #@! TD.AperFunction*
G04 #@! TA.AperFunction,SMDPad,CuDef*
G36*
X54927351Y-44280361D02*
G01*
X54934632Y-44281441D01*
X54941771Y-44283229D01*
X54948701Y-44285709D01*
X54955355Y-44288856D01*
X54961668Y-44292640D01*
X54967579Y-44297024D01*
X54973033Y-44301967D01*
X54977976Y-44307421D01*
X54982360Y-44313332D01*
X54986144Y-44319645D01*
X54989291Y-44326299D01*
X54991771Y-44333229D01*
X54993559Y-44340368D01*
X54994639Y-44347649D01*
X54995000Y-44355000D01*
X54995000Y-44505000D01*
X54994639Y-44512351D01*
X54993559Y-44519632D01*
X54991771Y-44526771D01*
X54989291Y-44533701D01*
X54986144Y-44540355D01*
X54982360Y-44546668D01*
X54977976Y-44552579D01*
X54973033Y-44558033D01*
X54967579Y-44562976D01*
X54961668Y-44567360D01*
X54955355Y-44571144D01*
X54948701Y-44574291D01*
X54941771Y-44576771D01*
X54934632Y-44578559D01*
X54927351Y-44579639D01*
X54920000Y-44580000D01*
X53595000Y-44580000D01*
X53587649Y-44579639D01*
X53580368Y-44578559D01*
X53573229Y-44576771D01*
X53566299Y-44574291D01*
X53559645Y-44571144D01*
X53553332Y-44567360D01*
X53547421Y-44562976D01*
X53541967Y-44558033D01*
X53537024Y-44552579D01*
X53532640Y-44546668D01*
X53528856Y-44540355D01*
X53525709Y-44533701D01*
X53523229Y-44526771D01*
X53521441Y-44519632D01*
X53520361Y-44512351D01*
X53520000Y-44505000D01*
X53520000Y-44355000D01*
X53520361Y-44347649D01*
X53521441Y-44340368D01*
X53523229Y-44333229D01*
X53525709Y-44326299D01*
X53528856Y-44319645D01*
X53532640Y-44313332D01*
X53537024Y-44307421D01*
X53541967Y-44301967D01*
X53547421Y-44297024D01*
X53553332Y-44292640D01*
X53559645Y-44288856D01*
X53566299Y-44285709D01*
X53573229Y-44283229D01*
X53580368Y-44281441D01*
X53587649Y-44280361D01*
X53595000Y-44280000D01*
X54920000Y-44280000D01*
X54927351Y-44280361D01*
G37*
G04 #@! TD.AperFunction*
G04 #@! TA.AperFunction,SMDPad,CuDef*
G36*
X54927351Y-43780361D02*
G01*
X54934632Y-43781441D01*
X54941771Y-43783229D01*
X54948701Y-43785709D01*
X54955355Y-43788856D01*
X54961668Y-43792640D01*
X54967579Y-43797024D01*
X54973033Y-43801967D01*
X54977976Y-43807421D01*
X54982360Y-43813332D01*
X54986144Y-43819645D01*
X54989291Y-43826299D01*
X54991771Y-43833229D01*
X54993559Y-43840368D01*
X54994639Y-43847649D01*
X54995000Y-43855000D01*
X54995000Y-44005000D01*
X54994639Y-44012351D01*
X54993559Y-44019632D01*
X54991771Y-44026771D01*
X54989291Y-44033701D01*
X54986144Y-44040355D01*
X54982360Y-44046668D01*
X54977976Y-44052579D01*
X54973033Y-44058033D01*
X54967579Y-44062976D01*
X54961668Y-44067360D01*
X54955355Y-44071144D01*
X54948701Y-44074291D01*
X54941771Y-44076771D01*
X54934632Y-44078559D01*
X54927351Y-44079639D01*
X54920000Y-44080000D01*
X53595000Y-44080000D01*
X53587649Y-44079639D01*
X53580368Y-44078559D01*
X53573229Y-44076771D01*
X53566299Y-44074291D01*
X53559645Y-44071144D01*
X53553332Y-44067360D01*
X53547421Y-44062976D01*
X53541967Y-44058033D01*
X53537024Y-44052579D01*
X53532640Y-44046668D01*
X53528856Y-44040355D01*
X53525709Y-44033701D01*
X53523229Y-44026771D01*
X53521441Y-44019632D01*
X53520361Y-44012351D01*
X53520000Y-44005000D01*
X53520000Y-43855000D01*
X53520361Y-43847649D01*
X53521441Y-43840368D01*
X53523229Y-43833229D01*
X53525709Y-43826299D01*
X53528856Y-43819645D01*
X53532640Y-43813332D01*
X53537024Y-43807421D01*
X53541967Y-43801967D01*
X53547421Y-43797024D01*
X53553332Y-43792640D01*
X53559645Y-43788856D01*
X53566299Y-43785709D01*
X53573229Y-43783229D01*
X53580368Y-43781441D01*
X53587649Y-43780361D01*
X53595000Y-43780000D01*
X54920000Y-43780000D01*
X54927351Y-43780361D01*
G37*
G04 #@! TD.AperFunction*
G04 #@! TA.AperFunction,SMDPad,CuDef*
G36*
X54927351Y-43280361D02*
G01*
X54934632Y-43281441D01*
X54941771Y-43283229D01*
X54948701Y-43285709D01*
X54955355Y-43288856D01*
X54961668Y-43292640D01*
X54967579Y-43297024D01*
X54973033Y-43301967D01*
X54977976Y-43307421D01*
X54982360Y-43313332D01*
X54986144Y-43319645D01*
X54989291Y-43326299D01*
X54991771Y-43333229D01*
X54993559Y-43340368D01*
X54994639Y-43347649D01*
X54995000Y-43355000D01*
X54995000Y-43505000D01*
X54994639Y-43512351D01*
X54993559Y-43519632D01*
X54991771Y-43526771D01*
X54989291Y-43533701D01*
X54986144Y-43540355D01*
X54982360Y-43546668D01*
X54977976Y-43552579D01*
X54973033Y-43558033D01*
X54967579Y-43562976D01*
X54961668Y-43567360D01*
X54955355Y-43571144D01*
X54948701Y-43574291D01*
X54941771Y-43576771D01*
X54934632Y-43578559D01*
X54927351Y-43579639D01*
X54920000Y-43580000D01*
X53595000Y-43580000D01*
X53587649Y-43579639D01*
X53580368Y-43578559D01*
X53573229Y-43576771D01*
X53566299Y-43574291D01*
X53559645Y-43571144D01*
X53553332Y-43567360D01*
X53547421Y-43562976D01*
X53541967Y-43558033D01*
X53537024Y-43552579D01*
X53532640Y-43546668D01*
X53528856Y-43540355D01*
X53525709Y-43533701D01*
X53523229Y-43526771D01*
X53521441Y-43519632D01*
X53520361Y-43512351D01*
X53520000Y-43505000D01*
X53520000Y-43355000D01*
X53520361Y-43347649D01*
X53521441Y-43340368D01*
X53523229Y-43333229D01*
X53525709Y-43326299D01*
X53528856Y-43319645D01*
X53532640Y-43313332D01*
X53537024Y-43307421D01*
X53541967Y-43301967D01*
X53547421Y-43297024D01*
X53553332Y-43292640D01*
X53559645Y-43288856D01*
X53566299Y-43285709D01*
X53573229Y-43283229D01*
X53580368Y-43281441D01*
X53587649Y-43280361D01*
X53595000Y-43280000D01*
X54920000Y-43280000D01*
X54927351Y-43280361D01*
G37*
G04 #@! TD.AperFunction*
G04 #@! TA.AperFunction,SMDPad,CuDef*
G36*
X54927351Y-42780361D02*
G01*
X54934632Y-42781441D01*
X54941771Y-42783229D01*
X54948701Y-42785709D01*
X54955355Y-42788856D01*
X54961668Y-42792640D01*
X54967579Y-42797024D01*
X54973033Y-42801967D01*
X54977976Y-42807421D01*
X54982360Y-42813332D01*
X54986144Y-42819645D01*
X54989291Y-42826299D01*
X54991771Y-42833229D01*
X54993559Y-42840368D01*
X54994639Y-42847649D01*
X54995000Y-42855000D01*
X54995000Y-43005000D01*
X54994639Y-43012351D01*
X54993559Y-43019632D01*
X54991771Y-43026771D01*
X54989291Y-43033701D01*
X54986144Y-43040355D01*
X54982360Y-43046668D01*
X54977976Y-43052579D01*
X54973033Y-43058033D01*
X54967579Y-43062976D01*
X54961668Y-43067360D01*
X54955355Y-43071144D01*
X54948701Y-43074291D01*
X54941771Y-43076771D01*
X54934632Y-43078559D01*
X54927351Y-43079639D01*
X54920000Y-43080000D01*
X53595000Y-43080000D01*
X53587649Y-43079639D01*
X53580368Y-43078559D01*
X53573229Y-43076771D01*
X53566299Y-43074291D01*
X53559645Y-43071144D01*
X53553332Y-43067360D01*
X53547421Y-43062976D01*
X53541967Y-43058033D01*
X53537024Y-43052579D01*
X53532640Y-43046668D01*
X53528856Y-43040355D01*
X53525709Y-43033701D01*
X53523229Y-43026771D01*
X53521441Y-43019632D01*
X53520361Y-43012351D01*
X53520000Y-43005000D01*
X53520000Y-42855000D01*
X53520361Y-42847649D01*
X53521441Y-42840368D01*
X53523229Y-42833229D01*
X53525709Y-42826299D01*
X53528856Y-42819645D01*
X53532640Y-42813332D01*
X53537024Y-42807421D01*
X53541967Y-42801967D01*
X53547421Y-42797024D01*
X53553332Y-42792640D01*
X53559645Y-42788856D01*
X53566299Y-42785709D01*
X53573229Y-42783229D01*
X53580368Y-42781441D01*
X53587649Y-42780361D01*
X53595000Y-42780000D01*
X54920000Y-42780000D01*
X54927351Y-42780361D01*
G37*
G04 #@! TD.AperFunction*
G04 #@! TA.AperFunction,SMDPad,CuDef*
G36*
X54927351Y-42280361D02*
G01*
X54934632Y-42281441D01*
X54941771Y-42283229D01*
X54948701Y-42285709D01*
X54955355Y-42288856D01*
X54961668Y-42292640D01*
X54967579Y-42297024D01*
X54973033Y-42301967D01*
X54977976Y-42307421D01*
X54982360Y-42313332D01*
X54986144Y-42319645D01*
X54989291Y-42326299D01*
X54991771Y-42333229D01*
X54993559Y-42340368D01*
X54994639Y-42347649D01*
X54995000Y-42355000D01*
X54995000Y-42505000D01*
X54994639Y-42512351D01*
X54993559Y-42519632D01*
X54991771Y-42526771D01*
X54989291Y-42533701D01*
X54986144Y-42540355D01*
X54982360Y-42546668D01*
X54977976Y-42552579D01*
X54973033Y-42558033D01*
X54967579Y-42562976D01*
X54961668Y-42567360D01*
X54955355Y-42571144D01*
X54948701Y-42574291D01*
X54941771Y-42576771D01*
X54934632Y-42578559D01*
X54927351Y-42579639D01*
X54920000Y-42580000D01*
X53595000Y-42580000D01*
X53587649Y-42579639D01*
X53580368Y-42578559D01*
X53573229Y-42576771D01*
X53566299Y-42574291D01*
X53559645Y-42571144D01*
X53553332Y-42567360D01*
X53547421Y-42562976D01*
X53541967Y-42558033D01*
X53537024Y-42552579D01*
X53532640Y-42546668D01*
X53528856Y-42540355D01*
X53525709Y-42533701D01*
X53523229Y-42526771D01*
X53521441Y-42519632D01*
X53520361Y-42512351D01*
X53520000Y-42505000D01*
X53520000Y-42355000D01*
X53520361Y-42347649D01*
X53521441Y-42340368D01*
X53523229Y-42333229D01*
X53525709Y-42326299D01*
X53528856Y-42319645D01*
X53532640Y-42313332D01*
X53537024Y-42307421D01*
X53541967Y-42301967D01*
X53547421Y-42297024D01*
X53553332Y-42292640D01*
X53559645Y-42288856D01*
X53566299Y-42285709D01*
X53573229Y-42283229D01*
X53580368Y-42281441D01*
X53587649Y-42280361D01*
X53595000Y-42280000D01*
X54920000Y-42280000D01*
X54927351Y-42280361D01*
G37*
G04 #@! TD.AperFunction*
G04 #@! TA.AperFunction,SMDPad,CuDef*
G36*
X54927351Y-41780361D02*
G01*
X54934632Y-41781441D01*
X54941771Y-41783229D01*
X54948701Y-41785709D01*
X54955355Y-41788856D01*
X54961668Y-41792640D01*
X54967579Y-41797024D01*
X54973033Y-41801967D01*
X54977976Y-41807421D01*
X54982360Y-41813332D01*
X54986144Y-41819645D01*
X54989291Y-41826299D01*
X54991771Y-41833229D01*
X54993559Y-41840368D01*
X54994639Y-41847649D01*
X54995000Y-41855000D01*
X54995000Y-42005000D01*
X54994639Y-42012351D01*
X54993559Y-42019632D01*
X54991771Y-42026771D01*
X54989291Y-42033701D01*
X54986144Y-42040355D01*
X54982360Y-42046668D01*
X54977976Y-42052579D01*
X54973033Y-42058033D01*
X54967579Y-42062976D01*
X54961668Y-42067360D01*
X54955355Y-42071144D01*
X54948701Y-42074291D01*
X54941771Y-42076771D01*
X54934632Y-42078559D01*
X54927351Y-42079639D01*
X54920000Y-42080000D01*
X53595000Y-42080000D01*
X53587649Y-42079639D01*
X53580368Y-42078559D01*
X53573229Y-42076771D01*
X53566299Y-42074291D01*
X53559645Y-42071144D01*
X53553332Y-42067360D01*
X53547421Y-42062976D01*
X53541967Y-42058033D01*
X53537024Y-42052579D01*
X53532640Y-42046668D01*
X53528856Y-42040355D01*
X53525709Y-42033701D01*
X53523229Y-42026771D01*
X53521441Y-42019632D01*
X53520361Y-42012351D01*
X53520000Y-42005000D01*
X53520000Y-41855000D01*
X53520361Y-41847649D01*
X53521441Y-41840368D01*
X53523229Y-41833229D01*
X53525709Y-41826299D01*
X53528856Y-41819645D01*
X53532640Y-41813332D01*
X53537024Y-41807421D01*
X53541967Y-41801967D01*
X53547421Y-41797024D01*
X53553332Y-41792640D01*
X53559645Y-41788856D01*
X53566299Y-41785709D01*
X53573229Y-41783229D01*
X53580368Y-41781441D01*
X53587649Y-41780361D01*
X53595000Y-41780000D01*
X54920000Y-41780000D01*
X54927351Y-41780361D01*
G37*
G04 #@! TD.AperFunction*
G04 #@! TA.AperFunction,SMDPad,CuDef*
G36*
X54927351Y-41280361D02*
G01*
X54934632Y-41281441D01*
X54941771Y-41283229D01*
X54948701Y-41285709D01*
X54955355Y-41288856D01*
X54961668Y-41292640D01*
X54967579Y-41297024D01*
X54973033Y-41301967D01*
X54977976Y-41307421D01*
X54982360Y-41313332D01*
X54986144Y-41319645D01*
X54989291Y-41326299D01*
X54991771Y-41333229D01*
X54993559Y-41340368D01*
X54994639Y-41347649D01*
X54995000Y-41355000D01*
X54995000Y-41505000D01*
X54994639Y-41512351D01*
X54993559Y-41519632D01*
X54991771Y-41526771D01*
X54989291Y-41533701D01*
X54986144Y-41540355D01*
X54982360Y-41546668D01*
X54977976Y-41552579D01*
X54973033Y-41558033D01*
X54967579Y-41562976D01*
X54961668Y-41567360D01*
X54955355Y-41571144D01*
X54948701Y-41574291D01*
X54941771Y-41576771D01*
X54934632Y-41578559D01*
X54927351Y-41579639D01*
X54920000Y-41580000D01*
X53595000Y-41580000D01*
X53587649Y-41579639D01*
X53580368Y-41578559D01*
X53573229Y-41576771D01*
X53566299Y-41574291D01*
X53559645Y-41571144D01*
X53553332Y-41567360D01*
X53547421Y-41562976D01*
X53541967Y-41558033D01*
X53537024Y-41552579D01*
X53532640Y-41546668D01*
X53528856Y-41540355D01*
X53525709Y-41533701D01*
X53523229Y-41526771D01*
X53521441Y-41519632D01*
X53520361Y-41512351D01*
X53520000Y-41505000D01*
X53520000Y-41355000D01*
X53520361Y-41347649D01*
X53521441Y-41340368D01*
X53523229Y-41333229D01*
X53525709Y-41326299D01*
X53528856Y-41319645D01*
X53532640Y-41313332D01*
X53537024Y-41307421D01*
X53541967Y-41301967D01*
X53547421Y-41297024D01*
X53553332Y-41292640D01*
X53559645Y-41288856D01*
X53566299Y-41285709D01*
X53573229Y-41283229D01*
X53580368Y-41281441D01*
X53587649Y-41280361D01*
X53595000Y-41280000D01*
X54920000Y-41280000D01*
X54927351Y-41280361D01*
G37*
G04 #@! TD.AperFunction*
G04 #@! TA.AperFunction,SMDPad,CuDef*
G36*
X54927351Y-40780361D02*
G01*
X54934632Y-40781441D01*
X54941771Y-40783229D01*
X54948701Y-40785709D01*
X54955355Y-40788856D01*
X54961668Y-40792640D01*
X54967579Y-40797024D01*
X54973033Y-40801967D01*
X54977976Y-40807421D01*
X54982360Y-40813332D01*
X54986144Y-40819645D01*
X54989291Y-40826299D01*
X54991771Y-40833229D01*
X54993559Y-40840368D01*
X54994639Y-40847649D01*
X54995000Y-40855000D01*
X54995000Y-41005000D01*
X54994639Y-41012351D01*
X54993559Y-41019632D01*
X54991771Y-41026771D01*
X54989291Y-41033701D01*
X54986144Y-41040355D01*
X54982360Y-41046668D01*
X54977976Y-41052579D01*
X54973033Y-41058033D01*
X54967579Y-41062976D01*
X54961668Y-41067360D01*
X54955355Y-41071144D01*
X54948701Y-41074291D01*
X54941771Y-41076771D01*
X54934632Y-41078559D01*
X54927351Y-41079639D01*
X54920000Y-41080000D01*
X53595000Y-41080000D01*
X53587649Y-41079639D01*
X53580368Y-41078559D01*
X53573229Y-41076771D01*
X53566299Y-41074291D01*
X53559645Y-41071144D01*
X53553332Y-41067360D01*
X53547421Y-41062976D01*
X53541967Y-41058033D01*
X53537024Y-41052579D01*
X53532640Y-41046668D01*
X53528856Y-41040355D01*
X53525709Y-41033701D01*
X53523229Y-41026771D01*
X53521441Y-41019632D01*
X53520361Y-41012351D01*
X53520000Y-41005000D01*
X53520000Y-40855000D01*
X53520361Y-40847649D01*
X53521441Y-40840368D01*
X53523229Y-40833229D01*
X53525709Y-40826299D01*
X53528856Y-40819645D01*
X53532640Y-40813332D01*
X53537024Y-40807421D01*
X53541967Y-40801967D01*
X53547421Y-40797024D01*
X53553332Y-40792640D01*
X53559645Y-40788856D01*
X53566299Y-40785709D01*
X53573229Y-40783229D01*
X53580368Y-40781441D01*
X53587649Y-40780361D01*
X53595000Y-40780000D01*
X54920000Y-40780000D01*
X54927351Y-40780361D01*
G37*
G04 #@! TD.AperFunction*
G04 #@! TA.AperFunction,SMDPad,CuDef*
G36*
X54927351Y-40280361D02*
G01*
X54934632Y-40281441D01*
X54941771Y-40283229D01*
X54948701Y-40285709D01*
X54955355Y-40288856D01*
X54961668Y-40292640D01*
X54967579Y-40297024D01*
X54973033Y-40301967D01*
X54977976Y-40307421D01*
X54982360Y-40313332D01*
X54986144Y-40319645D01*
X54989291Y-40326299D01*
X54991771Y-40333229D01*
X54993559Y-40340368D01*
X54994639Y-40347649D01*
X54995000Y-40355000D01*
X54995000Y-40505000D01*
X54994639Y-40512351D01*
X54993559Y-40519632D01*
X54991771Y-40526771D01*
X54989291Y-40533701D01*
X54986144Y-40540355D01*
X54982360Y-40546668D01*
X54977976Y-40552579D01*
X54973033Y-40558033D01*
X54967579Y-40562976D01*
X54961668Y-40567360D01*
X54955355Y-40571144D01*
X54948701Y-40574291D01*
X54941771Y-40576771D01*
X54934632Y-40578559D01*
X54927351Y-40579639D01*
X54920000Y-40580000D01*
X53595000Y-40580000D01*
X53587649Y-40579639D01*
X53580368Y-40578559D01*
X53573229Y-40576771D01*
X53566299Y-40574291D01*
X53559645Y-40571144D01*
X53553332Y-40567360D01*
X53547421Y-40562976D01*
X53541967Y-40558033D01*
X53537024Y-40552579D01*
X53532640Y-40546668D01*
X53528856Y-40540355D01*
X53525709Y-40533701D01*
X53523229Y-40526771D01*
X53521441Y-40519632D01*
X53520361Y-40512351D01*
X53520000Y-40505000D01*
X53520000Y-40355000D01*
X53520361Y-40347649D01*
X53521441Y-40340368D01*
X53523229Y-40333229D01*
X53525709Y-40326299D01*
X53528856Y-40319645D01*
X53532640Y-40313332D01*
X53537024Y-40307421D01*
X53541967Y-40301967D01*
X53547421Y-40297024D01*
X53553332Y-40292640D01*
X53559645Y-40288856D01*
X53566299Y-40285709D01*
X53573229Y-40283229D01*
X53580368Y-40281441D01*
X53587649Y-40280361D01*
X53595000Y-40280000D01*
X54920000Y-40280000D01*
X54927351Y-40280361D01*
G37*
G04 #@! TD.AperFunction*
G04 #@! TA.AperFunction,SMDPad,CuDef*
G36*
X55752351Y-38280361D02*
G01*
X55759632Y-38281441D01*
X55766771Y-38283229D01*
X55773701Y-38285709D01*
X55780355Y-38288856D01*
X55786668Y-38292640D01*
X55792579Y-38297024D01*
X55798033Y-38301967D01*
X55802976Y-38307421D01*
X55807360Y-38313332D01*
X55811144Y-38319645D01*
X55814291Y-38326299D01*
X55816771Y-38333229D01*
X55818559Y-38340368D01*
X55819639Y-38347649D01*
X55820000Y-38355000D01*
X55820000Y-39680000D01*
X55819639Y-39687351D01*
X55818559Y-39694632D01*
X55816771Y-39701771D01*
X55814291Y-39708701D01*
X55811144Y-39715355D01*
X55807360Y-39721668D01*
X55802976Y-39727579D01*
X55798033Y-39733033D01*
X55792579Y-39737976D01*
X55786668Y-39742360D01*
X55780355Y-39746144D01*
X55773701Y-39749291D01*
X55766771Y-39751771D01*
X55759632Y-39753559D01*
X55752351Y-39754639D01*
X55745000Y-39755000D01*
X55595000Y-39755000D01*
X55587649Y-39754639D01*
X55580368Y-39753559D01*
X55573229Y-39751771D01*
X55566299Y-39749291D01*
X55559645Y-39746144D01*
X55553332Y-39742360D01*
X55547421Y-39737976D01*
X55541967Y-39733033D01*
X55537024Y-39727579D01*
X55532640Y-39721668D01*
X55528856Y-39715355D01*
X55525709Y-39708701D01*
X55523229Y-39701771D01*
X55521441Y-39694632D01*
X55520361Y-39687351D01*
X55520000Y-39680000D01*
X55520000Y-38355000D01*
X55520361Y-38347649D01*
X55521441Y-38340368D01*
X55523229Y-38333229D01*
X55525709Y-38326299D01*
X55528856Y-38319645D01*
X55532640Y-38313332D01*
X55537024Y-38307421D01*
X55541967Y-38301967D01*
X55547421Y-38297024D01*
X55553332Y-38292640D01*
X55559645Y-38288856D01*
X55566299Y-38285709D01*
X55573229Y-38283229D01*
X55580368Y-38281441D01*
X55587649Y-38280361D01*
X55595000Y-38280000D01*
X55745000Y-38280000D01*
X55752351Y-38280361D01*
G37*
G04 #@! TD.AperFunction*
G04 #@! TA.AperFunction,SMDPad,CuDef*
G36*
X56252351Y-38280361D02*
G01*
X56259632Y-38281441D01*
X56266771Y-38283229D01*
X56273701Y-38285709D01*
X56280355Y-38288856D01*
X56286668Y-38292640D01*
X56292579Y-38297024D01*
X56298033Y-38301967D01*
X56302976Y-38307421D01*
X56307360Y-38313332D01*
X56311144Y-38319645D01*
X56314291Y-38326299D01*
X56316771Y-38333229D01*
X56318559Y-38340368D01*
X56319639Y-38347649D01*
X56320000Y-38355000D01*
X56320000Y-39680000D01*
X56319639Y-39687351D01*
X56318559Y-39694632D01*
X56316771Y-39701771D01*
X56314291Y-39708701D01*
X56311144Y-39715355D01*
X56307360Y-39721668D01*
X56302976Y-39727579D01*
X56298033Y-39733033D01*
X56292579Y-39737976D01*
X56286668Y-39742360D01*
X56280355Y-39746144D01*
X56273701Y-39749291D01*
X56266771Y-39751771D01*
X56259632Y-39753559D01*
X56252351Y-39754639D01*
X56245000Y-39755000D01*
X56095000Y-39755000D01*
X56087649Y-39754639D01*
X56080368Y-39753559D01*
X56073229Y-39751771D01*
X56066299Y-39749291D01*
X56059645Y-39746144D01*
X56053332Y-39742360D01*
X56047421Y-39737976D01*
X56041967Y-39733033D01*
X56037024Y-39727579D01*
X56032640Y-39721668D01*
X56028856Y-39715355D01*
X56025709Y-39708701D01*
X56023229Y-39701771D01*
X56021441Y-39694632D01*
X56020361Y-39687351D01*
X56020000Y-39680000D01*
X56020000Y-38355000D01*
X56020361Y-38347649D01*
X56021441Y-38340368D01*
X56023229Y-38333229D01*
X56025709Y-38326299D01*
X56028856Y-38319645D01*
X56032640Y-38313332D01*
X56037024Y-38307421D01*
X56041967Y-38301967D01*
X56047421Y-38297024D01*
X56053332Y-38292640D01*
X56059645Y-38288856D01*
X56066299Y-38285709D01*
X56073229Y-38283229D01*
X56080368Y-38281441D01*
X56087649Y-38280361D01*
X56095000Y-38280000D01*
X56245000Y-38280000D01*
X56252351Y-38280361D01*
G37*
G04 #@! TD.AperFunction*
G04 #@! TA.AperFunction,SMDPad,CuDef*
G36*
X56752351Y-38280361D02*
G01*
X56759632Y-38281441D01*
X56766771Y-38283229D01*
X56773701Y-38285709D01*
X56780355Y-38288856D01*
X56786668Y-38292640D01*
X56792579Y-38297024D01*
X56798033Y-38301967D01*
X56802976Y-38307421D01*
X56807360Y-38313332D01*
X56811144Y-38319645D01*
X56814291Y-38326299D01*
X56816771Y-38333229D01*
X56818559Y-38340368D01*
X56819639Y-38347649D01*
X56820000Y-38355000D01*
X56820000Y-39680000D01*
X56819639Y-39687351D01*
X56818559Y-39694632D01*
X56816771Y-39701771D01*
X56814291Y-39708701D01*
X56811144Y-39715355D01*
X56807360Y-39721668D01*
X56802976Y-39727579D01*
X56798033Y-39733033D01*
X56792579Y-39737976D01*
X56786668Y-39742360D01*
X56780355Y-39746144D01*
X56773701Y-39749291D01*
X56766771Y-39751771D01*
X56759632Y-39753559D01*
X56752351Y-39754639D01*
X56745000Y-39755000D01*
X56595000Y-39755000D01*
X56587649Y-39754639D01*
X56580368Y-39753559D01*
X56573229Y-39751771D01*
X56566299Y-39749291D01*
X56559645Y-39746144D01*
X56553332Y-39742360D01*
X56547421Y-39737976D01*
X56541967Y-39733033D01*
X56537024Y-39727579D01*
X56532640Y-39721668D01*
X56528856Y-39715355D01*
X56525709Y-39708701D01*
X56523229Y-39701771D01*
X56521441Y-39694632D01*
X56520361Y-39687351D01*
X56520000Y-39680000D01*
X56520000Y-38355000D01*
X56520361Y-38347649D01*
X56521441Y-38340368D01*
X56523229Y-38333229D01*
X56525709Y-38326299D01*
X56528856Y-38319645D01*
X56532640Y-38313332D01*
X56537024Y-38307421D01*
X56541967Y-38301967D01*
X56547421Y-38297024D01*
X56553332Y-38292640D01*
X56559645Y-38288856D01*
X56566299Y-38285709D01*
X56573229Y-38283229D01*
X56580368Y-38281441D01*
X56587649Y-38280361D01*
X56595000Y-38280000D01*
X56745000Y-38280000D01*
X56752351Y-38280361D01*
G37*
G04 #@! TD.AperFunction*
G04 #@! TA.AperFunction,SMDPad,CuDef*
G36*
X57252351Y-38280361D02*
G01*
X57259632Y-38281441D01*
X57266771Y-38283229D01*
X57273701Y-38285709D01*
X57280355Y-38288856D01*
X57286668Y-38292640D01*
X57292579Y-38297024D01*
X57298033Y-38301967D01*
X57302976Y-38307421D01*
X57307360Y-38313332D01*
X57311144Y-38319645D01*
X57314291Y-38326299D01*
X57316771Y-38333229D01*
X57318559Y-38340368D01*
X57319639Y-38347649D01*
X57320000Y-38355000D01*
X57320000Y-39680000D01*
X57319639Y-39687351D01*
X57318559Y-39694632D01*
X57316771Y-39701771D01*
X57314291Y-39708701D01*
X57311144Y-39715355D01*
X57307360Y-39721668D01*
X57302976Y-39727579D01*
X57298033Y-39733033D01*
X57292579Y-39737976D01*
X57286668Y-39742360D01*
X57280355Y-39746144D01*
X57273701Y-39749291D01*
X57266771Y-39751771D01*
X57259632Y-39753559D01*
X57252351Y-39754639D01*
X57245000Y-39755000D01*
X57095000Y-39755000D01*
X57087649Y-39754639D01*
X57080368Y-39753559D01*
X57073229Y-39751771D01*
X57066299Y-39749291D01*
X57059645Y-39746144D01*
X57053332Y-39742360D01*
X57047421Y-39737976D01*
X57041967Y-39733033D01*
X57037024Y-39727579D01*
X57032640Y-39721668D01*
X57028856Y-39715355D01*
X57025709Y-39708701D01*
X57023229Y-39701771D01*
X57021441Y-39694632D01*
X57020361Y-39687351D01*
X57020000Y-39680000D01*
X57020000Y-38355000D01*
X57020361Y-38347649D01*
X57021441Y-38340368D01*
X57023229Y-38333229D01*
X57025709Y-38326299D01*
X57028856Y-38319645D01*
X57032640Y-38313332D01*
X57037024Y-38307421D01*
X57041967Y-38301967D01*
X57047421Y-38297024D01*
X57053332Y-38292640D01*
X57059645Y-38288856D01*
X57066299Y-38285709D01*
X57073229Y-38283229D01*
X57080368Y-38281441D01*
X57087649Y-38280361D01*
X57095000Y-38280000D01*
X57245000Y-38280000D01*
X57252351Y-38280361D01*
G37*
G04 #@! TD.AperFunction*
G04 #@! TA.AperFunction,SMDPad,CuDef*
G36*
X57752351Y-38280361D02*
G01*
X57759632Y-38281441D01*
X57766771Y-38283229D01*
X57773701Y-38285709D01*
X57780355Y-38288856D01*
X57786668Y-38292640D01*
X57792579Y-38297024D01*
X57798033Y-38301967D01*
X57802976Y-38307421D01*
X57807360Y-38313332D01*
X57811144Y-38319645D01*
X57814291Y-38326299D01*
X57816771Y-38333229D01*
X57818559Y-38340368D01*
X57819639Y-38347649D01*
X57820000Y-38355000D01*
X57820000Y-39680000D01*
X57819639Y-39687351D01*
X57818559Y-39694632D01*
X57816771Y-39701771D01*
X57814291Y-39708701D01*
X57811144Y-39715355D01*
X57807360Y-39721668D01*
X57802976Y-39727579D01*
X57798033Y-39733033D01*
X57792579Y-39737976D01*
X57786668Y-39742360D01*
X57780355Y-39746144D01*
X57773701Y-39749291D01*
X57766771Y-39751771D01*
X57759632Y-39753559D01*
X57752351Y-39754639D01*
X57745000Y-39755000D01*
X57595000Y-39755000D01*
X57587649Y-39754639D01*
X57580368Y-39753559D01*
X57573229Y-39751771D01*
X57566299Y-39749291D01*
X57559645Y-39746144D01*
X57553332Y-39742360D01*
X57547421Y-39737976D01*
X57541967Y-39733033D01*
X57537024Y-39727579D01*
X57532640Y-39721668D01*
X57528856Y-39715355D01*
X57525709Y-39708701D01*
X57523229Y-39701771D01*
X57521441Y-39694632D01*
X57520361Y-39687351D01*
X57520000Y-39680000D01*
X57520000Y-38355000D01*
X57520361Y-38347649D01*
X57521441Y-38340368D01*
X57523229Y-38333229D01*
X57525709Y-38326299D01*
X57528856Y-38319645D01*
X57532640Y-38313332D01*
X57537024Y-38307421D01*
X57541967Y-38301967D01*
X57547421Y-38297024D01*
X57553332Y-38292640D01*
X57559645Y-38288856D01*
X57566299Y-38285709D01*
X57573229Y-38283229D01*
X57580368Y-38281441D01*
X57587649Y-38280361D01*
X57595000Y-38280000D01*
X57745000Y-38280000D01*
X57752351Y-38280361D01*
G37*
G04 #@! TD.AperFunction*
G04 #@! TA.AperFunction,SMDPad,CuDef*
G36*
X58252351Y-38280361D02*
G01*
X58259632Y-38281441D01*
X58266771Y-38283229D01*
X58273701Y-38285709D01*
X58280355Y-38288856D01*
X58286668Y-38292640D01*
X58292579Y-38297024D01*
X58298033Y-38301967D01*
X58302976Y-38307421D01*
X58307360Y-38313332D01*
X58311144Y-38319645D01*
X58314291Y-38326299D01*
X58316771Y-38333229D01*
X58318559Y-38340368D01*
X58319639Y-38347649D01*
X58320000Y-38355000D01*
X58320000Y-39680000D01*
X58319639Y-39687351D01*
X58318559Y-39694632D01*
X58316771Y-39701771D01*
X58314291Y-39708701D01*
X58311144Y-39715355D01*
X58307360Y-39721668D01*
X58302976Y-39727579D01*
X58298033Y-39733033D01*
X58292579Y-39737976D01*
X58286668Y-39742360D01*
X58280355Y-39746144D01*
X58273701Y-39749291D01*
X58266771Y-39751771D01*
X58259632Y-39753559D01*
X58252351Y-39754639D01*
X58245000Y-39755000D01*
X58095000Y-39755000D01*
X58087649Y-39754639D01*
X58080368Y-39753559D01*
X58073229Y-39751771D01*
X58066299Y-39749291D01*
X58059645Y-39746144D01*
X58053332Y-39742360D01*
X58047421Y-39737976D01*
X58041967Y-39733033D01*
X58037024Y-39727579D01*
X58032640Y-39721668D01*
X58028856Y-39715355D01*
X58025709Y-39708701D01*
X58023229Y-39701771D01*
X58021441Y-39694632D01*
X58020361Y-39687351D01*
X58020000Y-39680000D01*
X58020000Y-38355000D01*
X58020361Y-38347649D01*
X58021441Y-38340368D01*
X58023229Y-38333229D01*
X58025709Y-38326299D01*
X58028856Y-38319645D01*
X58032640Y-38313332D01*
X58037024Y-38307421D01*
X58041967Y-38301967D01*
X58047421Y-38297024D01*
X58053332Y-38292640D01*
X58059645Y-38288856D01*
X58066299Y-38285709D01*
X58073229Y-38283229D01*
X58080368Y-38281441D01*
X58087649Y-38280361D01*
X58095000Y-38280000D01*
X58245000Y-38280000D01*
X58252351Y-38280361D01*
G37*
G04 #@! TD.AperFunction*
G04 #@! TA.AperFunction,SMDPad,CuDef*
G36*
X58752351Y-38280361D02*
G01*
X58759632Y-38281441D01*
X58766771Y-38283229D01*
X58773701Y-38285709D01*
X58780355Y-38288856D01*
X58786668Y-38292640D01*
X58792579Y-38297024D01*
X58798033Y-38301967D01*
X58802976Y-38307421D01*
X58807360Y-38313332D01*
X58811144Y-38319645D01*
X58814291Y-38326299D01*
X58816771Y-38333229D01*
X58818559Y-38340368D01*
X58819639Y-38347649D01*
X58820000Y-38355000D01*
X58820000Y-39680000D01*
X58819639Y-39687351D01*
X58818559Y-39694632D01*
X58816771Y-39701771D01*
X58814291Y-39708701D01*
X58811144Y-39715355D01*
X58807360Y-39721668D01*
X58802976Y-39727579D01*
X58798033Y-39733033D01*
X58792579Y-39737976D01*
X58786668Y-39742360D01*
X58780355Y-39746144D01*
X58773701Y-39749291D01*
X58766771Y-39751771D01*
X58759632Y-39753559D01*
X58752351Y-39754639D01*
X58745000Y-39755000D01*
X58595000Y-39755000D01*
X58587649Y-39754639D01*
X58580368Y-39753559D01*
X58573229Y-39751771D01*
X58566299Y-39749291D01*
X58559645Y-39746144D01*
X58553332Y-39742360D01*
X58547421Y-39737976D01*
X58541967Y-39733033D01*
X58537024Y-39727579D01*
X58532640Y-39721668D01*
X58528856Y-39715355D01*
X58525709Y-39708701D01*
X58523229Y-39701771D01*
X58521441Y-39694632D01*
X58520361Y-39687351D01*
X58520000Y-39680000D01*
X58520000Y-38355000D01*
X58520361Y-38347649D01*
X58521441Y-38340368D01*
X58523229Y-38333229D01*
X58525709Y-38326299D01*
X58528856Y-38319645D01*
X58532640Y-38313332D01*
X58537024Y-38307421D01*
X58541967Y-38301967D01*
X58547421Y-38297024D01*
X58553332Y-38292640D01*
X58559645Y-38288856D01*
X58566299Y-38285709D01*
X58573229Y-38283229D01*
X58580368Y-38281441D01*
X58587649Y-38280361D01*
X58595000Y-38280000D01*
X58745000Y-38280000D01*
X58752351Y-38280361D01*
G37*
G04 #@! TD.AperFunction*
G04 #@! TA.AperFunction,SMDPad,CuDef*
G36*
X59252351Y-38280361D02*
G01*
X59259632Y-38281441D01*
X59266771Y-38283229D01*
X59273701Y-38285709D01*
X59280355Y-38288856D01*
X59286668Y-38292640D01*
X59292579Y-38297024D01*
X59298033Y-38301967D01*
X59302976Y-38307421D01*
X59307360Y-38313332D01*
X59311144Y-38319645D01*
X59314291Y-38326299D01*
X59316771Y-38333229D01*
X59318559Y-38340368D01*
X59319639Y-38347649D01*
X59320000Y-38355000D01*
X59320000Y-39680000D01*
X59319639Y-39687351D01*
X59318559Y-39694632D01*
X59316771Y-39701771D01*
X59314291Y-39708701D01*
X59311144Y-39715355D01*
X59307360Y-39721668D01*
X59302976Y-39727579D01*
X59298033Y-39733033D01*
X59292579Y-39737976D01*
X59286668Y-39742360D01*
X59280355Y-39746144D01*
X59273701Y-39749291D01*
X59266771Y-39751771D01*
X59259632Y-39753559D01*
X59252351Y-39754639D01*
X59245000Y-39755000D01*
X59095000Y-39755000D01*
X59087649Y-39754639D01*
X59080368Y-39753559D01*
X59073229Y-39751771D01*
X59066299Y-39749291D01*
X59059645Y-39746144D01*
X59053332Y-39742360D01*
X59047421Y-39737976D01*
X59041967Y-39733033D01*
X59037024Y-39727579D01*
X59032640Y-39721668D01*
X59028856Y-39715355D01*
X59025709Y-39708701D01*
X59023229Y-39701771D01*
X59021441Y-39694632D01*
X59020361Y-39687351D01*
X59020000Y-39680000D01*
X59020000Y-38355000D01*
X59020361Y-38347649D01*
X59021441Y-38340368D01*
X59023229Y-38333229D01*
X59025709Y-38326299D01*
X59028856Y-38319645D01*
X59032640Y-38313332D01*
X59037024Y-38307421D01*
X59041967Y-38301967D01*
X59047421Y-38297024D01*
X59053332Y-38292640D01*
X59059645Y-38288856D01*
X59066299Y-38285709D01*
X59073229Y-38283229D01*
X59080368Y-38281441D01*
X59087649Y-38280361D01*
X59095000Y-38280000D01*
X59245000Y-38280000D01*
X59252351Y-38280361D01*
G37*
G04 #@! TD.AperFunction*
G04 #@! TA.AperFunction,SMDPad,CuDef*
G36*
X59752351Y-38280361D02*
G01*
X59759632Y-38281441D01*
X59766771Y-38283229D01*
X59773701Y-38285709D01*
X59780355Y-38288856D01*
X59786668Y-38292640D01*
X59792579Y-38297024D01*
X59798033Y-38301967D01*
X59802976Y-38307421D01*
X59807360Y-38313332D01*
X59811144Y-38319645D01*
X59814291Y-38326299D01*
X59816771Y-38333229D01*
X59818559Y-38340368D01*
X59819639Y-38347649D01*
X59820000Y-38355000D01*
X59820000Y-39680000D01*
X59819639Y-39687351D01*
X59818559Y-39694632D01*
X59816771Y-39701771D01*
X59814291Y-39708701D01*
X59811144Y-39715355D01*
X59807360Y-39721668D01*
X59802976Y-39727579D01*
X59798033Y-39733033D01*
X59792579Y-39737976D01*
X59786668Y-39742360D01*
X59780355Y-39746144D01*
X59773701Y-39749291D01*
X59766771Y-39751771D01*
X59759632Y-39753559D01*
X59752351Y-39754639D01*
X59745000Y-39755000D01*
X59595000Y-39755000D01*
X59587649Y-39754639D01*
X59580368Y-39753559D01*
X59573229Y-39751771D01*
X59566299Y-39749291D01*
X59559645Y-39746144D01*
X59553332Y-39742360D01*
X59547421Y-39737976D01*
X59541967Y-39733033D01*
X59537024Y-39727579D01*
X59532640Y-39721668D01*
X59528856Y-39715355D01*
X59525709Y-39708701D01*
X59523229Y-39701771D01*
X59521441Y-39694632D01*
X59520361Y-39687351D01*
X59520000Y-39680000D01*
X59520000Y-38355000D01*
X59520361Y-38347649D01*
X59521441Y-38340368D01*
X59523229Y-38333229D01*
X59525709Y-38326299D01*
X59528856Y-38319645D01*
X59532640Y-38313332D01*
X59537024Y-38307421D01*
X59541967Y-38301967D01*
X59547421Y-38297024D01*
X59553332Y-38292640D01*
X59559645Y-38288856D01*
X59566299Y-38285709D01*
X59573229Y-38283229D01*
X59580368Y-38281441D01*
X59587649Y-38280361D01*
X59595000Y-38280000D01*
X59745000Y-38280000D01*
X59752351Y-38280361D01*
G37*
G04 #@! TD.AperFunction*
G04 #@! TA.AperFunction,SMDPad,CuDef*
G36*
X60252351Y-38280361D02*
G01*
X60259632Y-38281441D01*
X60266771Y-38283229D01*
X60273701Y-38285709D01*
X60280355Y-38288856D01*
X60286668Y-38292640D01*
X60292579Y-38297024D01*
X60298033Y-38301967D01*
X60302976Y-38307421D01*
X60307360Y-38313332D01*
X60311144Y-38319645D01*
X60314291Y-38326299D01*
X60316771Y-38333229D01*
X60318559Y-38340368D01*
X60319639Y-38347649D01*
X60320000Y-38355000D01*
X60320000Y-39680000D01*
X60319639Y-39687351D01*
X60318559Y-39694632D01*
X60316771Y-39701771D01*
X60314291Y-39708701D01*
X60311144Y-39715355D01*
X60307360Y-39721668D01*
X60302976Y-39727579D01*
X60298033Y-39733033D01*
X60292579Y-39737976D01*
X60286668Y-39742360D01*
X60280355Y-39746144D01*
X60273701Y-39749291D01*
X60266771Y-39751771D01*
X60259632Y-39753559D01*
X60252351Y-39754639D01*
X60245000Y-39755000D01*
X60095000Y-39755000D01*
X60087649Y-39754639D01*
X60080368Y-39753559D01*
X60073229Y-39751771D01*
X60066299Y-39749291D01*
X60059645Y-39746144D01*
X60053332Y-39742360D01*
X60047421Y-39737976D01*
X60041967Y-39733033D01*
X60037024Y-39727579D01*
X60032640Y-39721668D01*
X60028856Y-39715355D01*
X60025709Y-39708701D01*
X60023229Y-39701771D01*
X60021441Y-39694632D01*
X60020361Y-39687351D01*
X60020000Y-39680000D01*
X60020000Y-38355000D01*
X60020361Y-38347649D01*
X60021441Y-38340368D01*
X60023229Y-38333229D01*
X60025709Y-38326299D01*
X60028856Y-38319645D01*
X60032640Y-38313332D01*
X60037024Y-38307421D01*
X60041967Y-38301967D01*
X60047421Y-38297024D01*
X60053332Y-38292640D01*
X60059645Y-38288856D01*
X60066299Y-38285709D01*
X60073229Y-38283229D01*
X60080368Y-38281441D01*
X60087649Y-38280361D01*
X60095000Y-38280000D01*
X60245000Y-38280000D01*
X60252351Y-38280361D01*
G37*
G04 #@! TD.AperFunction*
G04 #@! TA.AperFunction,SMDPad,CuDef*
G36*
X60752351Y-38280361D02*
G01*
X60759632Y-38281441D01*
X60766771Y-38283229D01*
X60773701Y-38285709D01*
X60780355Y-38288856D01*
X60786668Y-38292640D01*
X60792579Y-38297024D01*
X60798033Y-38301967D01*
X60802976Y-38307421D01*
X60807360Y-38313332D01*
X60811144Y-38319645D01*
X60814291Y-38326299D01*
X60816771Y-38333229D01*
X60818559Y-38340368D01*
X60819639Y-38347649D01*
X60820000Y-38355000D01*
X60820000Y-39680000D01*
X60819639Y-39687351D01*
X60818559Y-39694632D01*
X60816771Y-39701771D01*
X60814291Y-39708701D01*
X60811144Y-39715355D01*
X60807360Y-39721668D01*
X60802976Y-39727579D01*
X60798033Y-39733033D01*
X60792579Y-39737976D01*
X60786668Y-39742360D01*
X60780355Y-39746144D01*
X60773701Y-39749291D01*
X60766771Y-39751771D01*
X60759632Y-39753559D01*
X60752351Y-39754639D01*
X60745000Y-39755000D01*
X60595000Y-39755000D01*
X60587649Y-39754639D01*
X60580368Y-39753559D01*
X60573229Y-39751771D01*
X60566299Y-39749291D01*
X60559645Y-39746144D01*
X60553332Y-39742360D01*
X60547421Y-39737976D01*
X60541967Y-39733033D01*
X60537024Y-39727579D01*
X60532640Y-39721668D01*
X60528856Y-39715355D01*
X60525709Y-39708701D01*
X60523229Y-39701771D01*
X60521441Y-39694632D01*
X60520361Y-39687351D01*
X60520000Y-39680000D01*
X60520000Y-38355000D01*
X60520361Y-38347649D01*
X60521441Y-38340368D01*
X60523229Y-38333229D01*
X60525709Y-38326299D01*
X60528856Y-38319645D01*
X60532640Y-38313332D01*
X60537024Y-38307421D01*
X60541967Y-38301967D01*
X60547421Y-38297024D01*
X60553332Y-38292640D01*
X60559645Y-38288856D01*
X60566299Y-38285709D01*
X60573229Y-38283229D01*
X60580368Y-38281441D01*
X60587649Y-38280361D01*
X60595000Y-38280000D01*
X60745000Y-38280000D01*
X60752351Y-38280361D01*
G37*
G04 #@! TD.AperFunction*
G04 #@! TA.AperFunction,SMDPad,CuDef*
G36*
X61252351Y-38280361D02*
G01*
X61259632Y-38281441D01*
X61266771Y-38283229D01*
X61273701Y-38285709D01*
X61280355Y-38288856D01*
X61286668Y-38292640D01*
X61292579Y-38297024D01*
X61298033Y-38301967D01*
X61302976Y-38307421D01*
X61307360Y-38313332D01*
X61311144Y-38319645D01*
X61314291Y-38326299D01*
X61316771Y-38333229D01*
X61318559Y-38340368D01*
X61319639Y-38347649D01*
X61320000Y-38355000D01*
X61320000Y-39680000D01*
X61319639Y-39687351D01*
X61318559Y-39694632D01*
X61316771Y-39701771D01*
X61314291Y-39708701D01*
X61311144Y-39715355D01*
X61307360Y-39721668D01*
X61302976Y-39727579D01*
X61298033Y-39733033D01*
X61292579Y-39737976D01*
X61286668Y-39742360D01*
X61280355Y-39746144D01*
X61273701Y-39749291D01*
X61266771Y-39751771D01*
X61259632Y-39753559D01*
X61252351Y-39754639D01*
X61245000Y-39755000D01*
X61095000Y-39755000D01*
X61087649Y-39754639D01*
X61080368Y-39753559D01*
X61073229Y-39751771D01*
X61066299Y-39749291D01*
X61059645Y-39746144D01*
X61053332Y-39742360D01*
X61047421Y-39737976D01*
X61041967Y-39733033D01*
X61037024Y-39727579D01*
X61032640Y-39721668D01*
X61028856Y-39715355D01*
X61025709Y-39708701D01*
X61023229Y-39701771D01*
X61021441Y-39694632D01*
X61020361Y-39687351D01*
X61020000Y-39680000D01*
X61020000Y-38355000D01*
X61020361Y-38347649D01*
X61021441Y-38340368D01*
X61023229Y-38333229D01*
X61025709Y-38326299D01*
X61028856Y-38319645D01*
X61032640Y-38313332D01*
X61037024Y-38307421D01*
X61041967Y-38301967D01*
X61047421Y-38297024D01*
X61053332Y-38292640D01*
X61059645Y-38288856D01*
X61066299Y-38285709D01*
X61073229Y-38283229D01*
X61080368Y-38281441D01*
X61087649Y-38280361D01*
X61095000Y-38280000D01*
X61245000Y-38280000D01*
X61252351Y-38280361D01*
G37*
G04 #@! TD.AperFunction*
D11*
X58420000Y-43180000D03*
X58420000Y-68580000D03*
G04 #@! TA.AperFunction,SMDPad,CuDef*
D10*
G36*
X55752351Y-72005361D02*
G01*
X55759632Y-72006441D01*
X55766771Y-72008229D01*
X55773701Y-72010709D01*
X55780355Y-72013856D01*
X55786668Y-72017640D01*
X55792579Y-72022024D01*
X55798033Y-72026967D01*
X55802976Y-72032421D01*
X55807360Y-72038332D01*
X55811144Y-72044645D01*
X55814291Y-72051299D01*
X55816771Y-72058229D01*
X55818559Y-72065368D01*
X55819639Y-72072649D01*
X55820000Y-72080000D01*
X55820000Y-73405000D01*
X55819639Y-73412351D01*
X55818559Y-73419632D01*
X55816771Y-73426771D01*
X55814291Y-73433701D01*
X55811144Y-73440355D01*
X55807360Y-73446668D01*
X55802976Y-73452579D01*
X55798033Y-73458033D01*
X55792579Y-73462976D01*
X55786668Y-73467360D01*
X55780355Y-73471144D01*
X55773701Y-73474291D01*
X55766771Y-73476771D01*
X55759632Y-73478559D01*
X55752351Y-73479639D01*
X55745000Y-73480000D01*
X55595000Y-73480000D01*
X55587649Y-73479639D01*
X55580368Y-73478559D01*
X55573229Y-73476771D01*
X55566299Y-73474291D01*
X55559645Y-73471144D01*
X55553332Y-73467360D01*
X55547421Y-73462976D01*
X55541967Y-73458033D01*
X55537024Y-73452579D01*
X55532640Y-73446668D01*
X55528856Y-73440355D01*
X55525709Y-73433701D01*
X55523229Y-73426771D01*
X55521441Y-73419632D01*
X55520361Y-73412351D01*
X55520000Y-73405000D01*
X55520000Y-72080000D01*
X55520361Y-72072649D01*
X55521441Y-72065368D01*
X55523229Y-72058229D01*
X55525709Y-72051299D01*
X55528856Y-72044645D01*
X55532640Y-72038332D01*
X55537024Y-72032421D01*
X55541967Y-72026967D01*
X55547421Y-72022024D01*
X55553332Y-72017640D01*
X55559645Y-72013856D01*
X55566299Y-72010709D01*
X55573229Y-72008229D01*
X55580368Y-72006441D01*
X55587649Y-72005361D01*
X55595000Y-72005000D01*
X55745000Y-72005000D01*
X55752351Y-72005361D01*
G37*
G04 #@! TD.AperFunction*
G04 #@! TA.AperFunction,SMDPad,CuDef*
G36*
X56252351Y-72005361D02*
G01*
X56259632Y-72006441D01*
X56266771Y-72008229D01*
X56273701Y-72010709D01*
X56280355Y-72013856D01*
X56286668Y-72017640D01*
X56292579Y-72022024D01*
X56298033Y-72026967D01*
X56302976Y-72032421D01*
X56307360Y-72038332D01*
X56311144Y-72044645D01*
X56314291Y-72051299D01*
X56316771Y-72058229D01*
X56318559Y-72065368D01*
X56319639Y-72072649D01*
X56320000Y-72080000D01*
X56320000Y-73405000D01*
X56319639Y-73412351D01*
X56318559Y-73419632D01*
X56316771Y-73426771D01*
X56314291Y-73433701D01*
X56311144Y-73440355D01*
X56307360Y-73446668D01*
X56302976Y-73452579D01*
X56298033Y-73458033D01*
X56292579Y-73462976D01*
X56286668Y-73467360D01*
X56280355Y-73471144D01*
X56273701Y-73474291D01*
X56266771Y-73476771D01*
X56259632Y-73478559D01*
X56252351Y-73479639D01*
X56245000Y-73480000D01*
X56095000Y-73480000D01*
X56087649Y-73479639D01*
X56080368Y-73478559D01*
X56073229Y-73476771D01*
X56066299Y-73474291D01*
X56059645Y-73471144D01*
X56053332Y-73467360D01*
X56047421Y-73462976D01*
X56041967Y-73458033D01*
X56037024Y-73452579D01*
X56032640Y-73446668D01*
X56028856Y-73440355D01*
X56025709Y-73433701D01*
X56023229Y-73426771D01*
X56021441Y-73419632D01*
X56020361Y-73412351D01*
X56020000Y-73405000D01*
X56020000Y-72080000D01*
X56020361Y-72072649D01*
X56021441Y-72065368D01*
X56023229Y-72058229D01*
X56025709Y-72051299D01*
X56028856Y-72044645D01*
X56032640Y-72038332D01*
X56037024Y-72032421D01*
X56041967Y-72026967D01*
X56047421Y-72022024D01*
X56053332Y-72017640D01*
X56059645Y-72013856D01*
X56066299Y-72010709D01*
X56073229Y-72008229D01*
X56080368Y-72006441D01*
X56087649Y-72005361D01*
X56095000Y-72005000D01*
X56245000Y-72005000D01*
X56252351Y-72005361D01*
G37*
G04 #@! TD.AperFunction*
G04 #@! TA.AperFunction,SMDPad,CuDef*
G36*
X56752351Y-72005361D02*
G01*
X56759632Y-72006441D01*
X56766771Y-72008229D01*
X56773701Y-72010709D01*
X56780355Y-72013856D01*
X56786668Y-72017640D01*
X56792579Y-72022024D01*
X56798033Y-72026967D01*
X56802976Y-72032421D01*
X56807360Y-72038332D01*
X56811144Y-72044645D01*
X56814291Y-72051299D01*
X56816771Y-72058229D01*
X56818559Y-72065368D01*
X56819639Y-72072649D01*
X56820000Y-72080000D01*
X56820000Y-73405000D01*
X56819639Y-73412351D01*
X56818559Y-73419632D01*
X56816771Y-73426771D01*
X56814291Y-73433701D01*
X56811144Y-73440355D01*
X56807360Y-73446668D01*
X56802976Y-73452579D01*
X56798033Y-73458033D01*
X56792579Y-73462976D01*
X56786668Y-73467360D01*
X56780355Y-73471144D01*
X56773701Y-73474291D01*
X56766771Y-73476771D01*
X56759632Y-73478559D01*
X56752351Y-73479639D01*
X56745000Y-73480000D01*
X56595000Y-73480000D01*
X56587649Y-73479639D01*
X56580368Y-73478559D01*
X56573229Y-73476771D01*
X56566299Y-73474291D01*
X56559645Y-73471144D01*
X56553332Y-73467360D01*
X56547421Y-73462976D01*
X56541967Y-73458033D01*
X56537024Y-73452579D01*
X56532640Y-73446668D01*
X56528856Y-73440355D01*
X56525709Y-73433701D01*
X56523229Y-73426771D01*
X56521441Y-73419632D01*
X56520361Y-73412351D01*
X56520000Y-73405000D01*
X56520000Y-72080000D01*
X56520361Y-72072649D01*
X56521441Y-72065368D01*
X56523229Y-72058229D01*
X56525709Y-72051299D01*
X56528856Y-72044645D01*
X56532640Y-72038332D01*
X56537024Y-72032421D01*
X56541967Y-72026967D01*
X56547421Y-72022024D01*
X56553332Y-72017640D01*
X56559645Y-72013856D01*
X56566299Y-72010709D01*
X56573229Y-72008229D01*
X56580368Y-72006441D01*
X56587649Y-72005361D01*
X56595000Y-72005000D01*
X56745000Y-72005000D01*
X56752351Y-72005361D01*
G37*
G04 #@! TD.AperFunction*
G04 #@! TA.AperFunction,SMDPad,CuDef*
G36*
X57252351Y-72005361D02*
G01*
X57259632Y-72006441D01*
X57266771Y-72008229D01*
X57273701Y-72010709D01*
X57280355Y-72013856D01*
X57286668Y-72017640D01*
X57292579Y-72022024D01*
X57298033Y-72026967D01*
X57302976Y-72032421D01*
X57307360Y-72038332D01*
X57311144Y-72044645D01*
X57314291Y-72051299D01*
X57316771Y-72058229D01*
X57318559Y-72065368D01*
X57319639Y-72072649D01*
X57320000Y-72080000D01*
X57320000Y-73405000D01*
X57319639Y-73412351D01*
X57318559Y-73419632D01*
X57316771Y-73426771D01*
X57314291Y-73433701D01*
X57311144Y-73440355D01*
X57307360Y-73446668D01*
X57302976Y-73452579D01*
X57298033Y-73458033D01*
X57292579Y-73462976D01*
X57286668Y-73467360D01*
X57280355Y-73471144D01*
X57273701Y-73474291D01*
X57266771Y-73476771D01*
X57259632Y-73478559D01*
X57252351Y-73479639D01*
X57245000Y-73480000D01*
X57095000Y-73480000D01*
X57087649Y-73479639D01*
X57080368Y-73478559D01*
X57073229Y-73476771D01*
X57066299Y-73474291D01*
X57059645Y-73471144D01*
X57053332Y-73467360D01*
X57047421Y-73462976D01*
X57041967Y-73458033D01*
X57037024Y-73452579D01*
X57032640Y-73446668D01*
X57028856Y-73440355D01*
X57025709Y-73433701D01*
X57023229Y-73426771D01*
X57021441Y-73419632D01*
X57020361Y-73412351D01*
X57020000Y-73405000D01*
X57020000Y-72080000D01*
X57020361Y-72072649D01*
X57021441Y-72065368D01*
X57023229Y-72058229D01*
X57025709Y-72051299D01*
X57028856Y-72044645D01*
X57032640Y-72038332D01*
X57037024Y-72032421D01*
X57041967Y-72026967D01*
X57047421Y-72022024D01*
X57053332Y-72017640D01*
X57059645Y-72013856D01*
X57066299Y-72010709D01*
X57073229Y-72008229D01*
X57080368Y-72006441D01*
X57087649Y-72005361D01*
X57095000Y-72005000D01*
X57245000Y-72005000D01*
X57252351Y-72005361D01*
G37*
G04 #@! TD.AperFunction*
G04 #@! TA.AperFunction,SMDPad,CuDef*
G36*
X57752351Y-72005361D02*
G01*
X57759632Y-72006441D01*
X57766771Y-72008229D01*
X57773701Y-72010709D01*
X57780355Y-72013856D01*
X57786668Y-72017640D01*
X57792579Y-72022024D01*
X57798033Y-72026967D01*
X57802976Y-72032421D01*
X57807360Y-72038332D01*
X57811144Y-72044645D01*
X57814291Y-72051299D01*
X57816771Y-72058229D01*
X57818559Y-72065368D01*
X57819639Y-72072649D01*
X57820000Y-72080000D01*
X57820000Y-73405000D01*
X57819639Y-73412351D01*
X57818559Y-73419632D01*
X57816771Y-73426771D01*
X57814291Y-73433701D01*
X57811144Y-73440355D01*
X57807360Y-73446668D01*
X57802976Y-73452579D01*
X57798033Y-73458033D01*
X57792579Y-73462976D01*
X57786668Y-73467360D01*
X57780355Y-73471144D01*
X57773701Y-73474291D01*
X57766771Y-73476771D01*
X57759632Y-73478559D01*
X57752351Y-73479639D01*
X57745000Y-73480000D01*
X57595000Y-73480000D01*
X57587649Y-73479639D01*
X57580368Y-73478559D01*
X57573229Y-73476771D01*
X57566299Y-73474291D01*
X57559645Y-73471144D01*
X57553332Y-73467360D01*
X57547421Y-73462976D01*
X57541967Y-73458033D01*
X57537024Y-73452579D01*
X57532640Y-73446668D01*
X57528856Y-73440355D01*
X57525709Y-73433701D01*
X57523229Y-73426771D01*
X57521441Y-73419632D01*
X57520361Y-73412351D01*
X57520000Y-73405000D01*
X57520000Y-72080000D01*
X57520361Y-72072649D01*
X57521441Y-72065368D01*
X57523229Y-72058229D01*
X57525709Y-72051299D01*
X57528856Y-72044645D01*
X57532640Y-72038332D01*
X57537024Y-72032421D01*
X57541967Y-72026967D01*
X57547421Y-72022024D01*
X57553332Y-72017640D01*
X57559645Y-72013856D01*
X57566299Y-72010709D01*
X57573229Y-72008229D01*
X57580368Y-72006441D01*
X57587649Y-72005361D01*
X57595000Y-72005000D01*
X57745000Y-72005000D01*
X57752351Y-72005361D01*
G37*
G04 #@! TD.AperFunction*
G04 #@! TA.AperFunction,SMDPad,CuDef*
G36*
X58252351Y-72005361D02*
G01*
X58259632Y-72006441D01*
X58266771Y-72008229D01*
X58273701Y-72010709D01*
X58280355Y-72013856D01*
X58286668Y-72017640D01*
X58292579Y-72022024D01*
X58298033Y-72026967D01*
X58302976Y-72032421D01*
X58307360Y-72038332D01*
X58311144Y-72044645D01*
X58314291Y-72051299D01*
X58316771Y-72058229D01*
X58318559Y-72065368D01*
X58319639Y-72072649D01*
X58320000Y-72080000D01*
X58320000Y-73405000D01*
X58319639Y-73412351D01*
X58318559Y-73419632D01*
X58316771Y-73426771D01*
X58314291Y-73433701D01*
X58311144Y-73440355D01*
X58307360Y-73446668D01*
X58302976Y-73452579D01*
X58298033Y-73458033D01*
X58292579Y-73462976D01*
X58286668Y-73467360D01*
X58280355Y-73471144D01*
X58273701Y-73474291D01*
X58266771Y-73476771D01*
X58259632Y-73478559D01*
X58252351Y-73479639D01*
X58245000Y-73480000D01*
X58095000Y-73480000D01*
X58087649Y-73479639D01*
X58080368Y-73478559D01*
X58073229Y-73476771D01*
X58066299Y-73474291D01*
X58059645Y-73471144D01*
X58053332Y-73467360D01*
X58047421Y-73462976D01*
X58041967Y-73458033D01*
X58037024Y-73452579D01*
X58032640Y-73446668D01*
X58028856Y-73440355D01*
X58025709Y-73433701D01*
X58023229Y-73426771D01*
X58021441Y-73419632D01*
X58020361Y-73412351D01*
X58020000Y-73405000D01*
X58020000Y-72080000D01*
X58020361Y-72072649D01*
X58021441Y-72065368D01*
X58023229Y-72058229D01*
X58025709Y-72051299D01*
X58028856Y-72044645D01*
X58032640Y-72038332D01*
X58037024Y-72032421D01*
X58041967Y-72026967D01*
X58047421Y-72022024D01*
X58053332Y-72017640D01*
X58059645Y-72013856D01*
X58066299Y-72010709D01*
X58073229Y-72008229D01*
X58080368Y-72006441D01*
X58087649Y-72005361D01*
X58095000Y-72005000D01*
X58245000Y-72005000D01*
X58252351Y-72005361D01*
G37*
G04 #@! TD.AperFunction*
G04 #@! TA.AperFunction,SMDPad,CuDef*
G36*
X58752351Y-72005361D02*
G01*
X58759632Y-72006441D01*
X58766771Y-72008229D01*
X58773701Y-72010709D01*
X58780355Y-72013856D01*
X58786668Y-72017640D01*
X58792579Y-72022024D01*
X58798033Y-72026967D01*
X58802976Y-72032421D01*
X58807360Y-72038332D01*
X58811144Y-72044645D01*
X58814291Y-72051299D01*
X58816771Y-72058229D01*
X58818559Y-72065368D01*
X58819639Y-72072649D01*
X58820000Y-72080000D01*
X58820000Y-73405000D01*
X58819639Y-73412351D01*
X58818559Y-73419632D01*
X58816771Y-73426771D01*
X58814291Y-73433701D01*
X58811144Y-73440355D01*
X58807360Y-73446668D01*
X58802976Y-73452579D01*
X58798033Y-73458033D01*
X58792579Y-73462976D01*
X58786668Y-73467360D01*
X58780355Y-73471144D01*
X58773701Y-73474291D01*
X58766771Y-73476771D01*
X58759632Y-73478559D01*
X58752351Y-73479639D01*
X58745000Y-73480000D01*
X58595000Y-73480000D01*
X58587649Y-73479639D01*
X58580368Y-73478559D01*
X58573229Y-73476771D01*
X58566299Y-73474291D01*
X58559645Y-73471144D01*
X58553332Y-73467360D01*
X58547421Y-73462976D01*
X58541967Y-73458033D01*
X58537024Y-73452579D01*
X58532640Y-73446668D01*
X58528856Y-73440355D01*
X58525709Y-73433701D01*
X58523229Y-73426771D01*
X58521441Y-73419632D01*
X58520361Y-73412351D01*
X58520000Y-73405000D01*
X58520000Y-72080000D01*
X58520361Y-72072649D01*
X58521441Y-72065368D01*
X58523229Y-72058229D01*
X58525709Y-72051299D01*
X58528856Y-72044645D01*
X58532640Y-72038332D01*
X58537024Y-72032421D01*
X58541967Y-72026967D01*
X58547421Y-72022024D01*
X58553332Y-72017640D01*
X58559645Y-72013856D01*
X58566299Y-72010709D01*
X58573229Y-72008229D01*
X58580368Y-72006441D01*
X58587649Y-72005361D01*
X58595000Y-72005000D01*
X58745000Y-72005000D01*
X58752351Y-72005361D01*
G37*
G04 #@! TD.AperFunction*
G04 #@! TA.AperFunction,SMDPad,CuDef*
G36*
X59252351Y-72005361D02*
G01*
X59259632Y-72006441D01*
X59266771Y-72008229D01*
X59273701Y-72010709D01*
X59280355Y-72013856D01*
X59286668Y-72017640D01*
X59292579Y-72022024D01*
X59298033Y-72026967D01*
X59302976Y-72032421D01*
X59307360Y-72038332D01*
X59311144Y-72044645D01*
X59314291Y-72051299D01*
X59316771Y-72058229D01*
X59318559Y-72065368D01*
X59319639Y-72072649D01*
X59320000Y-72080000D01*
X59320000Y-73405000D01*
X59319639Y-73412351D01*
X59318559Y-73419632D01*
X59316771Y-73426771D01*
X59314291Y-73433701D01*
X59311144Y-73440355D01*
X59307360Y-73446668D01*
X59302976Y-73452579D01*
X59298033Y-73458033D01*
X59292579Y-73462976D01*
X59286668Y-73467360D01*
X59280355Y-73471144D01*
X59273701Y-73474291D01*
X59266771Y-73476771D01*
X59259632Y-73478559D01*
X59252351Y-73479639D01*
X59245000Y-73480000D01*
X59095000Y-73480000D01*
X59087649Y-73479639D01*
X59080368Y-73478559D01*
X59073229Y-73476771D01*
X59066299Y-73474291D01*
X59059645Y-73471144D01*
X59053332Y-73467360D01*
X59047421Y-73462976D01*
X59041967Y-73458033D01*
X59037024Y-73452579D01*
X59032640Y-73446668D01*
X59028856Y-73440355D01*
X59025709Y-73433701D01*
X59023229Y-73426771D01*
X59021441Y-73419632D01*
X59020361Y-73412351D01*
X59020000Y-73405000D01*
X59020000Y-72080000D01*
X59020361Y-72072649D01*
X59021441Y-72065368D01*
X59023229Y-72058229D01*
X59025709Y-72051299D01*
X59028856Y-72044645D01*
X59032640Y-72038332D01*
X59037024Y-72032421D01*
X59041967Y-72026967D01*
X59047421Y-72022024D01*
X59053332Y-72017640D01*
X59059645Y-72013856D01*
X59066299Y-72010709D01*
X59073229Y-72008229D01*
X59080368Y-72006441D01*
X59087649Y-72005361D01*
X59095000Y-72005000D01*
X59245000Y-72005000D01*
X59252351Y-72005361D01*
G37*
G04 #@! TD.AperFunction*
G04 #@! TA.AperFunction,SMDPad,CuDef*
G36*
X59752351Y-72005361D02*
G01*
X59759632Y-72006441D01*
X59766771Y-72008229D01*
X59773701Y-72010709D01*
X59780355Y-72013856D01*
X59786668Y-72017640D01*
X59792579Y-72022024D01*
X59798033Y-72026967D01*
X59802976Y-72032421D01*
X59807360Y-72038332D01*
X59811144Y-72044645D01*
X59814291Y-72051299D01*
X59816771Y-72058229D01*
X59818559Y-72065368D01*
X59819639Y-72072649D01*
X59820000Y-72080000D01*
X59820000Y-73405000D01*
X59819639Y-73412351D01*
X59818559Y-73419632D01*
X59816771Y-73426771D01*
X59814291Y-73433701D01*
X59811144Y-73440355D01*
X59807360Y-73446668D01*
X59802976Y-73452579D01*
X59798033Y-73458033D01*
X59792579Y-73462976D01*
X59786668Y-73467360D01*
X59780355Y-73471144D01*
X59773701Y-73474291D01*
X59766771Y-73476771D01*
X59759632Y-73478559D01*
X59752351Y-73479639D01*
X59745000Y-73480000D01*
X59595000Y-73480000D01*
X59587649Y-73479639D01*
X59580368Y-73478559D01*
X59573229Y-73476771D01*
X59566299Y-73474291D01*
X59559645Y-73471144D01*
X59553332Y-73467360D01*
X59547421Y-73462976D01*
X59541967Y-73458033D01*
X59537024Y-73452579D01*
X59532640Y-73446668D01*
X59528856Y-73440355D01*
X59525709Y-73433701D01*
X59523229Y-73426771D01*
X59521441Y-73419632D01*
X59520361Y-73412351D01*
X59520000Y-73405000D01*
X59520000Y-72080000D01*
X59520361Y-72072649D01*
X59521441Y-72065368D01*
X59523229Y-72058229D01*
X59525709Y-72051299D01*
X59528856Y-72044645D01*
X59532640Y-72038332D01*
X59537024Y-72032421D01*
X59541967Y-72026967D01*
X59547421Y-72022024D01*
X59553332Y-72017640D01*
X59559645Y-72013856D01*
X59566299Y-72010709D01*
X59573229Y-72008229D01*
X59580368Y-72006441D01*
X59587649Y-72005361D01*
X59595000Y-72005000D01*
X59745000Y-72005000D01*
X59752351Y-72005361D01*
G37*
G04 #@! TD.AperFunction*
G04 #@! TA.AperFunction,SMDPad,CuDef*
G36*
X60252351Y-72005361D02*
G01*
X60259632Y-72006441D01*
X60266771Y-72008229D01*
X60273701Y-72010709D01*
X60280355Y-72013856D01*
X60286668Y-72017640D01*
X60292579Y-72022024D01*
X60298033Y-72026967D01*
X60302976Y-72032421D01*
X60307360Y-72038332D01*
X60311144Y-72044645D01*
X60314291Y-72051299D01*
X60316771Y-72058229D01*
X60318559Y-72065368D01*
X60319639Y-72072649D01*
X60320000Y-72080000D01*
X60320000Y-73405000D01*
X60319639Y-73412351D01*
X60318559Y-73419632D01*
X60316771Y-73426771D01*
X60314291Y-73433701D01*
X60311144Y-73440355D01*
X60307360Y-73446668D01*
X60302976Y-73452579D01*
X60298033Y-73458033D01*
X60292579Y-73462976D01*
X60286668Y-73467360D01*
X60280355Y-73471144D01*
X60273701Y-73474291D01*
X60266771Y-73476771D01*
X60259632Y-73478559D01*
X60252351Y-73479639D01*
X60245000Y-73480000D01*
X60095000Y-73480000D01*
X60087649Y-73479639D01*
X60080368Y-73478559D01*
X60073229Y-73476771D01*
X60066299Y-73474291D01*
X60059645Y-73471144D01*
X60053332Y-73467360D01*
X60047421Y-73462976D01*
X60041967Y-73458033D01*
X60037024Y-73452579D01*
X60032640Y-73446668D01*
X60028856Y-73440355D01*
X60025709Y-73433701D01*
X60023229Y-73426771D01*
X60021441Y-73419632D01*
X60020361Y-73412351D01*
X60020000Y-73405000D01*
X60020000Y-72080000D01*
X60020361Y-72072649D01*
X60021441Y-72065368D01*
X60023229Y-72058229D01*
X60025709Y-72051299D01*
X60028856Y-72044645D01*
X60032640Y-72038332D01*
X60037024Y-72032421D01*
X60041967Y-72026967D01*
X60047421Y-72022024D01*
X60053332Y-72017640D01*
X60059645Y-72013856D01*
X60066299Y-72010709D01*
X60073229Y-72008229D01*
X60080368Y-72006441D01*
X60087649Y-72005361D01*
X60095000Y-72005000D01*
X60245000Y-72005000D01*
X60252351Y-72005361D01*
G37*
G04 #@! TD.AperFunction*
G04 #@! TA.AperFunction,SMDPad,CuDef*
G36*
X60752351Y-72005361D02*
G01*
X60759632Y-72006441D01*
X60766771Y-72008229D01*
X60773701Y-72010709D01*
X60780355Y-72013856D01*
X60786668Y-72017640D01*
X60792579Y-72022024D01*
X60798033Y-72026967D01*
X60802976Y-72032421D01*
X60807360Y-72038332D01*
X60811144Y-72044645D01*
X60814291Y-72051299D01*
X60816771Y-72058229D01*
X60818559Y-72065368D01*
X60819639Y-72072649D01*
X60820000Y-72080000D01*
X60820000Y-73405000D01*
X60819639Y-73412351D01*
X60818559Y-73419632D01*
X60816771Y-73426771D01*
X60814291Y-73433701D01*
X60811144Y-73440355D01*
X60807360Y-73446668D01*
X60802976Y-73452579D01*
X60798033Y-73458033D01*
X60792579Y-73462976D01*
X60786668Y-73467360D01*
X60780355Y-73471144D01*
X60773701Y-73474291D01*
X60766771Y-73476771D01*
X60759632Y-73478559D01*
X60752351Y-73479639D01*
X60745000Y-73480000D01*
X60595000Y-73480000D01*
X60587649Y-73479639D01*
X60580368Y-73478559D01*
X60573229Y-73476771D01*
X60566299Y-73474291D01*
X60559645Y-73471144D01*
X60553332Y-73467360D01*
X60547421Y-73462976D01*
X60541967Y-73458033D01*
X60537024Y-73452579D01*
X60532640Y-73446668D01*
X60528856Y-73440355D01*
X60525709Y-73433701D01*
X60523229Y-73426771D01*
X60521441Y-73419632D01*
X60520361Y-73412351D01*
X60520000Y-73405000D01*
X60520000Y-72080000D01*
X60520361Y-72072649D01*
X60521441Y-72065368D01*
X60523229Y-72058229D01*
X60525709Y-72051299D01*
X60528856Y-72044645D01*
X60532640Y-72038332D01*
X60537024Y-72032421D01*
X60541967Y-72026967D01*
X60547421Y-72022024D01*
X60553332Y-72017640D01*
X60559645Y-72013856D01*
X60566299Y-72010709D01*
X60573229Y-72008229D01*
X60580368Y-72006441D01*
X60587649Y-72005361D01*
X60595000Y-72005000D01*
X60745000Y-72005000D01*
X60752351Y-72005361D01*
G37*
G04 #@! TD.AperFunction*
G04 #@! TA.AperFunction,SMDPad,CuDef*
G36*
X61252351Y-72005361D02*
G01*
X61259632Y-72006441D01*
X61266771Y-72008229D01*
X61273701Y-72010709D01*
X61280355Y-72013856D01*
X61286668Y-72017640D01*
X61292579Y-72022024D01*
X61298033Y-72026967D01*
X61302976Y-72032421D01*
X61307360Y-72038332D01*
X61311144Y-72044645D01*
X61314291Y-72051299D01*
X61316771Y-72058229D01*
X61318559Y-72065368D01*
X61319639Y-72072649D01*
X61320000Y-72080000D01*
X61320000Y-73405000D01*
X61319639Y-73412351D01*
X61318559Y-73419632D01*
X61316771Y-73426771D01*
X61314291Y-73433701D01*
X61311144Y-73440355D01*
X61307360Y-73446668D01*
X61302976Y-73452579D01*
X61298033Y-73458033D01*
X61292579Y-73462976D01*
X61286668Y-73467360D01*
X61280355Y-73471144D01*
X61273701Y-73474291D01*
X61266771Y-73476771D01*
X61259632Y-73478559D01*
X61252351Y-73479639D01*
X61245000Y-73480000D01*
X61095000Y-73480000D01*
X61087649Y-73479639D01*
X61080368Y-73478559D01*
X61073229Y-73476771D01*
X61066299Y-73474291D01*
X61059645Y-73471144D01*
X61053332Y-73467360D01*
X61047421Y-73462976D01*
X61041967Y-73458033D01*
X61037024Y-73452579D01*
X61032640Y-73446668D01*
X61028856Y-73440355D01*
X61025709Y-73433701D01*
X61023229Y-73426771D01*
X61021441Y-73419632D01*
X61020361Y-73412351D01*
X61020000Y-73405000D01*
X61020000Y-72080000D01*
X61020361Y-72072649D01*
X61021441Y-72065368D01*
X61023229Y-72058229D01*
X61025709Y-72051299D01*
X61028856Y-72044645D01*
X61032640Y-72038332D01*
X61037024Y-72032421D01*
X61041967Y-72026967D01*
X61047421Y-72022024D01*
X61053332Y-72017640D01*
X61059645Y-72013856D01*
X61066299Y-72010709D01*
X61073229Y-72008229D01*
X61080368Y-72006441D01*
X61087649Y-72005361D01*
X61095000Y-72005000D01*
X61245000Y-72005000D01*
X61252351Y-72005361D01*
G37*
G04 #@! TD.AperFunction*
G04 #@! TA.AperFunction,SMDPad,CuDef*
G36*
X63252351Y-71180361D02*
G01*
X63259632Y-71181441D01*
X63266771Y-71183229D01*
X63273701Y-71185709D01*
X63280355Y-71188856D01*
X63286668Y-71192640D01*
X63292579Y-71197024D01*
X63298033Y-71201967D01*
X63302976Y-71207421D01*
X63307360Y-71213332D01*
X63311144Y-71219645D01*
X63314291Y-71226299D01*
X63316771Y-71233229D01*
X63318559Y-71240368D01*
X63319639Y-71247649D01*
X63320000Y-71255000D01*
X63320000Y-71405000D01*
X63319639Y-71412351D01*
X63318559Y-71419632D01*
X63316771Y-71426771D01*
X63314291Y-71433701D01*
X63311144Y-71440355D01*
X63307360Y-71446668D01*
X63302976Y-71452579D01*
X63298033Y-71458033D01*
X63292579Y-71462976D01*
X63286668Y-71467360D01*
X63280355Y-71471144D01*
X63273701Y-71474291D01*
X63266771Y-71476771D01*
X63259632Y-71478559D01*
X63252351Y-71479639D01*
X63245000Y-71480000D01*
X61920000Y-71480000D01*
X61912649Y-71479639D01*
X61905368Y-71478559D01*
X61898229Y-71476771D01*
X61891299Y-71474291D01*
X61884645Y-71471144D01*
X61878332Y-71467360D01*
X61872421Y-71462976D01*
X61866967Y-71458033D01*
X61862024Y-71452579D01*
X61857640Y-71446668D01*
X61853856Y-71440355D01*
X61850709Y-71433701D01*
X61848229Y-71426771D01*
X61846441Y-71419632D01*
X61845361Y-71412351D01*
X61845000Y-71405000D01*
X61845000Y-71255000D01*
X61845361Y-71247649D01*
X61846441Y-71240368D01*
X61848229Y-71233229D01*
X61850709Y-71226299D01*
X61853856Y-71219645D01*
X61857640Y-71213332D01*
X61862024Y-71207421D01*
X61866967Y-71201967D01*
X61872421Y-71197024D01*
X61878332Y-71192640D01*
X61884645Y-71188856D01*
X61891299Y-71185709D01*
X61898229Y-71183229D01*
X61905368Y-71181441D01*
X61912649Y-71180361D01*
X61920000Y-71180000D01*
X63245000Y-71180000D01*
X63252351Y-71180361D01*
G37*
G04 #@! TD.AperFunction*
G04 #@! TA.AperFunction,SMDPad,CuDef*
G36*
X63252351Y-70680361D02*
G01*
X63259632Y-70681441D01*
X63266771Y-70683229D01*
X63273701Y-70685709D01*
X63280355Y-70688856D01*
X63286668Y-70692640D01*
X63292579Y-70697024D01*
X63298033Y-70701967D01*
X63302976Y-70707421D01*
X63307360Y-70713332D01*
X63311144Y-70719645D01*
X63314291Y-70726299D01*
X63316771Y-70733229D01*
X63318559Y-70740368D01*
X63319639Y-70747649D01*
X63320000Y-70755000D01*
X63320000Y-70905000D01*
X63319639Y-70912351D01*
X63318559Y-70919632D01*
X63316771Y-70926771D01*
X63314291Y-70933701D01*
X63311144Y-70940355D01*
X63307360Y-70946668D01*
X63302976Y-70952579D01*
X63298033Y-70958033D01*
X63292579Y-70962976D01*
X63286668Y-70967360D01*
X63280355Y-70971144D01*
X63273701Y-70974291D01*
X63266771Y-70976771D01*
X63259632Y-70978559D01*
X63252351Y-70979639D01*
X63245000Y-70980000D01*
X61920000Y-70980000D01*
X61912649Y-70979639D01*
X61905368Y-70978559D01*
X61898229Y-70976771D01*
X61891299Y-70974291D01*
X61884645Y-70971144D01*
X61878332Y-70967360D01*
X61872421Y-70962976D01*
X61866967Y-70958033D01*
X61862024Y-70952579D01*
X61857640Y-70946668D01*
X61853856Y-70940355D01*
X61850709Y-70933701D01*
X61848229Y-70926771D01*
X61846441Y-70919632D01*
X61845361Y-70912351D01*
X61845000Y-70905000D01*
X61845000Y-70755000D01*
X61845361Y-70747649D01*
X61846441Y-70740368D01*
X61848229Y-70733229D01*
X61850709Y-70726299D01*
X61853856Y-70719645D01*
X61857640Y-70713332D01*
X61862024Y-70707421D01*
X61866967Y-70701967D01*
X61872421Y-70697024D01*
X61878332Y-70692640D01*
X61884645Y-70688856D01*
X61891299Y-70685709D01*
X61898229Y-70683229D01*
X61905368Y-70681441D01*
X61912649Y-70680361D01*
X61920000Y-70680000D01*
X63245000Y-70680000D01*
X63252351Y-70680361D01*
G37*
G04 #@! TD.AperFunction*
G04 #@! TA.AperFunction,SMDPad,CuDef*
G36*
X63252351Y-70180361D02*
G01*
X63259632Y-70181441D01*
X63266771Y-70183229D01*
X63273701Y-70185709D01*
X63280355Y-70188856D01*
X63286668Y-70192640D01*
X63292579Y-70197024D01*
X63298033Y-70201967D01*
X63302976Y-70207421D01*
X63307360Y-70213332D01*
X63311144Y-70219645D01*
X63314291Y-70226299D01*
X63316771Y-70233229D01*
X63318559Y-70240368D01*
X63319639Y-70247649D01*
X63320000Y-70255000D01*
X63320000Y-70405000D01*
X63319639Y-70412351D01*
X63318559Y-70419632D01*
X63316771Y-70426771D01*
X63314291Y-70433701D01*
X63311144Y-70440355D01*
X63307360Y-70446668D01*
X63302976Y-70452579D01*
X63298033Y-70458033D01*
X63292579Y-70462976D01*
X63286668Y-70467360D01*
X63280355Y-70471144D01*
X63273701Y-70474291D01*
X63266771Y-70476771D01*
X63259632Y-70478559D01*
X63252351Y-70479639D01*
X63245000Y-70480000D01*
X61920000Y-70480000D01*
X61912649Y-70479639D01*
X61905368Y-70478559D01*
X61898229Y-70476771D01*
X61891299Y-70474291D01*
X61884645Y-70471144D01*
X61878332Y-70467360D01*
X61872421Y-70462976D01*
X61866967Y-70458033D01*
X61862024Y-70452579D01*
X61857640Y-70446668D01*
X61853856Y-70440355D01*
X61850709Y-70433701D01*
X61848229Y-70426771D01*
X61846441Y-70419632D01*
X61845361Y-70412351D01*
X61845000Y-70405000D01*
X61845000Y-70255000D01*
X61845361Y-70247649D01*
X61846441Y-70240368D01*
X61848229Y-70233229D01*
X61850709Y-70226299D01*
X61853856Y-70219645D01*
X61857640Y-70213332D01*
X61862024Y-70207421D01*
X61866967Y-70201967D01*
X61872421Y-70197024D01*
X61878332Y-70192640D01*
X61884645Y-70188856D01*
X61891299Y-70185709D01*
X61898229Y-70183229D01*
X61905368Y-70181441D01*
X61912649Y-70180361D01*
X61920000Y-70180000D01*
X63245000Y-70180000D01*
X63252351Y-70180361D01*
G37*
G04 #@! TD.AperFunction*
G04 #@! TA.AperFunction,SMDPad,CuDef*
G36*
X63252351Y-69680361D02*
G01*
X63259632Y-69681441D01*
X63266771Y-69683229D01*
X63273701Y-69685709D01*
X63280355Y-69688856D01*
X63286668Y-69692640D01*
X63292579Y-69697024D01*
X63298033Y-69701967D01*
X63302976Y-69707421D01*
X63307360Y-69713332D01*
X63311144Y-69719645D01*
X63314291Y-69726299D01*
X63316771Y-69733229D01*
X63318559Y-69740368D01*
X63319639Y-69747649D01*
X63320000Y-69755000D01*
X63320000Y-69905000D01*
X63319639Y-69912351D01*
X63318559Y-69919632D01*
X63316771Y-69926771D01*
X63314291Y-69933701D01*
X63311144Y-69940355D01*
X63307360Y-69946668D01*
X63302976Y-69952579D01*
X63298033Y-69958033D01*
X63292579Y-69962976D01*
X63286668Y-69967360D01*
X63280355Y-69971144D01*
X63273701Y-69974291D01*
X63266771Y-69976771D01*
X63259632Y-69978559D01*
X63252351Y-69979639D01*
X63245000Y-69980000D01*
X61920000Y-69980000D01*
X61912649Y-69979639D01*
X61905368Y-69978559D01*
X61898229Y-69976771D01*
X61891299Y-69974291D01*
X61884645Y-69971144D01*
X61878332Y-69967360D01*
X61872421Y-69962976D01*
X61866967Y-69958033D01*
X61862024Y-69952579D01*
X61857640Y-69946668D01*
X61853856Y-69940355D01*
X61850709Y-69933701D01*
X61848229Y-69926771D01*
X61846441Y-69919632D01*
X61845361Y-69912351D01*
X61845000Y-69905000D01*
X61845000Y-69755000D01*
X61845361Y-69747649D01*
X61846441Y-69740368D01*
X61848229Y-69733229D01*
X61850709Y-69726299D01*
X61853856Y-69719645D01*
X61857640Y-69713332D01*
X61862024Y-69707421D01*
X61866967Y-69701967D01*
X61872421Y-69697024D01*
X61878332Y-69692640D01*
X61884645Y-69688856D01*
X61891299Y-69685709D01*
X61898229Y-69683229D01*
X61905368Y-69681441D01*
X61912649Y-69680361D01*
X61920000Y-69680000D01*
X63245000Y-69680000D01*
X63252351Y-69680361D01*
G37*
G04 #@! TD.AperFunction*
G04 #@! TA.AperFunction,SMDPad,CuDef*
G36*
X63252351Y-69180361D02*
G01*
X63259632Y-69181441D01*
X63266771Y-69183229D01*
X63273701Y-69185709D01*
X63280355Y-69188856D01*
X63286668Y-69192640D01*
X63292579Y-69197024D01*
X63298033Y-69201967D01*
X63302976Y-69207421D01*
X63307360Y-69213332D01*
X63311144Y-69219645D01*
X63314291Y-69226299D01*
X63316771Y-69233229D01*
X63318559Y-69240368D01*
X63319639Y-69247649D01*
X63320000Y-69255000D01*
X63320000Y-69405000D01*
X63319639Y-69412351D01*
X63318559Y-69419632D01*
X63316771Y-69426771D01*
X63314291Y-69433701D01*
X63311144Y-69440355D01*
X63307360Y-69446668D01*
X63302976Y-69452579D01*
X63298033Y-69458033D01*
X63292579Y-69462976D01*
X63286668Y-69467360D01*
X63280355Y-69471144D01*
X63273701Y-69474291D01*
X63266771Y-69476771D01*
X63259632Y-69478559D01*
X63252351Y-69479639D01*
X63245000Y-69480000D01*
X61920000Y-69480000D01*
X61912649Y-69479639D01*
X61905368Y-69478559D01*
X61898229Y-69476771D01*
X61891299Y-69474291D01*
X61884645Y-69471144D01*
X61878332Y-69467360D01*
X61872421Y-69462976D01*
X61866967Y-69458033D01*
X61862024Y-69452579D01*
X61857640Y-69446668D01*
X61853856Y-69440355D01*
X61850709Y-69433701D01*
X61848229Y-69426771D01*
X61846441Y-69419632D01*
X61845361Y-69412351D01*
X61845000Y-69405000D01*
X61845000Y-69255000D01*
X61845361Y-69247649D01*
X61846441Y-69240368D01*
X61848229Y-69233229D01*
X61850709Y-69226299D01*
X61853856Y-69219645D01*
X61857640Y-69213332D01*
X61862024Y-69207421D01*
X61866967Y-69201967D01*
X61872421Y-69197024D01*
X61878332Y-69192640D01*
X61884645Y-69188856D01*
X61891299Y-69185709D01*
X61898229Y-69183229D01*
X61905368Y-69181441D01*
X61912649Y-69180361D01*
X61920000Y-69180000D01*
X63245000Y-69180000D01*
X63252351Y-69180361D01*
G37*
G04 #@! TD.AperFunction*
G04 #@! TA.AperFunction,SMDPad,CuDef*
G36*
X63252351Y-68680361D02*
G01*
X63259632Y-68681441D01*
X63266771Y-68683229D01*
X63273701Y-68685709D01*
X63280355Y-68688856D01*
X63286668Y-68692640D01*
X63292579Y-68697024D01*
X63298033Y-68701967D01*
X63302976Y-68707421D01*
X63307360Y-68713332D01*
X63311144Y-68719645D01*
X63314291Y-68726299D01*
X63316771Y-68733229D01*
X63318559Y-68740368D01*
X63319639Y-68747649D01*
X63320000Y-68755000D01*
X63320000Y-68905000D01*
X63319639Y-68912351D01*
X63318559Y-68919632D01*
X63316771Y-68926771D01*
X63314291Y-68933701D01*
X63311144Y-68940355D01*
X63307360Y-68946668D01*
X63302976Y-68952579D01*
X63298033Y-68958033D01*
X63292579Y-68962976D01*
X63286668Y-68967360D01*
X63280355Y-68971144D01*
X63273701Y-68974291D01*
X63266771Y-68976771D01*
X63259632Y-68978559D01*
X63252351Y-68979639D01*
X63245000Y-68980000D01*
X61920000Y-68980000D01*
X61912649Y-68979639D01*
X61905368Y-68978559D01*
X61898229Y-68976771D01*
X61891299Y-68974291D01*
X61884645Y-68971144D01*
X61878332Y-68967360D01*
X61872421Y-68962976D01*
X61866967Y-68958033D01*
X61862024Y-68952579D01*
X61857640Y-68946668D01*
X61853856Y-68940355D01*
X61850709Y-68933701D01*
X61848229Y-68926771D01*
X61846441Y-68919632D01*
X61845361Y-68912351D01*
X61845000Y-68905000D01*
X61845000Y-68755000D01*
X61845361Y-68747649D01*
X61846441Y-68740368D01*
X61848229Y-68733229D01*
X61850709Y-68726299D01*
X61853856Y-68719645D01*
X61857640Y-68713332D01*
X61862024Y-68707421D01*
X61866967Y-68701967D01*
X61872421Y-68697024D01*
X61878332Y-68692640D01*
X61884645Y-68688856D01*
X61891299Y-68685709D01*
X61898229Y-68683229D01*
X61905368Y-68681441D01*
X61912649Y-68680361D01*
X61920000Y-68680000D01*
X63245000Y-68680000D01*
X63252351Y-68680361D01*
G37*
G04 #@! TD.AperFunction*
G04 #@! TA.AperFunction,SMDPad,CuDef*
G36*
X63252351Y-68180361D02*
G01*
X63259632Y-68181441D01*
X63266771Y-68183229D01*
X63273701Y-68185709D01*
X63280355Y-68188856D01*
X63286668Y-68192640D01*
X63292579Y-68197024D01*
X63298033Y-68201967D01*
X63302976Y-68207421D01*
X63307360Y-68213332D01*
X63311144Y-68219645D01*
X63314291Y-68226299D01*
X63316771Y-68233229D01*
X63318559Y-68240368D01*
X63319639Y-68247649D01*
X63320000Y-68255000D01*
X63320000Y-68405000D01*
X63319639Y-68412351D01*
X63318559Y-68419632D01*
X63316771Y-68426771D01*
X63314291Y-68433701D01*
X63311144Y-68440355D01*
X63307360Y-68446668D01*
X63302976Y-68452579D01*
X63298033Y-68458033D01*
X63292579Y-68462976D01*
X63286668Y-68467360D01*
X63280355Y-68471144D01*
X63273701Y-68474291D01*
X63266771Y-68476771D01*
X63259632Y-68478559D01*
X63252351Y-68479639D01*
X63245000Y-68480000D01*
X61920000Y-68480000D01*
X61912649Y-68479639D01*
X61905368Y-68478559D01*
X61898229Y-68476771D01*
X61891299Y-68474291D01*
X61884645Y-68471144D01*
X61878332Y-68467360D01*
X61872421Y-68462976D01*
X61866967Y-68458033D01*
X61862024Y-68452579D01*
X61857640Y-68446668D01*
X61853856Y-68440355D01*
X61850709Y-68433701D01*
X61848229Y-68426771D01*
X61846441Y-68419632D01*
X61845361Y-68412351D01*
X61845000Y-68405000D01*
X61845000Y-68255000D01*
X61845361Y-68247649D01*
X61846441Y-68240368D01*
X61848229Y-68233229D01*
X61850709Y-68226299D01*
X61853856Y-68219645D01*
X61857640Y-68213332D01*
X61862024Y-68207421D01*
X61866967Y-68201967D01*
X61872421Y-68197024D01*
X61878332Y-68192640D01*
X61884645Y-68188856D01*
X61891299Y-68185709D01*
X61898229Y-68183229D01*
X61905368Y-68181441D01*
X61912649Y-68180361D01*
X61920000Y-68180000D01*
X63245000Y-68180000D01*
X63252351Y-68180361D01*
G37*
G04 #@! TD.AperFunction*
G04 #@! TA.AperFunction,SMDPad,CuDef*
G36*
X63252351Y-67680361D02*
G01*
X63259632Y-67681441D01*
X63266771Y-67683229D01*
X63273701Y-67685709D01*
X63280355Y-67688856D01*
X63286668Y-67692640D01*
X63292579Y-67697024D01*
X63298033Y-67701967D01*
X63302976Y-67707421D01*
X63307360Y-67713332D01*
X63311144Y-67719645D01*
X63314291Y-67726299D01*
X63316771Y-67733229D01*
X63318559Y-67740368D01*
X63319639Y-67747649D01*
X63320000Y-67755000D01*
X63320000Y-67905000D01*
X63319639Y-67912351D01*
X63318559Y-67919632D01*
X63316771Y-67926771D01*
X63314291Y-67933701D01*
X63311144Y-67940355D01*
X63307360Y-67946668D01*
X63302976Y-67952579D01*
X63298033Y-67958033D01*
X63292579Y-67962976D01*
X63286668Y-67967360D01*
X63280355Y-67971144D01*
X63273701Y-67974291D01*
X63266771Y-67976771D01*
X63259632Y-67978559D01*
X63252351Y-67979639D01*
X63245000Y-67980000D01*
X61920000Y-67980000D01*
X61912649Y-67979639D01*
X61905368Y-67978559D01*
X61898229Y-67976771D01*
X61891299Y-67974291D01*
X61884645Y-67971144D01*
X61878332Y-67967360D01*
X61872421Y-67962976D01*
X61866967Y-67958033D01*
X61862024Y-67952579D01*
X61857640Y-67946668D01*
X61853856Y-67940355D01*
X61850709Y-67933701D01*
X61848229Y-67926771D01*
X61846441Y-67919632D01*
X61845361Y-67912351D01*
X61845000Y-67905000D01*
X61845000Y-67755000D01*
X61845361Y-67747649D01*
X61846441Y-67740368D01*
X61848229Y-67733229D01*
X61850709Y-67726299D01*
X61853856Y-67719645D01*
X61857640Y-67713332D01*
X61862024Y-67707421D01*
X61866967Y-67701967D01*
X61872421Y-67697024D01*
X61878332Y-67692640D01*
X61884645Y-67688856D01*
X61891299Y-67685709D01*
X61898229Y-67683229D01*
X61905368Y-67681441D01*
X61912649Y-67680361D01*
X61920000Y-67680000D01*
X63245000Y-67680000D01*
X63252351Y-67680361D01*
G37*
G04 #@! TD.AperFunction*
G04 #@! TA.AperFunction,SMDPad,CuDef*
G36*
X63252351Y-67180361D02*
G01*
X63259632Y-67181441D01*
X63266771Y-67183229D01*
X63273701Y-67185709D01*
X63280355Y-67188856D01*
X63286668Y-67192640D01*
X63292579Y-67197024D01*
X63298033Y-67201967D01*
X63302976Y-67207421D01*
X63307360Y-67213332D01*
X63311144Y-67219645D01*
X63314291Y-67226299D01*
X63316771Y-67233229D01*
X63318559Y-67240368D01*
X63319639Y-67247649D01*
X63320000Y-67255000D01*
X63320000Y-67405000D01*
X63319639Y-67412351D01*
X63318559Y-67419632D01*
X63316771Y-67426771D01*
X63314291Y-67433701D01*
X63311144Y-67440355D01*
X63307360Y-67446668D01*
X63302976Y-67452579D01*
X63298033Y-67458033D01*
X63292579Y-67462976D01*
X63286668Y-67467360D01*
X63280355Y-67471144D01*
X63273701Y-67474291D01*
X63266771Y-67476771D01*
X63259632Y-67478559D01*
X63252351Y-67479639D01*
X63245000Y-67480000D01*
X61920000Y-67480000D01*
X61912649Y-67479639D01*
X61905368Y-67478559D01*
X61898229Y-67476771D01*
X61891299Y-67474291D01*
X61884645Y-67471144D01*
X61878332Y-67467360D01*
X61872421Y-67462976D01*
X61866967Y-67458033D01*
X61862024Y-67452579D01*
X61857640Y-67446668D01*
X61853856Y-67440355D01*
X61850709Y-67433701D01*
X61848229Y-67426771D01*
X61846441Y-67419632D01*
X61845361Y-67412351D01*
X61845000Y-67405000D01*
X61845000Y-67255000D01*
X61845361Y-67247649D01*
X61846441Y-67240368D01*
X61848229Y-67233229D01*
X61850709Y-67226299D01*
X61853856Y-67219645D01*
X61857640Y-67213332D01*
X61862024Y-67207421D01*
X61866967Y-67201967D01*
X61872421Y-67197024D01*
X61878332Y-67192640D01*
X61884645Y-67188856D01*
X61891299Y-67185709D01*
X61898229Y-67183229D01*
X61905368Y-67181441D01*
X61912649Y-67180361D01*
X61920000Y-67180000D01*
X63245000Y-67180000D01*
X63252351Y-67180361D01*
G37*
G04 #@! TD.AperFunction*
G04 #@! TA.AperFunction,SMDPad,CuDef*
G36*
X63252351Y-66680361D02*
G01*
X63259632Y-66681441D01*
X63266771Y-66683229D01*
X63273701Y-66685709D01*
X63280355Y-66688856D01*
X63286668Y-66692640D01*
X63292579Y-66697024D01*
X63298033Y-66701967D01*
X63302976Y-66707421D01*
X63307360Y-66713332D01*
X63311144Y-66719645D01*
X63314291Y-66726299D01*
X63316771Y-66733229D01*
X63318559Y-66740368D01*
X63319639Y-66747649D01*
X63320000Y-66755000D01*
X63320000Y-66905000D01*
X63319639Y-66912351D01*
X63318559Y-66919632D01*
X63316771Y-66926771D01*
X63314291Y-66933701D01*
X63311144Y-66940355D01*
X63307360Y-66946668D01*
X63302976Y-66952579D01*
X63298033Y-66958033D01*
X63292579Y-66962976D01*
X63286668Y-66967360D01*
X63280355Y-66971144D01*
X63273701Y-66974291D01*
X63266771Y-66976771D01*
X63259632Y-66978559D01*
X63252351Y-66979639D01*
X63245000Y-66980000D01*
X61920000Y-66980000D01*
X61912649Y-66979639D01*
X61905368Y-66978559D01*
X61898229Y-66976771D01*
X61891299Y-66974291D01*
X61884645Y-66971144D01*
X61878332Y-66967360D01*
X61872421Y-66962976D01*
X61866967Y-66958033D01*
X61862024Y-66952579D01*
X61857640Y-66946668D01*
X61853856Y-66940355D01*
X61850709Y-66933701D01*
X61848229Y-66926771D01*
X61846441Y-66919632D01*
X61845361Y-66912351D01*
X61845000Y-66905000D01*
X61845000Y-66755000D01*
X61845361Y-66747649D01*
X61846441Y-66740368D01*
X61848229Y-66733229D01*
X61850709Y-66726299D01*
X61853856Y-66719645D01*
X61857640Y-66713332D01*
X61862024Y-66707421D01*
X61866967Y-66701967D01*
X61872421Y-66697024D01*
X61878332Y-66692640D01*
X61884645Y-66688856D01*
X61891299Y-66685709D01*
X61898229Y-66683229D01*
X61905368Y-66681441D01*
X61912649Y-66680361D01*
X61920000Y-66680000D01*
X63245000Y-66680000D01*
X63252351Y-66680361D01*
G37*
G04 #@! TD.AperFunction*
G04 #@! TA.AperFunction,SMDPad,CuDef*
G36*
X63252351Y-66180361D02*
G01*
X63259632Y-66181441D01*
X63266771Y-66183229D01*
X63273701Y-66185709D01*
X63280355Y-66188856D01*
X63286668Y-66192640D01*
X63292579Y-66197024D01*
X63298033Y-66201967D01*
X63302976Y-66207421D01*
X63307360Y-66213332D01*
X63311144Y-66219645D01*
X63314291Y-66226299D01*
X63316771Y-66233229D01*
X63318559Y-66240368D01*
X63319639Y-66247649D01*
X63320000Y-66255000D01*
X63320000Y-66405000D01*
X63319639Y-66412351D01*
X63318559Y-66419632D01*
X63316771Y-66426771D01*
X63314291Y-66433701D01*
X63311144Y-66440355D01*
X63307360Y-66446668D01*
X63302976Y-66452579D01*
X63298033Y-66458033D01*
X63292579Y-66462976D01*
X63286668Y-66467360D01*
X63280355Y-66471144D01*
X63273701Y-66474291D01*
X63266771Y-66476771D01*
X63259632Y-66478559D01*
X63252351Y-66479639D01*
X63245000Y-66480000D01*
X61920000Y-66480000D01*
X61912649Y-66479639D01*
X61905368Y-66478559D01*
X61898229Y-66476771D01*
X61891299Y-66474291D01*
X61884645Y-66471144D01*
X61878332Y-66467360D01*
X61872421Y-66462976D01*
X61866967Y-66458033D01*
X61862024Y-66452579D01*
X61857640Y-66446668D01*
X61853856Y-66440355D01*
X61850709Y-66433701D01*
X61848229Y-66426771D01*
X61846441Y-66419632D01*
X61845361Y-66412351D01*
X61845000Y-66405000D01*
X61845000Y-66255000D01*
X61845361Y-66247649D01*
X61846441Y-66240368D01*
X61848229Y-66233229D01*
X61850709Y-66226299D01*
X61853856Y-66219645D01*
X61857640Y-66213332D01*
X61862024Y-66207421D01*
X61866967Y-66201967D01*
X61872421Y-66197024D01*
X61878332Y-66192640D01*
X61884645Y-66188856D01*
X61891299Y-66185709D01*
X61898229Y-66183229D01*
X61905368Y-66181441D01*
X61912649Y-66180361D01*
X61920000Y-66180000D01*
X63245000Y-66180000D01*
X63252351Y-66180361D01*
G37*
G04 #@! TD.AperFunction*
G04 #@! TA.AperFunction,SMDPad,CuDef*
G36*
X63252351Y-65680361D02*
G01*
X63259632Y-65681441D01*
X63266771Y-65683229D01*
X63273701Y-65685709D01*
X63280355Y-65688856D01*
X63286668Y-65692640D01*
X63292579Y-65697024D01*
X63298033Y-65701967D01*
X63302976Y-65707421D01*
X63307360Y-65713332D01*
X63311144Y-65719645D01*
X63314291Y-65726299D01*
X63316771Y-65733229D01*
X63318559Y-65740368D01*
X63319639Y-65747649D01*
X63320000Y-65755000D01*
X63320000Y-65905000D01*
X63319639Y-65912351D01*
X63318559Y-65919632D01*
X63316771Y-65926771D01*
X63314291Y-65933701D01*
X63311144Y-65940355D01*
X63307360Y-65946668D01*
X63302976Y-65952579D01*
X63298033Y-65958033D01*
X63292579Y-65962976D01*
X63286668Y-65967360D01*
X63280355Y-65971144D01*
X63273701Y-65974291D01*
X63266771Y-65976771D01*
X63259632Y-65978559D01*
X63252351Y-65979639D01*
X63245000Y-65980000D01*
X61920000Y-65980000D01*
X61912649Y-65979639D01*
X61905368Y-65978559D01*
X61898229Y-65976771D01*
X61891299Y-65974291D01*
X61884645Y-65971144D01*
X61878332Y-65967360D01*
X61872421Y-65962976D01*
X61866967Y-65958033D01*
X61862024Y-65952579D01*
X61857640Y-65946668D01*
X61853856Y-65940355D01*
X61850709Y-65933701D01*
X61848229Y-65926771D01*
X61846441Y-65919632D01*
X61845361Y-65912351D01*
X61845000Y-65905000D01*
X61845000Y-65755000D01*
X61845361Y-65747649D01*
X61846441Y-65740368D01*
X61848229Y-65733229D01*
X61850709Y-65726299D01*
X61853856Y-65719645D01*
X61857640Y-65713332D01*
X61862024Y-65707421D01*
X61866967Y-65701967D01*
X61872421Y-65697024D01*
X61878332Y-65692640D01*
X61884645Y-65688856D01*
X61891299Y-65685709D01*
X61898229Y-65683229D01*
X61905368Y-65681441D01*
X61912649Y-65680361D01*
X61920000Y-65680000D01*
X63245000Y-65680000D01*
X63252351Y-65680361D01*
G37*
G04 #@! TD.AperFunction*
G04 #@! TA.AperFunction,SMDPad,CuDef*
G36*
X61252351Y-63680361D02*
G01*
X61259632Y-63681441D01*
X61266771Y-63683229D01*
X61273701Y-63685709D01*
X61280355Y-63688856D01*
X61286668Y-63692640D01*
X61292579Y-63697024D01*
X61298033Y-63701967D01*
X61302976Y-63707421D01*
X61307360Y-63713332D01*
X61311144Y-63719645D01*
X61314291Y-63726299D01*
X61316771Y-63733229D01*
X61318559Y-63740368D01*
X61319639Y-63747649D01*
X61320000Y-63755000D01*
X61320000Y-65080000D01*
X61319639Y-65087351D01*
X61318559Y-65094632D01*
X61316771Y-65101771D01*
X61314291Y-65108701D01*
X61311144Y-65115355D01*
X61307360Y-65121668D01*
X61302976Y-65127579D01*
X61298033Y-65133033D01*
X61292579Y-65137976D01*
X61286668Y-65142360D01*
X61280355Y-65146144D01*
X61273701Y-65149291D01*
X61266771Y-65151771D01*
X61259632Y-65153559D01*
X61252351Y-65154639D01*
X61245000Y-65155000D01*
X61095000Y-65155000D01*
X61087649Y-65154639D01*
X61080368Y-65153559D01*
X61073229Y-65151771D01*
X61066299Y-65149291D01*
X61059645Y-65146144D01*
X61053332Y-65142360D01*
X61047421Y-65137976D01*
X61041967Y-65133033D01*
X61037024Y-65127579D01*
X61032640Y-65121668D01*
X61028856Y-65115355D01*
X61025709Y-65108701D01*
X61023229Y-65101771D01*
X61021441Y-65094632D01*
X61020361Y-65087351D01*
X61020000Y-65080000D01*
X61020000Y-63755000D01*
X61020361Y-63747649D01*
X61021441Y-63740368D01*
X61023229Y-63733229D01*
X61025709Y-63726299D01*
X61028856Y-63719645D01*
X61032640Y-63713332D01*
X61037024Y-63707421D01*
X61041967Y-63701967D01*
X61047421Y-63697024D01*
X61053332Y-63692640D01*
X61059645Y-63688856D01*
X61066299Y-63685709D01*
X61073229Y-63683229D01*
X61080368Y-63681441D01*
X61087649Y-63680361D01*
X61095000Y-63680000D01*
X61245000Y-63680000D01*
X61252351Y-63680361D01*
G37*
G04 #@! TD.AperFunction*
G04 #@! TA.AperFunction,SMDPad,CuDef*
G36*
X60752351Y-63680361D02*
G01*
X60759632Y-63681441D01*
X60766771Y-63683229D01*
X60773701Y-63685709D01*
X60780355Y-63688856D01*
X60786668Y-63692640D01*
X60792579Y-63697024D01*
X60798033Y-63701967D01*
X60802976Y-63707421D01*
X60807360Y-63713332D01*
X60811144Y-63719645D01*
X60814291Y-63726299D01*
X60816771Y-63733229D01*
X60818559Y-63740368D01*
X60819639Y-63747649D01*
X60820000Y-63755000D01*
X60820000Y-65080000D01*
X60819639Y-65087351D01*
X60818559Y-65094632D01*
X60816771Y-65101771D01*
X60814291Y-65108701D01*
X60811144Y-65115355D01*
X60807360Y-65121668D01*
X60802976Y-65127579D01*
X60798033Y-65133033D01*
X60792579Y-65137976D01*
X60786668Y-65142360D01*
X60780355Y-65146144D01*
X60773701Y-65149291D01*
X60766771Y-65151771D01*
X60759632Y-65153559D01*
X60752351Y-65154639D01*
X60745000Y-65155000D01*
X60595000Y-65155000D01*
X60587649Y-65154639D01*
X60580368Y-65153559D01*
X60573229Y-65151771D01*
X60566299Y-65149291D01*
X60559645Y-65146144D01*
X60553332Y-65142360D01*
X60547421Y-65137976D01*
X60541967Y-65133033D01*
X60537024Y-65127579D01*
X60532640Y-65121668D01*
X60528856Y-65115355D01*
X60525709Y-65108701D01*
X60523229Y-65101771D01*
X60521441Y-65094632D01*
X60520361Y-65087351D01*
X60520000Y-65080000D01*
X60520000Y-63755000D01*
X60520361Y-63747649D01*
X60521441Y-63740368D01*
X60523229Y-63733229D01*
X60525709Y-63726299D01*
X60528856Y-63719645D01*
X60532640Y-63713332D01*
X60537024Y-63707421D01*
X60541967Y-63701967D01*
X60547421Y-63697024D01*
X60553332Y-63692640D01*
X60559645Y-63688856D01*
X60566299Y-63685709D01*
X60573229Y-63683229D01*
X60580368Y-63681441D01*
X60587649Y-63680361D01*
X60595000Y-63680000D01*
X60745000Y-63680000D01*
X60752351Y-63680361D01*
G37*
G04 #@! TD.AperFunction*
G04 #@! TA.AperFunction,SMDPad,CuDef*
G36*
X60252351Y-63680361D02*
G01*
X60259632Y-63681441D01*
X60266771Y-63683229D01*
X60273701Y-63685709D01*
X60280355Y-63688856D01*
X60286668Y-63692640D01*
X60292579Y-63697024D01*
X60298033Y-63701967D01*
X60302976Y-63707421D01*
X60307360Y-63713332D01*
X60311144Y-63719645D01*
X60314291Y-63726299D01*
X60316771Y-63733229D01*
X60318559Y-63740368D01*
X60319639Y-63747649D01*
X60320000Y-63755000D01*
X60320000Y-65080000D01*
X60319639Y-65087351D01*
X60318559Y-65094632D01*
X60316771Y-65101771D01*
X60314291Y-65108701D01*
X60311144Y-65115355D01*
X60307360Y-65121668D01*
X60302976Y-65127579D01*
X60298033Y-65133033D01*
X60292579Y-65137976D01*
X60286668Y-65142360D01*
X60280355Y-65146144D01*
X60273701Y-65149291D01*
X60266771Y-65151771D01*
X60259632Y-65153559D01*
X60252351Y-65154639D01*
X60245000Y-65155000D01*
X60095000Y-65155000D01*
X60087649Y-65154639D01*
X60080368Y-65153559D01*
X60073229Y-65151771D01*
X60066299Y-65149291D01*
X60059645Y-65146144D01*
X60053332Y-65142360D01*
X60047421Y-65137976D01*
X60041967Y-65133033D01*
X60037024Y-65127579D01*
X60032640Y-65121668D01*
X60028856Y-65115355D01*
X60025709Y-65108701D01*
X60023229Y-65101771D01*
X60021441Y-65094632D01*
X60020361Y-65087351D01*
X60020000Y-65080000D01*
X60020000Y-63755000D01*
X60020361Y-63747649D01*
X60021441Y-63740368D01*
X60023229Y-63733229D01*
X60025709Y-63726299D01*
X60028856Y-63719645D01*
X60032640Y-63713332D01*
X60037024Y-63707421D01*
X60041967Y-63701967D01*
X60047421Y-63697024D01*
X60053332Y-63692640D01*
X60059645Y-63688856D01*
X60066299Y-63685709D01*
X60073229Y-63683229D01*
X60080368Y-63681441D01*
X60087649Y-63680361D01*
X60095000Y-63680000D01*
X60245000Y-63680000D01*
X60252351Y-63680361D01*
G37*
G04 #@! TD.AperFunction*
G04 #@! TA.AperFunction,SMDPad,CuDef*
G36*
X59752351Y-63680361D02*
G01*
X59759632Y-63681441D01*
X59766771Y-63683229D01*
X59773701Y-63685709D01*
X59780355Y-63688856D01*
X59786668Y-63692640D01*
X59792579Y-63697024D01*
X59798033Y-63701967D01*
X59802976Y-63707421D01*
X59807360Y-63713332D01*
X59811144Y-63719645D01*
X59814291Y-63726299D01*
X59816771Y-63733229D01*
X59818559Y-63740368D01*
X59819639Y-63747649D01*
X59820000Y-63755000D01*
X59820000Y-65080000D01*
X59819639Y-65087351D01*
X59818559Y-65094632D01*
X59816771Y-65101771D01*
X59814291Y-65108701D01*
X59811144Y-65115355D01*
X59807360Y-65121668D01*
X59802976Y-65127579D01*
X59798033Y-65133033D01*
X59792579Y-65137976D01*
X59786668Y-65142360D01*
X59780355Y-65146144D01*
X59773701Y-65149291D01*
X59766771Y-65151771D01*
X59759632Y-65153559D01*
X59752351Y-65154639D01*
X59745000Y-65155000D01*
X59595000Y-65155000D01*
X59587649Y-65154639D01*
X59580368Y-65153559D01*
X59573229Y-65151771D01*
X59566299Y-65149291D01*
X59559645Y-65146144D01*
X59553332Y-65142360D01*
X59547421Y-65137976D01*
X59541967Y-65133033D01*
X59537024Y-65127579D01*
X59532640Y-65121668D01*
X59528856Y-65115355D01*
X59525709Y-65108701D01*
X59523229Y-65101771D01*
X59521441Y-65094632D01*
X59520361Y-65087351D01*
X59520000Y-65080000D01*
X59520000Y-63755000D01*
X59520361Y-63747649D01*
X59521441Y-63740368D01*
X59523229Y-63733229D01*
X59525709Y-63726299D01*
X59528856Y-63719645D01*
X59532640Y-63713332D01*
X59537024Y-63707421D01*
X59541967Y-63701967D01*
X59547421Y-63697024D01*
X59553332Y-63692640D01*
X59559645Y-63688856D01*
X59566299Y-63685709D01*
X59573229Y-63683229D01*
X59580368Y-63681441D01*
X59587649Y-63680361D01*
X59595000Y-63680000D01*
X59745000Y-63680000D01*
X59752351Y-63680361D01*
G37*
G04 #@! TD.AperFunction*
G04 #@! TA.AperFunction,SMDPad,CuDef*
G36*
X59252351Y-63680361D02*
G01*
X59259632Y-63681441D01*
X59266771Y-63683229D01*
X59273701Y-63685709D01*
X59280355Y-63688856D01*
X59286668Y-63692640D01*
X59292579Y-63697024D01*
X59298033Y-63701967D01*
X59302976Y-63707421D01*
X59307360Y-63713332D01*
X59311144Y-63719645D01*
X59314291Y-63726299D01*
X59316771Y-63733229D01*
X59318559Y-63740368D01*
X59319639Y-63747649D01*
X59320000Y-63755000D01*
X59320000Y-65080000D01*
X59319639Y-65087351D01*
X59318559Y-65094632D01*
X59316771Y-65101771D01*
X59314291Y-65108701D01*
X59311144Y-65115355D01*
X59307360Y-65121668D01*
X59302976Y-65127579D01*
X59298033Y-65133033D01*
X59292579Y-65137976D01*
X59286668Y-65142360D01*
X59280355Y-65146144D01*
X59273701Y-65149291D01*
X59266771Y-65151771D01*
X59259632Y-65153559D01*
X59252351Y-65154639D01*
X59245000Y-65155000D01*
X59095000Y-65155000D01*
X59087649Y-65154639D01*
X59080368Y-65153559D01*
X59073229Y-65151771D01*
X59066299Y-65149291D01*
X59059645Y-65146144D01*
X59053332Y-65142360D01*
X59047421Y-65137976D01*
X59041967Y-65133033D01*
X59037024Y-65127579D01*
X59032640Y-65121668D01*
X59028856Y-65115355D01*
X59025709Y-65108701D01*
X59023229Y-65101771D01*
X59021441Y-65094632D01*
X59020361Y-65087351D01*
X59020000Y-65080000D01*
X59020000Y-63755000D01*
X59020361Y-63747649D01*
X59021441Y-63740368D01*
X59023229Y-63733229D01*
X59025709Y-63726299D01*
X59028856Y-63719645D01*
X59032640Y-63713332D01*
X59037024Y-63707421D01*
X59041967Y-63701967D01*
X59047421Y-63697024D01*
X59053332Y-63692640D01*
X59059645Y-63688856D01*
X59066299Y-63685709D01*
X59073229Y-63683229D01*
X59080368Y-63681441D01*
X59087649Y-63680361D01*
X59095000Y-63680000D01*
X59245000Y-63680000D01*
X59252351Y-63680361D01*
G37*
G04 #@! TD.AperFunction*
G04 #@! TA.AperFunction,SMDPad,CuDef*
G36*
X58752351Y-63680361D02*
G01*
X58759632Y-63681441D01*
X58766771Y-63683229D01*
X58773701Y-63685709D01*
X58780355Y-63688856D01*
X58786668Y-63692640D01*
X58792579Y-63697024D01*
X58798033Y-63701967D01*
X58802976Y-63707421D01*
X58807360Y-63713332D01*
X58811144Y-63719645D01*
X58814291Y-63726299D01*
X58816771Y-63733229D01*
X58818559Y-63740368D01*
X58819639Y-63747649D01*
X58820000Y-63755000D01*
X58820000Y-65080000D01*
X58819639Y-65087351D01*
X58818559Y-65094632D01*
X58816771Y-65101771D01*
X58814291Y-65108701D01*
X58811144Y-65115355D01*
X58807360Y-65121668D01*
X58802976Y-65127579D01*
X58798033Y-65133033D01*
X58792579Y-65137976D01*
X58786668Y-65142360D01*
X58780355Y-65146144D01*
X58773701Y-65149291D01*
X58766771Y-65151771D01*
X58759632Y-65153559D01*
X58752351Y-65154639D01*
X58745000Y-65155000D01*
X58595000Y-65155000D01*
X58587649Y-65154639D01*
X58580368Y-65153559D01*
X58573229Y-65151771D01*
X58566299Y-65149291D01*
X58559645Y-65146144D01*
X58553332Y-65142360D01*
X58547421Y-65137976D01*
X58541967Y-65133033D01*
X58537024Y-65127579D01*
X58532640Y-65121668D01*
X58528856Y-65115355D01*
X58525709Y-65108701D01*
X58523229Y-65101771D01*
X58521441Y-65094632D01*
X58520361Y-65087351D01*
X58520000Y-65080000D01*
X58520000Y-63755000D01*
X58520361Y-63747649D01*
X58521441Y-63740368D01*
X58523229Y-63733229D01*
X58525709Y-63726299D01*
X58528856Y-63719645D01*
X58532640Y-63713332D01*
X58537024Y-63707421D01*
X58541967Y-63701967D01*
X58547421Y-63697024D01*
X58553332Y-63692640D01*
X58559645Y-63688856D01*
X58566299Y-63685709D01*
X58573229Y-63683229D01*
X58580368Y-63681441D01*
X58587649Y-63680361D01*
X58595000Y-63680000D01*
X58745000Y-63680000D01*
X58752351Y-63680361D01*
G37*
G04 #@! TD.AperFunction*
G04 #@! TA.AperFunction,SMDPad,CuDef*
G36*
X58252351Y-63680361D02*
G01*
X58259632Y-63681441D01*
X58266771Y-63683229D01*
X58273701Y-63685709D01*
X58280355Y-63688856D01*
X58286668Y-63692640D01*
X58292579Y-63697024D01*
X58298033Y-63701967D01*
X58302976Y-63707421D01*
X58307360Y-63713332D01*
X58311144Y-63719645D01*
X58314291Y-63726299D01*
X58316771Y-63733229D01*
X58318559Y-63740368D01*
X58319639Y-63747649D01*
X58320000Y-63755000D01*
X58320000Y-65080000D01*
X58319639Y-65087351D01*
X58318559Y-65094632D01*
X58316771Y-65101771D01*
X58314291Y-65108701D01*
X58311144Y-65115355D01*
X58307360Y-65121668D01*
X58302976Y-65127579D01*
X58298033Y-65133033D01*
X58292579Y-65137976D01*
X58286668Y-65142360D01*
X58280355Y-65146144D01*
X58273701Y-65149291D01*
X58266771Y-65151771D01*
X58259632Y-65153559D01*
X58252351Y-65154639D01*
X58245000Y-65155000D01*
X58095000Y-65155000D01*
X58087649Y-65154639D01*
X58080368Y-65153559D01*
X58073229Y-65151771D01*
X58066299Y-65149291D01*
X58059645Y-65146144D01*
X58053332Y-65142360D01*
X58047421Y-65137976D01*
X58041967Y-65133033D01*
X58037024Y-65127579D01*
X58032640Y-65121668D01*
X58028856Y-65115355D01*
X58025709Y-65108701D01*
X58023229Y-65101771D01*
X58021441Y-65094632D01*
X58020361Y-65087351D01*
X58020000Y-65080000D01*
X58020000Y-63755000D01*
X58020361Y-63747649D01*
X58021441Y-63740368D01*
X58023229Y-63733229D01*
X58025709Y-63726299D01*
X58028856Y-63719645D01*
X58032640Y-63713332D01*
X58037024Y-63707421D01*
X58041967Y-63701967D01*
X58047421Y-63697024D01*
X58053332Y-63692640D01*
X58059645Y-63688856D01*
X58066299Y-63685709D01*
X58073229Y-63683229D01*
X58080368Y-63681441D01*
X58087649Y-63680361D01*
X58095000Y-63680000D01*
X58245000Y-63680000D01*
X58252351Y-63680361D01*
G37*
G04 #@! TD.AperFunction*
G04 #@! TA.AperFunction,SMDPad,CuDef*
G36*
X57752351Y-63680361D02*
G01*
X57759632Y-63681441D01*
X57766771Y-63683229D01*
X57773701Y-63685709D01*
X57780355Y-63688856D01*
X57786668Y-63692640D01*
X57792579Y-63697024D01*
X57798033Y-63701967D01*
X57802976Y-63707421D01*
X57807360Y-63713332D01*
X57811144Y-63719645D01*
X57814291Y-63726299D01*
X57816771Y-63733229D01*
X57818559Y-63740368D01*
X57819639Y-63747649D01*
X57820000Y-63755000D01*
X57820000Y-65080000D01*
X57819639Y-65087351D01*
X57818559Y-65094632D01*
X57816771Y-65101771D01*
X57814291Y-65108701D01*
X57811144Y-65115355D01*
X57807360Y-65121668D01*
X57802976Y-65127579D01*
X57798033Y-65133033D01*
X57792579Y-65137976D01*
X57786668Y-65142360D01*
X57780355Y-65146144D01*
X57773701Y-65149291D01*
X57766771Y-65151771D01*
X57759632Y-65153559D01*
X57752351Y-65154639D01*
X57745000Y-65155000D01*
X57595000Y-65155000D01*
X57587649Y-65154639D01*
X57580368Y-65153559D01*
X57573229Y-65151771D01*
X57566299Y-65149291D01*
X57559645Y-65146144D01*
X57553332Y-65142360D01*
X57547421Y-65137976D01*
X57541967Y-65133033D01*
X57537024Y-65127579D01*
X57532640Y-65121668D01*
X57528856Y-65115355D01*
X57525709Y-65108701D01*
X57523229Y-65101771D01*
X57521441Y-65094632D01*
X57520361Y-65087351D01*
X57520000Y-65080000D01*
X57520000Y-63755000D01*
X57520361Y-63747649D01*
X57521441Y-63740368D01*
X57523229Y-63733229D01*
X57525709Y-63726299D01*
X57528856Y-63719645D01*
X57532640Y-63713332D01*
X57537024Y-63707421D01*
X57541967Y-63701967D01*
X57547421Y-63697024D01*
X57553332Y-63692640D01*
X57559645Y-63688856D01*
X57566299Y-63685709D01*
X57573229Y-63683229D01*
X57580368Y-63681441D01*
X57587649Y-63680361D01*
X57595000Y-63680000D01*
X57745000Y-63680000D01*
X57752351Y-63680361D01*
G37*
G04 #@! TD.AperFunction*
G04 #@! TA.AperFunction,SMDPad,CuDef*
G36*
X57252351Y-63680361D02*
G01*
X57259632Y-63681441D01*
X57266771Y-63683229D01*
X57273701Y-63685709D01*
X57280355Y-63688856D01*
X57286668Y-63692640D01*
X57292579Y-63697024D01*
X57298033Y-63701967D01*
X57302976Y-63707421D01*
X57307360Y-63713332D01*
X57311144Y-63719645D01*
X57314291Y-63726299D01*
X57316771Y-63733229D01*
X57318559Y-63740368D01*
X57319639Y-63747649D01*
X57320000Y-63755000D01*
X57320000Y-65080000D01*
X57319639Y-65087351D01*
X57318559Y-65094632D01*
X57316771Y-65101771D01*
X57314291Y-65108701D01*
X57311144Y-65115355D01*
X57307360Y-65121668D01*
X57302976Y-65127579D01*
X57298033Y-65133033D01*
X57292579Y-65137976D01*
X57286668Y-65142360D01*
X57280355Y-65146144D01*
X57273701Y-65149291D01*
X57266771Y-65151771D01*
X57259632Y-65153559D01*
X57252351Y-65154639D01*
X57245000Y-65155000D01*
X57095000Y-65155000D01*
X57087649Y-65154639D01*
X57080368Y-65153559D01*
X57073229Y-65151771D01*
X57066299Y-65149291D01*
X57059645Y-65146144D01*
X57053332Y-65142360D01*
X57047421Y-65137976D01*
X57041967Y-65133033D01*
X57037024Y-65127579D01*
X57032640Y-65121668D01*
X57028856Y-65115355D01*
X57025709Y-65108701D01*
X57023229Y-65101771D01*
X57021441Y-65094632D01*
X57020361Y-65087351D01*
X57020000Y-65080000D01*
X57020000Y-63755000D01*
X57020361Y-63747649D01*
X57021441Y-63740368D01*
X57023229Y-63733229D01*
X57025709Y-63726299D01*
X57028856Y-63719645D01*
X57032640Y-63713332D01*
X57037024Y-63707421D01*
X57041967Y-63701967D01*
X57047421Y-63697024D01*
X57053332Y-63692640D01*
X57059645Y-63688856D01*
X57066299Y-63685709D01*
X57073229Y-63683229D01*
X57080368Y-63681441D01*
X57087649Y-63680361D01*
X57095000Y-63680000D01*
X57245000Y-63680000D01*
X57252351Y-63680361D01*
G37*
G04 #@! TD.AperFunction*
G04 #@! TA.AperFunction,SMDPad,CuDef*
G36*
X56752351Y-63680361D02*
G01*
X56759632Y-63681441D01*
X56766771Y-63683229D01*
X56773701Y-63685709D01*
X56780355Y-63688856D01*
X56786668Y-63692640D01*
X56792579Y-63697024D01*
X56798033Y-63701967D01*
X56802976Y-63707421D01*
X56807360Y-63713332D01*
X56811144Y-63719645D01*
X56814291Y-63726299D01*
X56816771Y-63733229D01*
X56818559Y-63740368D01*
X56819639Y-63747649D01*
X56820000Y-63755000D01*
X56820000Y-65080000D01*
X56819639Y-65087351D01*
X56818559Y-65094632D01*
X56816771Y-65101771D01*
X56814291Y-65108701D01*
X56811144Y-65115355D01*
X56807360Y-65121668D01*
X56802976Y-65127579D01*
X56798033Y-65133033D01*
X56792579Y-65137976D01*
X56786668Y-65142360D01*
X56780355Y-65146144D01*
X56773701Y-65149291D01*
X56766771Y-65151771D01*
X56759632Y-65153559D01*
X56752351Y-65154639D01*
X56745000Y-65155000D01*
X56595000Y-65155000D01*
X56587649Y-65154639D01*
X56580368Y-65153559D01*
X56573229Y-65151771D01*
X56566299Y-65149291D01*
X56559645Y-65146144D01*
X56553332Y-65142360D01*
X56547421Y-65137976D01*
X56541967Y-65133033D01*
X56537024Y-65127579D01*
X56532640Y-65121668D01*
X56528856Y-65115355D01*
X56525709Y-65108701D01*
X56523229Y-65101771D01*
X56521441Y-65094632D01*
X56520361Y-65087351D01*
X56520000Y-65080000D01*
X56520000Y-63755000D01*
X56520361Y-63747649D01*
X56521441Y-63740368D01*
X56523229Y-63733229D01*
X56525709Y-63726299D01*
X56528856Y-63719645D01*
X56532640Y-63713332D01*
X56537024Y-63707421D01*
X56541967Y-63701967D01*
X56547421Y-63697024D01*
X56553332Y-63692640D01*
X56559645Y-63688856D01*
X56566299Y-63685709D01*
X56573229Y-63683229D01*
X56580368Y-63681441D01*
X56587649Y-63680361D01*
X56595000Y-63680000D01*
X56745000Y-63680000D01*
X56752351Y-63680361D01*
G37*
G04 #@! TD.AperFunction*
G04 #@! TA.AperFunction,SMDPad,CuDef*
G36*
X56252351Y-63680361D02*
G01*
X56259632Y-63681441D01*
X56266771Y-63683229D01*
X56273701Y-63685709D01*
X56280355Y-63688856D01*
X56286668Y-63692640D01*
X56292579Y-63697024D01*
X56298033Y-63701967D01*
X56302976Y-63707421D01*
X56307360Y-63713332D01*
X56311144Y-63719645D01*
X56314291Y-63726299D01*
X56316771Y-63733229D01*
X56318559Y-63740368D01*
X56319639Y-63747649D01*
X56320000Y-63755000D01*
X56320000Y-65080000D01*
X56319639Y-65087351D01*
X56318559Y-65094632D01*
X56316771Y-65101771D01*
X56314291Y-65108701D01*
X56311144Y-65115355D01*
X56307360Y-65121668D01*
X56302976Y-65127579D01*
X56298033Y-65133033D01*
X56292579Y-65137976D01*
X56286668Y-65142360D01*
X56280355Y-65146144D01*
X56273701Y-65149291D01*
X56266771Y-65151771D01*
X56259632Y-65153559D01*
X56252351Y-65154639D01*
X56245000Y-65155000D01*
X56095000Y-65155000D01*
X56087649Y-65154639D01*
X56080368Y-65153559D01*
X56073229Y-65151771D01*
X56066299Y-65149291D01*
X56059645Y-65146144D01*
X56053332Y-65142360D01*
X56047421Y-65137976D01*
X56041967Y-65133033D01*
X56037024Y-65127579D01*
X56032640Y-65121668D01*
X56028856Y-65115355D01*
X56025709Y-65108701D01*
X56023229Y-65101771D01*
X56021441Y-65094632D01*
X56020361Y-65087351D01*
X56020000Y-65080000D01*
X56020000Y-63755000D01*
X56020361Y-63747649D01*
X56021441Y-63740368D01*
X56023229Y-63733229D01*
X56025709Y-63726299D01*
X56028856Y-63719645D01*
X56032640Y-63713332D01*
X56037024Y-63707421D01*
X56041967Y-63701967D01*
X56047421Y-63697024D01*
X56053332Y-63692640D01*
X56059645Y-63688856D01*
X56066299Y-63685709D01*
X56073229Y-63683229D01*
X56080368Y-63681441D01*
X56087649Y-63680361D01*
X56095000Y-63680000D01*
X56245000Y-63680000D01*
X56252351Y-63680361D01*
G37*
G04 #@! TD.AperFunction*
G04 #@! TA.AperFunction,SMDPad,CuDef*
G36*
X55752351Y-63680361D02*
G01*
X55759632Y-63681441D01*
X55766771Y-63683229D01*
X55773701Y-63685709D01*
X55780355Y-63688856D01*
X55786668Y-63692640D01*
X55792579Y-63697024D01*
X55798033Y-63701967D01*
X55802976Y-63707421D01*
X55807360Y-63713332D01*
X55811144Y-63719645D01*
X55814291Y-63726299D01*
X55816771Y-63733229D01*
X55818559Y-63740368D01*
X55819639Y-63747649D01*
X55820000Y-63755000D01*
X55820000Y-65080000D01*
X55819639Y-65087351D01*
X55818559Y-65094632D01*
X55816771Y-65101771D01*
X55814291Y-65108701D01*
X55811144Y-65115355D01*
X55807360Y-65121668D01*
X55802976Y-65127579D01*
X55798033Y-65133033D01*
X55792579Y-65137976D01*
X55786668Y-65142360D01*
X55780355Y-65146144D01*
X55773701Y-65149291D01*
X55766771Y-65151771D01*
X55759632Y-65153559D01*
X55752351Y-65154639D01*
X55745000Y-65155000D01*
X55595000Y-65155000D01*
X55587649Y-65154639D01*
X55580368Y-65153559D01*
X55573229Y-65151771D01*
X55566299Y-65149291D01*
X55559645Y-65146144D01*
X55553332Y-65142360D01*
X55547421Y-65137976D01*
X55541967Y-65133033D01*
X55537024Y-65127579D01*
X55532640Y-65121668D01*
X55528856Y-65115355D01*
X55525709Y-65108701D01*
X55523229Y-65101771D01*
X55521441Y-65094632D01*
X55520361Y-65087351D01*
X55520000Y-65080000D01*
X55520000Y-63755000D01*
X55520361Y-63747649D01*
X55521441Y-63740368D01*
X55523229Y-63733229D01*
X55525709Y-63726299D01*
X55528856Y-63719645D01*
X55532640Y-63713332D01*
X55537024Y-63707421D01*
X55541967Y-63701967D01*
X55547421Y-63697024D01*
X55553332Y-63692640D01*
X55559645Y-63688856D01*
X55566299Y-63685709D01*
X55573229Y-63683229D01*
X55580368Y-63681441D01*
X55587649Y-63680361D01*
X55595000Y-63680000D01*
X55745000Y-63680000D01*
X55752351Y-63680361D01*
G37*
G04 #@! TD.AperFunction*
G04 #@! TA.AperFunction,SMDPad,CuDef*
G36*
X54927351Y-65680361D02*
G01*
X54934632Y-65681441D01*
X54941771Y-65683229D01*
X54948701Y-65685709D01*
X54955355Y-65688856D01*
X54961668Y-65692640D01*
X54967579Y-65697024D01*
X54973033Y-65701967D01*
X54977976Y-65707421D01*
X54982360Y-65713332D01*
X54986144Y-65719645D01*
X54989291Y-65726299D01*
X54991771Y-65733229D01*
X54993559Y-65740368D01*
X54994639Y-65747649D01*
X54995000Y-65755000D01*
X54995000Y-65905000D01*
X54994639Y-65912351D01*
X54993559Y-65919632D01*
X54991771Y-65926771D01*
X54989291Y-65933701D01*
X54986144Y-65940355D01*
X54982360Y-65946668D01*
X54977976Y-65952579D01*
X54973033Y-65958033D01*
X54967579Y-65962976D01*
X54961668Y-65967360D01*
X54955355Y-65971144D01*
X54948701Y-65974291D01*
X54941771Y-65976771D01*
X54934632Y-65978559D01*
X54927351Y-65979639D01*
X54920000Y-65980000D01*
X53595000Y-65980000D01*
X53587649Y-65979639D01*
X53580368Y-65978559D01*
X53573229Y-65976771D01*
X53566299Y-65974291D01*
X53559645Y-65971144D01*
X53553332Y-65967360D01*
X53547421Y-65962976D01*
X53541967Y-65958033D01*
X53537024Y-65952579D01*
X53532640Y-65946668D01*
X53528856Y-65940355D01*
X53525709Y-65933701D01*
X53523229Y-65926771D01*
X53521441Y-65919632D01*
X53520361Y-65912351D01*
X53520000Y-65905000D01*
X53520000Y-65755000D01*
X53520361Y-65747649D01*
X53521441Y-65740368D01*
X53523229Y-65733229D01*
X53525709Y-65726299D01*
X53528856Y-65719645D01*
X53532640Y-65713332D01*
X53537024Y-65707421D01*
X53541967Y-65701967D01*
X53547421Y-65697024D01*
X53553332Y-65692640D01*
X53559645Y-65688856D01*
X53566299Y-65685709D01*
X53573229Y-65683229D01*
X53580368Y-65681441D01*
X53587649Y-65680361D01*
X53595000Y-65680000D01*
X54920000Y-65680000D01*
X54927351Y-65680361D01*
G37*
G04 #@! TD.AperFunction*
G04 #@! TA.AperFunction,SMDPad,CuDef*
G36*
X54927351Y-66180361D02*
G01*
X54934632Y-66181441D01*
X54941771Y-66183229D01*
X54948701Y-66185709D01*
X54955355Y-66188856D01*
X54961668Y-66192640D01*
X54967579Y-66197024D01*
X54973033Y-66201967D01*
X54977976Y-66207421D01*
X54982360Y-66213332D01*
X54986144Y-66219645D01*
X54989291Y-66226299D01*
X54991771Y-66233229D01*
X54993559Y-66240368D01*
X54994639Y-66247649D01*
X54995000Y-66255000D01*
X54995000Y-66405000D01*
X54994639Y-66412351D01*
X54993559Y-66419632D01*
X54991771Y-66426771D01*
X54989291Y-66433701D01*
X54986144Y-66440355D01*
X54982360Y-66446668D01*
X54977976Y-66452579D01*
X54973033Y-66458033D01*
X54967579Y-66462976D01*
X54961668Y-66467360D01*
X54955355Y-66471144D01*
X54948701Y-66474291D01*
X54941771Y-66476771D01*
X54934632Y-66478559D01*
X54927351Y-66479639D01*
X54920000Y-66480000D01*
X53595000Y-66480000D01*
X53587649Y-66479639D01*
X53580368Y-66478559D01*
X53573229Y-66476771D01*
X53566299Y-66474291D01*
X53559645Y-66471144D01*
X53553332Y-66467360D01*
X53547421Y-66462976D01*
X53541967Y-66458033D01*
X53537024Y-66452579D01*
X53532640Y-66446668D01*
X53528856Y-66440355D01*
X53525709Y-66433701D01*
X53523229Y-66426771D01*
X53521441Y-66419632D01*
X53520361Y-66412351D01*
X53520000Y-66405000D01*
X53520000Y-66255000D01*
X53520361Y-66247649D01*
X53521441Y-66240368D01*
X53523229Y-66233229D01*
X53525709Y-66226299D01*
X53528856Y-66219645D01*
X53532640Y-66213332D01*
X53537024Y-66207421D01*
X53541967Y-66201967D01*
X53547421Y-66197024D01*
X53553332Y-66192640D01*
X53559645Y-66188856D01*
X53566299Y-66185709D01*
X53573229Y-66183229D01*
X53580368Y-66181441D01*
X53587649Y-66180361D01*
X53595000Y-66180000D01*
X54920000Y-66180000D01*
X54927351Y-66180361D01*
G37*
G04 #@! TD.AperFunction*
G04 #@! TA.AperFunction,SMDPad,CuDef*
G36*
X54927351Y-66680361D02*
G01*
X54934632Y-66681441D01*
X54941771Y-66683229D01*
X54948701Y-66685709D01*
X54955355Y-66688856D01*
X54961668Y-66692640D01*
X54967579Y-66697024D01*
X54973033Y-66701967D01*
X54977976Y-66707421D01*
X54982360Y-66713332D01*
X54986144Y-66719645D01*
X54989291Y-66726299D01*
X54991771Y-66733229D01*
X54993559Y-66740368D01*
X54994639Y-66747649D01*
X54995000Y-66755000D01*
X54995000Y-66905000D01*
X54994639Y-66912351D01*
X54993559Y-66919632D01*
X54991771Y-66926771D01*
X54989291Y-66933701D01*
X54986144Y-66940355D01*
X54982360Y-66946668D01*
X54977976Y-66952579D01*
X54973033Y-66958033D01*
X54967579Y-66962976D01*
X54961668Y-66967360D01*
X54955355Y-66971144D01*
X54948701Y-66974291D01*
X54941771Y-66976771D01*
X54934632Y-66978559D01*
X54927351Y-66979639D01*
X54920000Y-66980000D01*
X53595000Y-66980000D01*
X53587649Y-66979639D01*
X53580368Y-66978559D01*
X53573229Y-66976771D01*
X53566299Y-66974291D01*
X53559645Y-66971144D01*
X53553332Y-66967360D01*
X53547421Y-66962976D01*
X53541967Y-66958033D01*
X53537024Y-66952579D01*
X53532640Y-66946668D01*
X53528856Y-66940355D01*
X53525709Y-66933701D01*
X53523229Y-66926771D01*
X53521441Y-66919632D01*
X53520361Y-66912351D01*
X53520000Y-66905000D01*
X53520000Y-66755000D01*
X53520361Y-66747649D01*
X53521441Y-66740368D01*
X53523229Y-66733229D01*
X53525709Y-66726299D01*
X53528856Y-66719645D01*
X53532640Y-66713332D01*
X53537024Y-66707421D01*
X53541967Y-66701967D01*
X53547421Y-66697024D01*
X53553332Y-66692640D01*
X53559645Y-66688856D01*
X53566299Y-66685709D01*
X53573229Y-66683229D01*
X53580368Y-66681441D01*
X53587649Y-66680361D01*
X53595000Y-66680000D01*
X54920000Y-66680000D01*
X54927351Y-66680361D01*
G37*
G04 #@! TD.AperFunction*
G04 #@! TA.AperFunction,SMDPad,CuDef*
G36*
X54927351Y-67180361D02*
G01*
X54934632Y-67181441D01*
X54941771Y-67183229D01*
X54948701Y-67185709D01*
X54955355Y-67188856D01*
X54961668Y-67192640D01*
X54967579Y-67197024D01*
X54973033Y-67201967D01*
X54977976Y-67207421D01*
X54982360Y-67213332D01*
X54986144Y-67219645D01*
X54989291Y-67226299D01*
X54991771Y-67233229D01*
X54993559Y-67240368D01*
X54994639Y-67247649D01*
X54995000Y-67255000D01*
X54995000Y-67405000D01*
X54994639Y-67412351D01*
X54993559Y-67419632D01*
X54991771Y-67426771D01*
X54989291Y-67433701D01*
X54986144Y-67440355D01*
X54982360Y-67446668D01*
X54977976Y-67452579D01*
X54973033Y-67458033D01*
X54967579Y-67462976D01*
X54961668Y-67467360D01*
X54955355Y-67471144D01*
X54948701Y-67474291D01*
X54941771Y-67476771D01*
X54934632Y-67478559D01*
X54927351Y-67479639D01*
X54920000Y-67480000D01*
X53595000Y-67480000D01*
X53587649Y-67479639D01*
X53580368Y-67478559D01*
X53573229Y-67476771D01*
X53566299Y-67474291D01*
X53559645Y-67471144D01*
X53553332Y-67467360D01*
X53547421Y-67462976D01*
X53541967Y-67458033D01*
X53537024Y-67452579D01*
X53532640Y-67446668D01*
X53528856Y-67440355D01*
X53525709Y-67433701D01*
X53523229Y-67426771D01*
X53521441Y-67419632D01*
X53520361Y-67412351D01*
X53520000Y-67405000D01*
X53520000Y-67255000D01*
X53520361Y-67247649D01*
X53521441Y-67240368D01*
X53523229Y-67233229D01*
X53525709Y-67226299D01*
X53528856Y-67219645D01*
X53532640Y-67213332D01*
X53537024Y-67207421D01*
X53541967Y-67201967D01*
X53547421Y-67197024D01*
X53553332Y-67192640D01*
X53559645Y-67188856D01*
X53566299Y-67185709D01*
X53573229Y-67183229D01*
X53580368Y-67181441D01*
X53587649Y-67180361D01*
X53595000Y-67180000D01*
X54920000Y-67180000D01*
X54927351Y-67180361D01*
G37*
G04 #@! TD.AperFunction*
G04 #@! TA.AperFunction,SMDPad,CuDef*
G36*
X54927351Y-67680361D02*
G01*
X54934632Y-67681441D01*
X54941771Y-67683229D01*
X54948701Y-67685709D01*
X54955355Y-67688856D01*
X54961668Y-67692640D01*
X54967579Y-67697024D01*
X54973033Y-67701967D01*
X54977976Y-67707421D01*
X54982360Y-67713332D01*
X54986144Y-67719645D01*
X54989291Y-67726299D01*
X54991771Y-67733229D01*
X54993559Y-67740368D01*
X54994639Y-67747649D01*
X54995000Y-67755000D01*
X54995000Y-67905000D01*
X54994639Y-67912351D01*
X54993559Y-67919632D01*
X54991771Y-67926771D01*
X54989291Y-67933701D01*
X54986144Y-67940355D01*
X54982360Y-67946668D01*
X54977976Y-67952579D01*
X54973033Y-67958033D01*
X54967579Y-67962976D01*
X54961668Y-67967360D01*
X54955355Y-67971144D01*
X54948701Y-67974291D01*
X54941771Y-67976771D01*
X54934632Y-67978559D01*
X54927351Y-67979639D01*
X54920000Y-67980000D01*
X53595000Y-67980000D01*
X53587649Y-67979639D01*
X53580368Y-67978559D01*
X53573229Y-67976771D01*
X53566299Y-67974291D01*
X53559645Y-67971144D01*
X53553332Y-67967360D01*
X53547421Y-67962976D01*
X53541967Y-67958033D01*
X53537024Y-67952579D01*
X53532640Y-67946668D01*
X53528856Y-67940355D01*
X53525709Y-67933701D01*
X53523229Y-67926771D01*
X53521441Y-67919632D01*
X53520361Y-67912351D01*
X53520000Y-67905000D01*
X53520000Y-67755000D01*
X53520361Y-67747649D01*
X53521441Y-67740368D01*
X53523229Y-67733229D01*
X53525709Y-67726299D01*
X53528856Y-67719645D01*
X53532640Y-67713332D01*
X53537024Y-67707421D01*
X53541967Y-67701967D01*
X53547421Y-67697024D01*
X53553332Y-67692640D01*
X53559645Y-67688856D01*
X53566299Y-67685709D01*
X53573229Y-67683229D01*
X53580368Y-67681441D01*
X53587649Y-67680361D01*
X53595000Y-67680000D01*
X54920000Y-67680000D01*
X54927351Y-67680361D01*
G37*
G04 #@! TD.AperFunction*
G04 #@! TA.AperFunction,SMDPad,CuDef*
G36*
X54927351Y-68180361D02*
G01*
X54934632Y-68181441D01*
X54941771Y-68183229D01*
X54948701Y-68185709D01*
X54955355Y-68188856D01*
X54961668Y-68192640D01*
X54967579Y-68197024D01*
X54973033Y-68201967D01*
X54977976Y-68207421D01*
X54982360Y-68213332D01*
X54986144Y-68219645D01*
X54989291Y-68226299D01*
X54991771Y-68233229D01*
X54993559Y-68240368D01*
X54994639Y-68247649D01*
X54995000Y-68255000D01*
X54995000Y-68405000D01*
X54994639Y-68412351D01*
X54993559Y-68419632D01*
X54991771Y-68426771D01*
X54989291Y-68433701D01*
X54986144Y-68440355D01*
X54982360Y-68446668D01*
X54977976Y-68452579D01*
X54973033Y-68458033D01*
X54967579Y-68462976D01*
X54961668Y-68467360D01*
X54955355Y-68471144D01*
X54948701Y-68474291D01*
X54941771Y-68476771D01*
X54934632Y-68478559D01*
X54927351Y-68479639D01*
X54920000Y-68480000D01*
X53595000Y-68480000D01*
X53587649Y-68479639D01*
X53580368Y-68478559D01*
X53573229Y-68476771D01*
X53566299Y-68474291D01*
X53559645Y-68471144D01*
X53553332Y-68467360D01*
X53547421Y-68462976D01*
X53541967Y-68458033D01*
X53537024Y-68452579D01*
X53532640Y-68446668D01*
X53528856Y-68440355D01*
X53525709Y-68433701D01*
X53523229Y-68426771D01*
X53521441Y-68419632D01*
X53520361Y-68412351D01*
X53520000Y-68405000D01*
X53520000Y-68255000D01*
X53520361Y-68247649D01*
X53521441Y-68240368D01*
X53523229Y-68233229D01*
X53525709Y-68226299D01*
X53528856Y-68219645D01*
X53532640Y-68213332D01*
X53537024Y-68207421D01*
X53541967Y-68201967D01*
X53547421Y-68197024D01*
X53553332Y-68192640D01*
X53559645Y-68188856D01*
X53566299Y-68185709D01*
X53573229Y-68183229D01*
X53580368Y-68181441D01*
X53587649Y-68180361D01*
X53595000Y-68180000D01*
X54920000Y-68180000D01*
X54927351Y-68180361D01*
G37*
G04 #@! TD.AperFunction*
G04 #@! TA.AperFunction,SMDPad,CuDef*
G36*
X54927351Y-68680361D02*
G01*
X54934632Y-68681441D01*
X54941771Y-68683229D01*
X54948701Y-68685709D01*
X54955355Y-68688856D01*
X54961668Y-68692640D01*
X54967579Y-68697024D01*
X54973033Y-68701967D01*
X54977976Y-68707421D01*
X54982360Y-68713332D01*
X54986144Y-68719645D01*
X54989291Y-68726299D01*
X54991771Y-68733229D01*
X54993559Y-68740368D01*
X54994639Y-68747649D01*
X54995000Y-68755000D01*
X54995000Y-68905000D01*
X54994639Y-68912351D01*
X54993559Y-68919632D01*
X54991771Y-68926771D01*
X54989291Y-68933701D01*
X54986144Y-68940355D01*
X54982360Y-68946668D01*
X54977976Y-68952579D01*
X54973033Y-68958033D01*
X54967579Y-68962976D01*
X54961668Y-68967360D01*
X54955355Y-68971144D01*
X54948701Y-68974291D01*
X54941771Y-68976771D01*
X54934632Y-68978559D01*
X54927351Y-68979639D01*
X54920000Y-68980000D01*
X53595000Y-68980000D01*
X53587649Y-68979639D01*
X53580368Y-68978559D01*
X53573229Y-68976771D01*
X53566299Y-68974291D01*
X53559645Y-68971144D01*
X53553332Y-68967360D01*
X53547421Y-68962976D01*
X53541967Y-68958033D01*
X53537024Y-68952579D01*
X53532640Y-68946668D01*
X53528856Y-68940355D01*
X53525709Y-68933701D01*
X53523229Y-68926771D01*
X53521441Y-68919632D01*
X53520361Y-68912351D01*
X53520000Y-68905000D01*
X53520000Y-68755000D01*
X53520361Y-68747649D01*
X53521441Y-68740368D01*
X53523229Y-68733229D01*
X53525709Y-68726299D01*
X53528856Y-68719645D01*
X53532640Y-68713332D01*
X53537024Y-68707421D01*
X53541967Y-68701967D01*
X53547421Y-68697024D01*
X53553332Y-68692640D01*
X53559645Y-68688856D01*
X53566299Y-68685709D01*
X53573229Y-68683229D01*
X53580368Y-68681441D01*
X53587649Y-68680361D01*
X53595000Y-68680000D01*
X54920000Y-68680000D01*
X54927351Y-68680361D01*
G37*
G04 #@! TD.AperFunction*
G04 #@! TA.AperFunction,SMDPad,CuDef*
G36*
X54927351Y-69180361D02*
G01*
X54934632Y-69181441D01*
X54941771Y-69183229D01*
X54948701Y-69185709D01*
X54955355Y-69188856D01*
X54961668Y-69192640D01*
X54967579Y-69197024D01*
X54973033Y-69201967D01*
X54977976Y-69207421D01*
X54982360Y-69213332D01*
X54986144Y-69219645D01*
X54989291Y-69226299D01*
X54991771Y-69233229D01*
X54993559Y-69240368D01*
X54994639Y-69247649D01*
X54995000Y-69255000D01*
X54995000Y-69405000D01*
X54994639Y-69412351D01*
X54993559Y-69419632D01*
X54991771Y-69426771D01*
X54989291Y-69433701D01*
X54986144Y-69440355D01*
X54982360Y-69446668D01*
X54977976Y-69452579D01*
X54973033Y-69458033D01*
X54967579Y-69462976D01*
X54961668Y-69467360D01*
X54955355Y-69471144D01*
X54948701Y-69474291D01*
X54941771Y-69476771D01*
X54934632Y-69478559D01*
X54927351Y-69479639D01*
X54920000Y-69480000D01*
X53595000Y-69480000D01*
X53587649Y-69479639D01*
X53580368Y-69478559D01*
X53573229Y-69476771D01*
X53566299Y-69474291D01*
X53559645Y-69471144D01*
X53553332Y-69467360D01*
X53547421Y-69462976D01*
X53541967Y-69458033D01*
X53537024Y-69452579D01*
X53532640Y-69446668D01*
X53528856Y-69440355D01*
X53525709Y-69433701D01*
X53523229Y-69426771D01*
X53521441Y-69419632D01*
X53520361Y-69412351D01*
X53520000Y-69405000D01*
X53520000Y-69255000D01*
X53520361Y-69247649D01*
X53521441Y-69240368D01*
X53523229Y-69233229D01*
X53525709Y-69226299D01*
X53528856Y-69219645D01*
X53532640Y-69213332D01*
X53537024Y-69207421D01*
X53541967Y-69201967D01*
X53547421Y-69197024D01*
X53553332Y-69192640D01*
X53559645Y-69188856D01*
X53566299Y-69185709D01*
X53573229Y-69183229D01*
X53580368Y-69181441D01*
X53587649Y-69180361D01*
X53595000Y-69180000D01*
X54920000Y-69180000D01*
X54927351Y-69180361D01*
G37*
G04 #@! TD.AperFunction*
G04 #@! TA.AperFunction,SMDPad,CuDef*
G36*
X54927351Y-69680361D02*
G01*
X54934632Y-69681441D01*
X54941771Y-69683229D01*
X54948701Y-69685709D01*
X54955355Y-69688856D01*
X54961668Y-69692640D01*
X54967579Y-69697024D01*
X54973033Y-69701967D01*
X54977976Y-69707421D01*
X54982360Y-69713332D01*
X54986144Y-69719645D01*
X54989291Y-69726299D01*
X54991771Y-69733229D01*
X54993559Y-69740368D01*
X54994639Y-69747649D01*
X54995000Y-69755000D01*
X54995000Y-69905000D01*
X54994639Y-69912351D01*
X54993559Y-69919632D01*
X54991771Y-69926771D01*
X54989291Y-69933701D01*
X54986144Y-69940355D01*
X54982360Y-69946668D01*
X54977976Y-69952579D01*
X54973033Y-69958033D01*
X54967579Y-69962976D01*
X54961668Y-69967360D01*
X54955355Y-69971144D01*
X54948701Y-69974291D01*
X54941771Y-69976771D01*
X54934632Y-69978559D01*
X54927351Y-69979639D01*
X54920000Y-69980000D01*
X53595000Y-69980000D01*
X53587649Y-69979639D01*
X53580368Y-69978559D01*
X53573229Y-69976771D01*
X53566299Y-69974291D01*
X53559645Y-69971144D01*
X53553332Y-69967360D01*
X53547421Y-69962976D01*
X53541967Y-69958033D01*
X53537024Y-69952579D01*
X53532640Y-69946668D01*
X53528856Y-69940355D01*
X53525709Y-69933701D01*
X53523229Y-69926771D01*
X53521441Y-69919632D01*
X53520361Y-69912351D01*
X53520000Y-69905000D01*
X53520000Y-69755000D01*
X53520361Y-69747649D01*
X53521441Y-69740368D01*
X53523229Y-69733229D01*
X53525709Y-69726299D01*
X53528856Y-69719645D01*
X53532640Y-69713332D01*
X53537024Y-69707421D01*
X53541967Y-69701967D01*
X53547421Y-69697024D01*
X53553332Y-69692640D01*
X53559645Y-69688856D01*
X53566299Y-69685709D01*
X53573229Y-69683229D01*
X53580368Y-69681441D01*
X53587649Y-69680361D01*
X53595000Y-69680000D01*
X54920000Y-69680000D01*
X54927351Y-69680361D01*
G37*
G04 #@! TD.AperFunction*
G04 #@! TA.AperFunction,SMDPad,CuDef*
G36*
X54927351Y-70180361D02*
G01*
X54934632Y-70181441D01*
X54941771Y-70183229D01*
X54948701Y-70185709D01*
X54955355Y-70188856D01*
X54961668Y-70192640D01*
X54967579Y-70197024D01*
X54973033Y-70201967D01*
X54977976Y-70207421D01*
X54982360Y-70213332D01*
X54986144Y-70219645D01*
X54989291Y-70226299D01*
X54991771Y-70233229D01*
X54993559Y-70240368D01*
X54994639Y-70247649D01*
X54995000Y-70255000D01*
X54995000Y-70405000D01*
X54994639Y-70412351D01*
X54993559Y-70419632D01*
X54991771Y-70426771D01*
X54989291Y-70433701D01*
X54986144Y-70440355D01*
X54982360Y-70446668D01*
X54977976Y-70452579D01*
X54973033Y-70458033D01*
X54967579Y-70462976D01*
X54961668Y-70467360D01*
X54955355Y-70471144D01*
X54948701Y-70474291D01*
X54941771Y-70476771D01*
X54934632Y-70478559D01*
X54927351Y-70479639D01*
X54920000Y-70480000D01*
X53595000Y-70480000D01*
X53587649Y-70479639D01*
X53580368Y-70478559D01*
X53573229Y-70476771D01*
X53566299Y-70474291D01*
X53559645Y-70471144D01*
X53553332Y-70467360D01*
X53547421Y-70462976D01*
X53541967Y-70458033D01*
X53537024Y-70452579D01*
X53532640Y-70446668D01*
X53528856Y-70440355D01*
X53525709Y-70433701D01*
X53523229Y-70426771D01*
X53521441Y-70419632D01*
X53520361Y-70412351D01*
X53520000Y-70405000D01*
X53520000Y-70255000D01*
X53520361Y-70247649D01*
X53521441Y-70240368D01*
X53523229Y-70233229D01*
X53525709Y-70226299D01*
X53528856Y-70219645D01*
X53532640Y-70213332D01*
X53537024Y-70207421D01*
X53541967Y-70201967D01*
X53547421Y-70197024D01*
X53553332Y-70192640D01*
X53559645Y-70188856D01*
X53566299Y-70185709D01*
X53573229Y-70183229D01*
X53580368Y-70181441D01*
X53587649Y-70180361D01*
X53595000Y-70180000D01*
X54920000Y-70180000D01*
X54927351Y-70180361D01*
G37*
G04 #@! TD.AperFunction*
G04 #@! TA.AperFunction,SMDPad,CuDef*
G36*
X54927351Y-70680361D02*
G01*
X54934632Y-70681441D01*
X54941771Y-70683229D01*
X54948701Y-70685709D01*
X54955355Y-70688856D01*
X54961668Y-70692640D01*
X54967579Y-70697024D01*
X54973033Y-70701967D01*
X54977976Y-70707421D01*
X54982360Y-70713332D01*
X54986144Y-70719645D01*
X54989291Y-70726299D01*
X54991771Y-70733229D01*
X54993559Y-70740368D01*
X54994639Y-70747649D01*
X54995000Y-70755000D01*
X54995000Y-70905000D01*
X54994639Y-70912351D01*
X54993559Y-70919632D01*
X54991771Y-70926771D01*
X54989291Y-70933701D01*
X54986144Y-70940355D01*
X54982360Y-70946668D01*
X54977976Y-70952579D01*
X54973033Y-70958033D01*
X54967579Y-70962976D01*
X54961668Y-70967360D01*
X54955355Y-70971144D01*
X54948701Y-70974291D01*
X54941771Y-70976771D01*
X54934632Y-70978559D01*
X54927351Y-70979639D01*
X54920000Y-70980000D01*
X53595000Y-70980000D01*
X53587649Y-70979639D01*
X53580368Y-70978559D01*
X53573229Y-70976771D01*
X53566299Y-70974291D01*
X53559645Y-70971144D01*
X53553332Y-70967360D01*
X53547421Y-70962976D01*
X53541967Y-70958033D01*
X53537024Y-70952579D01*
X53532640Y-70946668D01*
X53528856Y-70940355D01*
X53525709Y-70933701D01*
X53523229Y-70926771D01*
X53521441Y-70919632D01*
X53520361Y-70912351D01*
X53520000Y-70905000D01*
X53520000Y-70755000D01*
X53520361Y-70747649D01*
X53521441Y-70740368D01*
X53523229Y-70733229D01*
X53525709Y-70726299D01*
X53528856Y-70719645D01*
X53532640Y-70713332D01*
X53537024Y-70707421D01*
X53541967Y-70701967D01*
X53547421Y-70697024D01*
X53553332Y-70692640D01*
X53559645Y-70688856D01*
X53566299Y-70685709D01*
X53573229Y-70683229D01*
X53580368Y-70681441D01*
X53587649Y-70680361D01*
X53595000Y-70680000D01*
X54920000Y-70680000D01*
X54927351Y-70680361D01*
G37*
G04 #@! TD.AperFunction*
G04 #@! TA.AperFunction,SMDPad,CuDef*
G36*
X54927351Y-71180361D02*
G01*
X54934632Y-71181441D01*
X54941771Y-71183229D01*
X54948701Y-71185709D01*
X54955355Y-71188856D01*
X54961668Y-71192640D01*
X54967579Y-71197024D01*
X54973033Y-71201967D01*
X54977976Y-71207421D01*
X54982360Y-71213332D01*
X54986144Y-71219645D01*
X54989291Y-71226299D01*
X54991771Y-71233229D01*
X54993559Y-71240368D01*
X54994639Y-71247649D01*
X54995000Y-71255000D01*
X54995000Y-71405000D01*
X54994639Y-71412351D01*
X54993559Y-71419632D01*
X54991771Y-71426771D01*
X54989291Y-71433701D01*
X54986144Y-71440355D01*
X54982360Y-71446668D01*
X54977976Y-71452579D01*
X54973033Y-71458033D01*
X54967579Y-71462976D01*
X54961668Y-71467360D01*
X54955355Y-71471144D01*
X54948701Y-71474291D01*
X54941771Y-71476771D01*
X54934632Y-71478559D01*
X54927351Y-71479639D01*
X54920000Y-71480000D01*
X53595000Y-71480000D01*
X53587649Y-71479639D01*
X53580368Y-71478559D01*
X53573229Y-71476771D01*
X53566299Y-71474291D01*
X53559645Y-71471144D01*
X53553332Y-71467360D01*
X53547421Y-71462976D01*
X53541967Y-71458033D01*
X53537024Y-71452579D01*
X53532640Y-71446668D01*
X53528856Y-71440355D01*
X53525709Y-71433701D01*
X53523229Y-71426771D01*
X53521441Y-71419632D01*
X53520361Y-71412351D01*
X53520000Y-71405000D01*
X53520000Y-71255000D01*
X53520361Y-71247649D01*
X53521441Y-71240368D01*
X53523229Y-71233229D01*
X53525709Y-71226299D01*
X53528856Y-71219645D01*
X53532640Y-71213332D01*
X53537024Y-71207421D01*
X53541967Y-71201967D01*
X53547421Y-71197024D01*
X53553332Y-71192640D01*
X53559645Y-71188856D01*
X53566299Y-71185709D01*
X53573229Y-71183229D01*
X53580368Y-71181441D01*
X53587649Y-71180361D01*
X53595000Y-71180000D01*
X54920000Y-71180000D01*
X54927351Y-71180361D01*
G37*
G04 #@! TD.AperFunction*
D12*
X76200000Y-40640000D03*
G04 #@! TA.AperFunction,SMDPad,CuDef*
D10*
G36*
X79755000Y-39435000D02*
G01*
X77845000Y-39435000D01*
X77700000Y-39260000D01*
X77560000Y-39120000D01*
X77405000Y-38995000D01*
X77235000Y-38885000D01*
X77060000Y-38790000D01*
X76875000Y-38715000D01*
X76680000Y-38660000D01*
X76480000Y-38620000D01*
X76285000Y-38605000D01*
X76115000Y-38605000D01*
X75920000Y-38620000D01*
X75720000Y-38660000D01*
X75525000Y-38715000D01*
X75340000Y-38790000D01*
X75165000Y-38885000D01*
X74995000Y-38995000D01*
X74840000Y-39120000D01*
X74700000Y-39260000D01*
X74555000Y-39435000D01*
X72645000Y-39435000D01*
X72645000Y-37085000D01*
X79755000Y-37085000D01*
X79755000Y-39435000D01*
G37*
G04 #@! TD.AperFunction*
G04 #@! TA.AperFunction,SMDPad,CuDef*
G36*
X72645000Y-41845000D02*
G01*
X74555000Y-41845000D01*
X74700000Y-42020000D01*
X74840000Y-42160000D01*
X74995000Y-42285000D01*
X75165000Y-42395000D01*
X75340000Y-42490000D01*
X75525000Y-42565000D01*
X75720000Y-42620000D01*
X75920000Y-42660000D01*
X76115000Y-42675000D01*
X76285000Y-42675000D01*
X76480000Y-42660000D01*
X76680000Y-42620000D01*
X76875000Y-42565000D01*
X77060000Y-42490000D01*
X77235000Y-42395000D01*
X77405000Y-42285000D01*
X77560000Y-42160000D01*
X77700000Y-42020000D01*
X77845000Y-41845000D01*
X79755000Y-41845000D01*
X79755000Y-44195000D01*
X72645000Y-44195000D01*
X72645000Y-41845000D01*
G37*
G04 #@! TD.AperFunction*
G04 #@! TA.AperFunction,SMDPad,CuDef*
G36*
X72645000Y-72325000D02*
G01*
X74555000Y-72325000D01*
X74700000Y-72500000D01*
X74840000Y-72640000D01*
X74995000Y-72765000D01*
X75165000Y-72875000D01*
X75340000Y-72970000D01*
X75525000Y-73045000D01*
X75720000Y-73100000D01*
X75920000Y-73140000D01*
X76115000Y-73155000D01*
X76285000Y-73155000D01*
X76480000Y-73140000D01*
X76680000Y-73100000D01*
X76875000Y-73045000D01*
X77060000Y-72970000D01*
X77235000Y-72875000D01*
X77405000Y-72765000D01*
X77560000Y-72640000D01*
X77700000Y-72500000D01*
X77845000Y-72325000D01*
X79755000Y-72325000D01*
X79755000Y-74675000D01*
X72645000Y-74675000D01*
X72645000Y-72325000D01*
G37*
G04 #@! TD.AperFunction*
G04 #@! TA.AperFunction,SMDPad,CuDef*
G36*
X79755000Y-69915000D02*
G01*
X77845000Y-69915000D01*
X77700000Y-69740000D01*
X77560000Y-69600000D01*
X77405000Y-69475000D01*
X77235000Y-69365000D01*
X77060000Y-69270000D01*
X76875000Y-69195000D01*
X76680000Y-69140000D01*
X76480000Y-69100000D01*
X76285000Y-69085000D01*
X76115000Y-69085000D01*
X75920000Y-69100000D01*
X75720000Y-69140000D01*
X75525000Y-69195000D01*
X75340000Y-69270000D01*
X75165000Y-69365000D01*
X74995000Y-69475000D01*
X74840000Y-69600000D01*
X74700000Y-69740000D01*
X74555000Y-69915000D01*
X72645000Y-69915000D01*
X72645000Y-67565000D01*
X79755000Y-67565000D01*
X79755000Y-69915000D01*
G37*
G04 #@! TD.AperFunction*
D12*
X76200000Y-71120000D03*
D13*
X43180000Y-33020000D03*
D14*
X76170000Y-33020000D03*
X78770000Y-33020000D03*
X77470000Y-33020000D03*
D15*
X82535000Y-49530000D03*
X77485000Y-49530000D03*
X82535000Y-52070000D03*
X77485000Y-52070000D03*
X82535000Y-54610000D03*
X77485000Y-54610000D03*
X82535000Y-57150000D03*
X77485000Y-57150000D03*
X82535000Y-59690000D03*
X77485000Y-59690000D03*
X82535000Y-62230000D03*
X77485000Y-62230000D03*
X39385000Y-49530000D03*
X44435000Y-49530000D03*
X39385000Y-52070000D03*
X44435000Y-52070000D03*
X39385000Y-54610000D03*
X44435000Y-54610000D03*
X39385000Y-57150000D03*
X44435000Y-57150000D03*
X39385000Y-59690000D03*
X44435000Y-59690000D03*
X39385000Y-62230000D03*
X44435000Y-62230000D03*
D16*
X69469000Y-57404000D03*
X55626000Y-62611000D03*
X65957100Y-60877100D03*
X66173100Y-55955100D03*
X45618400Y-60845000D03*
X60881600Y-61063400D03*
X38756100Y-50953800D03*
X55688800Y-50798800D03*
X60750900Y-50782400D03*
X43180000Y-33020000D03*
X43180000Y-34925000D03*
X76200000Y-34925000D03*
X81915000Y-58420000D03*
X40005000Y-58420000D03*
X73591000Y-34538900D03*
X81188600Y-45720000D03*
X70465100Y-76302100D03*
X83447000Y-53506200D03*
X80005000Y-35489300D03*
X66525200Y-33863200D03*
X54477300Y-33444500D03*
X65826400Y-45708300D03*
X71115900Y-40764500D03*
X70783200Y-34484300D03*
X70565800Y-35485400D03*
X69525700Y-35481400D03*
X65625800Y-35498700D03*
X67388000Y-34588500D03*
X69311200Y-33422400D03*
X63266900Y-35498600D03*
X63796700Y-33441900D03*
X61517600Y-35480100D03*
X62720500Y-33637400D03*
X64806200Y-33082500D03*
X45920200Y-50774300D03*
X51019000Y-45725700D03*
X39240900Y-47501600D03*
X39268000Y-46368200D03*
X45812200Y-45627800D03*
X39275200Y-43526800D03*
X37486800Y-42501200D03*
X51347300Y-33562400D03*
X51857100Y-34467400D03*
X50866200Y-50662700D03*
X52876900Y-35499300D03*
X50600000Y-35279600D03*
X55519900Y-35490700D03*
X56520300Y-35497800D03*
X57692400Y-35473500D03*
X77734600Y-35366300D03*
X40773900Y-61050200D03*
X40536100Y-63348000D03*
X39307500Y-64088400D03*
X49403000Y-65278000D03*
X58420000Y-60198000D03*
X76114400Y-60874400D03*
X50892090Y-66141410D03*
X54681900Y-76288100D03*
X40006000Y-64813800D03*
X40552600Y-65710600D03*
X45783800Y-66178500D03*
X50166100Y-76291300D03*
X53681500Y-76288500D03*
X55682300Y-76314700D03*
X56682700Y-76291200D03*
X57683100Y-76265800D03*
X59526400Y-76271900D03*
X83882200Y-63376000D03*
X65840200Y-66040000D03*
X83861900Y-69463600D03*
X84274200Y-68293400D03*
X81714600Y-71863500D03*
X81350900Y-65700500D03*
X75988800Y-66040000D03*
X81344500Y-67239700D03*
X69289300Y-76471300D03*
X65952200Y-76058500D03*
X69093400Y-77582800D03*
X63792100Y-78586000D03*
X64811000Y-76276200D03*
X66979900Y-76720500D03*
X62703600Y-77622800D03*
X61977100Y-78947900D03*
X81347800Y-69937500D03*
X76200000Y-45508000D03*
D17*
X57670000Y-63601800D02*
X57670000Y-64417500D01*
X77485000Y-62230000D02*
X79385300Y-62230000D01*
X79385300Y-62230000D02*
X79385300Y-59047600D01*
X59170000Y-50257300D02*
X59170000Y-47342500D01*
X54527900Y-62655900D02*
X54102000Y-62230000D01*
X56724100Y-62655900D02*
X54527900Y-62655900D01*
X56724100Y-62655900D02*
X57670000Y-63601800D01*
X44435000Y-62230000D02*
X54102000Y-62230000D01*
X69838650Y-57392650D02*
X71374000Y-58928000D01*
X66305350Y-57392650D02*
X69838650Y-57392650D01*
X66305350Y-57392650D02*
X59170000Y-50257300D01*
X74397514Y-58903514D02*
X74827486Y-58903514D01*
X74397514Y-58903514D02*
X71374000Y-58928000D01*
X75027413Y-58898413D02*
X75086587Y-58898413D01*
X75027413Y-58898413D02*
X74397514Y-58903514D01*
X75086587Y-58898413D02*
X75565000Y-58420000D01*
X79375000Y-58919998D02*
X79375000Y-58928000D01*
X78875002Y-58420000D02*
X79375000Y-58919998D01*
X75565000Y-58420000D02*
X78875002Y-58420000D01*
X79385300Y-59047600D02*
X79375000Y-58928000D01*
X54465300Y-59690000D02*
X58170000Y-63394700D01*
X58170000Y-63394700D02*
X58170000Y-64417500D01*
X44435000Y-59690000D02*
X54465300Y-59690000D01*
X54465300Y-59690000D02*
X54465300Y-56643800D01*
X54465300Y-56643800D02*
X58919600Y-52189500D01*
X58919600Y-52189500D02*
X58670000Y-51939900D01*
X58670000Y-51939900D02*
X58670000Y-47342500D01*
X58919600Y-52189500D02*
X66420100Y-59690000D01*
X66420100Y-59690000D02*
X77485000Y-59690000D01*
X46335300Y-54610000D02*
X44435000Y-54610000D01*
X58170000Y-47342500D02*
X58170000Y-49435100D01*
X58170000Y-49435100D02*
X52995100Y-54610000D01*
X52995100Y-54610000D02*
X46335300Y-54610000D01*
X45618400Y-60845000D02*
X43042700Y-60845000D01*
X43042700Y-60845000D02*
X42534600Y-60336900D01*
X42534600Y-60336900D02*
X42534600Y-58979900D01*
X42534600Y-58979900D02*
X43539200Y-57975300D01*
X43539200Y-57975300D02*
X46144800Y-57975300D01*
X46144800Y-57975300D02*
X46335300Y-57784800D01*
X46335300Y-57784800D02*
X46335300Y-54610000D01*
X65957100Y-60877100D02*
X65376900Y-60296900D01*
X65376900Y-60296900D02*
X60576300Y-60296900D01*
X60576300Y-60296900D02*
X58670000Y-62203200D01*
X58670000Y-62203200D02*
X58670000Y-64417500D01*
X77485000Y-54610000D02*
X75584700Y-54610000D01*
X66173100Y-55955100D02*
X74239600Y-55955100D01*
X74239600Y-55955100D02*
X75584700Y-54610000D01*
X60881600Y-64417500D02*
X61170000Y-64417500D01*
X60670000Y-64417500D02*
X60881600Y-64417500D01*
X60881600Y-61063400D02*
X60881600Y-64417500D01*
X39385000Y-52070000D02*
X39385000Y-51582700D01*
X39385000Y-51582700D02*
X38756100Y-50953800D01*
X44435000Y-52070000D02*
X39385000Y-52070000D01*
X84435300Y-52070000D02*
X84435300Y-48810800D01*
X84435300Y-48810800D02*
X82519200Y-46894700D01*
X82519200Y-46894700D02*
X80407800Y-46894700D01*
X56170000Y-47342500D02*
X56170000Y-46511100D01*
X56170000Y-46511100D02*
X56405300Y-46275800D01*
X56405300Y-46275800D02*
X61515800Y-46275800D01*
X61515800Y-46275800D02*
X62579600Y-47339600D01*
X62579600Y-47339600D02*
X79962900Y-47339600D01*
X79962900Y-47339600D02*
X80407800Y-46894700D01*
X80407800Y-46894700D02*
X80407800Y-44875900D01*
X80407800Y-44875900D02*
X80801800Y-44481900D01*
X80801800Y-44481900D02*
X80801800Y-34226500D01*
X80801800Y-34226500D02*
X79595300Y-33020000D01*
X79385300Y-52070000D02*
X82535000Y-52070000D01*
X55670000Y-47342500D02*
X56170000Y-47342500D01*
X55670000Y-47342500D02*
X50942500Y-52070000D01*
X50942500Y-52070000D02*
X44435000Y-52070000D01*
X78770000Y-33020000D02*
X79595300Y-33020000D01*
X82535000Y-52070000D02*
X84435300Y-52070000D01*
X77485000Y-52070000D02*
X79385300Y-52070000D01*
X42067500Y-53435300D02*
X38129800Y-53435300D01*
X38129800Y-53435300D02*
X37484700Y-52790200D01*
X37484700Y-52790200D02*
X37484700Y-49530000D01*
X55688800Y-50798800D02*
X53052300Y-53435300D01*
X53052300Y-53435300D02*
X42067500Y-53435300D01*
X42067500Y-53435300D02*
X42067500Y-62399900D01*
X42067500Y-62399900D02*
X42747200Y-63079600D01*
X42747200Y-63079600D02*
X54332100Y-63079600D01*
X54332100Y-63079600D02*
X55670000Y-64417500D01*
X55670000Y-64417500D02*
X56170000Y-64417500D01*
X39385000Y-49530000D02*
X37484700Y-49530000D01*
X44435000Y-49530000D02*
X39385000Y-49530000D01*
X60750900Y-50452600D02*
X74662100Y-50452600D01*
X74662100Y-50452600D02*
X75584700Y-49530000D01*
X61170000Y-47342500D02*
X61170000Y-47882400D01*
X61170000Y-47882400D02*
X61097000Y-47955400D01*
X61097000Y-47955400D02*
X61008500Y-47955400D01*
X61008500Y-47955400D02*
X60545800Y-48418100D01*
X60545800Y-48418100D02*
X60545800Y-50247500D01*
X60545800Y-50247500D02*
X60750900Y-50452600D01*
X60750900Y-50452600D02*
X60750900Y-50782400D01*
X77485000Y-49530000D02*
X75584700Y-49530000D01*
X77485000Y-49530000D02*
X82535000Y-49530000D01*
X60670000Y-47342500D02*
X61170000Y-47342500D01*
X76200000Y-34925000D02*
X76200000Y-33050000D01*
X76200000Y-33050000D02*
X76170000Y-33020000D01*
X43180000Y-34925000D02*
X43180000Y-33020000D01*
X40005000Y-58420000D02*
X40005000Y-59070000D01*
X40005000Y-59070000D02*
X39385000Y-59690000D01*
X81915000Y-58420000D02*
X81915000Y-59070000D01*
X81915000Y-59070000D02*
X82535000Y-59690000D01*
X84435300Y-57150000D02*
X84733400Y-57150000D01*
X84733400Y-57150000D02*
X85390400Y-56493000D01*
X85390400Y-56493000D02*
X85390400Y-49116500D01*
X85390400Y-49116500D02*
X81993900Y-45720000D01*
X81993900Y-45720000D02*
X81188600Y-45720000D01*
X72581300Y-34538900D02*
X70308700Y-32266300D01*
X70308700Y-32266300D02*
X62391500Y-32266300D01*
X62391500Y-32266300D02*
X59219700Y-35438100D01*
X59219700Y-35438100D02*
X59219700Y-36075000D01*
X59219700Y-36075000D02*
X58670000Y-36624700D01*
X58670000Y-36624700D02*
X58670000Y-39017500D01*
X72581300Y-34538900D02*
X73591000Y-34538900D01*
X76200000Y-40640000D02*
X73389900Y-40640000D01*
X73389900Y-40640000D02*
X72299900Y-39550000D01*
X72299900Y-39550000D02*
X72299900Y-34820300D01*
X72299900Y-34820300D02*
X72581300Y-34538900D01*
X82535000Y-57150000D02*
X84435300Y-57150000D01*
X58170000Y-72742500D02*
X58170000Y-73777100D01*
X58170000Y-73777100D02*
X61251800Y-76858900D01*
X61251800Y-76858900D02*
X61251800Y-79248300D01*
X61251800Y-79248300D02*
X61676700Y-79673200D01*
X61676700Y-79673200D02*
X68028800Y-79673200D01*
X68028800Y-79673200D02*
X70465100Y-77236900D01*
X70465100Y-77236900D02*
X70465100Y-76302100D01*
X82535000Y-54610000D02*
X83447000Y-53698000D01*
X83447000Y-53698000D02*
X83447000Y-53506200D01*
X70465100Y-76302100D02*
X70465100Y-74028700D01*
X70465100Y-74028700D02*
X73373800Y-71120000D01*
X73373800Y-71120000D02*
X76200000Y-71120000D01*
X62582500Y-45930000D02*
X63541800Y-46889300D01*
X63541800Y-46889300D02*
X77532200Y-46889300D01*
X77532200Y-46889300D02*
X80351500Y-44070000D01*
X80351500Y-44070000D02*
X80351500Y-35835800D01*
X80351500Y-35835800D02*
X80005000Y-35489300D01*
X66525200Y-33863200D02*
X68726300Y-33863200D01*
X68726300Y-33863200D02*
X69010800Y-34147700D01*
X69010800Y-34147700D02*
X69611700Y-34147700D01*
X69611700Y-34147700D02*
X70001600Y-33757800D01*
X70001600Y-33757800D02*
X71114400Y-33757800D01*
X71114400Y-33757800D02*
X71841200Y-34484600D01*
X71841200Y-34484600D02*
X71841200Y-41065000D01*
X71841200Y-41065000D02*
X66467200Y-46439000D01*
X66467200Y-46439000D02*
X65438800Y-46439000D01*
X65438800Y-46439000D02*
X64429800Y-45430000D01*
X64429800Y-45430000D02*
X62582500Y-45430000D01*
X54477300Y-33444500D02*
X54477300Y-39163200D01*
X54477300Y-39163200D02*
X55554700Y-40240600D01*
X55554700Y-40240600D02*
X60946600Y-40240600D01*
X60946600Y-40240600D02*
X61245400Y-40539400D01*
X61245400Y-40539400D02*
X61245400Y-44413500D01*
X61245400Y-44413500D02*
X61761900Y-44930000D01*
X61761900Y-44930000D02*
X62582500Y-44930000D01*
X65826400Y-45708300D02*
X64548100Y-44430000D01*
X64548100Y-44430000D02*
X62582500Y-44430000D01*
X71115900Y-40764500D02*
X67950400Y-43930000D01*
X67950400Y-43930000D02*
X62582500Y-43930000D01*
X62582500Y-43430000D02*
X64313000Y-43430000D01*
X64313000Y-43430000D02*
X71293600Y-36449400D01*
X71293600Y-36449400D02*
X71293600Y-34994700D01*
X71293600Y-34994700D02*
X70783200Y-34484300D01*
X62582500Y-42930000D02*
X64162700Y-42930000D01*
X64162700Y-42930000D02*
X70565800Y-36526900D01*
X70565800Y-36526900D02*
X70565800Y-35485400D01*
X62582500Y-42430000D02*
X63981700Y-42430000D01*
X63981700Y-42430000D02*
X69525700Y-36886000D01*
X69525700Y-36886000D02*
X69525700Y-35481400D01*
X62582500Y-41930000D02*
X63793000Y-41930000D01*
X63793000Y-41930000D02*
X65625800Y-40097200D01*
X65625800Y-40097200D02*
X65625800Y-35498700D01*
X62582500Y-41430000D02*
X63623400Y-41430000D01*
X63623400Y-41430000D02*
X64706500Y-40346900D01*
X64706500Y-40346900D02*
X64706500Y-35315400D01*
X64706500Y-35315400D02*
X65433400Y-34588500D01*
X65433400Y-34588500D02*
X67388000Y-34588500D01*
X69311200Y-33422400D02*
X68970800Y-33082000D01*
X68970800Y-33082000D02*
X66201200Y-33082000D01*
X66201200Y-33082000D02*
X64031100Y-35252100D01*
X64031100Y-35252100D02*
X64031100Y-40361200D01*
X64031100Y-40361200D02*
X63462300Y-40930000D01*
X63462300Y-40930000D02*
X62582500Y-40930000D01*
X63266900Y-35498600D02*
X63266900Y-39745600D01*
X63266900Y-39745600D02*
X62582500Y-40430000D01*
X63796700Y-33441900D02*
X63796700Y-33926700D01*
X63796700Y-33926700D02*
X62383100Y-35340300D01*
X62383100Y-35340300D02*
X62383100Y-37804400D01*
X62383100Y-37804400D02*
X61170000Y-39017500D01*
X60670000Y-39017500D02*
X60670000Y-36327700D01*
X60670000Y-36327700D02*
X61517600Y-35480100D01*
X62720500Y-33637400D02*
X62318200Y-33637400D01*
X62318200Y-33637400D02*
X60170000Y-35785600D01*
X60170000Y-35785600D02*
X60170000Y-39017500D01*
X64806200Y-33082500D02*
X64440300Y-32716600D01*
X64440300Y-32716600D02*
X62578100Y-32716600D01*
X62578100Y-32716600D02*
X59670000Y-35624700D01*
X59670000Y-35624700D02*
X59670000Y-39017500D01*
X45920200Y-50774300D02*
X49413200Y-50774300D01*
X49413200Y-50774300D02*
X54257500Y-45930000D01*
X54257500Y-45430000D02*
X51314700Y-45430000D01*
X51314700Y-45430000D02*
X51019000Y-45725700D01*
X39240900Y-47501600D02*
X47849600Y-47501600D01*
X47849600Y-47501600D02*
X50421200Y-44930000D01*
X50421200Y-44930000D02*
X54257500Y-44930000D01*
X54257500Y-44430000D02*
X48830300Y-44430000D01*
X48830300Y-44430000D02*
X46892100Y-46368200D01*
X46892100Y-46368200D02*
X39268000Y-46368200D01*
X54257500Y-43930000D02*
X47510000Y-43930000D01*
X47510000Y-43930000D02*
X45812200Y-45627800D01*
X54257500Y-43430000D02*
X39372000Y-43430000D01*
X39372000Y-43430000D02*
X39275200Y-43526800D01*
X37486800Y-42501200D02*
X39275500Y-42501200D01*
X39275500Y-42501200D02*
X39704300Y-42930000D01*
X39704300Y-42930000D02*
X54257500Y-42930000D01*
X54257500Y-42430000D02*
X53213200Y-42430000D01*
X53213200Y-42430000D02*
X51325400Y-40542200D01*
X51325400Y-40542200D02*
X51325400Y-34961400D01*
X51325400Y-34961400D02*
X51093400Y-34729400D01*
X51093400Y-34729400D02*
X51093400Y-33816300D01*
X51093400Y-33816300D02*
X51347300Y-33562400D01*
X54257500Y-41930000D02*
X53446400Y-41930000D01*
X53446400Y-41930000D02*
X51857100Y-40340700D01*
X51857100Y-40340700D02*
X51857100Y-34467400D01*
X50866200Y-50662700D02*
X55348500Y-46180400D01*
X55348500Y-46180400D02*
X55348500Y-41700400D01*
X55348500Y-41700400D02*
X55078100Y-41430000D01*
X55078100Y-41430000D02*
X54257500Y-41430000D01*
X54257500Y-40930000D02*
X53383700Y-40930000D01*
X53383700Y-40930000D02*
X52876900Y-40423200D01*
X52876900Y-40423200D02*
X52876900Y-35499300D01*
X50600000Y-35279600D02*
X50600000Y-33283700D01*
X50600000Y-33283700D02*
X51082300Y-32801400D01*
X51082300Y-32801400D02*
X51661000Y-32801400D01*
X51661000Y-32801400D02*
X53602200Y-34742600D01*
X53602200Y-34742600D02*
X53602200Y-39774700D01*
X53602200Y-39774700D02*
X54257500Y-40430000D01*
X55670000Y-39017500D02*
X55519900Y-38867400D01*
X55519900Y-38867400D02*
X55519900Y-35490700D01*
X56170000Y-39017500D02*
X56170000Y-35866400D01*
X56170000Y-35866400D02*
X56520300Y-35516100D01*
X56520300Y-35516100D02*
X56520300Y-35497800D01*
X56670000Y-39017500D02*
X56670000Y-36495900D01*
X56670000Y-36495900D02*
X57692400Y-35473500D01*
X77734600Y-35366300D02*
X77450500Y-35650400D01*
X77450500Y-35650400D02*
X75898700Y-35650400D01*
X75898700Y-35650400D02*
X72064300Y-31816000D01*
X72064300Y-31816000D02*
X62204900Y-31816000D01*
X62204900Y-31816000D02*
X58769400Y-35251500D01*
X58769400Y-35251500D02*
X58769400Y-35803800D01*
X58769400Y-35803800D02*
X57170000Y-37403200D01*
X57170000Y-37403200D02*
X57170000Y-39017500D01*
X54257500Y-65830000D02*
X51960700Y-63533200D01*
X51960700Y-63533200D02*
X42534500Y-63533200D01*
X42534500Y-63533200D02*
X41285400Y-62284100D01*
X41285400Y-62284100D02*
X41285400Y-61561700D01*
X41285400Y-61561700D02*
X40773900Y-61050200D01*
X40936099Y-63747999D02*
X40536100Y-63348000D01*
X53378820Y-66330000D02*
X51032320Y-63983500D01*
X51032320Y-63983500D02*
X41171600Y-63983500D01*
X41171600Y-63983500D02*
X40936099Y-63747999D01*
X54257500Y-66330000D02*
X53378820Y-66330000D01*
X39307500Y-64088400D02*
X40639600Y-64088400D01*
X41041300Y-64490100D02*
X50902510Y-64490100D01*
X50902510Y-64490100D02*
X53242410Y-66830000D01*
X53520000Y-66830000D02*
X54257500Y-66830000D01*
X53242410Y-66830000D02*
X53520000Y-66830000D01*
X40639600Y-64088400D02*
X41041300Y-64490100D01*
X54257500Y-67330000D02*
X53106000Y-67330000D01*
X49403000Y-65278000D02*
X51054000Y-65278000D01*
X53106000Y-67330000D02*
X51054000Y-65278000D01*
X54257500Y-67830000D02*
X55078100Y-67830000D01*
X55078100Y-67830000D02*
X55594600Y-67313500D01*
X55594600Y-67313500D02*
X55594600Y-65872500D01*
X55594600Y-65872500D02*
X55712800Y-65754300D01*
X55712800Y-65754300D02*
X61152300Y-65754300D01*
X61152300Y-65754300D02*
X64676600Y-62230000D01*
X64676600Y-62230000D02*
X74758800Y-62230000D01*
X74758800Y-62230000D02*
X76114400Y-60874400D01*
X54257500Y-68330000D02*
X53080680Y-68330000D01*
X51292089Y-66541409D02*
X50892090Y-66141410D01*
X53080680Y-68330000D02*
X51292089Y-66541409D01*
X54257500Y-68830000D02*
X55078100Y-68830000D01*
X55078100Y-68830000D02*
X55348500Y-69100400D01*
X55348500Y-69100400D02*
X55348500Y-71651500D01*
X55348500Y-71651500D02*
X54681900Y-72318100D01*
X54681900Y-72318100D02*
X54681900Y-76288100D01*
X40006000Y-64813800D02*
X40132600Y-64940400D01*
X40132600Y-64940400D02*
X47603500Y-64940400D01*
X47603500Y-64940400D02*
X51993100Y-69330000D01*
X51993100Y-69330000D02*
X54257500Y-69330000D01*
X54257500Y-69830000D02*
X50846100Y-69830000D01*
X50846100Y-69830000D02*
X46414700Y-65398600D01*
X46414700Y-65398600D02*
X40864600Y-65398600D01*
X40864600Y-65398600D02*
X40552600Y-65710600D01*
X45783800Y-66178500D02*
X49935300Y-70330000D01*
X49935300Y-70330000D02*
X54257500Y-70330000D01*
X54257500Y-70830000D02*
X53382500Y-70830000D01*
X53382500Y-70830000D02*
X50166100Y-74046400D01*
X50166100Y-74046400D02*
X50166100Y-76291300D01*
X54257500Y-71330000D02*
X53681500Y-71906000D01*
X53681500Y-71906000D02*
X53681500Y-76288500D01*
X55670000Y-72742500D02*
X55670000Y-76302400D01*
X55670000Y-76302400D02*
X55682300Y-76314700D01*
X56170000Y-72742500D02*
X56170000Y-75601500D01*
X56170000Y-75601500D02*
X56682700Y-76114200D01*
X56682700Y-76114200D02*
X56682700Y-76291200D01*
X56670000Y-72742500D02*
X56670000Y-75252700D01*
X56670000Y-75252700D02*
X57683100Y-76265800D01*
X57170000Y-72742500D02*
X57170000Y-73915500D01*
X57170000Y-73915500D02*
X59526400Y-76271900D01*
X62582500Y-65830000D02*
X65036500Y-63376000D01*
X65036500Y-63376000D02*
X83882200Y-63376000D01*
X65840200Y-66040000D02*
X65550200Y-66330000D01*
X65550200Y-66330000D02*
X62582500Y-66330000D01*
X83861900Y-69463600D02*
X83548900Y-69150600D01*
X83548900Y-69150600D02*
X83548900Y-65587300D01*
X83548900Y-65587300D02*
X81877000Y-63915400D01*
X81877000Y-63915400D02*
X69029700Y-63915400D01*
X69029700Y-63915400D02*
X66115100Y-66830000D01*
X66115100Y-66830000D02*
X62582500Y-66830000D01*
X84274200Y-68293400D02*
X84588000Y-68607200D01*
X84588000Y-68607200D02*
X84588000Y-69813000D01*
X84588000Y-69813000D02*
X84209800Y-70191200D01*
X84209800Y-70191200D02*
X83498300Y-70191200D01*
X83498300Y-70191200D02*
X82779000Y-69471900D01*
X82779000Y-69471900D02*
X82779000Y-65454300D01*
X82779000Y-65454300D02*
X81692800Y-64368100D01*
X81692800Y-64368100D02*
X69213900Y-64368100D01*
X69213900Y-64368100D02*
X66252000Y-67330000D01*
X66252000Y-67330000D02*
X62582500Y-67330000D01*
X62582500Y-67830000D02*
X66388900Y-67830000D01*
X66388900Y-67830000D02*
X69397300Y-64821600D01*
X69397300Y-64821600D02*
X81505100Y-64821600D01*
X81505100Y-64821600D02*
X82076300Y-65392800D01*
X82076300Y-65392800D02*
X82076300Y-71501800D01*
X82076300Y-71501800D02*
X81714600Y-71863500D01*
X62582500Y-68330000D02*
X67162600Y-68330000D01*
X67162600Y-68330000D02*
X70220300Y-65272300D01*
X70220300Y-65272300D02*
X80922700Y-65272300D01*
X80922700Y-65272300D02*
X81350900Y-65700500D01*
X62582500Y-68830000D02*
X67299500Y-68830000D01*
X67299500Y-68830000D02*
X70089500Y-66040000D01*
X70089500Y-66040000D02*
X75988800Y-66040000D01*
X62582500Y-69330000D02*
X68018900Y-69330000D01*
X68018900Y-69330000D02*
X70109200Y-67239700D01*
X70109200Y-67239700D02*
X81344500Y-67239700D01*
X69289300Y-76471300D02*
X69289300Y-75639100D01*
X69289300Y-75639100D02*
X63480200Y-69830000D01*
X63480200Y-69830000D02*
X62582500Y-69830000D01*
X65952200Y-76058500D02*
X61504300Y-71610600D01*
X61504300Y-71610600D02*
X61504300Y-70579400D01*
X61504300Y-70579400D02*
X61753700Y-70330000D01*
X61753700Y-70330000D02*
X62582500Y-70330000D01*
X69093400Y-77582800D02*
X68563900Y-77053300D01*
X68563900Y-77053300D02*
X68563900Y-75946800D01*
X68563900Y-75946800D02*
X63447100Y-70830000D01*
X63447100Y-70830000D02*
X62582500Y-70830000D01*
X62582500Y-71330000D02*
X62669500Y-71330000D01*
X62669500Y-71330000D02*
X67732400Y-76392900D01*
X67732400Y-76392900D02*
X67732400Y-76998400D01*
X67732400Y-76998400D02*
X66144900Y-78585900D01*
X66144900Y-78585900D02*
X63792100Y-78585900D01*
X63792100Y-78585900D02*
X63792100Y-78586000D01*
X61170000Y-72742500D02*
X61277300Y-72742500D01*
X61277300Y-72742500D02*
X64811000Y-76276200D01*
X60670000Y-72742500D02*
X60670000Y-73616200D01*
X60670000Y-73616200D02*
X64079500Y-77025700D01*
X64079500Y-77025700D02*
X66674700Y-77025700D01*
X66674700Y-77025700D02*
X66979900Y-76720500D01*
X60170000Y-72742500D02*
X60170000Y-74381000D01*
X60170000Y-74381000D02*
X62703600Y-76914600D01*
X62703600Y-76914600D02*
X62703600Y-77622800D01*
X59670000Y-72742500D02*
X59670000Y-74640200D01*
X59670000Y-74640200D02*
X61977100Y-76947300D01*
X61977100Y-76947300D02*
X61977100Y-78947900D01*
X80080300Y-69937500D02*
X81347800Y-69937500D01*
X80080300Y-69937500D02*
X80080300Y-73920000D01*
X78857800Y-68320000D02*
X80080300Y-69542500D01*
X80080300Y-69542500D02*
X80080300Y-69937500D01*
X76805700Y-43440000D02*
X76200000Y-44045700D01*
X76200000Y-44045700D02*
X76200000Y-45508000D01*
X76805700Y-43440000D02*
X78622700Y-43440000D01*
X76200000Y-43440000D02*
X76805700Y-43440000D01*
X77470000Y-34095300D02*
X77546300Y-34095300D01*
X77546300Y-34095300D02*
X79893700Y-36442700D01*
X79893700Y-36442700D02*
X79893700Y-37840000D01*
X78615100Y-37840000D02*
X79893700Y-37840000D01*
X77470000Y-33020000D02*
X77470000Y-34095300D01*
X76200000Y-73920000D02*
X80080300Y-73920000D01*
X76200000Y-68320000D02*
X78857800Y-68320000D01*
X78615100Y-37840000D02*
X78622700Y-37847600D01*
X78622700Y-37847600D02*
X78622700Y-43440000D01*
X76200000Y-37840000D02*
X78615100Y-37840000D01*
M02*
