M48
; DRILL file {KiCad (5.1.5)-3} date 2020-02-10 18:10:52
; FORMAT={-:-/ absolute / metric / decimal}
; #@! TF.CreationDate,2020-02-10T18:10:52+01:00
; #@! TF.GenerationSoftware,Kicad,Pcbnew,(5.1.5)-3
; #@! TF.FileFunction,Plated,1,4,PTH
FMAT,2
METRIC
T1C0.400
%
G90
G05
T1
X37.487Y-42.501
X38.756Y-50.954
X39.241Y-47.502
X39.268Y-46.368
X39.275Y-43.527
X39.307Y-64.088
X40.006Y-64.814
X40.536Y-63.348
X40.553Y-65.711
X40.774Y-61.05
X45.618Y-60.845
X45.784Y-66.178
X45.812Y-45.628
X45.92Y-50.774
X50.166Y-76.291
X50.6Y-35.28
X50.866Y-50.663
X50.892Y-66.141
X51.019Y-45.726
X51.347Y-33.562
X51.857Y-34.467
X52.877Y-35.499
X53.681Y-76.288
X54.477Y-33.444
X54.682Y-76.288
X55.52Y-35.491
X55.682Y-76.315
X55.689Y-50.799
X56.52Y-35.498
X56.683Y-76.291
X57.683Y-76.266
X57.692Y-35.474
X59.526Y-76.272
X60.751Y-50.782
X60.882Y-61.063
X61.518Y-35.48
X61.977Y-78.948
X62.704Y-77.623
X62.72Y-33.637
X63.267Y-35.499
X63.792Y-78.586
X63.797Y-33.442
X64.806Y-33.082
X64.811Y-76.276
X65.626Y-35.499
X65.826Y-45.708
X65.84Y-66.04
X65.952Y-76.058
X65.957Y-60.877
X66.173Y-55.955
X66.525Y-33.863
X66.98Y-76.721
X67.388Y-34.588
X69.093Y-77.583
X69.289Y-76.471
X69.311Y-33.422
X69.526Y-35.481
X70.465Y-76.302
X70.566Y-35.485
X70.783Y-34.484
X71.116Y-40.764
X73.591Y-34.539
X75.989Y-66.04
X76.114Y-60.874
X76.2Y-45.508
X77.735Y-35.366
X80.005Y-35.489
X81.189Y-45.72
X81.344Y-67.24
X81.348Y-69.938
X81.351Y-65.7
X81.715Y-71.864
X83.447Y-53.506
X83.862Y-69.464
X83.882Y-63.376
X84.274Y-68.293
T0
M30
