G04 #@! TF.GenerationSoftware,KiCad,Pcbnew,(5.1.5)-3*
G04 #@! TF.CreationDate,2020-02-10T18:10:01+01:00*
G04 #@! TF.ProjectId,Mars-64,4d617273-2d36-4342-9e6b-696361645f70,A*
G04 #@! TF.SameCoordinates,Original*
G04 #@! TF.FileFunction,Copper,L1,Top*
G04 #@! TF.FilePolarity,Positive*
%FSLAX46Y46*%
G04 Gerber Fmt 4.6, Leading zero omitted, Abs format (unit mm)*
G04 Created by KiCad (PCBNEW (5.1.5)-3) date 2020-02-10 18:10:01*
%MOMM*%
%LPD*%
G04 APERTURE LIST*
%ADD10R,4.000000X4.000000*%
%ADD11C,0.800000*%
%ADD12C,0.250000*%
G04 APERTURE END LIST*
D10*
X43180000Y-38100000D03*
X48260000Y-38100000D03*
X53340000Y-38100000D03*
X58420000Y-38100000D03*
X63500000Y-38100000D03*
X68580000Y-38100000D03*
X73660000Y-38100000D03*
X78740000Y-38100000D03*
X43180000Y-43180000D03*
X48260000Y-43180000D03*
X53340000Y-43180000D03*
X58420000Y-43180000D03*
X63500000Y-43180000D03*
X68580000Y-43180000D03*
X73660000Y-43180000D03*
X78740000Y-43180000D03*
X43180000Y-48260000D03*
X48260000Y-48260000D03*
X53340000Y-48260000D03*
X58420000Y-48260000D03*
X63500000Y-48260000D03*
X68580000Y-48260000D03*
X73660000Y-48260000D03*
X78740000Y-48260000D03*
X43180000Y-53340000D03*
X48260000Y-53340000D03*
X53340000Y-53340000D03*
X58420000Y-53340000D03*
X63500000Y-53340000D03*
X68580000Y-53340000D03*
X73660000Y-53340000D03*
X78740000Y-53340000D03*
X43180000Y-58420000D03*
X48260000Y-58420000D03*
X53340000Y-58420000D03*
X58420000Y-58420000D03*
X63500000Y-58420000D03*
X68580000Y-58420000D03*
X73660000Y-58420000D03*
X78740000Y-58420000D03*
X43180000Y-63500000D03*
X48260000Y-63500000D03*
X53340000Y-63500000D03*
X58420000Y-63500000D03*
X63500000Y-63500000D03*
X68580000Y-63500000D03*
X73660000Y-63500000D03*
X78740000Y-63500000D03*
X43180000Y-68580000D03*
X48260000Y-68580000D03*
X53340000Y-68580000D03*
X58420000Y-68580000D03*
X63500000Y-68580000D03*
X68580000Y-68580000D03*
X73660000Y-68580000D03*
X78740000Y-68580000D03*
X43180000Y-73660000D03*
X48260000Y-73660000D03*
X53340000Y-73660000D03*
X58420000Y-73660000D03*
X63500000Y-73660000D03*
X68580000Y-73660000D03*
X73660000Y-73660000D03*
X78740000Y-73660000D03*
D11*
X65957100Y-60877100D03*
X66173100Y-55955100D03*
X45618400Y-60845000D03*
X60881600Y-61063400D03*
X38756100Y-50953800D03*
X55688800Y-50798800D03*
X60750900Y-50782400D03*
X73591000Y-34538900D03*
X81188600Y-45720000D03*
X70465100Y-76302100D03*
X83447000Y-53506200D03*
X80005000Y-35489300D03*
X43180000Y-38100000D03*
X66525200Y-33863200D03*
X48260000Y-38100000D03*
X54477300Y-33444500D03*
X53340000Y-38100000D03*
X65826400Y-45708300D03*
X58420000Y-38100000D03*
X71115900Y-40764500D03*
X63500000Y-38100000D03*
X70783200Y-34484300D03*
X68580000Y-38100000D03*
X70565800Y-35485400D03*
X73660000Y-38100000D03*
X69525700Y-35481400D03*
X78544800Y-38295200D03*
X65625800Y-35498700D03*
X43180000Y-43180000D03*
X67388000Y-34588500D03*
X48260000Y-43180000D03*
X69311200Y-33422400D03*
X53340000Y-43180000D03*
X63266900Y-35498600D03*
X58420000Y-43180000D03*
X63796700Y-33441900D03*
X63500000Y-43180000D03*
X61517600Y-35480100D03*
X62720500Y-33637400D03*
X73660000Y-43180000D03*
X64806200Y-33082500D03*
X78740000Y-43180000D03*
X45920200Y-50774300D03*
X43180000Y-48260000D03*
X51019000Y-45725700D03*
X48260000Y-48260000D03*
X39240900Y-47501600D03*
X53340000Y-48260000D03*
X39268000Y-46368200D03*
X58420000Y-48260000D03*
X45812200Y-45627800D03*
X63500000Y-48260000D03*
X39275200Y-43526800D03*
X68580000Y-48260000D03*
X37486800Y-42501200D03*
X73660000Y-48260000D03*
X51347300Y-33562400D03*
X78740000Y-48260000D03*
X51857100Y-34467400D03*
X43180000Y-53340000D03*
X50866200Y-50662700D03*
X48260000Y-53340000D03*
X52876900Y-35499300D03*
X53340000Y-53340000D03*
X50600000Y-35279600D03*
X58420000Y-53340000D03*
X55519900Y-35490700D03*
X63500000Y-53340000D03*
X56520300Y-35497800D03*
X68580000Y-53340000D03*
X57692400Y-35473500D03*
X73660000Y-53340000D03*
X77734600Y-35366300D03*
X78740000Y-53340000D03*
X40773900Y-61050200D03*
X43180000Y-58420000D03*
X40536100Y-63348000D03*
X48260000Y-58420000D03*
X39307500Y-64088400D03*
X53340000Y-58420000D03*
X58420000Y-58420000D03*
X76114400Y-60874400D03*
X63500000Y-58420000D03*
X68580000Y-58420000D03*
X50892090Y-66141410D03*
X54681900Y-76288100D03*
X73660000Y-58420000D03*
X40006000Y-64813800D03*
X78740000Y-58420000D03*
X40552600Y-65710600D03*
X43180000Y-63500000D03*
X45783800Y-66178500D03*
X48260000Y-63500000D03*
X50166100Y-76291300D03*
X53340000Y-63500000D03*
X53681500Y-76288500D03*
X58420000Y-63500000D03*
X55682300Y-76314700D03*
X64031376Y-64006476D03*
X56682700Y-76291200D03*
X68580000Y-63500000D03*
X57683100Y-76265800D03*
X73660000Y-63500000D03*
X59526400Y-76271900D03*
X78740000Y-63500000D03*
X83882200Y-63376000D03*
X43180000Y-68580000D03*
X65840200Y-66040000D03*
X48260000Y-68580000D03*
X83861900Y-69463600D03*
X53340000Y-68580000D03*
X84274200Y-68293400D03*
X58420000Y-68580000D03*
X81714600Y-71863500D03*
X63500000Y-68580000D03*
X81350900Y-65700500D03*
X68580000Y-68580000D03*
X75988800Y-66040000D03*
X73660000Y-68580000D03*
X81344500Y-67239700D03*
X78740000Y-68580000D03*
X69289300Y-76471300D03*
X43180000Y-73660000D03*
X65952200Y-76058500D03*
X48260000Y-73660000D03*
X69093400Y-77582800D03*
X53340000Y-73660000D03*
X63792100Y-78586000D03*
X58420000Y-73660000D03*
X64811000Y-76276200D03*
X63500000Y-73660000D03*
X66979900Y-76720500D03*
X68580000Y-73660000D03*
X62703600Y-77622800D03*
X73660000Y-73660000D03*
X61977100Y-78947900D03*
X78740000Y-73660000D03*
X81347800Y-69937500D03*
X76200000Y-45508000D03*
D12*
X60881600Y-61063400D02*
X51460900Y-61063400D01*
X51460900Y-61063400D02*
X50903400Y-60505900D01*
X50903400Y-60505900D02*
X50903400Y-56603300D01*
X50903400Y-56603300D02*
X50394800Y-56094700D01*
X50394800Y-56094700D02*
X41413600Y-56094700D01*
X41413600Y-56094700D02*
X38756100Y-53437200D01*
X38756100Y-53437200D02*
X38756100Y-50953800D01*
X48260000Y-38100000D02*
X48260000Y-35611400D01*
X48260000Y-35611400D02*
X51038000Y-32833400D01*
X51038000Y-32833400D02*
X52840500Y-32833400D01*
X52840500Y-32833400D02*
X54409100Y-34402000D01*
X54409100Y-34402000D02*
X65986400Y-34402000D01*
X65986400Y-34402000D02*
X66525200Y-33863200D01*
X78544800Y-38295200D02*
X73994500Y-33744900D01*
X73994500Y-33744900D02*
X70453200Y-33744900D01*
X70453200Y-33744900D02*
X69525700Y-34672400D01*
X69525700Y-34672400D02*
X69525700Y-35481400D01*
X78544800Y-38295200D02*
X78740000Y-38100000D01*
X68580000Y-43180000D02*
X66254700Y-43180000D01*
X61517600Y-35480100D02*
X61167200Y-35830500D01*
X61167200Y-35830500D02*
X61167200Y-40272800D01*
X61167200Y-40272800D02*
X61749100Y-40854700D01*
X61749100Y-40854700D02*
X65673400Y-40854700D01*
X65673400Y-40854700D02*
X66254700Y-41436000D01*
X66254700Y-41436000D02*
X66254700Y-43180000D01*
X50585300Y-68580000D02*
X50585300Y-70324000D01*
X50585300Y-70324000D02*
X51166700Y-70905400D01*
X51166700Y-70905400D02*
X60620500Y-70905400D01*
X60620500Y-70905400D02*
X61174700Y-70351200D01*
X61174700Y-70351200D02*
X61174700Y-66445200D01*
X61174700Y-66445200D02*
X61579900Y-66040000D01*
X61579900Y-66040000D02*
X65840200Y-66040000D01*
X48260000Y-68580000D02*
X50585300Y-68580000D01*
X63500000Y-68580000D02*
X65825300Y-68580000D01*
X65825300Y-68580000D02*
X65825300Y-70324000D01*
X65825300Y-70324000D02*
X66406600Y-70905300D01*
X66406600Y-70905300D02*
X80756400Y-70905300D01*
X80756400Y-70905300D02*
X81714600Y-71863500D01*
X60745300Y-73660000D02*
X60745300Y-76690200D01*
X60745300Y-76690200D02*
X62641100Y-78586000D01*
X62641100Y-78586000D02*
X63792100Y-78586000D01*
X58420000Y-73660000D02*
X60745300Y-73660000D01*
X63500000Y-75985300D02*
X64520100Y-75985300D01*
X64520100Y-75985300D02*
X64811000Y-76276200D01*
X63500000Y-73660000D02*
X63500000Y-75985300D01*
M02*
