G04 #@! TF.GenerationSoftware,KiCad,Pcbnew,(5.1.5)-3*
G04 #@! TF.CreationDate,2020-02-10T18:10:01+01:00*
G04 #@! TF.ProjectId,Mars-64,4d617273-2d36-4342-9e6b-696361645f70,A*
G04 #@! TF.SameCoordinates,Original*
G04 #@! TF.FileFunction,Soldermask,Bot*
G04 #@! TF.FilePolarity,Negative*
%FSLAX46Y46*%
G04 Gerber Fmt 4.6, Leading zero omitted, Abs format (unit mm)*
G04 Created by KiCad (PCBNEW (5.1.5)-3) date 2020-02-10 18:10:01*
%MOMM*%
%LPD*%
G04 APERTURE LIST*
%ADD10C,0.100000*%
G04 APERTURE END LIST*
D10*
G36*
X84044549Y-77611116D02*
G01*
X84155734Y-77633232D01*
X84365203Y-77719997D01*
X84553720Y-77845960D01*
X84714040Y-78006280D01*
X84840003Y-78194797D01*
X84926768Y-78404266D01*
X84971000Y-78626636D01*
X84971000Y-78853364D01*
X84926768Y-79075734D01*
X84840003Y-79285203D01*
X84714040Y-79473720D01*
X84553720Y-79634040D01*
X84365203Y-79760003D01*
X84155734Y-79846768D01*
X84044549Y-79868884D01*
X83933365Y-79891000D01*
X83706635Y-79891000D01*
X83595451Y-79868884D01*
X83484266Y-79846768D01*
X83274797Y-79760003D01*
X83086280Y-79634040D01*
X82925960Y-79473720D01*
X82799997Y-79285203D01*
X82713232Y-79075734D01*
X82669000Y-78853364D01*
X82669000Y-78626636D01*
X82713232Y-78404266D01*
X82799997Y-78194797D01*
X82925960Y-78006280D01*
X83086280Y-77845960D01*
X83274797Y-77719997D01*
X83484266Y-77633232D01*
X83595451Y-77611116D01*
X83706635Y-77589000D01*
X83933365Y-77589000D01*
X84044549Y-77611116D01*
G37*
G36*
X38324549Y-77611116D02*
G01*
X38435734Y-77633232D01*
X38645203Y-77719997D01*
X38833720Y-77845960D01*
X38994040Y-78006280D01*
X39120003Y-78194797D01*
X39206768Y-78404266D01*
X39251000Y-78626636D01*
X39251000Y-78853364D01*
X39206768Y-79075734D01*
X39120003Y-79285203D01*
X38994040Y-79473720D01*
X38833720Y-79634040D01*
X38645203Y-79760003D01*
X38435734Y-79846768D01*
X38324549Y-79868884D01*
X38213365Y-79891000D01*
X37986635Y-79891000D01*
X37875451Y-79868884D01*
X37764266Y-79846768D01*
X37554797Y-79760003D01*
X37366280Y-79634040D01*
X37205960Y-79473720D01*
X37079997Y-79285203D01*
X36993232Y-79075734D01*
X36949000Y-78853364D01*
X36949000Y-78626636D01*
X36993232Y-78404266D01*
X37079997Y-78194797D01*
X37205960Y-78006280D01*
X37366280Y-77845960D01*
X37554797Y-77719997D01*
X37764266Y-77633232D01*
X37875451Y-77611116D01*
X37986635Y-77589000D01*
X38213365Y-77589000D01*
X38324549Y-77611116D01*
G37*
G36*
X74564999Y-72274737D02*
G01*
X74574608Y-72277652D01*
X74578422Y-72279691D01*
X74583471Y-72282390D01*
X74594461Y-72292303D01*
X74597605Y-72296097D01*
X74600713Y-72298901D01*
X74734644Y-72460542D01*
X74742508Y-72469178D01*
X74869988Y-72596658D01*
X74879908Y-72605571D01*
X75020359Y-72718838D01*
X75030921Y-72726483D01*
X75187459Y-72827772D01*
X75195729Y-72832682D01*
X75356007Y-72919690D01*
X75368680Y-72925675D01*
X75535441Y-72993281D01*
X75548472Y-72997745D01*
X75727470Y-73048232D01*
X75736888Y-73050499D01*
X75919700Y-73087061D01*
X75934627Y-73089120D01*
X76112204Y-73102780D01*
X76121791Y-73103148D01*
X76278209Y-73103148D01*
X76287796Y-73102780D01*
X76465373Y-73089120D01*
X76480300Y-73087061D01*
X76663112Y-73050499D01*
X76672530Y-73048232D01*
X76851528Y-72997745D01*
X76864559Y-72993281D01*
X77031320Y-72925675D01*
X77043993Y-72919690D01*
X77204271Y-72832682D01*
X77212541Y-72827772D01*
X77369079Y-72726483D01*
X77379641Y-72718838D01*
X77520092Y-72605571D01*
X77530012Y-72596658D01*
X77657492Y-72469178D01*
X77665356Y-72460542D01*
X77801159Y-72296642D01*
X77812674Y-72285234D01*
X77821055Y-72279691D01*
X77827616Y-72277009D01*
X77827617Y-72277009D01*
X77830354Y-72275890D01*
X77845000Y-72273753D01*
X77849929Y-72273753D01*
X77854075Y-72273148D01*
X79748860Y-72273148D01*
X79764999Y-72274737D01*
X79774608Y-72277652D01*
X79783472Y-72282390D01*
X79791237Y-72288763D01*
X79797610Y-72296528D01*
X79802348Y-72305392D01*
X79805263Y-72315001D01*
X79806852Y-72331140D01*
X79806852Y-74668860D01*
X79805263Y-74684999D01*
X79802348Y-74694608D01*
X79797610Y-74703472D01*
X79791237Y-74711237D01*
X79783472Y-74717610D01*
X79774608Y-74722348D01*
X79764999Y-74725263D01*
X79748860Y-74726852D01*
X72651140Y-74726852D01*
X72635001Y-74725263D01*
X72625392Y-74722348D01*
X72616528Y-74717610D01*
X72608763Y-74711237D01*
X72602390Y-74703472D01*
X72597652Y-74694608D01*
X72594737Y-74684999D01*
X72593148Y-74668860D01*
X72593148Y-72331140D01*
X72594737Y-72315001D01*
X72597652Y-72305392D01*
X72602390Y-72296528D01*
X72608763Y-72288763D01*
X72616528Y-72282390D01*
X72625392Y-72277652D01*
X72635001Y-72274737D01*
X72651140Y-72273148D01*
X74548860Y-72273148D01*
X74564999Y-72274737D01*
G37*
G36*
X55840295Y-71955323D02*
G01*
X55847309Y-71957451D01*
X55861077Y-71964810D01*
X55883716Y-71974187D01*
X55907749Y-71978967D01*
X55932253Y-71978967D01*
X55956286Y-71974186D01*
X55978923Y-71964810D01*
X55992691Y-71957451D01*
X55999705Y-71955323D01*
X56013140Y-71954000D01*
X56326860Y-71954000D01*
X56340295Y-71955323D01*
X56347309Y-71957451D01*
X56361077Y-71964810D01*
X56383716Y-71974187D01*
X56407749Y-71978967D01*
X56432253Y-71978967D01*
X56456286Y-71974186D01*
X56478923Y-71964810D01*
X56492691Y-71957451D01*
X56499705Y-71955323D01*
X56513140Y-71954000D01*
X56826860Y-71954000D01*
X56840295Y-71955323D01*
X56847309Y-71957451D01*
X56861077Y-71964810D01*
X56883716Y-71974187D01*
X56907749Y-71978967D01*
X56932253Y-71978967D01*
X56956286Y-71974186D01*
X56978923Y-71964810D01*
X56992691Y-71957451D01*
X56999705Y-71955323D01*
X57013140Y-71954000D01*
X57326860Y-71954000D01*
X57340295Y-71955323D01*
X57347309Y-71957451D01*
X57361077Y-71964810D01*
X57383716Y-71974187D01*
X57407749Y-71978967D01*
X57432253Y-71978967D01*
X57456286Y-71974186D01*
X57478923Y-71964810D01*
X57492691Y-71957451D01*
X57499705Y-71955323D01*
X57513140Y-71954000D01*
X57826860Y-71954000D01*
X57840295Y-71955323D01*
X57847309Y-71957451D01*
X57861077Y-71964810D01*
X57883716Y-71974187D01*
X57907749Y-71978967D01*
X57932253Y-71978967D01*
X57956286Y-71974186D01*
X57978923Y-71964810D01*
X57992691Y-71957451D01*
X57999705Y-71955323D01*
X58013140Y-71954000D01*
X58326860Y-71954000D01*
X58340295Y-71955323D01*
X58347309Y-71957451D01*
X58361077Y-71964810D01*
X58383716Y-71974187D01*
X58407749Y-71978967D01*
X58432253Y-71978967D01*
X58456286Y-71974186D01*
X58478923Y-71964810D01*
X58492691Y-71957451D01*
X58499705Y-71955323D01*
X58513140Y-71954000D01*
X58826860Y-71954000D01*
X58840295Y-71955323D01*
X58847309Y-71957451D01*
X58861077Y-71964810D01*
X58883716Y-71974187D01*
X58907749Y-71978967D01*
X58932253Y-71978967D01*
X58956286Y-71974186D01*
X58978923Y-71964810D01*
X58992691Y-71957451D01*
X58999705Y-71955323D01*
X59013140Y-71954000D01*
X59326860Y-71954000D01*
X59340295Y-71955323D01*
X59347309Y-71957451D01*
X59361077Y-71964810D01*
X59383716Y-71974187D01*
X59407749Y-71978967D01*
X59432253Y-71978967D01*
X59456286Y-71974186D01*
X59478923Y-71964810D01*
X59492691Y-71957451D01*
X59499705Y-71955323D01*
X59513140Y-71954000D01*
X59826860Y-71954000D01*
X59840295Y-71955323D01*
X59847309Y-71957451D01*
X59861077Y-71964810D01*
X59883716Y-71974187D01*
X59907749Y-71978967D01*
X59932253Y-71978967D01*
X59956286Y-71974186D01*
X59978923Y-71964810D01*
X59992691Y-71957451D01*
X59999705Y-71955323D01*
X60013140Y-71954000D01*
X60326860Y-71954000D01*
X60340295Y-71955323D01*
X60347309Y-71957451D01*
X60361077Y-71964810D01*
X60383716Y-71974187D01*
X60407749Y-71978967D01*
X60432253Y-71978967D01*
X60456286Y-71974186D01*
X60478923Y-71964810D01*
X60492691Y-71957451D01*
X60499705Y-71955323D01*
X60513140Y-71954000D01*
X60826860Y-71954000D01*
X60840295Y-71955323D01*
X60847309Y-71957451D01*
X60861077Y-71964810D01*
X60883716Y-71974187D01*
X60907749Y-71978967D01*
X60932253Y-71978967D01*
X60956286Y-71974186D01*
X60978923Y-71964810D01*
X60992691Y-71957451D01*
X60999705Y-71955323D01*
X61013140Y-71954000D01*
X61326860Y-71954000D01*
X61340295Y-71955323D01*
X61347310Y-71957451D01*
X61353776Y-71960908D01*
X61359442Y-71965558D01*
X61364092Y-71971224D01*
X61367549Y-71977690D01*
X61369677Y-71984705D01*
X61371000Y-71998140D01*
X61371000Y-73486860D01*
X61369677Y-73500295D01*
X61367549Y-73507310D01*
X61364092Y-73513776D01*
X61359442Y-73519442D01*
X61353776Y-73524092D01*
X61347310Y-73527549D01*
X61340295Y-73529677D01*
X61326860Y-73531000D01*
X61013140Y-73531000D01*
X60999705Y-73529677D01*
X60992691Y-73527549D01*
X60978923Y-73520190D01*
X60956284Y-73510813D01*
X60932251Y-73506033D01*
X60907747Y-73506033D01*
X60883714Y-73510814D01*
X60861077Y-73520190D01*
X60847309Y-73527549D01*
X60840295Y-73529677D01*
X60826860Y-73531000D01*
X60513140Y-73531000D01*
X60499705Y-73529677D01*
X60492691Y-73527549D01*
X60478923Y-73520190D01*
X60456284Y-73510813D01*
X60432251Y-73506033D01*
X60407747Y-73506033D01*
X60383714Y-73510814D01*
X60361077Y-73520190D01*
X60347309Y-73527549D01*
X60340295Y-73529677D01*
X60326860Y-73531000D01*
X60013140Y-73531000D01*
X59999705Y-73529677D01*
X59992691Y-73527549D01*
X59978923Y-73520190D01*
X59956284Y-73510813D01*
X59932251Y-73506033D01*
X59907747Y-73506033D01*
X59883714Y-73510814D01*
X59861077Y-73520190D01*
X59847309Y-73527549D01*
X59840295Y-73529677D01*
X59826860Y-73531000D01*
X59513140Y-73531000D01*
X59499705Y-73529677D01*
X59492691Y-73527549D01*
X59478923Y-73520190D01*
X59456284Y-73510813D01*
X59432251Y-73506033D01*
X59407747Y-73506033D01*
X59383714Y-73510814D01*
X59361077Y-73520190D01*
X59347309Y-73527549D01*
X59340295Y-73529677D01*
X59326860Y-73531000D01*
X59013140Y-73531000D01*
X58999705Y-73529677D01*
X58992691Y-73527549D01*
X58978923Y-73520190D01*
X58956284Y-73510813D01*
X58932251Y-73506033D01*
X58907747Y-73506033D01*
X58883714Y-73510814D01*
X58861077Y-73520190D01*
X58847309Y-73527549D01*
X58840295Y-73529677D01*
X58826860Y-73531000D01*
X58513140Y-73531000D01*
X58499705Y-73529677D01*
X58492691Y-73527549D01*
X58478923Y-73520190D01*
X58456284Y-73510813D01*
X58432251Y-73506033D01*
X58407747Y-73506033D01*
X58383714Y-73510814D01*
X58361077Y-73520190D01*
X58347309Y-73527549D01*
X58340295Y-73529677D01*
X58326860Y-73531000D01*
X58013140Y-73531000D01*
X57999705Y-73529677D01*
X57992691Y-73527549D01*
X57978923Y-73520190D01*
X57956284Y-73510813D01*
X57932251Y-73506033D01*
X57907747Y-73506033D01*
X57883714Y-73510814D01*
X57861077Y-73520190D01*
X57847309Y-73527549D01*
X57840295Y-73529677D01*
X57826860Y-73531000D01*
X57513140Y-73531000D01*
X57499705Y-73529677D01*
X57492691Y-73527549D01*
X57478923Y-73520190D01*
X57456284Y-73510813D01*
X57432251Y-73506033D01*
X57407747Y-73506033D01*
X57383714Y-73510814D01*
X57361077Y-73520190D01*
X57347309Y-73527549D01*
X57340295Y-73529677D01*
X57326860Y-73531000D01*
X57013140Y-73531000D01*
X56999705Y-73529677D01*
X56992691Y-73527549D01*
X56978923Y-73520190D01*
X56956284Y-73510813D01*
X56932251Y-73506033D01*
X56907747Y-73506033D01*
X56883714Y-73510814D01*
X56861077Y-73520190D01*
X56847309Y-73527549D01*
X56840295Y-73529677D01*
X56826860Y-73531000D01*
X56513140Y-73531000D01*
X56499705Y-73529677D01*
X56492691Y-73527549D01*
X56478923Y-73520190D01*
X56456284Y-73510813D01*
X56432251Y-73506033D01*
X56407747Y-73506033D01*
X56383714Y-73510814D01*
X56361077Y-73520190D01*
X56347309Y-73527549D01*
X56340295Y-73529677D01*
X56326860Y-73531000D01*
X56013140Y-73531000D01*
X55999705Y-73529677D01*
X55992691Y-73527549D01*
X55978923Y-73520190D01*
X55956284Y-73510813D01*
X55932251Y-73506033D01*
X55907747Y-73506033D01*
X55883714Y-73510814D01*
X55861077Y-73520190D01*
X55847309Y-73527549D01*
X55840295Y-73529677D01*
X55826860Y-73531000D01*
X55513140Y-73531000D01*
X55499705Y-73529677D01*
X55492690Y-73527549D01*
X55486224Y-73524092D01*
X55480558Y-73519442D01*
X55475908Y-73513776D01*
X55472451Y-73507310D01*
X55470323Y-73500295D01*
X55469000Y-73486860D01*
X55469000Y-71998140D01*
X55470323Y-71984705D01*
X55472451Y-71977690D01*
X55475908Y-71971224D01*
X55480558Y-71965558D01*
X55486224Y-71960908D01*
X55492690Y-71957451D01*
X55499705Y-71955323D01*
X55513140Y-71954000D01*
X55826860Y-71954000D01*
X55840295Y-71955323D01*
G37*
G36*
X76378703Y-70221601D02*
G01*
X76467187Y-70239201D01*
X76633889Y-70308251D01*
X76783916Y-70408496D01*
X76911504Y-70536084D01*
X77011749Y-70686111D01*
X77029721Y-70729500D01*
X77080799Y-70852814D01*
X77114269Y-71021077D01*
X77116000Y-71029782D01*
X77116000Y-71210218D01*
X77080799Y-71387187D01*
X77011749Y-71553889D01*
X76911504Y-71703916D01*
X76783916Y-71831504D01*
X76633889Y-71931749D01*
X76467187Y-72000799D01*
X76378703Y-72018399D01*
X76290219Y-72036000D01*
X76109781Y-72036000D01*
X76021297Y-72018399D01*
X75932813Y-72000799D01*
X75766111Y-71931749D01*
X75616084Y-71831504D01*
X75488496Y-71703916D01*
X75388251Y-71553889D01*
X75319201Y-71387187D01*
X75284000Y-71210218D01*
X75284000Y-71029782D01*
X75285732Y-71021077D01*
X75319201Y-70852814D01*
X75370279Y-70729500D01*
X75388251Y-70686111D01*
X75488496Y-70536084D01*
X75616084Y-70408496D01*
X75766111Y-70308251D01*
X75932813Y-70239201D01*
X76021297Y-70221601D01*
X76109781Y-70204000D01*
X76290219Y-70204000D01*
X76378703Y-70221601D01*
G37*
G36*
X55015295Y-65630323D02*
G01*
X55022310Y-65632451D01*
X55028776Y-65635908D01*
X55034442Y-65640558D01*
X55039092Y-65646224D01*
X55042549Y-65652690D01*
X55044677Y-65659705D01*
X55046000Y-65673140D01*
X55046000Y-65986860D01*
X55044677Y-66000295D01*
X55042549Y-66007309D01*
X55035190Y-66021077D01*
X55025813Y-66043716D01*
X55021033Y-66067749D01*
X55021033Y-66092253D01*
X55025814Y-66116286D01*
X55035190Y-66138923D01*
X55042549Y-66152691D01*
X55044677Y-66159705D01*
X55046000Y-66173140D01*
X55046000Y-66486860D01*
X55044677Y-66500295D01*
X55042549Y-66507309D01*
X55035190Y-66521077D01*
X55025813Y-66543716D01*
X55021033Y-66567749D01*
X55021033Y-66592253D01*
X55025814Y-66616286D01*
X55035190Y-66638923D01*
X55042549Y-66652691D01*
X55044677Y-66659705D01*
X55046000Y-66673140D01*
X55046000Y-66986860D01*
X55044677Y-67000295D01*
X55042549Y-67007309D01*
X55035190Y-67021077D01*
X55025813Y-67043716D01*
X55021033Y-67067749D01*
X55021033Y-67092253D01*
X55025814Y-67116286D01*
X55035190Y-67138923D01*
X55042549Y-67152691D01*
X55044677Y-67159705D01*
X55046000Y-67173140D01*
X55046000Y-67486860D01*
X55044677Y-67500295D01*
X55042549Y-67507309D01*
X55035190Y-67521077D01*
X55025813Y-67543716D01*
X55021033Y-67567749D01*
X55021033Y-67592253D01*
X55025814Y-67616286D01*
X55035190Y-67638923D01*
X55042549Y-67652691D01*
X55044677Y-67659705D01*
X55046000Y-67673140D01*
X55046000Y-67986860D01*
X55044677Y-68000295D01*
X55042549Y-68007309D01*
X55035190Y-68021077D01*
X55025813Y-68043716D01*
X55021033Y-68067749D01*
X55021033Y-68092253D01*
X55025814Y-68116286D01*
X55035190Y-68138923D01*
X55042549Y-68152691D01*
X55044677Y-68159705D01*
X55046000Y-68173140D01*
X55046000Y-68486860D01*
X55044677Y-68500295D01*
X55042549Y-68507309D01*
X55035190Y-68521077D01*
X55025813Y-68543716D01*
X55021033Y-68567749D01*
X55021033Y-68592253D01*
X55025814Y-68616286D01*
X55035190Y-68638923D01*
X55042549Y-68652691D01*
X55044677Y-68659705D01*
X55046000Y-68673140D01*
X55046000Y-68986860D01*
X55044677Y-69000295D01*
X55042549Y-69007309D01*
X55035190Y-69021077D01*
X55025813Y-69043716D01*
X55021033Y-69067749D01*
X55021033Y-69092253D01*
X55025814Y-69116286D01*
X55035190Y-69138923D01*
X55042549Y-69152691D01*
X55044677Y-69159705D01*
X55046000Y-69173140D01*
X55046000Y-69486860D01*
X55044677Y-69500295D01*
X55042549Y-69507309D01*
X55035190Y-69521077D01*
X55025813Y-69543716D01*
X55021033Y-69567749D01*
X55021033Y-69592253D01*
X55025814Y-69616286D01*
X55035190Y-69638923D01*
X55042549Y-69652691D01*
X55044677Y-69659705D01*
X55046000Y-69673140D01*
X55046000Y-69986860D01*
X55044677Y-70000295D01*
X55042549Y-70007309D01*
X55035190Y-70021077D01*
X55025813Y-70043716D01*
X55021033Y-70067749D01*
X55021033Y-70092253D01*
X55025814Y-70116286D01*
X55035190Y-70138923D01*
X55042549Y-70152691D01*
X55044677Y-70159705D01*
X55046000Y-70173140D01*
X55046000Y-70486860D01*
X55044677Y-70500295D01*
X55042549Y-70507309D01*
X55035190Y-70521077D01*
X55025813Y-70543716D01*
X55021033Y-70567749D01*
X55021033Y-70592253D01*
X55025814Y-70616286D01*
X55035190Y-70638923D01*
X55042549Y-70652691D01*
X55044677Y-70659705D01*
X55046000Y-70673140D01*
X55046000Y-70986860D01*
X55044677Y-71000295D01*
X55042549Y-71007309D01*
X55035190Y-71021077D01*
X55025813Y-71043716D01*
X55021033Y-71067749D01*
X55021033Y-71092253D01*
X55025814Y-71116286D01*
X55035190Y-71138923D01*
X55042549Y-71152691D01*
X55044677Y-71159705D01*
X55046000Y-71173140D01*
X55046000Y-71486860D01*
X55044677Y-71500295D01*
X55042549Y-71507310D01*
X55039092Y-71513776D01*
X55034442Y-71519442D01*
X55028776Y-71524092D01*
X55022310Y-71527549D01*
X55015295Y-71529677D01*
X55001860Y-71531000D01*
X53513140Y-71531000D01*
X53499705Y-71529677D01*
X53492690Y-71527549D01*
X53486224Y-71524092D01*
X53480558Y-71519442D01*
X53475908Y-71513776D01*
X53472451Y-71507310D01*
X53470323Y-71500295D01*
X53469000Y-71486860D01*
X53469000Y-71173140D01*
X53470323Y-71159705D01*
X53472451Y-71152691D01*
X53479810Y-71138923D01*
X53489187Y-71116284D01*
X53493967Y-71092251D01*
X53493967Y-71067747D01*
X53489186Y-71043714D01*
X53479810Y-71021077D01*
X53472451Y-71007309D01*
X53470323Y-71000295D01*
X53469000Y-70986860D01*
X53469000Y-70673140D01*
X53470323Y-70659705D01*
X53472451Y-70652691D01*
X53479810Y-70638923D01*
X53489187Y-70616284D01*
X53493967Y-70592251D01*
X53493967Y-70567747D01*
X53489186Y-70543714D01*
X53479810Y-70521077D01*
X53472451Y-70507309D01*
X53470323Y-70500295D01*
X53469000Y-70486860D01*
X53469000Y-70173140D01*
X53470323Y-70159705D01*
X53472451Y-70152691D01*
X53479810Y-70138923D01*
X53489187Y-70116284D01*
X53493967Y-70092251D01*
X53493967Y-70067747D01*
X53489186Y-70043714D01*
X53479810Y-70021077D01*
X53472451Y-70007309D01*
X53470323Y-70000295D01*
X53469000Y-69986860D01*
X53469000Y-69673140D01*
X53470323Y-69659705D01*
X53472451Y-69652691D01*
X53479810Y-69638923D01*
X53489187Y-69616284D01*
X53493967Y-69592251D01*
X53493967Y-69567747D01*
X53489186Y-69543714D01*
X53479810Y-69521077D01*
X53472451Y-69507309D01*
X53470323Y-69500295D01*
X53469000Y-69486860D01*
X53469000Y-69173140D01*
X53470323Y-69159705D01*
X53472451Y-69152691D01*
X53479810Y-69138923D01*
X53489187Y-69116284D01*
X53493967Y-69092251D01*
X53493967Y-69067747D01*
X53489186Y-69043714D01*
X53479810Y-69021077D01*
X53472451Y-69007309D01*
X53470323Y-69000295D01*
X53469000Y-68986860D01*
X53469000Y-68673140D01*
X53470323Y-68659705D01*
X53472451Y-68652691D01*
X53479810Y-68638923D01*
X53489187Y-68616284D01*
X53493967Y-68592251D01*
X53493967Y-68567747D01*
X53489186Y-68543714D01*
X53479810Y-68521077D01*
X53472451Y-68507309D01*
X53470323Y-68500295D01*
X53469000Y-68486860D01*
X53469000Y-68173140D01*
X53470323Y-68159705D01*
X53472451Y-68152691D01*
X53479810Y-68138923D01*
X53489187Y-68116284D01*
X53493967Y-68092251D01*
X53493967Y-68067747D01*
X53489186Y-68043714D01*
X53479810Y-68021077D01*
X53472451Y-68007309D01*
X53470323Y-68000295D01*
X53469000Y-67986860D01*
X53469000Y-67673140D01*
X53470323Y-67659705D01*
X53472451Y-67652691D01*
X53479810Y-67638923D01*
X53489187Y-67616284D01*
X53493967Y-67592251D01*
X53493967Y-67567747D01*
X53489186Y-67543714D01*
X53479810Y-67521077D01*
X53472451Y-67507309D01*
X53470323Y-67500295D01*
X53469000Y-67486860D01*
X53469000Y-67173140D01*
X53470323Y-67159705D01*
X53472451Y-67152691D01*
X53479810Y-67138923D01*
X53489187Y-67116284D01*
X53493967Y-67092251D01*
X53493967Y-67067747D01*
X53489186Y-67043714D01*
X53479810Y-67021077D01*
X53472451Y-67007309D01*
X53470323Y-67000295D01*
X53469000Y-66986860D01*
X53469000Y-66673140D01*
X53470323Y-66659705D01*
X53472451Y-66652691D01*
X53479810Y-66638923D01*
X53489187Y-66616284D01*
X53493967Y-66592251D01*
X53493967Y-66567747D01*
X53489186Y-66543714D01*
X53479810Y-66521077D01*
X53472451Y-66507309D01*
X53470323Y-66500295D01*
X53469000Y-66486860D01*
X53469000Y-66173140D01*
X53470323Y-66159705D01*
X53472451Y-66152691D01*
X53479810Y-66138923D01*
X53489187Y-66116284D01*
X53493967Y-66092251D01*
X53493967Y-66067747D01*
X53489186Y-66043714D01*
X53479810Y-66021077D01*
X53472451Y-66007309D01*
X53470323Y-66000295D01*
X53469000Y-65986860D01*
X53469000Y-65673140D01*
X53470323Y-65659705D01*
X53472451Y-65652690D01*
X53475908Y-65646224D01*
X53480558Y-65640558D01*
X53486224Y-65635908D01*
X53492690Y-65632451D01*
X53499705Y-65630323D01*
X53513140Y-65629000D01*
X55001860Y-65629000D01*
X55015295Y-65630323D01*
G37*
G36*
X63340295Y-65630323D02*
G01*
X63347310Y-65632451D01*
X63353776Y-65635908D01*
X63359442Y-65640558D01*
X63364092Y-65646224D01*
X63367549Y-65652690D01*
X63369677Y-65659705D01*
X63371000Y-65673140D01*
X63371000Y-65986860D01*
X63369677Y-66000295D01*
X63367549Y-66007309D01*
X63360190Y-66021077D01*
X63350813Y-66043716D01*
X63346033Y-66067749D01*
X63346033Y-66092253D01*
X63350814Y-66116286D01*
X63360190Y-66138923D01*
X63367549Y-66152691D01*
X63369677Y-66159705D01*
X63371000Y-66173140D01*
X63371000Y-66486860D01*
X63369677Y-66500295D01*
X63367549Y-66507309D01*
X63360190Y-66521077D01*
X63350813Y-66543716D01*
X63346033Y-66567749D01*
X63346033Y-66592253D01*
X63350814Y-66616286D01*
X63360190Y-66638923D01*
X63367549Y-66652691D01*
X63369677Y-66659705D01*
X63371000Y-66673140D01*
X63371000Y-66986860D01*
X63369677Y-67000295D01*
X63367549Y-67007309D01*
X63360190Y-67021077D01*
X63350813Y-67043716D01*
X63346033Y-67067749D01*
X63346033Y-67092253D01*
X63350814Y-67116286D01*
X63360190Y-67138923D01*
X63367549Y-67152691D01*
X63369677Y-67159705D01*
X63371000Y-67173140D01*
X63371000Y-67486860D01*
X63369677Y-67500295D01*
X63367549Y-67507309D01*
X63360190Y-67521077D01*
X63350813Y-67543716D01*
X63346033Y-67567749D01*
X63346033Y-67592253D01*
X63350814Y-67616286D01*
X63360190Y-67638923D01*
X63367549Y-67652691D01*
X63369677Y-67659705D01*
X63371000Y-67673140D01*
X63371000Y-67986860D01*
X63369677Y-68000295D01*
X63367549Y-68007309D01*
X63360190Y-68021077D01*
X63350813Y-68043716D01*
X63346033Y-68067749D01*
X63346033Y-68092253D01*
X63350814Y-68116286D01*
X63360190Y-68138923D01*
X63367549Y-68152691D01*
X63369677Y-68159705D01*
X63371000Y-68173140D01*
X63371000Y-68486860D01*
X63369677Y-68500295D01*
X63367549Y-68507309D01*
X63360190Y-68521077D01*
X63350813Y-68543716D01*
X63346033Y-68567749D01*
X63346033Y-68592253D01*
X63350814Y-68616286D01*
X63360190Y-68638923D01*
X63367549Y-68652691D01*
X63369677Y-68659705D01*
X63371000Y-68673140D01*
X63371000Y-68986860D01*
X63369677Y-69000295D01*
X63367549Y-69007309D01*
X63360190Y-69021077D01*
X63350813Y-69043716D01*
X63346033Y-69067749D01*
X63346033Y-69092253D01*
X63350814Y-69116286D01*
X63360190Y-69138923D01*
X63367549Y-69152691D01*
X63369677Y-69159705D01*
X63371000Y-69173140D01*
X63371000Y-69486860D01*
X63369677Y-69500295D01*
X63367549Y-69507309D01*
X63360190Y-69521077D01*
X63350813Y-69543716D01*
X63346033Y-69567749D01*
X63346033Y-69592253D01*
X63350814Y-69616286D01*
X63360190Y-69638923D01*
X63367549Y-69652691D01*
X63369677Y-69659705D01*
X63371000Y-69673140D01*
X63371000Y-69986860D01*
X63369677Y-70000295D01*
X63367549Y-70007309D01*
X63360190Y-70021077D01*
X63350813Y-70043716D01*
X63346033Y-70067749D01*
X63346033Y-70092253D01*
X63350814Y-70116286D01*
X63360190Y-70138923D01*
X63367549Y-70152691D01*
X63369677Y-70159705D01*
X63371000Y-70173140D01*
X63371000Y-70486860D01*
X63369677Y-70500295D01*
X63367549Y-70507309D01*
X63360190Y-70521077D01*
X63350813Y-70543716D01*
X63346033Y-70567749D01*
X63346033Y-70592253D01*
X63350814Y-70616286D01*
X63360190Y-70638923D01*
X63367549Y-70652691D01*
X63369677Y-70659705D01*
X63371000Y-70673140D01*
X63371000Y-70986860D01*
X63369677Y-71000295D01*
X63367549Y-71007309D01*
X63360190Y-71021077D01*
X63350813Y-71043716D01*
X63346033Y-71067749D01*
X63346033Y-71092253D01*
X63350814Y-71116286D01*
X63360190Y-71138923D01*
X63367549Y-71152691D01*
X63369677Y-71159705D01*
X63371000Y-71173140D01*
X63371000Y-71486860D01*
X63369677Y-71500295D01*
X63367549Y-71507310D01*
X63364092Y-71513776D01*
X63359442Y-71519442D01*
X63353776Y-71524092D01*
X63347310Y-71527549D01*
X63340295Y-71529677D01*
X63326860Y-71531000D01*
X61838140Y-71531000D01*
X61824705Y-71529677D01*
X61817690Y-71527549D01*
X61811224Y-71524092D01*
X61805558Y-71519442D01*
X61800908Y-71513776D01*
X61797451Y-71507310D01*
X61795323Y-71500295D01*
X61794000Y-71486860D01*
X61794000Y-71173140D01*
X61795323Y-71159705D01*
X61797451Y-71152691D01*
X61804810Y-71138923D01*
X61814187Y-71116284D01*
X61818967Y-71092251D01*
X61818967Y-71067747D01*
X61814186Y-71043714D01*
X61804810Y-71021077D01*
X61797451Y-71007309D01*
X61795323Y-71000295D01*
X61794000Y-70986860D01*
X61794000Y-70673140D01*
X61795323Y-70659705D01*
X61797451Y-70652691D01*
X61804810Y-70638923D01*
X61814187Y-70616284D01*
X61818967Y-70592251D01*
X61818967Y-70567747D01*
X61814186Y-70543714D01*
X61804810Y-70521077D01*
X61797451Y-70507309D01*
X61795323Y-70500295D01*
X61794000Y-70486860D01*
X61794000Y-70173140D01*
X61795323Y-70159705D01*
X61797451Y-70152691D01*
X61804810Y-70138923D01*
X61814187Y-70116284D01*
X61818967Y-70092251D01*
X61818967Y-70067747D01*
X61814186Y-70043714D01*
X61804810Y-70021077D01*
X61797451Y-70007309D01*
X61795323Y-70000295D01*
X61794000Y-69986860D01*
X61794000Y-69673140D01*
X61795323Y-69659705D01*
X61797451Y-69652691D01*
X61804810Y-69638923D01*
X61814187Y-69616284D01*
X61818967Y-69592251D01*
X61818967Y-69567747D01*
X61814186Y-69543714D01*
X61804810Y-69521077D01*
X61797451Y-69507309D01*
X61795323Y-69500295D01*
X61794000Y-69486860D01*
X61794000Y-69173140D01*
X61795323Y-69159705D01*
X61797451Y-69152691D01*
X61804810Y-69138923D01*
X61814187Y-69116284D01*
X61818967Y-69092251D01*
X61818967Y-69067747D01*
X61814186Y-69043714D01*
X61804810Y-69021077D01*
X61797451Y-69007309D01*
X61795323Y-69000295D01*
X61794000Y-68986860D01*
X61794000Y-68673140D01*
X61795323Y-68659705D01*
X61797451Y-68652691D01*
X61804810Y-68638923D01*
X61814187Y-68616284D01*
X61818967Y-68592251D01*
X61818967Y-68567747D01*
X61814186Y-68543714D01*
X61804810Y-68521077D01*
X61797451Y-68507309D01*
X61795323Y-68500295D01*
X61794000Y-68486860D01*
X61794000Y-68173140D01*
X61795323Y-68159705D01*
X61797451Y-68152691D01*
X61804810Y-68138923D01*
X61814187Y-68116284D01*
X61818967Y-68092251D01*
X61818967Y-68067747D01*
X61814186Y-68043714D01*
X61804810Y-68021077D01*
X61797451Y-68007309D01*
X61795323Y-68000295D01*
X61794000Y-67986860D01*
X61794000Y-67673140D01*
X61795323Y-67659705D01*
X61797451Y-67652691D01*
X61804810Y-67638923D01*
X61814187Y-67616284D01*
X61818967Y-67592251D01*
X61818967Y-67567747D01*
X61814186Y-67543714D01*
X61804810Y-67521077D01*
X61797451Y-67507309D01*
X61795323Y-67500295D01*
X61794000Y-67486860D01*
X61794000Y-67173140D01*
X61795323Y-67159705D01*
X61797451Y-67152691D01*
X61804810Y-67138923D01*
X61814187Y-67116284D01*
X61818967Y-67092251D01*
X61818967Y-67067747D01*
X61814186Y-67043714D01*
X61804810Y-67021077D01*
X61797451Y-67007309D01*
X61795323Y-67000295D01*
X61794000Y-66986860D01*
X61794000Y-66673140D01*
X61795323Y-66659705D01*
X61797451Y-66652691D01*
X61804810Y-66638923D01*
X61814187Y-66616284D01*
X61818967Y-66592251D01*
X61818967Y-66567747D01*
X61814186Y-66543714D01*
X61804810Y-66521077D01*
X61797451Y-66507309D01*
X61795323Y-66500295D01*
X61794000Y-66486860D01*
X61794000Y-66173140D01*
X61795323Y-66159705D01*
X61797451Y-66152691D01*
X61804810Y-66138923D01*
X61814187Y-66116284D01*
X61818967Y-66092251D01*
X61818967Y-66067747D01*
X61814186Y-66043714D01*
X61804810Y-66021077D01*
X61797451Y-66007309D01*
X61795323Y-66000295D01*
X61794000Y-65986860D01*
X61794000Y-65673140D01*
X61795323Y-65659705D01*
X61797451Y-65652690D01*
X61800908Y-65646224D01*
X61805558Y-65640558D01*
X61811224Y-65635908D01*
X61817690Y-65632451D01*
X61824705Y-65630323D01*
X61838140Y-65629000D01*
X63326860Y-65629000D01*
X63340295Y-65630323D01*
G37*
G36*
X60971000Y-71131000D02*
G01*
X55869000Y-71131000D01*
X55869000Y-66029000D01*
X60971000Y-66029000D01*
X60971000Y-71131000D01*
G37*
G36*
X79764999Y-67514737D02*
G01*
X79774608Y-67517652D01*
X79783472Y-67522390D01*
X79791237Y-67528763D01*
X79797610Y-67536528D01*
X79802348Y-67545392D01*
X79805263Y-67555001D01*
X79806852Y-67571140D01*
X79806852Y-69908860D01*
X79805263Y-69924999D01*
X79802348Y-69934608D01*
X79797610Y-69943472D01*
X79791237Y-69951237D01*
X79783472Y-69957610D01*
X79774608Y-69962348D01*
X79764999Y-69965263D01*
X79748860Y-69966852D01*
X77851140Y-69966852D01*
X77835001Y-69965263D01*
X77825392Y-69962348D01*
X77819135Y-69959003D01*
X77816529Y-69957610D01*
X77805539Y-69947697D01*
X77802395Y-69943903D01*
X77799287Y-69941099D01*
X77665356Y-69779458D01*
X77657492Y-69770822D01*
X77530012Y-69643342D01*
X77520092Y-69634429D01*
X77379641Y-69521162D01*
X77369079Y-69513517D01*
X77212541Y-69412228D01*
X77204271Y-69407318D01*
X77043993Y-69320310D01*
X77031320Y-69314325D01*
X76864559Y-69246719D01*
X76851528Y-69242255D01*
X76672530Y-69191768D01*
X76663112Y-69189501D01*
X76480300Y-69152939D01*
X76465373Y-69150880D01*
X76287796Y-69137220D01*
X76278209Y-69136852D01*
X76121791Y-69136852D01*
X76112204Y-69137220D01*
X75934627Y-69150880D01*
X75919700Y-69152939D01*
X75736888Y-69189501D01*
X75727470Y-69191768D01*
X75548472Y-69242255D01*
X75535441Y-69246719D01*
X75368680Y-69314325D01*
X75356007Y-69320310D01*
X75195729Y-69407318D01*
X75187459Y-69412228D01*
X75030921Y-69513517D01*
X75020359Y-69521162D01*
X74879908Y-69634429D01*
X74869988Y-69643342D01*
X74742508Y-69770822D01*
X74734644Y-69779458D01*
X74598841Y-69943358D01*
X74587326Y-69954766D01*
X74587324Y-69954767D01*
X74578945Y-69960309D01*
X74569646Y-69964110D01*
X74555000Y-69966247D01*
X74550071Y-69966247D01*
X74545925Y-69966852D01*
X72651140Y-69966852D01*
X72635001Y-69965263D01*
X72625392Y-69962348D01*
X72616528Y-69957610D01*
X72608763Y-69951237D01*
X72602390Y-69943472D01*
X72597652Y-69934608D01*
X72594737Y-69924999D01*
X72593148Y-69908860D01*
X72593148Y-67571140D01*
X72594737Y-67555001D01*
X72597652Y-67545392D01*
X72602390Y-67536528D01*
X72608763Y-67528763D01*
X72616528Y-67522390D01*
X72625392Y-67517652D01*
X72635001Y-67514737D01*
X72651140Y-67513148D01*
X79748860Y-67513148D01*
X79764999Y-67514737D01*
G37*
G36*
X55840295Y-63630323D02*
G01*
X55847309Y-63632451D01*
X55861077Y-63639810D01*
X55883716Y-63649187D01*
X55907749Y-63653967D01*
X55932253Y-63653967D01*
X55956286Y-63649186D01*
X55978923Y-63639810D01*
X55992691Y-63632451D01*
X55999705Y-63630323D01*
X56013140Y-63629000D01*
X56326860Y-63629000D01*
X56340295Y-63630323D01*
X56347309Y-63632451D01*
X56361077Y-63639810D01*
X56383716Y-63649187D01*
X56407749Y-63653967D01*
X56432253Y-63653967D01*
X56456286Y-63649186D01*
X56478923Y-63639810D01*
X56492691Y-63632451D01*
X56499705Y-63630323D01*
X56513140Y-63629000D01*
X56826860Y-63629000D01*
X56840295Y-63630323D01*
X56847309Y-63632451D01*
X56861077Y-63639810D01*
X56883716Y-63649187D01*
X56907749Y-63653967D01*
X56932253Y-63653967D01*
X56956286Y-63649186D01*
X56978923Y-63639810D01*
X56992691Y-63632451D01*
X56999705Y-63630323D01*
X57013140Y-63629000D01*
X57326860Y-63629000D01*
X57340295Y-63630323D01*
X57347309Y-63632451D01*
X57361077Y-63639810D01*
X57383716Y-63649187D01*
X57407749Y-63653967D01*
X57432253Y-63653967D01*
X57456286Y-63649186D01*
X57478923Y-63639810D01*
X57492691Y-63632451D01*
X57499705Y-63630323D01*
X57513140Y-63629000D01*
X57826860Y-63629000D01*
X57840295Y-63630323D01*
X57847309Y-63632451D01*
X57861077Y-63639810D01*
X57883716Y-63649187D01*
X57907749Y-63653967D01*
X57932253Y-63653967D01*
X57956286Y-63649186D01*
X57978923Y-63639810D01*
X57992691Y-63632451D01*
X57999705Y-63630323D01*
X58013140Y-63629000D01*
X58326860Y-63629000D01*
X58340295Y-63630323D01*
X58347309Y-63632451D01*
X58361077Y-63639810D01*
X58383716Y-63649187D01*
X58407749Y-63653967D01*
X58432253Y-63653967D01*
X58456286Y-63649186D01*
X58478923Y-63639810D01*
X58492691Y-63632451D01*
X58499705Y-63630323D01*
X58513140Y-63629000D01*
X58826860Y-63629000D01*
X58840295Y-63630323D01*
X58847309Y-63632451D01*
X58861077Y-63639810D01*
X58883716Y-63649187D01*
X58907749Y-63653967D01*
X58932253Y-63653967D01*
X58956286Y-63649186D01*
X58978923Y-63639810D01*
X58992691Y-63632451D01*
X58999705Y-63630323D01*
X59013140Y-63629000D01*
X59326860Y-63629000D01*
X59340295Y-63630323D01*
X59347309Y-63632451D01*
X59361077Y-63639810D01*
X59383716Y-63649187D01*
X59407749Y-63653967D01*
X59432253Y-63653967D01*
X59456286Y-63649186D01*
X59478923Y-63639810D01*
X59492691Y-63632451D01*
X59499705Y-63630323D01*
X59513140Y-63629000D01*
X59826860Y-63629000D01*
X59840295Y-63630323D01*
X59847309Y-63632451D01*
X59861077Y-63639810D01*
X59883716Y-63649187D01*
X59907749Y-63653967D01*
X59932253Y-63653967D01*
X59956286Y-63649186D01*
X59978923Y-63639810D01*
X59992691Y-63632451D01*
X59999705Y-63630323D01*
X60013140Y-63629000D01*
X60326860Y-63629000D01*
X60340295Y-63630323D01*
X60347309Y-63632451D01*
X60361077Y-63639810D01*
X60383716Y-63649187D01*
X60407749Y-63653967D01*
X60432253Y-63653967D01*
X60456286Y-63649186D01*
X60478923Y-63639810D01*
X60492691Y-63632451D01*
X60499705Y-63630323D01*
X60513140Y-63629000D01*
X60826860Y-63629000D01*
X60840295Y-63630323D01*
X60847309Y-63632451D01*
X60861077Y-63639810D01*
X60883716Y-63649187D01*
X60907749Y-63653967D01*
X60932253Y-63653967D01*
X60956286Y-63649186D01*
X60978923Y-63639810D01*
X60992691Y-63632451D01*
X60999705Y-63630323D01*
X61013140Y-63629000D01*
X61326860Y-63629000D01*
X61340295Y-63630323D01*
X61347310Y-63632451D01*
X61353776Y-63635908D01*
X61359442Y-63640558D01*
X61364092Y-63646224D01*
X61367549Y-63652690D01*
X61369677Y-63659705D01*
X61371000Y-63673140D01*
X61371000Y-65161860D01*
X61369677Y-65175295D01*
X61367549Y-65182310D01*
X61364092Y-65188776D01*
X61359442Y-65194442D01*
X61353776Y-65199092D01*
X61347310Y-65202549D01*
X61340295Y-65204677D01*
X61326860Y-65206000D01*
X61013140Y-65206000D01*
X60999705Y-65204677D01*
X60992691Y-65202549D01*
X60978923Y-65195190D01*
X60956284Y-65185813D01*
X60932251Y-65181033D01*
X60907747Y-65181033D01*
X60883714Y-65185814D01*
X60861077Y-65195190D01*
X60847309Y-65202549D01*
X60840295Y-65204677D01*
X60826860Y-65206000D01*
X60513140Y-65206000D01*
X60499705Y-65204677D01*
X60492691Y-65202549D01*
X60478923Y-65195190D01*
X60456284Y-65185813D01*
X60432251Y-65181033D01*
X60407747Y-65181033D01*
X60383714Y-65185814D01*
X60361077Y-65195190D01*
X60347309Y-65202549D01*
X60340295Y-65204677D01*
X60326860Y-65206000D01*
X60013140Y-65206000D01*
X59999705Y-65204677D01*
X59992691Y-65202549D01*
X59978923Y-65195190D01*
X59956284Y-65185813D01*
X59932251Y-65181033D01*
X59907747Y-65181033D01*
X59883714Y-65185814D01*
X59861077Y-65195190D01*
X59847309Y-65202549D01*
X59840295Y-65204677D01*
X59826860Y-65206000D01*
X59513140Y-65206000D01*
X59499705Y-65204677D01*
X59492691Y-65202549D01*
X59478923Y-65195190D01*
X59456284Y-65185813D01*
X59432251Y-65181033D01*
X59407747Y-65181033D01*
X59383714Y-65185814D01*
X59361077Y-65195190D01*
X59347309Y-65202549D01*
X59340295Y-65204677D01*
X59326860Y-65206000D01*
X59013140Y-65206000D01*
X58999705Y-65204677D01*
X58992691Y-65202549D01*
X58978923Y-65195190D01*
X58956284Y-65185813D01*
X58932251Y-65181033D01*
X58907747Y-65181033D01*
X58883714Y-65185814D01*
X58861077Y-65195190D01*
X58847309Y-65202549D01*
X58840295Y-65204677D01*
X58826860Y-65206000D01*
X58513140Y-65206000D01*
X58499705Y-65204677D01*
X58492691Y-65202549D01*
X58478923Y-65195190D01*
X58456284Y-65185813D01*
X58432251Y-65181033D01*
X58407747Y-65181033D01*
X58383714Y-65185814D01*
X58361077Y-65195190D01*
X58347309Y-65202549D01*
X58340295Y-65204677D01*
X58326860Y-65206000D01*
X58013140Y-65206000D01*
X57999705Y-65204677D01*
X57992691Y-65202549D01*
X57978923Y-65195190D01*
X57956284Y-65185813D01*
X57932251Y-65181033D01*
X57907747Y-65181033D01*
X57883714Y-65185814D01*
X57861077Y-65195190D01*
X57847309Y-65202549D01*
X57840295Y-65204677D01*
X57826860Y-65206000D01*
X57513140Y-65206000D01*
X57499705Y-65204677D01*
X57492691Y-65202549D01*
X57478923Y-65195190D01*
X57456284Y-65185813D01*
X57432251Y-65181033D01*
X57407747Y-65181033D01*
X57383714Y-65185814D01*
X57361077Y-65195190D01*
X57347309Y-65202549D01*
X57340295Y-65204677D01*
X57326860Y-65206000D01*
X57013140Y-65206000D01*
X56999705Y-65204677D01*
X56992691Y-65202549D01*
X56978923Y-65195190D01*
X56956284Y-65185813D01*
X56932251Y-65181033D01*
X56907747Y-65181033D01*
X56883714Y-65185814D01*
X56861077Y-65195190D01*
X56847309Y-65202549D01*
X56840295Y-65204677D01*
X56826860Y-65206000D01*
X56513140Y-65206000D01*
X56499705Y-65204677D01*
X56492691Y-65202549D01*
X56478923Y-65195190D01*
X56456284Y-65185813D01*
X56432251Y-65181033D01*
X56407747Y-65181033D01*
X56383714Y-65185814D01*
X56361077Y-65195190D01*
X56347309Y-65202549D01*
X56340295Y-65204677D01*
X56326860Y-65206000D01*
X56013140Y-65206000D01*
X55999705Y-65204677D01*
X55992691Y-65202549D01*
X55978923Y-65195190D01*
X55956284Y-65185813D01*
X55932251Y-65181033D01*
X55907747Y-65181033D01*
X55883714Y-65185814D01*
X55861077Y-65195190D01*
X55847309Y-65202549D01*
X55840295Y-65204677D01*
X55826860Y-65206000D01*
X55513140Y-65206000D01*
X55499705Y-65204677D01*
X55492690Y-65202549D01*
X55486224Y-65199092D01*
X55480558Y-65194442D01*
X55475908Y-65188776D01*
X55472451Y-65182310D01*
X55470323Y-65175295D01*
X55469000Y-65161860D01*
X55469000Y-63673140D01*
X55470323Y-63659705D01*
X55472451Y-63652690D01*
X55475908Y-63646224D01*
X55480558Y-63640558D01*
X55486224Y-63635908D01*
X55492690Y-63632451D01*
X55499705Y-63630323D01*
X55513140Y-63629000D01*
X55826860Y-63629000D01*
X55840295Y-63630323D01*
G37*
G36*
X41011000Y-62781000D02*
G01*
X37759000Y-62781000D01*
X37759000Y-61679000D01*
X41011000Y-61679000D01*
X41011000Y-62781000D01*
G37*
G36*
X79111000Y-62781000D02*
G01*
X75859000Y-62781000D01*
X75859000Y-61679000D01*
X79111000Y-61679000D01*
X79111000Y-62781000D01*
G37*
G36*
X84161000Y-62781000D02*
G01*
X80909000Y-62781000D01*
X80909000Y-61679000D01*
X84161000Y-61679000D01*
X84161000Y-62781000D01*
G37*
G36*
X46061000Y-62781000D02*
G01*
X42809000Y-62781000D01*
X42809000Y-61679000D01*
X46061000Y-61679000D01*
X46061000Y-62781000D01*
G37*
G36*
X41011000Y-60241000D02*
G01*
X37759000Y-60241000D01*
X37759000Y-59139000D01*
X41011000Y-59139000D01*
X41011000Y-60241000D01*
G37*
G36*
X84161000Y-60241000D02*
G01*
X80909000Y-60241000D01*
X80909000Y-59139000D01*
X84161000Y-59139000D01*
X84161000Y-60241000D01*
G37*
G36*
X79111000Y-60241000D02*
G01*
X75859000Y-60241000D01*
X75859000Y-59139000D01*
X79111000Y-59139000D01*
X79111000Y-60241000D01*
G37*
G36*
X46061000Y-60241000D02*
G01*
X42809000Y-60241000D01*
X42809000Y-59139000D01*
X46061000Y-59139000D01*
X46061000Y-60241000D01*
G37*
G36*
X79111000Y-57701000D02*
G01*
X75859000Y-57701000D01*
X75859000Y-56599000D01*
X79111000Y-56599000D01*
X79111000Y-57701000D01*
G37*
G36*
X46061000Y-57701000D02*
G01*
X42809000Y-57701000D01*
X42809000Y-56599000D01*
X46061000Y-56599000D01*
X46061000Y-57701000D01*
G37*
G36*
X41011000Y-57701000D02*
G01*
X37759000Y-57701000D01*
X37759000Y-56599000D01*
X41011000Y-56599000D01*
X41011000Y-57701000D01*
G37*
G36*
X84161000Y-57701000D02*
G01*
X80909000Y-57701000D01*
X80909000Y-56599000D01*
X84161000Y-56599000D01*
X84161000Y-57701000D01*
G37*
G36*
X41011000Y-55161000D02*
G01*
X37759000Y-55161000D01*
X37759000Y-54059000D01*
X41011000Y-54059000D01*
X41011000Y-55161000D01*
G37*
G36*
X84161000Y-55161000D02*
G01*
X80909000Y-55161000D01*
X80909000Y-54059000D01*
X84161000Y-54059000D01*
X84161000Y-55161000D01*
G37*
G36*
X79111000Y-55161000D02*
G01*
X75859000Y-55161000D01*
X75859000Y-54059000D01*
X79111000Y-54059000D01*
X79111000Y-55161000D01*
G37*
G36*
X46061000Y-55161000D02*
G01*
X42809000Y-55161000D01*
X42809000Y-54059000D01*
X46061000Y-54059000D01*
X46061000Y-55161000D01*
G37*
G36*
X84161000Y-52621000D02*
G01*
X80909000Y-52621000D01*
X80909000Y-51519000D01*
X84161000Y-51519000D01*
X84161000Y-52621000D01*
G37*
G36*
X41011000Y-52621000D02*
G01*
X37759000Y-52621000D01*
X37759000Y-51519000D01*
X41011000Y-51519000D01*
X41011000Y-52621000D01*
G37*
G36*
X46061000Y-52621000D02*
G01*
X42809000Y-52621000D01*
X42809000Y-51519000D01*
X46061000Y-51519000D01*
X46061000Y-52621000D01*
G37*
G36*
X79111000Y-52621000D02*
G01*
X75859000Y-52621000D01*
X75859000Y-51519000D01*
X79111000Y-51519000D01*
X79111000Y-52621000D01*
G37*
G36*
X46061000Y-50081000D02*
G01*
X42809000Y-50081000D01*
X42809000Y-48979000D01*
X46061000Y-48979000D01*
X46061000Y-50081000D01*
G37*
G36*
X84161000Y-50081000D02*
G01*
X80909000Y-50081000D01*
X80909000Y-48979000D01*
X84161000Y-48979000D01*
X84161000Y-50081000D01*
G37*
G36*
X79111000Y-50081000D02*
G01*
X75859000Y-50081000D01*
X75859000Y-48979000D01*
X79111000Y-48979000D01*
X79111000Y-50081000D01*
G37*
G36*
X41011000Y-50081000D02*
G01*
X37759000Y-50081000D01*
X37759000Y-48979000D01*
X41011000Y-48979000D01*
X41011000Y-50081000D01*
G37*
G36*
X55840295Y-46555323D02*
G01*
X55847309Y-46557451D01*
X55861077Y-46564810D01*
X55883716Y-46574187D01*
X55907749Y-46578967D01*
X55932253Y-46578967D01*
X55956286Y-46574186D01*
X55978923Y-46564810D01*
X55992691Y-46557451D01*
X55999705Y-46555323D01*
X56013140Y-46554000D01*
X56326860Y-46554000D01*
X56340295Y-46555323D01*
X56347309Y-46557451D01*
X56361077Y-46564810D01*
X56383716Y-46574187D01*
X56407749Y-46578967D01*
X56432253Y-46578967D01*
X56456286Y-46574186D01*
X56478923Y-46564810D01*
X56492691Y-46557451D01*
X56499705Y-46555323D01*
X56513140Y-46554000D01*
X56826860Y-46554000D01*
X56840295Y-46555323D01*
X56847309Y-46557451D01*
X56861077Y-46564810D01*
X56883716Y-46574187D01*
X56907749Y-46578967D01*
X56932253Y-46578967D01*
X56956286Y-46574186D01*
X56978923Y-46564810D01*
X56992691Y-46557451D01*
X56999705Y-46555323D01*
X57013140Y-46554000D01*
X57326860Y-46554000D01*
X57340295Y-46555323D01*
X57347309Y-46557451D01*
X57361077Y-46564810D01*
X57383716Y-46574187D01*
X57407749Y-46578967D01*
X57432253Y-46578967D01*
X57456286Y-46574186D01*
X57478923Y-46564810D01*
X57492691Y-46557451D01*
X57499705Y-46555323D01*
X57513140Y-46554000D01*
X57826860Y-46554000D01*
X57840295Y-46555323D01*
X57847309Y-46557451D01*
X57861077Y-46564810D01*
X57883716Y-46574187D01*
X57907749Y-46578967D01*
X57932253Y-46578967D01*
X57956286Y-46574186D01*
X57978923Y-46564810D01*
X57992691Y-46557451D01*
X57999705Y-46555323D01*
X58013140Y-46554000D01*
X58326860Y-46554000D01*
X58340295Y-46555323D01*
X58347309Y-46557451D01*
X58361077Y-46564810D01*
X58383716Y-46574187D01*
X58407749Y-46578967D01*
X58432253Y-46578967D01*
X58456286Y-46574186D01*
X58478923Y-46564810D01*
X58492691Y-46557451D01*
X58499705Y-46555323D01*
X58513140Y-46554000D01*
X58826860Y-46554000D01*
X58840295Y-46555323D01*
X58847309Y-46557451D01*
X58861077Y-46564810D01*
X58883716Y-46574187D01*
X58907749Y-46578967D01*
X58932253Y-46578967D01*
X58956286Y-46574186D01*
X58978923Y-46564810D01*
X58992691Y-46557451D01*
X58999705Y-46555323D01*
X59013140Y-46554000D01*
X59326860Y-46554000D01*
X59340295Y-46555323D01*
X59347309Y-46557451D01*
X59361077Y-46564810D01*
X59383716Y-46574187D01*
X59407749Y-46578967D01*
X59432253Y-46578967D01*
X59456286Y-46574186D01*
X59478923Y-46564810D01*
X59492691Y-46557451D01*
X59499705Y-46555323D01*
X59513140Y-46554000D01*
X59826860Y-46554000D01*
X59840295Y-46555323D01*
X59847309Y-46557451D01*
X59861077Y-46564810D01*
X59883716Y-46574187D01*
X59907749Y-46578967D01*
X59932253Y-46578967D01*
X59956286Y-46574186D01*
X59978923Y-46564810D01*
X59992691Y-46557451D01*
X59999705Y-46555323D01*
X60013140Y-46554000D01*
X60326860Y-46554000D01*
X60340295Y-46555323D01*
X60347309Y-46557451D01*
X60361077Y-46564810D01*
X60383716Y-46574187D01*
X60407749Y-46578967D01*
X60432253Y-46578967D01*
X60456286Y-46574186D01*
X60478923Y-46564810D01*
X60492691Y-46557451D01*
X60499705Y-46555323D01*
X60513140Y-46554000D01*
X60826860Y-46554000D01*
X60840295Y-46555323D01*
X60847309Y-46557451D01*
X60861077Y-46564810D01*
X60883716Y-46574187D01*
X60907749Y-46578967D01*
X60932253Y-46578967D01*
X60956286Y-46574186D01*
X60978923Y-46564810D01*
X60992691Y-46557451D01*
X60999705Y-46555323D01*
X61013140Y-46554000D01*
X61326860Y-46554000D01*
X61340295Y-46555323D01*
X61347310Y-46557451D01*
X61353776Y-46560908D01*
X61359442Y-46565558D01*
X61364092Y-46571224D01*
X61367549Y-46577690D01*
X61369677Y-46584705D01*
X61371000Y-46598140D01*
X61371000Y-48086860D01*
X61369677Y-48100295D01*
X61367549Y-48107310D01*
X61364092Y-48113776D01*
X61359442Y-48119442D01*
X61353776Y-48124092D01*
X61347310Y-48127549D01*
X61340295Y-48129677D01*
X61326860Y-48131000D01*
X61013140Y-48131000D01*
X60999705Y-48129677D01*
X60992691Y-48127549D01*
X60978923Y-48120190D01*
X60956284Y-48110813D01*
X60932251Y-48106033D01*
X60907747Y-48106033D01*
X60883714Y-48110814D01*
X60861077Y-48120190D01*
X60847309Y-48127549D01*
X60840295Y-48129677D01*
X60826860Y-48131000D01*
X60513140Y-48131000D01*
X60499705Y-48129677D01*
X60492691Y-48127549D01*
X60478923Y-48120190D01*
X60456284Y-48110813D01*
X60432251Y-48106033D01*
X60407747Y-48106033D01*
X60383714Y-48110814D01*
X60361077Y-48120190D01*
X60347309Y-48127549D01*
X60340295Y-48129677D01*
X60326860Y-48131000D01*
X60013140Y-48131000D01*
X59999705Y-48129677D01*
X59992691Y-48127549D01*
X59978923Y-48120190D01*
X59956284Y-48110813D01*
X59932251Y-48106033D01*
X59907747Y-48106033D01*
X59883714Y-48110814D01*
X59861077Y-48120190D01*
X59847309Y-48127549D01*
X59840295Y-48129677D01*
X59826860Y-48131000D01*
X59513140Y-48131000D01*
X59499705Y-48129677D01*
X59492691Y-48127549D01*
X59478923Y-48120190D01*
X59456284Y-48110813D01*
X59432251Y-48106033D01*
X59407747Y-48106033D01*
X59383714Y-48110814D01*
X59361077Y-48120190D01*
X59347309Y-48127549D01*
X59340295Y-48129677D01*
X59326860Y-48131000D01*
X59013140Y-48131000D01*
X58999705Y-48129677D01*
X58992691Y-48127549D01*
X58978923Y-48120190D01*
X58956284Y-48110813D01*
X58932251Y-48106033D01*
X58907747Y-48106033D01*
X58883714Y-48110814D01*
X58861077Y-48120190D01*
X58847309Y-48127549D01*
X58840295Y-48129677D01*
X58826860Y-48131000D01*
X58513140Y-48131000D01*
X58499705Y-48129677D01*
X58492691Y-48127549D01*
X58478923Y-48120190D01*
X58456284Y-48110813D01*
X58432251Y-48106033D01*
X58407747Y-48106033D01*
X58383714Y-48110814D01*
X58361077Y-48120190D01*
X58347309Y-48127549D01*
X58340295Y-48129677D01*
X58326860Y-48131000D01*
X58013140Y-48131000D01*
X57999705Y-48129677D01*
X57992691Y-48127549D01*
X57978923Y-48120190D01*
X57956284Y-48110813D01*
X57932251Y-48106033D01*
X57907747Y-48106033D01*
X57883714Y-48110814D01*
X57861077Y-48120190D01*
X57847309Y-48127549D01*
X57840295Y-48129677D01*
X57826860Y-48131000D01*
X57513140Y-48131000D01*
X57499705Y-48129677D01*
X57492691Y-48127549D01*
X57478923Y-48120190D01*
X57456284Y-48110813D01*
X57432251Y-48106033D01*
X57407747Y-48106033D01*
X57383714Y-48110814D01*
X57361077Y-48120190D01*
X57347309Y-48127549D01*
X57340295Y-48129677D01*
X57326860Y-48131000D01*
X57013140Y-48131000D01*
X56999705Y-48129677D01*
X56992691Y-48127549D01*
X56978923Y-48120190D01*
X56956284Y-48110813D01*
X56932251Y-48106033D01*
X56907747Y-48106033D01*
X56883714Y-48110814D01*
X56861077Y-48120190D01*
X56847309Y-48127549D01*
X56840295Y-48129677D01*
X56826860Y-48131000D01*
X56513140Y-48131000D01*
X56499705Y-48129677D01*
X56492691Y-48127549D01*
X56478923Y-48120190D01*
X56456284Y-48110813D01*
X56432251Y-48106033D01*
X56407747Y-48106033D01*
X56383714Y-48110814D01*
X56361077Y-48120190D01*
X56347309Y-48127549D01*
X56340295Y-48129677D01*
X56326860Y-48131000D01*
X56013140Y-48131000D01*
X55999705Y-48129677D01*
X55992691Y-48127549D01*
X55978923Y-48120190D01*
X55956284Y-48110813D01*
X55932251Y-48106033D01*
X55907747Y-48106033D01*
X55883714Y-48110814D01*
X55861077Y-48120190D01*
X55847309Y-48127549D01*
X55840295Y-48129677D01*
X55826860Y-48131000D01*
X55513140Y-48131000D01*
X55499705Y-48129677D01*
X55492690Y-48127549D01*
X55486224Y-48124092D01*
X55480558Y-48119442D01*
X55475908Y-48113776D01*
X55472451Y-48107310D01*
X55470323Y-48100295D01*
X55469000Y-48086860D01*
X55469000Y-46598140D01*
X55470323Y-46584705D01*
X55472451Y-46577690D01*
X55475908Y-46571224D01*
X55480558Y-46565558D01*
X55486224Y-46560908D01*
X55492690Y-46557451D01*
X55499705Y-46555323D01*
X55513140Y-46554000D01*
X55826860Y-46554000D01*
X55840295Y-46555323D01*
G37*
G36*
X63340295Y-40230323D02*
G01*
X63347310Y-40232451D01*
X63353776Y-40235908D01*
X63359442Y-40240558D01*
X63364092Y-40246224D01*
X63367549Y-40252690D01*
X63369677Y-40259705D01*
X63371000Y-40273140D01*
X63371000Y-40586860D01*
X63369677Y-40600295D01*
X63367549Y-40607309D01*
X63360190Y-40621077D01*
X63350813Y-40643716D01*
X63346033Y-40667749D01*
X63346033Y-40692253D01*
X63350814Y-40716286D01*
X63360190Y-40738923D01*
X63367549Y-40752691D01*
X63369677Y-40759705D01*
X63371000Y-40773140D01*
X63371000Y-41086860D01*
X63369677Y-41100295D01*
X63367549Y-41107309D01*
X63360190Y-41121077D01*
X63350813Y-41143716D01*
X63346033Y-41167749D01*
X63346033Y-41192253D01*
X63350814Y-41216286D01*
X63360190Y-41238923D01*
X63367549Y-41252691D01*
X63369677Y-41259705D01*
X63371000Y-41273140D01*
X63371000Y-41586860D01*
X63369677Y-41600295D01*
X63367549Y-41607309D01*
X63360190Y-41621077D01*
X63350813Y-41643716D01*
X63346033Y-41667749D01*
X63346033Y-41692253D01*
X63350814Y-41716286D01*
X63360190Y-41738923D01*
X63367549Y-41752691D01*
X63369677Y-41759705D01*
X63371000Y-41773140D01*
X63371000Y-42086860D01*
X63369677Y-42100295D01*
X63367549Y-42107309D01*
X63360190Y-42121077D01*
X63350813Y-42143716D01*
X63346033Y-42167749D01*
X63346033Y-42192253D01*
X63350814Y-42216286D01*
X63360190Y-42238923D01*
X63367549Y-42252691D01*
X63369677Y-42259705D01*
X63371000Y-42273140D01*
X63371000Y-42586860D01*
X63369677Y-42600295D01*
X63367549Y-42607309D01*
X63360190Y-42621077D01*
X63350813Y-42643716D01*
X63346033Y-42667749D01*
X63346033Y-42692253D01*
X63350814Y-42716286D01*
X63360190Y-42738923D01*
X63367549Y-42752691D01*
X63369677Y-42759705D01*
X63371000Y-42773140D01*
X63371000Y-43086860D01*
X63369677Y-43100295D01*
X63367549Y-43107309D01*
X63360190Y-43121077D01*
X63350813Y-43143716D01*
X63346033Y-43167749D01*
X63346033Y-43192253D01*
X63350814Y-43216286D01*
X63360190Y-43238923D01*
X63367549Y-43252691D01*
X63369677Y-43259705D01*
X63371000Y-43273140D01*
X63371000Y-43586860D01*
X63369677Y-43600295D01*
X63367549Y-43607309D01*
X63360190Y-43621077D01*
X63350813Y-43643716D01*
X63346033Y-43667749D01*
X63346033Y-43692253D01*
X63350814Y-43716286D01*
X63360190Y-43738923D01*
X63367549Y-43752691D01*
X63369677Y-43759705D01*
X63371000Y-43773140D01*
X63371000Y-44086860D01*
X63369677Y-44100295D01*
X63367549Y-44107309D01*
X63360190Y-44121077D01*
X63350813Y-44143716D01*
X63346033Y-44167749D01*
X63346033Y-44192253D01*
X63350814Y-44216286D01*
X63360190Y-44238923D01*
X63367549Y-44252691D01*
X63369677Y-44259705D01*
X63371000Y-44273140D01*
X63371000Y-44586860D01*
X63369677Y-44600295D01*
X63367549Y-44607309D01*
X63360190Y-44621077D01*
X63350813Y-44643716D01*
X63346033Y-44667749D01*
X63346033Y-44692253D01*
X63350814Y-44716286D01*
X63360190Y-44738923D01*
X63367549Y-44752691D01*
X63369677Y-44759705D01*
X63371000Y-44773140D01*
X63371000Y-45086860D01*
X63369677Y-45100295D01*
X63367549Y-45107309D01*
X63360190Y-45121077D01*
X63350813Y-45143716D01*
X63346033Y-45167749D01*
X63346033Y-45192253D01*
X63350814Y-45216286D01*
X63360190Y-45238923D01*
X63367549Y-45252691D01*
X63369677Y-45259705D01*
X63371000Y-45273140D01*
X63371000Y-45586860D01*
X63369677Y-45600295D01*
X63367549Y-45607309D01*
X63360190Y-45621077D01*
X63350813Y-45643716D01*
X63346033Y-45667749D01*
X63346033Y-45692253D01*
X63350814Y-45716286D01*
X63360190Y-45738923D01*
X63367549Y-45752691D01*
X63369677Y-45759705D01*
X63371000Y-45773140D01*
X63371000Y-46086860D01*
X63369677Y-46100295D01*
X63367549Y-46107310D01*
X63364092Y-46113776D01*
X63359442Y-46119442D01*
X63353776Y-46124092D01*
X63347310Y-46127549D01*
X63340295Y-46129677D01*
X63326860Y-46131000D01*
X61838140Y-46131000D01*
X61824705Y-46129677D01*
X61817690Y-46127549D01*
X61811224Y-46124092D01*
X61805558Y-46119442D01*
X61800908Y-46113776D01*
X61797451Y-46107310D01*
X61795323Y-46100295D01*
X61794000Y-46086860D01*
X61794000Y-45773140D01*
X61795323Y-45759705D01*
X61797451Y-45752691D01*
X61804810Y-45738923D01*
X61814187Y-45716284D01*
X61818967Y-45692251D01*
X61818967Y-45667747D01*
X61814186Y-45643714D01*
X61804810Y-45621077D01*
X61797451Y-45607309D01*
X61795323Y-45600295D01*
X61794000Y-45586860D01*
X61794000Y-45273140D01*
X61795323Y-45259705D01*
X61797451Y-45252691D01*
X61804810Y-45238923D01*
X61814187Y-45216284D01*
X61818967Y-45192251D01*
X61818967Y-45167747D01*
X61814186Y-45143714D01*
X61804810Y-45121077D01*
X61797451Y-45107309D01*
X61795323Y-45100295D01*
X61794000Y-45086860D01*
X61794000Y-44773140D01*
X61795323Y-44759705D01*
X61797451Y-44752691D01*
X61804810Y-44738923D01*
X61814187Y-44716284D01*
X61818967Y-44692251D01*
X61818967Y-44667747D01*
X61814186Y-44643714D01*
X61804810Y-44621077D01*
X61797451Y-44607309D01*
X61795323Y-44600295D01*
X61794000Y-44586860D01*
X61794000Y-44273140D01*
X61795323Y-44259705D01*
X61797451Y-44252691D01*
X61804810Y-44238923D01*
X61814187Y-44216284D01*
X61818967Y-44192251D01*
X61818967Y-44167747D01*
X61814186Y-44143714D01*
X61804810Y-44121077D01*
X61797451Y-44107309D01*
X61795323Y-44100295D01*
X61794000Y-44086860D01*
X61794000Y-43773140D01*
X61795323Y-43759705D01*
X61797451Y-43752691D01*
X61804810Y-43738923D01*
X61814187Y-43716284D01*
X61818967Y-43692251D01*
X61818967Y-43667747D01*
X61814186Y-43643714D01*
X61804810Y-43621077D01*
X61797451Y-43607309D01*
X61795323Y-43600295D01*
X61794000Y-43586860D01*
X61794000Y-43273140D01*
X61795323Y-43259705D01*
X61797451Y-43252691D01*
X61804810Y-43238923D01*
X61814187Y-43216284D01*
X61818967Y-43192251D01*
X61818967Y-43167747D01*
X61814186Y-43143714D01*
X61804810Y-43121077D01*
X61797451Y-43107309D01*
X61795323Y-43100295D01*
X61794000Y-43086860D01*
X61794000Y-42773140D01*
X61795323Y-42759705D01*
X61797451Y-42752691D01*
X61804810Y-42738923D01*
X61814187Y-42716284D01*
X61818967Y-42692251D01*
X61818967Y-42667747D01*
X61814186Y-42643714D01*
X61804810Y-42621077D01*
X61797451Y-42607309D01*
X61795323Y-42600295D01*
X61794000Y-42586860D01*
X61794000Y-42273140D01*
X61795323Y-42259705D01*
X61797451Y-42252691D01*
X61804810Y-42238923D01*
X61814187Y-42216284D01*
X61818967Y-42192251D01*
X61818967Y-42167747D01*
X61814186Y-42143714D01*
X61804810Y-42121077D01*
X61797451Y-42107309D01*
X61795323Y-42100295D01*
X61794000Y-42086860D01*
X61794000Y-41773140D01*
X61795323Y-41759705D01*
X61797451Y-41752691D01*
X61804810Y-41738923D01*
X61814187Y-41716284D01*
X61818967Y-41692251D01*
X61818967Y-41667747D01*
X61814186Y-41643714D01*
X61804810Y-41621077D01*
X61797451Y-41607309D01*
X61795323Y-41600295D01*
X61794000Y-41586860D01*
X61794000Y-41273140D01*
X61795323Y-41259705D01*
X61797451Y-41252691D01*
X61804810Y-41238923D01*
X61814187Y-41216284D01*
X61818967Y-41192251D01*
X61818967Y-41167747D01*
X61814186Y-41143714D01*
X61804810Y-41121077D01*
X61797451Y-41107309D01*
X61795323Y-41100295D01*
X61794000Y-41086860D01*
X61794000Y-40773140D01*
X61795323Y-40759705D01*
X61797451Y-40752691D01*
X61804810Y-40738923D01*
X61814187Y-40716284D01*
X61818967Y-40692251D01*
X61818967Y-40667747D01*
X61814186Y-40643714D01*
X61804810Y-40621077D01*
X61797451Y-40607309D01*
X61795323Y-40600295D01*
X61794000Y-40586860D01*
X61794000Y-40273140D01*
X61795323Y-40259705D01*
X61797451Y-40252690D01*
X61800908Y-40246224D01*
X61805558Y-40240558D01*
X61811224Y-40235908D01*
X61817690Y-40232451D01*
X61824705Y-40230323D01*
X61838140Y-40229000D01*
X63326860Y-40229000D01*
X63340295Y-40230323D01*
G37*
G36*
X55015295Y-40230323D02*
G01*
X55022310Y-40232451D01*
X55028776Y-40235908D01*
X55034442Y-40240558D01*
X55039092Y-40246224D01*
X55042549Y-40252690D01*
X55044677Y-40259705D01*
X55046000Y-40273140D01*
X55046000Y-40586860D01*
X55044677Y-40600295D01*
X55042549Y-40607309D01*
X55035190Y-40621077D01*
X55025813Y-40643716D01*
X55021033Y-40667749D01*
X55021033Y-40692253D01*
X55025814Y-40716286D01*
X55035190Y-40738923D01*
X55042549Y-40752691D01*
X55044677Y-40759705D01*
X55046000Y-40773140D01*
X55046000Y-41086860D01*
X55044677Y-41100295D01*
X55042549Y-41107309D01*
X55035190Y-41121077D01*
X55025813Y-41143716D01*
X55021033Y-41167749D01*
X55021033Y-41192253D01*
X55025814Y-41216286D01*
X55035190Y-41238923D01*
X55042549Y-41252691D01*
X55044677Y-41259705D01*
X55046000Y-41273140D01*
X55046000Y-41586860D01*
X55044677Y-41600295D01*
X55042549Y-41607309D01*
X55035190Y-41621077D01*
X55025813Y-41643716D01*
X55021033Y-41667749D01*
X55021033Y-41692253D01*
X55025814Y-41716286D01*
X55035190Y-41738923D01*
X55042549Y-41752691D01*
X55044677Y-41759705D01*
X55046000Y-41773140D01*
X55046000Y-42086860D01*
X55044677Y-42100295D01*
X55042549Y-42107309D01*
X55035190Y-42121077D01*
X55025813Y-42143716D01*
X55021033Y-42167749D01*
X55021033Y-42192253D01*
X55025814Y-42216286D01*
X55035190Y-42238923D01*
X55042549Y-42252691D01*
X55044677Y-42259705D01*
X55046000Y-42273140D01*
X55046000Y-42586860D01*
X55044677Y-42600295D01*
X55042549Y-42607309D01*
X55035190Y-42621077D01*
X55025813Y-42643716D01*
X55021033Y-42667749D01*
X55021033Y-42692253D01*
X55025814Y-42716286D01*
X55035190Y-42738923D01*
X55042549Y-42752691D01*
X55044677Y-42759705D01*
X55046000Y-42773140D01*
X55046000Y-43086860D01*
X55044677Y-43100295D01*
X55042549Y-43107309D01*
X55035190Y-43121077D01*
X55025813Y-43143716D01*
X55021033Y-43167749D01*
X55021033Y-43192253D01*
X55025814Y-43216286D01*
X55035190Y-43238923D01*
X55042549Y-43252691D01*
X55044677Y-43259705D01*
X55046000Y-43273140D01*
X55046000Y-43586860D01*
X55044677Y-43600295D01*
X55042549Y-43607309D01*
X55035190Y-43621077D01*
X55025813Y-43643716D01*
X55021033Y-43667749D01*
X55021033Y-43692253D01*
X55025814Y-43716286D01*
X55035190Y-43738923D01*
X55042549Y-43752691D01*
X55044677Y-43759705D01*
X55046000Y-43773140D01*
X55046000Y-44086860D01*
X55044677Y-44100295D01*
X55042549Y-44107309D01*
X55035190Y-44121077D01*
X55025813Y-44143716D01*
X55021033Y-44167749D01*
X55021033Y-44192253D01*
X55025814Y-44216286D01*
X55035190Y-44238923D01*
X55042549Y-44252691D01*
X55044677Y-44259705D01*
X55046000Y-44273140D01*
X55046000Y-44586860D01*
X55044677Y-44600295D01*
X55042549Y-44607309D01*
X55035190Y-44621077D01*
X55025813Y-44643716D01*
X55021033Y-44667749D01*
X55021033Y-44692253D01*
X55025814Y-44716286D01*
X55035190Y-44738923D01*
X55042549Y-44752691D01*
X55044677Y-44759705D01*
X55046000Y-44773140D01*
X55046000Y-45086860D01*
X55044677Y-45100295D01*
X55042549Y-45107309D01*
X55035190Y-45121077D01*
X55025813Y-45143716D01*
X55021033Y-45167749D01*
X55021033Y-45192253D01*
X55025814Y-45216286D01*
X55035190Y-45238923D01*
X55042549Y-45252691D01*
X55044677Y-45259705D01*
X55046000Y-45273140D01*
X55046000Y-45586860D01*
X55044677Y-45600295D01*
X55042549Y-45607309D01*
X55035190Y-45621077D01*
X55025813Y-45643716D01*
X55021033Y-45667749D01*
X55021033Y-45692253D01*
X55025814Y-45716286D01*
X55035190Y-45738923D01*
X55042549Y-45752691D01*
X55044677Y-45759705D01*
X55046000Y-45773140D01*
X55046000Y-46086860D01*
X55044677Y-46100295D01*
X55042549Y-46107310D01*
X55039092Y-46113776D01*
X55034442Y-46119442D01*
X55028776Y-46124092D01*
X55022310Y-46127549D01*
X55015295Y-46129677D01*
X55001860Y-46131000D01*
X53513140Y-46131000D01*
X53499705Y-46129677D01*
X53492690Y-46127549D01*
X53486224Y-46124092D01*
X53480558Y-46119442D01*
X53475908Y-46113776D01*
X53472451Y-46107310D01*
X53470323Y-46100295D01*
X53469000Y-46086860D01*
X53469000Y-45773140D01*
X53470323Y-45759705D01*
X53472451Y-45752691D01*
X53479810Y-45738923D01*
X53489187Y-45716284D01*
X53493967Y-45692251D01*
X53493967Y-45667747D01*
X53489186Y-45643714D01*
X53479810Y-45621077D01*
X53472451Y-45607309D01*
X53470323Y-45600295D01*
X53469000Y-45586860D01*
X53469000Y-45273140D01*
X53470323Y-45259705D01*
X53472451Y-45252691D01*
X53479810Y-45238923D01*
X53489187Y-45216284D01*
X53493967Y-45192251D01*
X53493967Y-45167747D01*
X53489186Y-45143714D01*
X53479810Y-45121077D01*
X53472451Y-45107309D01*
X53470323Y-45100295D01*
X53469000Y-45086860D01*
X53469000Y-44773140D01*
X53470323Y-44759705D01*
X53472451Y-44752691D01*
X53479810Y-44738923D01*
X53489187Y-44716284D01*
X53493967Y-44692251D01*
X53493967Y-44667747D01*
X53489186Y-44643714D01*
X53479810Y-44621077D01*
X53472451Y-44607309D01*
X53470323Y-44600295D01*
X53469000Y-44586860D01*
X53469000Y-44273140D01*
X53470323Y-44259705D01*
X53472451Y-44252691D01*
X53479810Y-44238923D01*
X53489187Y-44216284D01*
X53493967Y-44192251D01*
X53493967Y-44167747D01*
X53489186Y-44143714D01*
X53479810Y-44121077D01*
X53472451Y-44107309D01*
X53470323Y-44100295D01*
X53469000Y-44086860D01*
X53469000Y-43773140D01*
X53470323Y-43759705D01*
X53472451Y-43752691D01*
X53479810Y-43738923D01*
X53489187Y-43716284D01*
X53493967Y-43692251D01*
X53493967Y-43667747D01*
X53489186Y-43643714D01*
X53479810Y-43621077D01*
X53472451Y-43607309D01*
X53470323Y-43600295D01*
X53469000Y-43586860D01*
X53469000Y-43273140D01*
X53470323Y-43259705D01*
X53472451Y-43252691D01*
X53479810Y-43238923D01*
X53489187Y-43216284D01*
X53493967Y-43192251D01*
X53493967Y-43167747D01*
X53489186Y-43143714D01*
X53479810Y-43121077D01*
X53472451Y-43107309D01*
X53470323Y-43100295D01*
X53469000Y-43086860D01*
X53469000Y-42773140D01*
X53470323Y-42759705D01*
X53472451Y-42752691D01*
X53479810Y-42738923D01*
X53489187Y-42716284D01*
X53493967Y-42692251D01*
X53493967Y-42667747D01*
X53489186Y-42643714D01*
X53479810Y-42621077D01*
X53472451Y-42607309D01*
X53470323Y-42600295D01*
X53469000Y-42586860D01*
X53469000Y-42273140D01*
X53470323Y-42259705D01*
X53472451Y-42252691D01*
X53479810Y-42238923D01*
X53489187Y-42216284D01*
X53493967Y-42192251D01*
X53493967Y-42167747D01*
X53489186Y-42143714D01*
X53479810Y-42121077D01*
X53472451Y-42107309D01*
X53470323Y-42100295D01*
X53469000Y-42086860D01*
X53469000Y-41773140D01*
X53470323Y-41759705D01*
X53472451Y-41752691D01*
X53479810Y-41738923D01*
X53489187Y-41716284D01*
X53493967Y-41692251D01*
X53493967Y-41667747D01*
X53489186Y-41643714D01*
X53479810Y-41621077D01*
X53472451Y-41607309D01*
X53470323Y-41600295D01*
X53469000Y-41586860D01*
X53469000Y-41273140D01*
X53470323Y-41259705D01*
X53472451Y-41252691D01*
X53479810Y-41238923D01*
X53489187Y-41216284D01*
X53493967Y-41192251D01*
X53493967Y-41167747D01*
X53489186Y-41143714D01*
X53479810Y-41121077D01*
X53472451Y-41107309D01*
X53470323Y-41100295D01*
X53469000Y-41086860D01*
X53469000Y-40773140D01*
X53470323Y-40759705D01*
X53472451Y-40752691D01*
X53479810Y-40738923D01*
X53489187Y-40716284D01*
X53493967Y-40692251D01*
X53493967Y-40667747D01*
X53489186Y-40643714D01*
X53479810Y-40621077D01*
X53472451Y-40607309D01*
X53470323Y-40600295D01*
X53469000Y-40586860D01*
X53469000Y-40273140D01*
X53470323Y-40259705D01*
X53472451Y-40252690D01*
X53475908Y-40246224D01*
X53480558Y-40240558D01*
X53486224Y-40235908D01*
X53492690Y-40232451D01*
X53499705Y-40230323D01*
X53513140Y-40229000D01*
X55001860Y-40229000D01*
X55015295Y-40230323D01*
G37*
G36*
X60971000Y-45731000D02*
G01*
X55869000Y-45731000D01*
X55869000Y-40629000D01*
X60971000Y-40629000D01*
X60971000Y-45731000D01*
G37*
G36*
X74564999Y-41794737D02*
G01*
X74574608Y-41797652D01*
X74578422Y-41799691D01*
X74583471Y-41802390D01*
X74594461Y-41812303D01*
X74597605Y-41816097D01*
X74600713Y-41818901D01*
X74734644Y-41980542D01*
X74742508Y-41989178D01*
X74869988Y-42116658D01*
X74879908Y-42125571D01*
X75020359Y-42238838D01*
X75030921Y-42246483D01*
X75187459Y-42347772D01*
X75195729Y-42352682D01*
X75356007Y-42439690D01*
X75368680Y-42445675D01*
X75535441Y-42513281D01*
X75548472Y-42517745D01*
X75727470Y-42568232D01*
X75736888Y-42570499D01*
X75919700Y-42607061D01*
X75934627Y-42609120D01*
X76112204Y-42622780D01*
X76121791Y-42623148D01*
X76278209Y-42623148D01*
X76287796Y-42622780D01*
X76465373Y-42609120D01*
X76480300Y-42607061D01*
X76663112Y-42570499D01*
X76672530Y-42568232D01*
X76851528Y-42517745D01*
X76864559Y-42513281D01*
X77031320Y-42445675D01*
X77043993Y-42439690D01*
X77204271Y-42352682D01*
X77212541Y-42347772D01*
X77369079Y-42246483D01*
X77379641Y-42238838D01*
X77520092Y-42125571D01*
X77530012Y-42116658D01*
X77657492Y-41989178D01*
X77665356Y-41980542D01*
X77801159Y-41816642D01*
X77812674Y-41805234D01*
X77821055Y-41799691D01*
X77827616Y-41797009D01*
X77827617Y-41797009D01*
X77830354Y-41795890D01*
X77845000Y-41793753D01*
X77849929Y-41793753D01*
X77854075Y-41793148D01*
X79748860Y-41793148D01*
X79764999Y-41794737D01*
X79774608Y-41797652D01*
X79783472Y-41802390D01*
X79791237Y-41808763D01*
X79797610Y-41816528D01*
X79802348Y-41825392D01*
X79805263Y-41835001D01*
X79806852Y-41851140D01*
X79806852Y-44188860D01*
X79805263Y-44204999D01*
X79802348Y-44214608D01*
X79797610Y-44223472D01*
X79791237Y-44231237D01*
X79783472Y-44237610D01*
X79774608Y-44242348D01*
X79764999Y-44245263D01*
X79748860Y-44246852D01*
X72651140Y-44246852D01*
X72635001Y-44245263D01*
X72625392Y-44242348D01*
X72616528Y-44237610D01*
X72608763Y-44231237D01*
X72602390Y-44223472D01*
X72597652Y-44214608D01*
X72594737Y-44204999D01*
X72593148Y-44188860D01*
X72593148Y-41851140D01*
X72594737Y-41835001D01*
X72597652Y-41825392D01*
X72602390Y-41816528D01*
X72608763Y-41808763D01*
X72616528Y-41802390D01*
X72625392Y-41797652D01*
X72635001Y-41794737D01*
X72651140Y-41793148D01*
X74548860Y-41793148D01*
X74564999Y-41794737D01*
G37*
G36*
X76378703Y-39741601D02*
G01*
X76467187Y-39759201D01*
X76633889Y-39828251D01*
X76783916Y-39928496D01*
X76911504Y-40056084D01*
X77011749Y-40206111D01*
X77062858Y-40329500D01*
X77080799Y-40372814D01*
X77116000Y-40549781D01*
X77116000Y-40730219D01*
X77112873Y-40745937D01*
X77080799Y-40907187D01*
X77011749Y-41073889D01*
X76911504Y-41223916D01*
X76783916Y-41351504D01*
X76633889Y-41451749D01*
X76467187Y-41520799D01*
X76418416Y-41530500D01*
X76290219Y-41556000D01*
X76109781Y-41556000D01*
X75981584Y-41530500D01*
X75932813Y-41520799D01*
X75766111Y-41451749D01*
X75616084Y-41351504D01*
X75488496Y-41223916D01*
X75388251Y-41073889D01*
X75319201Y-40907187D01*
X75287127Y-40745937D01*
X75284000Y-40730219D01*
X75284000Y-40549781D01*
X75319201Y-40372814D01*
X75337142Y-40329500D01*
X75388251Y-40206111D01*
X75488496Y-40056084D01*
X75616084Y-39928496D01*
X75766111Y-39828251D01*
X75932813Y-39759201D01*
X76021297Y-39741601D01*
X76109781Y-39724000D01*
X76290219Y-39724000D01*
X76378703Y-39741601D01*
G37*
G36*
X55840295Y-38230323D02*
G01*
X55847309Y-38232451D01*
X55861077Y-38239810D01*
X55883716Y-38249187D01*
X55907749Y-38253967D01*
X55932253Y-38253967D01*
X55956286Y-38249186D01*
X55978923Y-38239810D01*
X55992691Y-38232451D01*
X55999705Y-38230323D01*
X56013140Y-38229000D01*
X56326860Y-38229000D01*
X56340295Y-38230323D01*
X56347309Y-38232451D01*
X56361077Y-38239810D01*
X56383716Y-38249187D01*
X56407749Y-38253967D01*
X56432253Y-38253967D01*
X56456286Y-38249186D01*
X56478923Y-38239810D01*
X56492691Y-38232451D01*
X56499705Y-38230323D01*
X56513140Y-38229000D01*
X56826860Y-38229000D01*
X56840295Y-38230323D01*
X56847309Y-38232451D01*
X56861077Y-38239810D01*
X56883716Y-38249187D01*
X56907749Y-38253967D01*
X56932253Y-38253967D01*
X56956286Y-38249186D01*
X56978923Y-38239810D01*
X56992691Y-38232451D01*
X56999705Y-38230323D01*
X57013140Y-38229000D01*
X57326860Y-38229000D01*
X57340295Y-38230323D01*
X57347309Y-38232451D01*
X57361077Y-38239810D01*
X57383716Y-38249187D01*
X57407749Y-38253967D01*
X57432253Y-38253967D01*
X57456286Y-38249186D01*
X57478923Y-38239810D01*
X57492691Y-38232451D01*
X57499705Y-38230323D01*
X57513140Y-38229000D01*
X57826860Y-38229000D01*
X57840295Y-38230323D01*
X57847309Y-38232451D01*
X57861077Y-38239810D01*
X57883716Y-38249187D01*
X57907749Y-38253967D01*
X57932253Y-38253967D01*
X57956286Y-38249186D01*
X57978923Y-38239810D01*
X57992691Y-38232451D01*
X57999705Y-38230323D01*
X58013140Y-38229000D01*
X58326860Y-38229000D01*
X58340295Y-38230323D01*
X58347309Y-38232451D01*
X58361077Y-38239810D01*
X58383716Y-38249187D01*
X58407749Y-38253967D01*
X58432253Y-38253967D01*
X58456286Y-38249186D01*
X58478923Y-38239810D01*
X58492691Y-38232451D01*
X58499705Y-38230323D01*
X58513140Y-38229000D01*
X58826860Y-38229000D01*
X58840295Y-38230323D01*
X58847309Y-38232451D01*
X58861077Y-38239810D01*
X58883716Y-38249187D01*
X58907749Y-38253967D01*
X58932253Y-38253967D01*
X58956286Y-38249186D01*
X58978923Y-38239810D01*
X58992691Y-38232451D01*
X58999705Y-38230323D01*
X59013140Y-38229000D01*
X59326860Y-38229000D01*
X59340295Y-38230323D01*
X59347309Y-38232451D01*
X59361077Y-38239810D01*
X59383716Y-38249187D01*
X59407749Y-38253967D01*
X59432253Y-38253967D01*
X59456286Y-38249186D01*
X59478923Y-38239810D01*
X59492691Y-38232451D01*
X59499705Y-38230323D01*
X59513140Y-38229000D01*
X59826860Y-38229000D01*
X59840295Y-38230323D01*
X59847309Y-38232451D01*
X59861077Y-38239810D01*
X59883716Y-38249187D01*
X59907749Y-38253967D01*
X59932253Y-38253967D01*
X59956286Y-38249186D01*
X59978923Y-38239810D01*
X59992691Y-38232451D01*
X59999705Y-38230323D01*
X60013140Y-38229000D01*
X60326860Y-38229000D01*
X60340295Y-38230323D01*
X60347309Y-38232451D01*
X60361077Y-38239810D01*
X60383716Y-38249187D01*
X60407749Y-38253967D01*
X60432253Y-38253967D01*
X60456286Y-38249186D01*
X60478923Y-38239810D01*
X60492691Y-38232451D01*
X60499705Y-38230323D01*
X60513140Y-38229000D01*
X60826860Y-38229000D01*
X60840295Y-38230323D01*
X60847309Y-38232451D01*
X60861077Y-38239810D01*
X60883716Y-38249187D01*
X60907749Y-38253967D01*
X60932253Y-38253967D01*
X60956286Y-38249186D01*
X60978923Y-38239810D01*
X60992691Y-38232451D01*
X60999705Y-38230323D01*
X61013140Y-38229000D01*
X61326860Y-38229000D01*
X61340295Y-38230323D01*
X61347310Y-38232451D01*
X61353776Y-38235908D01*
X61359442Y-38240558D01*
X61364092Y-38246224D01*
X61367549Y-38252690D01*
X61369677Y-38259705D01*
X61371000Y-38273140D01*
X61371000Y-39761860D01*
X61369677Y-39775295D01*
X61367549Y-39782310D01*
X61364092Y-39788776D01*
X61359442Y-39794442D01*
X61353776Y-39799092D01*
X61347310Y-39802549D01*
X61340295Y-39804677D01*
X61326860Y-39806000D01*
X61013140Y-39806000D01*
X60999705Y-39804677D01*
X60992691Y-39802549D01*
X60978923Y-39795190D01*
X60956284Y-39785813D01*
X60932251Y-39781033D01*
X60907747Y-39781033D01*
X60883714Y-39785814D01*
X60861077Y-39795190D01*
X60847309Y-39802549D01*
X60840295Y-39804677D01*
X60826860Y-39806000D01*
X60513140Y-39806000D01*
X60499705Y-39804677D01*
X60492691Y-39802549D01*
X60478923Y-39795190D01*
X60456284Y-39785813D01*
X60432251Y-39781033D01*
X60407747Y-39781033D01*
X60383714Y-39785814D01*
X60361077Y-39795190D01*
X60347309Y-39802549D01*
X60340295Y-39804677D01*
X60326860Y-39806000D01*
X60013140Y-39806000D01*
X59999705Y-39804677D01*
X59992691Y-39802549D01*
X59978923Y-39795190D01*
X59956284Y-39785813D01*
X59932251Y-39781033D01*
X59907747Y-39781033D01*
X59883714Y-39785814D01*
X59861077Y-39795190D01*
X59847309Y-39802549D01*
X59840295Y-39804677D01*
X59826860Y-39806000D01*
X59513140Y-39806000D01*
X59499705Y-39804677D01*
X59492691Y-39802549D01*
X59478923Y-39795190D01*
X59456284Y-39785813D01*
X59432251Y-39781033D01*
X59407747Y-39781033D01*
X59383714Y-39785814D01*
X59361077Y-39795190D01*
X59347309Y-39802549D01*
X59340295Y-39804677D01*
X59326860Y-39806000D01*
X59013140Y-39806000D01*
X58999705Y-39804677D01*
X58992691Y-39802549D01*
X58978923Y-39795190D01*
X58956284Y-39785813D01*
X58932251Y-39781033D01*
X58907747Y-39781033D01*
X58883714Y-39785814D01*
X58861077Y-39795190D01*
X58847309Y-39802549D01*
X58840295Y-39804677D01*
X58826860Y-39806000D01*
X58513140Y-39806000D01*
X58499705Y-39804677D01*
X58492691Y-39802549D01*
X58478923Y-39795190D01*
X58456284Y-39785813D01*
X58432251Y-39781033D01*
X58407747Y-39781033D01*
X58383714Y-39785814D01*
X58361077Y-39795190D01*
X58347309Y-39802549D01*
X58340295Y-39804677D01*
X58326860Y-39806000D01*
X58013140Y-39806000D01*
X57999705Y-39804677D01*
X57992691Y-39802549D01*
X57978923Y-39795190D01*
X57956284Y-39785813D01*
X57932251Y-39781033D01*
X57907747Y-39781033D01*
X57883714Y-39785814D01*
X57861077Y-39795190D01*
X57847309Y-39802549D01*
X57840295Y-39804677D01*
X57826860Y-39806000D01*
X57513140Y-39806000D01*
X57499705Y-39804677D01*
X57492691Y-39802549D01*
X57478923Y-39795190D01*
X57456284Y-39785813D01*
X57432251Y-39781033D01*
X57407747Y-39781033D01*
X57383714Y-39785814D01*
X57361077Y-39795190D01*
X57347309Y-39802549D01*
X57340295Y-39804677D01*
X57326860Y-39806000D01*
X57013140Y-39806000D01*
X56999705Y-39804677D01*
X56992691Y-39802549D01*
X56978923Y-39795190D01*
X56956284Y-39785813D01*
X56932251Y-39781033D01*
X56907747Y-39781033D01*
X56883714Y-39785814D01*
X56861077Y-39795190D01*
X56847309Y-39802549D01*
X56840295Y-39804677D01*
X56826860Y-39806000D01*
X56513140Y-39806000D01*
X56499705Y-39804677D01*
X56492691Y-39802549D01*
X56478923Y-39795190D01*
X56456284Y-39785813D01*
X56432251Y-39781033D01*
X56407747Y-39781033D01*
X56383714Y-39785814D01*
X56361077Y-39795190D01*
X56347309Y-39802549D01*
X56340295Y-39804677D01*
X56326860Y-39806000D01*
X56013140Y-39806000D01*
X55999705Y-39804677D01*
X55992691Y-39802549D01*
X55978923Y-39795190D01*
X55956284Y-39785813D01*
X55932251Y-39781033D01*
X55907747Y-39781033D01*
X55883714Y-39785814D01*
X55861077Y-39795190D01*
X55847309Y-39802549D01*
X55840295Y-39804677D01*
X55826860Y-39806000D01*
X55513140Y-39806000D01*
X55499705Y-39804677D01*
X55492690Y-39802549D01*
X55486224Y-39799092D01*
X55480558Y-39794442D01*
X55475908Y-39788776D01*
X55472451Y-39782310D01*
X55470323Y-39775295D01*
X55469000Y-39761860D01*
X55469000Y-38273140D01*
X55470323Y-38259705D01*
X55472451Y-38252690D01*
X55475908Y-38246224D01*
X55480558Y-38240558D01*
X55486224Y-38235908D01*
X55492690Y-38232451D01*
X55499705Y-38230323D01*
X55513140Y-38229000D01*
X55826860Y-38229000D01*
X55840295Y-38230323D01*
G37*
G36*
X79764999Y-37034737D02*
G01*
X79774608Y-37037652D01*
X79783472Y-37042390D01*
X79791237Y-37048763D01*
X79797610Y-37056528D01*
X79802348Y-37065392D01*
X79805263Y-37075001D01*
X79806852Y-37091140D01*
X79806852Y-39428860D01*
X79805263Y-39444999D01*
X79802348Y-39454608D01*
X79797610Y-39463472D01*
X79791237Y-39471237D01*
X79783472Y-39477610D01*
X79774608Y-39482348D01*
X79764999Y-39485263D01*
X79748860Y-39486852D01*
X77851140Y-39486852D01*
X77835001Y-39485263D01*
X77825392Y-39482348D01*
X77819135Y-39479003D01*
X77816529Y-39477610D01*
X77805539Y-39467697D01*
X77802395Y-39463903D01*
X77799287Y-39461099D01*
X77665356Y-39299458D01*
X77657492Y-39290822D01*
X77530012Y-39163342D01*
X77520092Y-39154429D01*
X77379641Y-39041162D01*
X77369079Y-39033517D01*
X77212541Y-38932228D01*
X77204271Y-38927318D01*
X77043993Y-38840310D01*
X77031320Y-38834325D01*
X76864559Y-38766719D01*
X76851528Y-38762255D01*
X76672530Y-38711768D01*
X76663112Y-38709501D01*
X76480300Y-38672939D01*
X76465373Y-38670880D01*
X76287796Y-38657220D01*
X76278209Y-38656852D01*
X76121791Y-38656852D01*
X76112204Y-38657220D01*
X75934627Y-38670880D01*
X75919700Y-38672939D01*
X75736888Y-38709501D01*
X75727470Y-38711768D01*
X75548472Y-38762255D01*
X75535441Y-38766719D01*
X75368680Y-38834325D01*
X75356007Y-38840310D01*
X75195729Y-38927318D01*
X75187459Y-38932228D01*
X75030921Y-39033517D01*
X75020359Y-39041162D01*
X74879908Y-39154429D01*
X74869988Y-39163342D01*
X74742508Y-39290822D01*
X74734644Y-39299458D01*
X74598841Y-39463358D01*
X74587326Y-39474766D01*
X74587324Y-39474767D01*
X74578945Y-39480309D01*
X74569646Y-39484110D01*
X74555000Y-39486247D01*
X74550071Y-39486247D01*
X74545925Y-39486852D01*
X72651140Y-39486852D01*
X72635001Y-39485263D01*
X72625392Y-39482348D01*
X72616528Y-39477610D01*
X72608763Y-39471237D01*
X72602390Y-39463472D01*
X72597652Y-39454608D01*
X72594737Y-39444999D01*
X72593148Y-39428860D01*
X72593148Y-37091140D01*
X72594737Y-37075001D01*
X72597652Y-37065392D01*
X72602390Y-37056528D01*
X72608763Y-37048763D01*
X72616528Y-37042390D01*
X72625392Y-37037652D01*
X72635001Y-37034737D01*
X72651140Y-37033148D01*
X79748860Y-37033148D01*
X79764999Y-37034737D01*
G37*
G36*
X38324549Y-31891116D02*
G01*
X38435734Y-31913232D01*
X38645203Y-31999997D01*
X38833720Y-32125960D01*
X38994040Y-32286280D01*
X39120003Y-32474797D01*
X39206768Y-32684266D01*
X39251000Y-32906636D01*
X39251000Y-33133364D01*
X39206768Y-33355734D01*
X39120003Y-33565203D01*
X38994040Y-33753720D01*
X38833720Y-33914040D01*
X38645203Y-34040003D01*
X38435734Y-34126768D01*
X38324549Y-34148884D01*
X38213365Y-34171000D01*
X37986635Y-34171000D01*
X37875451Y-34148884D01*
X37764266Y-34126768D01*
X37554797Y-34040003D01*
X37366280Y-33914040D01*
X37205960Y-33753720D01*
X37079997Y-33565203D01*
X36993232Y-33355734D01*
X36949000Y-33133364D01*
X36949000Y-32906636D01*
X36993232Y-32684266D01*
X37079997Y-32474797D01*
X37205960Y-32286280D01*
X37366280Y-32125960D01*
X37554797Y-31999997D01*
X37764266Y-31913232D01*
X37875451Y-31891116D01*
X37986635Y-31869000D01*
X38213365Y-31869000D01*
X38324549Y-31891116D01*
G37*
G36*
X84044549Y-31891116D02*
G01*
X84155734Y-31913232D01*
X84365203Y-31999997D01*
X84553720Y-32125960D01*
X84714040Y-32286280D01*
X84840003Y-32474797D01*
X84926768Y-32684266D01*
X84971000Y-32906636D01*
X84971000Y-33133364D01*
X84926768Y-33355734D01*
X84840003Y-33565203D01*
X84714040Y-33753720D01*
X84553720Y-33914040D01*
X84365203Y-34040003D01*
X84155734Y-34126768D01*
X84044549Y-34148884D01*
X83933365Y-34171000D01*
X83706635Y-34171000D01*
X83595451Y-34148884D01*
X83484266Y-34126768D01*
X83274797Y-34040003D01*
X83086280Y-33914040D01*
X82925960Y-33753720D01*
X82799997Y-33565203D01*
X82713232Y-33355734D01*
X82669000Y-33133364D01*
X82669000Y-32906636D01*
X82713232Y-32684266D01*
X82799997Y-32474797D01*
X82925960Y-32286280D01*
X83086280Y-32125960D01*
X83274797Y-31999997D01*
X83484266Y-31913232D01*
X83595451Y-31891116D01*
X83706635Y-31869000D01*
X83933365Y-31869000D01*
X84044549Y-31891116D01*
G37*
G36*
X79321000Y-33821000D02*
G01*
X75619000Y-33821000D01*
X75619000Y-32219000D01*
X79321000Y-32219000D01*
X79321000Y-33821000D01*
G37*
G36*
X43731000Y-33571000D02*
G01*
X42629000Y-33571000D01*
X42629000Y-32469000D01*
X43731000Y-32469000D01*
X43731000Y-33571000D01*
G37*
M02*
