G04 #@! TF.GenerationSoftware,KiCad,Pcbnew,(5.1.5)-3*
G04 #@! TF.CreationDate,2020-02-10T18:10:01+01:00*
G04 #@! TF.ProjectId,Mars-64,4d617273-2d36-4342-9e6b-696361645f70,A*
G04 #@! TF.SameCoordinates,Original*
G04 #@! TF.FileFunction,Copper,L3,Inr*
G04 #@! TF.FilePolarity,Positive*
%FSLAX46Y46*%
G04 Gerber Fmt 4.6, Leading zero omitted, Abs format (unit mm)*
G04 Created by KiCad (PCBNEW (5.1.5)-3) date 2020-02-10 18:10:01*
%MOMM*%
%LPD*%
G04 APERTURE LIST*
%ADD10C,0.800000*%
%ADD11C,0.250000*%
G04 APERTURE END LIST*
D10*
X69469000Y-57404000D03*
X55626000Y-62611000D03*
X65957100Y-60877100D03*
X66173100Y-55955100D03*
X45618400Y-60845000D03*
X60881600Y-61063400D03*
X38756100Y-50953800D03*
X55688800Y-50798800D03*
X60750900Y-50782400D03*
X43180000Y-33020000D03*
X43180000Y-34925000D03*
X76200000Y-34925000D03*
X81915000Y-58420000D03*
X40005000Y-58420000D03*
X73591000Y-34538900D03*
X81188600Y-45720000D03*
X70465100Y-76302100D03*
X83447000Y-53506200D03*
X80005000Y-35489300D03*
X43180000Y-38100000D03*
X66525200Y-33863200D03*
X48260000Y-38100000D03*
X54477300Y-33444500D03*
X53340000Y-38100000D03*
X65826400Y-45708300D03*
X58420000Y-38100000D03*
X71115900Y-40764500D03*
X63500000Y-38100000D03*
X70783200Y-34484300D03*
X68580000Y-38100000D03*
X70565800Y-35485400D03*
X73660000Y-38100000D03*
X69525700Y-35481400D03*
X78544800Y-38295200D03*
X65625800Y-35498700D03*
X43180000Y-43180000D03*
X67388000Y-34588500D03*
X48260000Y-43180000D03*
X69311200Y-33422400D03*
X53340000Y-43180000D03*
X63266900Y-35498600D03*
X58420000Y-43180000D03*
X63796700Y-33441900D03*
X63500000Y-43180000D03*
X61517600Y-35480100D03*
X62720500Y-33637400D03*
X73660000Y-43180000D03*
X64806200Y-33082500D03*
X78740000Y-43180000D03*
X45920200Y-50774300D03*
X43180000Y-48260000D03*
X51019000Y-45725700D03*
X48260000Y-48260000D03*
X39240900Y-47501600D03*
X53340000Y-48260000D03*
X39268000Y-46368200D03*
X58420000Y-48260000D03*
X45812200Y-45627800D03*
X63500000Y-48260000D03*
X39275200Y-43526800D03*
X68580000Y-48260000D03*
X37486800Y-42501200D03*
X73660000Y-48260000D03*
X51347300Y-33562400D03*
X78740000Y-48260000D03*
X51857100Y-34467400D03*
X43180000Y-53340000D03*
X50866200Y-50662700D03*
X48260000Y-53340000D03*
X52876900Y-35499300D03*
X53340000Y-53340000D03*
X50600000Y-35279600D03*
X58420000Y-53340000D03*
X55519900Y-35490700D03*
X63500000Y-53340000D03*
X56520300Y-35497800D03*
X68580000Y-53340000D03*
X57692400Y-35473500D03*
X73660000Y-53340000D03*
X77734600Y-35366300D03*
X78740000Y-53340000D03*
X40773900Y-61050200D03*
X43180000Y-58420000D03*
X40536100Y-63348000D03*
X48260000Y-58420000D03*
X39307500Y-64088400D03*
X53340000Y-58420000D03*
X49403000Y-65278000D03*
X58420000Y-58420000D03*
X58420000Y-60198000D03*
X76114400Y-60874400D03*
X63500000Y-58420000D03*
X68580000Y-58420000D03*
X50892090Y-66141410D03*
X54681900Y-76288100D03*
X73660000Y-58420000D03*
X40006000Y-64813800D03*
X78740000Y-58420000D03*
X40552600Y-65710600D03*
X43180000Y-63500000D03*
X45783800Y-66178500D03*
X48260000Y-63500000D03*
X50166100Y-76291300D03*
X53340000Y-63500000D03*
X53681500Y-76288500D03*
X58420000Y-63500000D03*
X55682300Y-76314700D03*
X64031376Y-64006476D03*
X56682700Y-76291200D03*
X68580000Y-63500000D03*
X57683100Y-76265800D03*
X73660000Y-63500000D03*
X59526400Y-76271900D03*
X78740000Y-63500000D03*
X83882200Y-63376000D03*
X43180000Y-68580000D03*
X65840200Y-66040000D03*
X48260000Y-68580000D03*
X83861900Y-69463600D03*
X53340000Y-68580000D03*
X84274200Y-68293400D03*
X58420000Y-68580000D03*
X81714600Y-71863500D03*
X63500000Y-68580000D03*
X81350900Y-65700500D03*
X68580000Y-68580000D03*
X75988800Y-66040000D03*
X73660000Y-68580000D03*
X81344500Y-67239700D03*
X78740000Y-68580000D03*
X69289300Y-76471300D03*
X43180000Y-73660000D03*
X65952200Y-76058500D03*
X48260000Y-73660000D03*
X69093400Y-77582800D03*
X53340000Y-73660000D03*
X63792100Y-78586000D03*
X58420000Y-73660000D03*
X64811000Y-76276200D03*
X63500000Y-73660000D03*
X66979900Y-76720500D03*
X68580000Y-73660000D03*
X62703600Y-77622800D03*
X73660000Y-73660000D03*
X61977100Y-78947900D03*
X78740000Y-73660000D03*
X81347800Y-69937500D03*
X76200000Y-45508000D03*
D11*
X55626000Y-62611000D02*
X65913000Y-62611000D01*
X69305001Y-59218999D02*
X69305001Y-57567999D01*
X65913000Y-62611000D02*
X69305001Y-59218999D01*
X69305001Y-57567999D02*
X69469000Y-57404000D01*
X65215700Y-60135700D02*
X65215700Y-56912500D01*
X65215700Y-56912500D02*
X66173100Y-55955100D01*
X65215700Y-60135700D02*
X65957100Y-60877100D01*
X60833000Y-60071000D02*
X65215700Y-60135700D01*
X53857915Y-59366989D02*
X60128989Y-59366989D01*
X52379904Y-60845000D02*
X53857915Y-59366989D01*
X60128989Y-59366989D02*
X60833000Y-60071000D01*
X45618400Y-60845000D02*
X52379904Y-60845000D01*
X60750900Y-50782400D02*
X60734500Y-50798800D01*
X60734500Y-50798800D02*
X55688800Y-50798800D01*
X81188600Y-45720000D02*
X81188600Y-37782900D01*
X81188600Y-37782900D02*
X77605300Y-34199600D01*
X77605300Y-34199600D02*
X73930300Y-34199600D01*
X73930300Y-34199600D02*
X73591000Y-34538900D01*
X83447000Y-53506200D02*
X83136600Y-53816600D01*
X83136600Y-53816600D02*
X83136600Y-69902000D01*
X83136600Y-69902000D02*
X81900400Y-71138200D01*
X81900400Y-71138200D02*
X79945900Y-71138200D01*
X79945900Y-71138200D02*
X74782000Y-76302100D01*
X74782000Y-76302100D02*
X70465100Y-76302100D01*
X80005000Y-35489300D02*
X76312200Y-31796500D01*
X76312200Y-31796500D02*
X49483500Y-31796500D01*
X49483500Y-31796500D02*
X43180000Y-38100000D01*
X58420000Y-38100000D02*
X58420000Y-39169700D01*
X58420000Y-39169700D02*
X64958600Y-45708300D01*
X64958600Y-45708300D02*
X65826400Y-45708300D01*
X63500000Y-38100000D02*
X69771300Y-44371300D01*
X69771300Y-44371300D02*
X74166900Y-44371300D01*
X74166900Y-44371300D02*
X74843300Y-43694900D01*
X74843300Y-43694900D02*
X74843300Y-42617500D01*
X74843300Y-42617500D02*
X72990300Y-40764500D01*
X72990300Y-40764500D02*
X71115900Y-40764500D01*
X68580000Y-38100000D02*
X68984400Y-38100000D01*
X68984400Y-38100000D02*
X71296500Y-35787900D01*
X71296500Y-35787900D02*
X71296500Y-34997600D01*
X71296500Y-34997600D02*
X70783200Y-34484300D01*
X43180000Y-43180000D02*
X44255100Y-43180000D01*
X44255100Y-43180000D02*
X51781900Y-35653200D01*
X51781900Y-35653200D02*
X51781900Y-35568600D01*
X51781900Y-35568600D02*
X53097700Y-34252800D01*
X53097700Y-34252800D02*
X58379300Y-34252800D01*
X58379300Y-34252800D02*
X58829600Y-34703100D01*
X58829600Y-34703100D02*
X64830200Y-34703100D01*
X64830200Y-34703100D02*
X65625800Y-35498700D01*
X53340000Y-43180000D02*
X54562700Y-41957300D01*
X54562700Y-41957300D02*
X54562700Y-35375400D01*
X54562700Y-35375400D02*
X55235000Y-34703100D01*
X55235000Y-34703100D02*
X57967400Y-34703100D01*
X57967400Y-34703100D02*
X60288900Y-37024600D01*
X60288900Y-37024600D02*
X64387400Y-37024600D01*
X64387400Y-37024600D02*
X71283800Y-43921000D01*
X71283800Y-43921000D02*
X73980300Y-43921000D01*
X73980300Y-43921000D02*
X74393000Y-43508300D01*
X74393000Y-43508300D02*
X74393000Y-42883700D01*
X74393000Y-42883700D02*
X73276100Y-41766800D01*
X73276100Y-41766800D02*
X71092500Y-41766800D01*
X71092500Y-41766800D02*
X67819300Y-38493600D01*
X67819300Y-38493600D02*
X67819300Y-35516800D01*
X67819300Y-35516800D02*
X69311200Y-34024900D01*
X69311200Y-34024900D02*
X69311200Y-33422400D01*
X62720500Y-33637400D02*
X63250300Y-34167200D01*
X63250300Y-34167200D02*
X65404600Y-34167200D01*
X65404600Y-34167200D02*
X67074800Y-35837400D01*
X67074800Y-35837400D02*
X67074800Y-38386000D01*
X67074800Y-38386000D02*
X71868800Y-43180000D01*
X71868800Y-43180000D02*
X73660000Y-43180000D01*
X78740000Y-43180000D02*
X78740000Y-41400600D01*
X78740000Y-41400600D02*
X70036500Y-32697100D01*
X70036500Y-32697100D02*
X65191600Y-32697100D01*
X65191600Y-32697100D02*
X64806200Y-33082500D01*
X43180000Y-48260000D02*
X45694300Y-50774300D01*
X45694300Y-50774300D02*
X45920200Y-50774300D01*
X51019000Y-45725700D02*
X48484700Y-48260000D01*
X48484700Y-48260000D02*
X48260000Y-48260000D01*
X53340000Y-48260000D02*
X53340000Y-49481500D01*
X53340000Y-49481500D02*
X56225900Y-52367400D01*
X56225900Y-52367400D02*
X58483600Y-52367400D01*
X58483600Y-52367400D02*
X59156700Y-53040500D01*
X59156700Y-53040500D02*
X59156700Y-53629400D01*
X59156700Y-53629400D02*
X58259200Y-54526900D01*
X58259200Y-54526900D02*
X43294900Y-54526900D01*
X43294900Y-54526900D02*
X41505400Y-52737400D01*
X41505400Y-52737400D02*
X41505400Y-44032100D01*
X41505400Y-44032100D02*
X39777900Y-42304600D01*
X39777900Y-42304600D02*
X38750100Y-42304600D01*
X38750100Y-42304600D02*
X38070200Y-42984500D01*
X38070200Y-42984500D02*
X38070200Y-46330900D01*
X38070200Y-46330900D02*
X39240900Y-47501600D01*
X58420000Y-48260000D02*
X59260500Y-48260000D01*
X59260500Y-48260000D02*
X61490800Y-50490300D01*
X61490800Y-50490300D02*
X61490800Y-51932200D01*
X61490800Y-51932200D02*
X58445800Y-54977200D01*
X58445800Y-54977200D02*
X43108300Y-54977200D01*
X43108300Y-54977200D02*
X40947900Y-52816800D01*
X40947900Y-52816800D02*
X40947900Y-44154800D01*
X40947900Y-44154800D02*
X39582500Y-42789400D01*
X39582500Y-42789400D02*
X38978300Y-42789400D01*
X38978300Y-42789400D02*
X38520500Y-43247200D01*
X38520500Y-43247200D02*
X38520500Y-45620700D01*
X38520500Y-45620700D02*
X39268000Y-46368200D01*
X68580000Y-48260000D02*
X69329700Y-49009700D01*
X69329700Y-49009700D02*
X69329700Y-53642600D01*
X69329700Y-53642600D02*
X68670800Y-54301500D01*
X68670800Y-54301500D02*
X63894200Y-54301500D01*
X63894200Y-54301500D02*
X62768200Y-55427500D01*
X62768200Y-55427500D02*
X42842100Y-55427500D01*
X42842100Y-55427500D02*
X39993300Y-52578700D01*
X39993300Y-52578700D02*
X39993300Y-44244900D01*
X39993300Y-44244900D02*
X39275200Y-43526800D01*
X73660000Y-48260000D02*
X74398200Y-48998200D01*
X74398200Y-48998200D02*
X74398200Y-53647000D01*
X74398200Y-53647000D02*
X73293300Y-54751900D01*
X73293300Y-54751900D02*
X64080800Y-54751900D01*
X64080800Y-54751900D02*
X62927400Y-55905300D01*
X62927400Y-55905300D02*
X42678800Y-55905300D01*
X42678800Y-55905300D02*
X37486800Y-50713300D01*
X37486800Y-50713300D02*
X37486800Y-42501200D01*
X78740000Y-48260000D02*
X79492800Y-47507200D01*
X79492800Y-47507200D02*
X79492800Y-41491200D01*
X79492800Y-41491200D02*
X70248400Y-32246800D01*
X70248400Y-32246800D02*
X52662900Y-32246800D01*
X52662900Y-32246800D02*
X51347300Y-33562400D01*
X43180000Y-53340000D02*
X41955800Y-52115800D01*
X41955800Y-52115800D02*
X41955800Y-42664800D01*
X41955800Y-42664800D02*
X50153200Y-34467400D01*
X50153200Y-34467400D02*
X51857100Y-34467400D01*
X48260000Y-53340000D02*
X48260000Y-53268900D01*
X48260000Y-53268900D02*
X50866200Y-50662700D01*
X53340000Y-53340000D02*
X52586700Y-52586700D01*
X52586700Y-52586700D02*
X52586700Y-35789500D01*
X52586700Y-35789500D02*
X52876900Y-35499300D01*
X58420000Y-53340000D02*
X57683400Y-54076600D01*
X57683400Y-54076600D02*
X53048600Y-54076600D01*
X53048600Y-54076600D02*
X51717500Y-52745500D01*
X51717500Y-52745500D02*
X51717500Y-50437700D01*
X51717500Y-50437700D02*
X51037000Y-49757200D01*
X51037000Y-49757200D02*
X48703900Y-49757200D01*
X48703900Y-49757200D02*
X42406100Y-43459400D01*
X42406100Y-43459400D02*
X42406100Y-42927400D01*
X42406100Y-42927400D02*
X50053900Y-35279600D01*
X50053900Y-35279600D02*
X50600000Y-35279600D01*
X63500000Y-53340000D02*
X63500000Y-49947900D01*
X63500000Y-49947900D02*
X63499900Y-49947900D01*
X63499900Y-49947900D02*
X55519900Y-41967900D01*
X55519900Y-41967900D02*
X55519900Y-35490700D01*
X68580000Y-53340000D02*
X67529000Y-53340000D01*
X67529000Y-53340000D02*
X56520400Y-42331400D01*
X56520400Y-42331400D02*
X56520300Y-42331400D01*
X56520300Y-42331400D02*
X56520300Y-35497800D01*
X57692400Y-35473500D02*
X73660000Y-51441100D01*
X73660000Y-51441100D02*
X73660000Y-53340000D01*
X78740000Y-53340000D02*
X79981100Y-52098900D01*
X79981100Y-52098900D02*
X79981100Y-37612800D01*
X79981100Y-37612800D02*
X77734600Y-35366300D01*
X43180000Y-58420000D02*
X40773900Y-60826100D01*
X40773900Y-60826100D02*
X40773900Y-61050200D01*
X48260000Y-58420000D02*
X45464100Y-58420000D01*
X45464100Y-58420000D02*
X40536100Y-63348000D01*
X53340000Y-58420000D02*
X52614700Y-59145300D01*
X52614700Y-59145300D02*
X45629500Y-59145300D01*
X45629500Y-59145300D02*
X41292500Y-63482300D01*
X41292500Y-63482300D02*
X41292500Y-63690400D01*
X41292500Y-63690400D02*
X40894500Y-64088400D01*
X40894500Y-64088400D02*
X39307500Y-64088400D01*
X58420000Y-60198000D02*
X53721000Y-60198000D01*
X53721000Y-60198000D02*
X49403000Y-64458315D01*
X49403000Y-64458315D02*
X49403000Y-65278000D01*
X68580000Y-58420000D02*
X68580000Y-59307590D01*
X68580000Y-59307590D02*
X66098790Y-61788800D01*
X50892090Y-65575725D02*
X50892090Y-66141410D01*
X66098790Y-61788800D02*
X53960100Y-61788800D01*
X53960100Y-61788800D02*
X50892090Y-64856810D01*
X50892090Y-64856810D02*
X50892090Y-65575725D01*
X63559399Y-63061011D02*
X66768989Y-63061011D01*
X66768989Y-63061011D02*
X71410000Y-58420000D01*
X71410000Y-58420000D02*
X73660000Y-58420000D01*
X62532800Y-68437200D02*
X62532800Y-64087610D01*
X62532800Y-64087610D02*
X63559399Y-63061011D01*
X54681900Y-76288100D02*
X62532800Y-68437200D01*
X78740000Y-58420000D02*
X82620800Y-62300800D01*
X82620800Y-62300800D02*
X82620800Y-69748600D01*
X82620800Y-69748600D02*
X81681500Y-70687900D01*
X81681500Y-70687900D02*
X69277600Y-70687900D01*
X69277600Y-70687900D02*
X63518400Y-76447100D01*
X63518400Y-76447100D02*
X61963200Y-76447100D01*
X61963200Y-76447100D02*
X61341500Y-77068800D01*
X61341500Y-77068800D02*
X49865400Y-77068800D01*
X49865400Y-77068800D02*
X49430300Y-76633700D01*
X49430300Y-76633700D02*
X49430300Y-73798200D01*
X49430300Y-73798200D02*
X42116000Y-66483900D01*
X42116000Y-66483900D02*
X40280300Y-66483900D01*
X40280300Y-66483900D02*
X39780500Y-65984100D01*
X39780500Y-65984100D02*
X39780500Y-65039300D01*
X39780500Y-65039300D02*
X40006000Y-64813800D01*
X43180000Y-63500000D02*
X42763200Y-63500000D01*
X42763200Y-63500000D02*
X40552600Y-65710600D01*
X48260000Y-63500000D02*
X48260000Y-63702300D01*
X48260000Y-63702300D02*
X45783800Y-66178500D01*
X50166100Y-76291300D02*
X50166100Y-69901900D01*
X50166100Y-69901900D02*
X53340000Y-66728000D01*
X53340000Y-66728000D02*
X53340000Y-63500000D01*
X58420000Y-63500000D02*
X56833000Y-65087000D01*
X56833000Y-65087000D02*
X56833000Y-73038900D01*
X56833000Y-73038900D02*
X53681500Y-76190400D01*
X53681500Y-76190400D02*
X53681500Y-76288500D01*
X57292000Y-74656200D02*
X58494300Y-74656200D01*
X55682300Y-76265900D02*
X57292000Y-74656200D01*
X58494300Y-74656200D02*
X64431375Y-68719125D01*
X64431375Y-64406475D02*
X64031376Y-64006476D01*
X55682300Y-76314700D02*
X55682300Y-76265900D01*
X64431375Y-68719125D02*
X64431375Y-64406475D01*
X56682700Y-76291200D02*
X56682700Y-76240500D01*
X56682700Y-76240500D02*
X57382700Y-75540500D01*
X57382700Y-75540500D02*
X58246900Y-75540500D01*
X58246900Y-75540500D02*
X68580000Y-65207400D01*
X68580000Y-65207400D02*
X68580000Y-63500000D01*
X57683100Y-76265800D02*
X58158500Y-76265800D01*
X58158500Y-76265800D02*
X70924300Y-63500000D01*
X70924300Y-63500000D02*
X73660000Y-63500000D01*
X78740000Y-63500000D02*
X74762700Y-63500000D01*
X74762700Y-63500000D02*
X63612400Y-74650300D01*
X63612400Y-74650300D02*
X61148000Y-74650300D01*
X61148000Y-74650300D02*
X59526400Y-76271900D01*
X43180000Y-68580000D02*
X42438600Y-69321400D01*
X42438600Y-69321400D02*
X42438600Y-73958000D01*
X42438600Y-73958000D02*
X48276600Y-79796000D01*
X48276600Y-79796000D02*
X74807900Y-79796000D01*
X74807900Y-79796000D02*
X84999500Y-69604400D01*
X84999500Y-69604400D02*
X84999500Y-64493300D01*
X84999500Y-64493300D02*
X83882200Y-63376000D01*
X73660000Y-68580000D02*
X75988800Y-66251200D01*
X75988800Y-66251200D02*
X75988800Y-66040000D01*
X78740000Y-68580000D02*
X80004200Y-68580000D01*
X80004200Y-68580000D02*
X81344500Y-67239700D01*
X69289300Y-76471300D02*
X69179200Y-76471300D01*
X69179200Y-76471300D02*
X67727500Y-77923000D01*
X67727500Y-77923000D02*
X64154900Y-77923000D01*
X64154900Y-77923000D02*
X64092500Y-77860600D01*
X64092500Y-77860600D02*
X63491600Y-77860600D01*
X63491600Y-77860600D02*
X63004100Y-78348100D01*
X63004100Y-78348100D02*
X62403200Y-78348100D01*
X62403200Y-78348100D02*
X62206700Y-78151600D01*
X62206700Y-78151600D02*
X47671600Y-78151600D01*
X47671600Y-78151600D02*
X43180000Y-73660000D01*
X48260000Y-73660000D02*
X48260000Y-76100300D01*
X48260000Y-76100300D02*
X49717600Y-77557900D01*
X49717600Y-77557900D02*
X61489300Y-77557900D01*
X61489300Y-77557900D02*
X62149800Y-76897400D01*
X62149800Y-76897400D02*
X64403100Y-76897400D01*
X64403100Y-76897400D02*
X64528100Y-77022400D01*
X64528100Y-77022400D02*
X65110700Y-77022400D01*
X65110700Y-77022400D02*
X65952200Y-76180900D01*
X65952200Y-76180900D02*
X65952200Y-76058500D01*
X68580000Y-73660000D02*
X66979900Y-75260100D01*
X66979900Y-75260100D02*
X66979900Y-76720500D01*
X62703600Y-77622800D02*
X62916200Y-77410200D01*
X62916200Y-77410200D02*
X64279000Y-77410200D01*
X64279000Y-77410200D02*
X64341500Y-77472700D01*
X64341500Y-77472700D02*
X67253500Y-77472700D01*
X67253500Y-77472700D02*
X71066200Y-73660000D01*
X71066200Y-73660000D02*
X73660000Y-73660000D01*
X61977100Y-78947900D02*
X62340500Y-79311300D01*
X62340500Y-79311300D02*
X73088700Y-79311300D01*
X73088700Y-79311300D02*
X78740000Y-73660000D01*
X81347800Y-69937500D02*
X82125000Y-69160300D01*
X82125000Y-69160300D02*
X82125000Y-63117000D01*
X82125000Y-63117000D02*
X76200000Y-57192000D01*
X76200000Y-57192000D02*
X76200000Y-45508000D01*
M02*
