M48
; DRILL file {KiCad (5.1.5)-3} date 2020-02-10 18:10:52
; FORMAT={-:-/ absolute / metric / decimal}
; #@! TF.CreationDate,2020-02-10T18:10:52+01:00
; #@! TF.GenerationSoftware,Kicad,Pcbnew,(5.1.5)-3
; #@! TF.FileFunction,Plated,1,3,Blind
FMAT,2
METRIC
T1C0.400
%
G90
G05
T1
X43.18Y-38.1
X43.18Y-43.18
X43.18Y-48.26
X43.18Y-53.34
X43.18Y-58.42
X43.18Y-63.5
X43.18Y-68.58
X43.18Y-73.66
X48.26Y-38.1
X48.26Y-43.18
X48.26Y-48.26
X48.26Y-53.34
X48.26Y-58.42
X48.26Y-63.5
X48.26Y-68.58
X48.26Y-73.66
X53.34Y-38.1
X53.34Y-43.18
X53.34Y-48.26
X53.34Y-53.34
X53.34Y-58.42
X53.34Y-63.5
X53.34Y-68.58
X53.34Y-73.66
X58.42Y-38.1
X58.42Y-43.18
X58.42Y-48.26
X58.42Y-53.34
X58.42Y-58.42
X58.42Y-63.5
X58.42Y-68.58
X58.42Y-73.66
X63.5Y-38.1
X63.5Y-43.18
X63.5Y-48.26
X63.5Y-53.34
X63.5Y-58.42
X63.5Y-68.58
X63.5Y-73.66
X64.031Y-64.006
X68.58Y-38.1
X68.58Y-48.26
X68.58Y-53.34
X68.58Y-58.42
X68.58Y-63.5
X68.58Y-68.58
X68.58Y-73.66
X73.66Y-38.1
X73.66Y-43.18
X73.66Y-48.26
X73.66Y-53.34
X73.66Y-58.42
X73.66Y-63.5
X73.66Y-68.58
X73.66Y-73.66
X78.545Y-38.295
X78.74Y-43.18
X78.74Y-48.26
X78.74Y-53.34
X78.74Y-58.42
X78.74Y-63.5
X78.74Y-68.58
X78.74Y-73.66
T0
M30
