G04 #@! TF.FileFunction,Copper,L2,Bot,Signal*
%FSLAX46Y46*%
G04 Gerber Fmt 4.6, Leading zero omitted, Abs format (unit mm)*
G04 Created by KiCad (PCBNEW 4.0.1-stable) date 2016-05-03 14:33:49*
%MOMM*%
G01*
G04 APERTURE LIST*
%ADD10C,0.100000*%
%ADD11O,1.727200X2.032000*%
%ADD12C,4.064000*%
%ADD13R,1.727200X1.727200*%
%ADD14O,1.727200X1.727200*%
%ADD15O,0.950000X1.250000*%
%ADD16O,1.550000X1.000000*%
%ADD17C,0.600000*%
%ADD18C,0.254000*%
G04 APERTURE END LIST*
D10*
D11*
X56388000Y-117475000D03*
X58928000Y-117475000D03*
X61468000Y-117475000D03*
X64008000Y-117475000D03*
X66548000Y-117475000D03*
X69088000Y-117475000D03*
X71628000Y-117475000D03*
X74168000Y-117475000D03*
X79248000Y-117475000D03*
X81788000Y-117475000D03*
X84328000Y-117475000D03*
X86868000Y-117475000D03*
X89408000Y-117475000D03*
X91948000Y-117475000D03*
X47244000Y-69215000D03*
X49784000Y-69215000D03*
X52324000Y-69215000D03*
X54864000Y-69215000D03*
X57404000Y-69215000D03*
X59944000Y-69215000D03*
X62484000Y-69215000D03*
X65024000Y-69215000D03*
X67564000Y-69215000D03*
X70104000Y-69215000D03*
X74168000Y-69215000D03*
X76708000Y-69215000D03*
X79248000Y-69215000D03*
X81788000Y-69215000D03*
X84328000Y-69215000D03*
X86868000Y-69215000D03*
X89408000Y-69215000D03*
X91948000Y-69215000D03*
D12*
X42418000Y-117475000D03*
X94488000Y-112395000D03*
X43688000Y-69215000D03*
X94488000Y-84455000D03*
D13*
X32258000Y-47625000D03*
D14*
X32258000Y-50165000D03*
X34798000Y-47625000D03*
X34798000Y-50165000D03*
X37338000Y-47625000D03*
X37338000Y-50165000D03*
X39878000Y-47625000D03*
X39878000Y-50165000D03*
X42418000Y-47625000D03*
X42418000Y-50165000D03*
X44958000Y-47625000D03*
X44958000Y-50165000D03*
X47498000Y-47625000D03*
X47498000Y-50165000D03*
X50038000Y-47625000D03*
X50038000Y-50165000D03*
D13*
X60198000Y-47625000D03*
D14*
X60198000Y-50165000D03*
X62738000Y-47625000D03*
X62738000Y-50165000D03*
X65278000Y-47625000D03*
X65278000Y-50165000D03*
X67818000Y-47625000D03*
X67818000Y-50165000D03*
X70358000Y-47625000D03*
X70358000Y-50165000D03*
X72898000Y-47625000D03*
X72898000Y-50165000D03*
X75438000Y-47625000D03*
X75438000Y-50165000D03*
X77978000Y-47625000D03*
X77978000Y-50165000D03*
D13*
X50038000Y-139065000D03*
D14*
X50038000Y-136525000D03*
X47498000Y-139065000D03*
X47498000Y-136525000D03*
X44958000Y-139065000D03*
X44958000Y-136525000D03*
X42418000Y-139065000D03*
X42418000Y-136525000D03*
X39878000Y-139065000D03*
X39878000Y-136525000D03*
X37338000Y-139065000D03*
X37338000Y-136525000D03*
X34798000Y-139065000D03*
X34798000Y-136525000D03*
X32258000Y-139065000D03*
X32258000Y-136525000D03*
D13*
X77978000Y-139065000D03*
D14*
X77978000Y-136525000D03*
X75438000Y-139065000D03*
X75438000Y-136525000D03*
X72898000Y-139065000D03*
X72898000Y-136525000D03*
X70358000Y-139065000D03*
X70358000Y-136525000D03*
X67818000Y-139065000D03*
X67818000Y-136525000D03*
X65278000Y-139065000D03*
X65278000Y-136525000D03*
X62738000Y-139065000D03*
X62738000Y-136525000D03*
X60198000Y-139065000D03*
X60198000Y-136525000D03*
D13*
X30988000Y-104775000D03*
D14*
X33528000Y-104775000D03*
X30988000Y-102235000D03*
X33528000Y-102235000D03*
X30988000Y-99695000D03*
X33528000Y-99695000D03*
X30988000Y-97155000D03*
X33528000Y-97155000D03*
X30988000Y-94615000D03*
X33528000Y-94615000D03*
D13*
X105918000Y-47625000D03*
D14*
X103378000Y-47625000D03*
X105918000Y-50165000D03*
X103378000Y-50165000D03*
X105918000Y-52705000D03*
X103378000Y-52705000D03*
X105918000Y-55245000D03*
X103378000Y-55245000D03*
X105918000Y-57785000D03*
X103378000Y-57785000D03*
X105918000Y-60325000D03*
X103378000Y-60325000D03*
X105918000Y-62865000D03*
X103378000Y-62865000D03*
X105918000Y-65405000D03*
X103378000Y-65405000D03*
D13*
X105918000Y-70485000D03*
D14*
X103378000Y-70485000D03*
X105918000Y-73025000D03*
X103378000Y-73025000D03*
X105918000Y-75565000D03*
X103378000Y-75565000D03*
X105918000Y-78105000D03*
X103378000Y-78105000D03*
X105918000Y-80645000D03*
X103378000Y-80645000D03*
X105918000Y-83185000D03*
X103378000Y-83185000D03*
X105918000Y-85725000D03*
X103378000Y-85725000D03*
X105918000Y-88265000D03*
X103378000Y-88265000D03*
D13*
X105918000Y-95885000D03*
D14*
X103378000Y-95885000D03*
X105918000Y-98425000D03*
X103378000Y-98425000D03*
X105918000Y-100965000D03*
X103378000Y-100965000D03*
X105918000Y-103505000D03*
X103378000Y-103505000D03*
X105918000Y-106045000D03*
X103378000Y-106045000D03*
X105918000Y-108585000D03*
X103378000Y-108585000D03*
X105918000Y-111125000D03*
X103378000Y-111125000D03*
X105918000Y-113665000D03*
X103378000Y-113665000D03*
D13*
X105918000Y-121285000D03*
D14*
X103378000Y-121285000D03*
X105918000Y-123825000D03*
X103378000Y-123825000D03*
X105918000Y-126365000D03*
X103378000Y-126365000D03*
X105918000Y-128905000D03*
X103378000Y-128905000D03*
X105918000Y-131445000D03*
X103378000Y-131445000D03*
X105918000Y-133985000D03*
X103378000Y-133985000D03*
X105918000Y-136525000D03*
X103378000Y-136525000D03*
X105918000Y-139065000D03*
X103378000Y-139065000D03*
D15*
X33820540Y-111164100D03*
X33820540Y-116164100D03*
D16*
X31120540Y-110164100D03*
X31120540Y-117164100D03*
D13*
X128778000Y-47625000D03*
D14*
X126238000Y-47625000D03*
X128778000Y-50165000D03*
X126238000Y-50165000D03*
X128778000Y-52705000D03*
X126238000Y-52705000D03*
X128778000Y-55245000D03*
X126238000Y-55245000D03*
X128778000Y-57785000D03*
X126238000Y-57785000D03*
X128778000Y-60325000D03*
X126238000Y-60325000D03*
X128778000Y-62865000D03*
X126238000Y-62865000D03*
X128778000Y-65405000D03*
X126238000Y-65405000D03*
D13*
X128778000Y-70485000D03*
D14*
X126238000Y-70485000D03*
X128778000Y-73025000D03*
X126238000Y-73025000D03*
X128778000Y-75565000D03*
X126238000Y-75565000D03*
X128778000Y-78105000D03*
X126238000Y-78105000D03*
X128778000Y-80645000D03*
X126238000Y-80645000D03*
X128778000Y-83185000D03*
X126238000Y-83185000D03*
X128778000Y-85725000D03*
X126238000Y-85725000D03*
X128778000Y-88265000D03*
X126238000Y-88265000D03*
D13*
X128778000Y-95885000D03*
D14*
X126238000Y-95885000D03*
X128778000Y-98425000D03*
X126238000Y-98425000D03*
X128778000Y-100965000D03*
X126238000Y-100965000D03*
X128778000Y-103505000D03*
X126238000Y-103505000D03*
X128778000Y-106045000D03*
X126238000Y-106045000D03*
X128778000Y-108585000D03*
X126238000Y-108585000D03*
X128778000Y-111125000D03*
X126238000Y-111125000D03*
X128778000Y-113665000D03*
X126238000Y-113665000D03*
D13*
X128778000Y-121285000D03*
D14*
X126238000Y-121285000D03*
X128778000Y-123825000D03*
X126238000Y-123825000D03*
X128778000Y-126365000D03*
X126238000Y-126365000D03*
X128778000Y-128905000D03*
X126238000Y-128905000D03*
X128778000Y-131445000D03*
X126238000Y-131445000D03*
X128778000Y-133985000D03*
X126238000Y-133985000D03*
X128778000Y-136525000D03*
X126238000Y-136525000D03*
X128778000Y-139065000D03*
X126238000Y-139065000D03*
D13*
X151638000Y-47625000D03*
D14*
X149098000Y-47625000D03*
X151638000Y-50165000D03*
X149098000Y-50165000D03*
X151638000Y-52705000D03*
X149098000Y-52705000D03*
X151638000Y-55245000D03*
X149098000Y-55245000D03*
X151638000Y-57785000D03*
X149098000Y-57785000D03*
X151638000Y-60325000D03*
X149098000Y-60325000D03*
X151638000Y-62865000D03*
X149098000Y-62865000D03*
X151638000Y-65405000D03*
X149098000Y-65405000D03*
D13*
X151638000Y-70485000D03*
D14*
X149098000Y-70485000D03*
X151638000Y-73025000D03*
X149098000Y-73025000D03*
X151638000Y-75565000D03*
X149098000Y-75565000D03*
X151638000Y-78105000D03*
X149098000Y-78105000D03*
X151638000Y-80645000D03*
X149098000Y-80645000D03*
X151638000Y-83185000D03*
X149098000Y-83185000D03*
X151638000Y-85725000D03*
X149098000Y-85725000D03*
X151638000Y-88265000D03*
X149098000Y-88265000D03*
D13*
X151638000Y-95885000D03*
D14*
X149098000Y-95885000D03*
X151638000Y-98425000D03*
X149098000Y-98425000D03*
X151638000Y-100965000D03*
X149098000Y-100965000D03*
X151638000Y-103505000D03*
X149098000Y-103505000D03*
X151638000Y-106045000D03*
X149098000Y-106045000D03*
X151638000Y-108585000D03*
X149098000Y-108585000D03*
X151638000Y-111125000D03*
X149098000Y-111125000D03*
X151638000Y-113665000D03*
X149098000Y-113665000D03*
D13*
X151638000Y-121285000D03*
D14*
X149098000Y-121285000D03*
X151638000Y-123825000D03*
X149098000Y-123825000D03*
X151638000Y-126365000D03*
X149098000Y-126365000D03*
X151638000Y-128905000D03*
X149098000Y-128905000D03*
X151638000Y-131445000D03*
X149098000Y-131445000D03*
X151638000Y-133985000D03*
X149098000Y-133985000D03*
X151638000Y-136525000D03*
X149098000Y-136525000D03*
X151638000Y-139065000D03*
X149098000Y-139065000D03*
D17*
X74754400Y-94481400D03*
X118810000Y-66805100D03*
X118810000Y-71120000D03*
X84245200Y-108487900D03*
X81272900Y-111594900D03*
X63531000Y-123222000D03*
X107779200Y-95302100D03*
X62497900Y-130064600D03*
X115542100Y-99208900D03*
X116853500Y-122706200D03*
X54615400Y-99867100D03*
X54615400Y-101905000D03*
X62738000Y-118693100D03*
X47029300Y-107218100D03*
X38842400Y-96863400D03*
X51048100Y-76280400D03*
X43591200Y-80010000D03*
X31870800Y-87303600D03*
X51517100Y-110753700D03*
X51894400Y-86795300D03*
X60438200Y-80010000D03*
X44809900Y-108808400D03*
X54641500Y-82469600D03*
X46448100Y-108473400D03*
X45658200Y-81324900D03*
X85704500Y-73025100D03*
X46953600Y-115003300D03*
X43187000Y-106219900D03*
X43592300Y-77470000D03*
X98803500Y-63643700D03*
X135822700Y-135890000D03*
X132260900Y-110769500D03*
X122729000Y-112145200D03*
X135619300Y-62953100D03*
X135764200Y-84455000D03*
X124202400Y-137433300D03*
X95977900Y-106935000D03*
X97662700Y-84345700D03*
X95977900Y-98916400D03*
X55866700Y-132446300D03*
X111393400Y-111354800D03*
X52706700Y-107885500D03*
X101224600Y-84480000D03*
X98803500Y-68705200D03*
X111425100Y-136746000D03*
X101036300Y-131603700D03*
X82833000Y-130544100D03*
X62667000Y-66406300D03*
X69349100Y-67773300D03*
X100669200Y-75242800D03*
X110904400Y-63104800D03*
X56288000Y-98658800D03*
X41334000Y-46352200D03*
X38207300Y-53556100D03*
X40816800Y-52033900D03*
X51782400Y-66579300D03*
X53848000Y-63473800D03*
X51307900Y-63516600D03*
X50252100Y-66603700D03*
X48767900Y-66596700D03*
X47081500Y-66585800D03*
X53700800Y-67785100D03*
X50038000Y-63528900D03*
X68172400Y-57204000D03*
X68134400Y-52705100D03*
X76707700Y-63510000D03*
X71207800Y-63453300D03*
X75097700Y-67142700D03*
X73185800Y-67052700D03*
X74416400Y-62941900D03*
X73774600Y-51727700D03*
X76978600Y-67485700D03*
X69088000Y-63518400D03*
X77425400Y-62045100D03*
X54709400Y-123666900D03*
X50107400Y-118179800D03*
X46997400Y-120090000D03*
X48295600Y-120098900D03*
X53842500Y-123186500D03*
X53519700Y-135241900D03*
X50053500Y-120161200D03*
X51463500Y-120086800D03*
X46172200Y-118828700D03*
X55085000Y-128503100D03*
X44233800Y-128515500D03*
X37134700Y-132954600D03*
X98525400Y-122290800D03*
X73455400Y-100126600D03*
X78031400Y-99637500D03*
X72780000Y-100659500D03*
X89627300Y-77962200D03*
X70909000Y-100476100D03*
X98212200Y-57650200D03*
X72142800Y-101600000D03*
X71341500Y-102870000D03*
X77929500Y-120152700D03*
X64122100Y-104702400D03*
X57683000Y-120070500D03*
X71971500Y-57182100D03*
X68743100Y-105410000D03*
X56550200Y-54243700D03*
X67241600Y-106680000D03*
X142094400Y-135304900D03*
X132910800Y-116398000D03*
X140613400Y-110490000D03*
X133060500Y-115444200D03*
X140589300Y-85090000D03*
X140364900Y-90312900D03*
X85801600Y-90356600D03*
X85801600Y-104514300D03*
X101195000Y-102870000D03*
X135997000Y-59068800D03*
X119005900Y-135890000D03*
X88822000Y-101907300D03*
X113580400Y-105300500D03*
X99116400Y-101225900D03*
X118027100Y-85090000D03*
X97907900Y-100508000D03*
X113045400Y-58333500D03*
X77205500Y-97790000D03*
X77029300Y-124195200D03*
X68453100Y-123222800D03*
X71611900Y-120193800D03*
X70910200Y-123711400D03*
X71628300Y-123179400D03*
X72812700Y-124371600D03*
X73940000Y-123496900D03*
X70803300Y-125474300D03*
X73533000Y-132649000D03*
X68967900Y-133378100D03*
X63318300Y-135093000D03*
X98739300Y-58331500D03*
X104785200Y-61457800D03*
X90579500Y-63470100D03*
X95353800Y-57839000D03*
X88137900Y-75098300D03*
X101212600Y-80136600D03*
X85592600Y-83681300D03*
X81923300Y-89166900D03*
X103378000Y-90994200D03*
X94951600Y-124665300D03*
X92583000Y-123254200D03*
X101247700Y-125742500D03*
X101937800Y-133223300D03*
X62147000Y-95418800D03*
X55815900Y-86287000D03*
X45858300Y-85097400D03*
X38514400Y-64033500D03*
X39968900Y-59995000D03*
X45627400Y-80468200D03*
X51704500Y-81766200D03*
X51096500Y-105434500D03*
X47181700Y-104494000D03*
X45082500Y-95208300D03*
X37771100Y-95208300D03*
X33086400Y-64033500D03*
X47192300Y-105364300D03*
X35844000Y-61531500D03*
X53597200Y-99140200D03*
X33748000Y-92547400D03*
X33748000Y-71828200D03*
X52040000Y-60752900D03*
X84689400Y-63252800D03*
X79603700Y-89964100D03*
X82310800Y-93182200D03*
X83375500Y-125011600D03*
X58704500Y-126380000D03*
X50259800Y-93877500D03*
X47810200Y-93877500D03*
X40576800Y-108807200D03*
X48862500Y-102017700D03*
X53275100Y-102017700D03*
X54322500Y-105024900D03*
X58312900Y-104305000D03*
X55927800Y-114731800D03*
X49088800Y-114402400D03*
X40576400Y-111084300D03*
X122670000Y-52070000D03*
X123081300Y-51128300D03*
X122344900Y-54610000D03*
X122341500Y-56662700D03*
X122962400Y-58502200D03*
X119208600Y-57150000D03*
X119217900Y-55457800D03*
X122356100Y-77017300D03*
X123156000Y-78388200D03*
X124212000Y-79756500D03*
X118800100Y-82584900D03*
X121602200Y-89567200D03*
X117991000Y-80010000D03*
X116713700Y-78714600D03*
X119248000Y-80709600D03*
X113288500Y-76200000D03*
X113288500Y-86995000D03*
X114923800Y-75172400D03*
X123228300Y-101216700D03*
X123669700Y-103890500D03*
X122988400Y-106036600D03*
X119214600Y-104619200D03*
X117919300Y-102874800D03*
X117397200Y-102188600D03*
X116715800Y-101194600D03*
X122347900Y-128270000D03*
X122360100Y-130810000D03*
X122341900Y-133350000D03*
X123755900Y-134571000D03*
X118019800Y-130810000D03*
X116867200Y-128449100D03*
X112935800Y-127000000D03*
X112956300Y-125730000D03*
X145214700Y-54610000D03*
X145676800Y-56391300D03*
X146892600Y-57191700D03*
X138228500Y-58387500D03*
X140148600Y-55880000D03*
X145225500Y-77095000D03*
X146383300Y-78000200D03*
X147301700Y-79639900D03*
X142068600Y-80010000D03*
X142065600Y-78740000D03*
X139360900Y-77801000D03*
X140199600Y-76200000D03*
X136955100Y-74930000D03*
X145200700Y-102342900D03*
X145703900Y-104377600D03*
X147117500Y-105200700D03*
X142059400Y-105410000D03*
X142068000Y-104536600D03*
X141049500Y-102870000D03*
X135983100Y-100330000D03*
X146769400Y-125914400D03*
X142048600Y-133690900D03*
X147491800Y-129443400D03*
X141845100Y-130423100D03*
X140151500Y-130810000D03*
X141163800Y-129540000D03*
X54752200Y-103251100D03*
X62711000Y-96069000D03*
X67206700Y-97226100D03*
X55475400Y-103937100D03*
X46959700Y-101905000D03*
X46324300Y-77536300D03*
X42843400Y-101254500D03*
X42843400Y-88674700D03*
X57324500Y-89554200D03*
X63424100Y-96750300D03*
X44298100Y-100690300D03*
X43762200Y-82771300D03*
X60443900Y-99382200D03*
X57547900Y-111174400D03*
X56737400Y-111883500D03*
X53783400Y-102899700D03*
X114290800Y-124460000D03*
X114154600Y-100513300D03*
X114290800Y-117587700D03*
X114290800Y-94584900D03*
X116311100Y-70403500D03*
X110226000Y-92778100D03*
X117823800Y-50800000D03*
X77846900Y-78772300D03*
X72532500Y-57829400D03*
X114037400Y-45825500D03*
X48125100Y-100736500D03*
X46491300Y-115777500D03*
X136581700Y-51218300D03*
X137773200Y-103833500D03*
X140788000Y-117304500D03*
X131396300Y-66083100D03*
X49222600Y-100017300D03*
X119197800Y-49530000D03*
X119217100Y-72390000D03*
X53161200Y-125584500D03*
X56947800Y-58135000D03*
X73867100Y-58421800D03*
X76073000Y-75613800D03*
X131969000Y-66964500D03*
X140616200Y-47557600D03*
X118713500Y-91110600D03*
X77871300Y-89348200D03*
X124475700Y-92315100D03*
X122752500Y-97871200D03*
X119059500Y-123190000D03*
X119945000Y-117985800D03*
X42324600Y-120086000D03*
X49216900Y-99124100D03*
X56431500Y-130903700D03*
X83058000Y-108448700D03*
X84963000Y-129475700D03*
X117770600Y-119156700D03*
X115381600Y-98336500D03*
X119183200Y-94115800D03*
X93944300Y-118483000D03*
X70775500Y-84550500D03*
X65057400Y-66787500D03*
X61297100Y-62938900D03*
X39881300Y-104186300D03*
X81615800Y-108531000D03*
X72610400Y-98307700D03*
X75358200Y-88198000D03*
X82619300Y-65025000D03*
X114940700Y-68169500D03*
X113839800Y-48658000D03*
X132229500Y-119436700D03*
X135800900Y-96520000D03*
X136001700Y-72101800D03*
X80834600Y-128641800D03*
X61816600Y-127872800D03*
X61816600Y-131341900D03*
X40794300Y-129494000D03*
X43741900Y-127778400D03*
X45763900Y-98485000D03*
X45317400Y-85778700D03*
X54748100Y-86287000D03*
X64081500Y-107832600D03*
D18*
X71628000Y-117475000D02*
X69088000Y-117475000D01*
X69088000Y-116776300D02*
X69088000Y-116077700D01*
X69088000Y-116776300D02*
X69088000Y-117475000D01*
X69088000Y-117475000D02*
X69088000Y-118872300D01*
X118810000Y-71120000D02*
X118810000Y-66805100D01*
X108690300Y-95302100D02*
X107779200Y-95302100D01*
X112184500Y-91807900D02*
X108690300Y-95302100D01*
X112184500Y-76199500D02*
X112184500Y-91807900D01*
X117264000Y-71120000D02*
X112184500Y-76199500D01*
X118810000Y-71120000D02*
X117264000Y-71120000D01*
X67880700Y-118872300D02*
X63531000Y-123222000D01*
X69088000Y-118872300D02*
X67880700Y-118872300D01*
X63531000Y-129031500D02*
X62497900Y-130064600D01*
X63531000Y-123222000D02*
X63531000Y-129031500D01*
X70429600Y-98806200D02*
X74754400Y-94481400D01*
X70429600Y-99991800D02*
X70429600Y-98806200D01*
X70007200Y-100414200D02*
X70429600Y-99991800D01*
X70007200Y-115158500D02*
X70007200Y-100414200D01*
X69088000Y-116077700D02*
X70007200Y-115158500D01*
X115449400Y-99301600D02*
X115542100Y-99208900D01*
X115449400Y-114037800D02*
X115449400Y-99301600D01*
X118464600Y-117053000D02*
X115449400Y-114037800D01*
X118464600Y-121095100D02*
X118464600Y-117053000D01*
X116853500Y-122706200D02*
X118464600Y-121095100D01*
X54615400Y-99867100D02*
X54615400Y-101905000D01*
X83470500Y-107713200D02*
X84245200Y-108487900D01*
X82798700Y-107713200D02*
X83470500Y-107713200D01*
X82336900Y-108175000D02*
X82798700Y-107713200D01*
X82336900Y-110530900D02*
X82336900Y-108175000D01*
X81272900Y-111594900D02*
X82336900Y-110530900D01*
X33528000Y-94615000D02*
X33528000Y-97155000D01*
X70104000Y-82897700D02*
X70104000Y-69215000D01*
X71456800Y-84250500D02*
X70104000Y-82897700D01*
X71456800Y-84832700D02*
X71456800Y-84250500D01*
X68396400Y-87893100D02*
X71456800Y-84832700D01*
X68396400Y-98895800D02*
X68396400Y-87893100D01*
X66096800Y-101195400D02*
X68396400Y-98895800D01*
X66096800Y-106861300D02*
X66096800Y-101195400D01*
X62738000Y-110220100D02*
X66096800Y-106861300D01*
X62738000Y-118693100D02*
X62738000Y-110220100D01*
X57404000Y-69215000D02*
X57404000Y-70612300D01*
X56716200Y-70612300D02*
X51048100Y-76280400D01*
X57404000Y-70612300D02*
X56716200Y-70612300D01*
X38842400Y-99031200D02*
X38842400Y-96863400D01*
X47029300Y-107218100D02*
X38842400Y-99031200D01*
X39215000Y-84386200D02*
X43591200Y-80010000D01*
X39215000Y-96490800D02*
X39215000Y-84386200D01*
X38842400Y-96863400D02*
X39215000Y-96490800D01*
X30988000Y-88186400D02*
X31870800Y-87303600D01*
X30988000Y-94615000D02*
X30988000Y-88186400D01*
X59061700Y-80010000D02*
X60438200Y-80010000D01*
X52085400Y-86986300D02*
X59061700Y-80010000D01*
X52085400Y-86986300D02*
X51894400Y-86795300D01*
X51789200Y-110481600D02*
X51517100Y-110753700D01*
X51789200Y-104553500D02*
X51789200Y-110481600D01*
X51577100Y-104341400D02*
X51789200Y-104553500D01*
X51577100Y-99678900D02*
X51577100Y-104341400D01*
X52085400Y-99170600D02*
X51577100Y-99678900D01*
X52085400Y-86986300D02*
X52085400Y-99170600D01*
X30988000Y-104775000D02*
X32232900Y-104775000D01*
X62484000Y-74627100D02*
X54641500Y-82469600D01*
X62484000Y-69215000D02*
X62484000Y-74627100D01*
X46539600Y-82206300D02*
X45658200Y-81324900D01*
X46539600Y-99327600D02*
X46539600Y-82206300D01*
X46275100Y-99592100D02*
X46539600Y-99327600D01*
X46275100Y-102279800D02*
X46275100Y-99592100D01*
X47873700Y-103878400D02*
X46275100Y-102279800D01*
X47873700Y-107376700D02*
X47873700Y-103878400D01*
X46777000Y-108473400D02*
X47873700Y-107376700D01*
X46448100Y-108473400D02*
X46777000Y-108473400D01*
X41649600Y-105648100D02*
X44809900Y-108808400D01*
X41649600Y-104991100D02*
X41649600Y-105648100D01*
X40153700Y-103495200D02*
X41649600Y-104991100D01*
X33045900Y-103495200D02*
X40153700Y-103495200D01*
X32232900Y-104308200D02*
X33045900Y-103495200D01*
X32232900Y-104775000D02*
X32232900Y-104308200D01*
X66548000Y-117475000D02*
X67792900Y-117475000D01*
X67792900Y-116230100D02*
X67792900Y-117475000D01*
X69424500Y-114598500D02*
X67792900Y-116230100D01*
X69424500Y-100278100D02*
X69424500Y-114598500D01*
X69921300Y-99781300D02*
X69424500Y-100278100D01*
X69921300Y-98261700D02*
X69921300Y-99781300D01*
X82974300Y-85208700D02*
X69921300Y-98261700D01*
X82974300Y-75755300D02*
X82974300Y-85208700D01*
X85704500Y-73025100D02*
X82974300Y-75755300D01*
X46953600Y-109986500D02*
X43187000Y-106219900D01*
X46953600Y-115003300D02*
X46953600Y-109986500D01*
X43187000Y-104175900D02*
X43187000Y-106219900D01*
X38147200Y-99136100D02*
X43187000Y-104175900D01*
X38147200Y-95809900D02*
X38147200Y-99136100D01*
X38706600Y-95250500D02*
X38147200Y-95809900D01*
X38706600Y-82355700D02*
X38706600Y-95250500D01*
X43592300Y-77470000D02*
X38706600Y-82355700D01*
X97662700Y-97231600D02*
X95977900Y-98916400D01*
X97662700Y-84345700D02*
X97662700Y-97231600D01*
X95977900Y-98916400D02*
X95977900Y-106935000D01*
X109893600Y-109855000D02*
X111393400Y-111354800D01*
X98897900Y-109855000D02*
X109893600Y-109855000D01*
X95977900Y-106935000D02*
X98897900Y-109855000D01*
X64008000Y-117475000D02*
X64008000Y-118872300D01*
X132260900Y-87958300D02*
X132260900Y-110769500D01*
X135764200Y-84455000D02*
X132260900Y-87958300D01*
X132165300Y-132452700D02*
X132128000Y-132415300D01*
X132385400Y-132452700D02*
X132165300Y-132452700D01*
X135822700Y-135890000D02*
X132385400Y-132452700D01*
X98803500Y-63643700D02*
X98803500Y-68705200D01*
X124202400Y-137380800D02*
X124202400Y-137433300D01*
X124202400Y-136761200D02*
X124202400Y-137380800D01*
X125708600Y-135255000D02*
X124202400Y-136761200D01*
X129288300Y-135255000D02*
X125708600Y-135255000D01*
X132128000Y-132415300D02*
X129288300Y-135255000D01*
X63730700Y-118872300D02*
X64008000Y-118872300D01*
X59266700Y-123336300D02*
X63730700Y-118872300D01*
X131866600Y-132154000D02*
X132128000Y-132415300D01*
X131866600Y-120037200D02*
X131866600Y-132154000D01*
X131548200Y-119718800D02*
X131866600Y-120037200D01*
X131548200Y-114928700D02*
X131548200Y-119718800D01*
X131548200Y-111482200D02*
X131548200Y-114928700D01*
X132260900Y-110769500D02*
X131548200Y-111482200D01*
X125512500Y-114928700D02*
X122729000Y-112145200D01*
X131548200Y-114928700D02*
X125512500Y-114928700D01*
X135320400Y-84011200D02*
X135764200Y-84455000D01*
X135320400Y-63252000D02*
X135320400Y-84011200D01*
X135619300Y-62953100D02*
X135320400Y-63252000D01*
X109934100Y-135255000D02*
X111425100Y-136746000D01*
X102851500Y-135255000D02*
X109934100Y-135255000D01*
X101036300Y-133439800D02*
X102851500Y-135255000D01*
X101036300Y-131603700D02*
X101036300Y-133439800D01*
X83892600Y-131603700D02*
X82833000Y-130544100D01*
X101036300Y-131603700D02*
X83892600Y-131603700D01*
X98803500Y-73377100D02*
X98803500Y-68705200D01*
X100669200Y-75242800D02*
X98803500Y-73377100D01*
X97662700Y-84345700D02*
X100497000Y-84345700D01*
X100631300Y-84480000D02*
X100497000Y-84345700D01*
X101224600Y-84480000D02*
X100631300Y-84480000D01*
X100497000Y-75415000D02*
X100669200Y-75242800D01*
X100497000Y-84345700D02*
X100497000Y-75415000D01*
X105304000Y-68705200D02*
X110904400Y-63104800D01*
X98803500Y-68705200D02*
X105304000Y-68705200D01*
X67682000Y-66106200D02*
X69349100Y-67773300D01*
X62967100Y-66106200D02*
X67682000Y-66106200D01*
X62667000Y-66406300D02*
X62967100Y-66106200D01*
X59266600Y-123336400D02*
X59266700Y-123336300D01*
X59266600Y-125974100D02*
X59266600Y-123336400D01*
X59390300Y-126097800D02*
X59266600Y-125974100D01*
X59390300Y-126662200D02*
X59390300Y-126097800D01*
X59212900Y-126839600D02*
X59390300Y-126662200D01*
X59212900Y-129100100D02*
X59212900Y-126839600D01*
X55866700Y-132446300D02*
X59212900Y-129100100D01*
X54597700Y-109776500D02*
X52706700Y-107885500D01*
X54597700Y-118561200D02*
X54597700Y-109776500D01*
X56493400Y-120456900D02*
X54597700Y-118561200D01*
X56493400Y-120563100D02*
X56493400Y-120456900D01*
X59266700Y-123336300D02*
X56493400Y-120563100D01*
X56030700Y-98401500D02*
X56288000Y-98658800D01*
X53345300Y-98401500D02*
X56030700Y-98401500D01*
X52593800Y-99153000D02*
X53345300Y-98401500D01*
X52593800Y-99424600D02*
X52593800Y-99153000D01*
X52085400Y-99933000D02*
X52593800Y-99424600D01*
X52085400Y-104130900D02*
X52085400Y-99933000D01*
X52706700Y-104752200D02*
X52085400Y-104130900D01*
X52706700Y-107885500D02*
X52706700Y-104752200D01*
X36042900Y-47109200D02*
X36042900Y-47625000D01*
X36799900Y-46352200D02*
X36042900Y-47109200D01*
X41334000Y-46352200D02*
X36799900Y-46352200D01*
X34798000Y-47625000D02*
X36042900Y-47625000D01*
X34798000Y-50165000D02*
X36042900Y-50165000D01*
X36042900Y-51391700D02*
X38207300Y-53556100D01*
X36042900Y-50165000D02*
X36042900Y-51391700D01*
X39878000Y-47625000D02*
X39878000Y-48869900D01*
X39936000Y-52033900D02*
X40816800Y-52033900D01*
X38633000Y-50730900D02*
X39936000Y-52033900D01*
X38633000Y-49648100D02*
X38633000Y-50730900D01*
X39411200Y-48869900D02*
X38633000Y-49648100D01*
X39878000Y-48869900D02*
X39411200Y-48869900D01*
X50555900Y-67805800D02*
X51782400Y-66579300D01*
X46539800Y-67805800D02*
X50555900Y-67805800D01*
X41528200Y-62794200D02*
X46539800Y-67805800D01*
X41528200Y-51781800D02*
X41528200Y-62794200D01*
X41148000Y-51401600D02*
X41528200Y-51781800D01*
X41148000Y-48895000D02*
X41148000Y-51401600D01*
X42418000Y-47625000D02*
X41148000Y-48895000D01*
X53848000Y-49645300D02*
X53848000Y-63473800D01*
X49951100Y-45748400D02*
X53848000Y-49645300D01*
X45003800Y-45748400D02*
X49951100Y-45748400D01*
X43662900Y-47089300D02*
X45003800Y-45748400D01*
X43662900Y-48142100D02*
X43662900Y-47089300D01*
X42884900Y-48920100D02*
X43662900Y-48142100D01*
X42418000Y-48920100D02*
X42884900Y-48920100D01*
X42418000Y-50165000D02*
X42418000Y-48920100D01*
X44958000Y-47625000D02*
X46202900Y-47625000D01*
X51307900Y-49644100D02*
X51307900Y-63516600D01*
X50558800Y-48895000D02*
X51307900Y-49644100D01*
X49458100Y-48895000D02*
X50558800Y-48895000D01*
X48743000Y-48179900D02*
X49458100Y-48895000D01*
X48743000Y-47060300D02*
X48743000Y-48179900D01*
X48005100Y-46322400D02*
X48743000Y-47060300D01*
X47038700Y-46322400D02*
X48005100Y-46322400D01*
X46202900Y-47158200D02*
X47038700Y-46322400D01*
X46202900Y-47625000D02*
X46202900Y-47158200D01*
X44958000Y-65474800D02*
X44958000Y-50165000D01*
X46780700Y-67297500D02*
X44958000Y-65474800D01*
X49558300Y-67297500D02*
X46780700Y-67297500D01*
X50252100Y-66603700D02*
X49558300Y-67297500D01*
X48767900Y-49673000D02*
X48767900Y-66596700D01*
X47964800Y-48869900D02*
X48767900Y-49673000D01*
X47498000Y-48869900D02*
X47964800Y-48869900D01*
X47498000Y-47625000D02*
X47498000Y-48869900D01*
X47081500Y-51826400D02*
X47081500Y-66585800D01*
X47498000Y-51409900D02*
X47081500Y-51826400D01*
X47498000Y-50165000D02*
X47498000Y-51409900D01*
X53700800Y-64945900D02*
X53700800Y-67785100D01*
X52757800Y-64002900D02*
X53700800Y-64945900D01*
X52757800Y-50344800D02*
X52757800Y-64002900D01*
X50038000Y-47625000D02*
X52757800Y-50344800D01*
X50038000Y-50165000D02*
X50038000Y-63528900D01*
X62738000Y-51769600D02*
X68172400Y-57204000D01*
X62738000Y-50165000D02*
X62738000Y-51769600D01*
X65793800Y-48869900D02*
X65278000Y-48869900D01*
X66548000Y-49624100D02*
X65793800Y-48869900D01*
X66548000Y-51118700D02*
X66548000Y-49624100D01*
X68134400Y-52705100D02*
X66548000Y-51118700D01*
X65278000Y-47625000D02*
X65278000Y-48869900D01*
X76707700Y-47038200D02*
X76707700Y-63510000D01*
X75996400Y-46326900D02*
X76707700Y-47038200D01*
X72434200Y-46326900D02*
X75996400Y-46326900D01*
X71602900Y-47158200D02*
X72434200Y-46326900D01*
X71602900Y-47625000D02*
X71602900Y-47158200D01*
X70358000Y-47625000D02*
X71602900Y-47625000D01*
X70358000Y-50165000D02*
X70358000Y-51409900D01*
X71207800Y-52259700D02*
X71207800Y-63453300D01*
X70358000Y-51409900D02*
X71207800Y-52259700D01*
X72898000Y-47625000D02*
X72898000Y-48869900D01*
X75097700Y-52085400D02*
X75097700Y-67142700D01*
X74142900Y-51130600D02*
X75097700Y-52085400D01*
X74142900Y-49647900D02*
X74142900Y-51130600D01*
X73364900Y-48869900D02*
X74142900Y-49647900D01*
X72898000Y-48869900D02*
X73364900Y-48869900D01*
X72898000Y-50165000D02*
X72898000Y-51409900D01*
X73185800Y-58139700D02*
X73185800Y-67052700D01*
X73232400Y-58093100D02*
X73185800Y-58139700D01*
X73232400Y-57387900D02*
X73232400Y-58093100D01*
X72898000Y-57053500D02*
X73232400Y-57387900D01*
X72898000Y-51409900D02*
X72898000Y-57053500D01*
X74548500Y-62809800D02*
X74416400Y-62941900D01*
X74548500Y-52501600D02*
X74548500Y-62809800D01*
X73774600Y-51727700D02*
X74548500Y-52501600D01*
X75819200Y-51791100D02*
X75438000Y-51409900D01*
X75819200Y-66326300D02*
X75819200Y-51791100D01*
X76978600Y-67485700D02*
X75819200Y-66326300D01*
X75438000Y-50165000D02*
X75438000Y-51409900D01*
X77978000Y-47625000D02*
X77978000Y-46380100D01*
X69088000Y-47066500D02*
X69088000Y-63518400D01*
X70392400Y-45762100D02*
X69088000Y-47066500D01*
X77360000Y-45762100D02*
X70392400Y-45762100D01*
X77978000Y-46380100D02*
X77360000Y-45762100D01*
X77978000Y-61492500D02*
X77425400Y-62045100D01*
X77978000Y-50165000D02*
X77978000Y-61492500D01*
X50038000Y-139065000D02*
X51282900Y-139065000D01*
X54403700Y-135944200D02*
X51282900Y-139065000D01*
X54403700Y-123972600D02*
X54403700Y-135944200D01*
X54709400Y-123666900D02*
X54403700Y-123972600D01*
X50038000Y-136525000D02*
X50038000Y-135280100D01*
X50542500Y-118179800D02*
X50107400Y-118179800D01*
X52163000Y-119800300D02*
X50542500Y-118179800D01*
X52163000Y-133155100D02*
X52163000Y-119800300D01*
X50038000Y-135280100D02*
X52163000Y-133155100D01*
X47498000Y-139065000D02*
X47498000Y-137820100D01*
X46997400Y-129429200D02*
X46997400Y-120090000D01*
X46228000Y-130198600D02*
X46997400Y-129429200D01*
X46228000Y-137065900D02*
X46228000Y-130198600D01*
X46982200Y-137820100D02*
X46228000Y-137065900D01*
X47498000Y-137820100D02*
X46982200Y-137820100D01*
X48295600Y-134482500D02*
X47498000Y-135280100D01*
X48295600Y-120098900D02*
X48295600Y-134482500D01*
X47498000Y-136525000D02*
X47498000Y-135280100D01*
X53842500Y-134919100D02*
X53519700Y-135241900D01*
X53842500Y-123186500D02*
X53842500Y-134919100D01*
X44958000Y-136525000D02*
X44958000Y-135280100D01*
X49257000Y-119364700D02*
X50053500Y-120161200D01*
X46711300Y-119364700D02*
X49257000Y-119364700D01*
X46313500Y-119762500D02*
X46711300Y-119364700D01*
X46313500Y-127636700D02*
X46313500Y-119762500D01*
X46489100Y-127812300D02*
X46313500Y-127636700D01*
X46489100Y-129218700D02*
X46489100Y-127812300D01*
X44958000Y-130749800D02*
X46489100Y-129218700D01*
X44958000Y-135280100D02*
X44958000Y-130749800D01*
X42418000Y-139065000D02*
X43662900Y-139065000D01*
X43662900Y-139531800D02*
X43662900Y-139065000D01*
X44494200Y-140363100D02*
X43662900Y-139531800D01*
X48056400Y-140363100D02*
X44494200Y-140363100D01*
X48768000Y-139651500D02*
X48056400Y-140363100D01*
X48768000Y-135229200D02*
X48768000Y-139651500D01*
X51463500Y-132533700D02*
X48768000Y-135229200D01*
X51463500Y-120086800D02*
X51463500Y-132533700D01*
X45805200Y-119195700D02*
X46172200Y-118828700D01*
X45805200Y-127847200D02*
X45805200Y-119195700D01*
X45980800Y-128022800D02*
X45805200Y-127847200D01*
X45980800Y-129008200D02*
X45980800Y-128022800D01*
X42418000Y-132571000D02*
X45980800Y-129008200D01*
X42418000Y-136525000D02*
X42418000Y-132571000D01*
X38582900Y-137040800D02*
X38582900Y-136525000D01*
X39362100Y-137820000D02*
X38582900Y-137040800D01*
X40460100Y-137820000D02*
X39362100Y-137820000D01*
X41123000Y-138482900D02*
X40460100Y-137820000D01*
X41123000Y-139538800D02*
X41123000Y-138482900D01*
X42500800Y-140916600D02*
X41123000Y-139538800D01*
X50462400Y-140916600D02*
X42500800Y-140916600D01*
X55085000Y-136294000D02*
X50462400Y-140916600D01*
X55085000Y-128503100D02*
X55085000Y-136294000D01*
X37338000Y-136525000D02*
X38582900Y-136525000D01*
X34798000Y-139065000D02*
X34798000Y-137820100D01*
X43527400Y-128515500D02*
X44233800Y-128515500D01*
X36042900Y-136000000D02*
X43527400Y-128515500D01*
X36042900Y-137042100D02*
X36042900Y-136000000D01*
X35264900Y-137820100D02*
X36042900Y-137042100D01*
X34798000Y-137820100D02*
X35264900Y-137820100D01*
X32258000Y-139065000D02*
X32258000Y-137820100D01*
X36560700Y-132954600D02*
X37134700Y-132954600D01*
X33502900Y-136012400D02*
X36560700Y-132954600D01*
X33502900Y-137042100D02*
X33502900Y-136012400D01*
X32724900Y-137820100D02*
X33502900Y-137042100D01*
X32258000Y-137820100D02*
X32724900Y-137820100D01*
X77335700Y-100126600D02*
X73455400Y-100126600D01*
X98525400Y-121316300D02*
X77335700Y-100126600D01*
X98525400Y-122290800D02*
X98525400Y-121316300D01*
X77833700Y-99439800D02*
X78031400Y-99637500D01*
X73160700Y-99439800D02*
X77833700Y-99439800D01*
X72700800Y-99899700D02*
X73160700Y-99439800D01*
X72700800Y-100580300D02*
X72700800Y-99899700D01*
X72780000Y-100659500D02*
X72700800Y-100580300D01*
X89627300Y-80610100D02*
X89627300Y-77962200D01*
X85865700Y-84371700D02*
X89627300Y-80610100D01*
X85755100Y-84371700D02*
X85865700Y-84371700D01*
X81242000Y-88884800D02*
X85755100Y-84371700D01*
X81242000Y-89289300D02*
X81242000Y-88884800D01*
X72904900Y-97626400D02*
X81242000Y-89289300D01*
X72328200Y-97626400D02*
X72904900Y-97626400D01*
X70937900Y-99016700D02*
X72328200Y-97626400D01*
X70937900Y-100447200D02*
X70937900Y-99016700D01*
X70909000Y-100476100D02*
X70937900Y-100447200D01*
X95932000Y-59930400D02*
X98212200Y-57650200D01*
X95932000Y-76121700D02*
X95932000Y-59930400D01*
X82205500Y-89848200D02*
X95932000Y-76121700D01*
X82033500Y-89848200D02*
X82205500Y-89848200D01*
X72098600Y-99783100D02*
X82033500Y-89848200D01*
X72098600Y-101555800D02*
X72098600Y-99783100D01*
X72142800Y-101600000D02*
X72098600Y-101555800D01*
X77929500Y-109458000D02*
X77929500Y-120152700D01*
X71341500Y-102870000D02*
X77929500Y-109458000D01*
X64122100Y-106419700D02*
X64122100Y-104702400D01*
X60942300Y-109599500D02*
X64122100Y-106419700D01*
X61091200Y-109748400D02*
X60942300Y-109599500D01*
X61091200Y-110169400D02*
X61091200Y-109748400D01*
X57744500Y-113516100D02*
X61091200Y-110169400D01*
X57683000Y-113516100D02*
X57744500Y-113516100D01*
X57683000Y-120070500D02*
X57683000Y-113516100D01*
X68743100Y-100240700D02*
X68743100Y-105410000D01*
X69413000Y-99570800D02*
X68743100Y-100240700D01*
X69413000Y-95160700D02*
X69413000Y-99570800D01*
X72473400Y-92100300D02*
X69413000Y-95160700D01*
X72473400Y-83702200D02*
X72473400Y-92100300D01*
X71989500Y-83218300D02*
X72473400Y-83702200D01*
X71989500Y-58249800D02*
X71989500Y-83218300D01*
X71851200Y-58111500D02*
X71989500Y-58249800D01*
X71851200Y-57302400D02*
X71851200Y-58111500D01*
X71971500Y-57182100D02*
X71851200Y-57302400D01*
X57052400Y-54243700D02*
X56550200Y-54243700D01*
X71456800Y-68648100D02*
X57052400Y-54243700D01*
X71456800Y-83404400D02*
X71456800Y-68648100D01*
X71965100Y-83912700D02*
X71456800Y-83404400D01*
X71965100Y-85043200D02*
X71965100Y-83912700D01*
X68904700Y-88103600D02*
X71965100Y-85043200D01*
X68904700Y-99149900D02*
X68904700Y-88103600D01*
X67241600Y-100813000D02*
X68904700Y-99149900D01*
X67241600Y-106680000D02*
X67241600Y-100813000D01*
X132910800Y-126121300D02*
X132910800Y-116398000D01*
X142094400Y-135304900D02*
X132910800Y-126121300D01*
X138014700Y-110490000D02*
X133060500Y-115444200D01*
X140613400Y-110490000D02*
X138014700Y-110490000D01*
X140364900Y-85314400D02*
X140364900Y-90312900D01*
X140589300Y-85090000D02*
X140364900Y-85314400D01*
X85801600Y-104514300D02*
X85801600Y-90356600D01*
X101830000Y-102235000D02*
X101195000Y-102870000D01*
X106443700Y-102235000D02*
X101830000Y-102235000D01*
X113304200Y-95374500D02*
X106443700Y-102235000D01*
X113304200Y-94557700D02*
X113304200Y-95374500D01*
X116070000Y-91791900D02*
X113304200Y-94557700D01*
X124035500Y-91791900D02*
X116070000Y-91791900D01*
X124193600Y-91633800D02*
X124035500Y-91791900D01*
X124719100Y-91633800D02*
X124193600Y-91633800D01*
X127533000Y-88819900D02*
X124719100Y-91633800D01*
X127533000Y-87688600D02*
X127533000Y-88819900D01*
X128226600Y-86995000D02*
X127533000Y-87688600D01*
X129349400Y-86995000D02*
X128226600Y-86995000D01*
X134350100Y-81994300D02*
X129349400Y-86995000D01*
X134350100Y-60715700D02*
X134350100Y-81994300D01*
X135997000Y-59068800D02*
X134350100Y-60715700D01*
X108879200Y-121964500D02*
X88822000Y-101907300D01*
X108879200Y-125763300D02*
X108879200Y-121964500D01*
X119005900Y-135890000D02*
X108879200Y-125763300D01*
X99116400Y-103612600D02*
X99116400Y-101225900D01*
X102818800Y-107315000D02*
X99116400Y-103612600D01*
X111565900Y-107315000D02*
X102818800Y-107315000D01*
X113580400Y-105300500D02*
X111565900Y-107315000D01*
X118027100Y-86774000D02*
X118027100Y-85090000D01*
X107646100Y-97155000D02*
X118027100Y-86774000D01*
X101260900Y-97155000D02*
X107646100Y-97155000D01*
X97907900Y-100508000D02*
X101260900Y-97155000D01*
X77205500Y-97291400D02*
X77205500Y-97790000D01*
X97949900Y-76547000D02*
X77205500Y-97291400D01*
X97949900Y-63510900D02*
X97949900Y-76547000D01*
X98557800Y-62903000D02*
X97949900Y-63510900D01*
X99571100Y-62903000D02*
X98557800Y-62903000D01*
X100778100Y-64110000D02*
X99571100Y-62903000D01*
X107268900Y-64110000D02*
X100778100Y-64110000D01*
X113045400Y-58333500D02*
X107268900Y-64110000D01*
X78444900Y-137820100D02*
X77978000Y-137820100D01*
X79222900Y-137042100D02*
X78444900Y-137820100D01*
X79222900Y-126388800D02*
X79222900Y-137042100D01*
X77029300Y-124195200D02*
X79222900Y-126388800D01*
X77978000Y-139065000D02*
X77978000Y-137820100D01*
X77978000Y-126270900D02*
X77978000Y-136525000D01*
X76347900Y-124640800D02*
X77978000Y-126270900D01*
X76347900Y-123922100D02*
X76347900Y-124640800D01*
X71933500Y-119507700D02*
X76347900Y-123922100D01*
X71319300Y-119507700D02*
X71933500Y-119507700D01*
X68453100Y-122373900D02*
X71319300Y-119507700D01*
X68453100Y-123222800D02*
X68453100Y-122373900D01*
X75438000Y-139065000D02*
X75438000Y-137820100D01*
X75904800Y-137820100D02*
X75438000Y-137820100D01*
X76707900Y-137017000D02*
X75904800Y-137820100D01*
X76707900Y-125719600D02*
X76707900Y-137017000D01*
X75808600Y-124820300D02*
X76707900Y-125719600D01*
X75808600Y-124390500D02*
X75808600Y-124820300D01*
X71611900Y-120193800D02*
X75808600Y-124390500D01*
X75438000Y-125976200D02*
X75438000Y-136525000D01*
X71937500Y-122475700D02*
X75438000Y-125976200D01*
X71310900Y-122475700D02*
X71937500Y-122475700D01*
X70910200Y-122876400D02*
X71310900Y-122475700D01*
X70910200Y-123711400D02*
X70910200Y-122876400D01*
X72898000Y-139065000D02*
X72898000Y-137820100D01*
X71628300Y-137017200D02*
X71628300Y-123179400D01*
X72431200Y-137820100D02*
X71628300Y-137017200D01*
X72898000Y-137820100D02*
X72431200Y-137820100D01*
X72898000Y-136525000D02*
X72898000Y-135280100D01*
X72812700Y-135194800D02*
X72812700Y-124371600D01*
X72898000Y-135280100D02*
X72812700Y-135194800D01*
X70358000Y-139065000D02*
X70358000Y-137820100D01*
X72410500Y-121967400D02*
X73940000Y-123496900D01*
X71100400Y-121967400D02*
X72410500Y-121967400D01*
X69680500Y-123387300D02*
X71100400Y-121967400D01*
X69680500Y-133896900D02*
X69680500Y-123387300D01*
X69063000Y-134514400D02*
X69680500Y-133896900D01*
X69063000Y-136991900D02*
X69063000Y-134514400D01*
X69891200Y-137820100D02*
X69063000Y-136991900D01*
X70358000Y-137820100D02*
X69891200Y-137820100D01*
X70358000Y-136525000D02*
X70358000Y-135280100D01*
X70803300Y-134834800D02*
X70803300Y-125474300D01*
X70358000Y-135280100D02*
X70803300Y-134834800D01*
X65278000Y-139065000D02*
X66522900Y-139065000D01*
X74168000Y-133284000D02*
X73533000Y-132649000D01*
X74168000Y-139624900D02*
X74168000Y-133284000D01*
X73386200Y-140406700D02*
X74168000Y-139624900D01*
X67397800Y-140406700D02*
X73386200Y-140406700D01*
X66522900Y-139531800D02*
X67397800Y-140406700D01*
X66522900Y-139065000D02*
X66522900Y-139531800D01*
X66617200Y-133378100D02*
X68967900Y-133378100D01*
X63982900Y-136012400D02*
X66617200Y-133378100D01*
X63982900Y-137042100D02*
X63982900Y-136012400D01*
X63204900Y-137820100D02*
X63982900Y-137042100D01*
X62738000Y-137820100D02*
X63204900Y-137820100D01*
X62738000Y-139065000D02*
X62738000Y-137820100D01*
X62405300Y-135093000D02*
X63318300Y-135093000D01*
X61442900Y-136055400D02*
X62405300Y-135093000D01*
X61442900Y-137042100D02*
X61442900Y-136055400D01*
X60664900Y-137820100D02*
X61442900Y-137042100D01*
X60198000Y-137820100D02*
X60664900Y-137820100D01*
X60198000Y-139065000D02*
X60198000Y-137820100D01*
X105918000Y-62865000D02*
X104673100Y-62865000D01*
X101977800Y-61570000D02*
X98739300Y-58331500D01*
X103893900Y-61570000D02*
X101977800Y-61570000D01*
X104673100Y-62349200D02*
X103893900Y-61570000D01*
X104673100Y-62865000D02*
X104673100Y-62349200D01*
X104623000Y-61295600D02*
X104785200Y-61457800D01*
X104623000Y-59748600D02*
X104623000Y-61295600D01*
X103929400Y-59055000D02*
X104623000Y-59748600D01*
X100853500Y-59055000D02*
X103929400Y-59055000D01*
X98767200Y-56968700D02*
X100853500Y-59055000D01*
X97724600Y-56968700D02*
X98767200Y-56968700D01*
X91223200Y-63470100D02*
X97724600Y-56968700D01*
X90579500Y-63470100D02*
X91223200Y-63470100D01*
X105918000Y-65405000D02*
X107162900Y-65405000D01*
X96761200Y-56431600D02*
X95353800Y-57839000D01*
X102583200Y-56431600D02*
X96761200Y-56431600D01*
X102666600Y-56515000D02*
X102583200Y-56431600D01*
X112192600Y-56515000D02*
X102666600Y-56515000D01*
X113776300Y-58098700D02*
X112192600Y-56515000D01*
X113776300Y-58791600D02*
X113776300Y-58098700D01*
X107162900Y-65405000D02*
X113776300Y-58791600D01*
X88137900Y-64047300D02*
X88137900Y-75098300D01*
X98210200Y-53975000D02*
X88137900Y-64047300D01*
X110436600Y-53975000D02*
X98210200Y-53975000D01*
X114296700Y-57835100D02*
X110436600Y-53975000D01*
X114296700Y-66408200D02*
X114296700Y-57835100D01*
X106384800Y-74320100D02*
X114296700Y-66408200D01*
X105918000Y-74320100D02*
X106384800Y-74320100D01*
X105918000Y-75565000D02*
X105918000Y-74320100D01*
X101212600Y-80287300D02*
X101212600Y-80136600D01*
X102865400Y-81940100D02*
X101212600Y-80287300D01*
X103895100Y-81940100D02*
X102865400Y-81940100D01*
X104673100Y-82718100D02*
X103895100Y-81940100D01*
X104673100Y-83185000D02*
X104673100Y-82718100D01*
X105918000Y-83185000D02*
X104673100Y-83185000D01*
X88610700Y-80663200D02*
X85592600Y-83681300D01*
X88610700Y-78015400D02*
X88610700Y-80663200D01*
X89345200Y-77280900D02*
X88610700Y-78015400D01*
X89909500Y-77280900D02*
X89345200Y-77280900D01*
X90351500Y-77722900D02*
X89909500Y-77280900D01*
X90351500Y-80738700D02*
X90351500Y-77722900D01*
X81923300Y-89166900D02*
X90351500Y-80738700D01*
X103378000Y-88265000D02*
X103378000Y-89509900D01*
X103378000Y-89509900D02*
X103378000Y-90994200D01*
X99446400Y-123971700D02*
X102133100Y-121285000D01*
X95645200Y-123971700D02*
X99446400Y-123971700D01*
X94951600Y-124665300D02*
X95645200Y-123971700D01*
X103378000Y-121285000D02*
X102133100Y-121285000D01*
X105918000Y-126365000D02*
X104673100Y-126365000D01*
X92583000Y-123260100D02*
X92583000Y-123254200D01*
X94669500Y-125346600D02*
X92583000Y-123260100D01*
X95233800Y-125346600D02*
X94669500Y-125346600D01*
X95519200Y-125061200D02*
X95233800Y-125346600D01*
X101529900Y-125061200D02*
X95519200Y-125061200D01*
X101588800Y-125120100D02*
X101529900Y-125061200D01*
X103895100Y-125120100D02*
X101588800Y-125120100D01*
X104673100Y-125898100D02*
X103895100Y-125120100D01*
X104673100Y-126365000D02*
X104673100Y-125898100D01*
X104673100Y-128389200D02*
X104673100Y-128905000D01*
X103918900Y-127635000D02*
X104673100Y-128389200D01*
X102825300Y-127635000D02*
X103918900Y-127635000D01*
X101247700Y-126057400D02*
X102825300Y-127635000D01*
X101247700Y-125742500D02*
X101247700Y-126057400D01*
X105918000Y-128905000D02*
X104673100Y-128905000D01*
X102471100Y-132690000D02*
X101937800Y-133223300D01*
X103844900Y-132690000D02*
X102471100Y-132690000D01*
X104673100Y-133518200D02*
X103844900Y-132690000D01*
X104673100Y-133985000D02*
X104673100Y-133518200D01*
X105918000Y-133985000D02*
X104673100Y-133985000D01*
X55815900Y-89087700D02*
X55815900Y-86287000D01*
X62147000Y-95418800D02*
X55815900Y-89087700D01*
X38514400Y-70689700D02*
X38514400Y-64033500D01*
X44894600Y-77069900D02*
X38514400Y-70689700D01*
X44894600Y-84133700D02*
X44894600Y-77069900D01*
X45858300Y-85097400D02*
X44894600Y-84133700D01*
X39968900Y-70706600D02*
X39968900Y-59995000D01*
X45627400Y-76365100D02*
X39968900Y-70706600D01*
X45627400Y-80468200D02*
X45627400Y-76365100D01*
X51068800Y-105406800D02*
X51096500Y-105434500D01*
X51068800Y-82401900D02*
X51068800Y-105406800D01*
X51704500Y-81766200D02*
X51068800Y-82401900D01*
X33086400Y-69170900D02*
X33086400Y-64033500D01*
X37771100Y-73855600D02*
X33086400Y-69170900D01*
X37771100Y-95208300D02*
X37771100Y-73855600D01*
X45082500Y-102394800D02*
X47181700Y-104494000D01*
X45082500Y-95208300D02*
X45082500Y-102394800D01*
X35844000Y-68744800D02*
X35844000Y-61531500D01*
X44307900Y-77208700D02*
X35844000Y-68744800D01*
X44307900Y-80617200D02*
X44307900Y-77208700D01*
X42146400Y-82778700D02*
X44307900Y-80617200D01*
X42146400Y-101557400D02*
X42146400Y-82778700D01*
X45953300Y-105364300D02*
X42146400Y-101557400D01*
X47192300Y-105364300D02*
X45953300Y-105364300D01*
X61468000Y-117475000D02*
X60223100Y-117475000D01*
X52593700Y-100143700D02*
X53597200Y-99140200D01*
X52593700Y-103920300D02*
X52593700Y-100143700D01*
X53641200Y-104967800D02*
X52593700Y-103920300D01*
X53641200Y-105306900D02*
X53641200Y-104967800D01*
X55106100Y-106771800D02*
X53641200Y-105306900D01*
X55106100Y-118293400D02*
X55106100Y-106771800D01*
X57001700Y-120189000D02*
X55106100Y-118293400D01*
X57001700Y-120352600D02*
X57001700Y-120189000D01*
X57400900Y-120751800D02*
X57001700Y-120352600D01*
X57965200Y-120751800D02*
X57400900Y-120751800D01*
X60223100Y-118493900D02*
X57965200Y-120751800D01*
X60223100Y-117475000D02*
X60223100Y-118493900D01*
X31503800Y-98450100D02*
X30988000Y-98450100D01*
X32258000Y-97695900D02*
X31503800Y-98450100D01*
X32258000Y-94037400D02*
X32258000Y-97695900D01*
X33748000Y-92547400D02*
X32258000Y-94037400D01*
X30988000Y-99695000D02*
X30988000Y-98450100D01*
X33748000Y-92547400D02*
X33748000Y-71828200D01*
X79603700Y-89298300D02*
X79603700Y-89964100D01*
X83662400Y-85239600D02*
X79603700Y-89298300D01*
X83662400Y-84520600D02*
X83662400Y-85239600D01*
X86426700Y-81756300D02*
X83662400Y-84520600D01*
X86426700Y-71206900D02*
X86426700Y-81756300D01*
X85598000Y-70378200D02*
X86426700Y-71206900D01*
X85598000Y-64161400D02*
X85598000Y-70378200D01*
X84689400Y-63252800D02*
X85598000Y-64161400D01*
X82310800Y-103644800D02*
X82310800Y-93182200D01*
X99254500Y-120588500D02*
X82310800Y-103644800D01*
X99254500Y-122538700D02*
X99254500Y-120588500D01*
X98821000Y-122972200D02*
X99254500Y-122538700D01*
X98210400Y-122972200D02*
X98821000Y-122972200D01*
X95866900Y-120628700D02*
X98210400Y-122972200D01*
X95866900Y-119441900D02*
X95866900Y-120628700D01*
X92453100Y-116028100D02*
X95866900Y-119441900D01*
X91477400Y-116028100D02*
X92453100Y-116028100D01*
X90652900Y-116852600D02*
X91477400Y-116028100D01*
X90652900Y-117475000D02*
X90652900Y-116852600D01*
X89408000Y-117475000D02*
X90652900Y-117475000D01*
X52040000Y-64028900D02*
X52040000Y-60752900D01*
X52480500Y-64469400D02*
X52040000Y-64028900D01*
X52480500Y-66912300D02*
X52480500Y-64469400D01*
X51028900Y-68363900D02*
X52480500Y-66912300D01*
X51028900Y-69215000D02*
X51028900Y-68363900D01*
X49784000Y-69215000D02*
X51028900Y-69215000D01*
X84411400Y-125011600D02*
X83375500Y-125011600D01*
X91948000Y-117475000D02*
X84411400Y-125011600D01*
X47244000Y-69215000D02*
X47244000Y-70612300D01*
X47810200Y-71178500D02*
X47810200Y-93877500D01*
X47244000Y-70612300D02*
X47810200Y-71178500D01*
X58704500Y-123552100D02*
X58704500Y-126380000D01*
X50814700Y-115662300D02*
X58704500Y-123552100D01*
X50814700Y-106116000D02*
X50814700Y-115662300D01*
X50415200Y-105716500D02*
X50814700Y-106116000D01*
X50415200Y-105152400D02*
X50415200Y-105716500D01*
X50560500Y-105007100D02*
X50415200Y-105152400D01*
X50560500Y-94178200D02*
X50560500Y-105007100D01*
X50259800Y-93877500D02*
X50560500Y-94178200D01*
X53102000Y-102190800D02*
X53275100Y-102017700D01*
X53102000Y-103582700D02*
X53102000Y-102190800D01*
X54322500Y-104803200D02*
X53102000Y-103582700D01*
X54322500Y-105024900D02*
X54322500Y-104803200D01*
X45302700Y-113533100D02*
X40576800Y-108807200D01*
X45302700Y-115583100D02*
X45302700Y-113533100D01*
X46185200Y-116465600D02*
X45302700Y-115583100D01*
X47306500Y-116465600D02*
X46185200Y-116465600D01*
X48269500Y-115502600D02*
X47306500Y-116465600D01*
X48269500Y-113866600D02*
X48269500Y-115502600D01*
X48890300Y-113245800D02*
X48269500Y-113866600D01*
X48890300Y-102045500D02*
X48890300Y-113245800D01*
X48862500Y-102017700D02*
X48890300Y-102045500D01*
X58312900Y-111869500D02*
X58312900Y-104305000D01*
X55927800Y-114254600D02*
X58312900Y-111869500D01*
X55927800Y-114731800D02*
X55927800Y-114254600D01*
X40576400Y-111582200D02*
X40576400Y-111084300D01*
X45988000Y-116993800D02*
X40576400Y-111582200D01*
X47578100Y-116993800D02*
X45988000Y-116993800D01*
X49088800Y-115483100D02*
X47578100Y-116993800D01*
X49088800Y-114402400D02*
X49088800Y-115483100D01*
X128778000Y-47625000D02*
X127533100Y-47625000D01*
X127533100Y-48091900D02*
X127533100Y-47625000D01*
X126755100Y-48869900D02*
X127533100Y-48091900D01*
X125708800Y-48869900D02*
X126755100Y-48869900D01*
X123762600Y-50816100D02*
X125708800Y-48869900D01*
X123762600Y-51410500D02*
X123762600Y-50816100D01*
X123103100Y-52070000D02*
X123762600Y-51410500D01*
X122670000Y-52070000D02*
X123103100Y-52070000D01*
X123081300Y-49536800D02*
X124993100Y-47625000D01*
X123081300Y-51128300D02*
X123081300Y-49536800D01*
X126238000Y-47625000D02*
X124993100Y-47625000D01*
X128778000Y-50165000D02*
X127533100Y-50165000D01*
X125545000Y-51409900D02*
X122344900Y-54610000D01*
X126755100Y-51409900D02*
X125545000Y-51409900D01*
X127533100Y-50631900D02*
X126755100Y-51409900D01*
X127533100Y-50165000D02*
X127533100Y-50631900D01*
X128778000Y-52705000D02*
X127533100Y-52705000D01*
X125054300Y-53949900D02*
X122341500Y-56662700D01*
X126755100Y-53949900D02*
X125054300Y-53949900D01*
X127533100Y-53171900D02*
X126755100Y-53949900D01*
X127533100Y-52705000D02*
X127533100Y-53171900D01*
X124974700Y-56489900D02*
X122962400Y-58502200D01*
X126755100Y-56489900D02*
X124974700Y-56489900D01*
X127533100Y-55711900D02*
X126755100Y-56489900D01*
X127533100Y-55245000D02*
X127533100Y-55711900D01*
X128778000Y-55245000D02*
X127533100Y-55245000D01*
X126238000Y-60325000D02*
X124993100Y-60325000D01*
X122383600Y-60325000D02*
X119208600Y-57150000D01*
X124993100Y-60325000D02*
X122383600Y-60325000D01*
X128778000Y-62865000D02*
X128778000Y-61620100D01*
X119217900Y-55808000D02*
X119217900Y-55457800D01*
X122593400Y-59183500D02*
X119217900Y-55808000D01*
X123244600Y-59183500D02*
X122593400Y-59183500D01*
X123373000Y-59055100D02*
X123244600Y-59183500D01*
X126789500Y-59055100D02*
X123373000Y-59055100D01*
X127533100Y-59798700D02*
X126789500Y-59055100D01*
X127533100Y-60842100D02*
X127533100Y-59798700D01*
X128311100Y-61620100D02*
X127533100Y-60842100D01*
X128778000Y-61620100D02*
X128311100Y-61620100D01*
X128778000Y-73025000D02*
X127533100Y-73025000D01*
X125103500Y-74269900D02*
X122356100Y-77017300D01*
X126755100Y-74269900D02*
X125103500Y-74269900D01*
X127533100Y-73491900D02*
X126755100Y-74269900D01*
X127533100Y-73025000D02*
X127533100Y-73491900D01*
X124734300Y-76809900D02*
X123156000Y-78388200D01*
X126755100Y-76809900D02*
X124734300Y-76809900D01*
X127533100Y-76031900D02*
X126755100Y-76809900D01*
X127533100Y-75565000D02*
X127533100Y-76031900D01*
X128778000Y-75565000D02*
X127533100Y-75565000D01*
X124618600Y-79349900D02*
X124212000Y-79756500D01*
X126755100Y-79349900D02*
X124618600Y-79349900D01*
X127533100Y-78571900D02*
X126755100Y-79349900D01*
X127533100Y-78105000D02*
X127533100Y-78571900D01*
X128778000Y-78105000D02*
X127533100Y-78105000D01*
X121602200Y-85387000D02*
X121602200Y-89567200D01*
X118800100Y-82584900D02*
X121602200Y-85387000D01*
X126238000Y-83185000D02*
X124993100Y-83185000D01*
X121818100Y-80010000D02*
X124993100Y-83185000D01*
X117991000Y-80010000D02*
X121818100Y-80010000D01*
X122188700Y-78714600D02*
X116713700Y-78714600D01*
X125389100Y-81915000D02*
X122188700Y-78714600D01*
X126789400Y-81915000D02*
X125389100Y-81915000D01*
X127533100Y-82658700D02*
X126789400Y-81915000D01*
X127533100Y-83702100D02*
X127533100Y-82658700D01*
X128311100Y-84480100D02*
X127533100Y-83702100D01*
X128778000Y-84480100D02*
X128311100Y-84480100D01*
X128778000Y-85725000D02*
X128778000Y-84480100D01*
X126238000Y-85725000D02*
X124993100Y-85725000D01*
X119977700Y-80709600D02*
X119248000Y-80709600D01*
X124993100Y-85725000D02*
X119977700Y-80709600D01*
X113288500Y-86995000D02*
X113288500Y-76200000D01*
X126238000Y-88265000D02*
X124993100Y-88265000D01*
X114923800Y-77970400D02*
X114923800Y-75172400D01*
X118857000Y-81903600D02*
X114923800Y-77970400D01*
X119082300Y-81903600D02*
X118857000Y-81903600D01*
X124993100Y-87814400D02*
X119082300Y-81903600D01*
X124993100Y-88265000D02*
X124993100Y-87814400D01*
X123228300Y-99607100D02*
X123228300Y-101216700D01*
X125680400Y-97155000D02*
X123228300Y-99607100D01*
X126729900Y-97155000D02*
X125680400Y-97155000D01*
X127533100Y-97958200D02*
X126729900Y-97155000D01*
X127533100Y-98425000D02*
X127533100Y-97958200D01*
X128778000Y-98425000D02*
X127533100Y-98425000D01*
X130060000Y-102247000D02*
X128778000Y-100965000D01*
X130060000Y-104013200D02*
X130060000Y-102247000D01*
X129323200Y-104750000D02*
X130060000Y-104013200D01*
X128200300Y-104750000D02*
X129323200Y-104750000D01*
X127533000Y-104082700D02*
X128200300Y-104750000D01*
X127533000Y-102971800D02*
X127533000Y-104082700D01*
X126771200Y-102210000D02*
X127533000Y-102971800D01*
X125350200Y-102210000D02*
X126771200Y-102210000D01*
X123669700Y-103890500D02*
X125350200Y-102210000D01*
X128778000Y-103505000D02*
X128778000Y-102260100D01*
X122988400Y-102420000D02*
X122988400Y-106036600D01*
X125713400Y-99695000D02*
X122988400Y-102420000D01*
X126789400Y-99695000D02*
X125713400Y-99695000D01*
X127533100Y-100438700D02*
X126789400Y-99695000D01*
X127533100Y-101482100D02*
X127533100Y-100438700D01*
X128311100Y-102260100D02*
X127533100Y-101482100D01*
X128778000Y-102260100D02*
X128311100Y-102260100D01*
X121358100Y-106762700D02*
X119214600Y-104619200D01*
X123491600Y-106762700D02*
X121358100Y-106762700D01*
X125454300Y-104800000D02*
X123491600Y-106762700D01*
X126820100Y-104800000D02*
X125454300Y-104800000D01*
X127533100Y-105513000D02*
X126820100Y-104800000D01*
X127533100Y-106562100D02*
X127533100Y-105513000D01*
X128311100Y-107340100D02*
X127533100Y-106562100D01*
X128778000Y-107340100D02*
X128311100Y-107340100D01*
X128778000Y-108585000D02*
X128778000Y-107340100D01*
X117919300Y-104316600D02*
X117919300Y-102874800D01*
X124727700Y-111125000D02*
X117919300Y-104316600D01*
X126238000Y-111125000D02*
X124727700Y-111125000D01*
X128778000Y-113665000D02*
X127533100Y-113665000D01*
X117224100Y-102361700D02*
X117397200Y-102188600D01*
X117224100Y-104340200D02*
X117224100Y-102361700D01*
X125304000Y-112420100D02*
X117224100Y-104340200D01*
X126755100Y-112420100D02*
X125304000Y-112420100D01*
X127533100Y-113198100D02*
X126755100Y-112420100D01*
X127533100Y-113665000D02*
X127533100Y-113198100D01*
X126238000Y-113665000D02*
X124993100Y-113665000D01*
X116715800Y-104820100D02*
X116715800Y-101194600D01*
X124993100Y-113097400D02*
X116715800Y-104820100D01*
X124993100Y-113665000D02*
X124993100Y-113097400D01*
X128778000Y-123825000D02*
X127533100Y-123825000D01*
X125548000Y-125069900D02*
X122347900Y-128270000D01*
X126755100Y-125069900D02*
X125548000Y-125069900D01*
X127533100Y-124291900D02*
X126755100Y-125069900D01*
X127533100Y-123825000D02*
X127533100Y-124291900D01*
X128778000Y-126365000D02*
X127533100Y-126365000D01*
X125560200Y-127609900D02*
X122360100Y-130810000D01*
X126755100Y-127609900D02*
X125560200Y-127609900D01*
X127533100Y-126831900D02*
X126755100Y-127609900D01*
X127533100Y-126365000D02*
X127533100Y-126831900D01*
X128778000Y-128905000D02*
X127533100Y-128905000D01*
X125542000Y-130149900D02*
X122341900Y-133350000D01*
X126755100Y-130149900D02*
X125542000Y-130149900D01*
X127533100Y-129371900D02*
X126755100Y-130149900D01*
X127533100Y-128905000D02*
X127533100Y-129371900D01*
X128778000Y-133985000D02*
X127533100Y-133985000D01*
X125611900Y-132715000D02*
X123755900Y-134571000D01*
X126729900Y-132715000D02*
X125611900Y-132715000D01*
X127533100Y-133518200D02*
X126729900Y-132715000D01*
X127533100Y-133985000D02*
X127533100Y-133518200D01*
X122465000Y-135255200D02*
X118019800Y-130810000D01*
X124967800Y-135255200D02*
X122465000Y-135255200D01*
X126238000Y-133985000D02*
X124967800Y-135255200D01*
X116867200Y-131108700D02*
X116867200Y-128449100D01*
X123910400Y-138151900D02*
X116867200Y-131108700D01*
X124517400Y-138151900D02*
X123910400Y-138151900D01*
X126144300Y-136525000D02*
X124517400Y-138151900D01*
X126238000Y-136525000D02*
X126144300Y-136525000D01*
X128778000Y-139065000D02*
X127533100Y-139065000D01*
X127533100Y-138598100D02*
X127533100Y-139065000D01*
X126755100Y-137820100D02*
X127533100Y-138598100D01*
X125567900Y-137820100D02*
X126755100Y-137820100D01*
X124727800Y-138660200D02*
X125567900Y-137820100D01*
X123613200Y-138660200D02*
X124727800Y-138660200D01*
X112935800Y-127982800D02*
X123613200Y-138660200D01*
X112935800Y-127000000D02*
X112935800Y-127982800D01*
X112254400Y-126431900D02*
X112956300Y-125730000D01*
X112254400Y-128020400D02*
X112254400Y-126431900D01*
X123402600Y-139168600D02*
X112254400Y-128020400D01*
X126134400Y-139168600D02*
X123402600Y-139168600D01*
X126238000Y-139065000D02*
X126134400Y-139168600D01*
X151638000Y-50165000D02*
X150393100Y-50165000D01*
X148414800Y-51409900D02*
X145214700Y-54610000D01*
X149615100Y-51409900D02*
X148414800Y-51409900D01*
X150393100Y-50631900D02*
X149615100Y-51409900D01*
X150393100Y-50165000D02*
X150393100Y-50631900D01*
X151638000Y-52705000D02*
X150393100Y-52705000D01*
X148093100Y-53975000D02*
X145676800Y-56391300D01*
X149638900Y-53975000D02*
X148093100Y-53975000D01*
X150393100Y-53220800D02*
X149638900Y-53975000D01*
X150393100Y-52705000D02*
X150393100Y-53220800D01*
X151638000Y-55245000D02*
X150393100Y-55245000D01*
X147594400Y-56489900D02*
X146892600Y-57191700D01*
X149615100Y-56489900D02*
X147594400Y-56489900D01*
X150393100Y-55711900D02*
X149615100Y-56489900D01*
X150393100Y-55245000D02*
X150393100Y-55711900D01*
X151638000Y-60325000D02*
X150393100Y-60325000D01*
X138228500Y-56804600D02*
X138228500Y-58387500D01*
X139845000Y-55188100D02*
X138228500Y-56804600D01*
X143489700Y-55188100D02*
X139845000Y-55188100D01*
X147381700Y-59080100D02*
X143489700Y-55188100D01*
X149615100Y-59080100D02*
X147381700Y-59080100D01*
X150393100Y-59858100D02*
X149615100Y-59080100D01*
X150393100Y-60325000D02*
X150393100Y-59858100D01*
X148403600Y-64135000D02*
X140148600Y-55880000D01*
X149589900Y-64135000D02*
X148403600Y-64135000D01*
X150393100Y-63331800D02*
X149589900Y-64135000D01*
X150393100Y-62865000D02*
X150393100Y-63331800D01*
X151638000Y-62865000D02*
X150393100Y-62865000D01*
X151638000Y-73025000D02*
X150393100Y-73025000D01*
X148050600Y-74269900D02*
X145225500Y-77095000D01*
X149615100Y-74269900D02*
X148050600Y-74269900D01*
X150393100Y-73491900D02*
X149615100Y-74269900D01*
X150393100Y-73025000D02*
X150393100Y-73491900D01*
X147573600Y-76809900D02*
X146383300Y-78000200D01*
X149615100Y-76809900D02*
X147573600Y-76809900D01*
X150393100Y-76031900D02*
X149615100Y-76809900D01*
X150393100Y-75565000D02*
X150393100Y-76031900D01*
X151638000Y-75565000D02*
X150393100Y-75565000D01*
X147591700Y-79349900D02*
X147301700Y-79639900D01*
X149615100Y-79349900D02*
X147591700Y-79349900D01*
X150393100Y-78571900D02*
X149615100Y-79349900D01*
X150393100Y-78105000D02*
X150393100Y-78571900D01*
X151638000Y-78105000D02*
X150393100Y-78105000D01*
X149098000Y-83185000D02*
X147853100Y-83185000D01*
X144678100Y-80010000D02*
X142068600Y-80010000D01*
X147853100Y-83185000D02*
X144678100Y-80010000D01*
X145411300Y-78740000D02*
X142065600Y-78740000D01*
X148586300Y-81915000D02*
X145411300Y-78740000D01*
X149649400Y-81915000D02*
X148586300Y-81915000D01*
X150343000Y-82608600D02*
X149649400Y-81915000D01*
X150343000Y-83651800D02*
X150343000Y-82608600D01*
X151171300Y-84480100D02*
X150343000Y-83651800D01*
X151638000Y-84480100D02*
X151171300Y-84480100D01*
X151638000Y-85725000D02*
X151638000Y-84480100D01*
X139360900Y-79015900D02*
X139360900Y-77801000D01*
X146070000Y-85725000D02*
X139360900Y-79015900D01*
X149098000Y-85725000D02*
X146070000Y-85725000D01*
X140199600Y-79135900D02*
X140199600Y-76200000D01*
X145518700Y-84455000D02*
X140199600Y-79135900D01*
X149649400Y-84455000D02*
X145518700Y-84455000D01*
X150393100Y-85198700D02*
X149649400Y-84455000D01*
X150393100Y-86242100D02*
X150393100Y-85198700D01*
X151171100Y-87020100D02*
X150393100Y-86242100D01*
X151638000Y-87020100D02*
X151171100Y-87020100D01*
X151638000Y-88265000D02*
X151638000Y-87020100D01*
X149098000Y-88265000D02*
X149098000Y-87020100D01*
X136955100Y-77328900D02*
X136955100Y-74930000D01*
X146646300Y-87020100D02*
X136955100Y-77328900D01*
X149098000Y-87020100D02*
X146646300Y-87020100D01*
X151638000Y-98425000D02*
X150393100Y-98425000D01*
X147873700Y-99669900D02*
X145200700Y-102342900D01*
X149615100Y-99669900D02*
X147873700Y-99669900D01*
X150393100Y-98891900D02*
X149615100Y-99669900D01*
X150393100Y-98425000D02*
X150393100Y-98891900D01*
X151638000Y-100965000D02*
X150393100Y-100965000D01*
X147871600Y-102209900D02*
X145703900Y-104377600D01*
X149615100Y-102209900D02*
X147871600Y-102209900D01*
X150393100Y-101431900D02*
X149615100Y-102209900D01*
X150393100Y-100965000D02*
X150393100Y-101431900D01*
X147568300Y-104749900D02*
X147117500Y-105200700D01*
X149615100Y-104749900D02*
X147568300Y-104749900D01*
X150393100Y-103971900D02*
X149615100Y-104749900D01*
X150393100Y-103505000D02*
X150393100Y-103971900D01*
X151638000Y-103505000D02*
X150393100Y-103505000D01*
X149098000Y-108585000D02*
X147853100Y-108585000D01*
X144678100Y-105410000D02*
X142059400Y-105410000D01*
X147853100Y-108585000D02*
X144678100Y-105410000D01*
X151638000Y-111125000D02*
X151638000Y-109880100D01*
X144728500Y-104536600D02*
X142068000Y-104536600D01*
X147506900Y-107315000D02*
X144728500Y-104536600D01*
X149649400Y-107315000D02*
X147506900Y-107315000D01*
X150393100Y-108058700D02*
X149649400Y-107315000D01*
X150393100Y-109102100D02*
X150393100Y-108058700D01*
X151171100Y-109880100D02*
X150393100Y-109102100D01*
X151638000Y-109880100D02*
X151171100Y-109880100D01*
X149098000Y-111125000D02*
X147853100Y-111125000D01*
X141049500Y-105396400D02*
X141049500Y-102870000D01*
X146778100Y-111125000D02*
X141049500Y-105396400D01*
X147853100Y-111125000D02*
X146778100Y-111125000D01*
X149098000Y-113665000D02*
X149098000Y-112420100D01*
X147354400Y-112420100D02*
X149098000Y-112420100D01*
X135983100Y-101048800D02*
X147354400Y-112420100D01*
X135983100Y-100330000D02*
X135983100Y-101048800D01*
X147613900Y-125069900D02*
X146769400Y-125914400D01*
X149615100Y-125069900D02*
X147613900Y-125069900D01*
X150393100Y-124291900D02*
X149615100Y-125069900D01*
X150393100Y-123825000D02*
X150393100Y-124291900D01*
X151638000Y-123825000D02*
X150393100Y-123825000D01*
X146152700Y-137795000D02*
X142048600Y-133690900D01*
X152138300Y-137795000D02*
X146152700Y-137795000D01*
X152933000Y-137000300D02*
X152138300Y-137795000D01*
X152933000Y-128438100D02*
X152933000Y-137000300D01*
X152104800Y-127609900D02*
X152933000Y-128438100D01*
X151638000Y-127609900D02*
X152104800Y-127609900D01*
X151638000Y-126365000D02*
X151638000Y-127609900D01*
X147491800Y-128662100D02*
X147491800Y-129443400D01*
X148493900Y-127660000D02*
X147491800Y-128662100D01*
X149614900Y-127660000D02*
X148493900Y-127660000D01*
X150393100Y-128438200D02*
X149614900Y-127660000D01*
X150393100Y-128905000D02*
X150393100Y-128438200D01*
X151638000Y-128905000D02*
X150393100Y-128905000D01*
X142093200Y-130175000D02*
X141845100Y-130423100D01*
X149649400Y-130175000D02*
X142093200Y-130175000D01*
X150343000Y-130868600D02*
X149649400Y-130175000D01*
X150343000Y-131911800D02*
X150343000Y-130868600D01*
X151171300Y-132740100D02*
X150343000Y-131911800D01*
X151638000Y-132740100D02*
X151171300Y-132740100D01*
X151638000Y-133985000D02*
X151638000Y-132740100D01*
X143326500Y-133985000D02*
X140151500Y-130810000D01*
X149098000Y-133985000D02*
X143326500Y-133985000D01*
X151638000Y-136525000D02*
X151638000Y-135280100D01*
X141163800Y-130705100D02*
X141163800Y-129540000D01*
X143173700Y-132715000D02*
X141163800Y-130705100D01*
X149649400Y-132715000D02*
X143173700Y-132715000D01*
X150393100Y-133458700D02*
X149649400Y-132715000D01*
X150393100Y-134502100D02*
X150393100Y-133458700D01*
X151171100Y-135280100D02*
X150393100Y-134502100D01*
X151638000Y-135280100D02*
X151171100Y-135280100D01*
X62653200Y-96126800D02*
X62711000Y-96069000D01*
X61876500Y-96126800D02*
X62653200Y-96126800D01*
X54752200Y-103251100D02*
X61876500Y-96126800D01*
X67001200Y-97431600D02*
X67206700Y-97226100D01*
X61431100Y-97431600D02*
X67001200Y-97431600D01*
X55475400Y-103387300D02*
X61431100Y-97431600D01*
X55475400Y-103937100D02*
X55475400Y-103387300D01*
X47047900Y-101816800D02*
X46959700Y-101905000D01*
X47047900Y-78259900D02*
X47047900Y-101816800D01*
X46324300Y-77536300D02*
X47047900Y-78259900D01*
X42843400Y-101254500D02*
X42843400Y-88674700D01*
X63424100Y-95653800D02*
X57324500Y-89554200D01*
X63424100Y-96750300D02*
X63424100Y-95653800D01*
X57547900Y-102278200D02*
X57547900Y-111174400D01*
X60443900Y-99382200D02*
X57547900Y-102278200D01*
X43762200Y-100154400D02*
X44298100Y-100690300D01*
X43762200Y-82771300D02*
X43762200Y-100154400D01*
X53783400Y-103282600D02*
X53783400Y-102899700D01*
X56737400Y-106236600D02*
X53783400Y-103282600D01*
X56737400Y-111883500D02*
X56737400Y-106236600D01*
X114290800Y-124460000D02*
X114290800Y-117587700D01*
X110226000Y-76488600D02*
X116311100Y-70403500D01*
X110226000Y-92778100D02*
X110226000Y-76488600D01*
X114154600Y-94721100D02*
X114154600Y-100513300D01*
X114290800Y-94584900D02*
X114154600Y-94721100D01*
X114290800Y-100649500D02*
X114290800Y-117587700D01*
X114154600Y-100513300D02*
X114290800Y-100649500D01*
X117823800Y-68890800D02*
X116311100Y-70403500D01*
X117823800Y-50800000D02*
X117823800Y-68890800D01*
X131736100Y-46372700D02*
X136581700Y-51218300D01*
X117823800Y-46372700D02*
X131736100Y-46372700D01*
X117823800Y-46372700D02*
X117823800Y-50800000D01*
X114584600Y-46372700D02*
X114037400Y-45825500D01*
X117823800Y-46372700D02*
X114584600Y-46372700D01*
X141344000Y-107404300D02*
X137773200Y-103833500D01*
X141344000Y-116748500D02*
X141344000Y-107404300D01*
X140788000Y-117304500D02*
X141344000Y-116748500D01*
X131396300Y-56403700D02*
X136581700Y-51218300D01*
X131396300Y-66083100D02*
X131396300Y-56403700D01*
X72497800Y-73423200D02*
X77846900Y-78772300D01*
X72497800Y-57864100D02*
X72497800Y-73423200D01*
X72532500Y-57829400D02*
X72497800Y-57864100D01*
X47206900Y-115777500D02*
X46491300Y-115777500D01*
X47761200Y-115223200D02*
X47206900Y-115777500D01*
X47761200Y-111291200D02*
X47761200Y-115223200D01*
X48382000Y-110670400D02*
X47761200Y-111291200D01*
X48382000Y-103126000D02*
X48382000Y-110670400D01*
X48125100Y-102869100D02*
X48382000Y-103126000D01*
X48125100Y-100736500D02*
X48125100Y-102869100D01*
X119512500Y-72094600D02*
X119512500Y-66964500D01*
X119217100Y-72390000D02*
X119512500Y-72094600D01*
X131969000Y-66964500D02*
X119512500Y-66964500D01*
X118523000Y-50204800D02*
X119197800Y-49530000D01*
X118523000Y-60685500D02*
X118523000Y-50204800D01*
X119512500Y-61675000D02*
X118523000Y-60685500D01*
X119512500Y-66964500D02*
X119512500Y-61675000D01*
X116742500Y-72390000D02*
X119217100Y-72390000D01*
X114210000Y-74922500D02*
X116742500Y-72390000D01*
X114210000Y-79991800D02*
X114210000Y-74922500D01*
X118713500Y-84495300D02*
X114210000Y-79991800D01*
X118713500Y-91110600D02*
X118713500Y-84495300D01*
X75542300Y-89348200D02*
X77871300Y-89348200D01*
X74653000Y-88458900D02*
X75542300Y-89348200D01*
X74653000Y-87751100D02*
X74653000Y-88458900D01*
X78535600Y-83868500D02*
X74653000Y-87751100D01*
X78535600Y-78076400D02*
X78535600Y-83868500D01*
X76073000Y-75613800D02*
X78535600Y-78076400D01*
X124475700Y-96148000D02*
X122752500Y-97871200D01*
X124475700Y-92315100D02*
X124475700Y-96148000D01*
X119059500Y-117985800D02*
X119945000Y-117985800D01*
X119059500Y-123190000D02*
X119059500Y-117985800D01*
X119045600Y-97871200D02*
X122752500Y-97871200D01*
X116016900Y-100899900D02*
X119045600Y-97871200D01*
X116016900Y-111842100D02*
X116016900Y-100899900D01*
X119059500Y-114884700D02*
X116016900Y-111842100D01*
X119059500Y-117985800D02*
X119059500Y-114884700D01*
X140616200Y-48147300D02*
X140616200Y-47557600D01*
X132179500Y-56584000D02*
X140616200Y-48147300D01*
X132179500Y-66754000D02*
X132179500Y-56584000D01*
X131969000Y-66964500D02*
X132179500Y-66754000D01*
X75438000Y-74978800D02*
X76073000Y-75613800D01*
X75438000Y-68508400D02*
X75438000Y-74978800D01*
X74005900Y-67076300D02*
X75438000Y-68508400D01*
X74005900Y-63538600D02*
X74005900Y-67076300D01*
X73694100Y-63226800D02*
X74005900Y-63538600D01*
X73694100Y-58594800D02*
X73694100Y-63226800D01*
X73867100Y-58421800D02*
X73694100Y-58594800D01*
X56147700Y-58935100D02*
X56947800Y-58135000D01*
X56147700Y-69909100D02*
X56147700Y-58935100D01*
X48523700Y-77533100D02*
X56147700Y-69909100D01*
X48523700Y-99438900D02*
X48523700Y-77533100D01*
X49102100Y-100017300D02*
X48523700Y-99438900D01*
X49222600Y-100017300D02*
X49102100Y-100017300D01*
X53161200Y-120079700D02*
X53161200Y-125584500D01*
X49752000Y-116670500D02*
X53161200Y-120079700D01*
X49794300Y-116628200D02*
X49752000Y-116670500D01*
X49794300Y-106533300D02*
X49794300Y-116628200D01*
X49398600Y-106137600D02*
X49794300Y-106533300D01*
X49398600Y-104731400D02*
X49398600Y-106137600D01*
X49543900Y-104586100D02*
X49398600Y-104731400D01*
X49543900Y-100338600D02*
X49543900Y-104586100D01*
X49222600Y-100017300D02*
X49543900Y-100338600D01*
X43871000Y-120086000D02*
X42324600Y-120086000D01*
X45831700Y-118125300D02*
X43871000Y-120086000D01*
X48297200Y-118125300D02*
X45831700Y-118125300D01*
X49752000Y-116670500D02*
X48297200Y-118125300D01*
X84963000Y-127464300D02*
X93944300Y-118483000D01*
X84963000Y-129475700D02*
X84963000Y-127464300D01*
X119183200Y-94534900D02*
X119183200Y-94115800D01*
X115381600Y-98336500D02*
X119183200Y-94534900D01*
X114853500Y-116239600D02*
X117770600Y-119156700D01*
X114853500Y-98864600D02*
X114853500Y-116239600D01*
X115381600Y-98336500D02*
X114853500Y-98864600D01*
X49481500Y-99124100D02*
X49216900Y-99124100D01*
X63754000Y-77529000D02*
X63754000Y-68090900D01*
X70775500Y-84550500D02*
X63754000Y-77529000D01*
X63754000Y-68090900D02*
X65057400Y-66787500D01*
X63465900Y-67802800D02*
X61297100Y-67802800D01*
X63754000Y-68090900D02*
X63465900Y-67802800D01*
X61189000Y-67910900D02*
X61297100Y-67802800D01*
X61189000Y-69888700D02*
X61189000Y-67910900D01*
X49481500Y-81596200D02*
X61189000Y-69888700D01*
X49481500Y-99124100D02*
X49481500Y-81596200D01*
X61297100Y-67802800D02*
X61297100Y-62938900D01*
X82694200Y-127206900D02*
X84963000Y-129475700D01*
X82694200Y-124729500D02*
X82694200Y-127206900D01*
X83058000Y-124365700D02*
X82694200Y-124729500D01*
X83058000Y-108448700D02*
X83058000Y-124365700D01*
X56431500Y-122357300D02*
X56431500Y-130903700D01*
X50302700Y-116228500D02*
X56431500Y-122357300D01*
X50302700Y-106322900D02*
X50302700Y-116228500D01*
X49906900Y-105927100D02*
X50302700Y-106322900D01*
X49906900Y-104941900D02*
X49906900Y-105927100D01*
X50052200Y-104796600D02*
X49906900Y-104941900D01*
X50052200Y-99694800D02*
X50052200Y-104796600D01*
X49481500Y-99124100D02*
X50052200Y-99694800D01*
X134398300Y-97922600D02*
X135800900Y-96520000D01*
X134398300Y-111314600D02*
X134398300Y-97922600D01*
X132229500Y-113483400D02*
X134398300Y-111314600D01*
X132229500Y-119436700D02*
X132229500Y-113483400D01*
X136001700Y-79035700D02*
X136001700Y-72101800D01*
X136489100Y-79523100D02*
X136001700Y-79035700D01*
X136489100Y-95831800D02*
X136489100Y-79523100D01*
X135800900Y-96520000D02*
X136489100Y-95831800D01*
X81615800Y-108531000D02*
X80518000Y-108531000D01*
X71590300Y-99327800D02*
X72610400Y-98307700D01*
X71590300Y-100758300D02*
X71590300Y-99327800D01*
X71420000Y-100928600D02*
X71590300Y-100758300D01*
X71420000Y-101863700D02*
X71420000Y-100928600D01*
X78087300Y-108531000D02*
X71420000Y-101863700D01*
X80518000Y-108531000D02*
X78087300Y-108531000D01*
X61816600Y-131341900D02*
X61816600Y-127872800D01*
X80518000Y-67126300D02*
X82619300Y-65025000D01*
X80518000Y-83038200D02*
X80518000Y-67126300D01*
X75358200Y-88198000D02*
X80518000Y-83038200D01*
X80518000Y-128325200D02*
X80518000Y-108531000D01*
X80834600Y-128641800D02*
X80518000Y-128325200D01*
X114940700Y-49758900D02*
X113839800Y-48658000D01*
X114940700Y-68169500D02*
X114940700Y-49758900D01*
X82619300Y-64359500D02*
X82619300Y-65025000D01*
X95543800Y-51435000D02*
X82619300Y-64359500D01*
X111062800Y-51435000D02*
X95543800Y-51435000D01*
X113839800Y-48658000D02*
X111062800Y-51435000D01*
X41373500Y-128914800D02*
X41373500Y-127778400D01*
X40794300Y-129494000D02*
X41373500Y-128914800D01*
X39881300Y-126286200D02*
X39881300Y-104186300D01*
X41373500Y-127778400D02*
X39881300Y-126286200D01*
X41373500Y-127778400D02*
X43741900Y-127778400D01*
X55429400Y-85605700D02*
X54748100Y-86287000D01*
X56601400Y-85605700D02*
X55429400Y-85605700D01*
X67888000Y-96892300D02*
X56601400Y-85605700D01*
X67888000Y-97907500D02*
X67888000Y-96892300D01*
X65080100Y-100715400D02*
X67888000Y-97907500D01*
X65080100Y-106834000D02*
X65080100Y-100715400D01*
X64081500Y-107832600D02*
X65080100Y-106834000D01*
X45763900Y-86225200D02*
X45763900Y-98485000D01*
X45317400Y-85778700D02*
X45763900Y-86225200D01*
M02*
