G04 #@! TF.FileFunction,Soldermask,Bot*
%FSLAX46Y46*%
G04 Gerber Fmt 4.6, Leading zero omitted, Abs format (unit mm)*
G04 Created by KiCad (PCBNEW 4.0.1-stable) date 2016-05-03 14:33:49*
%MOMM*%
G01*
G04 APERTURE LIST*
%ADD10C,0.100000*%
%ADD11O,1.727200X2.032000*%
%ADD12C,4.064000*%
%ADD13R,1.727200X1.727200*%
%ADD14O,1.727200X1.727200*%
%ADD15O,0.950000X1.250000*%
%ADD16O,1.550000X1.000000*%
G04 APERTURE END LIST*
D10*
D11*
X56388000Y-117475000D03*
X58928000Y-117475000D03*
X61468000Y-117475000D03*
X64008000Y-117475000D03*
X66548000Y-117475000D03*
X69088000Y-117475000D03*
X71628000Y-117475000D03*
X74168000Y-117475000D03*
X79248000Y-117475000D03*
X81788000Y-117475000D03*
X84328000Y-117475000D03*
X86868000Y-117475000D03*
X89408000Y-117475000D03*
X91948000Y-117475000D03*
X47244000Y-69215000D03*
X49784000Y-69215000D03*
X52324000Y-69215000D03*
X54864000Y-69215000D03*
X57404000Y-69215000D03*
X59944000Y-69215000D03*
X62484000Y-69215000D03*
X65024000Y-69215000D03*
X67564000Y-69215000D03*
X70104000Y-69215000D03*
X74168000Y-69215000D03*
X76708000Y-69215000D03*
X79248000Y-69215000D03*
X81788000Y-69215000D03*
X84328000Y-69215000D03*
X86868000Y-69215000D03*
X89408000Y-69215000D03*
X91948000Y-69215000D03*
D12*
X42418000Y-117475000D03*
X94488000Y-112395000D03*
X43688000Y-69215000D03*
X94488000Y-84455000D03*
D13*
X32258000Y-47625000D03*
D14*
X32258000Y-50165000D03*
X34798000Y-47625000D03*
X34798000Y-50165000D03*
X37338000Y-47625000D03*
X37338000Y-50165000D03*
X39878000Y-47625000D03*
X39878000Y-50165000D03*
X42418000Y-47625000D03*
X42418000Y-50165000D03*
X44958000Y-47625000D03*
X44958000Y-50165000D03*
X47498000Y-47625000D03*
X47498000Y-50165000D03*
X50038000Y-47625000D03*
X50038000Y-50165000D03*
D13*
X60198000Y-47625000D03*
D14*
X60198000Y-50165000D03*
X62738000Y-47625000D03*
X62738000Y-50165000D03*
X65278000Y-47625000D03*
X65278000Y-50165000D03*
X67818000Y-47625000D03*
X67818000Y-50165000D03*
X70358000Y-47625000D03*
X70358000Y-50165000D03*
X72898000Y-47625000D03*
X72898000Y-50165000D03*
X75438000Y-47625000D03*
X75438000Y-50165000D03*
X77978000Y-47625000D03*
X77978000Y-50165000D03*
D13*
X50038000Y-139065000D03*
D14*
X50038000Y-136525000D03*
X47498000Y-139065000D03*
X47498000Y-136525000D03*
X44958000Y-139065000D03*
X44958000Y-136525000D03*
X42418000Y-139065000D03*
X42418000Y-136525000D03*
X39878000Y-139065000D03*
X39878000Y-136525000D03*
X37338000Y-139065000D03*
X37338000Y-136525000D03*
X34798000Y-139065000D03*
X34798000Y-136525000D03*
X32258000Y-139065000D03*
X32258000Y-136525000D03*
D13*
X77978000Y-139065000D03*
D14*
X77978000Y-136525000D03*
X75438000Y-139065000D03*
X75438000Y-136525000D03*
X72898000Y-139065000D03*
X72898000Y-136525000D03*
X70358000Y-139065000D03*
X70358000Y-136525000D03*
X67818000Y-139065000D03*
X67818000Y-136525000D03*
X65278000Y-139065000D03*
X65278000Y-136525000D03*
X62738000Y-139065000D03*
X62738000Y-136525000D03*
X60198000Y-139065000D03*
X60198000Y-136525000D03*
D13*
X30988000Y-104775000D03*
D14*
X33528000Y-104775000D03*
X30988000Y-102235000D03*
X33528000Y-102235000D03*
X30988000Y-99695000D03*
X33528000Y-99695000D03*
X30988000Y-97155000D03*
X33528000Y-97155000D03*
X30988000Y-94615000D03*
X33528000Y-94615000D03*
D13*
X105918000Y-47625000D03*
D14*
X103378000Y-47625000D03*
X105918000Y-50165000D03*
X103378000Y-50165000D03*
X105918000Y-52705000D03*
X103378000Y-52705000D03*
X105918000Y-55245000D03*
X103378000Y-55245000D03*
X105918000Y-57785000D03*
X103378000Y-57785000D03*
X105918000Y-60325000D03*
X103378000Y-60325000D03*
X105918000Y-62865000D03*
X103378000Y-62865000D03*
X105918000Y-65405000D03*
X103378000Y-65405000D03*
D13*
X105918000Y-70485000D03*
D14*
X103378000Y-70485000D03*
X105918000Y-73025000D03*
X103378000Y-73025000D03*
X105918000Y-75565000D03*
X103378000Y-75565000D03*
X105918000Y-78105000D03*
X103378000Y-78105000D03*
X105918000Y-80645000D03*
X103378000Y-80645000D03*
X105918000Y-83185000D03*
X103378000Y-83185000D03*
X105918000Y-85725000D03*
X103378000Y-85725000D03*
X105918000Y-88265000D03*
X103378000Y-88265000D03*
D13*
X105918000Y-95885000D03*
D14*
X103378000Y-95885000D03*
X105918000Y-98425000D03*
X103378000Y-98425000D03*
X105918000Y-100965000D03*
X103378000Y-100965000D03*
X105918000Y-103505000D03*
X103378000Y-103505000D03*
X105918000Y-106045000D03*
X103378000Y-106045000D03*
X105918000Y-108585000D03*
X103378000Y-108585000D03*
X105918000Y-111125000D03*
X103378000Y-111125000D03*
X105918000Y-113665000D03*
X103378000Y-113665000D03*
D13*
X105918000Y-121285000D03*
D14*
X103378000Y-121285000D03*
X105918000Y-123825000D03*
X103378000Y-123825000D03*
X105918000Y-126365000D03*
X103378000Y-126365000D03*
X105918000Y-128905000D03*
X103378000Y-128905000D03*
X105918000Y-131445000D03*
X103378000Y-131445000D03*
X105918000Y-133985000D03*
X103378000Y-133985000D03*
X105918000Y-136525000D03*
X103378000Y-136525000D03*
X105918000Y-139065000D03*
X103378000Y-139065000D03*
D15*
X33820540Y-111164100D03*
X33820540Y-116164100D03*
D16*
X31120540Y-110164100D03*
X31120540Y-117164100D03*
D13*
X128778000Y-47625000D03*
D14*
X126238000Y-47625000D03*
X128778000Y-50165000D03*
X126238000Y-50165000D03*
X128778000Y-52705000D03*
X126238000Y-52705000D03*
X128778000Y-55245000D03*
X126238000Y-55245000D03*
X128778000Y-57785000D03*
X126238000Y-57785000D03*
X128778000Y-60325000D03*
X126238000Y-60325000D03*
X128778000Y-62865000D03*
X126238000Y-62865000D03*
X128778000Y-65405000D03*
X126238000Y-65405000D03*
D13*
X128778000Y-70485000D03*
D14*
X126238000Y-70485000D03*
X128778000Y-73025000D03*
X126238000Y-73025000D03*
X128778000Y-75565000D03*
X126238000Y-75565000D03*
X128778000Y-78105000D03*
X126238000Y-78105000D03*
X128778000Y-80645000D03*
X126238000Y-80645000D03*
X128778000Y-83185000D03*
X126238000Y-83185000D03*
X128778000Y-85725000D03*
X126238000Y-85725000D03*
X128778000Y-88265000D03*
X126238000Y-88265000D03*
D13*
X128778000Y-95885000D03*
D14*
X126238000Y-95885000D03*
X128778000Y-98425000D03*
X126238000Y-98425000D03*
X128778000Y-100965000D03*
X126238000Y-100965000D03*
X128778000Y-103505000D03*
X126238000Y-103505000D03*
X128778000Y-106045000D03*
X126238000Y-106045000D03*
X128778000Y-108585000D03*
X126238000Y-108585000D03*
X128778000Y-111125000D03*
X126238000Y-111125000D03*
X128778000Y-113665000D03*
X126238000Y-113665000D03*
D13*
X128778000Y-121285000D03*
D14*
X126238000Y-121285000D03*
X128778000Y-123825000D03*
X126238000Y-123825000D03*
X128778000Y-126365000D03*
X126238000Y-126365000D03*
X128778000Y-128905000D03*
X126238000Y-128905000D03*
X128778000Y-131445000D03*
X126238000Y-131445000D03*
X128778000Y-133985000D03*
X126238000Y-133985000D03*
X128778000Y-136525000D03*
X126238000Y-136525000D03*
X128778000Y-139065000D03*
X126238000Y-139065000D03*
D13*
X151638000Y-47625000D03*
D14*
X149098000Y-47625000D03*
X151638000Y-50165000D03*
X149098000Y-50165000D03*
X151638000Y-52705000D03*
X149098000Y-52705000D03*
X151638000Y-55245000D03*
X149098000Y-55245000D03*
X151638000Y-57785000D03*
X149098000Y-57785000D03*
X151638000Y-60325000D03*
X149098000Y-60325000D03*
X151638000Y-62865000D03*
X149098000Y-62865000D03*
X151638000Y-65405000D03*
X149098000Y-65405000D03*
D13*
X151638000Y-70485000D03*
D14*
X149098000Y-70485000D03*
X151638000Y-73025000D03*
X149098000Y-73025000D03*
X151638000Y-75565000D03*
X149098000Y-75565000D03*
X151638000Y-78105000D03*
X149098000Y-78105000D03*
X151638000Y-80645000D03*
X149098000Y-80645000D03*
X151638000Y-83185000D03*
X149098000Y-83185000D03*
X151638000Y-85725000D03*
X149098000Y-85725000D03*
X151638000Y-88265000D03*
X149098000Y-88265000D03*
D13*
X151638000Y-95885000D03*
D14*
X149098000Y-95885000D03*
X151638000Y-98425000D03*
X149098000Y-98425000D03*
X151638000Y-100965000D03*
X149098000Y-100965000D03*
X151638000Y-103505000D03*
X149098000Y-103505000D03*
X151638000Y-106045000D03*
X149098000Y-106045000D03*
X151638000Y-108585000D03*
X149098000Y-108585000D03*
X151638000Y-111125000D03*
X149098000Y-111125000D03*
X151638000Y-113665000D03*
X149098000Y-113665000D03*
D13*
X151638000Y-121285000D03*
D14*
X149098000Y-121285000D03*
X151638000Y-123825000D03*
X149098000Y-123825000D03*
X151638000Y-126365000D03*
X149098000Y-126365000D03*
X151638000Y-128905000D03*
X149098000Y-128905000D03*
X151638000Y-131445000D03*
X149098000Y-131445000D03*
X151638000Y-133985000D03*
X149098000Y-133985000D03*
X151638000Y-136525000D03*
X149098000Y-136525000D03*
X151638000Y-139065000D03*
X149098000Y-139065000D03*
M02*
