G04 #@! TF.FileFunction,Soldermask,Top*
%FSLAX46Y46*%
G04 Gerber Fmt 4.6, Leading zero omitted, Abs format (unit mm)*
G04 Created by KiCad (PCBNEW 4.0.1-stable) date 2016-06-03 18:52:32*
%MOMM*%
G01*
G04 APERTURE LIST*
%ADD10C,0.100000*%
%ADD11R,2.000000X0.600000*%
%ADD12O,1.727200X2.032000*%
%ADD13C,4.064000*%
%ADD14R,1.727200X1.727200*%
%ADD15O,1.727200X1.727200*%
%ADD16R,0.600000X1.550000*%
%ADD17R,0.800100X1.800860*%
%ADD18R,0.900000X1.200000*%
%ADD19R,1.200000X2.000000*%
G04 APERTURE END LIST*
D10*
D11*
X99948000Y-98425000D03*
X99948000Y-99695000D03*
X99948000Y-100965000D03*
X99948000Y-102235000D03*
X99948000Y-103505000D03*
X99948000Y-104775000D03*
X99948000Y-106045000D03*
X99948000Y-107315000D03*
X99948000Y-108585000D03*
X99948000Y-109855000D03*
X99948000Y-111125000D03*
X99948000Y-112395000D03*
X109348000Y-112395000D03*
X109348000Y-111125000D03*
X109348000Y-109855000D03*
X109348000Y-108585000D03*
X109348000Y-107315000D03*
X109348000Y-106045000D03*
X109348000Y-104775000D03*
X109348000Y-103505000D03*
X109348000Y-102235000D03*
X109348000Y-100965000D03*
X109348000Y-99695000D03*
X109348000Y-98425000D03*
D12*
X56388000Y-117475000D03*
X58928000Y-117475000D03*
X61468000Y-117475000D03*
X64008000Y-117475000D03*
X66548000Y-117475000D03*
X69088000Y-117475000D03*
X71628000Y-117475000D03*
X74168000Y-117475000D03*
X79248000Y-117475000D03*
X81788000Y-117475000D03*
X84328000Y-117475000D03*
X86868000Y-117475000D03*
X89408000Y-117475000D03*
X91948000Y-117475000D03*
X47244000Y-69215000D03*
X49784000Y-69215000D03*
X52324000Y-69215000D03*
X54864000Y-69215000D03*
X57404000Y-69215000D03*
X59944000Y-69215000D03*
X62484000Y-69215000D03*
X65024000Y-69215000D03*
X67564000Y-69215000D03*
X70104000Y-69215000D03*
X74168000Y-69215000D03*
X76708000Y-69215000D03*
X79248000Y-69215000D03*
X81788000Y-69215000D03*
X84328000Y-69215000D03*
X86868000Y-69215000D03*
X89408000Y-69215000D03*
X91948000Y-69215000D03*
D13*
X42418000Y-117475000D03*
X94488000Y-112395000D03*
X43688000Y-69215000D03*
X94488000Y-84455000D03*
D14*
X35433000Y-56515000D03*
D15*
X35433000Y-53975000D03*
X37973000Y-56515000D03*
X37973000Y-53975000D03*
X40513000Y-56515000D03*
X40513000Y-53975000D03*
X43053000Y-56515000D03*
X43053000Y-53975000D03*
X45593000Y-56515000D03*
X45593000Y-53975000D03*
X48133000Y-56515000D03*
X48133000Y-53975000D03*
X50673000Y-56515000D03*
X50673000Y-53975000D03*
X53213000Y-56515000D03*
X53213000Y-53975000D03*
D14*
X65913000Y-56515000D03*
D15*
X65913000Y-53975000D03*
X68453000Y-56515000D03*
X68453000Y-53975000D03*
X70993000Y-56515000D03*
X70993000Y-53975000D03*
X73533000Y-56515000D03*
X73533000Y-53975000D03*
X76073000Y-56515000D03*
X76073000Y-53975000D03*
X78613000Y-56515000D03*
X78613000Y-53975000D03*
X81153000Y-56515000D03*
X81153000Y-53975000D03*
X83693000Y-56515000D03*
X83693000Y-53975000D03*
D14*
X96393000Y-56515000D03*
D15*
X96393000Y-53975000D03*
X98933000Y-56515000D03*
X98933000Y-53975000D03*
X101473000Y-56515000D03*
X101473000Y-53975000D03*
X104013000Y-56515000D03*
X104013000Y-53975000D03*
X106553000Y-56515000D03*
X106553000Y-53975000D03*
X109093000Y-56515000D03*
X109093000Y-53975000D03*
X111633000Y-56515000D03*
X111633000Y-53975000D03*
X114173000Y-56515000D03*
X114173000Y-53975000D03*
D16*
X34798000Y-77945000D03*
X33528000Y-77945000D03*
X32258000Y-77945000D03*
X30988000Y-77945000D03*
X30988000Y-83345000D03*
X32258000Y-83345000D03*
X33528000Y-83345000D03*
X34798000Y-83345000D03*
D14*
X104013000Y-67945000D03*
D15*
X104013000Y-65405000D03*
X106553000Y-67945000D03*
X106553000Y-65405000D03*
X109093000Y-67945000D03*
X109093000Y-65405000D03*
X111633000Y-67945000D03*
X111633000Y-65405000D03*
X114173000Y-67945000D03*
X114173000Y-65405000D03*
X116713000Y-67945000D03*
X116713000Y-65405000D03*
X119253000Y-67945000D03*
X119253000Y-65405000D03*
X121793000Y-67945000D03*
X121793000Y-65405000D03*
D11*
X99948000Y-75565000D03*
X99948000Y-76835000D03*
X99948000Y-78105000D03*
X99948000Y-79375000D03*
X99948000Y-80645000D03*
X99948000Y-81915000D03*
X99948000Y-83185000D03*
X99948000Y-84455000D03*
X99948000Y-85725000D03*
X99948000Y-86995000D03*
X99948000Y-88265000D03*
X99948000Y-89535000D03*
X109348000Y-89535000D03*
X109348000Y-88265000D03*
X109348000Y-86995000D03*
X109348000Y-85725000D03*
X109348000Y-84455000D03*
X109348000Y-83185000D03*
X109348000Y-81915000D03*
X109348000Y-80645000D03*
X109348000Y-79375000D03*
X109348000Y-78105000D03*
X109348000Y-76835000D03*
X109348000Y-75565000D03*
D16*
X42418000Y-77945000D03*
X41148000Y-77945000D03*
X39878000Y-77945000D03*
X38608000Y-77945000D03*
X38608000Y-83345000D03*
X39878000Y-83345000D03*
X41148000Y-83345000D03*
X42418000Y-83345000D03*
D11*
X40768000Y-102235000D03*
X40768000Y-100965000D03*
X40768000Y-99695000D03*
X40768000Y-98425000D03*
X40768000Y-97155000D03*
X40768000Y-95885000D03*
X40768000Y-94615000D03*
X40768000Y-93345000D03*
X40768000Y-92075000D03*
X40768000Y-90805000D03*
X40768000Y-89535000D03*
X40768000Y-88265000D03*
X31368000Y-88265000D03*
X31368000Y-89535000D03*
X31368000Y-90805000D03*
X31368000Y-92075000D03*
X31368000Y-93345000D03*
X31368000Y-94615000D03*
X31368000Y-95885000D03*
X31368000Y-97155000D03*
X31368000Y-98425000D03*
X31368000Y-99695000D03*
X31368000Y-100965000D03*
X31368000Y-102235000D03*
X46608000Y-75565000D03*
X46608000Y-76835000D03*
X46608000Y-78105000D03*
X46608000Y-79375000D03*
X46608000Y-80645000D03*
X46608000Y-81915000D03*
X46608000Y-83185000D03*
X46608000Y-84455000D03*
X46608000Y-85725000D03*
X46608000Y-86995000D03*
X46608000Y-88265000D03*
X46608000Y-89535000D03*
X56008000Y-89535000D03*
X56008000Y-88265000D03*
X56008000Y-86995000D03*
X56008000Y-85725000D03*
X56008000Y-84455000D03*
X56008000Y-83185000D03*
X56008000Y-81915000D03*
X56008000Y-80645000D03*
X56008000Y-79375000D03*
X56008000Y-78105000D03*
X56008000Y-76835000D03*
X56008000Y-75565000D03*
X63118000Y-75565000D03*
X63118000Y-76835000D03*
X63118000Y-78105000D03*
X63118000Y-79375000D03*
X63118000Y-80645000D03*
X63118000Y-81915000D03*
X63118000Y-83185000D03*
X63118000Y-84455000D03*
X63118000Y-85725000D03*
X63118000Y-86995000D03*
X63118000Y-88265000D03*
X63118000Y-89535000D03*
X72518000Y-89535000D03*
X72518000Y-88265000D03*
X72518000Y-86995000D03*
X72518000Y-85725000D03*
X72518000Y-84455000D03*
X72518000Y-83185000D03*
X72518000Y-81915000D03*
X72518000Y-80645000D03*
X72518000Y-79375000D03*
X72518000Y-78105000D03*
X72518000Y-76835000D03*
X72518000Y-75565000D03*
X79628000Y-75565000D03*
X79628000Y-76835000D03*
X79628000Y-78105000D03*
X79628000Y-79375000D03*
X79628000Y-80645000D03*
X79628000Y-81915000D03*
X79628000Y-83185000D03*
X79628000Y-84455000D03*
X79628000Y-85725000D03*
X79628000Y-86995000D03*
X79628000Y-88265000D03*
X79628000Y-89535000D03*
X89028000Y-89535000D03*
X89028000Y-88265000D03*
X89028000Y-86995000D03*
X89028000Y-85725000D03*
X89028000Y-84455000D03*
X89028000Y-83185000D03*
X89028000Y-81915000D03*
X89028000Y-80645000D03*
X89028000Y-79375000D03*
X89028000Y-78105000D03*
X89028000Y-76835000D03*
X89028000Y-75565000D03*
D14*
X126873000Y-56515000D03*
D15*
X126873000Y-53975000D03*
X129413000Y-56515000D03*
X129413000Y-53975000D03*
X131953000Y-56515000D03*
X131953000Y-53975000D03*
X134493000Y-56515000D03*
X134493000Y-53975000D03*
X137033000Y-56515000D03*
X137033000Y-53975000D03*
X139573000Y-56515000D03*
X139573000Y-53975000D03*
X142113000Y-56515000D03*
X142113000Y-53975000D03*
X144653000Y-56515000D03*
X144653000Y-53975000D03*
D14*
X134493000Y-67945000D03*
D15*
X134493000Y-65405000D03*
X137033000Y-67945000D03*
X137033000Y-65405000D03*
X139573000Y-67945000D03*
X139573000Y-65405000D03*
X142113000Y-67945000D03*
X142113000Y-65405000D03*
X144653000Y-67945000D03*
X144653000Y-65405000D03*
X147193000Y-67945000D03*
X147193000Y-65405000D03*
X149733000Y-67945000D03*
X149733000Y-65405000D03*
X152273000Y-67945000D03*
X152273000Y-65405000D03*
D14*
X157353000Y-56515000D03*
D15*
X157353000Y-53975000D03*
X159893000Y-56515000D03*
X159893000Y-53975000D03*
X162433000Y-56515000D03*
X162433000Y-53975000D03*
X164973000Y-56515000D03*
X164973000Y-53975000D03*
X167513000Y-56515000D03*
X167513000Y-53975000D03*
X170053000Y-56515000D03*
X170053000Y-53975000D03*
X172593000Y-56515000D03*
X172593000Y-53975000D03*
X175133000Y-56515000D03*
X175133000Y-53975000D03*
D14*
X164973000Y-67945000D03*
D15*
X164973000Y-65405000D03*
X167513000Y-67945000D03*
X167513000Y-65405000D03*
X170053000Y-67945000D03*
X170053000Y-65405000D03*
X172593000Y-67945000D03*
X172593000Y-65405000D03*
X175133000Y-67945000D03*
X175133000Y-65405000D03*
X177673000Y-67945000D03*
X177673000Y-65405000D03*
X180213000Y-67945000D03*
X180213000Y-65405000D03*
X182753000Y-67945000D03*
X182753000Y-65405000D03*
D11*
X118998000Y-75565000D03*
X118998000Y-76835000D03*
X118998000Y-78105000D03*
X118998000Y-79375000D03*
X118998000Y-80645000D03*
X118998000Y-81915000D03*
X118998000Y-83185000D03*
X118998000Y-84455000D03*
X118998000Y-85725000D03*
X118998000Y-86995000D03*
X118998000Y-88265000D03*
X118998000Y-89535000D03*
X128398000Y-89535000D03*
X128398000Y-88265000D03*
X128398000Y-86995000D03*
X128398000Y-85725000D03*
X128398000Y-84455000D03*
X128398000Y-83185000D03*
X128398000Y-81915000D03*
X128398000Y-80645000D03*
X128398000Y-79375000D03*
X128398000Y-78105000D03*
X128398000Y-76835000D03*
X128398000Y-75565000D03*
X138048000Y-75565000D03*
X138048000Y-76835000D03*
X138048000Y-78105000D03*
X138048000Y-79375000D03*
X138048000Y-80645000D03*
X138048000Y-81915000D03*
X138048000Y-83185000D03*
X138048000Y-84455000D03*
X138048000Y-85725000D03*
X138048000Y-86995000D03*
X138048000Y-88265000D03*
X138048000Y-89535000D03*
X147448000Y-89535000D03*
X147448000Y-88265000D03*
X147448000Y-86995000D03*
X147448000Y-85725000D03*
X147448000Y-84455000D03*
X147448000Y-83185000D03*
X147448000Y-81915000D03*
X147448000Y-80645000D03*
X147448000Y-79375000D03*
X147448000Y-78105000D03*
X147448000Y-76835000D03*
X147448000Y-75565000D03*
X157098000Y-75565000D03*
X157098000Y-76835000D03*
X157098000Y-78105000D03*
X157098000Y-79375000D03*
X157098000Y-80645000D03*
X157098000Y-81915000D03*
X157098000Y-83185000D03*
X157098000Y-84455000D03*
X157098000Y-85725000D03*
X157098000Y-86995000D03*
X157098000Y-88265000D03*
X157098000Y-89535000D03*
X166498000Y-89535000D03*
X166498000Y-88265000D03*
X166498000Y-86995000D03*
X166498000Y-85725000D03*
X166498000Y-84455000D03*
X166498000Y-83185000D03*
X166498000Y-81915000D03*
X166498000Y-80645000D03*
X166498000Y-79375000D03*
X166498000Y-78105000D03*
X166498000Y-76835000D03*
X166498000Y-75565000D03*
X176148000Y-75565000D03*
X176148000Y-76835000D03*
X176148000Y-78105000D03*
X176148000Y-79375000D03*
X176148000Y-80645000D03*
X176148000Y-81915000D03*
X176148000Y-83185000D03*
X176148000Y-84455000D03*
X176148000Y-85725000D03*
X176148000Y-86995000D03*
X176148000Y-88265000D03*
X176148000Y-89535000D03*
X185548000Y-89535000D03*
X185548000Y-88265000D03*
X185548000Y-86995000D03*
X185548000Y-85725000D03*
X185548000Y-84455000D03*
X185548000Y-83185000D03*
X185548000Y-81915000D03*
X185548000Y-80645000D03*
X185548000Y-79375000D03*
X185548000Y-78105000D03*
X185548000Y-76835000D03*
X185548000Y-75565000D03*
D17*
X33208000Y-109623860D03*
X31308000Y-109623860D03*
X32258000Y-112626140D03*
D14*
X35433000Y-133350000D03*
D15*
X35433000Y-130810000D03*
X37973000Y-133350000D03*
X37973000Y-130810000D03*
X40513000Y-133350000D03*
X40513000Y-130810000D03*
X43053000Y-133350000D03*
X43053000Y-130810000D03*
X45593000Y-133350000D03*
X45593000Y-130810000D03*
X48133000Y-133350000D03*
X48133000Y-130810000D03*
X50673000Y-133350000D03*
X50673000Y-130810000D03*
X53213000Y-133350000D03*
X53213000Y-130810000D03*
D14*
X65913000Y-133350000D03*
D15*
X65913000Y-130810000D03*
X68453000Y-133350000D03*
X68453000Y-130810000D03*
X70993000Y-133350000D03*
X70993000Y-130810000D03*
X73533000Y-133350000D03*
X73533000Y-130810000D03*
X76073000Y-133350000D03*
X76073000Y-130810000D03*
X78613000Y-133350000D03*
X78613000Y-130810000D03*
X81153000Y-133350000D03*
X81153000Y-130810000D03*
X83693000Y-133350000D03*
X83693000Y-130810000D03*
D14*
X96393000Y-133350000D03*
D15*
X96393000Y-130810000D03*
X98933000Y-133350000D03*
X98933000Y-130810000D03*
X101473000Y-133350000D03*
X101473000Y-130810000D03*
X104013000Y-133350000D03*
X104013000Y-130810000D03*
X106553000Y-133350000D03*
X106553000Y-130810000D03*
X109093000Y-133350000D03*
X109093000Y-130810000D03*
X111633000Y-133350000D03*
X111633000Y-130810000D03*
X114173000Y-133350000D03*
X114173000Y-130810000D03*
D14*
X104013000Y-121920000D03*
D15*
X104013000Y-119380000D03*
X106553000Y-121920000D03*
X106553000Y-119380000D03*
X109093000Y-121920000D03*
X109093000Y-119380000D03*
X111633000Y-121920000D03*
X111633000Y-119380000D03*
X114173000Y-121920000D03*
X114173000Y-119380000D03*
X116713000Y-121920000D03*
X116713000Y-119380000D03*
X119253000Y-121920000D03*
X119253000Y-119380000D03*
X121793000Y-121920000D03*
X121793000Y-119380000D03*
D14*
X126873000Y-133350000D03*
D15*
X126873000Y-130810000D03*
X129413000Y-133350000D03*
X129413000Y-130810000D03*
X131953000Y-133350000D03*
X131953000Y-130810000D03*
X134493000Y-133350000D03*
X134493000Y-130810000D03*
X137033000Y-133350000D03*
X137033000Y-130810000D03*
X139573000Y-133350000D03*
X139573000Y-130810000D03*
X142113000Y-133350000D03*
X142113000Y-130810000D03*
X144653000Y-133350000D03*
X144653000Y-130810000D03*
D14*
X134493000Y-121920000D03*
D15*
X134493000Y-119380000D03*
X137033000Y-121920000D03*
X137033000Y-119380000D03*
X139573000Y-121920000D03*
X139573000Y-119380000D03*
X142113000Y-121920000D03*
X142113000Y-119380000D03*
X144653000Y-121920000D03*
X144653000Y-119380000D03*
X147193000Y-121920000D03*
X147193000Y-119380000D03*
X149733000Y-121920000D03*
X149733000Y-119380000D03*
X152273000Y-121920000D03*
X152273000Y-119380000D03*
D14*
X157353000Y-133350000D03*
D15*
X157353000Y-130810000D03*
X159893000Y-133350000D03*
X159893000Y-130810000D03*
X162433000Y-133350000D03*
X162433000Y-130810000D03*
X164973000Y-133350000D03*
X164973000Y-130810000D03*
X167513000Y-133350000D03*
X167513000Y-130810000D03*
X170053000Y-133350000D03*
X170053000Y-130810000D03*
X172593000Y-133350000D03*
X172593000Y-130810000D03*
X175133000Y-133350000D03*
X175133000Y-130810000D03*
D14*
X164973000Y-121920000D03*
D15*
X164973000Y-119380000D03*
X167513000Y-121920000D03*
X167513000Y-119380000D03*
X170053000Y-121920000D03*
X170053000Y-119380000D03*
X172593000Y-121920000D03*
X172593000Y-119380000D03*
X175133000Y-121920000D03*
X175133000Y-119380000D03*
X177673000Y-121920000D03*
X177673000Y-119380000D03*
X180213000Y-121920000D03*
X180213000Y-119380000D03*
X182753000Y-121920000D03*
X182753000Y-119380000D03*
D18*
X36703000Y-109390000D03*
X36703000Y-111590000D03*
D11*
X46608000Y-98425000D03*
X46608000Y-99695000D03*
X46608000Y-100965000D03*
X46608000Y-102235000D03*
X46608000Y-103505000D03*
X46608000Y-104775000D03*
X46608000Y-106045000D03*
X46608000Y-107315000D03*
X46608000Y-108585000D03*
X46608000Y-109855000D03*
X46608000Y-111125000D03*
X46608000Y-112395000D03*
X56008000Y-112395000D03*
X56008000Y-111125000D03*
X56008000Y-109855000D03*
X56008000Y-108585000D03*
X56008000Y-107315000D03*
X56008000Y-106045000D03*
X56008000Y-104775000D03*
X56008000Y-103505000D03*
X56008000Y-102235000D03*
X56008000Y-100965000D03*
X56008000Y-99695000D03*
X56008000Y-98425000D03*
X63118000Y-98425000D03*
X63118000Y-99695000D03*
X63118000Y-100965000D03*
X63118000Y-102235000D03*
X63118000Y-103505000D03*
X63118000Y-104775000D03*
X63118000Y-106045000D03*
X63118000Y-107315000D03*
X63118000Y-108585000D03*
X63118000Y-109855000D03*
X63118000Y-111125000D03*
X63118000Y-112395000D03*
X72518000Y-112395000D03*
X72518000Y-111125000D03*
X72518000Y-109855000D03*
X72518000Y-108585000D03*
X72518000Y-107315000D03*
X72518000Y-106045000D03*
X72518000Y-104775000D03*
X72518000Y-103505000D03*
X72518000Y-102235000D03*
X72518000Y-100965000D03*
X72518000Y-99695000D03*
X72518000Y-98425000D03*
X79628000Y-98425000D03*
X79628000Y-99695000D03*
X79628000Y-100965000D03*
X79628000Y-102235000D03*
X79628000Y-103505000D03*
X79628000Y-104775000D03*
X79628000Y-106045000D03*
X79628000Y-107315000D03*
X79628000Y-108585000D03*
X79628000Y-109855000D03*
X79628000Y-111125000D03*
X79628000Y-112395000D03*
X89028000Y-112395000D03*
X89028000Y-111125000D03*
X89028000Y-109855000D03*
X89028000Y-108585000D03*
X89028000Y-107315000D03*
X89028000Y-106045000D03*
X89028000Y-104775000D03*
X89028000Y-103505000D03*
X89028000Y-102235000D03*
X89028000Y-100965000D03*
X89028000Y-99695000D03*
X89028000Y-98425000D03*
X118998000Y-98425000D03*
X118998000Y-99695000D03*
X118998000Y-100965000D03*
X118998000Y-102235000D03*
X118998000Y-103505000D03*
X118998000Y-104775000D03*
X118998000Y-106045000D03*
X118998000Y-107315000D03*
X118998000Y-108585000D03*
X118998000Y-109855000D03*
X118998000Y-111125000D03*
X118998000Y-112395000D03*
X128398000Y-112395000D03*
X128398000Y-111125000D03*
X128398000Y-109855000D03*
X128398000Y-108585000D03*
X128398000Y-107315000D03*
X128398000Y-106045000D03*
X128398000Y-104775000D03*
X128398000Y-103505000D03*
X128398000Y-102235000D03*
X128398000Y-100965000D03*
X128398000Y-99695000D03*
X128398000Y-98425000D03*
X138048000Y-98425000D03*
X138048000Y-99695000D03*
X138048000Y-100965000D03*
X138048000Y-102235000D03*
X138048000Y-103505000D03*
X138048000Y-104775000D03*
X138048000Y-106045000D03*
X138048000Y-107315000D03*
X138048000Y-108585000D03*
X138048000Y-109855000D03*
X138048000Y-111125000D03*
X138048000Y-112395000D03*
X147448000Y-112395000D03*
X147448000Y-111125000D03*
X147448000Y-109855000D03*
X147448000Y-108585000D03*
X147448000Y-107315000D03*
X147448000Y-106045000D03*
X147448000Y-104775000D03*
X147448000Y-103505000D03*
X147448000Y-102235000D03*
X147448000Y-100965000D03*
X147448000Y-99695000D03*
X147448000Y-98425000D03*
X157098000Y-98425000D03*
X157098000Y-99695000D03*
X157098000Y-100965000D03*
X157098000Y-102235000D03*
X157098000Y-103505000D03*
X157098000Y-104775000D03*
X157098000Y-106045000D03*
X157098000Y-107315000D03*
X157098000Y-108585000D03*
X157098000Y-109855000D03*
X157098000Y-111125000D03*
X157098000Y-112395000D03*
X166498000Y-112395000D03*
X166498000Y-111125000D03*
X166498000Y-109855000D03*
X166498000Y-108585000D03*
X166498000Y-107315000D03*
X166498000Y-106045000D03*
X166498000Y-104775000D03*
X166498000Y-103505000D03*
X166498000Y-102235000D03*
X166498000Y-100965000D03*
X166498000Y-99695000D03*
X166498000Y-98425000D03*
X176148000Y-98425000D03*
X176148000Y-99695000D03*
X176148000Y-100965000D03*
X176148000Y-102235000D03*
X176148000Y-103505000D03*
X176148000Y-104775000D03*
X176148000Y-106045000D03*
X176148000Y-107315000D03*
X176148000Y-108585000D03*
X176148000Y-109855000D03*
X176148000Y-111125000D03*
X176148000Y-112395000D03*
X185548000Y-112395000D03*
X185548000Y-111125000D03*
X185548000Y-109855000D03*
X185548000Y-108585000D03*
X185548000Y-107315000D03*
X185548000Y-106045000D03*
X185548000Y-104775000D03*
X185548000Y-103505000D03*
X185548000Y-102235000D03*
X185548000Y-100965000D03*
X185548000Y-99695000D03*
X185548000Y-98425000D03*
D19*
X33058000Y-71885000D03*
X33058000Y-69085000D03*
X31458000Y-71885000D03*
X31458000Y-69085000D03*
M02*
