G04 #@! TF.FileFunction,Copper,L2,Bot,Signal*
%FSLAX46Y46*%
G04 Gerber Fmt 4.6, Leading zero omitted, Abs format (unit mm)*
G04 Created by KiCad (PCBNEW 4.0.1-stable) date 2016-06-03 18:52:32*
%MOMM*%
G01*
G04 APERTURE LIST*
%ADD10C,0.100000*%
%ADD11O,1.727200X2.032000*%
%ADD12C,4.064000*%
%ADD13R,1.727200X1.727200*%
%ADD14O,1.727200X1.727200*%
%ADD15C,0.600000*%
%ADD16C,0.254000*%
G04 APERTURE END LIST*
D10*
D11*
X56388000Y-117475000D03*
X58928000Y-117475000D03*
X61468000Y-117475000D03*
X64008000Y-117475000D03*
X66548000Y-117475000D03*
X69088000Y-117475000D03*
X71628000Y-117475000D03*
X74168000Y-117475000D03*
X79248000Y-117475000D03*
X81788000Y-117475000D03*
X84328000Y-117475000D03*
X86868000Y-117475000D03*
X89408000Y-117475000D03*
X91948000Y-117475000D03*
X47244000Y-69215000D03*
X49784000Y-69215000D03*
X52324000Y-69215000D03*
X54864000Y-69215000D03*
X57404000Y-69215000D03*
X59944000Y-69215000D03*
X62484000Y-69215000D03*
X65024000Y-69215000D03*
X67564000Y-69215000D03*
X70104000Y-69215000D03*
X74168000Y-69215000D03*
X76708000Y-69215000D03*
X79248000Y-69215000D03*
X81788000Y-69215000D03*
X84328000Y-69215000D03*
X86868000Y-69215000D03*
X89408000Y-69215000D03*
X91948000Y-69215000D03*
D12*
X42418000Y-117475000D03*
X94488000Y-112395000D03*
X43688000Y-69215000D03*
X94488000Y-84455000D03*
D13*
X35433000Y-56515000D03*
D14*
X35433000Y-53975000D03*
X37973000Y-56515000D03*
X37973000Y-53975000D03*
X40513000Y-56515000D03*
X40513000Y-53975000D03*
X43053000Y-56515000D03*
X43053000Y-53975000D03*
X45593000Y-56515000D03*
X45593000Y-53975000D03*
X48133000Y-56515000D03*
X48133000Y-53975000D03*
X50673000Y-56515000D03*
X50673000Y-53975000D03*
X53213000Y-56515000D03*
X53213000Y-53975000D03*
D13*
X65913000Y-56515000D03*
D14*
X65913000Y-53975000D03*
X68453000Y-56515000D03*
X68453000Y-53975000D03*
X70993000Y-56515000D03*
X70993000Y-53975000D03*
X73533000Y-56515000D03*
X73533000Y-53975000D03*
X76073000Y-56515000D03*
X76073000Y-53975000D03*
X78613000Y-56515000D03*
X78613000Y-53975000D03*
X81153000Y-56515000D03*
X81153000Y-53975000D03*
X83693000Y-56515000D03*
X83693000Y-53975000D03*
D13*
X96393000Y-56515000D03*
D14*
X96393000Y-53975000D03*
X98933000Y-56515000D03*
X98933000Y-53975000D03*
X101473000Y-56515000D03*
X101473000Y-53975000D03*
X104013000Y-56515000D03*
X104013000Y-53975000D03*
X106553000Y-56515000D03*
X106553000Y-53975000D03*
X109093000Y-56515000D03*
X109093000Y-53975000D03*
X111633000Y-56515000D03*
X111633000Y-53975000D03*
X114173000Y-56515000D03*
X114173000Y-53975000D03*
D13*
X104013000Y-67945000D03*
D14*
X104013000Y-65405000D03*
X106553000Y-67945000D03*
X106553000Y-65405000D03*
X109093000Y-67945000D03*
X109093000Y-65405000D03*
X111633000Y-67945000D03*
X111633000Y-65405000D03*
X114173000Y-67945000D03*
X114173000Y-65405000D03*
X116713000Y-67945000D03*
X116713000Y-65405000D03*
X119253000Y-67945000D03*
X119253000Y-65405000D03*
X121793000Y-67945000D03*
X121793000Y-65405000D03*
D13*
X126873000Y-56515000D03*
D14*
X126873000Y-53975000D03*
X129413000Y-56515000D03*
X129413000Y-53975000D03*
X131953000Y-56515000D03*
X131953000Y-53975000D03*
X134493000Y-56515000D03*
X134493000Y-53975000D03*
X137033000Y-56515000D03*
X137033000Y-53975000D03*
X139573000Y-56515000D03*
X139573000Y-53975000D03*
X142113000Y-56515000D03*
X142113000Y-53975000D03*
X144653000Y-56515000D03*
X144653000Y-53975000D03*
D13*
X134493000Y-67945000D03*
D14*
X134493000Y-65405000D03*
X137033000Y-67945000D03*
X137033000Y-65405000D03*
X139573000Y-67945000D03*
X139573000Y-65405000D03*
X142113000Y-67945000D03*
X142113000Y-65405000D03*
X144653000Y-67945000D03*
X144653000Y-65405000D03*
X147193000Y-67945000D03*
X147193000Y-65405000D03*
X149733000Y-67945000D03*
X149733000Y-65405000D03*
X152273000Y-67945000D03*
X152273000Y-65405000D03*
D13*
X157353000Y-56515000D03*
D14*
X157353000Y-53975000D03*
X159893000Y-56515000D03*
X159893000Y-53975000D03*
X162433000Y-56515000D03*
X162433000Y-53975000D03*
X164973000Y-56515000D03*
X164973000Y-53975000D03*
X167513000Y-56515000D03*
X167513000Y-53975000D03*
X170053000Y-56515000D03*
X170053000Y-53975000D03*
X172593000Y-56515000D03*
X172593000Y-53975000D03*
X175133000Y-56515000D03*
X175133000Y-53975000D03*
D13*
X164973000Y-67945000D03*
D14*
X164973000Y-65405000D03*
X167513000Y-67945000D03*
X167513000Y-65405000D03*
X170053000Y-67945000D03*
X170053000Y-65405000D03*
X172593000Y-67945000D03*
X172593000Y-65405000D03*
X175133000Y-67945000D03*
X175133000Y-65405000D03*
X177673000Y-67945000D03*
X177673000Y-65405000D03*
X180213000Y-67945000D03*
X180213000Y-65405000D03*
X182753000Y-67945000D03*
X182753000Y-65405000D03*
D13*
X35433000Y-133350000D03*
D14*
X35433000Y-130810000D03*
X37973000Y-133350000D03*
X37973000Y-130810000D03*
X40513000Y-133350000D03*
X40513000Y-130810000D03*
X43053000Y-133350000D03*
X43053000Y-130810000D03*
X45593000Y-133350000D03*
X45593000Y-130810000D03*
X48133000Y-133350000D03*
X48133000Y-130810000D03*
X50673000Y-133350000D03*
X50673000Y-130810000D03*
X53213000Y-133350000D03*
X53213000Y-130810000D03*
D13*
X65913000Y-133350000D03*
D14*
X65913000Y-130810000D03*
X68453000Y-133350000D03*
X68453000Y-130810000D03*
X70993000Y-133350000D03*
X70993000Y-130810000D03*
X73533000Y-133350000D03*
X73533000Y-130810000D03*
X76073000Y-133350000D03*
X76073000Y-130810000D03*
X78613000Y-133350000D03*
X78613000Y-130810000D03*
X81153000Y-133350000D03*
X81153000Y-130810000D03*
X83693000Y-133350000D03*
X83693000Y-130810000D03*
D13*
X96393000Y-133350000D03*
D14*
X96393000Y-130810000D03*
X98933000Y-133350000D03*
X98933000Y-130810000D03*
X101473000Y-133350000D03*
X101473000Y-130810000D03*
X104013000Y-133350000D03*
X104013000Y-130810000D03*
X106553000Y-133350000D03*
X106553000Y-130810000D03*
X109093000Y-133350000D03*
X109093000Y-130810000D03*
X111633000Y-133350000D03*
X111633000Y-130810000D03*
X114173000Y-133350000D03*
X114173000Y-130810000D03*
D13*
X104013000Y-121920000D03*
D14*
X104013000Y-119380000D03*
X106553000Y-121920000D03*
X106553000Y-119380000D03*
X109093000Y-121920000D03*
X109093000Y-119380000D03*
X111633000Y-121920000D03*
X111633000Y-119380000D03*
X114173000Y-121920000D03*
X114173000Y-119380000D03*
X116713000Y-121920000D03*
X116713000Y-119380000D03*
X119253000Y-121920000D03*
X119253000Y-119380000D03*
X121793000Y-121920000D03*
X121793000Y-119380000D03*
D13*
X126873000Y-133350000D03*
D14*
X126873000Y-130810000D03*
X129413000Y-133350000D03*
X129413000Y-130810000D03*
X131953000Y-133350000D03*
X131953000Y-130810000D03*
X134493000Y-133350000D03*
X134493000Y-130810000D03*
X137033000Y-133350000D03*
X137033000Y-130810000D03*
X139573000Y-133350000D03*
X139573000Y-130810000D03*
X142113000Y-133350000D03*
X142113000Y-130810000D03*
X144653000Y-133350000D03*
X144653000Y-130810000D03*
D13*
X134493000Y-121920000D03*
D14*
X134493000Y-119380000D03*
X137033000Y-121920000D03*
X137033000Y-119380000D03*
X139573000Y-121920000D03*
X139573000Y-119380000D03*
X142113000Y-121920000D03*
X142113000Y-119380000D03*
X144653000Y-121920000D03*
X144653000Y-119380000D03*
X147193000Y-121920000D03*
X147193000Y-119380000D03*
X149733000Y-121920000D03*
X149733000Y-119380000D03*
X152273000Y-121920000D03*
X152273000Y-119380000D03*
D13*
X157353000Y-133350000D03*
D14*
X157353000Y-130810000D03*
X159893000Y-133350000D03*
X159893000Y-130810000D03*
X162433000Y-133350000D03*
X162433000Y-130810000D03*
X164973000Y-133350000D03*
X164973000Y-130810000D03*
X167513000Y-133350000D03*
X167513000Y-130810000D03*
X170053000Y-133350000D03*
X170053000Y-130810000D03*
X172593000Y-133350000D03*
X172593000Y-130810000D03*
X175133000Y-133350000D03*
X175133000Y-130810000D03*
D13*
X164973000Y-121920000D03*
D14*
X164973000Y-119380000D03*
X167513000Y-121920000D03*
X167513000Y-119380000D03*
X170053000Y-121920000D03*
X170053000Y-119380000D03*
X172593000Y-121920000D03*
X172593000Y-119380000D03*
X175133000Y-121920000D03*
X175133000Y-119380000D03*
X177673000Y-121920000D03*
X177673000Y-119380000D03*
X180213000Y-121920000D03*
X180213000Y-119380000D03*
X182753000Y-121920000D03*
X182753000Y-119380000D03*
D15*
X174057000Y-107596800D03*
X68974900Y-112385200D03*
X164485200Y-91253400D03*
X164485200Y-87367300D03*
X183492000Y-110070900D03*
X53526900Y-110443600D03*
X51843500Y-112340900D03*
X76967600Y-89269100D03*
X77051400Y-98310900D03*
X54453200Y-86995000D03*
X52249400Y-89804500D03*
X135792300Y-89537600D03*
X135073700Y-109869400D03*
X174580700Y-112209000D03*
X172753700Y-91462300D03*
X77973900Y-86995000D03*
X117417800Y-87070200D03*
X158811300Y-87307800D03*
X98221900Y-87339800D03*
X136307300Y-86995000D03*
X140774600Y-97910800D03*
X170245300Y-114101400D03*
X70867200Y-86734600D03*
X78065700Y-109727200D03*
X83763400Y-97803300D03*
X101608600Y-109090800D03*
X113580100Y-98785300D03*
X149759900Y-103556100D03*
X60426800Y-109735700D03*
X59162500Y-114867700D03*
X120557600Y-88265000D03*
X67451300Y-114110900D03*
X67369600Y-111125000D03*
X78029300Y-88491600D03*
X169357500Y-115618200D03*
X83975900Y-108386100D03*
X97924600Y-88940500D03*
X154659100Y-110801900D03*
X66945100Y-88263000D03*
X81229700Y-111227600D03*
X102283800Y-110686500D03*
X117442900Y-110793800D03*
X136468000Y-111125000D03*
X136445100Y-88211300D03*
X159471100Y-90180300D03*
X171441300Y-91868000D03*
X183991800Y-111125000D03*
X86887600Y-111364100D03*
X170719700Y-89030900D03*
X171670000Y-110164300D03*
X57576000Y-88265000D03*
X70867200Y-88842900D03*
X169215300Y-89535000D03*
X169554300Y-111848800D03*
X170078600Y-92673300D03*
X183989300Y-112572400D03*
X61602800Y-90216400D03*
X58480000Y-89263300D03*
X35690300Y-111506500D03*
X34654600Y-68690800D03*
X35341600Y-67488800D03*
X32958100Y-89518600D03*
X36488200Y-82310000D03*
X149036500Y-97916600D03*
X149735100Y-82753400D03*
X149467300Y-95096000D03*
X64703000Y-110561100D03*
X43804900Y-83794400D03*
X44722600Y-84042100D03*
X44553700Y-83098500D03*
X44021100Y-81584600D03*
X44568700Y-80481200D03*
X44839000Y-79368800D03*
X44981900Y-77882100D03*
X45021700Y-76647100D03*
X45711400Y-74626500D03*
X54431700Y-78105000D03*
X49469600Y-74894100D03*
X53677900Y-80392600D03*
X46155100Y-61840500D03*
X46739500Y-74669400D03*
X47926900Y-67662800D03*
X51722600Y-71157400D03*
X54433400Y-83185000D03*
X57630000Y-83450700D03*
X58698900Y-78342100D03*
X64672800Y-85575400D03*
X61554200Y-84011600D03*
X68453000Y-65691100D03*
X69264500Y-72950400D03*
X65898200Y-83337300D03*
X64682300Y-81915000D03*
X65651700Y-80211500D03*
X65302200Y-78469000D03*
X69246700Y-78105000D03*
X69246700Y-76835000D03*
X74223200Y-76732800D03*
X74436700Y-77731800D03*
X74077700Y-79483900D03*
X81629200Y-74335400D03*
X77562400Y-77678500D03*
X74078500Y-81915000D03*
X70856600Y-59312500D03*
X70858400Y-65643500D03*
X70695300Y-72872500D03*
X74087400Y-82996900D03*
X74457300Y-61567600D03*
X73598800Y-67205400D03*
X71250400Y-71736400D03*
X70934600Y-84455000D03*
X82180800Y-73654100D03*
X74870200Y-85790600D03*
X82694100Y-70544500D03*
X81191100Y-85659900D03*
X81160300Y-83894500D03*
X82634200Y-83185000D03*
X81209600Y-81915000D03*
X87186400Y-76827100D03*
X81403400Y-79525500D03*
X86747500Y-78105000D03*
X86134500Y-76866500D03*
X104714500Y-60529100D03*
X90665800Y-80511700D03*
X90589300Y-83185000D03*
X98163100Y-85904600D03*
X90589300Y-85761000D03*
X174565600Y-75565000D03*
X150043600Y-93140400D03*
X149869900Y-77210400D03*
X140103800Y-91850900D03*
X132094200Y-81650800D03*
X112404200Y-90456600D03*
X117269500Y-75997200D03*
X90657500Y-93126300D03*
X84735500Y-92652500D03*
X101510900Y-75565000D03*
X78071900Y-78480800D03*
X62040900Y-91912100D03*
X59270800Y-85129100D03*
X53272300Y-91590800D03*
X40855300Y-86929600D03*
X42323700Y-91950600D03*
X52819800Y-97064700D03*
X38803300Y-94259800D03*
X135104000Y-98649500D03*
X124092800Y-95486600D03*
X46940700Y-95955200D03*
X38714800Y-95157600D03*
X111863500Y-98304600D03*
X109038900Y-96190400D03*
X96503500Y-120515200D03*
X95218600Y-107387100D03*
X77298200Y-101916200D03*
X33464600Y-98344300D03*
X53916700Y-97941100D03*
X44386100Y-103807300D03*
X44847300Y-98780800D03*
X37604600Y-103090500D03*
X102163400Y-85250900D03*
X102918500Y-81915000D03*
X105852900Y-74111600D03*
X110905900Y-78105000D03*
X120553000Y-85213000D03*
X117427100Y-84455000D03*
X120787300Y-83012600D03*
X117471100Y-81330100D03*
X122438100Y-80143900D03*
X121611000Y-79375000D03*
X123306200Y-77768000D03*
X123124200Y-76530000D03*
X130156500Y-78105000D03*
X130029200Y-80454900D03*
X130553700Y-81150400D03*
X132775500Y-81101800D03*
X126813500Y-85244700D03*
X136272300Y-85691700D03*
X136481300Y-84455000D03*
X139706500Y-82749400D03*
X139609300Y-81619600D03*
X139605700Y-80645000D03*
X141084600Y-77516600D03*
X145885200Y-79375000D03*
X145203800Y-78820900D03*
X149048300Y-81461300D03*
X145882700Y-83185000D03*
X152557100Y-77276400D03*
X150389700Y-85185400D03*
X158662800Y-85541500D03*
X155537000Y-84455000D03*
X159281800Y-75360200D03*
X158664700Y-81915000D03*
X159311300Y-80523900D03*
X159500500Y-79197500D03*
X160878300Y-77920500D03*
X160982500Y-76835000D03*
X164350600Y-76739800D03*
X168155900Y-79304200D03*
X170120100Y-81422900D03*
X168608200Y-83042200D03*
X168090000Y-84160000D03*
X180051100Y-73606900D03*
X179365800Y-71922900D03*
X183282200Y-81915000D03*
X183545200Y-82813200D03*
X182683300Y-80108300D03*
X183990500Y-85778200D03*
X48506900Y-90281400D03*
X89408000Y-114549400D03*
X44182100Y-88803800D03*
X41497500Y-108100000D03*
X41177800Y-107214400D03*
X42196100Y-106591900D03*
X41214000Y-109224700D03*
X44523600Y-104675900D03*
X44002800Y-102289700D03*
X44490900Y-100992300D03*
X45045200Y-99695000D03*
X53842100Y-100241200D03*
X52502000Y-100965000D03*
X54296900Y-101863800D03*
X48672300Y-109689700D03*
X53526900Y-111568900D03*
X54210500Y-106322300D03*
X54424000Y-107315000D03*
X54035200Y-109219800D03*
X61554200Y-108632800D03*
X61553500Y-107315000D03*
X64885300Y-107197900D03*
X66676200Y-104774500D03*
X60382600Y-103195000D03*
X65702000Y-102018600D03*
X59207100Y-104673600D03*
X65111900Y-99490200D03*
X74029200Y-100283600D03*
X74103800Y-101194400D03*
X74287300Y-102239000D03*
X75049000Y-103603200D03*
X74238700Y-104914000D03*
X74808000Y-106672100D03*
X75341200Y-107795000D03*
X75806600Y-109148900D03*
X84834000Y-108248900D03*
X84745000Y-107196500D03*
X81209000Y-106358300D03*
X84703300Y-104341000D03*
X78070500Y-103473700D03*
X84200700Y-101907000D03*
X86180500Y-100878500D03*
X85961200Y-99695000D03*
X94455300Y-100152400D03*
X90807900Y-100878500D03*
X91140800Y-102235000D03*
X96069600Y-103829000D03*
X104618900Y-124516200D03*
X101948600Y-106045000D03*
X105386500Y-110467900D03*
X102488100Y-103554700D03*
X101936500Y-102294900D03*
X105853300Y-112133600D03*
X102029200Y-99870600D03*
X110861400Y-100282600D03*
X110912200Y-101198100D03*
X110920900Y-102235000D03*
X111559400Y-103555300D03*
X112117700Y-104775000D03*
X112881000Y-106045000D03*
X114115000Y-107878100D03*
X115239600Y-109081200D03*
X121621900Y-108827900D03*
X120992100Y-107495100D03*
X120916900Y-106407400D03*
X120890400Y-104724400D03*
X120868200Y-103505000D03*
X120613400Y-102235000D03*
X125090700Y-106276400D03*
X120560700Y-99695000D03*
X126839000Y-99695000D03*
X129965800Y-100825900D03*
X129955100Y-101986200D03*
X130478300Y-103555300D03*
X123416000Y-111589600D03*
X131433500Y-106386100D03*
X132289800Y-109058900D03*
X133756600Y-109534100D03*
X140517800Y-103958400D03*
X139607000Y-102319700D03*
X149013400Y-104889700D03*
X155527100Y-108585000D03*
X155541800Y-107435800D03*
X155530600Y-106045000D03*
X159525700Y-104714500D03*
X155382000Y-103710700D03*
X158799500Y-102317300D03*
X159286800Y-100752400D03*
X159942300Y-99695000D03*
X168057100Y-99872800D03*
X164932100Y-104029000D03*
X168064800Y-102263200D03*
X168068000Y-103736000D03*
X163467500Y-109755900D03*
X168067900Y-106140900D03*
X171174100Y-107603200D03*
X170323200Y-128139100D03*
X164973900Y-109173000D03*
X168074700Y-108911900D03*
X170760000Y-106551500D03*
X173392100Y-101140000D03*
X32520400Y-106532000D03*
X37147000Y-84981900D03*
X39186900Y-101858800D03*
X32967200Y-107780800D03*
X34446600Y-79771100D03*
D16*
X69088000Y-117475000D02*
X69088000Y-116077700D01*
X68974900Y-115964600D02*
X68974900Y-112385200D01*
X69088000Y-116077700D02*
X68974900Y-115964600D01*
X164485200Y-91253400D02*
X164485200Y-87367300D01*
X54864000Y-69215000D02*
X54864000Y-70612300D01*
X55114800Y-86333400D02*
X54453200Y-86995000D01*
X55114800Y-70863100D02*
X55114800Y-86333400D01*
X54864000Y-70612300D02*
X55114800Y-70863100D01*
X54453200Y-87600700D02*
X52249400Y-89804500D01*
X54453200Y-86995000D02*
X54453200Y-87600700D01*
X76967600Y-98227100D02*
X77051400Y-98310900D01*
X76967600Y-89269100D02*
X76967600Y-98227100D01*
X135792300Y-109150800D02*
X135792300Y-89537600D01*
X135073700Y-109869400D02*
X135792300Y-109150800D01*
X174098600Y-92807200D02*
X172753700Y-91462300D01*
X174098600Y-107596800D02*
X174098600Y-92807200D01*
X174098600Y-107596800D02*
X174057000Y-107596800D01*
X176594300Y-110092500D02*
X174098600Y-107596800D01*
X176615900Y-110070900D02*
X176594300Y-110092500D01*
X183492000Y-110070900D02*
X176615900Y-110070900D01*
X174580700Y-112106100D02*
X174580700Y-112209000D01*
X176594300Y-110092500D02*
X174580700Y-112106100D01*
X51843500Y-112127000D02*
X51843500Y-112340900D01*
X53526900Y-110443600D02*
X51843500Y-112127000D01*
X71127600Y-86995000D02*
X70867200Y-86734600D01*
X77973900Y-86995000D02*
X71127600Y-86995000D01*
X79248000Y-110909500D02*
X78065700Y-109727200D01*
X79248000Y-117475000D02*
X79248000Y-110909500D01*
X83763400Y-92784500D02*
X77973900Y-86995000D01*
X83763400Y-93809400D02*
X83763400Y-92784500D01*
X83763400Y-97803300D02*
X83763400Y-93809400D01*
X97334400Y-88257000D02*
X98221900Y-88257000D01*
X91782000Y-93809400D02*
X97334400Y-88257000D01*
X83763400Y-93809400D02*
X91782000Y-93809400D01*
X98221900Y-88257000D02*
X98221900Y-87339800D01*
X100742300Y-108224500D02*
X101608600Y-109090800D01*
X100742300Y-91565200D02*
X100742300Y-108224500D01*
X101136200Y-91171300D02*
X100742300Y-91565200D01*
X98221900Y-88257000D02*
X101136200Y-91171300D01*
X113580100Y-91434700D02*
X113316700Y-91171300D01*
X113580100Y-98785300D02*
X113580100Y-91434700D01*
X101136200Y-91171300D02*
X113316700Y-91171300D01*
X113316700Y-91171300D02*
X117417800Y-87070200D01*
X137126400Y-87929100D02*
X136249800Y-87052500D01*
X137126400Y-94262600D02*
X137126400Y-87929100D01*
X140774600Y-97910800D02*
X137126400Y-94262600D01*
X136232100Y-87070200D02*
X136249800Y-87052500D01*
X117417800Y-87070200D02*
X136232100Y-87070200D01*
X136249800Y-87052500D02*
X136307300Y-86995000D01*
X149759900Y-98599900D02*
X149759900Y-103556100D01*
X141463700Y-98599900D02*
X149759900Y-98599900D01*
X140774600Y-97910800D02*
X141463700Y-98599900D01*
X158896000Y-87392500D02*
X158811300Y-87307800D01*
X158896000Y-89463800D02*
X158896000Y-87392500D01*
X159790200Y-89463800D02*
X158896000Y-89463800D01*
X169269800Y-98943400D02*
X159790200Y-89463800D01*
X169269800Y-111043200D02*
X169269800Y-98943400D01*
X168873000Y-111440000D02*
X169269800Y-111043200D01*
X168873000Y-112729100D02*
X168873000Y-111440000D01*
X170245300Y-114101400D02*
X168873000Y-112729100D01*
X158896000Y-89463800D02*
X149759900Y-98599900D01*
X59162500Y-111000000D02*
X59162500Y-114867700D01*
X60426800Y-109735700D02*
X59162500Y-111000000D01*
X67451300Y-111206700D02*
X67369600Y-111125000D01*
X67451300Y-114110900D02*
X67451300Y-111206700D01*
X120557600Y-88265000D02*
X120557600Y-88543800D01*
X67057200Y-88150900D02*
X66945100Y-88263000D01*
X77688600Y-88150900D02*
X67057200Y-88150900D01*
X78029300Y-88491600D02*
X77688600Y-88150900D01*
X78029300Y-93063300D02*
X78029300Y-88491600D01*
X84784700Y-99818600D02*
X78029300Y-93063300D01*
X83470900Y-101132400D02*
X84784700Y-99818600D01*
X83470900Y-102727100D02*
X83470900Y-101132400D01*
X83975900Y-103232100D02*
X83470900Y-102727100D01*
X83975900Y-108386100D02*
X83975900Y-103232100D01*
X81229700Y-115519400D02*
X81229700Y-111227600D01*
X81788000Y-116077700D02*
X81229700Y-115519400D01*
X81788000Y-117475000D02*
X81788000Y-116077700D01*
X94132400Y-96871600D02*
X93149400Y-97854600D01*
X94132400Y-92732700D02*
X94132400Y-96871600D01*
X97924600Y-88940500D02*
X94132400Y-92732700D01*
X85765600Y-98837700D02*
X84784700Y-99818600D01*
X92166300Y-98837700D02*
X85765600Y-98837700D01*
X93149400Y-97854600D02*
X92166300Y-98837700D01*
X102283800Y-109803000D02*
X102283800Y-110686500D01*
X101345200Y-109803000D02*
X102283800Y-109803000D01*
X98112800Y-106570600D02*
X101345200Y-109803000D01*
X98112800Y-102818100D02*
X98112800Y-106570600D01*
X93149400Y-97854600D02*
X98112800Y-102818100D01*
X117060400Y-92041000D02*
X117060400Y-99466600D01*
X120557600Y-88543800D02*
X117060400Y-92041000D01*
X102301700Y-109785100D02*
X102283800Y-109803000D01*
X102301700Y-108058700D02*
X102301700Y-109785100D01*
X101254900Y-107011900D02*
X102301700Y-108058700D01*
X101254900Y-99623600D02*
X101254900Y-107011900D01*
X101732800Y-99145700D02*
X101254900Y-99623600D01*
X112977100Y-99145700D02*
X101732800Y-99145700D01*
X113298000Y-99466600D02*
X112977100Y-99145700D01*
X117060400Y-99466600D02*
X113298000Y-99466600D01*
X117060400Y-110411300D02*
X117442900Y-110793800D01*
X117060400Y-99466600D02*
X117060400Y-110411300D01*
X135974500Y-88681900D02*
X136445100Y-88211300D01*
X135836400Y-88543800D02*
X135974500Y-88681900D01*
X120557600Y-88543800D02*
X135836400Y-88543800D01*
X136538900Y-89246300D02*
X136538900Y-101627400D01*
X135974500Y-88681900D02*
X136538900Y-89246300D01*
X136538900Y-111054100D02*
X136468000Y-111125000D01*
X136538900Y-101627400D02*
X136538900Y-111054100D01*
X149487100Y-104269900D02*
X154228200Y-104269900D01*
X146844600Y-101627400D02*
X149487100Y-104269900D01*
X136538900Y-101627400D02*
X146844600Y-101627400D01*
X154228200Y-110371000D02*
X154228200Y-104269900D01*
X154659100Y-110801900D02*
X154228200Y-110371000D01*
X159471100Y-99013600D02*
X159471100Y-90180300D01*
X159040900Y-99013600D02*
X159471100Y-99013600D01*
X154228200Y-103826300D02*
X159040900Y-99013600D01*
X154228200Y-104269900D02*
X154228200Y-103826300D01*
X168364700Y-114625400D02*
X169357500Y-115618200D01*
X168364700Y-109585500D02*
X168364700Y-114625400D01*
X168756100Y-109194100D02*
X168364700Y-109585500D01*
X168756100Y-99540700D02*
X168756100Y-109194100D01*
X168229000Y-99013600D02*
X168756100Y-99540700D01*
X159471100Y-99013600D02*
X168229000Y-99013600D01*
X170719700Y-90320400D02*
X170719700Y-89030900D01*
X171509400Y-91110100D02*
X170719700Y-90320400D01*
X171441300Y-91178200D02*
X171509400Y-91110100D01*
X171441300Y-91868000D02*
X171441300Y-91178200D01*
X171856400Y-109977900D02*
X171670000Y-110164300D01*
X171856400Y-92283100D02*
X171856400Y-109977900D01*
X171441300Y-91868000D02*
X171856400Y-92283100D01*
X70867200Y-92149300D02*
X70387500Y-92629000D01*
X70867200Y-88842900D02*
X70867200Y-92149300D01*
X57576000Y-89380700D02*
X57576000Y-88265000D01*
X60824300Y-92629000D02*
X57576000Y-89380700D01*
X70387500Y-92629000D02*
X60824300Y-92629000D01*
X85974500Y-111364100D02*
X86887600Y-111364100D01*
X83148100Y-108537700D02*
X85974500Y-111364100D01*
X83148100Y-105263500D02*
X83148100Y-108537700D01*
X76876800Y-98992200D02*
X83148100Y-105263500D01*
X76750700Y-98992200D02*
X76876800Y-98992200D01*
X70387500Y-92629000D02*
X76750700Y-98992200D01*
X171838500Y-90781000D02*
X171509400Y-91110100D01*
X173035900Y-90781000D02*
X171838500Y-90781000D01*
X184173400Y-101918500D02*
X173035900Y-90781000D01*
X184173400Y-110943400D02*
X184173400Y-101918500D01*
X183991800Y-111125000D02*
X184173400Y-110943400D01*
X170078600Y-90398300D02*
X169215300Y-89535000D01*
X170078600Y-92673300D02*
X170078600Y-90398300D01*
X184681800Y-111879900D02*
X183989300Y-112572400D01*
X184681800Y-101670300D02*
X184681800Y-111879900D01*
X171355900Y-88344400D02*
X184681800Y-101670300D01*
X170405900Y-88344400D02*
X171355900Y-88344400D01*
X169215300Y-89535000D02*
X170405900Y-88344400D01*
X169928900Y-111474200D02*
X169554300Y-111848800D01*
X169928900Y-92823000D02*
X169928900Y-111474200D01*
X170078600Y-92673300D02*
X169928900Y-92823000D01*
X60649700Y-89263300D02*
X58480000Y-89263300D01*
X61602800Y-90216400D02*
X60649700Y-89263300D01*
X31839100Y-71506300D02*
X34654600Y-68690800D01*
X31839100Y-107655300D02*
X31839100Y-71506300D01*
X35690300Y-111506500D02*
X31839100Y-107655300D01*
X32958100Y-72008700D02*
X32958100Y-89518600D01*
X35341600Y-69625200D02*
X32958100Y-72008700D01*
X35341600Y-67488800D02*
X35341600Y-69625200D01*
X66548000Y-117475000D02*
X66548000Y-116077700D01*
X37199700Y-82310000D02*
X36488200Y-82310000D01*
X42970600Y-88080900D02*
X37199700Y-82310000D01*
X42970600Y-89274700D02*
X42970600Y-88080900D01*
X50079300Y-96383400D02*
X42970600Y-89274700D01*
X55097400Y-96383400D02*
X50079300Y-96383400D01*
X66032300Y-107318300D02*
X55097400Y-96383400D01*
X66032300Y-115562000D02*
X66032300Y-107318300D01*
X66548000Y-116077700D02*
X66032300Y-115562000D01*
X149036500Y-95526800D02*
X149467300Y-95096000D01*
X149036500Y-97916600D02*
X149036500Y-95526800D01*
X149271200Y-83217300D02*
X149735100Y-82753400D01*
X149271200Y-94899900D02*
X149271200Y-83217300D01*
X149467300Y-95096000D02*
X149271200Y-94899900D01*
X64703000Y-115382700D02*
X64703000Y-110561100D01*
X64008000Y-116077700D02*
X64703000Y-115382700D01*
X64008000Y-117475000D02*
X64008000Y-116077700D01*
X35433000Y-56515000D02*
X35433000Y-57759900D01*
X36806900Y-59133800D02*
X35433000Y-57759900D01*
X36806900Y-76796400D02*
X36806900Y-59133800D01*
X43804900Y-83794400D02*
X36806900Y-76796400D01*
X44252700Y-84512000D02*
X44722600Y-84042100D01*
X43559100Y-84512000D02*
X44252700Y-84512000D01*
X36050300Y-77003200D02*
X43559100Y-84512000D01*
X36050300Y-65010300D02*
X36050300Y-77003200D01*
X34188000Y-63148000D02*
X36050300Y-65010300D01*
X34188000Y-55453400D02*
X34188000Y-63148000D01*
X34421500Y-55219900D02*
X34188000Y-55453400D01*
X35433000Y-55219900D02*
X34421500Y-55219900D01*
X35433000Y-53975000D02*
X35433000Y-55219900D01*
X37973000Y-56515000D02*
X37973000Y-57759900D01*
X37580300Y-58152600D02*
X37973000Y-57759900D01*
X37580300Y-76125100D02*
X37580300Y-58152600D01*
X44553700Y-83098500D02*
X37580300Y-76125100D01*
X37973000Y-53975000D02*
X37973000Y-55219900D01*
X38163600Y-75727100D02*
X44021100Y-81584600D01*
X38163600Y-58564100D02*
X38163600Y-75727100D01*
X39243000Y-57484700D02*
X38163600Y-58564100D01*
X39243000Y-56023100D02*
X39243000Y-57484700D01*
X38439800Y-55219900D02*
X39243000Y-56023100D01*
X37973000Y-55219900D02*
X38439800Y-55219900D01*
X40513000Y-56515000D02*
X40513000Y-57759900D01*
X38671900Y-74584400D02*
X44568700Y-80481200D01*
X38671900Y-59601000D02*
X38671900Y-74584400D01*
X40513000Y-57759900D02*
X38671900Y-59601000D01*
X40513000Y-53975000D02*
X40513000Y-55219900D01*
X39220800Y-73750600D02*
X44839000Y-79368800D01*
X39220800Y-65575900D02*
X39220800Y-73750600D01*
X41783000Y-63013700D02*
X39220800Y-65575900D01*
X41783000Y-56023100D02*
X41783000Y-63013700D01*
X40979800Y-55219900D02*
X41783000Y-56023100D01*
X40513000Y-55219900D02*
X40979800Y-55219900D01*
X39729100Y-72629300D02*
X44981900Y-77882100D01*
X39729100Y-65786400D02*
X39729100Y-72629300D01*
X43053000Y-62462500D02*
X39729100Y-65786400D01*
X43053000Y-56515000D02*
X43053000Y-62462500D01*
X40237400Y-71862800D02*
X45021700Y-76647100D01*
X40237400Y-65997100D02*
X40237400Y-71862800D01*
X44323000Y-61911500D02*
X40237400Y-65997100D01*
X44323000Y-56023100D02*
X44323000Y-61911500D01*
X43519800Y-55219900D02*
X44323000Y-56023100D01*
X43053000Y-55219900D02*
X43519800Y-55219900D01*
X43053000Y-53975000D02*
X43053000Y-55219900D01*
X45593000Y-56515000D02*
X45593000Y-57759900D01*
X44858900Y-74626500D02*
X45711400Y-74626500D01*
X40745700Y-70513300D02*
X44858900Y-74626500D01*
X40745700Y-67057000D02*
X40745700Y-70513300D01*
X44848300Y-62954400D02*
X40745700Y-67057000D01*
X44848300Y-58504600D02*
X44848300Y-62954400D01*
X45593000Y-57759900D02*
X44848300Y-58504600D01*
X45593000Y-53975000D02*
X45593000Y-52730100D01*
X53619000Y-77292300D02*
X54431700Y-78105000D01*
X53619000Y-65213400D02*
X53619000Y-77292300D01*
X51943000Y-63537400D02*
X53619000Y-65213400D01*
X51943000Y-53422700D02*
X51943000Y-63537400D01*
X50701100Y-52180800D02*
X51943000Y-53422700D01*
X46142300Y-52180800D02*
X50701100Y-52180800D01*
X45593000Y-52730100D02*
X46142300Y-52180800D01*
X48133000Y-56515000D02*
X48133000Y-57759900D01*
X48608200Y-58235100D02*
X48133000Y-57759900D01*
X48608200Y-67945000D02*
X48608200Y-58235100D01*
X48522900Y-68030300D02*
X48608200Y-67945000D01*
X48522900Y-73947400D02*
X48522900Y-68030300D01*
X49469600Y-74894100D02*
X48522900Y-73947400D01*
X48133000Y-53975000D02*
X48133000Y-55219900D01*
X51041300Y-77756000D02*
X53677900Y-80392600D01*
X51041300Y-64155100D02*
X51041300Y-77756000D01*
X49377900Y-62491700D02*
X51041300Y-64155100D01*
X49377900Y-55997900D02*
X49377900Y-62491700D01*
X48599900Y-55219900D02*
X49377900Y-55997900D01*
X48133000Y-55219900D02*
X48599900Y-55219900D01*
X46155100Y-63266600D02*
X46155100Y-61840500D01*
X41254100Y-68167600D02*
X46155100Y-63266600D01*
X41254100Y-70230900D02*
X41254100Y-68167600D01*
X44259600Y-73236400D02*
X41254100Y-70230900D01*
X45306500Y-73236400D02*
X44259600Y-73236400D01*
X46739500Y-74669400D02*
X45306500Y-73236400D01*
X50673000Y-53975000D02*
X49428100Y-53975000D01*
X46863000Y-66598900D02*
X47926900Y-67662800D01*
X46863000Y-53431100D02*
X46863000Y-66598900D01*
X47579900Y-52714200D02*
X46863000Y-53431100D01*
X48634100Y-52714200D02*
X47579900Y-52714200D01*
X49428100Y-53508200D02*
X48634100Y-52714200D01*
X49428100Y-53975000D02*
X49428100Y-53508200D01*
X51722600Y-77120700D02*
X51722600Y-71157400D01*
X54433400Y-79831500D02*
X51722600Y-77120700D01*
X54433400Y-83185000D02*
X54433400Y-79831500D01*
X56159000Y-81979700D02*
X57630000Y-83450700D01*
X56159000Y-60705900D02*
X56159000Y-81979700D01*
X53213000Y-57759900D02*
X56159000Y-60705900D01*
X53213000Y-56515000D02*
X53213000Y-57759900D01*
X58698900Y-60239000D02*
X58698900Y-78342100D01*
X53679800Y-55219900D02*
X58698900Y-60239000D01*
X53213000Y-55219900D02*
X53679800Y-55219900D01*
X53213000Y-53975000D02*
X53213000Y-55219900D01*
X63754000Y-84656600D02*
X64672800Y-85575400D01*
X63754000Y-59918900D02*
X63754000Y-84656600D01*
X65913000Y-57759900D02*
X63754000Y-59918900D01*
X65913000Y-56515000D02*
X65913000Y-57759900D01*
X61214000Y-83671400D02*
X61554200Y-84011600D01*
X61214000Y-58907400D02*
X61214000Y-83671400D01*
X64901500Y-55219900D02*
X61214000Y-58907400D01*
X65913000Y-55219900D02*
X64901500Y-55219900D01*
X65913000Y-53975000D02*
X65913000Y-55219900D01*
X68453000Y-56515000D02*
X68453000Y-65691100D01*
X67347400Y-74867500D02*
X69264500Y-72950400D01*
X67347400Y-81888100D02*
X67347400Y-74867500D01*
X65898200Y-83337300D02*
X67347400Y-81888100D01*
X68453000Y-53975000D02*
X68453000Y-55219900D01*
X64580600Y-81813300D02*
X64682300Y-81915000D01*
X64580600Y-72676300D02*
X64580600Y-81813300D01*
X66294000Y-70962900D02*
X64580600Y-72676300D01*
X66294000Y-66295400D02*
X66294000Y-70962900D01*
X67208100Y-65381300D02*
X66294000Y-66295400D01*
X67208100Y-55997900D02*
X67208100Y-65381300D01*
X67986100Y-55219900D02*
X67208100Y-55997900D01*
X68453000Y-55219900D02*
X67986100Y-55219900D01*
X70993000Y-56515000D02*
X70993000Y-57759900D01*
X71556400Y-58323300D02*
X70993000Y-57759900D01*
X71556400Y-65909000D02*
X71556400Y-58323300D01*
X71368500Y-66096900D02*
X71556400Y-65909000D01*
X71368500Y-69882400D02*
X71368500Y-66096900D01*
X66023800Y-75227100D02*
X71368500Y-69882400D01*
X66023800Y-79839400D02*
X66023800Y-75227100D01*
X65651700Y-80211500D02*
X66023800Y-79839400D01*
X65302200Y-74144200D02*
X65302200Y-78469000D01*
X68834000Y-70612400D02*
X65302200Y-74144200D01*
X68834000Y-67349800D02*
X68834000Y-70612400D01*
X69748100Y-66435700D02*
X68834000Y-67349800D01*
X69748100Y-55997900D02*
X69748100Y-66435700D01*
X70526100Y-55219900D02*
X69748100Y-55997900D01*
X70993000Y-55219900D02*
X70526100Y-55219900D01*
X70993000Y-53975000D02*
X70993000Y-55219900D01*
X73533000Y-56515000D02*
X73533000Y-57759900D01*
X72762200Y-58530700D02*
X73533000Y-57759900D01*
X72762200Y-66140800D02*
X72762200Y-58530700D01*
X72385200Y-66517800D02*
X72762200Y-66140800D01*
X72385200Y-71188900D02*
X72385200Y-66517800D01*
X72440000Y-71243700D02*
X72385200Y-71188900D01*
X72440000Y-74911700D02*
X72440000Y-71243700D01*
X69246700Y-78105000D02*
X72440000Y-74911700D01*
X73533000Y-53975000D02*
X73533000Y-55219900D01*
X73066100Y-55219900D02*
X73533000Y-55219900D01*
X72253900Y-56032100D02*
X73066100Y-55219900D01*
X72253900Y-65930300D02*
X72253900Y-56032100D01*
X71876900Y-66307300D02*
X72253900Y-65930300D01*
X71876900Y-71399400D02*
X71876900Y-66307300D01*
X71931700Y-71454200D02*
X71876900Y-71399400D01*
X71931700Y-74150000D02*
X71931700Y-71454200D01*
X69246700Y-76835000D02*
X71931700Y-74150000D01*
X75438000Y-75518000D02*
X74223200Y-76732800D01*
X75438000Y-58394900D02*
X75438000Y-75518000D01*
X76073000Y-57759900D02*
X75438000Y-58394900D01*
X76073000Y-56515000D02*
X76073000Y-57759900D01*
X77978000Y-74190500D02*
X74436700Y-77731800D01*
X77978000Y-63041000D02*
X77978000Y-74190500D01*
X77317900Y-62380900D02*
X77978000Y-63041000D01*
X77317900Y-55997900D02*
X77317900Y-62380900D01*
X76539900Y-55219900D02*
X77317900Y-55997900D01*
X76073000Y-55219900D02*
X76539900Y-55219900D01*
X76073000Y-53975000D02*
X76073000Y-55219900D01*
X78613000Y-56515000D02*
X78613000Y-55270100D01*
X79079800Y-55270100D02*
X78613000Y-55270100D01*
X79883000Y-54466900D02*
X79079800Y-55270100D01*
X79883000Y-53482400D02*
X79883000Y-54466900D01*
X79103600Y-52703000D02*
X79883000Y-53482400D01*
X75553500Y-52703000D02*
X79103600Y-52703000D01*
X74803000Y-53453500D02*
X75553500Y-52703000D01*
X74803000Y-58464600D02*
X74803000Y-53453500D01*
X73476500Y-59791100D02*
X74803000Y-58464600D01*
X73476500Y-66364400D02*
X73476500Y-59791100D01*
X72893600Y-66947300D02*
X73476500Y-66364400D01*
X72893600Y-70978500D02*
X72893600Y-66947300D01*
X72948300Y-71033200D02*
X72893600Y-70978500D01*
X72948300Y-78354500D02*
X72948300Y-71033200D01*
X74077700Y-79483900D02*
X72948300Y-78354500D01*
X78286100Y-77678500D02*
X81629200Y-74335400D01*
X77562400Y-77678500D02*
X78286100Y-77678500D01*
X81153000Y-56515000D02*
X81153000Y-57759900D01*
X75333000Y-80660500D02*
X74078500Y-81915000D01*
X75333000Y-78798900D02*
X75333000Y-80660500D01*
X80518100Y-73613800D02*
X75333000Y-78798900D01*
X80518100Y-58394800D02*
X80518100Y-73613800D01*
X81153000Y-57759900D02*
X80518100Y-58394800D01*
X70695300Y-74065500D02*
X70695300Y-72872500D01*
X68565300Y-76195500D02*
X70695300Y-74065500D01*
X68565300Y-78473000D02*
X68565300Y-76195500D01*
X73089200Y-82996900D02*
X68565300Y-78473000D01*
X74087400Y-82996900D02*
X73089200Y-82996900D01*
X70856600Y-65641700D02*
X70858400Y-65643500D01*
X70856600Y-59312500D02*
X70856600Y-65641700D01*
X74457300Y-66346900D02*
X73598800Y-67205400D01*
X74457300Y-61567600D02*
X74457300Y-66346900D01*
X70868000Y-71736400D02*
X71250400Y-71736400D01*
X69945800Y-72658600D02*
X70868000Y-71736400D01*
X69945800Y-73624800D02*
X69945800Y-72658600D01*
X68055100Y-75515500D02*
X69945800Y-73624800D01*
X68055100Y-81575500D02*
X68055100Y-75515500D01*
X70934600Y-84455000D02*
X68055100Y-81575500D01*
X82310600Y-73783900D02*
X82180800Y-73654100D01*
X82310600Y-74704400D02*
X82310600Y-73783900D01*
X79283700Y-77731300D02*
X82310600Y-74704400D01*
X79283700Y-81377100D02*
X79283700Y-77731300D01*
X74870200Y-85790600D02*
X79283700Y-81377100D01*
X82885300Y-70735700D02*
X82694100Y-70544500D01*
X82885300Y-76126800D02*
X82885300Y-70735700D01*
X80427100Y-78585000D02*
X82885300Y-76126800D01*
X80427100Y-84895900D02*
X80427100Y-78585000D01*
X81191100Y-85659900D02*
X80427100Y-84895900D01*
X96393000Y-53975000D02*
X96393000Y-55219900D01*
X81160300Y-83293900D02*
X81160300Y-83894500D01*
X84514000Y-79940200D02*
X81160300Y-83293900D01*
X84514000Y-75682900D02*
X84514000Y-79940200D01*
X88137900Y-72059000D02*
X84514000Y-75682900D01*
X88137900Y-62463500D02*
X88137900Y-72059000D01*
X95381500Y-55219900D02*
X88137900Y-62463500D01*
X96393000Y-55219900D02*
X95381500Y-55219900D01*
X98933000Y-56515000D02*
X98933000Y-57759900D01*
X85022300Y-80796900D02*
X82634200Y-83185000D01*
X85022300Y-76535200D02*
X85022300Y-80796900D01*
X90678000Y-70879500D02*
X85022300Y-76535200D01*
X90678000Y-66014900D02*
X90678000Y-70879500D01*
X98933000Y-57759900D02*
X90678000Y-66014900D01*
X98933000Y-53975000D02*
X97688100Y-53975000D01*
X84005700Y-79118900D02*
X81209600Y-81915000D01*
X84005700Y-75182600D02*
X84005700Y-79118900D01*
X85598000Y-73590300D02*
X84005700Y-75182600D01*
X85598000Y-62996100D02*
X85598000Y-73590300D01*
X95876800Y-52717300D02*
X85598000Y-62996100D01*
X96897200Y-52717300D02*
X95876800Y-52717300D01*
X97688100Y-53508200D02*
X96897200Y-52717300D01*
X97688100Y-53975000D02*
X97688100Y-53508200D01*
X101473000Y-62540500D02*
X87186400Y-76827100D01*
X101473000Y-56515000D02*
X101473000Y-62540500D01*
X83393700Y-77535200D02*
X81403400Y-79525500D01*
X83393700Y-70193700D02*
X83393700Y-77535200D01*
X83083000Y-69883000D02*
X83393700Y-70193700D01*
X83083000Y-64760200D02*
X83083000Y-69883000D01*
X95634500Y-52208700D02*
X83083000Y-64760200D01*
X98928600Y-52208700D02*
X95634500Y-52208700D01*
X100228100Y-53508200D02*
X98928600Y-52208700D01*
X100228100Y-53975000D02*
X100228100Y-53508200D01*
X101473000Y-53975000D02*
X100228100Y-53975000D01*
X104013000Y-56515000D02*
X104013000Y-57759900D01*
X104013000Y-60964000D02*
X104013000Y-57759900D01*
X86872000Y-78105000D02*
X104013000Y-60964000D01*
X86747500Y-78105000D02*
X86872000Y-78105000D01*
X87002800Y-75998200D02*
X86134500Y-76866500D01*
X87097200Y-75998200D02*
X87002800Y-75998200D01*
X100203000Y-62892400D02*
X87097200Y-75998200D01*
X100203000Y-55963600D02*
X100203000Y-62892400D01*
X100946700Y-55219900D02*
X100203000Y-55963600D01*
X101990100Y-55219900D02*
X100946700Y-55219900D01*
X102768100Y-54441900D02*
X101990100Y-55219900D01*
X102768100Y-53975000D02*
X102768100Y-54441900D01*
X104013000Y-53975000D02*
X102768100Y-53975000D01*
X106553000Y-53975000D02*
X106553000Y-55219900D01*
X105308100Y-59935500D02*
X104714500Y-60529100D01*
X105308100Y-55997900D02*
X105308100Y-59935500D01*
X106086100Y-55219900D02*
X105308100Y-55997900D01*
X106553000Y-55219900D02*
X106086100Y-55219900D01*
X109093000Y-53975000D02*
X109093000Y-55219900D01*
X108626100Y-55219900D02*
X109093000Y-55219900D01*
X107848100Y-55997900D02*
X108626100Y-55219900D01*
X107848100Y-58919000D02*
X107848100Y-55997900D01*
X90665800Y-76101300D02*
X107848100Y-58919000D01*
X90665800Y-80511700D02*
X90665800Y-76101300D01*
X111633000Y-53975000D02*
X111633000Y-55219900D01*
X111166100Y-55219900D02*
X111633000Y-55219900D01*
X110388100Y-55997900D02*
X111166100Y-55219900D01*
X110388100Y-57264300D02*
X110388100Y-55997900D01*
X93357900Y-74294500D02*
X110388100Y-57264300D01*
X93357900Y-80416400D02*
X93357900Y-74294500D01*
X90589300Y-83185000D02*
X93357900Y-80416400D01*
X98249200Y-85990700D02*
X98163100Y-85904600D01*
X102415800Y-85990700D02*
X98249200Y-85990700D01*
X104784800Y-83621700D02*
X102415800Y-85990700D01*
X104784800Y-82940200D02*
X104784800Y-83621700D01*
X110363000Y-77362000D02*
X104784800Y-82940200D01*
X110363000Y-63623500D02*
X110363000Y-77362000D01*
X116018300Y-57968200D02*
X110363000Y-63623500D01*
X116018300Y-54041800D02*
X116018300Y-57968200D01*
X114693200Y-52716700D02*
X116018300Y-54041800D01*
X113600300Y-52716700D02*
X114693200Y-52716700D01*
X112903000Y-53414000D02*
X113600300Y-52716700D01*
X112903000Y-55245000D02*
X112903000Y-53414000D01*
X114173000Y-56515000D02*
X112903000Y-55245000D01*
X90589300Y-84148600D02*
X90589300Y-85761000D01*
X95179200Y-79558700D02*
X90589300Y-84148600D01*
X95179200Y-74505800D02*
X95179200Y-79558700D01*
X102985000Y-66700000D02*
X95179200Y-74505800D01*
X104504500Y-66700000D02*
X102985000Y-66700000D01*
X105283000Y-65921500D02*
X104504500Y-66700000D01*
X105283000Y-64872200D02*
X105283000Y-65921500D01*
X106405500Y-63749700D02*
X105283000Y-64872200D01*
X108735500Y-63749700D02*
X106405500Y-63749700D01*
X115441500Y-57043700D02*
X108735500Y-63749700D01*
X115441500Y-56021600D02*
X115441500Y-57043700D01*
X114639800Y-55219900D02*
X115441500Y-56021600D01*
X114173000Y-55219900D02*
X114639800Y-55219900D01*
X114173000Y-53975000D02*
X114173000Y-55219900D01*
X174565600Y-78681400D02*
X174565600Y-75565000D01*
X166847700Y-86399300D02*
X174565600Y-78681400D01*
X156784700Y-86399300D02*
X166847700Y-86399300D01*
X150043600Y-93140400D02*
X156784700Y-86399300D01*
X140103800Y-91369300D02*
X140103800Y-91850900D01*
X149869900Y-81603200D02*
X140103800Y-91369300D01*
X149869900Y-77210400D02*
X149869900Y-81603200D01*
X127817000Y-85928000D02*
X132094200Y-81650800D01*
X116932800Y-85928000D02*
X127817000Y-85928000D01*
X112404200Y-90456600D02*
X116932800Y-85928000D01*
X97161700Y-86622100D02*
X90657500Y-93126300D01*
X106644600Y-86622100D02*
X97161700Y-86622100D01*
X117269500Y-75997200D02*
X106644600Y-86622100D01*
X91406400Y-85981600D02*
X84735500Y-92652500D01*
X91406400Y-84050500D02*
X91406400Y-85981600D01*
X99891900Y-75565000D02*
X91406400Y-84050500D01*
X101510900Y-75565000D02*
X99891900Y-75565000D01*
X67987100Y-85965900D02*
X62040900Y-91912100D01*
X72159900Y-85965900D02*
X67987100Y-85965900D01*
X78071900Y-80053900D02*
X72159900Y-85965900D01*
X78071900Y-78480800D02*
X78071900Y-80053900D01*
X53272300Y-91127600D02*
X53272300Y-91590800D01*
X59270800Y-85129100D02*
X53272300Y-91127600D01*
X40855300Y-90482200D02*
X42323700Y-91950600D01*
X40855300Y-86929600D02*
X40855300Y-90482200D01*
X46222600Y-94259800D02*
X38803300Y-94259800D01*
X49027500Y-97064700D02*
X46222600Y-94259800D01*
X52819800Y-97064700D02*
X49027500Y-97064700D01*
X127255700Y-98649500D02*
X135104000Y-98649500D01*
X124092800Y-95486600D02*
X127255700Y-98649500D01*
X39512400Y-95955200D02*
X46940700Y-95955200D01*
X38714800Y-95157600D02*
X39512400Y-95955200D01*
X111153100Y-98304600D02*
X111863500Y-98304600D01*
X109038900Y-96190400D02*
X111153100Y-98304600D01*
X97979800Y-119038900D02*
X96503500Y-120515200D01*
X97979800Y-110589500D02*
X97979800Y-119038900D01*
X95218600Y-107828300D02*
X97979800Y-110589500D01*
X95218600Y-107387100D02*
X95218600Y-107828300D01*
X33765300Y-98043600D02*
X33464600Y-98344300D01*
X33765300Y-79489000D02*
X33765300Y-98043600D01*
X34208000Y-79046300D02*
X33765300Y-79489000D01*
X34715600Y-79046300D02*
X34208000Y-79046300D01*
X43478900Y-87809600D02*
X34715600Y-79046300D01*
X43478900Y-89064200D02*
X43478900Y-87809600D01*
X49869600Y-95454900D02*
X43478900Y-89064200D01*
X70836900Y-95454900D02*
X49869600Y-95454900D01*
X77298200Y-101916200D02*
X70836900Y-95454900D01*
X48050500Y-103807300D02*
X44386100Y-103807300D01*
X53916700Y-97941100D02*
X48050500Y-103807300D01*
X40537600Y-103090500D02*
X37604600Y-103090500D01*
X44847300Y-98780800D02*
X40537600Y-103090500D01*
X102163400Y-79381500D02*
X102163400Y-85250900D01*
X104013000Y-77531900D02*
X102163400Y-79381500D01*
X104013000Y-69189900D02*
X104013000Y-77531900D01*
X104013000Y-67945000D02*
X104013000Y-69189900D01*
X106553000Y-65405000D02*
X106553000Y-66649900D01*
X105171600Y-79661900D02*
X102918500Y-81915000D01*
X105171600Y-73829500D02*
X105171600Y-79661900D01*
X105308100Y-73693000D02*
X105171600Y-73829500D01*
X105308100Y-67427900D02*
X105308100Y-73693000D01*
X106086100Y-66649900D02*
X105308100Y-67427900D01*
X106553000Y-66649900D02*
X106086100Y-66649900D01*
X105852900Y-72430000D02*
X105852900Y-74111600D01*
X109093000Y-69189900D02*
X105852900Y-72430000D01*
X109093000Y-67945000D02*
X109093000Y-69189900D01*
X114173000Y-65405000D02*
X114173000Y-66649900D01*
X112928100Y-76082800D02*
X110905900Y-78105000D01*
X112928100Y-67427900D02*
X112928100Y-76082800D01*
X113706100Y-66649900D02*
X112928100Y-67427900D01*
X114173000Y-66649900D02*
X113706100Y-66649900D01*
X126873000Y-56515000D02*
X126873000Y-57759900D01*
X120106000Y-84766000D02*
X120553000Y-85213000D01*
X120106000Y-71422900D02*
X120106000Y-84766000D01*
X123237400Y-68291500D02*
X120106000Y-71422900D01*
X123237400Y-61395500D02*
X123237400Y-68291500D01*
X126873000Y-57759900D02*
X123237400Y-61395500D01*
X126873000Y-53975000D02*
X126873000Y-55219900D01*
X119415300Y-82466800D02*
X117427100Y-84455000D01*
X119415300Y-70297700D02*
X119415300Y-82466800D01*
X120523000Y-69190000D02*
X119415300Y-70297700D01*
X120523000Y-60558400D02*
X120523000Y-69190000D01*
X125861500Y-55219900D02*
X120523000Y-60558400D01*
X126873000Y-55219900D02*
X125861500Y-55219900D01*
X129413000Y-56515000D02*
X129413000Y-57759900D01*
X124179700Y-62993200D02*
X129413000Y-57759900D01*
X124179700Y-68068200D02*
X124179700Y-62993200D01*
X120787300Y-71460600D02*
X124179700Y-68068200D01*
X120787300Y-83012600D02*
X120787300Y-71460600D01*
X129413000Y-53975000D02*
X128168100Y-53975000D01*
X117983100Y-80818100D02*
X117471100Y-81330100D01*
X117983100Y-61092900D02*
X117983100Y-80818100D01*
X126379300Y-52696700D02*
X117983100Y-61092900D01*
X127356600Y-52696700D02*
X126379300Y-52696700D01*
X128168100Y-53508200D02*
X127356600Y-52696700D01*
X128168100Y-53975000D02*
X128168100Y-53508200D01*
X131953000Y-56515000D02*
X131953000Y-57759900D01*
X122438100Y-73855100D02*
X122438100Y-80143900D01*
X125850000Y-70443200D02*
X122438100Y-73855100D01*
X125850000Y-63862900D02*
X125850000Y-70443200D01*
X131953000Y-57759900D02*
X125850000Y-63862900D01*
X131953000Y-53975000D02*
X131953000Y-55219900D01*
X121611000Y-72074300D02*
X121611000Y-79375000D01*
X124762300Y-68923000D02*
X121611000Y-72074300D01*
X124762300Y-63891600D02*
X124762300Y-68923000D01*
X130708100Y-57945800D02*
X124762300Y-63891600D01*
X130708100Y-55997900D02*
X130708100Y-57945800D01*
X131486100Y-55219900D02*
X130708100Y-55997900D01*
X131953000Y-55219900D02*
X131486100Y-55219900D01*
X129648100Y-71426100D02*
X123306200Y-77768000D01*
X129648100Y-62604800D02*
X129648100Y-71426100D01*
X134493000Y-57759900D02*
X129648100Y-62604800D01*
X134493000Y-56515000D02*
X134493000Y-57759900D01*
X134493000Y-53975000D02*
X134493000Y-55219900D01*
X126656200Y-72998000D02*
X123124200Y-76530000D01*
X126656200Y-64757100D02*
X126656200Y-72998000D01*
X133248100Y-58165200D02*
X126656200Y-64757100D01*
X133248100Y-55997900D02*
X133248100Y-58165200D01*
X134026100Y-55219900D02*
X133248100Y-55997900D01*
X134493000Y-55219900D02*
X134026100Y-55219900D01*
X137033000Y-53975000D02*
X137033000Y-55219900D01*
X136566100Y-55219900D02*
X137033000Y-55219900D01*
X135788100Y-55997900D02*
X136566100Y-55219900D01*
X135788100Y-58055300D02*
X135788100Y-55997900D01*
X130156500Y-63686900D02*
X135788100Y-58055300D01*
X130156500Y-78105000D02*
X130156500Y-63686900D01*
X139573000Y-53975000D02*
X139573000Y-55219900D01*
X131042000Y-79442100D02*
X130029200Y-80454900D01*
X131042000Y-64297200D02*
X131042000Y-79442100D01*
X138328100Y-57011100D02*
X131042000Y-64297200D01*
X138328100Y-55997900D02*
X138328100Y-57011100D01*
X139106100Y-55219900D02*
X138328100Y-55997900D01*
X139573000Y-55219900D02*
X139106100Y-55219900D01*
X142113000Y-56515000D02*
X140868100Y-56515000D01*
X131550300Y-80153800D02*
X130553700Y-81150400D01*
X131550300Y-65071200D02*
X131550300Y-80153800D01*
X134250000Y-62371500D02*
X131550300Y-65071200D01*
X135478400Y-62371500D02*
X134250000Y-62371500D01*
X140868100Y-56981800D02*
X135478400Y-62371500D01*
X140868100Y-56515000D02*
X140868100Y-56981800D01*
X132775500Y-65309600D02*
X132775500Y-81101800D01*
X134188600Y-63896500D02*
X132775500Y-65309600D01*
X137271500Y-63896500D02*
X134188600Y-63896500D01*
X144653000Y-56515000D02*
X137271500Y-63896500D01*
X144653000Y-53975000D02*
X144653000Y-55219900D01*
X127423000Y-85244700D02*
X126813500Y-85244700D01*
X132267100Y-80400600D02*
X127423000Y-85244700D01*
X132267100Y-65099000D02*
X132267100Y-80400600D01*
X134411900Y-62954200D02*
X132267100Y-65099000D01*
X137494800Y-62954200D02*
X134411900Y-62954200D01*
X143408100Y-57040900D02*
X137494800Y-62954200D01*
X143408100Y-55997900D02*
X143408100Y-57040900D01*
X144186100Y-55219900D02*
X143408100Y-55997900D01*
X144653000Y-55219900D02*
X144186100Y-55219900D01*
X134493000Y-83912400D02*
X134493000Y-69189900D01*
X136272300Y-85691700D02*
X134493000Y-83912400D01*
X134493000Y-67945000D02*
X134493000Y-69189900D01*
X134493000Y-65405000D02*
X134493000Y-66649900D01*
X135737900Y-83711600D02*
X136481300Y-84455000D01*
X135737900Y-66883300D02*
X135737900Y-83711600D01*
X135504500Y-66649900D02*
X135737900Y-66883300D01*
X134493000Y-66649900D02*
X135504500Y-66649900D01*
X137033000Y-67945000D02*
X137033000Y-69189900D01*
X137033000Y-80075900D02*
X137033000Y-69189900D01*
X139706500Y-82749400D02*
X137033000Y-80075900D01*
X137033000Y-65405000D02*
X137033000Y-66649900D01*
X138277900Y-80288200D02*
X139609300Y-81619600D01*
X138277900Y-67427900D02*
X138277900Y-80288200D01*
X137499900Y-66649900D02*
X138277900Y-67427900D01*
X137033000Y-66649900D02*
X137499900Y-66649900D01*
X139573000Y-67945000D02*
X139573000Y-69189900D01*
X139605700Y-69222600D02*
X139605700Y-80645000D01*
X139573000Y-69189900D02*
X139605700Y-69222600D01*
X140817900Y-77249900D02*
X141084600Y-77516600D01*
X140817900Y-67427900D02*
X140817900Y-77249900D01*
X140039900Y-66649900D02*
X140817900Y-67427900D01*
X139573000Y-66649900D02*
X140039900Y-66649900D01*
X139573000Y-65405000D02*
X139573000Y-66649900D01*
X147193000Y-78067200D02*
X145885200Y-79375000D01*
X147193000Y-67945000D02*
X147193000Y-78067200D01*
X147193000Y-65405000D02*
X147193000Y-66649900D01*
X145923000Y-78101700D02*
X145203800Y-78820900D01*
X145923000Y-67396700D02*
X145923000Y-78101700D01*
X146669800Y-66649900D02*
X145923000Y-67396700D01*
X147193000Y-66649900D02*
X146669800Y-66649900D01*
X149048300Y-69874600D02*
X149048300Y-81461300D01*
X149733000Y-69189900D02*
X149048300Y-69874600D01*
X149733000Y-67945000D02*
X149733000Y-69189900D01*
X149733000Y-65405000D02*
X149733000Y-66649900D01*
X148488100Y-80579600D02*
X145882700Y-83185000D01*
X148488100Y-67427900D02*
X148488100Y-80579600D01*
X149266100Y-66649900D02*
X148488100Y-67427900D01*
X149733000Y-66649900D02*
X149266100Y-66649900D01*
X152557100Y-69474000D02*
X152557100Y-77276400D01*
X152273000Y-69189900D02*
X152557100Y-69474000D01*
X152273000Y-67945000D02*
X152273000Y-69189900D01*
X152273000Y-65405000D02*
X152273000Y-66649900D01*
X151806100Y-66649900D02*
X152273000Y-66649900D01*
X151028000Y-67428000D02*
X151806100Y-66649900D01*
X151028000Y-84547100D02*
X151028000Y-67428000D01*
X150389700Y-85185400D02*
X151028000Y-84547100D01*
X157353000Y-84231700D02*
X158662800Y-85541500D01*
X157353000Y-56515000D02*
X157353000Y-84231700D01*
X155537000Y-56024400D02*
X155537000Y-84455000D01*
X156341500Y-55219900D02*
X155537000Y-56024400D01*
X157353000Y-55219900D02*
X156341500Y-55219900D01*
X157353000Y-53975000D02*
X157353000Y-55219900D01*
X159281800Y-58371100D02*
X159893000Y-57759900D01*
X159281800Y-75360200D02*
X159281800Y-58371100D01*
X159893000Y-56515000D02*
X159893000Y-57759900D01*
X159893000Y-53975000D02*
X159893000Y-55219900D01*
X158561200Y-81811500D02*
X158664700Y-81915000D01*
X158561200Y-57977600D02*
X158561200Y-81811500D01*
X158648100Y-57890700D02*
X158561200Y-57977600D01*
X158648100Y-55997900D02*
X158648100Y-57890700D01*
X159426100Y-55219900D02*
X158648100Y-55997900D01*
X159893000Y-55219900D02*
X159426100Y-55219900D01*
X160181900Y-79653300D02*
X159311300Y-80523900D01*
X160181900Y-76142600D02*
X160181900Y-79653300D01*
X160474100Y-75850400D02*
X160181900Y-76142600D01*
X160474100Y-59718800D02*
X160474100Y-75850400D01*
X162433000Y-57759900D02*
X160474100Y-59718800D01*
X162433000Y-56515000D02*
X162433000Y-57759900D01*
X162433000Y-53975000D02*
X162433000Y-55219900D01*
X159500500Y-76105000D02*
X159500500Y-79197500D01*
X159963100Y-75642400D02*
X159500500Y-76105000D01*
X159963100Y-58959900D02*
X159963100Y-75642400D01*
X161188100Y-57734900D02*
X159963100Y-58959900D01*
X161188100Y-55997900D02*
X161188100Y-57734900D01*
X161966100Y-55219900D02*
X161188100Y-55997900D01*
X162433000Y-55219900D02*
X161966100Y-55219900D01*
X164973000Y-56515000D02*
X164973000Y-57759900D01*
X161695000Y-61037900D02*
X164973000Y-57759900D01*
X161695000Y-77103800D02*
X161695000Y-61037900D01*
X160878300Y-77920500D02*
X161695000Y-77103800D01*
X164973000Y-53975000D02*
X164973000Y-55219900D01*
X164506100Y-55219900D02*
X164973000Y-55219900D01*
X163728100Y-55997900D02*
X164506100Y-55219900D01*
X163728100Y-58185000D02*
X163728100Y-55997900D01*
X160982500Y-60930600D02*
X163728100Y-58185000D01*
X160982500Y-76835000D02*
X160982500Y-60930600D01*
X167513000Y-56515000D02*
X167513000Y-57759900D01*
X163693100Y-61579800D02*
X167513000Y-57759900D01*
X163693100Y-76082300D02*
X163693100Y-61579800D01*
X164350600Y-76739800D02*
X163693100Y-76082300D01*
X170053000Y-56515000D02*
X170053000Y-57759900D01*
X168808100Y-78652000D02*
X168155900Y-79304200D01*
X168808100Y-59004800D02*
X168808100Y-78652000D01*
X170053000Y-57759900D02*
X168808100Y-59004800D01*
X173863000Y-77680000D02*
X170120100Y-81422900D01*
X173863000Y-59029900D02*
X173863000Y-77680000D01*
X172593000Y-57759900D02*
X173863000Y-59029900D01*
X172593000Y-56515000D02*
X172593000Y-57759900D01*
X172593000Y-53975000D02*
X172593000Y-55219900D01*
X168608200Y-81971400D02*
X168608200Y-83042200D01*
X171348100Y-79231500D02*
X168608200Y-81971400D01*
X171348100Y-55997900D02*
X171348100Y-79231500D01*
X172126100Y-55219900D02*
X171348100Y-55997900D01*
X172593000Y-55219900D02*
X172126100Y-55219900D01*
X175133000Y-56515000D02*
X175133000Y-55270100D01*
X174666100Y-55270100D02*
X175133000Y-55270100D01*
X173888100Y-54492100D02*
X174666100Y-55270100D01*
X173888100Y-53457900D02*
X173888100Y-54492100D01*
X173102600Y-52672400D02*
X173888100Y-53457900D01*
X172054200Y-52672400D02*
X173102600Y-52672400D01*
X171323000Y-53403600D02*
X172054200Y-52672400D01*
X171323000Y-54480900D02*
X171323000Y-53403600D01*
X170558900Y-55245000D02*
X171323000Y-54480900D01*
X169530000Y-55245000D02*
X170558900Y-55245000D01*
X168808100Y-55966900D02*
X169530000Y-55245000D01*
X168808100Y-57251600D02*
X168808100Y-55966900D01*
X166217900Y-59841800D02*
X168808100Y-57251600D01*
X166217900Y-82287900D02*
X166217900Y-59841800D01*
X168090000Y-84160000D02*
X166217900Y-82287900D01*
X176377900Y-69933700D02*
X180051100Y-73606900D01*
X176377900Y-67427900D02*
X176377900Y-69933700D01*
X175599900Y-66649900D02*
X176377900Y-67427900D01*
X175133000Y-66649900D02*
X175599900Y-66649900D01*
X175133000Y-65405000D02*
X175133000Y-66649900D01*
X177673000Y-67945000D02*
X177673000Y-69189900D01*
X179365800Y-70882700D02*
X179365800Y-71922900D01*
X177673000Y-69189900D02*
X179365800Y-70882700D01*
X180213000Y-67945000D02*
X180213000Y-69189900D01*
X181276000Y-70252900D02*
X180213000Y-69189900D01*
X181276000Y-79908800D02*
X181276000Y-70252900D01*
X183282200Y-81915000D02*
X181276000Y-79908800D01*
X180213000Y-65405000D02*
X180213000Y-66649900D01*
X183206400Y-82813200D02*
X183545200Y-82813200D01*
X180767600Y-80374400D02*
X183206400Y-82813200D01*
X180767600Y-70463500D02*
X180767600Y-80374400D01*
X178943000Y-68638900D02*
X180767600Y-70463500D01*
X178943000Y-67453100D02*
X178943000Y-68638900D01*
X179746200Y-66649900D02*
X178943000Y-67453100D01*
X180213000Y-66649900D02*
X179746200Y-66649900D01*
X182683300Y-69259600D02*
X182683300Y-80108300D01*
X182753000Y-69189900D02*
X182683300Y-69259600D01*
X182753000Y-67945000D02*
X182753000Y-69189900D01*
X182753000Y-65405000D02*
X182753000Y-66649900D01*
X184226500Y-85542200D02*
X183990500Y-85778200D01*
X184226500Y-67656600D02*
X184226500Y-85542200D01*
X183219800Y-66649900D02*
X184226500Y-67656600D01*
X182753000Y-66649900D02*
X183219800Y-66649900D01*
X49784000Y-69215000D02*
X49784000Y-70612300D01*
X49483900Y-89304400D02*
X48506900Y-90281400D01*
X50013200Y-89304400D02*
X49483900Y-89304400D01*
X50150900Y-89166700D02*
X50013200Y-89304400D01*
X50150900Y-70979200D02*
X50150900Y-89166700D01*
X49784000Y-70612300D02*
X50150900Y-70979200D01*
X87315100Y-112456500D02*
X89408000Y-114549400D01*
X86331900Y-112456500D02*
X87315100Y-112456500D01*
X82639700Y-108764300D02*
X86331900Y-112456500D01*
X82639700Y-105508700D02*
X82639700Y-108764300D01*
X77857600Y-100726600D02*
X82639700Y-105508700D01*
X77710600Y-100726600D02*
X77857600Y-100726600D01*
X70937600Y-93953600D02*
X77710600Y-100726600D01*
X54662400Y-93953600D02*
X70937600Y-93953600D01*
X50013200Y-89304400D02*
X54662400Y-93953600D01*
X47244000Y-69215000D02*
X47244000Y-70612300D01*
X91948000Y-117475000D02*
X90703100Y-117475000D01*
X49960900Y-94582600D02*
X44182100Y-88803800D01*
X70847800Y-94582600D02*
X49960900Y-94582600D01*
X77500100Y-101234900D02*
X70847800Y-94582600D01*
X77647100Y-101234900D02*
X77500100Y-101234900D01*
X82127500Y-105715300D02*
X77647100Y-101234900D01*
X82127500Y-108970800D02*
X82127500Y-105715300D01*
X86121500Y-112964800D02*
X82127500Y-108970800D01*
X86840400Y-112964800D02*
X86121500Y-112964800D01*
X90703100Y-116827500D02*
X86840400Y-112964800D01*
X90703100Y-117475000D02*
X90703100Y-116827500D01*
X47420800Y-70789100D02*
X47244000Y-70612300D01*
X47420800Y-85565100D02*
X47420800Y-70789100D01*
X44182100Y-88803800D02*
X47420800Y-85565100D01*
X35433000Y-133350000D02*
X35433000Y-132105100D01*
X41370000Y-108100000D02*
X41497500Y-108100000D01*
X38710600Y-110759400D02*
X41370000Y-108100000D01*
X38710600Y-111009200D02*
X38710600Y-110759400D01*
X36677900Y-113041900D02*
X38710600Y-111009200D01*
X36677900Y-131327100D02*
X36677900Y-113041900D01*
X35899900Y-132105100D02*
X36677900Y-131327100D01*
X35433000Y-132105100D02*
X35899900Y-132105100D01*
X35433000Y-130810000D02*
X35433000Y-129565100D01*
X38202300Y-110189900D02*
X41177800Y-107214400D01*
X38202300Y-110746000D02*
X38202300Y-110189900D01*
X35433000Y-113515300D02*
X38202300Y-110746000D01*
X35433000Y-129565100D02*
X35433000Y-113515300D01*
X37973000Y-133350000D02*
X37973000Y-132105100D01*
X42196100Y-109680200D02*
X42196100Y-106591900D01*
X39217900Y-112658400D02*
X42196100Y-109680200D01*
X39217900Y-131327100D02*
X39217900Y-112658400D01*
X38439900Y-132105100D02*
X39217900Y-131327100D01*
X37973000Y-132105100D02*
X38439900Y-132105100D01*
X37973000Y-112465700D02*
X41214000Y-109224700D01*
X37973000Y-130810000D02*
X37973000Y-112465700D01*
X45354500Y-105506800D02*
X44523600Y-104675900D01*
X45354500Y-122673300D02*
X45354500Y-105506800D01*
X44322900Y-123704900D02*
X45354500Y-122673300D01*
X44322900Y-131361500D02*
X44322900Y-123704900D01*
X43579300Y-132105100D02*
X44322900Y-131361500D01*
X42535900Y-132105100D02*
X43579300Y-132105100D01*
X41757900Y-132883100D02*
X42535900Y-132105100D01*
X41757900Y-133350000D02*
X41757900Y-132883100D01*
X40513000Y-133350000D02*
X41757900Y-133350000D01*
X40513000Y-130810000D02*
X40513000Y-129565100D01*
X42877400Y-103415100D02*
X44002800Y-102289700D01*
X42877400Y-110636400D02*
X42877400Y-103415100D01*
X39997400Y-113516400D02*
X42877400Y-110636400D01*
X39997400Y-129049500D02*
X39997400Y-113516400D01*
X40513000Y-129565100D02*
X39997400Y-129049500D01*
X44266000Y-100992300D02*
X44490900Y-100992300D01*
X37317700Y-107940600D02*
X44266000Y-100992300D01*
X37317700Y-110863700D02*
X37317700Y-107940600D01*
X34160200Y-114021200D02*
X37317700Y-110863700D01*
X34160200Y-134399600D02*
X34160200Y-114021200D01*
X34355600Y-134595000D02*
X34160200Y-134399600D01*
X41808000Y-134595000D02*
X34355600Y-134595000D01*
X43053000Y-133350000D02*
X41808000Y-134595000D01*
X43053000Y-121849900D02*
X43053000Y-130810000D01*
X44846100Y-120056800D02*
X43053000Y-121849900D01*
X44846100Y-106397200D02*
X44846100Y-120056800D01*
X43659000Y-105210100D02*
X44846100Y-106397200D01*
X43659000Y-103571000D02*
X43659000Y-105210100D01*
X44104000Y-103126000D02*
X43659000Y-103571000D01*
X44130200Y-103126000D02*
X44104000Y-103126000D01*
X45172200Y-102084000D02*
X44130200Y-103126000D01*
X45172200Y-99822000D02*
X45172200Y-102084000D01*
X45045200Y-99695000D02*
X45172200Y-99822000D01*
X53842100Y-100656100D02*
X53842100Y-100241200D01*
X46837900Y-107660300D02*
X53842100Y-100656100D01*
X46837900Y-131327100D02*
X46837900Y-107660300D01*
X46059900Y-132105100D02*
X46837900Y-131327100D01*
X45593000Y-132105100D02*
X46059900Y-132105100D01*
X45593000Y-133350000D02*
X45593000Y-132105100D01*
X45593000Y-130810000D02*
X45593000Y-129565100D01*
X45916400Y-107550600D02*
X52502000Y-100965000D01*
X45916400Y-129241700D02*
X45916400Y-107550600D01*
X45593000Y-129565100D02*
X45916400Y-129241700D01*
X49377900Y-106782800D02*
X54296900Y-101863800D01*
X49377900Y-131327100D02*
X49377900Y-106782800D01*
X48599900Y-132105100D02*
X49377900Y-131327100D01*
X48133000Y-132105100D02*
X48599900Y-132105100D01*
X48133000Y-133350000D02*
X48133000Y-132105100D01*
X48133000Y-130810000D02*
X48133000Y-129565100D01*
X48672300Y-129025800D02*
X48672300Y-109689700D01*
X48133000Y-129565100D02*
X48672300Y-129025800D01*
X50673000Y-133350000D02*
X50673000Y-132105100D01*
X53526900Y-111673600D02*
X53526900Y-111568900D01*
X51917900Y-113282600D02*
X53526900Y-111673600D01*
X51917900Y-131327100D02*
X51917900Y-113282600D01*
X51139900Y-132105100D02*
X51917900Y-131327100D01*
X50673000Y-132105100D02*
X51139900Y-132105100D01*
X50673000Y-109859800D02*
X50673000Y-129565100D01*
X54210500Y-106322300D02*
X50673000Y-109859800D01*
X50673000Y-130810000D02*
X50673000Y-129565100D01*
X53213000Y-133350000D02*
X53213000Y-132105100D01*
X53679800Y-132105100D02*
X53213000Y-132105100D01*
X54534200Y-131250700D02*
X53679800Y-132105100D01*
X54534200Y-114018300D02*
X54534200Y-131250700D01*
X54760100Y-113792400D02*
X54534200Y-114018300D01*
X54760100Y-107651100D02*
X54760100Y-113792400D01*
X54424000Y-107315000D02*
X54760100Y-107651100D01*
X53213000Y-130810000D02*
X53213000Y-129565100D01*
X53213000Y-114620700D02*
X53213000Y-129565100D01*
X54208300Y-113625400D02*
X53213000Y-114620700D01*
X54208300Y-109392900D02*
X54208300Y-113625400D01*
X54035200Y-109219800D02*
X54208300Y-109392900D01*
X65913000Y-133350000D02*
X65913000Y-132105100D01*
X61554200Y-114721400D02*
X61554200Y-108632800D01*
X60198000Y-116077600D02*
X61554200Y-114721400D01*
X60198000Y-126856900D02*
X60198000Y-116077600D01*
X65446200Y-132105100D02*
X60198000Y-126856900D01*
X65913000Y-132105100D02*
X65446200Y-132105100D01*
X65913000Y-130810000D02*
X65913000Y-129565100D01*
X62747100Y-108508600D02*
X61553500Y-107315000D01*
X62747100Y-126399200D02*
X62747100Y-108508600D01*
X65913000Y-129565100D02*
X62747100Y-126399200D01*
X68453000Y-133350000D02*
X68453000Y-132105100D01*
X65384300Y-107696900D02*
X64885300Y-107197900D01*
X65384300Y-110843300D02*
X65384300Y-107696900D01*
X65297700Y-110929900D02*
X65384300Y-110843300D01*
X65297700Y-121893100D02*
X65297700Y-110929900D01*
X67158000Y-123753400D02*
X65297700Y-121893100D01*
X67158000Y-131325900D02*
X67158000Y-123753400D01*
X67937200Y-132105100D02*
X67158000Y-131325900D01*
X68453000Y-132105100D02*
X67937200Y-132105100D01*
X68453000Y-130810000D02*
X68453000Y-129565100D01*
X66676200Y-114299100D02*
X66676200Y-104774500D01*
X67818100Y-115441000D02*
X66676200Y-114299100D01*
X67818100Y-128930200D02*
X67818100Y-115441000D01*
X68453000Y-129565100D02*
X67818100Y-128930200D01*
X59638600Y-103195000D02*
X60382600Y-103195000D01*
X56815600Y-106018000D02*
X59638600Y-103195000D01*
X56815600Y-112455700D02*
X56815600Y-106018000D01*
X55133700Y-114137600D02*
X56815600Y-112455700D01*
X55133700Y-125595700D02*
X55133700Y-114137600D01*
X64650800Y-135112800D02*
X55133700Y-125595700D01*
X73664000Y-135112800D02*
X64650800Y-135112800D01*
X74803000Y-133973800D02*
X73664000Y-135112800D01*
X74803000Y-132844100D02*
X74803000Y-133973800D01*
X74038900Y-132080000D02*
X74803000Y-132844100D01*
X72263000Y-132080000D02*
X74038900Y-132080000D01*
X70993000Y-133350000D02*
X72263000Y-132080000D01*
X70358100Y-106674700D02*
X65702000Y-102018600D01*
X70358100Y-128930200D02*
X70358100Y-106674700D01*
X70993000Y-129565100D02*
X70358100Y-128930200D01*
X70993000Y-130810000D02*
X70993000Y-129565100D01*
X57637700Y-106243000D02*
X59207100Y-104673600D01*
X57637700Y-127351600D02*
X57637700Y-106243000D01*
X64881100Y-134595000D02*
X57637700Y-127351600D01*
X71509900Y-134595000D02*
X64881100Y-134595000D01*
X72288100Y-133816800D02*
X71509900Y-134595000D01*
X72288100Y-133350000D02*
X72288100Y-133816800D01*
X73533000Y-133350000D02*
X72288100Y-133350000D01*
X71962500Y-106340800D02*
X65111900Y-99490200D01*
X71962500Y-115341200D02*
X71962500Y-106340800D01*
X72898000Y-116276700D02*
X71962500Y-115341200D01*
X72898000Y-128930100D02*
X72898000Y-116276700D01*
X73533000Y-129565100D02*
X72898000Y-128930100D01*
X73533000Y-130810000D02*
X73533000Y-129565100D01*
X76073000Y-133350000D02*
X76073000Y-132105100D01*
X75606200Y-132105100D02*
X76073000Y-132105100D01*
X74778000Y-131276900D02*
X75606200Y-132105100D01*
X74778000Y-124626500D02*
X74778000Y-131276900D01*
X75415700Y-123988800D02*
X74778000Y-124626500D01*
X75415700Y-115061100D02*
X75415700Y-123988800D01*
X73012900Y-112658300D02*
X75415700Y-115061100D01*
X73012900Y-101299900D02*
X73012900Y-112658300D01*
X74029200Y-100283600D02*
X73012900Y-101299900D01*
X76073000Y-130810000D02*
X76073000Y-129565100D01*
X75947700Y-129439800D02*
X76073000Y-129565100D01*
X75947700Y-113408700D02*
X75947700Y-129439800D01*
X73534700Y-110995700D02*
X75947700Y-113408700D01*
X73534700Y-101763500D02*
X73534700Y-110995700D01*
X74103800Y-101194400D02*
X73534700Y-101763500D01*
X78613000Y-133350000D02*
X79857900Y-133350000D01*
X74287300Y-103939500D02*
X74287300Y-102239000D01*
X76876200Y-106528400D02*
X74287300Y-103939500D01*
X76876200Y-107473700D02*
X76876200Y-106528400D01*
X80518000Y-111115500D02*
X76876200Y-107473700D01*
X80518000Y-119358900D02*
X80518000Y-111115500D01*
X85029100Y-123870000D02*
X80518000Y-119358900D01*
X85029100Y-133826400D02*
X85029100Y-123870000D01*
X84253600Y-134601900D02*
X85029100Y-133826400D01*
X80643000Y-134601900D02*
X84253600Y-134601900D01*
X79857900Y-133816800D02*
X80643000Y-134601900D01*
X79857900Y-133350000D02*
X79857900Y-133816800D01*
X78613000Y-130810000D02*
X78613000Y-132054900D01*
X79134000Y-107688200D02*
X75049000Y-103603200D01*
X79134000Y-108133700D02*
X79134000Y-107688200D01*
X83058100Y-112057800D02*
X79134000Y-108133700D01*
X83058100Y-121178300D02*
X83058100Y-112057800D01*
X85537500Y-123657700D02*
X83058100Y-121178300D01*
X85537500Y-134037000D02*
X85537500Y-123657700D01*
X84399000Y-135175500D02*
X85537500Y-134037000D01*
X78612200Y-135175500D02*
X84399000Y-135175500D01*
X77343000Y-133906300D02*
X78612200Y-135175500D01*
X77343000Y-132858100D02*
X77343000Y-133906300D01*
X78146200Y-132054900D02*
X77343000Y-132858100D01*
X78613000Y-132054900D02*
X78146200Y-132054900D01*
X81153000Y-133350000D02*
X81153000Y-132105100D01*
X74106000Y-105046700D02*
X74238700Y-104914000D01*
X74106000Y-110848200D02*
X74106000Y-105046700D01*
X76456100Y-113198300D02*
X74106000Y-110848200D01*
X76456100Y-121420600D02*
X76456100Y-113198300D01*
X79908100Y-124872600D02*
X76456100Y-121420600D01*
X79908100Y-131327100D02*
X79908100Y-124872600D01*
X80686100Y-132105100D02*
X79908100Y-131327100D01*
X81153000Y-132105100D02*
X80686100Y-132105100D01*
X81153000Y-130810000D02*
X81153000Y-129565100D01*
X81152900Y-129565100D02*
X81153000Y-129565100D01*
X81152900Y-124679800D02*
X81152900Y-129565100D01*
X76975400Y-120502300D02*
X81152900Y-124679800D01*
X76975400Y-112998700D02*
X76975400Y-120502300D01*
X74617000Y-110640300D02*
X76975400Y-112998700D01*
X74617000Y-106863100D02*
X74617000Y-110640300D01*
X74808000Y-106672100D02*
X74617000Y-106863100D01*
X75125300Y-108010900D02*
X75341200Y-107795000D01*
X75125300Y-110175900D02*
X75125300Y-108010900D01*
X77494700Y-112545300D02*
X75125300Y-110175900D01*
X77494700Y-119945900D02*
X77494700Y-112545300D01*
X82448100Y-124899300D02*
X77494700Y-119945900D01*
X82448100Y-131327100D02*
X82448100Y-124899300D01*
X83226100Y-132105100D02*
X82448100Y-131327100D01*
X83693000Y-132105100D02*
X83226100Y-132105100D01*
X83693000Y-133350000D02*
X83693000Y-132105100D01*
X78003100Y-111345400D02*
X75806600Y-109148900D01*
X78003100Y-118870100D02*
X78003100Y-111345400D01*
X83693000Y-124560000D02*
X78003100Y-118870100D01*
X83693000Y-130810000D02*
X83693000Y-124560000D01*
X96393000Y-133350000D02*
X96393000Y-132105100D01*
X95926200Y-132105100D02*
X96393000Y-132105100D01*
X93280600Y-129459500D02*
X95926200Y-132105100D01*
X93280600Y-116842400D02*
X93280600Y-129459500D01*
X87568900Y-111130700D02*
X93280600Y-116842400D01*
X87568900Y-110983800D02*
X87568900Y-111130700D01*
X84834000Y-108248900D02*
X87568900Y-110983800D01*
X96393000Y-130810000D02*
X96393000Y-129565100D01*
X93788900Y-126961000D02*
X96393000Y-129565100D01*
X93788900Y-116631900D02*
X93788900Y-126961000D01*
X88237300Y-111080300D02*
X93788900Y-116631900D01*
X88237300Y-110688800D02*
X88237300Y-111080300D01*
X84745000Y-107196500D02*
X88237300Y-110688800D01*
X98933000Y-133350000D02*
X97688100Y-133350000D01*
X97688100Y-134361500D02*
X97688100Y-133350000D01*
X97446800Y-134602800D02*
X97688100Y-134361500D01*
X95346000Y-134602800D02*
X97446800Y-134602800D01*
X88138100Y-127394900D02*
X95346000Y-134602800D01*
X88138100Y-115700100D02*
X88138100Y-127394900D01*
X81209000Y-108771000D02*
X88138100Y-115700100D01*
X81209000Y-106358300D02*
X81209000Y-108771000D01*
X98933000Y-130810000D02*
X98933000Y-129565100D01*
X94297200Y-124929300D02*
X98933000Y-129565100D01*
X94297200Y-116387800D02*
X94297200Y-124929300D01*
X88745600Y-110836200D02*
X94297200Y-116387800D01*
X88745600Y-108383300D02*
X88745600Y-110836200D01*
X84703300Y-104341000D02*
X88745600Y-108383300D01*
X101473000Y-133350000D02*
X100228100Y-133350000D01*
X100228100Y-133816800D02*
X100228100Y-133350000D01*
X98925700Y-135119200D02*
X100228100Y-133816800D01*
X95120900Y-135119200D02*
X98925700Y-135119200D01*
X87295800Y-127294100D02*
X95120900Y-135119200D01*
X87295800Y-120798600D02*
X87295800Y-127294100D01*
X85598000Y-119100800D02*
X87295800Y-120798600D01*
X85598000Y-113878800D02*
X85598000Y-119100800D01*
X80527600Y-108808400D02*
X85598000Y-113878800D01*
X80527600Y-105930800D02*
X80527600Y-108808400D01*
X78070500Y-103473700D02*
X80527600Y-105930800D01*
X101473000Y-130810000D02*
X101473000Y-129565100D01*
X94805500Y-122897600D02*
X101473000Y-129565100D01*
X94805500Y-116143800D02*
X94805500Y-122897600D01*
X91681100Y-113019400D02*
X94805500Y-116143800D01*
X91681100Y-109387400D02*
X91681100Y-113019400D01*
X84200700Y-101907000D02*
X91681100Y-109387400D01*
X104013000Y-133350000D02*
X104013000Y-132105100D01*
X103546100Y-132105100D02*
X104013000Y-132105100D01*
X102768100Y-131327100D02*
X103546100Y-132105100D01*
X102768100Y-128462100D02*
X102768100Y-131327100D01*
X95313800Y-121007800D02*
X102768100Y-128462100D01*
X95313800Y-120022700D02*
X95313800Y-121007800D01*
X96917600Y-118418900D02*
X95313800Y-120022700D01*
X96917600Y-111411600D02*
X96917600Y-118418900D01*
X86384500Y-100878500D02*
X96917600Y-111411600D01*
X86180500Y-100878500D02*
X86384500Y-100878500D01*
X104013000Y-128988200D02*
X104013000Y-130810000D01*
X95822100Y-120797300D02*
X104013000Y-128988200D01*
X95822100Y-120233200D02*
X95822100Y-120797300D01*
X97425900Y-118629400D02*
X95822100Y-120233200D01*
X97425900Y-111159700D02*
X97425900Y-118629400D01*
X85961200Y-99695000D02*
X97425900Y-111159700D01*
X106553000Y-133350000D02*
X106553000Y-132105100D01*
X107019800Y-132105100D02*
X106553000Y-132105100D01*
X107822900Y-131302000D02*
X107019800Y-132105100D01*
X107822900Y-130080700D02*
X107822900Y-131302000D01*
X99898400Y-122156200D02*
X107822900Y-130080700D01*
X99898400Y-109961200D02*
X99898400Y-122156200D01*
X96916600Y-106979400D02*
X99898400Y-109961200D01*
X96916600Y-106260800D02*
X96916600Y-106979400D01*
X94455300Y-103799500D02*
X96916600Y-106260800D01*
X94455300Y-100152400D02*
X94455300Y-103799500D01*
X106553000Y-130810000D02*
X106553000Y-129565100D01*
X99390100Y-122402200D02*
X106553000Y-129565100D01*
X99390100Y-110171700D02*
X99390100Y-122402200D01*
X96408300Y-107189900D02*
X99390100Y-110171700D01*
X96408300Y-106478900D02*
X96408300Y-107189900D01*
X90807900Y-100878500D02*
X96408300Y-106478900D01*
X109093000Y-133350000D02*
X107848100Y-133350000D01*
X107848100Y-133816800D02*
X107848100Y-133350000D01*
X107050200Y-134614700D02*
X107848100Y-133816800D01*
X106052000Y-134614700D02*
X107050200Y-134614700D01*
X105283000Y-133845700D02*
X106052000Y-134614700D01*
X105283000Y-129071700D02*
X105283000Y-133845700D01*
X98599200Y-122387900D02*
X105283000Y-129071700D01*
X98599200Y-110099600D02*
X98599200Y-122387900D01*
X95900000Y-107400400D02*
X98599200Y-110099600D01*
X95900000Y-106994200D02*
X95900000Y-107400400D01*
X91140800Y-102235000D02*
X95900000Y-106994200D01*
X109093000Y-130631800D02*
X109093000Y-130810000D01*
X100430700Y-121969500D02*
X109093000Y-130631800D01*
X100430700Y-109774700D02*
X100430700Y-121969500D01*
X97424900Y-106768900D02*
X100430700Y-109774700D01*
X97424900Y-105184300D02*
X97424900Y-106768900D01*
X96069600Y-103829000D02*
X97424900Y-105184300D01*
X111633000Y-130810000D02*
X110388100Y-130810000D01*
X110388100Y-130285400D02*
X104618900Y-124516200D01*
X110388100Y-130810000D02*
X110388100Y-130285400D01*
X106553000Y-121920000D02*
X106553000Y-120675100D01*
X107823000Y-111919400D02*
X101948600Y-106045000D01*
X107823000Y-119871900D02*
X107823000Y-111919400D01*
X107019800Y-120675100D02*
X107823000Y-119871900D01*
X106553000Y-120675100D02*
X107019800Y-120675100D01*
X106553000Y-119380000D02*
X106553000Y-118135100D01*
X106553000Y-111634400D02*
X105386500Y-110467900D01*
X106553000Y-118135100D02*
X106553000Y-111634400D01*
X109093000Y-121920000D02*
X109093000Y-120675100D01*
X102488100Y-104902200D02*
X102488100Y-103554700D01*
X110363000Y-112777100D02*
X102488100Y-104902200D01*
X110363000Y-119871900D02*
X110363000Y-112777100D01*
X109559800Y-120675100D02*
X110363000Y-119871900D01*
X109093000Y-120675100D02*
X109559800Y-120675100D01*
X101806700Y-102424700D02*
X101936500Y-102294900D01*
X101806700Y-104939700D02*
X101806700Y-102424700D01*
X109093000Y-112226000D02*
X101806700Y-104939700D01*
X109093000Y-119380000D02*
X109093000Y-112226000D01*
X111633000Y-121920000D02*
X110388100Y-121920000D01*
X105283000Y-112703900D02*
X105853300Y-112133600D01*
X105283000Y-122438300D02*
X105283000Y-112703900D01*
X106033100Y-123188400D02*
X105283000Y-122438300D01*
X109586500Y-123188400D02*
X106033100Y-123188400D01*
X110388100Y-122386800D02*
X109586500Y-123188400D01*
X110388100Y-121920000D02*
X110388100Y-122386800D01*
X111633000Y-119380000D02*
X111633000Y-118135100D01*
X103169400Y-101010800D02*
X102029200Y-99870600D01*
X103169400Y-104836900D02*
X103169400Y-101010800D01*
X111633000Y-113300500D02*
X103169400Y-104836900D01*
X111633000Y-118135100D02*
X111633000Y-113300500D01*
X114173000Y-121920000D02*
X114173000Y-120675100D01*
X113706100Y-120675100D02*
X114173000Y-120675100D01*
X112928100Y-119897100D02*
X113706100Y-120675100D01*
X112928100Y-113718200D02*
X112928100Y-119897100D01*
X109659400Y-110449500D02*
X112928100Y-113718200D01*
X109659400Y-101484600D02*
X109659400Y-110449500D01*
X110861400Y-100282600D02*
X109659400Y-101484600D01*
X114173000Y-113650500D02*
X114173000Y-119380000D01*
X110209600Y-109687100D02*
X114173000Y-113650500D01*
X110209600Y-101900700D02*
X110209600Y-109687100D01*
X110912200Y-101198100D02*
X110209600Y-101900700D01*
X116713000Y-121920000D02*
X116713000Y-120675100D01*
X110847300Y-102308600D02*
X110920900Y-102235000D01*
X110847300Y-109606000D02*
X110847300Y-102308600D01*
X115467800Y-114226500D02*
X110847300Y-109606000D01*
X115467800Y-119897100D02*
X115467800Y-114226500D01*
X116245800Y-120675100D02*
X115467800Y-119897100D01*
X116713000Y-120675100D02*
X116245800Y-120675100D01*
X111415300Y-103699400D02*
X111559400Y-103555300D01*
X111415300Y-109454900D02*
X111415300Y-103699400D01*
X116713000Y-114752600D02*
X111415300Y-109454900D01*
X116713000Y-119380000D02*
X116713000Y-114752600D01*
X119253000Y-121920000D02*
X119253000Y-120675100D01*
X112117700Y-109079300D02*
X112117700Y-104775000D01*
X118008100Y-114969700D02*
X112117700Y-109079300D01*
X118008100Y-119897100D02*
X118008100Y-114969700D01*
X118786100Y-120675100D02*
X118008100Y-119897100D01*
X119253000Y-120675100D02*
X118786100Y-120675100D01*
X119253000Y-119380000D02*
X119253000Y-118135100D01*
X119253000Y-115004800D02*
X119253000Y-118135100D01*
X112881000Y-108632800D02*
X119253000Y-115004800D01*
X112881000Y-106045000D02*
X112881000Y-108632800D01*
X121793000Y-121920000D02*
X121793000Y-120675100D01*
X121326100Y-120675100D02*
X121793000Y-120675100D01*
X120548100Y-119897100D02*
X121326100Y-120675100D01*
X120548100Y-115581100D02*
X120548100Y-119897100D01*
X114115000Y-109148000D02*
X120548100Y-115581100D01*
X114115000Y-107878100D02*
X114115000Y-109148000D01*
X121793000Y-116107200D02*
X121793000Y-119380000D01*
X115239600Y-109553800D02*
X121793000Y-116107200D01*
X115239600Y-109081200D02*
X115239600Y-109553800D01*
X124266800Y-111472800D02*
X121621900Y-108827900D01*
X124266800Y-129965700D02*
X124266800Y-111472800D01*
X126406200Y-132105100D02*
X124266800Y-129965700D01*
X126873000Y-132105100D02*
X126406200Y-132105100D01*
X126873000Y-133350000D02*
X126873000Y-132105100D01*
X126873000Y-130810000D02*
X126873000Y-129565100D01*
X121285900Y-107495100D02*
X120992100Y-107495100D01*
X124775100Y-110984300D02*
X121285900Y-107495100D01*
X124775100Y-127467200D02*
X124775100Y-110984300D01*
X126873000Y-129565100D02*
X124775100Y-127467200D01*
X129413000Y-133350000D02*
X129413000Y-132105100D01*
X125283500Y-110774000D02*
X120916900Y-106407400D01*
X125283500Y-126538000D02*
X125283500Y-110774000D01*
X128168100Y-129422600D02*
X125283500Y-126538000D01*
X128168100Y-131327100D02*
X128168100Y-129422600D01*
X128946100Y-132105100D02*
X128168100Y-131327100D01*
X129413000Y-132105100D02*
X128946100Y-132105100D01*
X129413000Y-130810000D02*
X129413000Y-129565100D01*
X126130600Y-126282700D02*
X129413000Y-129565100D01*
X126130600Y-109964600D02*
X126130600Y-126282700D01*
X120890400Y-104724400D02*
X126130600Y-109964600D01*
X131953000Y-133350000D02*
X131953000Y-132105100D01*
X131486100Y-132105100D02*
X131953000Y-132105100D01*
X130708100Y-131327100D02*
X131486100Y-132105100D01*
X130708100Y-128040800D02*
X130708100Y-131327100D01*
X126638900Y-123971600D02*
X130708100Y-128040800D01*
X126638900Y-109506800D02*
X126638900Y-123971600D01*
X120868200Y-103736100D02*
X126638900Y-109506800D01*
X120868200Y-103505000D02*
X120868200Y-103736100D01*
X131953000Y-130810000D02*
X131953000Y-129565100D01*
X124409400Y-106031000D02*
X120613400Y-102235000D01*
X124409400Y-106558400D02*
X124409400Y-106031000D01*
X127147200Y-109296200D02*
X124409400Y-106558400D01*
X127147200Y-123487100D02*
X127147200Y-109296200D01*
X131952900Y-128292800D02*
X127147200Y-123487100D01*
X131952900Y-129565100D02*
X131952900Y-128292800D01*
X131953000Y-129565100D02*
X131952900Y-129565100D01*
X134493000Y-133350000D02*
X134493000Y-132105100D01*
X134026100Y-132105100D02*
X134493000Y-132105100D01*
X133248100Y-131327100D02*
X134026100Y-132105100D01*
X133248100Y-128424300D02*
X133248100Y-131327100D01*
X127824900Y-123001100D02*
X133248100Y-128424300D01*
X127824900Y-109010600D02*
X127824900Y-123001100D01*
X125090700Y-106276400D02*
X127824900Y-109010600D01*
X120560700Y-100782800D02*
X120560700Y-99695000D01*
X128587500Y-108809600D02*
X120560700Y-100782800D01*
X128587500Y-122568300D02*
X128587500Y-108809600D01*
X134493000Y-128473800D02*
X128587500Y-122568300D01*
X134493000Y-130810000D02*
X134493000Y-128473800D01*
X137033000Y-133350000D02*
X137033000Y-132105100D01*
X126839000Y-106229700D02*
X126839000Y-99695000D01*
X129095800Y-108486500D02*
X126839000Y-106229700D01*
X129095800Y-121881200D02*
X129095800Y-108486500D01*
X135788100Y-128573500D02*
X129095800Y-121881200D01*
X135788100Y-131327100D02*
X135788100Y-128573500D01*
X136566100Y-132105100D02*
X135788100Y-131327100D01*
X137033000Y-132105100D02*
X136566100Y-132105100D01*
X137033000Y-130810000D02*
X137033000Y-129565100D01*
X129238000Y-101553700D02*
X129965800Y-100825900D01*
X129238000Y-105997100D02*
X129238000Y-101553700D01*
X129604100Y-106363200D02*
X129238000Y-105997100D01*
X129604100Y-121670700D02*
X129604100Y-106363200D01*
X137033000Y-129099600D02*
X129604100Y-121670700D01*
X137033000Y-129565100D02*
X137033000Y-129099600D01*
X139573000Y-133350000D02*
X139573000Y-132105100D01*
X129746400Y-102194900D02*
X129955100Y-101986200D01*
X129746400Y-105743200D02*
X129746400Y-102194900D01*
X130112400Y-106109200D02*
X129746400Y-105743200D01*
X130112400Y-121460200D02*
X130112400Y-106109200D01*
X138328100Y-129675900D02*
X130112400Y-121460200D01*
X138328100Y-131327100D02*
X138328100Y-129675900D01*
X139106100Y-132105100D02*
X138328100Y-131327100D01*
X139573000Y-132105100D02*
X139106100Y-132105100D01*
X130620700Y-103697700D02*
X130478300Y-103555300D01*
X130620700Y-121249700D02*
X130620700Y-103697700D01*
X139573000Y-130202000D02*
X130620700Y-121249700D01*
X139573000Y-130810000D02*
X139573000Y-130202000D01*
X142113000Y-133350000D02*
X140868100Y-133350000D01*
X140868100Y-133816800D02*
X140868100Y-133350000D01*
X140088100Y-134596800D02*
X140868100Y-133816800D01*
X125817600Y-134596800D02*
X140088100Y-134596800D01*
X123416000Y-132195200D02*
X125817600Y-134596800D01*
X123416000Y-111589600D02*
X123416000Y-132195200D01*
X142113000Y-130810000D02*
X140868100Y-130810000D01*
X131433500Y-121191900D02*
X131433500Y-106386100D01*
X139806700Y-129565100D02*
X131433500Y-121191900D01*
X140105300Y-129565100D02*
X139806700Y-129565100D01*
X140868100Y-130327900D02*
X140105300Y-129565100D01*
X140868100Y-130810000D02*
X140868100Y-130327900D01*
X135763000Y-112532100D02*
X132289800Y-109058900D01*
X135763000Y-122639800D02*
X135763000Y-112532100D01*
X143408100Y-130284900D02*
X135763000Y-122639800D01*
X143408100Y-131327100D02*
X143408100Y-130284900D01*
X144186100Y-132105100D02*
X143408100Y-131327100D01*
X144653000Y-132105100D02*
X144186100Y-132105100D01*
X144653000Y-133350000D02*
X144653000Y-132105100D01*
X144653000Y-130810000D02*
X144653000Y-129565100D01*
X138303000Y-114080500D02*
X133756600Y-109534100D01*
X138303000Y-123215100D02*
X138303000Y-114080500D01*
X144653000Y-129565100D02*
X138303000Y-123215100D01*
X140843000Y-104283600D02*
X140517800Y-103958400D01*
X140843000Y-119871900D02*
X140843000Y-104283600D01*
X140039800Y-120675100D02*
X140843000Y-119871900D01*
X139573000Y-120675100D02*
X140039800Y-120675100D01*
X139573000Y-121920000D02*
X139573000Y-120675100D01*
X139573000Y-102353700D02*
X139607000Y-102319700D01*
X139573000Y-119380000D02*
X139573000Y-102353700D01*
X148463000Y-105440100D02*
X149013400Y-104889700D01*
X148463000Y-119871900D02*
X148463000Y-105440100D01*
X149266200Y-120675100D02*
X148463000Y-119871900D01*
X149733000Y-120675100D02*
X149266200Y-120675100D01*
X149733000Y-121920000D02*
X149733000Y-120675100D01*
X156108100Y-109166000D02*
X155527100Y-108585000D01*
X156108100Y-131327100D02*
X156108100Y-109166000D01*
X156886100Y-132105100D02*
X156108100Y-131327100D01*
X157353000Y-132105100D02*
X156886100Y-132105100D01*
X157353000Y-133350000D02*
X157353000Y-132105100D01*
X157353000Y-130810000D02*
X157353000Y-129565100D01*
X157039400Y-108933400D02*
X155541800Y-107435800D01*
X157039400Y-129251600D02*
X157039400Y-108933400D01*
X157039500Y-129251600D02*
X157039400Y-129251600D01*
X157353000Y-129565100D02*
X157039500Y-129251600D01*
X159893000Y-133350000D02*
X159893000Y-132105100D01*
X157787400Y-108301800D02*
X155530600Y-106045000D01*
X157787400Y-127100200D02*
X157787400Y-108301800D01*
X158648100Y-127960900D02*
X157787400Y-127100200D01*
X158648100Y-131327100D02*
X158648100Y-127960900D01*
X159426100Y-132105100D02*
X158648100Y-131327100D01*
X159893000Y-132105100D02*
X159426100Y-132105100D01*
X159893000Y-130810000D02*
X159893000Y-129565100D01*
X159525700Y-102064100D02*
X159525700Y-104714500D01*
X159047600Y-101586000D02*
X159525700Y-102064100D01*
X158531400Y-101586000D02*
X159047600Y-101586000D01*
X158117100Y-102000300D02*
X158531400Y-101586000D01*
X158117100Y-106270600D02*
X158117100Y-102000300D01*
X158295800Y-106449300D02*
X158117100Y-106270600D01*
X158295800Y-126530500D02*
X158295800Y-106449300D01*
X159893000Y-128127700D02*
X158295800Y-126530500D01*
X159893000Y-129565100D02*
X159893000Y-128127700D01*
X154817300Y-104275400D02*
X155382000Y-103710700D01*
X154817300Y-109965100D02*
X154817300Y-104275400D01*
X155599700Y-110747500D02*
X154817300Y-109965100D01*
X155599700Y-133928400D02*
X155599700Y-110747500D01*
X156278600Y-134607300D02*
X155599700Y-133928400D01*
X160397600Y-134607300D02*
X156278600Y-134607300D01*
X161188100Y-133816800D02*
X160397600Y-134607300D01*
X161188100Y-133350000D02*
X161188100Y-133816800D01*
X162433000Y-133350000D02*
X161188100Y-133350000D01*
X162433000Y-130810000D02*
X162433000Y-129565100D01*
X159096500Y-126228600D02*
X162433000Y-129565100D01*
X159096500Y-105400200D02*
X159096500Y-126228600D01*
X158799500Y-105103200D02*
X159096500Y-105400200D01*
X158799500Y-102317300D02*
X158799500Y-105103200D01*
X164973000Y-133350000D02*
X164973000Y-132105100D01*
X164506100Y-132105100D02*
X164973000Y-132105100D01*
X163728100Y-131327100D02*
X164506100Y-132105100D01*
X163728100Y-129590100D02*
X163728100Y-131327100D01*
X160052000Y-125914000D02*
X163728100Y-129590100D01*
X160052000Y-107338300D02*
X160052000Y-125914000D01*
X160227000Y-107163300D02*
X160052000Y-107338300D01*
X160227000Y-101692600D02*
X160227000Y-107163300D01*
X159286800Y-100752400D02*
X160227000Y-101692600D01*
X164973000Y-130810000D02*
X164973000Y-129565100D01*
X160560300Y-125152400D02*
X164973000Y-129565100D01*
X160560300Y-107549000D02*
X160560300Y-125152400D01*
X160735400Y-107373900D02*
X160560300Y-107549000D01*
X160735400Y-100488100D02*
X160735400Y-107373900D01*
X159942300Y-99695000D02*
X160735400Y-100488100D01*
X167513000Y-133350000D02*
X167513000Y-132105100D01*
X167046100Y-132105100D02*
X167513000Y-132105100D01*
X166268100Y-131327100D02*
X167046100Y-132105100D01*
X166268100Y-129820500D02*
X166268100Y-131327100D01*
X161080000Y-124632400D02*
X166268100Y-129820500D01*
X161080000Y-108001900D02*
X161080000Y-124632400D01*
X163067400Y-106014500D02*
X161080000Y-108001900D01*
X163067400Y-104862500D02*
X163067400Y-106014500D01*
X168057100Y-99872800D02*
X163067400Y-104862500D01*
X167513000Y-130346600D02*
X167513000Y-130810000D01*
X161605000Y-124438600D02*
X167513000Y-130346600D01*
X161605000Y-108195900D02*
X161605000Y-124438600D01*
X164932100Y-104868800D02*
X161605000Y-108195900D01*
X164932100Y-104029000D02*
X164932100Y-104868800D01*
X170053000Y-133350000D02*
X170053000Y-132105100D01*
X169537200Y-132105100D02*
X170053000Y-132105100D01*
X168783000Y-131350900D02*
X169537200Y-132105100D01*
X168783000Y-130259000D02*
X168783000Y-131350900D01*
X162140100Y-123616100D02*
X168783000Y-130259000D01*
X162140100Y-108645500D02*
X162140100Y-123616100D01*
X168064800Y-102720800D02*
X162140100Y-108645500D01*
X168064800Y-102263200D02*
X168064800Y-102720800D01*
X162654600Y-109149400D02*
X168068000Y-103736000D01*
X162654600Y-123411600D02*
X162654600Y-109149400D01*
X170053000Y-130810000D02*
X162654600Y-123411600D01*
X163163000Y-110060400D02*
X163467500Y-109755900D01*
X163163000Y-123201000D02*
X163163000Y-110060400D01*
X166679600Y-126717600D02*
X163163000Y-123201000D01*
X167724200Y-126717600D02*
X166679600Y-126717600D01*
X171348100Y-130341500D02*
X167724200Y-126717600D01*
X171348100Y-131327100D02*
X171348100Y-130341500D01*
X172126100Y-132105100D02*
X171348100Y-131327100D01*
X172593000Y-132105100D02*
X172126100Y-132105100D01*
X172593000Y-133350000D02*
X172593000Y-132105100D01*
X172593000Y-130810000D02*
X172593000Y-129565100D01*
X166243000Y-107965800D02*
X168067900Y-106140900D01*
X166243000Y-123095500D02*
X166243000Y-107965800D01*
X172593000Y-129445500D02*
X166243000Y-123095500D01*
X172593000Y-129565100D02*
X172593000Y-129445500D01*
X175133000Y-133350000D02*
X175133000Y-132105100D01*
X170988700Y-107788600D02*
X171174100Y-107603200D01*
X170988700Y-110446400D02*
X170988700Y-107788600D01*
X171481600Y-110939300D02*
X170988700Y-110446400D01*
X171481600Y-115109600D02*
X171481600Y-110939300D01*
X171323100Y-115268100D02*
X171481600Y-115109600D01*
X171323100Y-124351700D02*
X171323100Y-115268100D01*
X176406100Y-129434700D02*
X171323100Y-124351700D01*
X176406100Y-131298800D02*
X176406100Y-129434700D01*
X175599800Y-132105100D02*
X176406100Y-131298800D01*
X175133000Y-132105100D02*
X175599800Y-132105100D01*
X164973900Y-109213000D02*
X164973900Y-109173000D01*
X163727100Y-110459800D02*
X164973900Y-109213000D01*
X163727100Y-122966700D02*
X163727100Y-110459800D01*
X164086800Y-123326400D02*
X163727100Y-122966700D01*
X165510500Y-123326400D02*
X164086800Y-123326400D01*
X170323200Y-128139100D02*
X165510500Y-123326400D01*
X167513000Y-119380000D02*
X167513000Y-118135100D01*
X167513000Y-109473600D02*
X167513000Y-118135100D01*
X168074700Y-108911900D02*
X167513000Y-109473600D01*
X170053000Y-121920000D02*
X170053000Y-120675100D01*
X169586200Y-120675100D02*
X170053000Y-120675100D01*
X168783000Y-119871900D02*
X169586200Y-120675100D01*
X168783000Y-117156200D02*
X168783000Y-119871900D01*
X170038800Y-115900400D02*
X168783000Y-117156200D01*
X170038800Y-115271400D02*
X170038800Y-115900400D01*
X170926600Y-114383600D02*
X170038800Y-115271400D01*
X170926600Y-111626600D02*
X170926600Y-114383600D01*
X170480400Y-111180400D02*
X170926600Y-111626600D01*
X170480400Y-106831100D02*
X170480400Y-111180400D01*
X170760000Y-106551500D02*
X170480400Y-106831100D01*
X172593000Y-121920000D02*
X172593000Y-120675100D01*
X173059800Y-120675100D02*
X172593000Y-120675100D01*
X173855900Y-119879000D02*
X173059800Y-120675100D01*
X173855900Y-112671000D02*
X173855900Y-119879000D01*
X173309300Y-112124400D02*
X173855900Y-112671000D01*
X173309300Y-101222800D02*
X173309300Y-112124400D01*
X173392100Y-101140000D02*
X173309300Y-101222800D01*
X37147000Y-101091700D02*
X37147000Y-84981900D01*
X32520400Y-105718300D02*
X37147000Y-101091700D01*
X32520400Y-106532000D02*
X32520400Y-105718300D01*
X34446600Y-81293400D02*
X34446600Y-79771100D01*
X37851700Y-84698500D02*
X34446600Y-81293400D01*
X37851700Y-101858800D02*
X37851700Y-84698500D01*
X39186900Y-101858800D02*
X37851700Y-101858800D01*
X35234500Y-105513500D02*
X32967200Y-107780800D01*
X35234500Y-104476000D02*
X35234500Y-105513500D01*
X37851700Y-101858800D02*
X35234500Y-104476000D01*
M02*
