%FSLAX45Y45*%
G04 Gerber Fmt 4.5, Leading zero omitted, Abs format (unit mm)*
G04 Created by KiCad (PCBNEW 4.0.1-stable) date 2016-05-03 14:34:02*
%MOMM*%
G01*
G04 APERTURE LIST*
%ADD10C,0.127000*%
%ADD11C,0.150000*%
%ADD12C,0.200000*%
%ADD13C,0.300000*%
G04 APERTURE END LIST*
D10*
D11*
X2844800Y-14160500D02*
X2844800Y-4508500D01*
X15417800Y-14160500D02*
X2844800Y-14160500D01*
X15417800Y-4508500D02*
X15417800Y-14160500D01*
X2844800Y-4508500D02*
X15417800Y-4508500D01*
D12*
X3167080Y-8710360D02*
X3207080Y-8750360D01*
X3207080Y-8710360D02*
X3167080Y-8750360D01*
X3288640Y-6383350D02*
X3328640Y-6423350D01*
X3328640Y-6383350D02*
X3288640Y-6423350D01*
X3354800Y-7162820D02*
X3394800Y-7202820D01*
X3394800Y-7162820D02*
X3354800Y-7202820D01*
X3354800Y-9234740D02*
X3394800Y-9274740D01*
X3394800Y-9234740D02*
X3354800Y-9274740D01*
X3564400Y-6133150D02*
X3604400Y-6173150D01*
X3604400Y-6133150D02*
X3564400Y-6173150D01*
X3693470Y-13275460D02*
X3733470Y-13315460D01*
X3733470Y-13275460D02*
X3693470Y-13315460D01*
X3757110Y-9500830D02*
X3797110Y-9540830D01*
X3797110Y-9500830D02*
X3757110Y-9540830D01*
X3800730Y-5335610D02*
X3840730Y-5375610D01*
X3840730Y-5335610D02*
X3800730Y-5375610D01*
X3831440Y-6383350D02*
X3871440Y-6423350D01*
X3871440Y-6383350D02*
X3831440Y-6423350D01*
X3864240Y-9666340D02*
X3904240Y-9706340D01*
X3904240Y-9666340D02*
X3864240Y-9706340D01*
X3968130Y-10398630D02*
X4008130Y-10438630D01*
X4008130Y-10398630D02*
X3968130Y-10438630D01*
X3976890Y-5979500D02*
X4016890Y-6019500D01*
X4016890Y-5979500D02*
X3976890Y-6019500D01*
X4037640Y-11088430D02*
X4077640Y-11128430D01*
X4077640Y-11088430D02*
X4037640Y-11128430D01*
X4037680Y-10860720D02*
X4077680Y-10900720D01*
X4077680Y-10860720D02*
X4037680Y-10900720D01*
X4059430Y-12929400D02*
X4099430Y-12969400D01*
X4099430Y-12929400D02*
X4059430Y-12969400D01*
X4061680Y-5183390D02*
X4101680Y-5223390D01*
X4101680Y-5183390D02*
X4061680Y-5223390D01*
X4113400Y-4615220D02*
X4153400Y-4655220D01*
X4153400Y-4615220D02*
X4113400Y-4655220D01*
X4212460Y-11988600D02*
X4252460Y-12028600D01*
X4252460Y-11988600D02*
X4212460Y-12028600D01*
X4264340Y-8847470D02*
X4304340Y-8887470D01*
X4304340Y-8847470D02*
X4264340Y-8887470D01*
X4264340Y-10105450D02*
X4304340Y-10145450D01*
X4304340Y-10105450D02*
X4264340Y-10145450D01*
X4298700Y-10601990D02*
X4338700Y-10641990D01*
X4338700Y-10601990D02*
X4298700Y-10641990D01*
X4339120Y-7981000D02*
X4379120Y-8021000D01*
X4379120Y-7981000D02*
X4339120Y-8021000D01*
X4339230Y-7727000D02*
X4379230Y-7767000D01*
X4379230Y-7727000D02*
X4339230Y-7767000D01*
X4354190Y-12757840D02*
X4394190Y-12797840D01*
X4394190Y-12757840D02*
X4354190Y-12797840D01*
X4356220Y-8257130D02*
X4396220Y-8297130D01*
X4396220Y-8257130D02*
X4356220Y-8297130D01*
X4403380Y-12831550D02*
X4443380Y-12871550D01*
X4443380Y-12831550D02*
X4403380Y-12871550D01*
X4409810Y-10049030D02*
X4449810Y-10089030D01*
X4449810Y-10049030D02*
X4409810Y-10089030D01*
X4460990Y-10860840D02*
X4500990Y-10900840D01*
X4500990Y-10860840D02*
X4460990Y-10900840D01*
X4488250Y-9500830D02*
X4528250Y-9540830D01*
X4528250Y-9500830D02*
X4488250Y-9540830D01*
X4511740Y-8557870D02*
X4551740Y-8597870D01*
X4551740Y-8557870D02*
X4511740Y-8597870D01*
X4542740Y-8026820D02*
X4582740Y-8066820D01*
X4582740Y-8026820D02*
X4542740Y-8066820D01*
X4545820Y-8112490D02*
X4585820Y-8152490D01*
X4585820Y-8112490D02*
X4545820Y-8152490D01*
X4556390Y-9828500D02*
X4596390Y-9868500D01*
X4596390Y-9828500D02*
X4556390Y-9868500D01*
X4565830Y-8489740D02*
X4605830Y-8529740D01*
X4605830Y-8489740D02*
X4565830Y-8529740D01*
X4597220Y-11862870D02*
X4637220Y-11902870D01*
X4637220Y-11862870D02*
X4597220Y-11902870D01*
X4612430Y-7733630D02*
X4652430Y-7773630D01*
X4652430Y-7733630D02*
X4612430Y-7773630D01*
X4624810Y-10827340D02*
X4664810Y-10867340D01*
X4664810Y-10827340D02*
X4624810Y-10867340D01*
X4629130Y-11557750D02*
X4669130Y-11597750D01*
X4669130Y-11557750D02*
X4629130Y-11597750D01*
X4675360Y-11480330D02*
X4715360Y-11520330D01*
X4715360Y-11480330D02*
X4675360Y-11520330D01*
X4675970Y-10170500D02*
X4715970Y-10210500D01*
X4715970Y-10170500D02*
X4675970Y-10210500D01*
X4679740Y-11989000D02*
X4719740Y-12029000D01*
X4719740Y-11989000D02*
X4679740Y-12029000D01*
X4682930Y-10701810D02*
X4722930Y-10741810D01*
X4722930Y-10701810D02*
X4682930Y-10741810D01*
X4688150Y-6638580D02*
X4728150Y-6678580D01*
X4728150Y-6638580D02*
X4688150Y-6678580D01*
X4698170Y-10429400D02*
X4738170Y-10469400D01*
X4738170Y-10429400D02*
X4698170Y-10469400D01*
X4699230Y-10516430D02*
X4739230Y-10556430D01*
X4739230Y-10516430D02*
X4699230Y-10556430D01*
X4761020Y-9367750D02*
X4801020Y-9407750D01*
X4801020Y-9367750D02*
X4761020Y-9407750D01*
X4792510Y-10053650D02*
X4832510Y-10093650D01*
X4832510Y-10053650D02*
X4792510Y-10093650D01*
X4809560Y-11989890D02*
X4849560Y-12029890D01*
X4849560Y-11989890D02*
X4809560Y-12029890D01*
X4856790Y-6639670D02*
X4896790Y-6679670D01*
X4896790Y-6639670D02*
X4856790Y-6679670D01*
X4866250Y-10181770D02*
X4906250Y-10221770D01*
X4906250Y-10181770D02*
X4866250Y-10221770D01*
X4888880Y-11420240D02*
X4928880Y-11460240D01*
X4928880Y-11420240D02*
X4888880Y-11460240D01*
X4901690Y-9892410D02*
X4941690Y-9932410D01*
X4941690Y-9892410D02*
X4901690Y-9932410D01*
X4902260Y-9981730D02*
X4942260Y-10021730D01*
X4942260Y-9981730D02*
X4902260Y-10021730D01*
X4983800Y-6332890D02*
X5023800Y-6372890D01*
X5023800Y-6332890D02*
X4983800Y-6372890D01*
X4985350Y-11996120D02*
X5025350Y-12036120D01*
X5025350Y-11996120D02*
X4985350Y-12036120D01*
X4990740Y-11797980D02*
X5030740Y-11837980D01*
X5030740Y-11797980D02*
X4990740Y-11837980D01*
X5005210Y-6640370D02*
X5045210Y-6680370D01*
X5045210Y-6640370D02*
X5005210Y-6680370D01*
X5005980Y-9367750D02*
X5045980Y-9407750D01*
X5045980Y-9367750D02*
X5005980Y-9407750D01*
X5084810Y-7608040D02*
X5124810Y-7648040D01*
X5124810Y-7608040D02*
X5084810Y-7648040D01*
X5089650Y-10523450D02*
X5129650Y-10563450D01*
X5129650Y-10523450D02*
X5089650Y-10563450D01*
X5110790Y-6331660D02*
X5150790Y-6371660D01*
X5150790Y-6331660D02*
X5110790Y-6371660D01*
X5126350Y-11988680D02*
X5166350Y-12028680D01*
X5166350Y-11988680D02*
X5126350Y-12028680D01*
X5131710Y-11055370D02*
X5171710Y-11095370D01*
X5171710Y-11055370D02*
X5131710Y-11095370D01*
X5150450Y-8156620D02*
X5190450Y-8196620D01*
X5190450Y-8156620D02*
X5150450Y-8196620D01*
X5158240Y-6637930D02*
X5198240Y-6677930D01*
X5198240Y-6637930D02*
X5158240Y-6677930D01*
X5169440Y-8659530D02*
X5209440Y-8699530D01*
X5209440Y-8659530D02*
X5169440Y-8699530D01*
X5184000Y-6055290D02*
X5224000Y-6095290D01*
X5224000Y-6055290D02*
X5184000Y-6095290D01*
X5250670Y-10768550D02*
X5290670Y-10808550D01*
X5290670Y-10768550D02*
X5250670Y-10808550D01*
X5296120Y-12538450D02*
X5336120Y-12578450D01*
X5336120Y-12538450D02*
X5296120Y-12578450D01*
X5307510Y-10181770D02*
X5347510Y-10221770D01*
X5347510Y-10181770D02*
X5307510Y-10221770D01*
X5331970Y-13504190D02*
X5371970Y-13544190D01*
X5371970Y-13504190D02*
X5331970Y-13544190D01*
X5339720Y-9894020D02*
X5379720Y-9934020D01*
X5379720Y-9894020D02*
X5339720Y-9934020D01*
X5350080Y-6758510D02*
X5390080Y-6798510D01*
X5390080Y-6758510D02*
X5350080Y-6798510D01*
X5358340Y-10269970D02*
X5398340Y-10309970D01*
X5398340Y-10269970D02*
X5358340Y-10309970D01*
X5364250Y-12298650D02*
X5404250Y-12338650D01*
X5404250Y-12298650D02*
X5364250Y-12338650D01*
X5364800Y-6327380D02*
X5404800Y-6367380D01*
X5404800Y-6327380D02*
X5364800Y-6367380D01*
X5412250Y-10482490D02*
X5452250Y-10522490D01*
X5452250Y-10482490D02*
X5412250Y-10522490D01*
X5441540Y-9966710D02*
X5481540Y-10006710D01*
X5481540Y-9966710D02*
X5441540Y-10006710D01*
X5441540Y-10170500D02*
X5481540Y-10210500D01*
X5481540Y-10170500D02*
X5441540Y-10210500D01*
X5444150Y-8226960D02*
X5484150Y-8266960D01*
X5484150Y-8226960D02*
X5444150Y-8266960D01*
X5450940Y-12346690D02*
X5490940Y-12386690D01*
X5490940Y-12346690D02*
X5450940Y-12386690D01*
X5454810Y-8608700D02*
X5494810Y-8648700D01*
X5494810Y-8608700D02*
X5454810Y-8648700D01*
X5455220Y-10305110D02*
X5495220Y-10345110D01*
X5495220Y-10305110D02*
X5455220Y-10345110D01*
X5488500Y-12830310D02*
X5528500Y-12870310D01*
X5528500Y-12830310D02*
X5488500Y-12870310D01*
X5527540Y-10373710D02*
X5567540Y-10413710D01*
X5567540Y-10373710D02*
X5527540Y-10413710D01*
X5561590Y-8608700D02*
X5601590Y-8648700D01*
X5601590Y-8608700D02*
X5561590Y-8648700D01*
X5566670Y-13224630D02*
X5606670Y-13264630D01*
X5606670Y-13224630D02*
X5566670Y-13264630D01*
X5572780Y-11453180D02*
X5612780Y-11493180D01*
X5612780Y-11453180D02*
X5572780Y-11493180D01*
X5608800Y-9845880D02*
X5648800Y-9885880D01*
X5648800Y-9845880D02*
X5608800Y-9885880D01*
X5623150Y-13070370D02*
X5663150Y-13110370D01*
X5663150Y-13070370D02*
X5623150Y-13110370D01*
X5635020Y-5404370D02*
X5675020Y-5444370D01*
X5675020Y-5404370D02*
X5635020Y-5444370D01*
X5653740Y-11168350D02*
X5693740Y-11208350D01*
X5693740Y-11168350D02*
X5653740Y-11208350D01*
X5674780Y-5793500D02*
X5714780Y-5833500D01*
X5714780Y-5793500D02*
X5674780Y-5833500D01*
X5712450Y-8935420D02*
X5752450Y-8975420D01*
X5752450Y-8935420D02*
X5712450Y-8975420D01*
X5734790Y-11097440D02*
X5774790Y-11137440D01*
X5774790Y-11097440D02*
X5734790Y-11137440D01*
X5748300Y-11987050D02*
X5788300Y-12027050D01*
X5788300Y-11987050D02*
X5748300Y-12027050D01*
X5811290Y-10410500D02*
X5851290Y-10450500D01*
X5851290Y-10410500D02*
X5811290Y-10450500D01*
X5850450Y-12618000D02*
X5890450Y-12658000D01*
X5890450Y-12618000D02*
X5850450Y-12658000D01*
X6023820Y-7981000D02*
X6063820Y-8021000D01*
X6063820Y-7981000D02*
X6023820Y-8021000D01*
X6024390Y-9918220D02*
X6064390Y-9958220D01*
X6064390Y-9918220D02*
X6024390Y-9958220D01*
X6109710Y-6273890D02*
X6149710Y-6313890D01*
X6149710Y-6273890D02*
X6109710Y-6313890D01*
X6161660Y-12767280D02*
X6201660Y-12807280D01*
X6201660Y-12767280D02*
X6161660Y-12807280D01*
X6161660Y-13114190D02*
X6201660Y-13154190D01*
X6201660Y-13114190D02*
X6161660Y-13154190D01*
X6194700Y-9521880D02*
X6234700Y-9561880D01*
X6234700Y-9521880D02*
X6194700Y-9561880D01*
X6229790Y-12986460D02*
X6269790Y-13026460D01*
X6269790Y-12986460D02*
X6229790Y-13026460D01*
X6246700Y-6620630D02*
X6286700Y-6660630D01*
X6286700Y-6620630D02*
X6246700Y-6660630D01*
X6251100Y-9586900D02*
X6291100Y-9626900D01*
X6291100Y-9586900D02*
X6251100Y-9626900D01*
X6253800Y-11849310D02*
X6293800Y-11889310D01*
X6293800Y-11849310D02*
X6253800Y-11889310D01*
X6311830Y-13489300D02*
X6351830Y-13529300D01*
X6351830Y-13489300D02*
X6311830Y-13529300D01*
X6322410Y-9655030D02*
X6362410Y-9695030D01*
X6362410Y-9655030D02*
X6322410Y-9695030D01*
X6333100Y-12302200D02*
X6373100Y-12342200D01*
X6373100Y-12302200D02*
X6333100Y-12342200D01*
X6388150Y-10763260D02*
X6428150Y-10803260D01*
X6428150Y-10763260D02*
X6388150Y-10803260D01*
X6392210Y-10450240D02*
X6432210Y-10490240D01*
X6432210Y-10450240D02*
X6392210Y-10490240D01*
X6485740Y-6658750D02*
X6525740Y-6698750D01*
X6525740Y-6658750D02*
X6485740Y-6698750D01*
X6700670Y-9702610D02*
X6740670Y-9742610D01*
X6740670Y-9702610D02*
X6700670Y-9742610D01*
X6704160Y-10648000D02*
X6744160Y-10688000D01*
X6744160Y-10648000D02*
X6704160Y-10688000D01*
X6793440Y-5250510D02*
X6833440Y-5290510D01*
X6833440Y-5250510D02*
X6793440Y-5290510D01*
X6797240Y-5700400D02*
X6837240Y-5740400D01*
X6837240Y-5700400D02*
X6797240Y-5740400D01*
X6825310Y-12302280D02*
X6865310Y-12342280D01*
X6865310Y-12302280D02*
X6825310Y-12342280D01*
X6854310Y-10521000D02*
X6894310Y-10561000D01*
X6894310Y-10521000D02*
X6854310Y-10561000D01*
X6876790Y-13317810D02*
X6916790Y-13357810D01*
X6916790Y-13317810D02*
X6876790Y-13357810D01*
X6888800Y-6331840D02*
X6928800Y-6371840D01*
X6928800Y-6331840D02*
X6888800Y-6371840D01*
X6914910Y-6757330D02*
X6954910Y-6797330D01*
X6954910Y-6757330D02*
X6914910Y-6797330D01*
X7057550Y-8435050D02*
X7097550Y-8475050D01*
X7097550Y-8435050D02*
X7057550Y-8475050D01*
X7060330Y-12527430D02*
X7100330Y-12567430D01*
X7100330Y-12527430D02*
X7060330Y-12567430D01*
X7070900Y-10027610D02*
X7110900Y-10067610D01*
X7110900Y-10027610D02*
X7070900Y-10067610D01*
X7071020Y-12351140D02*
X7111020Y-12391140D01*
X7111020Y-12351140D02*
X7071020Y-12391140D01*
X7100780Y-6325330D02*
X7140780Y-6365330D01*
X7140780Y-6325330D02*
X7100780Y-6365330D01*
X7114150Y-10267000D02*
X7154150Y-10307000D01*
X7154150Y-10267000D02*
X7114150Y-10307000D01*
X7141190Y-11999380D02*
X7181190Y-12039380D01*
X7181190Y-11999380D02*
X7141190Y-12039380D01*
X7142830Y-12297940D02*
X7182830Y-12337940D01*
X7182830Y-12297940D02*
X7142830Y-12337940D01*
X7177150Y-5698210D02*
X7217150Y-5738210D01*
X7217150Y-5698210D02*
X7177150Y-5738210D01*
X7194280Y-10140000D02*
X7234280Y-10180000D01*
X7234280Y-10140000D02*
X7194280Y-10180000D01*
X7233250Y-5762940D02*
X7273250Y-5802940D01*
X7273250Y-5762940D02*
X7233250Y-5802940D01*
X7241040Y-9810770D02*
X7281040Y-9850770D01*
X7281040Y-9810770D02*
X7241040Y-9850770D01*
X7258000Y-10045950D02*
X7298000Y-10085950D01*
X7298000Y-10045950D02*
X7258000Y-10085950D01*
X7261270Y-12417160D02*
X7301270Y-12457160D01*
X7301270Y-12417160D02*
X7261270Y-12457160D01*
X7298580Y-6685270D02*
X7338580Y-6725270D01*
X7338580Y-6685270D02*
X7298580Y-6725270D01*
X7325540Y-9992660D02*
X7365540Y-10032660D01*
X7365540Y-9992660D02*
X7325540Y-10032660D01*
X7333300Y-13244900D02*
X7373300Y-13284900D01*
X7373300Y-13244900D02*
X7333300Y-13284900D01*
X7357460Y-5152770D02*
X7397460Y-5192770D01*
X7397460Y-5152770D02*
X7357460Y-5192770D01*
X7366710Y-5822180D02*
X7406710Y-5862180D01*
X7406710Y-5822180D02*
X7366710Y-5862180D01*
X7374000Y-12329690D02*
X7414000Y-12369690D01*
X7414000Y-12329690D02*
X7374000Y-12369690D01*
X7421640Y-6274190D02*
X7461640Y-6314190D01*
X7461640Y-6274190D02*
X7421640Y-6314190D01*
X7455440Y-9428140D02*
X7495440Y-9468140D01*
X7495440Y-9428140D02*
X7455440Y-9468140D01*
X7489770Y-6694270D02*
X7529770Y-6734270D01*
X7529770Y-6694270D02*
X7489770Y-6734270D01*
X7515820Y-8799800D02*
X7555820Y-8839800D01*
X7555820Y-8799800D02*
X7515820Y-8839800D01*
X7587300Y-7541380D02*
X7627300Y-7581380D01*
X7627300Y-7541380D02*
X7587300Y-7581380D01*
X7650770Y-6331000D02*
X7690770Y-6371000D01*
X7690770Y-6331000D02*
X7650770Y-6371000D01*
X7677860Y-6728570D02*
X7717860Y-6768570D01*
X7717860Y-6728570D02*
X7677860Y-6768570D01*
X7682930Y-12399520D02*
X7722930Y-12439520D01*
X7722930Y-12399520D02*
X7682930Y-12439520D01*
X7700550Y-9759000D02*
X7740550Y-9799000D01*
X7740550Y-9759000D02*
X7700550Y-9799000D01*
X7722540Y-6184510D02*
X7762540Y-6224510D01*
X7762540Y-6184510D02*
X7722540Y-6224510D01*
X7764690Y-7857230D02*
X7804690Y-7897230D01*
X7804690Y-7857230D02*
X7764690Y-7897230D01*
X7767130Y-8914820D02*
X7807130Y-8954820D01*
X7807130Y-8914820D02*
X7767130Y-8954820D01*
X7772950Y-11995270D02*
X7812950Y-12035270D01*
X7812950Y-11995270D02*
X7772950Y-12035270D01*
X7783140Y-9943750D02*
X7823140Y-9983750D01*
X7823140Y-9943750D02*
X7783140Y-9983750D01*
X7940370Y-8976410D02*
X7980370Y-9016410D01*
X7980370Y-8976410D02*
X7940370Y-9016410D01*
X8063460Y-12844180D02*
X8103460Y-12884180D01*
X8103460Y-12844180D02*
X8063460Y-12884180D01*
X8107290Y-11139490D02*
X8147290Y-11179490D01*
X8147290Y-11139490D02*
X8107290Y-11179490D01*
X8141580Y-10833100D02*
X8181580Y-10873100D01*
X8181580Y-10833100D02*
X8141580Y-10873100D01*
X8172330Y-8896690D02*
X8212330Y-8936690D01*
X8212330Y-8896690D02*
X8172330Y-8936690D01*
X8211080Y-9298220D02*
X8251080Y-9338220D01*
X8251080Y-9298220D02*
X8211080Y-9338220D01*
X8241930Y-6482500D02*
X8281930Y-6522500D01*
X8281930Y-6482500D02*
X8241930Y-6522500D01*
X8263300Y-13034410D02*
X8303300Y-13074410D01*
X8303300Y-13034410D02*
X8263300Y-13074410D01*
X8285800Y-10824870D02*
X8325800Y-10864870D01*
X8325800Y-10824870D02*
X8285800Y-10864870D01*
X8317550Y-12481160D02*
X8357550Y-12521160D01*
X8357550Y-12481160D02*
X8317550Y-12521160D01*
X8404520Y-10828790D02*
X8444520Y-10868790D01*
X8444520Y-10828790D02*
X8404520Y-10868790D01*
X8448940Y-6305280D02*
X8488940Y-6345280D01*
X8488940Y-6305280D02*
X8448940Y-6345280D01*
X8476300Y-12927570D02*
X8516300Y-12967570D01*
X8516300Y-12927570D02*
X8476300Y-12967570D01*
X8539260Y-8348130D02*
X8579260Y-8388130D01*
X8579260Y-8348130D02*
X8539260Y-8388130D01*
X8550450Y-7282510D02*
X8590450Y-7322510D01*
X8590450Y-7282510D02*
X8550450Y-7322510D01*
X8560160Y-9015660D02*
X8600160Y-9055660D01*
X8600160Y-9015660D02*
X8560160Y-9055660D01*
X8560160Y-10431430D02*
X8600160Y-10471430D01*
X8600160Y-10431430D02*
X8560160Y-10471430D01*
X8793790Y-7489830D02*
X8833790Y-7529830D01*
X8833790Y-7489830D02*
X8793790Y-7529830D01*
X8862200Y-10170730D02*
X8902200Y-10210730D01*
X8902200Y-10170730D02*
X8862200Y-10210730D01*
X8942730Y-7776220D02*
X8982730Y-7816220D01*
X8982730Y-7776220D02*
X8942730Y-7816220D01*
X9037950Y-6327010D02*
X9077950Y-6367010D01*
X9077950Y-6327010D02*
X9037950Y-6367010D01*
X9238300Y-12305420D02*
X9278300Y-12345420D01*
X9278300Y-12305420D02*
X9238300Y-12345420D01*
X9374430Y-11828300D02*
X9414430Y-11868300D01*
X9414430Y-11828300D02*
X9374430Y-11868300D01*
X9475160Y-12446530D02*
X9515160Y-12486530D01*
X9515160Y-12446530D02*
X9475160Y-12486530D01*
X9515380Y-5763900D02*
X9555380Y-5803900D01*
X9555380Y-5763900D02*
X9515380Y-5803900D01*
X9577790Y-9871640D02*
X9617790Y-9911640D01*
X9617790Y-9871640D02*
X9577790Y-9911640D01*
X9577790Y-10673500D02*
X9617790Y-10713500D01*
X9617790Y-10673500D02*
X9577790Y-10713500D01*
X9746270Y-8414570D02*
X9786270Y-8454570D01*
X9786270Y-8414570D02*
X9746270Y-8454570D01*
X9770790Y-10030800D02*
X9810790Y-10070800D01*
X9810790Y-10030800D02*
X9770790Y-10070800D01*
X9801220Y-5745020D02*
X9841220Y-5785020D01*
X9841220Y-5745020D02*
X9801220Y-5785020D01*
X9832540Y-12209080D02*
X9872540Y-12249080D01*
X9872540Y-12209080D02*
X9832540Y-12249080D01*
X9853930Y-5813150D02*
X9893930Y-5853150D01*
X9893930Y-5813150D02*
X9853930Y-5853150D01*
X9860350Y-6344370D02*
X9900350Y-6384370D01*
X9900350Y-6344370D02*
X9860350Y-6384370D01*
X9860350Y-6850520D02*
X9900350Y-6890520D01*
X9900350Y-6850520D02*
X9860350Y-6890520D01*
X9891640Y-10102590D02*
X9931640Y-10142590D01*
X9931640Y-10102590D02*
X9891640Y-10142590D01*
X10046920Y-7504280D02*
X10086920Y-7544280D01*
X10086920Y-7504280D02*
X10046920Y-7544280D01*
X10083630Y-13140370D02*
X10123630Y-13180370D01*
X10123630Y-13140370D02*
X10083630Y-13180370D01*
X10099500Y-10267000D02*
X10139500Y-10307000D01*
X10139500Y-10267000D02*
X10099500Y-10307000D01*
X10101260Y-7993660D02*
X10141260Y-8033660D01*
X10141260Y-7993660D02*
X10101260Y-8033660D01*
X10102460Y-8428000D02*
X10142460Y-8468000D01*
X10142460Y-8428000D02*
X10102460Y-8468000D01*
X10104770Y-12554250D02*
X10144770Y-12594250D01*
X10144770Y-12554250D02*
X10104770Y-12594250D01*
X10173780Y-13302330D02*
X10213780Y-13342330D01*
X10213780Y-13302330D02*
X10173780Y-13342330D01*
X10317800Y-9079420D02*
X10357800Y-9119420D01*
X10357800Y-9079420D02*
X10317800Y-9119420D01*
X10458520Y-6125780D02*
X10498520Y-6165780D01*
X10498520Y-6125780D02*
X10458520Y-6165780D01*
X10757920Y-9510210D02*
X10797920Y-9550210D01*
X10797920Y-9510210D02*
X10757920Y-9550210D01*
X11002600Y-9257810D02*
X11042600Y-9297810D01*
X11042600Y-9257810D02*
X11002600Y-9297810D01*
X11070440Y-6290480D02*
X11110440Y-6330480D01*
X11110440Y-6290480D02*
X11070440Y-6330480D01*
X11119340Y-11115480D02*
X11159340Y-11155480D01*
X11159340Y-11115480D02*
X11119340Y-11155480D01*
X11122510Y-13654600D02*
X11162510Y-13694600D01*
X11162510Y-13654600D02*
X11122510Y-13694600D01*
X11273580Y-12680000D02*
X11313580Y-12720000D01*
X11313580Y-12680000D02*
X11273580Y-12720000D01*
X11275630Y-12553000D02*
X11315630Y-12593000D01*
X11315630Y-12553000D02*
X11275630Y-12593000D01*
X11284540Y-5813350D02*
X11324540Y-5853350D01*
X11324540Y-5813350D02*
X11284540Y-5853350D01*
X11308850Y-7600000D02*
X11348850Y-7640000D01*
X11348850Y-7600000D02*
X11308850Y-7640000D01*
X11308850Y-8679500D02*
X11348850Y-8719500D01*
X11348850Y-8679500D02*
X11308850Y-8719500D01*
X11338040Y-10510050D02*
X11378040Y-10550050D01*
X11378040Y-10510050D02*
X11338040Y-10550050D01*
X11363980Y-4845800D02*
X11403980Y-4885800D01*
X11403980Y-4845800D02*
X11363980Y-4885800D01*
X11383740Y-4562550D02*
X11423740Y-4602550D01*
X11423740Y-4562550D02*
X11383740Y-4602550D01*
X11395460Y-10031330D02*
X11435460Y-10071330D01*
X11435460Y-10031330D02*
X11395460Y-10071330D01*
X11409080Y-9438490D02*
X11449080Y-9478490D01*
X11449080Y-9438490D02*
X11409080Y-9478490D01*
X11409080Y-11738770D02*
X11449080Y-11778770D01*
X11449080Y-11738770D02*
X11409080Y-11778770D01*
X11409080Y-12426000D02*
X11449080Y-12466000D01*
X11449080Y-12426000D02*
X11409080Y-12466000D01*
X11472380Y-7497240D02*
X11512380Y-7537240D01*
X11512380Y-7497240D02*
X11472380Y-7537240D01*
X11474070Y-6796950D02*
X11514070Y-6836950D01*
X11514070Y-6796950D02*
X11474070Y-6836950D01*
X11518160Y-9813650D02*
X11558160Y-9853650D01*
X11558160Y-9813650D02*
X11518160Y-9853650D01*
X11534210Y-9900890D02*
X11574210Y-9940890D01*
X11574210Y-9900890D02*
X11534210Y-9940890D01*
X11611110Y-7020350D02*
X11651110Y-7060350D01*
X11651110Y-7020350D02*
X11611110Y-7060350D01*
X11651370Y-7851460D02*
X11691370Y-7891460D01*
X11691370Y-7851460D02*
X11651370Y-7891460D01*
X11651580Y-10099460D02*
X11691580Y-10139460D01*
X11691580Y-10099460D02*
X11651580Y-10139460D01*
X11665350Y-12250620D02*
X11705350Y-12290620D01*
X11705350Y-12250620D02*
X11665350Y-12290620D01*
X11666720Y-12824910D02*
X11706720Y-12864910D01*
X11706720Y-12824910D02*
X11666720Y-12864910D01*
X11719720Y-10198860D02*
X11759720Y-10238860D01*
X11759720Y-10198860D02*
X11719720Y-10238860D01*
X11757060Y-11895670D02*
X11797060Y-11935670D01*
X11797060Y-11895670D02*
X11757060Y-11935670D01*
X11762380Y-5060000D02*
X11802380Y-5100000D01*
X11802380Y-5060000D02*
X11762380Y-5100000D01*
X11771930Y-10267480D02*
X11811930Y-10307480D01*
X11811930Y-10267480D02*
X11771930Y-10307480D01*
X11779100Y-7981000D02*
X11819100Y-8021000D01*
X11819100Y-7981000D02*
X11779100Y-8021000D01*
X11781980Y-13061000D02*
X11821980Y-13101000D01*
X11821980Y-13061000D02*
X11781980Y-13101000D01*
X11782710Y-8489000D02*
X11822710Y-8529000D01*
X11822710Y-8489000D02*
X11782710Y-8529000D01*
X11851350Y-9091060D02*
X11891350Y-9131060D01*
X11891350Y-9091060D02*
X11851350Y-9131060D01*
X11860010Y-8238490D02*
X11900010Y-8278490D01*
X11900010Y-8238490D02*
X11860010Y-8278490D01*
X11861000Y-6660510D02*
X11901000Y-6700510D01*
X11901000Y-6660510D02*
X11861000Y-6700510D01*
X11861000Y-7092000D02*
X11901000Y-7132000D01*
X11901000Y-7092000D02*
X11861000Y-7132000D01*
X11880590Y-13569000D02*
X11920590Y-13609000D01*
X11920590Y-13569000D02*
X11880590Y-13609000D01*
X11885950Y-12299000D02*
X11925950Y-12339000D01*
X11925950Y-12299000D02*
X11885950Y-12339000D01*
X11898320Y-9391580D02*
X11938320Y-9431580D01*
X11938320Y-9391580D02*
X11898320Y-9431580D01*
X11899780Y-4933000D02*
X11939780Y-4973000D01*
X11939780Y-4933000D02*
X11899780Y-4973000D01*
X11900860Y-5695000D02*
X11940860Y-5735000D01*
X11940860Y-5695000D02*
X11900860Y-5735000D01*
X11901460Y-10441920D02*
X11941460Y-10481920D01*
X11941460Y-10441920D02*
X11901460Y-10481920D01*
X11901710Y-7219000D02*
X11941710Y-7259000D01*
X11941710Y-7219000D02*
X11901710Y-7259000D01*
X11901790Y-5525780D02*
X11941790Y-5565780D01*
X11941790Y-5525780D02*
X11901790Y-5565780D01*
X11904800Y-8050960D02*
X11944800Y-8090960D01*
X11944800Y-8050960D02*
X11904800Y-8090960D01*
X11974500Y-11778580D02*
X12014500Y-11818580D01*
X12014500Y-11778580D02*
X11974500Y-11818580D01*
X12140220Y-8936720D02*
X12180220Y-8976720D01*
X12180220Y-8936720D02*
X12140220Y-8976720D01*
X12214150Y-5646270D02*
X12254150Y-5686270D01*
X12254150Y-5646270D02*
X12214150Y-5686270D01*
X12214190Y-13315000D02*
X12254190Y-13355000D01*
X12254190Y-13315000D02*
X12214190Y-13355000D01*
X12214490Y-5441000D02*
X12254490Y-5481000D01*
X12254490Y-5441000D02*
X12214490Y-5481000D01*
X12214790Y-12807000D02*
X12254790Y-12847000D01*
X12254790Y-12807000D02*
X12214790Y-12847000D01*
X12215610Y-7681730D02*
X12255610Y-7721730D01*
X12255610Y-7681730D02*
X12215610Y-7721730D01*
X12216010Y-13061000D02*
X12256010Y-13101000D01*
X12256010Y-13061000D02*
X12216010Y-13101000D01*
X12247000Y-5187000D02*
X12287000Y-5227000D01*
X12287000Y-5187000D02*
X12247000Y-5227000D01*
X12252900Y-11194520D02*
X12292900Y-11234520D01*
X12292900Y-11194520D02*
X12252900Y-11234520D01*
X12255250Y-9767120D02*
X12295250Y-9807120D01*
X12295250Y-9767120D02*
X12255250Y-9807120D01*
X12276240Y-5830220D02*
X12316240Y-5870220D01*
X12316240Y-5830220D02*
X12276240Y-5870220D01*
X12278840Y-10583660D02*
X12318840Y-10623660D01*
X12318840Y-10583660D02*
X12278840Y-10623660D01*
X12288130Y-5092830D02*
X12328130Y-5132830D01*
X12328130Y-5092830D02*
X12288130Y-5132830D01*
X12295600Y-7818820D02*
X12335600Y-7858820D01*
X12335600Y-7818820D02*
X12295600Y-7858820D01*
X12302830Y-10101670D02*
X12342830Y-10141670D01*
X12342830Y-10101670D02*
X12302830Y-10141670D01*
X12346970Y-10369050D02*
X12386970Y-10409050D01*
X12386970Y-10369050D02*
X12346970Y-10409050D01*
X12355590Y-13437100D02*
X12395590Y-13477100D01*
X12395590Y-13437100D02*
X12355590Y-13477100D01*
X12400240Y-13723330D02*
X12440240Y-13763330D01*
X12440240Y-13723330D02*
X12400240Y-13763330D01*
X12401200Y-7955650D02*
X12441200Y-7995650D01*
X12441200Y-7955650D02*
X12401200Y-7995650D01*
X12427570Y-9211510D02*
X12467570Y-9251510D01*
X12467570Y-9211510D02*
X12427570Y-9251510D01*
X13119630Y-6588310D02*
X13159630Y-6628310D01*
X13159630Y-6588310D02*
X13119630Y-6628310D01*
X13176900Y-6676450D02*
X13216900Y-6716450D01*
X13216900Y-6676450D02*
X13176900Y-6716450D01*
X13202950Y-11923670D02*
X13242950Y-11963670D01*
X13242950Y-11923670D02*
X13202950Y-11963670D01*
X13206090Y-11056950D02*
X13246090Y-11096950D01*
X13246090Y-11056950D02*
X13206090Y-11096950D01*
X13271080Y-11619800D02*
X13311080Y-11659800D01*
X13311080Y-11619800D02*
X13271080Y-11659800D01*
X13286050Y-11524420D02*
X13326050Y-11564420D01*
X13326050Y-11524420D02*
X13286050Y-11564420D01*
X13541930Y-6275310D02*
X13581930Y-6315310D01*
X13581930Y-6275310D02*
X13541930Y-6315310D01*
X13556420Y-8425500D02*
X13596420Y-8465500D01*
X13596420Y-8425500D02*
X13556420Y-8465500D01*
X13560090Y-9632000D02*
X13600090Y-9672000D01*
X13600090Y-9632000D02*
X13560090Y-9672000D01*
X13562270Y-13569000D02*
X13602270Y-13609000D01*
X13602270Y-13569000D02*
X13562270Y-13609000D01*
X13578310Y-10013000D02*
X13618310Y-10053000D01*
X13618310Y-10013000D02*
X13578310Y-10053000D01*
X13579700Y-5886880D02*
X13619700Y-5926880D01*
X13619700Y-5886880D02*
X13579700Y-5926880D01*
X13580170Y-7190180D02*
X13620170Y-7230180D01*
X13620170Y-7190180D02*
X13580170Y-7230180D01*
X13638170Y-5101830D02*
X13678170Y-5141830D01*
X13678170Y-5101830D02*
X13638170Y-5141830D01*
X13675510Y-7473000D02*
X13715510Y-7513000D01*
X13715510Y-7473000D02*
X13675510Y-7513000D01*
X13757320Y-10363350D02*
X13797320Y-10403350D01*
X13797320Y-10363350D02*
X13757320Y-10403350D01*
X13802850Y-5818750D02*
X13842850Y-5858750D01*
X13842850Y-5818750D02*
X13802850Y-5858750D01*
X13916090Y-7760100D02*
X13956090Y-7800100D01*
X13956090Y-7760100D02*
X13916090Y-7800100D01*
X13994860Y-5568000D02*
X14034860Y-5608000D01*
X14034860Y-5568000D02*
X13994860Y-5608000D01*
X13995150Y-13061000D02*
X14035150Y-13101000D01*
X14035150Y-13061000D02*
X13995150Y-13101000D01*
X13999960Y-7600000D02*
X14039960Y-7640000D01*
X14039960Y-7600000D02*
X13999960Y-7640000D01*
X14016490Y-9011290D02*
X14056490Y-9051290D01*
X14056490Y-9011290D02*
X14016490Y-9051290D01*
X14038930Y-8489000D02*
X14078930Y-8529000D01*
X14078930Y-8489000D02*
X14038930Y-8529000D01*
X14041340Y-11029000D02*
X14081340Y-11069000D01*
X14081340Y-11029000D02*
X14041340Y-11069000D01*
X14041620Y-4735760D02*
X14081620Y-4775760D01*
X14081620Y-4735760D02*
X14041620Y-4775760D01*
X14058800Y-11710450D02*
X14098800Y-11750450D01*
X14098800Y-11710450D02*
X14058800Y-11750450D01*
X14084950Y-10267000D02*
X14124950Y-10307000D01*
X14124950Y-10267000D02*
X14084950Y-10307000D01*
X14096380Y-12934000D02*
X14136380Y-12974000D01*
X14136380Y-12934000D02*
X14096380Y-12974000D01*
X14164510Y-13022310D02*
X14204510Y-13062310D01*
X14204510Y-13022310D02*
X14164510Y-13062310D01*
X14184860Y-13349090D02*
X14224860Y-13389090D01*
X14224860Y-13349090D02*
X14184860Y-13389090D01*
X14185940Y-10521000D02*
X14225940Y-10561000D01*
X14225940Y-10521000D02*
X14185940Y-10561000D01*
X14186560Y-7854000D02*
X14226560Y-7894000D01*
X14226560Y-7854000D02*
X14186560Y-7894000D01*
X14186800Y-10433660D02*
X14226800Y-10473660D01*
X14226800Y-10433660D02*
X14186800Y-10473660D01*
X14186860Y-7981000D02*
X14226860Y-8021000D01*
X14226860Y-7981000D02*
X14186860Y-8021000D01*
X14189440Y-13510490D02*
X14229440Y-13550490D01*
X14229440Y-13510490D02*
X14189440Y-13550490D01*
X14500070Y-10214290D02*
X14540070Y-10254290D01*
X14540070Y-10214290D02*
X14500070Y-10254290D01*
X14501470Y-5441000D02*
X14541470Y-5481000D01*
X14541470Y-5441000D02*
X14501470Y-5481000D01*
X14502550Y-7689500D02*
X14542550Y-7729500D01*
X14542550Y-7689500D02*
X14502550Y-7729500D01*
X14547680Y-5619130D02*
X14587680Y-5659130D01*
X14587680Y-5619130D02*
X14547680Y-5659130D01*
X14550390Y-10417760D02*
X14590390Y-10457760D01*
X14590390Y-10417760D02*
X14550390Y-10457760D01*
X14618330Y-7780020D02*
X14658330Y-7820020D01*
X14658330Y-7780020D02*
X14618330Y-7820020D01*
X14656940Y-12571440D02*
X14696940Y-12611440D01*
X14696940Y-12571440D02*
X14656940Y-12611440D01*
X14669260Y-5699170D02*
X14709260Y-5739170D01*
X14709260Y-5699170D02*
X14669260Y-5739170D01*
X14691750Y-10500070D02*
X14731750Y-10540070D01*
X14731750Y-10500070D02*
X14691750Y-10540070D01*
X14710170Y-7943990D02*
X14750170Y-7983990D01*
X14750170Y-7943990D02*
X14710170Y-7983990D01*
X14729180Y-12924340D02*
X14769180Y-12964340D01*
X14769180Y-12924340D02*
X14729180Y-12964340D01*
X3137054Y-11016410D02*
G75*
G03X3137054Y-11016410I-25000J0D01*
G01*
X3079554Y-11031410D02*
X3144554Y-11031410D01*
X3079554Y-11001410D02*
X3144554Y-11001410D01*
X3144554Y-11031410D02*
G75*
G03X3144554Y-11001410I0J15000D01*
G01*
X3079554Y-11001410D02*
G75*
G03X3079554Y-11031410I0J-15000D01*
G01*
X3137054Y-11716410D02*
G75*
G03X3137054Y-11716410I-25000J0D01*
G01*
X3079554Y-11731410D02*
X3144554Y-11731410D01*
X3079554Y-11701410D02*
X3144554Y-11701410D01*
X3144554Y-11731410D02*
G75*
G03X3144554Y-11701410I0J15000D01*
G01*
X3079554Y-11701410D02*
G75*
G03X3079554Y-11731410I0J-15000D01*
G01*
X3382054Y-11088910D02*
X3382054Y-11143910D01*
X3354554Y-11116410D02*
X3409554Y-11116410D01*
X3364554Y-11101410D02*
X3364554Y-11131410D01*
X3399554Y-11101410D02*
X3399554Y-11131410D01*
X3364554Y-11131410D02*
G75*
G03X3399554Y-11131410I17500J0D01*
G01*
X3399554Y-11101410D02*
G75*
G03X3364554Y-11101410I-17500J0D01*
G01*
X3382054Y-11588910D02*
X3382054Y-11643910D01*
X3354554Y-11616410D02*
X3409554Y-11616410D01*
X3364554Y-11601410D02*
X3364554Y-11631410D01*
X3399554Y-11601410D02*
X3399554Y-11631410D01*
X3364554Y-11631410D02*
G75*
G03X3399554Y-11631410I17500J0D01*
G01*
X3399554Y-11601410D02*
G75*
G03X3364554Y-11601410I-17500J0D01*
G01*
X3134721Y-9497421D02*
X3134721Y-9425579D01*
X3062879Y-9425579D01*
X3062879Y-9497421D01*
X3134721Y-9497421D01*
X3134721Y-9751421D02*
X3134721Y-9679579D01*
X3062879Y-9679579D01*
X3062879Y-9751421D01*
X3134721Y-9751421D01*
X3134721Y-10005421D02*
X3134721Y-9933579D01*
X3062879Y-9933579D01*
X3062879Y-10005421D01*
X3134721Y-10005421D01*
X3134721Y-10259421D02*
X3134721Y-10187579D01*
X3062879Y-10187579D01*
X3062879Y-10259421D01*
X3134721Y-10259421D01*
X3134721Y-10513421D02*
X3134721Y-10441579D01*
X3062879Y-10441579D01*
X3062879Y-10513421D01*
X3134721Y-10513421D01*
X3261721Y-4798421D02*
X3261721Y-4726579D01*
X3189879Y-4726579D01*
X3189879Y-4798421D01*
X3261721Y-4798421D01*
X3261721Y-5052421D02*
X3261721Y-4980579D01*
X3189879Y-4980579D01*
X3189879Y-5052421D01*
X3261721Y-5052421D01*
X3261721Y-13688421D02*
X3261721Y-13616579D01*
X3189879Y-13616579D01*
X3189879Y-13688421D01*
X3261721Y-13688421D01*
X3261721Y-13942421D02*
X3261721Y-13870579D01*
X3189879Y-13870579D01*
X3189879Y-13942421D01*
X3261721Y-13942421D01*
X3388721Y-9497421D02*
X3388721Y-9425579D01*
X3316879Y-9425579D01*
X3316879Y-9497421D01*
X3388721Y-9497421D01*
X3388721Y-9751421D02*
X3388721Y-9679579D01*
X3316879Y-9679579D01*
X3316879Y-9751421D01*
X3388721Y-9751421D01*
X3388721Y-10005421D02*
X3388721Y-9933579D01*
X3316879Y-9933579D01*
X3316879Y-10005421D01*
X3388721Y-10005421D01*
X3388721Y-10259421D02*
X3388721Y-10187579D01*
X3316879Y-10187579D01*
X3316879Y-10259421D01*
X3388721Y-10259421D01*
X3388721Y-10513421D02*
X3388721Y-10441579D01*
X3316879Y-10441579D01*
X3316879Y-10513421D01*
X3388721Y-10513421D01*
X3515721Y-4798421D02*
X3515721Y-4726579D01*
X3443879Y-4726579D01*
X3443879Y-4798421D01*
X3515721Y-4798421D01*
X3515721Y-5052421D02*
X3515721Y-4980579D01*
X3443879Y-4980579D01*
X3443879Y-5052421D01*
X3515721Y-5052421D01*
X3515721Y-13688421D02*
X3515721Y-13616579D01*
X3443879Y-13616579D01*
X3443879Y-13688421D01*
X3515721Y-13688421D01*
X3515721Y-13942421D02*
X3515721Y-13870579D01*
X3443879Y-13870579D01*
X3443879Y-13942421D01*
X3515721Y-13942421D01*
X3769721Y-4798421D02*
X3769721Y-4726579D01*
X3697879Y-4726579D01*
X3697879Y-4798421D01*
X3769721Y-4798421D01*
X3769721Y-5052421D02*
X3769721Y-4980579D01*
X3697879Y-4980579D01*
X3697879Y-5052421D01*
X3769721Y-5052421D01*
X3769721Y-13688421D02*
X3769721Y-13616579D01*
X3697879Y-13616579D01*
X3697879Y-13688421D01*
X3769721Y-13688421D01*
X3769721Y-13942421D02*
X3769721Y-13870579D01*
X3697879Y-13870579D01*
X3697879Y-13942421D01*
X3769721Y-13942421D01*
X4023721Y-4798421D02*
X4023721Y-4726579D01*
X3951879Y-4726579D01*
X3951879Y-4798421D01*
X4023721Y-4798421D01*
X4023721Y-5052421D02*
X4023721Y-4980579D01*
X3951879Y-4980579D01*
X3951879Y-5052421D01*
X4023721Y-5052421D01*
X4023721Y-13688421D02*
X4023721Y-13616579D01*
X3951879Y-13616579D01*
X3951879Y-13688421D01*
X4023721Y-13688421D01*
X4023721Y-13942421D02*
X4023721Y-13870579D01*
X3951879Y-13870579D01*
X3951879Y-13942421D01*
X4023721Y-13942421D01*
X4277721Y-4798421D02*
X4277721Y-4726579D01*
X4205879Y-4726579D01*
X4205879Y-4798421D01*
X4277721Y-4798421D01*
X4277721Y-5052421D02*
X4277721Y-4980579D01*
X4205879Y-4980579D01*
X4205879Y-5052421D01*
X4277721Y-5052421D01*
X4277721Y-13688421D02*
X4277721Y-13616579D01*
X4205879Y-13616579D01*
X4205879Y-13688421D01*
X4277721Y-13688421D01*
X4277721Y-13942421D02*
X4277721Y-13870579D01*
X4205879Y-13870579D01*
X4205879Y-13942421D01*
X4277721Y-13942421D01*
X4531721Y-4798421D02*
X4531721Y-4726579D01*
X4459879Y-4726579D01*
X4459879Y-4798421D01*
X4531721Y-4798421D01*
X4531721Y-5052421D02*
X4531721Y-4980579D01*
X4459879Y-4980579D01*
X4459879Y-5052421D01*
X4531721Y-5052421D01*
X4531721Y-13688421D02*
X4531721Y-13616579D01*
X4459879Y-13616579D01*
X4459879Y-13688421D01*
X4531721Y-13688421D01*
X4531721Y-13942421D02*
X4531721Y-13870579D01*
X4459879Y-13870579D01*
X4459879Y-13942421D01*
X4531721Y-13942421D01*
X4760321Y-6957421D02*
X4760321Y-6885579D01*
X4688479Y-6885579D01*
X4688479Y-6957421D01*
X4760321Y-6957421D01*
X4785721Y-4798421D02*
X4785721Y-4726579D01*
X4713879Y-4726579D01*
X4713879Y-4798421D01*
X4785721Y-4798421D01*
X4785721Y-5052421D02*
X4785721Y-4980579D01*
X4713879Y-4980579D01*
X4713879Y-5052421D01*
X4785721Y-5052421D01*
X4785721Y-13688421D02*
X4785721Y-13616579D01*
X4713879Y-13616579D01*
X4713879Y-13688421D01*
X4785721Y-13688421D01*
X4785721Y-13942421D02*
X4785721Y-13870579D01*
X4713879Y-13870579D01*
X4713879Y-13942421D01*
X4785721Y-13942421D01*
X5014321Y-6957421D02*
X5014321Y-6885579D01*
X4942479Y-6885579D01*
X4942479Y-6957421D01*
X5014321Y-6957421D01*
X5039721Y-4798421D02*
X5039721Y-4726579D01*
X4967879Y-4726579D01*
X4967879Y-4798421D01*
X5039721Y-4798421D01*
X5039721Y-5052421D02*
X5039721Y-4980579D01*
X4967879Y-4980579D01*
X4967879Y-5052421D01*
X5039721Y-5052421D01*
X5039721Y-13688421D02*
X5039721Y-13616579D01*
X4967879Y-13616579D01*
X4967879Y-13688421D01*
X5039721Y-13688421D01*
X5039721Y-13942421D02*
X5039721Y-13870579D01*
X4967879Y-13870579D01*
X4967879Y-13942421D01*
X5039721Y-13942421D01*
X5268321Y-6957421D02*
X5268321Y-6885579D01*
X5196479Y-6885579D01*
X5196479Y-6957421D01*
X5268321Y-6957421D01*
X5522321Y-6957421D02*
X5522321Y-6885579D01*
X5450479Y-6885579D01*
X5450479Y-6957421D01*
X5522321Y-6957421D01*
X5674721Y-11783421D02*
X5674721Y-11711579D01*
X5602879Y-11711579D01*
X5602879Y-11783421D01*
X5674721Y-11783421D01*
X5776321Y-6957421D02*
X5776321Y-6885579D01*
X5704479Y-6885579D01*
X5704479Y-6957421D01*
X5776321Y-6957421D01*
X5928721Y-11783421D02*
X5928721Y-11711579D01*
X5856879Y-11711579D01*
X5856879Y-11783421D01*
X5928721Y-11783421D01*
X6030321Y-6957421D02*
X6030321Y-6885579D01*
X5958479Y-6885579D01*
X5958479Y-6957421D01*
X6030321Y-6957421D01*
X6055721Y-4798421D02*
X6055721Y-4726579D01*
X5983879Y-4726579D01*
X5983879Y-4798421D01*
X6055721Y-4798421D01*
X6055721Y-5052421D02*
X6055721Y-4980579D01*
X5983879Y-4980579D01*
X5983879Y-5052421D01*
X6055721Y-5052421D01*
X6055721Y-13688421D02*
X6055721Y-13616579D01*
X5983879Y-13616579D01*
X5983879Y-13688421D01*
X6055721Y-13688421D01*
X6055721Y-13942421D02*
X6055721Y-13870579D01*
X5983879Y-13870579D01*
X5983879Y-13942421D01*
X6055721Y-13942421D01*
X6182721Y-11783421D02*
X6182721Y-11711579D01*
X6110879Y-11711579D01*
X6110879Y-11783421D01*
X6182721Y-11783421D01*
X6284321Y-6957421D02*
X6284321Y-6885579D01*
X6212479Y-6885579D01*
X6212479Y-6957421D01*
X6284321Y-6957421D01*
X6309721Y-4798421D02*
X6309721Y-4726579D01*
X6237879Y-4726579D01*
X6237879Y-4798421D01*
X6309721Y-4798421D01*
X6309721Y-5052421D02*
X6309721Y-4980579D01*
X6237879Y-4980579D01*
X6237879Y-5052421D01*
X6309721Y-5052421D01*
X6309721Y-13688421D02*
X6309721Y-13616579D01*
X6237879Y-13616579D01*
X6237879Y-13688421D01*
X6309721Y-13688421D01*
X6309721Y-13942421D02*
X6309721Y-13870579D01*
X6237879Y-13870579D01*
X6237879Y-13942421D01*
X6309721Y-13942421D01*
X6436721Y-11783421D02*
X6436721Y-11711579D01*
X6364879Y-11711579D01*
X6364879Y-11783421D01*
X6436721Y-11783421D01*
X6538321Y-6957421D02*
X6538321Y-6885579D01*
X6466479Y-6885579D01*
X6466479Y-6957421D01*
X6538321Y-6957421D01*
X6563721Y-4798421D02*
X6563721Y-4726579D01*
X6491879Y-4726579D01*
X6491879Y-4798421D01*
X6563721Y-4798421D01*
X6563721Y-5052421D02*
X6563721Y-4980579D01*
X6491879Y-4980579D01*
X6491879Y-5052421D01*
X6563721Y-5052421D01*
X6563721Y-13688421D02*
X6563721Y-13616579D01*
X6491879Y-13616579D01*
X6491879Y-13688421D01*
X6563721Y-13688421D01*
X6563721Y-13942421D02*
X6563721Y-13870579D01*
X6491879Y-13870579D01*
X6491879Y-13942421D01*
X6563721Y-13942421D01*
X6690721Y-11783421D02*
X6690721Y-11711579D01*
X6618879Y-11711579D01*
X6618879Y-11783421D01*
X6690721Y-11783421D01*
X6792321Y-6957421D02*
X6792321Y-6885579D01*
X6720479Y-6885579D01*
X6720479Y-6957421D01*
X6792321Y-6957421D01*
X6817721Y-4798421D02*
X6817721Y-4726579D01*
X6745879Y-4726579D01*
X6745879Y-4798421D01*
X6817721Y-4798421D01*
X6817721Y-5052421D02*
X6817721Y-4980579D01*
X6745879Y-4980579D01*
X6745879Y-5052421D01*
X6817721Y-5052421D01*
X6817721Y-13688421D02*
X6817721Y-13616579D01*
X6745879Y-13616579D01*
X6745879Y-13688421D01*
X6817721Y-13688421D01*
X6817721Y-13942421D02*
X6817721Y-13870579D01*
X6745879Y-13870579D01*
X6745879Y-13942421D01*
X6817721Y-13942421D01*
X6944721Y-11783421D02*
X6944721Y-11711579D01*
X6872879Y-11711579D01*
X6872879Y-11783421D01*
X6944721Y-11783421D01*
X7046321Y-6957421D02*
X7046321Y-6885579D01*
X6974479Y-6885579D01*
X6974479Y-6957421D01*
X7046321Y-6957421D01*
X7071721Y-4798421D02*
X7071721Y-4726579D01*
X6999879Y-4726579D01*
X6999879Y-4798421D01*
X7071721Y-4798421D01*
X7071721Y-5052421D02*
X7071721Y-4980579D01*
X6999879Y-4980579D01*
X6999879Y-5052421D01*
X7071721Y-5052421D01*
X7071721Y-13688421D02*
X7071721Y-13616579D01*
X6999879Y-13616579D01*
X6999879Y-13688421D01*
X7071721Y-13688421D01*
X7071721Y-13942421D02*
X7071721Y-13870579D01*
X6999879Y-13870579D01*
X6999879Y-13942421D01*
X7071721Y-13942421D01*
X7198721Y-11783421D02*
X7198721Y-11711579D01*
X7126879Y-11711579D01*
X7126879Y-11783421D01*
X7198721Y-11783421D01*
X7325721Y-4798421D02*
X7325721Y-4726579D01*
X7253879Y-4726579D01*
X7253879Y-4798421D01*
X7325721Y-4798421D01*
X7325721Y-5052421D02*
X7325721Y-4980579D01*
X7253879Y-4980579D01*
X7253879Y-5052421D01*
X7325721Y-5052421D01*
X7325721Y-13688421D02*
X7325721Y-13616579D01*
X7253879Y-13616579D01*
X7253879Y-13688421D01*
X7325721Y-13688421D01*
X7325721Y-13942421D02*
X7325721Y-13870579D01*
X7253879Y-13870579D01*
X7253879Y-13942421D01*
X7325721Y-13942421D01*
X7452721Y-6957421D02*
X7452721Y-6885579D01*
X7380879Y-6885579D01*
X7380879Y-6957421D01*
X7452721Y-6957421D01*
X7452721Y-11783421D02*
X7452721Y-11711579D01*
X7380879Y-11711579D01*
X7380879Y-11783421D01*
X7452721Y-11783421D01*
X7579721Y-4798421D02*
X7579721Y-4726579D01*
X7507879Y-4726579D01*
X7507879Y-4798421D01*
X7579721Y-4798421D01*
X7579721Y-5052421D02*
X7579721Y-4980579D01*
X7507879Y-4980579D01*
X7507879Y-5052421D01*
X7579721Y-5052421D01*
X7579721Y-13688421D02*
X7579721Y-13616579D01*
X7507879Y-13616579D01*
X7507879Y-13688421D01*
X7579721Y-13688421D01*
X7579721Y-13942421D02*
X7579721Y-13870579D01*
X7507879Y-13870579D01*
X7507879Y-13942421D01*
X7579721Y-13942421D01*
X7706721Y-6957421D02*
X7706721Y-6885579D01*
X7634879Y-6885579D01*
X7634879Y-6957421D01*
X7706721Y-6957421D01*
X7833721Y-4798421D02*
X7833721Y-4726579D01*
X7761879Y-4726579D01*
X7761879Y-4798421D01*
X7833721Y-4798421D01*
X7833721Y-5052421D02*
X7833721Y-4980579D01*
X7761879Y-4980579D01*
X7761879Y-5052421D01*
X7833721Y-5052421D01*
X7833721Y-13688421D02*
X7833721Y-13616579D01*
X7761879Y-13616579D01*
X7761879Y-13688421D01*
X7833721Y-13688421D01*
X7833721Y-13942421D02*
X7833721Y-13870579D01*
X7761879Y-13870579D01*
X7761879Y-13942421D01*
X7833721Y-13942421D01*
X7960721Y-6957421D02*
X7960721Y-6885579D01*
X7888879Y-6885579D01*
X7888879Y-6957421D01*
X7960721Y-6957421D01*
X7960721Y-11783421D02*
X7960721Y-11711579D01*
X7888879Y-11711579D01*
X7888879Y-11783421D01*
X7960721Y-11783421D01*
X8214721Y-6957421D02*
X8214721Y-6885579D01*
X8142879Y-6885579D01*
X8142879Y-6957421D01*
X8214721Y-6957421D01*
X8214721Y-11783421D02*
X8214721Y-11711579D01*
X8142879Y-11711579D01*
X8142879Y-11783421D01*
X8214721Y-11783421D01*
X8468721Y-6957421D02*
X8468721Y-6885579D01*
X8396879Y-6885579D01*
X8396879Y-6957421D01*
X8468721Y-6957421D01*
X8468721Y-11783421D02*
X8468721Y-11711579D01*
X8396879Y-11711579D01*
X8396879Y-11783421D01*
X8468721Y-11783421D01*
X8722721Y-6957421D02*
X8722721Y-6885579D01*
X8650879Y-6885579D01*
X8650879Y-6957421D01*
X8722721Y-6957421D01*
X8722721Y-11783421D02*
X8722721Y-11711579D01*
X8650879Y-11711579D01*
X8650879Y-11783421D01*
X8722721Y-11783421D01*
X8976721Y-6957421D02*
X8976721Y-6885579D01*
X8904879Y-6885579D01*
X8904879Y-6957421D01*
X8976721Y-6957421D01*
X8976721Y-11783421D02*
X8976721Y-11711579D01*
X8904879Y-11711579D01*
X8904879Y-11783421D01*
X8976721Y-11783421D01*
X9230721Y-6957421D02*
X9230721Y-6885579D01*
X9158879Y-6885579D01*
X9158879Y-6957421D01*
X9230721Y-6957421D01*
X9230721Y-11783421D02*
X9230721Y-11711579D01*
X9158879Y-11711579D01*
X9158879Y-11783421D01*
X9230721Y-11783421D01*
X10373721Y-4798421D02*
X10373721Y-4726579D01*
X10301879Y-4726579D01*
X10301879Y-4798421D01*
X10373721Y-4798421D01*
X10373721Y-5052421D02*
X10373721Y-4980579D01*
X10301879Y-4980579D01*
X10301879Y-5052421D01*
X10373721Y-5052421D01*
X10373721Y-5306421D02*
X10373721Y-5234579D01*
X10301879Y-5234579D01*
X10301879Y-5306421D01*
X10373721Y-5306421D01*
X10373721Y-5560421D02*
X10373721Y-5488579D01*
X10301879Y-5488579D01*
X10301879Y-5560421D01*
X10373721Y-5560421D01*
X10373721Y-5814421D02*
X10373721Y-5742579D01*
X10301879Y-5742579D01*
X10301879Y-5814421D01*
X10373721Y-5814421D01*
X10373721Y-6068421D02*
X10373721Y-5996579D01*
X10301879Y-5996579D01*
X10301879Y-6068421D01*
X10373721Y-6068421D01*
X10373721Y-6322421D02*
X10373721Y-6250579D01*
X10301879Y-6250579D01*
X10301879Y-6322421D01*
X10373721Y-6322421D01*
X10373721Y-6576421D02*
X10373721Y-6504579D01*
X10301879Y-6504579D01*
X10301879Y-6576421D01*
X10373721Y-6576421D01*
X10373721Y-7084421D02*
X10373721Y-7012579D01*
X10301879Y-7012579D01*
X10301879Y-7084421D01*
X10373721Y-7084421D01*
X10373721Y-7338421D02*
X10373721Y-7266579D01*
X10301879Y-7266579D01*
X10301879Y-7338421D01*
X10373721Y-7338421D01*
X10373721Y-7592421D02*
X10373721Y-7520579D01*
X10301879Y-7520579D01*
X10301879Y-7592421D01*
X10373721Y-7592421D01*
X10373721Y-7846421D02*
X10373721Y-7774579D01*
X10301879Y-7774579D01*
X10301879Y-7846421D01*
X10373721Y-7846421D01*
X10373721Y-8100421D02*
X10373721Y-8028579D01*
X10301879Y-8028579D01*
X10301879Y-8100421D01*
X10373721Y-8100421D01*
X10373721Y-8354421D02*
X10373721Y-8282579D01*
X10301879Y-8282579D01*
X10301879Y-8354421D01*
X10373721Y-8354421D01*
X10373721Y-8608421D02*
X10373721Y-8536579D01*
X10301879Y-8536579D01*
X10301879Y-8608421D01*
X10373721Y-8608421D01*
X10373721Y-8862421D02*
X10373721Y-8790579D01*
X10301879Y-8790579D01*
X10301879Y-8862421D01*
X10373721Y-8862421D01*
X10373721Y-9624421D02*
X10373721Y-9552579D01*
X10301879Y-9552579D01*
X10301879Y-9624421D01*
X10373721Y-9624421D01*
X10373721Y-9878421D02*
X10373721Y-9806579D01*
X10301879Y-9806579D01*
X10301879Y-9878421D01*
X10373721Y-9878421D01*
X10373721Y-10132421D02*
X10373721Y-10060579D01*
X10301879Y-10060579D01*
X10301879Y-10132421D01*
X10373721Y-10132421D01*
X10373721Y-10386421D02*
X10373721Y-10314579D01*
X10301879Y-10314579D01*
X10301879Y-10386421D01*
X10373721Y-10386421D01*
X10373721Y-10640421D02*
X10373721Y-10568579D01*
X10301879Y-10568579D01*
X10301879Y-10640421D01*
X10373721Y-10640421D01*
X10373721Y-10894421D02*
X10373721Y-10822579D01*
X10301879Y-10822579D01*
X10301879Y-10894421D01*
X10373721Y-10894421D01*
X10373721Y-11148421D02*
X10373721Y-11076579D01*
X10301879Y-11076579D01*
X10301879Y-11148421D01*
X10373721Y-11148421D01*
X10373721Y-11402421D02*
X10373721Y-11330579D01*
X10301879Y-11330579D01*
X10301879Y-11402421D01*
X10373721Y-11402421D01*
X10373721Y-12164421D02*
X10373721Y-12092579D01*
X10301879Y-12092579D01*
X10301879Y-12164421D01*
X10373721Y-12164421D01*
X10373721Y-12418421D02*
X10373721Y-12346579D01*
X10301879Y-12346579D01*
X10301879Y-12418421D01*
X10373721Y-12418421D01*
X10373721Y-12672421D02*
X10373721Y-12600579D01*
X10301879Y-12600579D01*
X10301879Y-12672421D01*
X10373721Y-12672421D01*
X10373721Y-12926421D02*
X10373721Y-12854579D01*
X10301879Y-12854579D01*
X10301879Y-12926421D01*
X10373721Y-12926421D01*
X10373721Y-13180421D02*
X10373721Y-13108579D01*
X10301879Y-13108579D01*
X10301879Y-13180421D01*
X10373721Y-13180421D01*
X10373721Y-13434421D02*
X10373721Y-13362579D01*
X10301879Y-13362579D01*
X10301879Y-13434421D01*
X10373721Y-13434421D01*
X10373721Y-13688421D02*
X10373721Y-13616579D01*
X10301879Y-13616579D01*
X10301879Y-13688421D01*
X10373721Y-13688421D01*
X10373721Y-13942421D02*
X10373721Y-13870579D01*
X10301879Y-13870579D01*
X10301879Y-13942421D01*
X10373721Y-13942421D01*
X10627721Y-4798421D02*
X10627721Y-4726579D01*
X10555879Y-4726579D01*
X10555879Y-4798421D01*
X10627721Y-4798421D01*
X10627721Y-5052421D02*
X10627721Y-4980579D01*
X10555879Y-4980579D01*
X10555879Y-5052421D01*
X10627721Y-5052421D01*
X10627721Y-5306421D02*
X10627721Y-5234579D01*
X10555879Y-5234579D01*
X10555879Y-5306421D01*
X10627721Y-5306421D01*
X10627721Y-5560421D02*
X10627721Y-5488579D01*
X10555879Y-5488579D01*
X10555879Y-5560421D01*
X10627721Y-5560421D01*
X10627721Y-5814421D02*
X10627721Y-5742579D01*
X10555879Y-5742579D01*
X10555879Y-5814421D01*
X10627721Y-5814421D01*
X10627721Y-6068421D02*
X10627721Y-5996579D01*
X10555879Y-5996579D01*
X10555879Y-6068421D01*
X10627721Y-6068421D01*
X10627721Y-6322421D02*
X10627721Y-6250579D01*
X10555879Y-6250579D01*
X10555879Y-6322421D01*
X10627721Y-6322421D01*
X10627721Y-6576421D02*
X10627721Y-6504579D01*
X10555879Y-6504579D01*
X10555879Y-6576421D01*
X10627721Y-6576421D01*
X10627721Y-7084421D02*
X10627721Y-7012579D01*
X10555879Y-7012579D01*
X10555879Y-7084421D01*
X10627721Y-7084421D01*
X10627721Y-7338421D02*
X10627721Y-7266579D01*
X10555879Y-7266579D01*
X10555879Y-7338421D01*
X10627721Y-7338421D01*
X10627721Y-7592421D02*
X10627721Y-7520579D01*
X10555879Y-7520579D01*
X10555879Y-7592421D01*
X10627721Y-7592421D01*
X10627721Y-7846421D02*
X10627721Y-7774579D01*
X10555879Y-7774579D01*
X10555879Y-7846421D01*
X10627721Y-7846421D01*
X10627721Y-8100421D02*
X10627721Y-8028579D01*
X10555879Y-8028579D01*
X10555879Y-8100421D01*
X10627721Y-8100421D01*
X10627721Y-8354421D02*
X10627721Y-8282579D01*
X10555879Y-8282579D01*
X10555879Y-8354421D01*
X10627721Y-8354421D01*
X10627721Y-8608421D02*
X10627721Y-8536579D01*
X10555879Y-8536579D01*
X10555879Y-8608421D01*
X10627721Y-8608421D01*
X10627721Y-8862421D02*
X10627721Y-8790579D01*
X10555879Y-8790579D01*
X10555879Y-8862421D01*
X10627721Y-8862421D01*
X10627721Y-9624421D02*
X10627721Y-9552579D01*
X10555879Y-9552579D01*
X10555879Y-9624421D01*
X10627721Y-9624421D01*
X10627721Y-9878421D02*
X10627721Y-9806579D01*
X10555879Y-9806579D01*
X10555879Y-9878421D01*
X10627721Y-9878421D01*
X10627721Y-10132421D02*
X10627721Y-10060579D01*
X10555879Y-10060579D01*
X10555879Y-10132421D01*
X10627721Y-10132421D01*
X10627721Y-10386421D02*
X10627721Y-10314579D01*
X10555879Y-10314579D01*
X10555879Y-10386421D01*
X10627721Y-10386421D01*
X10627721Y-10640421D02*
X10627721Y-10568579D01*
X10555879Y-10568579D01*
X10555879Y-10640421D01*
X10627721Y-10640421D01*
X10627721Y-10894421D02*
X10627721Y-10822579D01*
X10555879Y-10822579D01*
X10555879Y-10894421D01*
X10627721Y-10894421D01*
X10627721Y-11148421D02*
X10627721Y-11076579D01*
X10555879Y-11076579D01*
X10555879Y-11148421D01*
X10627721Y-11148421D01*
X10627721Y-11402421D02*
X10627721Y-11330579D01*
X10555879Y-11330579D01*
X10555879Y-11402421D01*
X10627721Y-11402421D01*
X10627721Y-12164421D02*
X10627721Y-12092579D01*
X10555879Y-12092579D01*
X10555879Y-12164421D01*
X10627721Y-12164421D01*
X10627721Y-12418421D02*
X10627721Y-12346579D01*
X10555879Y-12346579D01*
X10555879Y-12418421D01*
X10627721Y-12418421D01*
X10627721Y-12672421D02*
X10627721Y-12600579D01*
X10555879Y-12600579D01*
X10555879Y-12672421D01*
X10627721Y-12672421D01*
X10627721Y-12926421D02*
X10627721Y-12854579D01*
X10555879Y-12854579D01*
X10555879Y-12926421D01*
X10627721Y-12926421D01*
X10627721Y-13180421D02*
X10627721Y-13108579D01*
X10555879Y-13108579D01*
X10555879Y-13180421D01*
X10627721Y-13180421D01*
X10627721Y-13434421D02*
X10627721Y-13362579D01*
X10555879Y-13362579D01*
X10555879Y-13434421D01*
X10627721Y-13434421D01*
X10627721Y-13688421D02*
X10627721Y-13616579D01*
X10555879Y-13616579D01*
X10555879Y-13688421D01*
X10627721Y-13688421D01*
X10627721Y-13942421D02*
X10627721Y-13870579D01*
X10555879Y-13870579D01*
X10555879Y-13942421D01*
X10627721Y-13942421D01*
X12659721Y-4798421D02*
X12659721Y-4726579D01*
X12587879Y-4726579D01*
X12587879Y-4798421D01*
X12659721Y-4798421D01*
X12659721Y-5052421D02*
X12659721Y-4980579D01*
X12587879Y-4980579D01*
X12587879Y-5052421D01*
X12659721Y-5052421D01*
X12659721Y-5306421D02*
X12659721Y-5234579D01*
X12587879Y-5234579D01*
X12587879Y-5306421D01*
X12659721Y-5306421D01*
X12659721Y-5560421D02*
X12659721Y-5488579D01*
X12587879Y-5488579D01*
X12587879Y-5560421D01*
X12659721Y-5560421D01*
X12659721Y-5814421D02*
X12659721Y-5742579D01*
X12587879Y-5742579D01*
X12587879Y-5814421D01*
X12659721Y-5814421D01*
X12659721Y-6068421D02*
X12659721Y-5996579D01*
X12587879Y-5996579D01*
X12587879Y-6068421D01*
X12659721Y-6068421D01*
X12659721Y-6322421D02*
X12659721Y-6250579D01*
X12587879Y-6250579D01*
X12587879Y-6322421D01*
X12659721Y-6322421D01*
X12659721Y-6576421D02*
X12659721Y-6504579D01*
X12587879Y-6504579D01*
X12587879Y-6576421D01*
X12659721Y-6576421D01*
X12659721Y-7084421D02*
X12659721Y-7012579D01*
X12587879Y-7012579D01*
X12587879Y-7084421D01*
X12659721Y-7084421D01*
X12659721Y-7338421D02*
X12659721Y-7266579D01*
X12587879Y-7266579D01*
X12587879Y-7338421D01*
X12659721Y-7338421D01*
X12659721Y-7592421D02*
X12659721Y-7520579D01*
X12587879Y-7520579D01*
X12587879Y-7592421D01*
X12659721Y-7592421D01*
X12659721Y-7846421D02*
X12659721Y-7774579D01*
X12587879Y-7774579D01*
X12587879Y-7846421D01*
X12659721Y-7846421D01*
X12659721Y-8100421D02*
X12659721Y-8028579D01*
X12587879Y-8028579D01*
X12587879Y-8100421D01*
X12659721Y-8100421D01*
X12659721Y-8354421D02*
X12659721Y-8282579D01*
X12587879Y-8282579D01*
X12587879Y-8354421D01*
X12659721Y-8354421D01*
X12659721Y-8608421D02*
X12659721Y-8536579D01*
X12587879Y-8536579D01*
X12587879Y-8608421D01*
X12659721Y-8608421D01*
X12659721Y-8862421D02*
X12659721Y-8790579D01*
X12587879Y-8790579D01*
X12587879Y-8862421D01*
X12659721Y-8862421D01*
X12659721Y-9624421D02*
X12659721Y-9552579D01*
X12587879Y-9552579D01*
X12587879Y-9624421D01*
X12659721Y-9624421D01*
X12659721Y-9878421D02*
X12659721Y-9806579D01*
X12587879Y-9806579D01*
X12587879Y-9878421D01*
X12659721Y-9878421D01*
X12659721Y-10132421D02*
X12659721Y-10060579D01*
X12587879Y-10060579D01*
X12587879Y-10132421D01*
X12659721Y-10132421D01*
X12659721Y-10386421D02*
X12659721Y-10314579D01*
X12587879Y-10314579D01*
X12587879Y-10386421D01*
X12659721Y-10386421D01*
X12659721Y-10640421D02*
X12659721Y-10568579D01*
X12587879Y-10568579D01*
X12587879Y-10640421D01*
X12659721Y-10640421D01*
X12659721Y-10894421D02*
X12659721Y-10822579D01*
X12587879Y-10822579D01*
X12587879Y-10894421D01*
X12659721Y-10894421D01*
X12659721Y-11148421D02*
X12659721Y-11076579D01*
X12587879Y-11076579D01*
X12587879Y-11148421D01*
X12659721Y-11148421D01*
X12659721Y-11402421D02*
X12659721Y-11330579D01*
X12587879Y-11330579D01*
X12587879Y-11402421D01*
X12659721Y-11402421D01*
X12659721Y-12164421D02*
X12659721Y-12092579D01*
X12587879Y-12092579D01*
X12587879Y-12164421D01*
X12659721Y-12164421D01*
X12659721Y-12418421D02*
X12659721Y-12346579D01*
X12587879Y-12346579D01*
X12587879Y-12418421D01*
X12659721Y-12418421D01*
X12659721Y-12672421D02*
X12659721Y-12600579D01*
X12587879Y-12600579D01*
X12587879Y-12672421D01*
X12659721Y-12672421D01*
X12659721Y-12926421D02*
X12659721Y-12854579D01*
X12587879Y-12854579D01*
X12587879Y-12926421D01*
X12659721Y-12926421D01*
X12659721Y-13180421D02*
X12659721Y-13108579D01*
X12587879Y-13108579D01*
X12587879Y-13180421D01*
X12659721Y-13180421D01*
X12659721Y-13434421D02*
X12659721Y-13362579D01*
X12587879Y-13362579D01*
X12587879Y-13434421D01*
X12659721Y-13434421D01*
X12659721Y-13688421D02*
X12659721Y-13616579D01*
X12587879Y-13616579D01*
X12587879Y-13688421D01*
X12659721Y-13688421D01*
X12659721Y-13942421D02*
X12659721Y-13870579D01*
X12587879Y-13870579D01*
X12587879Y-13942421D01*
X12659721Y-13942421D01*
X12913721Y-4798421D02*
X12913721Y-4726579D01*
X12841879Y-4726579D01*
X12841879Y-4798421D01*
X12913721Y-4798421D01*
X12913721Y-5052421D02*
X12913721Y-4980579D01*
X12841879Y-4980579D01*
X12841879Y-5052421D01*
X12913721Y-5052421D01*
X12913721Y-5306421D02*
X12913721Y-5234579D01*
X12841879Y-5234579D01*
X12841879Y-5306421D01*
X12913721Y-5306421D01*
X12913721Y-5560421D02*
X12913721Y-5488579D01*
X12841879Y-5488579D01*
X12841879Y-5560421D01*
X12913721Y-5560421D01*
X12913721Y-5814421D02*
X12913721Y-5742579D01*
X12841879Y-5742579D01*
X12841879Y-5814421D01*
X12913721Y-5814421D01*
X12913721Y-6068421D02*
X12913721Y-5996579D01*
X12841879Y-5996579D01*
X12841879Y-6068421D01*
X12913721Y-6068421D01*
X12913721Y-6322421D02*
X12913721Y-6250579D01*
X12841879Y-6250579D01*
X12841879Y-6322421D01*
X12913721Y-6322421D01*
X12913721Y-6576421D02*
X12913721Y-6504579D01*
X12841879Y-6504579D01*
X12841879Y-6576421D01*
X12913721Y-6576421D01*
X12913721Y-7084421D02*
X12913721Y-7012579D01*
X12841879Y-7012579D01*
X12841879Y-7084421D01*
X12913721Y-7084421D01*
X12913721Y-7338421D02*
X12913721Y-7266579D01*
X12841879Y-7266579D01*
X12841879Y-7338421D01*
X12913721Y-7338421D01*
X12913721Y-7592421D02*
X12913721Y-7520579D01*
X12841879Y-7520579D01*
X12841879Y-7592421D01*
X12913721Y-7592421D01*
X12913721Y-7846421D02*
X12913721Y-7774579D01*
X12841879Y-7774579D01*
X12841879Y-7846421D01*
X12913721Y-7846421D01*
X12913721Y-8100421D02*
X12913721Y-8028579D01*
X12841879Y-8028579D01*
X12841879Y-8100421D01*
X12913721Y-8100421D01*
X12913721Y-8354421D02*
X12913721Y-8282579D01*
X12841879Y-8282579D01*
X12841879Y-8354421D01*
X12913721Y-8354421D01*
X12913721Y-8608421D02*
X12913721Y-8536579D01*
X12841879Y-8536579D01*
X12841879Y-8608421D01*
X12913721Y-8608421D01*
X12913721Y-8862421D02*
X12913721Y-8790579D01*
X12841879Y-8790579D01*
X12841879Y-8862421D01*
X12913721Y-8862421D01*
X12913721Y-9624421D02*
X12913721Y-9552579D01*
X12841879Y-9552579D01*
X12841879Y-9624421D01*
X12913721Y-9624421D01*
X12913721Y-9878421D02*
X12913721Y-9806579D01*
X12841879Y-9806579D01*
X12841879Y-9878421D01*
X12913721Y-9878421D01*
X12913721Y-10132421D02*
X12913721Y-10060579D01*
X12841879Y-10060579D01*
X12841879Y-10132421D01*
X12913721Y-10132421D01*
X12913721Y-10386421D02*
X12913721Y-10314579D01*
X12841879Y-10314579D01*
X12841879Y-10386421D01*
X12913721Y-10386421D01*
X12913721Y-10640421D02*
X12913721Y-10568579D01*
X12841879Y-10568579D01*
X12841879Y-10640421D01*
X12913721Y-10640421D01*
X12913721Y-10894421D02*
X12913721Y-10822579D01*
X12841879Y-10822579D01*
X12841879Y-10894421D01*
X12913721Y-10894421D01*
X12913721Y-11148421D02*
X12913721Y-11076579D01*
X12841879Y-11076579D01*
X12841879Y-11148421D01*
X12913721Y-11148421D01*
X12913721Y-11402421D02*
X12913721Y-11330579D01*
X12841879Y-11330579D01*
X12841879Y-11402421D01*
X12913721Y-11402421D01*
X12913721Y-12164421D02*
X12913721Y-12092579D01*
X12841879Y-12092579D01*
X12841879Y-12164421D01*
X12913721Y-12164421D01*
X12913721Y-12418421D02*
X12913721Y-12346579D01*
X12841879Y-12346579D01*
X12841879Y-12418421D01*
X12913721Y-12418421D01*
X12913721Y-12672421D02*
X12913721Y-12600579D01*
X12841879Y-12600579D01*
X12841879Y-12672421D01*
X12913721Y-12672421D01*
X12913721Y-12926421D02*
X12913721Y-12854579D01*
X12841879Y-12854579D01*
X12841879Y-12926421D01*
X12913721Y-12926421D01*
X12913721Y-13180421D02*
X12913721Y-13108579D01*
X12841879Y-13108579D01*
X12841879Y-13180421D01*
X12913721Y-13180421D01*
X12913721Y-13434421D02*
X12913721Y-13362579D01*
X12841879Y-13362579D01*
X12841879Y-13434421D01*
X12913721Y-13434421D01*
X12913721Y-13688421D02*
X12913721Y-13616579D01*
X12841879Y-13616579D01*
X12841879Y-13688421D01*
X12913721Y-13688421D01*
X12913721Y-13942421D02*
X12913721Y-13870579D01*
X12841879Y-13870579D01*
X12841879Y-13942421D01*
X12913721Y-13942421D01*
X14945721Y-4798421D02*
X14945721Y-4726579D01*
X14873879Y-4726579D01*
X14873879Y-4798421D01*
X14945721Y-4798421D01*
X14945721Y-5052421D02*
X14945721Y-4980579D01*
X14873879Y-4980579D01*
X14873879Y-5052421D01*
X14945721Y-5052421D01*
X14945721Y-5306421D02*
X14945721Y-5234579D01*
X14873879Y-5234579D01*
X14873879Y-5306421D01*
X14945721Y-5306421D01*
X14945721Y-5560421D02*
X14945721Y-5488579D01*
X14873879Y-5488579D01*
X14873879Y-5560421D01*
X14945721Y-5560421D01*
X14945721Y-5814421D02*
X14945721Y-5742579D01*
X14873879Y-5742579D01*
X14873879Y-5814421D01*
X14945721Y-5814421D01*
X14945721Y-6068421D02*
X14945721Y-5996579D01*
X14873879Y-5996579D01*
X14873879Y-6068421D01*
X14945721Y-6068421D01*
X14945721Y-6322421D02*
X14945721Y-6250579D01*
X14873879Y-6250579D01*
X14873879Y-6322421D01*
X14945721Y-6322421D01*
X14945721Y-6576421D02*
X14945721Y-6504579D01*
X14873879Y-6504579D01*
X14873879Y-6576421D01*
X14945721Y-6576421D01*
X14945721Y-7084421D02*
X14945721Y-7012579D01*
X14873879Y-7012579D01*
X14873879Y-7084421D01*
X14945721Y-7084421D01*
X14945721Y-7338421D02*
X14945721Y-7266579D01*
X14873879Y-7266579D01*
X14873879Y-7338421D01*
X14945721Y-7338421D01*
X14945721Y-7592421D02*
X14945721Y-7520579D01*
X14873879Y-7520579D01*
X14873879Y-7592421D01*
X14945721Y-7592421D01*
X14945721Y-7846421D02*
X14945721Y-7774579D01*
X14873879Y-7774579D01*
X14873879Y-7846421D01*
X14945721Y-7846421D01*
X14945721Y-8100421D02*
X14945721Y-8028579D01*
X14873879Y-8028579D01*
X14873879Y-8100421D01*
X14945721Y-8100421D01*
X14945721Y-8354421D02*
X14945721Y-8282579D01*
X14873879Y-8282579D01*
X14873879Y-8354421D01*
X14945721Y-8354421D01*
X14945721Y-8608421D02*
X14945721Y-8536579D01*
X14873879Y-8536579D01*
X14873879Y-8608421D01*
X14945721Y-8608421D01*
X14945721Y-8862421D02*
X14945721Y-8790579D01*
X14873879Y-8790579D01*
X14873879Y-8862421D01*
X14945721Y-8862421D01*
X14945721Y-9624421D02*
X14945721Y-9552579D01*
X14873879Y-9552579D01*
X14873879Y-9624421D01*
X14945721Y-9624421D01*
X14945721Y-9878421D02*
X14945721Y-9806579D01*
X14873879Y-9806579D01*
X14873879Y-9878421D01*
X14945721Y-9878421D01*
X14945721Y-10132421D02*
X14945721Y-10060579D01*
X14873879Y-10060579D01*
X14873879Y-10132421D01*
X14945721Y-10132421D01*
X14945721Y-10386421D02*
X14945721Y-10314579D01*
X14873879Y-10314579D01*
X14873879Y-10386421D01*
X14945721Y-10386421D01*
X14945721Y-10640421D02*
X14945721Y-10568579D01*
X14873879Y-10568579D01*
X14873879Y-10640421D01*
X14945721Y-10640421D01*
X14945721Y-10894421D02*
X14945721Y-10822579D01*
X14873879Y-10822579D01*
X14873879Y-10894421D01*
X14945721Y-10894421D01*
X14945721Y-11148421D02*
X14945721Y-11076579D01*
X14873879Y-11076579D01*
X14873879Y-11148421D01*
X14945721Y-11148421D01*
X14945721Y-11402421D02*
X14945721Y-11330579D01*
X14873879Y-11330579D01*
X14873879Y-11402421D01*
X14945721Y-11402421D01*
X14945721Y-12164421D02*
X14945721Y-12092579D01*
X14873879Y-12092579D01*
X14873879Y-12164421D01*
X14945721Y-12164421D01*
X14945721Y-12418421D02*
X14945721Y-12346579D01*
X14873879Y-12346579D01*
X14873879Y-12418421D01*
X14945721Y-12418421D01*
X14945721Y-12672421D02*
X14945721Y-12600579D01*
X14873879Y-12600579D01*
X14873879Y-12672421D01*
X14945721Y-12672421D01*
X14945721Y-12926421D02*
X14945721Y-12854579D01*
X14873879Y-12854579D01*
X14873879Y-12926421D01*
X14945721Y-12926421D01*
X14945721Y-13180421D02*
X14945721Y-13108579D01*
X14873879Y-13108579D01*
X14873879Y-13180421D01*
X14945721Y-13180421D01*
X14945721Y-13434421D02*
X14945721Y-13362579D01*
X14873879Y-13362579D01*
X14873879Y-13434421D01*
X14945721Y-13434421D01*
X14945721Y-13688421D02*
X14945721Y-13616579D01*
X14873879Y-13616579D01*
X14873879Y-13688421D01*
X14945721Y-13688421D01*
X14945721Y-13942421D02*
X14945721Y-13870579D01*
X14873879Y-13870579D01*
X14873879Y-13942421D01*
X14945721Y-13942421D01*
X15199721Y-4798421D02*
X15199721Y-4726579D01*
X15127879Y-4726579D01*
X15127879Y-4798421D01*
X15199721Y-4798421D01*
X15199721Y-5052421D02*
X15199721Y-4980579D01*
X15127879Y-4980579D01*
X15127879Y-5052421D01*
X15199721Y-5052421D01*
X15199721Y-5306421D02*
X15199721Y-5234579D01*
X15127879Y-5234579D01*
X15127879Y-5306421D01*
X15199721Y-5306421D01*
X15199721Y-5560421D02*
X15199721Y-5488579D01*
X15127879Y-5488579D01*
X15127879Y-5560421D01*
X15199721Y-5560421D01*
X15199721Y-5814421D02*
X15199721Y-5742579D01*
X15127879Y-5742579D01*
X15127879Y-5814421D01*
X15199721Y-5814421D01*
X15199721Y-6068421D02*
X15199721Y-5996579D01*
X15127879Y-5996579D01*
X15127879Y-6068421D01*
X15199721Y-6068421D01*
X15199721Y-6322421D02*
X15199721Y-6250579D01*
X15127879Y-6250579D01*
X15127879Y-6322421D01*
X15199721Y-6322421D01*
X15199721Y-6576421D02*
X15199721Y-6504579D01*
X15127879Y-6504579D01*
X15127879Y-6576421D01*
X15199721Y-6576421D01*
X15199721Y-7084421D02*
X15199721Y-7012579D01*
X15127879Y-7012579D01*
X15127879Y-7084421D01*
X15199721Y-7084421D01*
X15199721Y-7338421D02*
X15199721Y-7266579D01*
X15127879Y-7266579D01*
X15127879Y-7338421D01*
X15199721Y-7338421D01*
X15199721Y-7592421D02*
X15199721Y-7520579D01*
X15127879Y-7520579D01*
X15127879Y-7592421D01*
X15199721Y-7592421D01*
X15199721Y-7846421D02*
X15199721Y-7774579D01*
X15127879Y-7774579D01*
X15127879Y-7846421D01*
X15199721Y-7846421D01*
X15199721Y-8100421D02*
X15199721Y-8028579D01*
X15127879Y-8028579D01*
X15127879Y-8100421D01*
X15199721Y-8100421D01*
X15199721Y-8354421D02*
X15199721Y-8282579D01*
X15127879Y-8282579D01*
X15127879Y-8354421D01*
X15199721Y-8354421D01*
X15199721Y-8608421D02*
X15199721Y-8536579D01*
X15127879Y-8536579D01*
X15127879Y-8608421D01*
X15199721Y-8608421D01*
X15199721Y-8862421D02*
X15199721Y-8790579D01*
X15127879Y-8790579D01*
X15127879Y-8862421D01*
X15199721Y-8862421D01*
X15199721Y-9624421D02*
X15199721Y-9552579D01*
X15127879Y-9552579D01*
X15127879Y-9624421D01*
X15199721Y-9624421D01*
X15199721Y-9878421D02*
X15199721Y-9806579D01*
X15127879Y-9806579D01*
X15127879Y-9878421D01*
X15199721Y-9878421D01*
X15199721Y-10132421D02*
X15199721Y-10060579D01*
X15127879Y-10060579D01*
X15127879Y-10132421D01*
X15199721Y-10132421D01*
X15199721Y-10386421D02*
X15199721Y-10314579D01*
X15127879Y-10314579D01*
X15127879Y-10386421D01*
X15199721Y-10386421D01*
X15199721Y-10640421D02*
X15199721Y-10568579D01*
X15127879Y-10568579D01*
X15127879Y-10640421D01*
X15199721Y-10640421D01*
X15199721Y-10894421D02*
X15199721Y-10822579D01*
X15127879Y-10822579D01*
X15127879Y-10894421D01*
X15199721Y-10894421D01*
X15199721Y-11148421D02*
X15199721Y-11076579D01*
X15127879Y-11076579D01*
X15127879Y-11148421D01*
X15199721Y-11148421D01*
X15199721Y-11402421D02*
X15199721Y-11330579D01*
X15127879Y-11330579D01*
X15127879Y-11402421D01*
X15199721Y-11402421D01*
X15199721Y-12164421D02*
X15199721Y-12092579D01*
X15127879Y-12092579D01*
X15127879Y-12164421D01*
X15199721Y-12164421D01*
X15199721Y-12418421D02*
X15199721Y-12346579D01*
X15127879Y-12346579D01*
X15127879Y-12418421D01*
X15199721Y-12418421D01*
X15199721Y-12672421D02*
X15199721Y-12600579D01*
X15127879Y-12600579D01*
X15127879Y-12672421D01*
X15199721Y-12672421D01*
X15199721Y-12926421D02*
X15199721Y-12854579D01*
X15127879Y-12854579D01*
X15127879Y-12926421D01*
X15199721Y-12926421D01*
X15199721Y-13180421D02*
X15199721Y-13108579D01*
X15127879Y-13108579D01*
X15127879Y-13180421D01*
X15199721Y-13180421D01*
X15199721Y-13434421D02*
X15199721Y-13362579D01*
X15127879Y-13362579D01*
X15127879Y-13434421D01*
X15199721Y-13434421D01*
X15199721Y-13688421D02*
X15199721Y-13616579D01*
X15127879Y-13616579D01*
X15127879Y-13688421D01*
X15199721Y-13688421D01*
X15199721Y-13942421D02*
X15199721Y-13870579D01*
X15127879Y-13870579D01*
X15127879Y-13942421D01*
X15199721Y-13942421D01*
X4241800Y-11899900D02*
X4394200Y-11747500D01*
X4241800Y-11595100D01*
X4089400Y-11747500D01*
X4241800Y-11899900D01*
X4368800Y-7073900D02*
X4521200Y-6921500D01*
X4368800Y-6769100D01*
X4216400Y-6921500D01*
X4368800Y-7073900D01*
X9448800Y-8597900D02*
X9601200Y-8445500D01*
X9448800Y-8293100D01*
X9296400Y-8445500D01*
X9448800Y-8597900D01*
X9448800Y-11391900D02*
X9601200Y-11239500D01*
X9448800Y-11087100D01*
X9296400Y-11239500D01*
X9448800Y-11391900D01*
D13*
X3108728Y-14633714D02*
X3108728Y-14333714D01*
X3180157Y-14333714D01*
X3223014Y-14348000D01*
X3251586Y-14376571D01*
X3265871Y-14405143D01*
X3280157Y-14462286D01*
X3280157Y-14505143D01*
X3265871Y-14562286D01*
X3251586Y-14590857D01*
X3223014Y-14619429D01*
X3180157Y-14633714D01*
X3108728Y-14633714D01*
X3408728Y-14633714D02*
X3408728Y-14433714D01*
X3408728Y-14490857D02*
X3423014Y-14462286D01*
X3437300Y-14448000D01*
X3465871Y-14433714D01*
X3494443Y-14433714D01*
X3594443Y-14633714D02*
X3594443Y-14433714D01*
X3594443Y-14333714D02*
X3580157Y-14348000D01*
X3594443Y-14362286D01*
X3608728Y-14348000D01*
X3594443Y-14333714D01*
X3594443Y-14362286D01*
X3780157Y-14633714D02*
X3751586Y-14619429D01*
X3737300Y-14590857D01*
X3737300Y-14333714D01*
X3937300Y-14633714D02*
X3908728Y-14619429D01*
X3894443Y-14590857D01*
X3894443Y-14333714D01*
X4280157Y-14633714D02*
X4280157Y-14333714D01*
X4380157Y-14548000D01*
X4480157Y-14333714D01*
X4480157Y-14633714D01*
X4751586Y-14633714D02*
X4751586Y-14476571D01*
X4737300Y-14448000D01*
X4708729Y-14433714D01*
X4651586Y-14433714D01*
X4623014Y-14448000D01*
X4751586Y-14619429D02*
X4723014Y-14633714D01*
X4651586Y-14633714D01*
X4623014Y-14619429D01*
X4608729Y-14590857D01*
X4608729Y-14562286D01*
X4623014Y-14533714D01*
X4651586Y-14519429D01*
X4723014Y-14519429D01*
X4751586Y-14505143D01*
X4894443Y-14433714D02*
X4894443Y-14733714D01*
X4894443Y-14448000D02*
X4923014Y-14433714D01*
X4980157Y-14433714D01*
X5008729Y-14448000D01*
X5023014Y-14462286D01*
X5037300Y-14490857D01*
X5037300Y-14576571D01*
X5023014Y-14605143D01*
X5008729Y-14619429D01*
X4980157Y-14633714D01*
X4923014Y-14633714D01*
X4894443Y-14619429D01*
X5165871Y-14605143D02*
X5180157Y-14619429D01*
X5165871Y-14633714D01*
X5151586Y-14619429D01*
X5165871Y-14605143D01*
X5165871Y-14633714D01*
X5165871Y-14448000D02*
X5180157Y-14462286D01*
X5165871Y-14476571D01*
X5151586Y-14462286D01*
X5165871Y-14448000D01*
X5165871Y-14476571D01*
X2797300Y-15108000D02*
X2837300Y-15148000D01*
X2837300Y-15108000D02*
X2797300Y-15148000D01*
X3165871Y-14963714D02*
X3194443Y-14963714D01*
X3223014Y-14978000D01*
X3237300Y-14992286D01*
X3251586Y-15020857D01*
X3265871Y-15078000D01*
X3265871Y-15149429D01*
X3251586Y-15206571D01*
X3237300Y-15235143D01*
X3223014Y-15249429D01*
X3194443Y-15263714D01*
X3165871Y-15263714D01*
X3137300Y-15249429D01*
X3123014Y-15235143D01*
X3108728Y-15206571D01*
X3094443Y-15149429D01*
X3094443Y-15078000D01*
X3108728Y-15020857D01*
X3123014Y-14992286D01*
X3137300Y-14978000D01*
X3165871Y-14963714D01*
X3394443Y-15235143D02*
X3408728Y-15249429D01*
X3394443Y-15263714D01*
X3380157Y-15249429D01*
X3394443Y-15235143D01*
X3394443Y-15263714D01*
X3665871Y-15063714D02*
X3665871Y-15263714D01*
X3594443Y-14949429D02*
X3523014Y-15163714D01*
X3708728Y-15163714D01*
X3880157Y-14963714D02*
X3908728Y-14963714D01*
X3937300Y-14978000D01*
X3951586Y-14992286D01*
X3965871Y-15020857D01*
X3980157Y-15078000D01*
X3980157Y-15149429D01*
X3965871Y-15206571D01*
X3951586Y-15235143D01*
X3937300Y-15249429D01*
X3908728Y-15263714D01*
X3880157Y-15263714D01*
X3851586Y-15249429D01*
X3837300Y-15235143D01*
X3823014Y-15206571D01*
X3808728Y-15149429D01*
X3808728Y-15078000D01*
X3823014Y-15020857D01*
X3837300Y-14992286D01*
X3851586Y-14978000D01*
X3880157Y-14963714D01*
X4108728Y-15263714D02*
X4108728Y-15063714D01*
X4108728Y-15092286D02*
X4123014Y-15078000D01*
X4151586Y-15063714D01*
X4194443Y-15063714D01*
X4223014Y-15078000D01*
X4237300Y-15106571D01*
X4237300Y-15263714D01*
X4237300Y-15106571D02*
X4251586Y-15078000D01*
X4280157Y-15063714D01*
X4323014Y-15063714D01*
X4351586Y-15078000D01*
X4365871Y-15106571D01*
X4365871Y-15263714D01*
X4508729Y-15263714D02*
X4508729Y-15063714D01*
X4508729Y-15092286D02*
X4523014Y-15078000D01*
X4551586Y-15063714D01*
X4594443Y-15063714D01*
X4623014Y-15078000D01*
X4637300Y-15106571D01*
X4637300Y-15263714D01*
X4637300Y-15106571D02*
X4651586Y-15078000D01*
X4680157Y-15063714D01*
X4723014Y-15063714D01*
X4751586Y-15078000D01*
X4765871Y-15106571D01*
X4765871Y-15263714D01*
X5351586Y-14949429D02*
X5094443Y-15335143D01*
X5737300Y-14963714D02*
X5765871Y-14963714D01*
X5794443Y-14978000D01*
X5808728Y-14992286D01*
X5823014Y-15020857D01*
X5837300Y-15078000D01*
X5837300Y-15149429D01*
X5823014Y-15206571D01*
X5808728Y-15235143D01*
X5794443Y-15249429D01*
X5765871Y-15263714D01*
X5737300Y-15263714D01*
X5708728Y-15249429D01*
X5694443Y-15235143D01*
X5680157Y-15206571D01*
X5665871Y-15149429D01*
X5665871Y-15078000D01*
X5680157Y-15020857D01*
X5694443Y-14992286D01*
X5708728Y-14978000D01*
X5737300Y-14963714D01*
X5965871Y-15235143D02*
X5980157Y-15249429D01*
X5965871Y-15263714D01*
X5951586Y-15249429D01*
X5965871Y-15235143D01*
X5965871Y-15263714D01*
X6165871Y-14963714D02*
X6194443Y-14963714D01*
X6223014Y-14978000D01*
X6237300Y-14992286D01*
X6251585Y-15020857D01*
X6265871Y-15078000D01*
X6265871Y-15149429D01*
X6251585Y-15206571D01*
X6237300Y-15235143D01*
X6223014Y-15249429D01*
X6194443Y-15263714D01*
X6165871Y-15263714D01*
X6137300Y-15249429D01*
X6123014Y-15235143D01*
X6108728Y-15206571D01*
X6094443Y-15149429D01*
X6094443Y-15078000D01*
X6108728Y-15020857D01*
X6123014Y-14992286D01*
X6137300Y-14978000D01*
X6165871Y-14963714D01*
X6551585Y-15263714D02*
X6380157Y-15263714D01*
X6465871Y-15263714D02*
X6465871Y-14963714D01*
X6437300Y-15006571D01*
X6408728Y-15035143D01*
X6380157Y-15049429D01*
X6808728Y-14963714D02*
X6751585Y-14963714D01*
X6723014Y-14978000D01*
X6708728Y-14992286D01*
X6680157Y-15035143D01*
X6665871Y-15092286D01*
X6665871Y-15206571D01*
X6680157Y-15235143D01*
X6694443Y-15249429D01*
X6723014Y-15263714D01*
X6780157Y-15263714D01*
X6808728Y-15249429D01*
X6823014Y-15235143D01*
X6837300Y-15206571D01*
X6837300Y-15135143D01*
X6823014Y-15106571D01*
X6808728Y-15092286D01*
X6780157Y-15078000D01*
X6723014Y-15078000D01*
X6694443Y-15092286D01*
X6680157Y-15106571D01*
X6665871Y-15135143D01*
X6951586Y-14963714D02*
X6951586Y-15020857D01*
X7065871Y-14963714D02*
X7065871Y-15020857D01*
X7508728Y-15378000D02*
X7494443Y-15363714D01*
X7465871Y-15320857D01*
X7451585Y-15292286D01*
X7437300Y-15249429D01*
X7423014Y-15178000D01*
X7423014Y-15120857D01*
X7437300Y-15049429D01*
X7451585Y-15006571D01*
X7465871Y-14978000D01*
X7494443Y-14935143D01*
X7508728Y-14920857D01*
X7594443Y-14963714D02*
X7780157Y-14963714D01*
X7680157Y-15078000D01*
X7723014Y-15078000D01*
X7751585Y-15092286D01*
X7765871Y-15106571D01*
X7780157Y-15135143D01*
X7780157Y-15206571D01*
X7765871Y-15235143D01*
X7751585Y-15249429D01*
X7723014Y-15263714D01*
X7637300Y-15263714D01*
X7608728Y-15249429D01*
X7594443Y-15235143D01*
X8065871Y-15263714D02*
X7894443Y-15263714D01*
X7980157Y-15263714D02*
X7980157Y-14963714D01*
X7951585Y-15006571D01*
X7923014Y-15035143D01*
X7894443Y-15049429D01*
X8323014Y-15063714D02*
X8323014Y-15263714D01*
X8251585Y-14949429D02*
X8180157Y-15163714D01*
X8365871Y-15163714D01*
X8708728Y-15263714D02*
X8708728Y-14963714D01*
X8837300Y-15263714D02*
X8837300Y-15106571D01*
X8823014Y-15078000D01*
X8794443Y-15063714D01*
X8751586Y-15063714D01*
X8723014Y-15078000D01*
X8708728Y-15092286D01*
X9023014Y-15263714D02*
X8994443Y-15249429D01*
X8980157Y-15235143D01*
X8965871Y-15206571D01*
X8965871Y-15120857D01*
X8980157Y-15092286D01*
X8994443Y-15078000D01*
X9023014Y-15063714D01*
X9065871Y-15063714D01*
X9094443Y-15078000D01*
X9108728Y-15092286D01*
X9123014Y-15120857D01*
X9123014Y-15206571D01*
X9108728Y-15235143D01*
X9094443Y-15249429D01*
X9065871Y-15263714D01*
X9023014Y-15263714D01*
X9294443Y-15263714D02*
X9265871Y-15249429D01*
X9251586Y-15220857D01*
X9251586Y-14963714D01*
X9523014Y-15249429D02*
X9494443Y-15263714D01*
X9437300Y-15263714D01*
X9408729Y-15249429D01*
X9394443Y-15220857D01*
X9394443Y-15106571D01*
X9408729Y-15078000D01*
X9437300Y-15063714D01*
X9494443Y-15063714D01*
X9523014Y-15078000D01*
X9537300Y-15106571D01*
X9537300Y-15135143D01*
X9394443Y-15163714D01*
X9651586Y-15249429D02*
X9680157Y-15263714D01*
X9737300Y-15263714D01*
X9765871Y-15249429D01*
X9780157Y-15220857D01*
X9780157Y-15206571D01*
X9765871Y-15178000D01*
X9737300Y-15163714D01*
X9694443Y-15163714D01*
X9665871Y-15149429D01*
X9651586Y-15120857D01*
X9651586Y-15106571D01*
X9665871Y-15078000D01*
X9694443Y-15063714D01*
X9737300Y-15063714D01*
X9765871Y-15078000D01*
X9880157Y-15378000D02*
X9894443Y-15363714D01*
X9923014Y-15320857D01*
X9937300Y-15292286D01*
X9951586Y-15249429D01*
X9965871Y-15178000D01*
X9965871Y-15120857D01*
X9951586Y-15049429D01*
X9937300Y-15006571D01*
X9923014Y-14978000D01*
X9894443Y-14935143D01*
X9880157Y-14920857D01*
X2837300Y-15524000D02*
G75*
G03X2837300Y-15524000I-25000J0D01*
G01*
X3165871Y-15359714D02*
X3194443Y-15359714D01*
X3223014Y-15374000D01*
X3237300Y-15388286D01*
X3251586Y-15416857D01*
X3265871Y-15474000D01*
X3265871Y-15545429D01*
X3251586Y-15602571D01*
X3237300Y-15631143D01*
X3223014Y-15645429D01*
X3194443Y-15659714D01*
X3165871Y-15659714D01*
X3137300Y-15645429D01*
X3123014Y-15631143D01*
X3108728Y-15602571D01*
X3094443Y-15545429D01*
X3094443Y-15474000D01*
X3108728Y-15416857D01*
X3123014Y-15388286D01*
X3137300Y-15374000D01*
X3165871Y-15359714D01*
X3394443Y-15631143D02*
X3408728Y-15645429D01*
X3394443Y-15659714D01*
X3380157Y-15645429D01*
X3394443Y-15631143D01*
X3394443Y-15659714D01*
X3680157Y-15359714D02*
X3537300Y-15359714D01*
X3523014Y-15502571D01*
X3537300Y-15488286D01*
X3565871Y-15474000D01*
X3637300Y-15474000D01*
X3665871Y-15488286D01*
X3680157Y-15502571D01*
X3694443Y-15531143D01*
X3694443Y-15602571D01*
X3680157Y-15631143D01*
X3665871Y-15645429D01*
X3637300Y-15659714D01*
X3565871Y-15659714D01*
X3537300Y-15645429D01*
X3523014Y-15631143D01*
X3880157Y-15359714D02*
X3908728Y-15359714D01*
X3937300Y-15374000D01*
X3951586Y-15388286D01*
X3965871Y-15416857D01*
X3980157Y-15474000D01*
X3980157Y-15545429D01*
X3965871Y-15602571D01*
X3951586Y-15631143D01*
X3937300Y-15645429D01*
X3908728Y-15659714D01*
X3880157Y-15659714D01*
X3851586Y-15645429D01*
X3837300Y-15631143D01*
X3823014Y-15602571D01*
X3808728Y-15545429D01*
X3808728Y-15474000D01*
X3823014Y-15416857D01*
X3837300Y-15388286D01*
X3851586Y-15374000D01*
X3880157Y-15359714D01*
X4108728Y-15659714D02*
X4108728Y-15459714D01*
X4108728Y-15488286D02*
X4123014Y-15474000D01*
X4151586Y-15459714D01*
X4194443Y-15459714D01*
X4223014Y-15474000D01*
X4237300Y-15502571D01*
X4237300Y-15659714D01*
X4237300Y-15502571D02*
X4251586Y-15474000D01*
X4280157Y-15459714D01*
X4323014Y-15459714D01*
X4351586Y-15474000D01*
X4365871Y-15502571D01*
X4365871Y-15659714D01*
X4508729Y-15659714D02*
X4508729Y-15459714D01*
X4508729Y-15488286D02*
X4523014Y-15474000D01*
X4551586Y-15459714D01*
X4594443Y-15459714D01*
X4623014Y-15474000D01*
X4637300Y-15502571D01*
X4637300Y-15659714D01*
X4637300Y-15502571D02*
X4651586Y-15474000D01*
X4680157Y-15459714D01*
X4723014Y-15459714D01*
X4751586Y-15474000D01*
X4765871Y-15502571D01*
X4765871Y-15659714D01*
X5351586Y-15345429D02*
X5094443Y-15731143D01*
X5737300Y-15359714D02*
X5765871Y-15359714D01*
X5794443Y-15374000D01*
X5808728Y-15388286D01*
X5823014Y-15416857D01*
X5837300Y-15474000D01*
X5837300Y-15545429D01*
X5823014Y-15602571D01*
X5808728Y-15631143D01*
X5794443Y-15645429D01*
X5765871Y-15659714D01*
X5737300Y-15659714D01*
X5708728Y-15645429D01*
X5694443Y-15631143D01*
X5680157Y-15602571D01*
X5665871Y-15545429D01*
X5665871Y-15474000D01*
X5680157Y-15416857D01*
X5694443Y-15388286D01*
X5708728Y-15374000D01*
X5737300Y-15359714D01*
X5965871Y-15631143D02*
X5980157Y-15645429D01*
X5965871Y-15659714D01*
X5951586Y-15645429D01*
X5965871Y-15631143D01*
X5965871Y-15659714D01*
X6165871Y-15359714D02*
X6194443Y-15359714D01*
X6223014Y-15374000D01*
X6237300Y-15388286D01*
X6251585Y-15416857D01*
X6265871Y-15474000D01*
X6265871Y-15545429D01*
X6251585Y-15602571D01*
X6237300Y-15631143D01*
X6223014Y-15645429D01*
X6194443Y-15659714D01*
X6165871Y-15659714D01*
X6137300Y-15645429D01*
X6123014Y-15631143D01*
X6108728Y-15602571D01*
X6094443Y-15545429D01*
X6094443Y-15474000D01*
X6108728Y-15416857D01*
X6123014Y-15388286D01*
X6137300Y-15374000D01*
X6165871Y-15359714D01*
X6380157Y-15388286D02*
X6394443Y-15374000D01*
X6423014Y-15359714D01*
X6494443Y-15359714D01*
X6523014Y-15374000D01*
X6537300Y-15388286D01*
X6551585Y-15416857D01*
X6551585Y-15445429D01*
X6537300Y-15488286D01*
X6365871Y-15659714D01*
X6551585Y-15659714D01*
X6737300Y-15359714D02*
X6765871Y-15359714D01*
X6794443Y-15374000D01*
X6808728Y-15388286D01*
X6823014Y-15416857D01*
X6837300Y-15474000D01*
X6837300Y-15545429D01*
X6823014Y-15602571D01*
X6808728Y-15631143D01*
X6794443Y-15645429D01*
X6765871Y-15659714D01*
X6737300Y-15659714D01*
X6708728Y-15645429D01*
X6694443Y-15631143D01*
X6680157Y-15602571D01*
X6665871Y-15545429D01*
X6665871Y-15474000D01*
X6680157Y-15416857D01*
X6694443Y-15388286D01*
X6708728Y-15374000D01*
X6737300Y-15359714D01*
X6951586Y-15359714D02*
X6951586Y-15416857D01*
X7065871Y-15359714D02*
X7065871Y-15416857D01*
X7508728Y-15774000D02*
X7494443Y-15759714D01*
X7465871Y-15716857D01*
X7451585Y-15688286D01*
X7437300Y-15645429D01*
X7423014Y-15574000D01*
X7423014Y-15516857D01*
X7437300Y-15445429D01*
X7451585Y-15402571D01*
X7465871Y-15374000D01*
X7494443Y-15331143D01*
X7508728Y-15316857D01*
X7680157Y-15359714D02*
X7708728Y-15359714D01*
X7737300Y-15374000D01*
X7751585Y-15388286D01*
X7765871Y-15416857D01*
X7780157Y-15474000D01*
X7780157Y-15545429D01*
X7765871Y-15602571D01*
X7751585Y-15631143D01*
X7737300Y-15645429D01*
X7708728Y-15659714D01*
X7680157Y-15659714D01*
X7651585Y-15645429D01*
X7637300Y-15631143D01*
X7623014Y-15602571D01*
X7608728Y-15545429D01*
X7608728Y-15474000D01*
X7623014Y-15416857D01*
X7637300Y-15388286D01*
X7651585Y-15374000D01*
X7680157Y-15359714D01*
X8137300Y-15659714D02*
X8137300Y-15359714D01*
X8265871Y-15659714D02*
X8265871Y-15502571D01*
X8251585Y-15474000D01*
X8223014Y-15459714D01*
X8180157Y-15459714D01*
X8151585Y-15474000D01*
X8137300Y-15488286D01*
X8451586Y-15659714D02*
X8423014Y-15645429D01*
X8408728Y-15631143D01*
X8394443Y-15602571D01*
X8394443Y-15516857D01*
X8408728Y-15488286D01*
X8423014Y-15474000D01*
X8451586Y-15459714D01*
X8494443Y-15459714D01*
X8523014Y-15474000D01*
X8537300Y-15488286D01*
X8551586Y-15516857D01*
X8551586Y-15602571D01*
X8537300Y-15631143D01*
X8523014Y-15645429D01*
X8494443Y-15659714D01*
X8451586Y-15659714D01*
X8723014Y-15659714D02*
X8694443Y-15645429D01*
X8680157Y-15616857D01*
X8680157Y-15359714D01*
X8951586Y-15645429D02*
X8923014Y-15659714D01*
X8865871Y-15659714D01*
X8837300Y-15645429D01*
X8823014Y-15616857D01*
X8823014Y-15502571D01*
X8837300Y-15474000D01*
X8865871Y-15459714D01*
X8923014Y-15459714D01*
X8951586Y-15474000D01*
X8965871Y-15502571D01*
X8965871Y-15531143D01*
X8823014Y-15559714D01*
X9080157Y-15645429D02*
X9108729Y-15659714D01*
X9165871Y-15659714D01*
X9194443Y-15645429D01*
X9208729Y-15616857D01*
X9208729Y-15602571D01*
X9194443Y-15574000D01*
X9165871Y-15559714D01*
X9123014Y-15559714D01*
X9094443Y-15545429D01*
X9080157Y-15516857D01*
X9080157Y-15502571D01*
X9094443Y-15474000D01*
X9123014Y-15459714D01*
X9165871Y-15459714D01*
X9194443Y-15474000D01*
X9565871Y-15545429D02*
X9794443Y-15545429D01*
X9680157Y-15659714D02*
X9680157Y-15431143D01*
X10151586Y-15388286D02*
X10165871Y-15374000D01*
X10194443Y-15359714D01*
X10265871Y-15359714D01*
X10294443Y-15374000D01*
X10308728Y-15388286D01*
X10323014Y-15416857D01*
X10323014Y-15445429D01*
X10308728Y-15488286D01*
X10137300Y-15659714D01*
X10323014Y-15659714D01*
X10665871Y-15645429D02*
X10694443Y-15659714D01*
X10751586Y-15659714D01*
X10780157Y-15645429D01*
X10794443Y-15616857D01*
X10794443Y-15602571D01*
X10780157Y-15574000D01*
X10751586Y-15559714D01*
X10708728Y-15559714D01*
X10680157Y-15545429D01*
X10665871Y-15516857D01*
X10665871Y-15502571D01*
X10680157Y-15474000D01*
X10708728Y-15459714D01*
X10751586Y-15459714D01*
X10780157Y-15474000D01*
X10965871Y-15659714D02*
X10937300Y-15645429D01*
X10923014Y-15616857D01*
X10923014Y-15359714D01*
X11123014Y-15659714D02*
X11094443Y-15645429D01*
X11080157Y-15631143D01*
X11065871Y-15602571D01*
X11065871Y-15516857D01*
X11080157Y-15488286D01*
X11094443Y-15474000D01*
X11123014Y-15459714D01*
X11165871Y-15459714D01*
X11194443Y-15474000D01*
X11208728Y-15488286D01*
X11223014Y-15516857D01*
X11223014Y-15602571D01*
X11208728Y-15631143D01*
X11194443Y-15645429D01*
X11165871Y-15659714D01*
X11123014Y-15659714D01*
X11308728Y-15459714D02*
X11423014Y-15459714D01*
X11351586Y-15359714D02*
X11351586Y-15616857D01*
X11365871Y-15645429D01*
X11394443Y-15659714D01*
X11423014Y-15659714D01*
X11508728Y-15645429D02*
X11537300Y-15659714D01*
X11594443Y-15659714D01*
X11623014Y-15645429D01*
X11637300Y-15616857D01*
X11637300Y-15602571D01*
X11623014Y-15574000D01*
X11594443Y-15559714D01*
X11551586Y-15559714D01*
X11523014Y-15545429D01*
X11508728Y-15516857D01*
X11508728Y-15502571D01*
X11523014Y-15474000D01*
X11551586Y-15459714D01*
X11594443Y-15459714D01*
X11623014Y-15474000D01*
X11737300Y-15774000D02*
X11751586Y-15759714D01*
X11780157Y-15716857D01*
X11794443Y-15688286D01*
X11808728Y-15645429D01*
X11823014Y-15574000D01*
X11823014Y-15516857D01*
X11808728Y-15445429D01*
X11794443Y-15402571D01*
X11780157Y-15374000D01*
X11751586Y-15331143D01*
X11737300Y-15316857D01*
X2809800Y-15892500D02*
X2809800Y-15947500D01*
X2782300Y-15920000D02*
X2837300Y-15920000D01*
X3165871Y-15755714D02*
X3194443Y-15755714D01*
X3223014Y-15770000D01*
X3237300Y-15784286D01*
X3251586Y-15812857D01*
X3265871Y-15870000D01*
X3265871Y-15941429D01*
X3251586Y-15998571D01*
X3237300Y-16027143D01*
X3223014Y-16041429D01*
X3194443Y-16055714D01*
X3165871Y-16055714D01*
X3137300Y-16041429D01*
X3123014Y-16027143D01*
X3108728Y-15998571D01*
X3094443Y-15941429D01*
X3094443Y-15870000D01*
X3108728Y-15812857D01*
X3123014Y-15784286D01*
X3137300Y-15770000D01*
X3165871Y-15755714D01*
X3394443Y-16027143D02*
X3408728Y-16041429D01*
X3394443Y-16055714D01*
X3380157Y-16041429D01*
X3394443Y-16027143D01*
X3394443Y-16055714D01*
X3680157Y-15755714D02*
X3537300Y-15755714D01*
X3523014Y-15898571D01*
X3537300Y-15884286D01*
X3565871Y-15870000D01*
X3637300Y-15870000D01*
X3665871Y-15884286D01*
X3680157Y-15898571D01*
X3694443Y-15927143D01*
X3694443Y-15998571D01*
X3680157Y-16027143D01*
X3665871Y-16041429D01*
X3637300Y-16055714D01*
X3565871Y-16055714D01*
X3537300Y-16041429D01*
X3523014Y-16027143D01*
X3965871Y-15755714D02*
X3823014Y-15755714D01*
X3808728Y-15898571D01*
X3823014Y-15884286D01*
X3851586Y-15870000D01*
X3923014Y-15870000D01*
X3951586Y-15884286D01*
X3965871Y-15898571D01*
X3980157Y-15927143D01*
X3980157Y-15998571D01*
X3965871Y-16027143D01*
X3951586Y-16041429D01*
X3923014Y-16055714D01*
X3851586Y-16055714D01*
X3823014Y-16041429D01*
X3808728Y-16027143D01*
X4108728Y-16055714D02*
X4108728Y-15855714D01*
X4108728Y-15884286D02*
X4123014Y-15870000D01*
X4151586Y-15855714D01*
X4194443Y-15855714D01*
X4223014Y-15870000D01*
X4237300Y-15898571D01*
X4237300Y-16055714D01*
X4237300Y-15898571D02*
X4251586Y-15870000D01*
X4280157Y-15855714D01*
X4323014Y-15855714D01*
X4351586Y-15870000D01*
X4365871Y-15898571D01*
X4365871Y-16055714D01*
X4508729Y-16055714D02*
X4508729Y-15855714D01*
X4508729Y-15884286D02*
X4523014Y-15870000D01*
X4551586Y-15855714D01*
X4594443Y-15855714D01*
X4623014Y-15870000D01*
X4637300Y-15898571D01*
X4637300Y-16055714D01*
X4637300Y-15898571D02*
X4651586Y-15870000D01*
X4680157Y-15855714D01*
X4723014Y-15855714D01*
X4751586Y-15870000D01*
X4765871Y-15898571D01*
X4765871Y-16055714D01*
X5351586Y-15741429D02*
X5094443Y-16127143D01*
X5737300Y-15755714D02*
X5765871Y-15755714D01*
X5794443Y-15770000D01*
X5808728Y-15784286D01*
X5823014Y-15812857D01*
X5837300Y-15870000D01*
X5837300Y-15941429D01*
X5823014Y-15998571D01*
X5808728Y-16027143D01*
X5794443Y-16041429D01*
X5765871Y-16055714D01*
X5737300Y-16055714D01*
X5708728Y-16041429D01*
X5694443Y-16027143D01*
X5680157Y-15998571D01*
X5665871Y-15941429D01*
X5665871Y-15870000D01*
X5680157Y-15812857D01*
X5694443Y-15784286D01*
X5708728Y-15770000D01*
X5737300Y-15755714D01*
X5965871Y-16027143D02*
X5980157Y-16041429D01*
X5965871Y-16055714D01*
X5951586Y-16041429D01*
X5965871Y-16027143D01*
X5965871Y-16055714D01*
X6165871Y-15755714D02*
X6194443Y-15755714D01*
X6223014Y-15770000D01*
X6237300Y-15784286D01*
X6251585Y-15812857D01*
X6265871Y-15870000D01*
X6265871Y-15941429D01*
X6251585Y-15998571D01*
X6237300Y-16027143D01*
X6223014Y-16041429D01*
X6194443Y-16055714D01*
X6165871Y-16055714D01*
X6137300Y-16041429D01*
X6123014Y-16027143D01*
X6108728Y-15998571D01*
X6094443Y-15941429D01*
X6094443Y-15870000D01*
X6108728Y-15812857D01*
X6123014Y-15784286D01*
X6137300Y-15770000D01*
X6165871Y-15755714D01*
X6380157Y-15784286D02*
X6394443Y-15770000D01*
X6423014Y-15755714D01*
X6494443Y-15755714D01*
X6523014Y-15770000D01*
X6537300Y-15784286D01*
X6551585Y-15812857D01*
X6551585Y-15841429D01*
X6537300Y-15884286D01*
X6365871Y-16055714D01*
X6551585Y-16055714D01*
X6665871Y-15784286D02*
X6680157Y-15770000D01*
X6708728Y-15755714D01*
X6780157Y-15755714D01*
X6808728Y-15770000D01*
X6823014Y-15784286D01*
X6837300Y-15812857D01*
X6837300Y-15841429D01*
X6823014Y-15884286D01*
X6651585Y-16055714D01*
X6837300Y-16055714D01*
X6951586Y-15755714D02*
X6951586Y-15812857D01*
X7065871Y-15755714D02*
X7065871Y-15812857D01*
X7508728Y-16170000D02*
X7494443Y-16155714D01*
X7465871Y-16112857D01*
X7451585Y-16084286D01*
X7437300Y-16041429D01*
X7423014Y-15970000D01*
X7423014Y-15912857D01*
X7437300Y-15841429D01*
X7451585Y-15798571D01*
X7465871Y-15770000D01*
X7494443Y-15727143D01*
X7508728Y-15712857D01*
X7680157Y-15755714D02*
X7708728Y-15755714D01*
X7737300Y-15770000D01*
X7751585Y-15784286D01*
X7765871Y-15812857D01*
X7780157Y-15870000D01*
X7780157Y-15941429D01*
X7765871Y-15998571D01*
X7751585Y-16027143D01*
X7737300Y-16041429D01*
X7708728Y-16055714D01*
X7680157Y-16055714D01*
X7651585Y-16041429D01*
X7637300Y-16027143D01*
X7623014Y-15998571D01*
X7608728Y-15941429D01*
X7608728Y-15870000D01*
X7623014Y-15812857D01*
X7637300Y-15784286D01*
X7651585Y-15770000D01*
X7680157Y-15755714D01*
X8137300Y-16055714D02*
X8137300Y-15755714D01*
X8265871Y-16055714D02*
X8265871Y-15898571D01*
X8251585Y-15870000D01*
X8223014Y-15855714D01*
X8180157Y-15855714D01*
X8151585Y-15870000D01*
X8137300Y-15884286D01*
X8451586Y-16055714D02*
X8423014Y-16041429D01*
X8408728Y-16027143D01*
X8394443Y-15998571D01*
X8394443Y-15912857D01*
X8408728Y-15884286D01*
X8423014Y-15870000D01*
X8451586Y-15855714D01*
X8494443Y-15855714D01*
X8523014Y-15870000D01*
X8537300Y-15884286D01*
X8551586Y-15912857D01*
X8551586Y-15998571D01*
X8537300Y-16027143D01*
X8523014Y-16041429D01*
X8494443Y-16055714D01*
X8451586Y-16055714D01*
X8723014Y-16055714D02*
X8694443Y-16041429D01*
X8680157Y-16012857D01*
X8680157Y-15755714D01*
X8951586Y-16041429D02*
X8923014Y-16055714D01*
X8865871Y-16055714D01*
X8837300Y-16041429D01*
X8823014Y-16012857D01*
X8823014Y-15898571D01*
X8837300Y-15870000D01*
X8865871Y-15855714D01*
X8923014Y-15855714D01*
X8951586Y-15870000D01*
X8965871Y-15898571D01*
X8965871Y-15927143D01*
X8823014Y-15955714D01*
X9080157Y-16041429D02*
X9108729Y-16055714D01*
X9165871Y-16055714D01*
X9194443Y-16041429D01*
X9208729Y-16012857D01*
X9208729Y-15998571D01*
X9194443Y-15970000D01*
X9165871Y-15955714D01*
X9123014Y-15955714D01*
X9094443Y-15941429D01*
X9080157Y-15912857D01*
X9080157Y-15898571D01*
X9094443Y-15870000D01*
X9123014Y-15855714D01*
X9165871Y-15855714D01*
X9194443Y-15870000D01*
X9565871Y-15941429D02*
X9794443Y-15941429D01*
X9680157Y-16055714D02*
X9680157Y-15827143D01*
X10151586Y-15784286D02*
X10165871Y-15770000D01*
X10194443Y-15755714D01*
X10265871Y-15755714D01*
X10294443Y-15770000D01*
X10308728Y-15784286D01*
X10323014Y-15812857D01*
X10323014Y-15841429D01*
X10308728Y-15884286D01*
X10137300Y-16055714D01*
X10323014Y-16055714D01*
X10665871Y-16041429D02*
X10694443Y-16055714D01*
X10751586Y-16055714D01*
X10780157Y-16041429D01*
X10794443Y-16012857D01*
X10794443Y-15998571D01*
X10780157Y-15970000D01*
X10751586Y-15955714D01*
X10708728Y-15955714D01*
X10680157Y-15941429D01*
X10665871Y-15912857D01*
X10665871Y-15898571D01*
X10680157Y-15870000D01*
X10708728Y-15855714D01*
X10751586Y-15855714D01*
X10780157Y-15870000D01*
X10965871Y-16055714D02*
X10937300Y-16041429D01*
X10923014Y-16012857D01*
X10923014Y-15755714D01*
X11123014Y-16055714D02*
X11094443Y-16041429D01*
X11080157Y-16027143D01*
X11065871Y-15998571D01*
X11065871Y-15912857D01*
X11080157Y-15884286D01*
X11094443Y-15870000D01*
X11123014Y-15855714D01*
X11165871Y-15855714D01*
X11194443Y-15870000D01*
X11208728Y-15884286D01*
X11223014Y-15912857D01*
X11223014Y-15998571D01*
X11208728Y-16027143D01*
X11194443Y-16041429D01*
X11165871Y-16055714D01*
X11123014Y-16055714D01*
X11308728Y-15855714D02*
X11423014Y-15855714D01*
X11351586Y-15755714D02*
X11351586Y-16012857D01*
X11365871Y-16041429D01*
X11394443Y-16055714D01*
X11423014Y-16055714D01*
X11508728Y-16041429D02*
X11537300Y-16055714D01*
X11594443Y-16055714D01*
X11623014Y-16041429D01*
X11637300Y-16012857D01*
X11637300Y-15998571D01*
X11623014Y-15970000D01*
X11594443Y-15955714D01*
X11551586Y-15955714D01*
X11523014Y-15941429D01*
X11508728Y-15912857D01*
X11508728Y-15898571D01*
X11523014Y-15870000D01*
X11551586Y-15855714D01*
X11594443Y-15855714D01*
X11623014Y-15870000D01*
X11737300Y-16170000D02*
X11751586Y-16155714D01*
X11780157Y-16112857D01*
X11794443Y-16084286D01*
X11808728Y-16041429D01*
X11823014Y-15970000D01*
X11823014Y-15912857D01*
X11808728Y-15841429D01*
X11794443Y-15798571D01*
X11780157Y-15770000D01*
X11751586Y-15727143D01*
X11737300Y-15712857D01*
X2822421Y-16351921D02*
X2822421Y-16280079D01*
X2750579Y-16280079D01*
X2750579Y-16351921D01*
X2822421Y-16351921D01*
X3265871Y-16451714D02*
X3094443Y-16451714D01*
X3180157Y-16451714D02*
X3180157Y-16151714D01*
X3151586Y-16194571D01*
X3123014Y-16223143D01*
X3094443Y-16237429D01*
X3394443Y-16423143D02*
X3408728Y-16437429D01*
X3394443Y-16451714D01*
X3380157Y-16437429D01*
X3394443Y-16423143D01*
X3394443Y-16451714D01*
X3594443Y-16151714D02*
X3623014Y-16151714D01*
X3651586Y-16166000D01*
X3665871Y-16180286D01*
X3680157Y-16208857D01*
X3694443Y-16266000D01*
X3694443Y-16337429D01*
X3680157Y-16394571D01*
X3665871Y-16423143D01*
X3651586Y-16437429D01*
X3623014Y-16451714D01*
X3594443Y-16451714D01*
X3565871Y-16437429D01*
X3551586Y-16423143D01*
X3537300Y-16394571D01*
X3523014Y-16337429D01*
X3523014Y-16266000D01*
X3537300Y-16208857D01*
X3551586Y-16180286D01*
X3565871Y-16166000D01*
X3594443Y-16151714D01*
X3808728Y-16180286D02*
X3823014Y-16166000D01*
X3851586Y-16151714D01*
X3923014Y-16151714D01*
X3951586Y-16166000D01*
X3965871Y-16180286D01*
X3980157Y-16208857D01*
X3980157Y-16237429D01*
X3965871Y-16280286D01*
X3794443Y-16451714D01*
X3980157Y-16451714D01*
X4108728Y-16451714D02*
X4108728Y-16251714D01*
X4108728Y-16280286D02*
X4123014Y-16266000D01*
X4151586Y-16251714D01*
X4194443Y-16251714D01*
X4223014Y-16266000D01*
X4237300Y-16294571D01*
X4237300Y-16451714D01*
X4237300Y-16294571D02*
X4251586Y-16266000D01*
X4280157Y-16251714D01*
X4323014Y-16251714D01*
X4351586Y-16266000D01*
X4365871Y-16294571D01*
X4365871Y-16451714D01*
X4508729Y-16451714D02*
X4508729Y-16251714D01*
X4508729Y-16280286D02*
X4523014Y-16266000D01*
X4551586Y-16251714D01*
X4594443Y-16251714D01*
X4623014Y-16266000D01*
X4637300Y-16294571D01*
X4637300Y-16451714D01*
X4637300Y-16294571D02*
X4651586Y-16266000D01*
X4680157Y-16251714D01*
X4723014Y-16251714D01*
X4751586Y-16266000D01*
X4765871Y-16294571D01*
X4765871Y-16451714D01*
X5351586Y-16137429D02*
X5094443Y-16523143D01*
X5737300Y-16151714D02*
X5765871Y-16151714D01*
X5794443Y-16166000D01*
X5808728Y-16180286D01*
X5823014Y-16208857D01*
X5837300Y-16266000D01*
X5837300Y-16337429D01*
X5823014Y-16394571D01*
X5808728Y-16423143D01*
X5794443Y-16437429D01*
X5765871Y-16451714D01*
X5737300Y-16451714D01*
X5708728Y-16437429D01*
X5694443Y-16423143D01*
X5680157Y-16394571D01*
X5665871Y-16337429D01*
X5665871Y-16266000D01*
X5680157Y-16208857D01*
X5694443Y-16180286D01*
X5708728Y-16166000D01*
X5737300Y-16151714D01*
X5965871Y-16423143D02*
X5980157Y-16437429D01*
X5965871Y-16451714D01*
X5951586Y-16437429D01*
X5965871Y-16423143D01*
X5965871Y-16451714D01*
X6165871Y-16151714D02*
X6194443Y-16151714D01*
X6223014Y-16166000D01*
X6237300Y-16180286D01*
X6251585Y-16208857D01*
X6265871Y-16266000D01*
X6265871Y-16337429D01*
X6251585Y-16394571D01*
X6237300Y-16423143D01*
X6223014Y-16437429D01*
X6194443Y-16451714D01*
X6165871Y-16451714D01*
X6137300Y-16437429D01*
X6123014Y-16423143D01*
X6108728Y-16394571D01*
X6094443Y-16337429D01*
X6094443Y-16266000D01*
X6108728Y-16208857D01*
X6123014Y-16180286D01*
X6137300Y-16166000D01*
X6165871Y-16151714D01*
X6523014Y-16251714D02*
X6523014Y-16451714D01*
X6451585Y-16137429D02*
X6380157Y-16351714D01*
X6565871Y-16351714D01*
X6737300Y-16151714D02*
X6765871Y-16151714D01*
X6794443Y-16166000D01*
X6808728Y-16180286D01*
X6823014Y-16208857D01*
X6837300Y-16266000D01*
X6837300Y-16337429D01*
X6823014Y-16394571D01*
X6808728Y-16423143D01*
X6794443Y-16437429D01*
X6765871Y-16451714D01*
X6737300Y-16451714D01*
X6708728Y-16437429D01*
X6694443Y-16423143D01*
X6680157Y-16394571D01*
X6665871Y-16337429D01*
X6665871Y-16266000D01*
X6680157Y-16208857D01*
X6694443Y-16180286D01*
X6708728Y-16166000D01*
X6737300Y-16151714D01*
X6951586Y-16151714D02*
X6951586Y-16208857D01*
X7065871Y-16151714D02*
X7065871Y-16208857D01*
X7508728Y-16566000D02*
X7494443Y-16551714D01*
X7465871Y-16508857D01*
X7451585Y-16480286D01*
X7437300Y-16437429D01*
X7423014Y-16366000D01*
X7423014Y-16308857D01*
X7437300Y-16237429D01*
X7451585Y-16194571D01*
X7465871Y-16166000D01*
X7494443Y-16123143D01*
X7508728Y-16108857D01*
X7608728Y-16180286D02*
X7623014Y-16166000D01*
X7651585Y-16151714D01*
X7723014Y-16151714D01*
X7751585Y-16166000D01*
X7765871Y-16180286D01*
X7780157Y-16208857D01*
X7780157Y-16237429D01*
X7765871Y-16280286D01*
X7594443Y-16451714D01*
X7780157Y-16451714D01*
X7923014Y-16451714D02*
X7980157Y-16451714D01*
X8008728Y-16437429D01*
X8023014Y-16423143D01*
X8051585Y-16380286D01*
X8065871Y-16323143D01*
X8065871Y-16208857D01*
X8051585Y-16180286D01*
X8037300Y-16166000D01*
X8008728Y-16151714D01*
X7951585Y-16151714D01*
X7923014Y-16166000D01*
X7908728Y-16180286D01*
X7894443Y-16208857D01*
X7894443Y-16280286D01*
X7908728Y-16308857D01*
X7923014Y-16323143D01*
X7951585Y-16337429D01*
X8008728Y-16337429D01*
X8037300Y-16323143D01*
X8051585Y-16308857D01*
X8065871Y-16280286D01*
X8237300Y-16280286D02*
X8208728Y-16266000D01*
X8194443Y-16251714D01*
X8180157Y-16223143D01*
X8180157Y-16208857D01*
X8194443Y-16180286D01*
X8208728Y-16166000D01*
X8237300Y-16151714D01*
X8294443Y-16151714D01*
X8323014Y-16166000D01*
X8337300Y-16180286D01*
X8351585Y-16208857D01*
X8351585Y-16223143D01*
X8337300Y-16251714D01*
X8323014Y-16266000D01*
X8294443Y-16280286D01*
X8237300Y-16280286D01*
X8208728Y-16294571D01*
X8194443Y-16308857D01*
X8180157Y-16337429D01*
X8180157Y-16394571D01*
X8194443Y-16423143D01*
X8208728Y-16437429D01*
X8237300Y-16451714D01*
X8294443Y-16451714D01*
X8323014Y-16437429D01*
X8337300Y-16423143D01*
X8351585Y-16394571D01*
X8351585Y-16337429D01*
X8337300Y-16308857D01*
X8323014Y-16294571D01*
X8294443Y-16280286D01*
X8708728Y-16451714D02*
X8708728Y-16151714D01*
X8837300Y-16451714D02*
X8837300Y-16294571D01*
X8823014Y-16266000D01*
X8794443Y-16251714D01*
X8751586Y-16251714D01*
X8723014Y-16266000D01*
X8708728Y-16280286D01*
X9023014Y-16451714D02*
X8994443Y-16437429D01*
X8980157Y-16423143D01*
X8965871Y-16394571D01*
X8965871Y-16308857D01*
X8980157Y-16280286D01*
X8994443Y-16266000D01*
X9023014Y-16251714D01*
X9065871Y-16251714D01*
X9094443Y-16266000D01*
X9108728Y-16280286D01*
X9123014Y-16308857D01*
X9123014Y-16394571D01*
X9108728Y-16423143D01*
X9094443Y-16437429D01*
X9065871Y-16451714D01*
X9023014Y-16451714D01*
X9294443Y-16451714D02*
X9265871Y-16437429D01*
X9251586Y-16408857D01*
X9251586Y-16151714D01*
X9523014Y-16437429D02*
X9494443Y-16451714D01*
X9437300Y-16451714D01*
X9408729Y-16437429D01*
X9394443Y-16408857D01*
X9394443Y-16294571D01*
X9408729Y-16266000D01*
X9437300Y-16251714D01*
X9494443Y-16251714D01*
X9523014Y-16266000D01*
X9537300Y-16294571D01*
X9537300Y-16323143D01*
X9394443Y-16351714D01*
X9651586Y-16437429D02*
X9680157Y-16451714D01*
X9737300Y-16451714D01*
X9765871Y-16437429D01*
X9780157Y-16408857D01*
X9780157Y-16394571D01*
X9765871Y-16366000D01*
X9737300Y-16351714D01*
X9694443Y-16351714D01*
X9665871Y-16337429D01*
X9651586Y-16308857D01*
X9651586Y-16294571D01*
X9665871Y-16266000D01*
X9694443Y-16251714D01*
X9737300Y-16251714D01*
X9765871Y-16266000D01*
X9880157Y-16566000D02*
X9894443Y-16551714D01*
X9923014Y-16508857D01*
X9937300Y-16480286D01*
X9951586Y-16437429D01*
X9965871Y-16366000D01*
X9965871Y-16308857D01*
X9951586Y-16237429D01*
X9937300Y-16194571D01*
X9923014Y-16166000D01*
X9894443Y-16123143D01*
X9880157Y-16108857D01*
X2684900Y-16864400D02*
X2837300Y-16712000D01*
X2684900Y-16559600D01*
X2532500Y-16712000D01*
X2684900Y-16864400D01*
X3080157Y-16547714D02*
X3265871Y-16547714D01*
X3165871Y-16662000D01*
X3208728Y-16662000D01*
X3237300Y-16676286D01*
X3251586Y-16690571D01*
X3265871Y-16719143D01*
X3265871Y-16790572D01*
X3251586Y-16819143D01*
X3237300Y-16833429D01*
X3208728Y-16847714D01*
X3123014Y-16847714D01*
X3094443Y-16833429D01*
X3080157Y-16819143D01*
X3394443Y-16819143D02*
X3408728Y-16833429D01*
X3394443Y-16847714D01*
X3380157Y-16833429D01*
X3394443Y-16819143D01*
X3394443Y-16847714D01*
X3594443Y-16547714D02*
X3623014Y-16547714D01*
X3651586Y-16562000D01*
X3665871Y-16576286D01*
X3680157Y-16604857D01*
X3694443Y-16662000D01*
X3694443Y-16733429D01*
X3680157Y-16790572D01*
X3665871Y-16819143D01*
X3651586Y-16833429D01*
X3623014Y-16847714D01*
X3594443Y-16847714D01*
X3565871Y-16833429D01*
X3551586Y-16819143D01*
X3537300Y-16790572D01*
X3523014Y-16733429D01*
X3523014Y-16662000D01*
X3537300Y-16604857D01*
X3551586Y-16576286D01*
X3565871Y-16562000D01*
X3594443Y-16547714D01*
X3965871Y-16547714D02*
X3823014Y-16547714D01*
X3808728Y-16690571D01*
X3823014Y-16676286D01*
X3851586Y-16662000D01*
X3923014Y-16662000D01*
X3951586Y-16676286D01*
X3965871Y-16690571D01*
X3980157Y-16719143D01*
X3980157Y-16790572D01*
X3965871Y-16819143D01*
X3951586Y-16833429D01*
X3923014Y-16847714D01*
X3851586Y-16847714D01*
X3823014Y-16833429D01*
X3808728Y-16819143D01*
X4108728Y-16847714D02*
X4108728Y-16647714D01*
X4108728Y-16676286D02*
X4123014Y-16662000D01*
X4151586Y-16647714D01*
X4194443Y-16647714D01*
X4223014Y-16662000D01*
X4237300Y-16690571D01*
X4237300Y-16847714D01*
X4237300Y-16690571D02*
X4251586Y-16662000D01*
X4280157Y-16647714D01*
X4323014Y-16647714D01*
X4351586Y-16662000D01*
X4365871Y-16690571D01*
X4365871Y-16847714D01*
X4508729Y-16847714D02*
X4508729Y-16647714D01*
X4508729Y-16676286D02*
X4523014Y-16662000D01*
X4551586Y-16647714D01*
X4594443Y-16647714D01*
X4623014Y-16662000D01*
X4637300Y-16690571D01*
X4637300Y-16847714D01*
X4637300Y-16690571D02*
X4651586Y-16662000D01*
X4680157Y-16647714D01*
X4723014Y-16647714D01*
X4751586Y-16662000D01*
X4765871Y-16690571D01*
X4765871Y-16847714D01*
X5351586Y-16533429D02*
X5094443Y-16919143D01*
X5737300Y-16547714D02*
X5765871Y-16547714D01*
X5794443Y-16562000D01*
X5808728Y-16576286D01*
X5823014Y-16604857D01*
X5837300Y-16662000D01*
X5837300Y-16733429D01*
X5823014Y-16790572D01*
X5808728Y-16819143D01*
X5794443Y-16833429D01*
X5765871Y-16847714D01*
X5737300Y-16847714D01*
X5708728Y-16833429D01*
X5694443Y-16819143D01*
X5680157Y-16790572D01*
X5665871Y-16733429D01*
X5665871Y-16662000D01*
X5680157Y-16604857D01*
X5694443Y-16576286D01*
X5708728Y-16562000D01*
X5737300Y-16547714D01*
X5965871Y-16819143D02*
X5980157Y-16833429D01*
X5965871Y-16847714D01*
X5951586Y-16833429D01*
X5965871Y-16819143D01*
X5965871Y-16847714D01*
X6265871Y-16847714D02*
X6094443Y-16847714D01*
X6180157Y-16847714D02*
X6180157Y-16547714D01*
X6151585Y-16590571D01*
X6123014Y-16619143D01*
X6094443Y-16633429D01*
X6380157Y-16576286D02*
X6394443Y-16562000D01*
X6423014Y-16547714D01*
X6494443Y-16547714D01*
X6523014Y-16562000D01*
X6537300Y-16576286D01*
X6551585Y-16604857D01*
X6551585Y-16633429D01*
X6537300Y-16676286D01*
X6365871Y-16847714D01*
X6551585Y-16847714D01*
X6737300Y-16547714D02*
X6765871Y-16547714D01*
X6794443Y-16562000D01*
X6808728Y-16576286D01*
X6823014Y-16604857D01*
X6837300Y-16662000D01*
X6837300Y-16733429D01*
X6823014Y-16790572D01*
X6808728Y-16819143D01*
X6794443Y-16833429D01*
X6765871Y-16847714D01*
X6737300Y-16847714D01*
X6708728Y-16833429D01*
X6694443Y-16819143D01*
X6680157Y-16790572D01*
X6665871Y-16733429D01*
X6665871Y-16662000D01*
X6680157Y-16604857D01*
X6694443Y-16576286D01*
X6708728Y-16562000D01*
X6737300Y-16547714D01*
X6951586Y-16547714D02*
X6951586Y-16604857D01*
X7065871Y-16547714D02*
X7065871Y-16604857D01*
X7508728Y-16962000D02*
X7494443Y-16947714D01*
X7465871Y-16904857D01*
X7451585Y-16876286D01*
X7437300Y-16833429D01*
X7423014Y-16762000D01*
X7423014Y-16704857D01*
X7437300Y-16633429D01*
X7451585Y-16590571D01*
X7465871Y-16562000D01*
X7494443Y-16519143D01*
X7508728Y-16504857D01*
X7751585Y-16647714D02*
X7751585Y-16847714D01*
X7680157Y-16533429D02*
X7608728Y-16747714D01*
X7794443Y-16747714D01*
X8137300Y-16847714D02*
X8137300Y-16547714D01*
X8265871Y-16847714D02*
X8265871Y-16690571D01*
X8251585Y-16662000D01*
X8223014Y-16647714D01*
X8180157Y-16647714D01*
X8151585Y-16662000D01*
X8137300Y-16676286D01*
X8451586Y-16847714D02*
X8423014Y-16833429D01*
X8408728Y-16819143D01*
X8394443Y-16790572D01*
X8394443Y-16704857D01*
X8408728Y-16676286D01*
X8423014Y-16662000D01*
X8451586Y-16647714D01*
X8494443Y-16647714D01*
X8523014Y-16662000D01*
X8537300Y-16676286D01*
X8551586Y-16704857D01*
X8551586Y-16790572D01*
X8537300Y-16819143D01*
X8523014Y-16833429D01*
X8494443Y-16847714D01*
X8451586Y-16847714D01*
X8723014Y-16847714D02*
X8694443Y-16833429D01*
X8680157Y-16804857D01*
X8680157Y-16547714D01*
X8951586Y-16833429D02*
X8923014Y-16847714D01*
X8865871Y-16847714D01*
X8837300Y-16833429D01*
X8823014Y-16804857D01*
X8823014Y-16690571D01*
X8837300Y-16662000D01*
X8865871Y-16647714D01*
X8923014Y-16647714D01*
X8951586Y-16662000D01*
X8965871Y-16690571D01*
X8965871Y-16719143D01*
X8823014Y-16747714D01*
X9080157Y-16833429D02*
X9108729Y-16847714D01*
X9165871Y-16847714D01*
X9194443Y-16833429D01*
X9208729Y-16804857D01*
X9208729Y-16790572D01*
X9194443Y-16762000D01*
X9165871Y-16747714D01*
X9123014Y-16747714D01*
X9094443Y-16733429D01*
X9080157Y-16704857D01*
X9080157Y-16690571D01*
X9094443Y-16662000D01*
X9123014Y-16647714D01*
X9165871Y-16647714D01*
X9194443Y-16662000D01*
X9308728Y-16962000D02*
X9323014Y-16947714D01*
X9351586Y-16904857D01*
X9365871Y-16876286D01*
X9380157Y-16833429D01*
X9394443Y-16762000D01*
X9394443Y-16704857D01*
X9380157Y-16633429D01*
X9365871Y-16590571D01*
X9351586Y-16562000D01*
X9323014Y-16519143D01*
X9308728Y-16504857D01*
M02*
