G04 #@! TF.FileFunction,Copper,L1,Top,Signal*
%FSLAX46Y46*%
G04 Gerber Fmt 4.6, Leading zero omitted, Abs format (unit mm)*
G04 Created by KiCad (PCBNEW 4.0.1-stable) date 2016-05-03 14:33:49*
%MOMM*%
G01*
G04 APERTURE LIST*
%ADD10C,0.100000*%
%ADD11O,1.727200X2.032000*%
%ADD12C,4.064000*%
%ADD13R,1.727200X1.727200*%
%ADD14O,1.727200X1.727200*%
%ADD15R,1.550000X0.600000*%
%ADD16R,0.600000X2.000000*%
%ADD17R,2.000000X0.600000*%
%ADD18R,0.797560X0.797560*%
%ADD19R,0.800100X1.800860*%
%ADD20R,1.200000X0.900000*%
%ADD21R,1.000000X2.750000*%
%ADD22R,0.750000X1.200000*%
%ADD23R,1.600000X1.000000*%
%ADD24R,1.350000X0.400000*%
%ADD25O,0.950000X1.250000*%
%ADD26O,1.550000X1.000000*%
%ADD27R,0.900000X1.200000*%
%ADD28R,1.500000X0.550000*%
%ADD29R,0.550000X1.500000*%
%ADD30R,2.032000X3.657600*%
%ADD31R,2.032000X1.016000*%
%ADD32R,1.400000X1.200000*%
%ADD33C,0.600000*%
%ADD34C,0.254000*%
G04 APERTURE END LIST*
D10*
D11*
X56388000Y-117475000D03*
X58928000Y-117475000D03*
X61468000Y-117475000D03*
X64008000Y-117475000D03*
X66548000Y-117475000D03*
X69088000Y-117475000D03*
X71628000Y-117475000D03*
X74168000Y-117475000D03*
X79248000Y-117475000D03*
X81788000Y-117475000D03*
X84328000Y-117475000D03*
X86868000Y-117475000D03*
X89408000Y-117475000D03*
X91948000Y-117475000D03*
X47244000Y-69215000D03*
X49784000Y-69215000D03*
X52324000Y-69215000D03*
X54864000Y-69215000D03*
X57404000Y-69215000D03*
X59944000Y-69215000D03*
X62484000Y-69215000D03*
X65024000Y-69215000D03*
X67564000Y-69215000D03*
X70104000Y-69215000D03*
X74168000Y-69215000D03*
X76708000Y-69215000D03*
X79248000Y-69215000D03*
X81788000Y-69215000D03*
X84328000Y-69215000D03*
X86868000Y-69215000D03*
X89408000Y-69215000D03*
X91948000Y-69215000D03*
D12*
X42418000Y-117475000D03*
X94488000Y-112395000D03*
X43688000Y-69215000D03*
X94488000Y-84455000D03*
D13*
X32258000Y-47625000D03*
D14*
X32258000Y-50165000D03*
X34798000Y-47625000D03*
X34798000Y-50165000D03*
X37338000Y-47625000D03*
X37338000Y-50165000D03*
X39878000Y-47625000D03*
X39878000Y-50165000D03*
X42418000Y-47625000D03*
X42418000Y-50165000D03*
X44958000Y-47625000D03*
X44958000Y-50165000D03*
X47498000Y-47625000D03*
X47498000Y-50165000D03*
X50038000Y-47625000D03*
X50038000Y-50165000D03*
D13*
X60198000Y-47625000D03*
D14*
X60198000Y-50165000D03*
X62738000Y-47625000D03*
X62738000Y-50165000D03*
X65278000Y-47625000D03*
X65278000Y-50165000D03*
X67818000Y-47625000D03*
X67818000Y-50165000D03*
X70358000Y-47625000D03*
X70358000Y-50165000D03*
X72898000Y-47625000D03*
X72898000Y-50165000D03*
X75438000Y-47625000D03*
X75438000Y-50165000D03*
X77978000Y-47625000D03*
X77978000Y-50165000D03*
D13*
X50038000Y-139065000D03*
D14*
X50038000Y-136525000D03*
X47498000Y-139065000D03*
X47498000Y-136525000D03*
X44958000Y-139065000D03*
X44958000Y-136525000D03*
X42418000Y-139065000D03*
X42418000Y-136525000D03*
X39878000Y-139065000D03*
X39878000Y-136525000D03*
X37338000Y-139065000D03*
X37338000Y-136525000D03*
X34798000Y-139065000D03*
X34798000Y-136525000D03*
X32258000Y-139065000D03*
X32258000Y-136525000D03*
D15*
X53688000Y-77470000D03*
X53688000Y-78740000D03*
X53688000Y-80010000D03*
X53688000Y-81280000D03*
X59088000Y-81280000D03*
X59088000Y-80010000D03*
X59088000Y-78740000D03*
X59088000Y-77470000D03*
D13*
X77978000Y-139065000D03*
D14*
X77978000Y-136525000D03*
X75438000Y-139065000D03*
X75438000Y-136525000D03*
X72898000Y-139065000D03*
X72898000Y-136525000D03*
X70358000Y-139065000D03*
X70358000Y-136525000D03*
X67818000Y-139065000D03*
X67818000Y-136525000D03*
X65278000Y-139065000D03*
X65278000Y-136525000D03*
X62738000Y-139065000D03*
X62738000Y-136525000D03*
X60198000Y-139065000D03*
X60198000Y-136525000D03*
D16*
X77343000Y-121665000D03*
X76073000Y-121665000D03*
X74803000Y-121665000D03*
X73533000Y-121665000D03*
X72263000Y-121665000D03*
X70993000Y-121665000D03*
X69723000Y-121665000D03*
X68453000Y-121665000D03*
X67183000Y-121665000D03*
X65913000Y-121665000D03*
X64643000Y-121665000D03*
X63373000Y-121665000D03*
X63373000Y-131065000D03*
X64643000Y-131065000D03*
X65913000Y-131065000D03*
X67183000Y-131065000D03*
X68453000Y-131065000D03*
X69723000Y-131065000D03*
X70993000Y-131065000D03*
X72263000Y-131065000D03*
X73533000Y-131065000D03*
X74803000Y-131065000D03*
X76073000Y-131065000D03*
X77343000Y-131065000D03*
D15*
X42258000Y-77470000D03*
X42258000Y-78740000D03*
X42258000Y-80010000D03*
X42258000Y-81280000D03*
X47658000Y-81280000D03*
X47658000Y-80010000D03*
X47658000Y-78740000D03*
X47658000Y-77470000D03*
D17*
X65658000Y-96520000D03*
X65658000Y-97790000D03*
X65658000Y-99060000D03*
X65658000Y-100330000D03*
X65658000Y-101600000D03*
X65658000Y-102870000D03*
X65658000Y-104140000D03*
X65658000Y-105410000D03*
X65658000Y-106680000D03*
X65658000Y-107950000D03*
X65658000Y-109220000D03*
X65658000Y-110490000D03*
X75058000Y-110490000D03*
X75058000Y-109220000D03*
X75058000Y-107950000D03*
X75058000Y-106680000D03*
X75058000Y-105410000D03*
X75058000Y-104140000D03*
X75058000Y-102870000D03*
X75058000Y-101600000D03*
X75058000Y-100330000D03*
X75058000Y-99060000D03*
X75058000Y-97790000D03*
X75058000Y-96520000D03*
D16*
X54483000Y-55625000D03*
X53213000Y-55625000D03*
X51943000Y-55625000D03*
X50673000Y-55625000D03*
X49403000Y-55625000D03*
X48133000Y-55625000D03*
X46863000Y-55625000D03*
X45593000Y-55625000D03*
X44323000Y-55625000D03*
X43053000Y-55625000D03*
X41783000Y-55625000D03*
X40513000Y-55625000D03*
X40513000Y-65025000D03*
X41783000Y-65025000D03*
X43053000Y-65025000D03*
X44323000Y-65025000D03*
X45593000Y-65025000D03*
X46863000Y-65025000D03*
X48133000Y-65025000D03*
X49403000Y-65025000D03*
X50673000Y-65025000D03*
X51943000Y-65025000D03*
X53213000Y-65025000D03*
X54483000Y-65025000D03*
X77343000Y-55625000D03*
X76073000Y-55625000D03*
X74803000Y-55625000D03*
X73533000Y-55625000D03*
X72263000Y-55625000D03*
X70993000Y-55625000D03*
X69723000Y-55625000D03*
X68453000Y-55625000D03*
X67183000Y-55625000D03*
X65913000Y-55625000D03*
X64643000Y-55625000D03*
X63373000Y-55625000D03*
X63373000Y-65025000D03*
X64643000Y-65025000D03*
X65913000Y-65025000D03*
X67183000Y-65025000D03*
X68453000Y-65025000D03*
X69723000Y-65025000D03*
X70993000Y-65025000D03*
X72263000Y-65025000D03*
X73533000Y-65025000D03*
X74803000Y-65025000D03*
X76073000Y-65025000D03*
X77343000Y-65025000D03*
X54483000Y-121665000D03*
X53213000Y-121665000D03*
X51943000Y-121665000D03*
X50673000Y-121665000D03*
X49403000Y-121665000D03*
X48133000Y-121665000D03*
X46863000Y-121665000D03*
X45593000Y-121665000D03*
X44323000Y-121665000D03*
X43053000Y-121665000D03*
X41783000Y-121665000D03*
X40513000Y-121665000D03*
X40513000Y-131065000D03*
X41783000Y-131065000D03*
X43053000Y-131065000D03*
X44323000Y-131065000D03*
X45593000Y-131065000D03*
X46863000Y-131065000D03*
X48133000Y-131065000D03*
X49403000Y-131065000D03*
X50673000Y-131065000D03*
X51943000Y-131065000D03*
X53213000Y-131065000D03*
X54483000Y-131065000D03*
D13*
X30988000Y-104775000D03*
D14*
X33528000Y-104775000D03*
X30988000Y-102235000D03*
X33528000Y-102235000D03*
X30988000Y-99695000D03*
X33528000Y-99695000D03*
X30988000Y-97155000D03*
X33528000Y-97155000D03*
X30988000Y-94615000D03*
X33528000Y-94615000D03*
D13*
X105918000Y-47625000D03*
D14*
X103378000Y-47625000D03*
X105918000Y-50165000D03*
X103378000Y-50165000D03*
X105918000Y-52705000D03*
X103378000Y-52705000D03*
X105918000Y-55245000D03*
X103378000Y-55245000D03*
X105918000Y-57785000D03*
X103378000Y-57785000D03*
X105918000Y-60325000D03*
X103378000Y-60325000D03*
X105918000Y-62865000D03*
X103378000Y-62865000D03*
X105918000Y-65405000D03*
X103378000Y-65405000D03*
D13*
X105918000Y-70485000D03*
D14*
X103378000Y-70485000D03*
X105918000Y-73025000D03*
X103378000Y-73025000D03*
X105918000Y-75565000D03*
X103378000Y-75565000D03*
X105918000Y-78105000D03*
X103378000Y-78105000D03*
X105918000Y-80645000D03*
X103378000Y-80645000D03*
X105918000Y-83185000D03*
X103378000Y-83185000D03*
X105918000Y-85725000D03*
X103378000Y-85725000D03*
X105918000Y-88265000D03*
X103378000Y-88265000D03*
D13*
X105918000Y-95885000D03*
D14*
X103378000Y-95885000D03*
X105918000Y-98425000D03*
X103378000Y-98425000D03*
X105918000Y-100965000D03*
X103378000Y-100965000D03*
X105918000Y-103505000D03*
X103378000Y-103505000D03*
X105918000Y-106045000D03*
X103378000Y-106045000D03*
X105918000Y-108585000D03*
X103378000Y-108585000D03*
X105918000Y-111125000D03*
X103378000Y-111125000D03*
X105918000Y-113665000D03*
X103378000Y-113665000D03*
D13*
X105918000Y-121285000D03*
D14*
X103378000Y-121285000D03*
X105918000Y-123825000D03*
X103378000Y-123825000D03*
X105918000Y-126365000D03*
X103378000Y-126365000D03*
X105918000Y-128905000D03*
X103378000Y-128905000D03*
X105918000Y-131445000D03*
X103378000Y-131445000D03*
X105918000Y-133985000D03*
X103378000Y-133985000D03*
X105918000Y-136525000D03*
X103378000Y-136525000D03*
X105918000Y-139065000D03*
X103378000Y-139065000D03*
D16*
X97663000Y-55625000D03*
X96393000Y-55625000D03*
X95123000Y-55625000D03*
X93853000Y-55625000D03*
X92583000Y-55625000D03*
X91313000Y-55625000D03*
X90043000Y-55625000D03*
X88773000Y-55625000D03*
X87503000Y-55625000D03*
X86233000Y-55625000D03*
X84963000Y-55625000D03*
X83693000Y-55625000D03*
X83693000Y-65025000D03*
X84963000Y-65025000D03*
X86233000Y-65025000D03*
X87503000Y-65025000D03*
X88773000Y-65025000D03*
X90043000Y-65025000D03*
X91313000Y-65025000D03*
X92583000Y-65025000D03*
X93853000Y-65025000D03*
X95123000Y-65025000D03*
X96393000Y-65025000D03*
X97663000Y-65025000D03*
X88773000Y-77215000D03*
X87503000Y-77215000D03*
X86233000Y-77215000D03*
X84963000Y-77215000D03*
X83693000Y-77215000D03*
X82423000Y-77215000D03*
X81153000Y-77215000D03*
X79883000Y-77215000D03*
X78613000Y-77215000D03*
X77343000Y-77215000D03*
X76073000Y-77215000D03*
X74803000Y-77215000D03*
X74803000Y-86615000D03*
X76073000Y-86615000D03*
X77343000Y-86615000D03*
X78613000Y-86615000D03*
X79883000Y-86615000D03*
X81153000Y-86615000D03*
X82423000Y-86615000D03*
X83693000Y-86615000D03*
X84963000Y-86615000D03*
X86233000Y-86615000D03*
X87503000Y-86615000D03*
X88773000Y-86615000D03*
X95123000Y-97535000D03*
X93853000Y-97535000D03*
X92583000Y-97535000D03*
X91313000Y-97535000D03*
X90043000Y-97535000D03*
X88773000Y-97535000D03*
X87503000Y-97535000D03*
X86233000Y-97535000D03*
X84963000Y-97535000D03*
X83693000Y-97535000D03*
X82423000Y-97535000D03*
X81153000Y-97535000D03*
X81153000Y-106935000D03*
X82423000Y-106935000D03*
X83693000Y-106935000D03*
X84963000Y-106935000D03*
X86233000Y-106935000D03*
X87503000Y-106935000D03*
X88773000Y-106935000D03*
X90043000Y-106935000D03*
X91313000Y-106935000D03*
X92583000Y-106935000D03*
X93853000Y-106935000D03*
X95123000Y-106935000D03*
X97663000Y-121665000D03*
X96393000Y-121665000D03*
X95123000Y-121665000D03*
X93853000Y-121665000D03*
X92583000Y-121665000D03*
X91313000Y-121665000D03*
X90043000Y-121665000D03*
X88773000Y-121665000D03*
X87503000Y-121665000D03*
X86233000Y-121665000D03*
X84963000Y-121665000D03*
X83693000Y-121665000D03*
X83693000Y-131065000D03*
X84963000Y-131065000D03*
X86233000Y-131065000D03*
X87503000Y-131065000D03*
X88773000Y-131065000D03*
X90043000Y-131065000D03*
X91313000Y-131065000D03*
X92583000Y-131065000D03*
X93853000Y-131065000D03*
X95123000Y-131065000D03*
X96393000Y-131065000D03*
X97663000Y-131065000D03*
D18*
X33007300Y-78105000D03*
X31508700Y-78105000D03*
D19*
X66228000Y-77873860D03*
X64328000Y-77873860D03*
X65278000Y-80876140D03*
D20*
X36238000Y-78105000D03*
X38438000Y-78105000D03*
X36238000Y-81915000D03*
X38438000Y-81915000D03*
D21*
X31528000Y-68880000D03*
X31528000Y-74630000D03*
X35528000Y-74630000D03*
X35528000Y-68880000D03*
D22*
X56388000Y-91755000D03*
X56388000Y-89855000D03*
X46228000Y-91755000D03*
X46228000Y-89855000D03*
D18*
X33007300Y-81915000D03*
X31508700Y-81915000D03*
X33007300Y-85725000D03*
X31508700Y-85725000D03*
X33007300Y-89535000D03*
X31508700Y-89535000D03*
D23*
X36028000Y-63195000D03*
X36028000Y-59995000D03*
X31028000Y-63195000D03*
X31028000Y-59995000D03*
X36028000Y-126695000D03*
X36028000Y-123495000D03*
X31028000Y-126695000D03*
X31028000Y-123495000D03*
D24*
X33820540Y-112364100D03*
X33820540Y-113014100D03*
X33820540Y-113664100D03*
X33820540Y-114314100D03*
X33820540Y-114964100D03*
D25*
X33820540Y-111164100D03*
X33820540Y-116164100D03*
D26*
X31120540Y-110164100D03*
X31120540Y-117164100D03*
D13*
X128778000Y-47625000D03*
D14*
X126238000Y-47625000D03*
X128778000Y-50165000D03*
X126238000Y-50165000D03*
X128778000Y-52705000D03*
X126238000Y-52705000D03*
X128778000Y-55245000D03*
X126238000Y-55245000D03*
X128778000Y-57785000D03*
X126238000Y-57785000D03*
X128778000Y-60325000D03*
X126238000Y-60325000D03*
X128778000Y-62865000D03*
X126238000Y-62865000D03*
X128778000Y-65405000D03*
X126238000Y-65405000D03*
D13*
X128778000Y-70485000D03*
D14*
X126238000Y-70485000D03*
X128778000Y-73025000D03*
X126238000Y-73025000D03*
X128778000Y-75565000D03*
X126238000Y-75565000D03*
X128778000Y-78105000D03*
X126238000Y-78105000D03*
X128778000Y-80645000D03*
X126238000Y-80645000D03*
X128778000Y-83185000D03*
X126238000Y-83185000D03*
X128778000Y-85725000D03*
X126238000Y-85725000D03*
X128778000Y-88265000D03*
X126238000Y-88265000D03*
D13*
X128778000Y-95885000D03*
D14*
X126238000Y-95885000D03*
X128778000Y-98425000D03*
X126238000Y-98425000D03*
X128778000Y-100965000D03*
X126238000Y-100965000D03*
X128778000Y-103505000D03*
X126238000Y-103505000D03*
X128778000Y-106045000D03*
X126238000Y-106045000D03*
X128778000Y-108585000D03*
X126238000Y-108585000D03*
X128778000Y-111125000D03*
X126238000Y-111125000D03*
X128778000Y-113665000D03*
X126238000Y-113665000D03*
D13*
X128778000Y-121285000D03*
D14*
X126238000Y-121285000D03*
X128778000Y-123825000D03*
X126238000Y-123825000D03*
X128778000Y-126365000D03*
X126238000Y-126365000D03*
X128778000Y-128905000D03*
X126238000Y-128905000D03*
X128778000Y-131445000D03*
X126238000Y-131445000D03*
X128778000Y-133985000D03*
X126238000Y-133985000D03*
X128778000Y-136525000D03*
X126238000Y-136525000D03*
X128778000Y-139065000D03*
X126238000Y-139065000D03*
D13*
X151638000Y-47625000D03*
D14*
X149098000Y-47625000D03*
X151638000Y-50165000D03*
X149098000Y-50165000D03*
X151638000Y-52705000D03*
X149098000Y-52705000D03*
X151638000Y-55245000D03*
X149098000Y-55245000D03*
X151638000Y-57785000D03*
X149098000Y-57785000D03*
X151638000Y-60325000D03*
X149098000Y-60325000D03*
X151638000Y-62865000D03*
X149098000Y-62865000D03*
X151638000Y-65405000D03*
X149098000Y-65405000D03*
D13*
X151638000Y-70485000D03*
D14*
X149098000Y-70485000D03*
X151638000Y-73025000D03*
X149098000Y-73025000D03*
X151638000Y-75565000D03*
X149098000Y-75565000D03*
X151638000Y-78105000D03*
X149098000Y-78105000D03*
X151638000Y-80645000D03*
X149098000Y-80645000D03*
X151638000Y-83185000D03*
X149098000Y-83185000D03*
X151638000Y-85725000D03*
X149098000Y-85725000D03*
X151638000Y-88265000D03*
X149098000Y-88265000D03*
D13*
X151638000Y-95885000D03*
D14*
X149098000Y-95885000D03*
X151638000Y-98425000D03*
X149098000Y-98425000D03*
X151638000Y-100965000D03*
X149098000Y-100965000D03*
X151638000Y-103505000D03*
X149098000Y-103505000D03*
X151638000Y-106045000D03*
X149098000Y-106045000D03*
X151638000Y-108585000D03*
X149098000Y-108585000D03*
X151638000Y-111125000D03*
X149098000Y-111125000D03*
X151638000Y-113665000D03*
X149098000Y-113665000D03*
D13*
X151638000Y-121285000D03*
D14*
X149098000Y-121285000D03*
X151638000Y-123825000D03*
X149098000Y-123825000D03*
X151638000Y-126365000D03*
X149098000Y-126365000D03*
X151638000Y-128905000D03*
X149098000Y-128905000D03*
X151638000Y-131445000D03*
X149098000Y-131445000D03*
X151638000Y-133985000D03*
X149098000Y-133985000D03*
X151638000Y-136525000D03*
X149098000Y-136525000D03*
X151638000Y-139065000D03*
X149098000Y-139065000D03*
D19*
X68138000Y-89766140D03*
X70038000Y-89766140D03*
X69088000Y-86763860D03*
D20*
X36238000Y-85725000D03*
X38438000Y-85725000D03*
X36238000Y-89535000D03*
X38438000Y-89535000D03*
D27*
X69088000Y-78275000D03*
X69088000Y-80475000D03*
X65278000Y-89365000D03*
X65278000Y-87165000D03*
D28*
X45608000Y-99505000D03*
X45608000Y-100305000D03*
X45608000Y-101105000D03*
X45608000Y-101905000D03*
X45608000Y-102705000D03*
X45608000Y-103505000D03*
X45608000Y-104305000D03*
X45608000Y-105105000D03*
X45608000Y-105905000D03*
X45608000Y-106705000D03*
X45608000Y-107505000D03*
D29*
X47308000Y-109205000D03*
X48108000Y-109205000D03*
X48908000Y-109205000D03*
X49708000Y-109205000D03*
X50508000Y-109205000D03*
X51308000Y-109205000D03*
X52108000Y-109205000D03*
X52908000Y-109205000D03*
X53708000Y-109205000D03*
X54508000Y-109205000D03*
X55308000Y-109205000D03*
D28*
X57008000Y-107505000D03*
X57008000Y-106705000D03*
X57008000Y-105905000D03*
X57008000Y-105105000D03*
X57008000Y-104305000D03*
X57008000Y-103505000D03*
X57008000Y-102705000D03*
X57008000Y-101905000D03*
X57008000Y-101105000D03*
X57008000Y-100305000D03*
X57008000Y-99505000D03*
D29*
X55308000Y-97805000D03*
X54508000Y-97805000D03*
X53708000Y-97805000D03*
X52908000Y-97805000D03*
X52108000Y-97805000D03*
X51308000Y-97805000D03*
X50508000Y-97805000D03*
X49708000Y-97805000D03*
X48908000Y-97805000D03*
X48108000Y-97805000D03*
X47308000Y-97805000D03*
D30*
X92456000Y-75565000D03*
D31*
X99060000Y-75565000D03*
X99060000Y-73279000D03*
X99060000Y-77851000D03*
D17*
X120778000Y-62230000D03*
X120778000Y-60960000D03*
X120778000Y-59690000D03*
X120778000Y-58420000D03*
X120778000Y-57150000D03*
X120778000Y-55880000D03*
X120778000Y-54610000D03*
X120778000Y-53340000D03*
X120778000Y-52070000D03*
X120778000Y-50800000D03*
X120778000Y-49530000D03*
X120778000Y-48260000D03*
X111378000Y-48260000D03*
X111378000Y-49530000D03*
X111378000Y-50800000D03*
X111378000Y-52070000D03*
X111378000Y-53340000D03*
X111378000Y-54610000D03*
X111378000Y-55880000D03*
X111378000Y-57150000D03*
X111378000Y-58420000D03*
X111378000Y-59690000D03*
X111378000Y-60960000D03*
X111378000Y-62230000D03*
X120778000Y-85090000D03*
X120778000Y-83820000D03*
X120778000Y-82550000D03*
X120778000Y-81280000D03*
X120778000Y-80010000D03*
X120778000Y-78740000D03*
X120778000Y-77470000D03*
X120778000Y-76200000D03*
X120778000Y-74930000D03*
X120778000Y-73660000D03*
X120778000Y-72390000D03*
X120778000Y-71120000D03*
X111378000Y-71120000D03*
X111378000Y-72390000D03*
X111378000Y-73660000D03*
X111378000Y-74930000D03*
X111378000Y-76200000D03*
X111378000Y-77470000D03*
X111378000Y-78740000D03*
X111378000Y-80010000D03*
X111378000Y-81280000D03*
X111378000Y-82550000D03*
X111378000Y-83820000D03*
X111378000Y-85090000D03*
X120778000Y-110490000D03*
X120778000Y-109220000D03*
X120778000Y-107950000D03*
X120778000Y-106680000D03*
X120778000Y-105410000D03*
X120778000Y-104140000D03*
X120778000Y-102870000D03*
X120778000Y-101600000D03*
X120778000Y-100330000D03*
X120778000Y-99060000D03*
X120778000Y-97790000D03*
X120778000Y-96520000D03*
X111378000Y-96520000D03*
X111378000Y-97790000D03*
X111378000Y-99060000D03*
X111378000Y-100330000D03*
X111378000Y-101600000D03*
X111378000Y-102870000D03*
X111378000Y-104140000D03*
X111378000Y-105410000D03*
X111378000Y-106680000D03*
X111378000Y-107950000D03*
X111378000Y-109220000D03*
X111378000Y-110490000D03*
X120778000Y-135890000D03*
X120778000Y-134620000D03*
X120778000Y-133350000D03*
X120778000Y-132080000D03*
X120778000Y-130810000D03*
X120778000Y-129540000D03*
X120778000Y-128270000D03*
X120778000Y-127000000D03*
X120778000Y-125730000D03*
X120778000Y-124460000D03*
X120778000Y-123190000D03*
X120778000Y-121920000D03*
X111378000Y-121920000D03*
X111378000Y-123190000D03*
X111378000Y-124460000D03*
X111378000Y-125730000D03*
X111378000Y-127000000D03*
X111378000Y-128270000D03*
X111378000Y-129540000D03*
X111378000Y-130810000D03*
X111378000Y-132080000D03*
X111378000Y-133350000D03*
X111378000Y-134620000D03*
X111378000Y-135890000D03*
X143638000Y-62230000D03*
X143638000Y-60960000D03*
X143638000Y-59690000D03*
X143638000Y-58420000D03*
X143638000Y-57150000D03*
X143638000Y-55880000D03*
X143638000Y-54610000D03*
X143638000Y-53340000D03*
X143638000Y-52070000D03*
X143638000Y-50800000D03*
X143638000Y-49530000D03*
X143638000Y-48260000D03*
X134238000Y-48260000D03*
X134238000Y-49530000D03*
X134238000Y-50800000D03*
X134238000Y-52070000D03*
X134238000Y-53340000D03*
X134238000Y-54610000D03*
X134238000Y-55880000D03*
X134238000Y-57150000D03*
X134238000Y-58420000D03*
X134238000Y-59690000D03*
X134238000Y-60960000D03*
X134238000Y-62230000D03*
X143638000Y-85090000D03*
X143638000Y-83820000D03*
X143638000Y-82550000D03*
X143638000Y-81280000D03*
X143638000Y-80010000D03*
X143638000Y-78740000D03*
X143638000Y-77470000D03*
X143638000Y-76200000D03*
X143638000Y-74930000D03*
X143638000Y-73660000D03*
X143638000Y-72390000D03*
X143638000Y-71120000D03*
X134238000Y-71120000D03*
X134238000Y-72390000D03*
X134238000Y-73660000D03*
X134238000Y-74930000D03*
X134238000Y-76200000D03*
X134238000Y-77470000D03*
X134238000Y-78740000D03*
X134238000Y-80010000D03*
X134238000Y-81280000D03*
X134238000Y-82550000D03*
X134238000Y-83820000D03*
X134238000Y-85090000D03*
X143638000Y-110490000D03*
X143638000Y-109220000D03*
X143638000Y-107950000D03*
X143638000Y-106680000D03*
X143638000Y-105410000D03*
X143638000Y-104140000D03*
X143638000Y-102870000D03*
X143638000Y-101600000D03*
X143638000Y-100330000D03*
X143638000Y-99060000D03*
X143638000Y-97790000D03*
X143638000Y-96520000D03*
X134238000Y-96520000D03*
X134238000Y-97790000D03*
X134238000Y-99060000D03*
X134238000Y-100330000D03*
X134238000Y-101600000D03*
X134238000Y-102870000D03*
X134238000Y-104140000D03*
X134238000Y-105410000D03*
X134238000Y-106680000D03*
X134238000Y-107950000D03*
X134238000Y-109220000D03*
X134238000Y-110490000D03*
X143638000Y-135890000D03*
X143638000Y-134620000D03*
X143638000Y-133350000D03*
X143638000Y-132080000D03*
X143638000Y-130810000D03*
X143638000Y-129540000D03*
X143638000Y-128270000D03*
X143638000Y-127000000D03*
X143638000Y-125730000D03*
X143638000Y-124460000D03*
X143638000Y-123190000D03*
X143638000Y-121920000D03*
X134238000Y-121920000D03*
X134238000Y-123190000D03*
X134238000Y-124460000D03*
X134238000Y-125730000D03*
X134238000Y-127000000D03*
X134238000Y-128270000D03*
X134238000Y-129540000D03*
X134238000Y-130810000D03*
X134238000Y-132080000D03*
X134238000Y-133350000D03*
X134238000Y-134620000D03*
X134238000Y-135890000D03*
D32*
X50208000Y-91605000D03*
X52408000Y-91605000D03*
X50208000Y-90005000D03*
X52408000Y-90005000D03*
D33*
X74754400Y-94481400D03*
X118810000Y-66805100D03*
X118810000Y-71120000D03*
X84245200Y-108487900D03*
X81272900Y-111594900D03*
X63531000Y-123222000D03*
X107779200Y-95302100D03*
X62497900Y-130064600D03*
X115542100Y-99208900D03*
X116853500Y-122706200D03*
X54615400Y-99867100D03*
X54615400Y-101905000D03*
X62738000Y-118693100D03*
X47029300Y-107218100D03*
X38842400Y-96863400D03*
X51048100Y-76280400D03*
X43591200Y-80010000D03*
X31870800Y-87303600D03*
X51517100Y-110753700D03*
X51894400Y-86795300D03*
X60438200Y-80010000D03*
X44809900Y-108808400D03*
X54641500Y-82469600D03*
X46448100Y-108473400D03*
X45658200Y-81324900D03*
X85704500Y-73025100D03*
X46953600Y-115003300D03*
X43187000Y-106219900D03*
X43592300Y-77470000D03*
X98803500Y-63643700D03*
X135822700Y-135890000D03*
X132260900Y-110769500D03*
X122729000Y-112145200D03*
X135619300Y-62953100D03*
X135764200Y-84455000D03*
X124202400Y-137433300D03*
X95977900Y-106935000D03*
X97662700Y-84345700D03*
X95977900Y-98916400D03*
X55866700Y-132446300D03*
X111393400Y-111354800D03*
X52706700Y-107885500D03*
X101224600Y-84480000D03*
X98803500Y-68705200D03*
X111425100Y-136746000D03*
X101036300Y-131603700D03*
X82833000Y-130544100D03*
X62667000Y-66406300D03*
X69349100Y-67773300D03*
X100669200Y-75242800D03*
X110904400Y-63104800D03*
X56288000Y-98658800D03*
X41334000Y-46352200D03*
X38207300Y-53556100D03*
X40816800Y-52033900D03*
X51782400Y-66579300D03*
X53848000Y-63473800D03*
X51307900Y-63516600D03*
X50252100Y-66603700D03*
X48767900Y-66596700D03*
X47081500Y-66585800D03*
X53700800Y-67785100D03*
X50038000Y-63528900D03*
X68172400Y-57204000D03*
X68134400Y-52705100D03*
X76707700Y-63510000D03*
X71207800Y-63453300D03*
X75097700Y-67142700D03*
X73185800Y-67052700D03*
X74416400Y-62941900D03*
X73774600Y-51727700D03*
X76978600Y-67485700D03*
X69088000Y-63518400D03*
X77425400Y-62045100D03*
X54709400Y-123666900D03*
X50107400Y-118179800D03*
X46997400Y-120090000D03*
X48295600Y-120098900D03*
X53842500Y-123186500D03*
X53519700Y-135241900D03*
X50053500Y-120161200D03*
X51463500Y-120086800D03*
X46172200Y-118828700D03*
X55085000Y-128503100D03*
X44233800Y-128515500D03*
X37134700Y-132954600D03*
X98525400Y-122290800D03*
X73455400Y-100126600D03*
X78031400Y-99637500D03*
X72780000Y-100659500D03*
X89627300Y-77962200D03*
X70909000Y-100476100D03*
X98212200Y-57650200D03*
X72142800Y-101600000D03*
X71341500Y-102870000D03*
X77929500Y-120152700D03*
X64122100Y-104702400D03*
X57683000Y-120070500D03*
X71971500Y-57182100D03*
X68743100Y-105410000D03*
X56550200Y-54243700D03*
X67241600Y-106680000D03*
X142094400Y-135304900D03*
X132910800Y-116398000D03*
X140613400Y-110490000D03*
X133060500Y-115444200D03*
X140589300Y-85090000D03*
X140364900Y-90312900D03*
X85801600Y-90356600D03*
X85801600Y-104514300D03*
X101195000Y-102870000D03*
X135997000Y-59068800D03*
X119005900Y-135890000D03*
X88822000Y-101907300D03*
X113580400Y-105300500D03*
X99116400Y-101225900D03*
X118027100Y-85090000D03*
X97907900Y-100508000D03*
X113045400Y-58333500D03*
X77205500Y-97790000D03*
X77029300Y-124195200D03*
X68453100Y-123222800D03*
X71611900Y-120193800D03*
X70910200Y-123711400D03*
X71628300Y-123179400D03*
X72812700Y-124371600D03*
X73940000Y-123496900D03*
X70803300Y-125474300D03*
X73533000Y-132649000D03*
X68967900Y-133378100D03*
X63318300Y-135093000D03*
X98739300Y-58331500D03*
X104785200Y-61457800D03*
X90579500Y-63470100D03*
X95353800Y-57839000D03*
X88137900Y-75098300D03*
X101212600Y-80136600D03*
X85592600Y-83681300D03*
X81923300Y-89166900D03*
X103378000Y-90994200D03*
X94951600Y-124665300D03*
X92583000Y-123254200D03*
X101247700Y-125742500D03*
X101937800Y-133223300D03*
X62147000Y-95418800D03*
X55815900Y-86287000D03*
X45858300Y-85097400D03*
X38514400Y-64033500D03*
X39968900Y-59995000D03*
X45627400Y-80468200D03*
X51704500Y-81766200D03*
X51096500Y-105434500D03*
X47181700Y-104494000D03*
X45082500Y-95208300D03*
X37771100Y-95208300D03*
X33086400Y-64033500D03*
X47192300Y-105364300D03*
X35844000Y-61531500D03*
X53597200Y-99140200D03*
X33748000Y-92547400D03*
X33748000Y-71828200D03*
X52040000Y-60752900D03*
X84689400Y-63252800D03*
X79603700Y-89964100D03*
X82310800Y-93182200D03*
X83375500Y-125011600D03*
X58704500Y-126380000D03*
X50259800Y-93877500D03*
X47810200Y-93877500D03*
X40576800Y-108807200D03*
X48862500Y-102017700D03*
X53275100Y-102017700D03*
X54322500Y-105024900D03*
X58312900Y-104305000D03*
X55927800Y-114731800D03*
X49088800Y-114402400D03*
X40576400Y-111084300D03*
X122670000Y-52070000D03*
X123081300Y-51128300D03*
X122344900Y-54610000D03*
X122341500Y-56662700D03*
X122962400Y-58502200D03*
X119208600Y-57150000D03*
X119217900Y-55457800D03*
X122356100Y-77017300D03*
X123156000Y-78388200D03*
X124212000Y-79756500D03*
X118800100Y-82584900D03*
X121602200Y-89567200D03*
X117991000Y-80010000D03*
X116713700Y-78714600D03*
X119248000Y-80709600D03*
X113288500Y-76200000D03*
X113288500Y-86995000D03*
X114923800Y-75172400D03*
X123228300Y-101216700D03*
X123669700Y-103890500D03*
X122988400Y-106036600D03*
X119214600Y-104619200D03*
X117919300Y-102874800D03*
X117397200Y-102188600D03*
X116715800Y-101194600D03*
X122347900Y-128270000D03*
X122360100Y-130810000D03*
X122341900Y-133350000D03*
X123755900Y-134571000D03*
X118019800Y-130810000D03*
X116867200Y-128449100D03*
X112935800Y-127000000D03*
X112956300Y-125730000D03*
X145214700Y-54610000D03*
X145676800Y-56391300D03*
X146892600Y-57191700D03*
X138228500Y-58387500D03*
X140148600Y-55880000D03*
X145225500Y-77095000D03*
X146383300Y-78000200D03*
X147301700Y-79639900D03*
X142068600Y-80010000D03*
X142065600Y-78740000D03*
X139360900Y-77801000D03*
X140199600Y-76200000D03*
X136955100Y-74930000D03*
X145200700Y-102342900D03*
X145703900Y-104377600D03*
X147117500Y-105200700D03*
X142059400Y-105410000D03*
X142068000Y-104536600D03*
X141049500Y-102870000D03*
X135983100Y-100330000D03*
X146769400Y-125914400D03*
X142048600Y-133690900D03*
X147491800Y-129443400D03*
X141845100Y-130423100D03*
X140151500Y-130810000D03*
X141163800Y-129540000D03*
X54752200Y-103251100D03*
X62711000Y-96069000D03*
X67206700Y-97226100D03*
X55475400Y-103937100D03*
X46959700Y-101905000D03*
X46324300Y-77536300D03*
X42843400Y-101254500D03*
X42843400Y-88674700D03*
X57324500Y-89554200D03*
X63424100Y-96750300D03*
X44298100Y-100690300D03*
X43762200Y-82771300D03*
X60443900Y-99382200D03*
X57547900Y-111174400D03*
X56737400Y-111883500D03*
X53783400Y-102899700D03*
X114290800Y-124460000D03*
X114154600Y-100513300D03*
X114290800Y-117587700D03*
X114290800Y-94584900D03*
X116311100Y-70403500D03*
X110226000Y-92778100D03*
X117823800Y-50800000D03*
X77846900Y-78772300D03*
X72532500Y-57829400D03*
X114037400Y-45825500D03*
X48125100Y-100736500D03*
X46491300Y-115777500D03*
X136581700Y-51218300D03*
X137773200Y-103833500D03*
X140788000Y-117304500D03*
X131396300Y-66083100D03*
X49222600Y-100017300D03*
X119197800Y-49530000D03*
X119217100Y-72390000D03*
X53161200Y-125584500D03*
X56947800Y-58135000D03*
X73867100Y-58421800D03*
X76073000Y-75613800D03*
X131969000Y-66964500D03*
X140616200Y-47557600D03*
X118713500Y-91110600D03*
X77871300Y-89348200D03*
X124475700Y-92315100D03*
X122752500Y-97871200D03*
X119059500Y-123190000D03*
X119945000Y-117985800D03*
X42324600Y-120086000D03*
X49216900Y-99124100D03*
X56431500Y-130903700D03*
X83058000Y-108448700D03*
X84963000Y-129475700D03*
X117770600Y-119156700D03*
X115381600Y-98336500D03*
X119183200Y-94115800D03*
X93944300Y-118483000D03*
X70775500Y-84550500D03*
X65057400Y-66787500D03*
X61297100Y-62938900D03*
X39881300Y-104186300D03*
X81615800Y-108531000D03*
X72610400Y-98307700D03*
X75358200Y-88198000D03*
X82619300Y-65025000D03*
X114940700Y-68169500D03*
X113839800Y-48658000D03*
X132229500Y-119436700D03*
X135800900Y-96520000D03*
X136001700Y-72101800D03*
X80834600Y-128641800D03*
X61816600Y-127872800D03*
X61816600Y-131341900D03*
X40794300Y-129494000D03*
X43741900Y-127778400D03*
X45763900Y-98485000D03*
X45317400Y-85778700D03*
X54748100Y-86287000D03*
X64081500Y-107832600D03*
D34*
X54798000Y-89021300D02*
X55631700Y-89855000D01*
X47818000Y-89021300D02*
X54798000Y-89021300D01*
X46984300Y-89855000D02*
X47818000Y-89021300D01*
X56388000Y-89855000D02*
X55631700Y-89855000D01*
X46479100Y-89855000D02*
X46984300Y-89855000D01*
X46479100Y-89855000D02*
X46228000Y-89855000D01*
X46228000Y-89855000D02*
X45471700Y-89855000D01*
X31508700Y-78105000D02*
X31508700Y-77324900D01*
X31508700Y-85725000D02*
X31508700Y-81915000D01*
X31508700Y-81915000D02*
X31508700Y-78105000D01*
X31508700Y-91350800D02*
X33528000Y-93370100D01*
X31508700Y-89535000D02*
X31508700Y-91350800D01*
X31503800Y-100990100D02*
X30988000Y-100990100D01*
X32283100Y-100210800D02*
X31503800Y-100990100D01*
X32283100Y-99177900D02*
X32283100Y-100210800D01*
X33061100Y-98399900D02*
X32283100Y-99177900D01*
X33528000Y-98399900D02*
X33061100Y-98399900D01*
X33528000Y-97155000D02*
X33528000Y-98399900D01*
X33528000Y-94615000D02*
X33528000Y-93992500D01*
X33528000Y-93992500D02*
X33528000Y-93370100D01*
X44042700Y-93992500D02*
X45471700Y-92563500D01*
X33528000Y-93992500D02*
X44042700Y-93992500D01*
X45471700Y-89855000D02*
X45471700Y-92563500D01*
X83693000Y-55625000D02*
X83693000Y-57006300D01*
X75621600Y-107950000D02*
X76439300Y-107950000D01*
X75621600Y-107950000D02*
X75058000Y-107950000D01*
X71628000Y-117475000D02*
X71628000Y-116077700D01*
X107751600Y-73660000D02*
X111378000Y-73660000D01*
X107116600Y-74295000D02*
X107751600Y-73660000D01*
X105366600Y-74295000D02*
X107116600Y-74295000D01*
X104673000Y-74988600D02*
X105366600Y-74295000D01*
X104673000Y-76091400D02*
X104673000Y-74988600D01*
X103954400Y-76810000D02*
X104673000Y-76091400D01*
X101498300Y-76810000D02*
X103954400Y-76810000D01*
X100457300Y-77851000D02*
X101498300Y-76810000D01*
X99060000Y-77851000D02*
X100457300Y-77851000D01*
X69579300Y-107950000D02*
X67039300Y-110490000D01*
X75058000Y-107950000D02*
X69579300Y-107950000D01*
X65658000Y-110490000D02*
X67039300Y-110490000D01*
X138159300Y-121920000D02*
X135619300Y-124460000D01*
X143638000Y-121920000D02*
X138159300Y-121920000D01*
X134238000Y-124460000D02*
X132856700Y-124460000D01*
X134238000Y-124460000D02*
X135619300Y-124460000D01*
X121468700Y-121920000D02*
X122159300Y-121920000D01*
X134238000Y-73660000D02*
X135619300Y-73660000D01*
X116856700Y-50800000D02*
X119396700Y-48260000D01*
X111378000Y-50800000D02*
X116856700Y-50800000D01*
X120087400Y-48260000D02*
X119396700Y-48260000D01*
X120087400Y-48260000D02*
X120778000Y-48260000D01*
X81153000Y-97535000D02*
X81153000Y-96153700D01*
X74803000Y-80052300D02*
X74803000Y-77215000D01*
X77343000Y-82592300D02*
X74803000Y-80052300D01*
X77343000Y-86615000D02*
X77343000Y-82592300D01*
X86233000Y-59546300D02*
X83693000Y-57006300D01*
X86233000Y-65025000D02*
X86233000Y-59546300D01*
X63373000Y-55625000D02*
X63373000Y-57006300D01*
X63373000Y-121665000D02*
X63373000Y-123046300D01*
X138159300Y-71120000D02*
X137127400Y-72151900D01*
X143638000Y-71120000D02*
X138159300Y-71120000D01*
X137127400Y-72151900D02*
X135619300Y-73660000D01*
X54864000Y-69215000D02*
X53619100Y-69215000D01*
X31528000Y-77305600D02*
X31528000Y-76393400D01*
X31508700Y-77324900D02*
X31528000Y-77305600D01*
X52108000Y-109205000D02*
X52108000Y-110336300D01*
X121468700Y-121920000D02*
X120778000Y-121920000D01*
X134238000Y-99060000D02*
X135619300Y-99060000D01*
X133547400Y-50800000D02*
X134238000Y-50800000D01*
X133547400Y-50800000D02*
X133202100Y-50800000D01*
X124404400Y-48260000D02*
X120778000Y-48260000D01*
X125039400Y-48895000D02*
X124404400Y-48260000D01*
X129299700Y-48895000D02*
X125039400Y-48895000D01*
X132030700Y-51626000D02*
X129299700Y-48895000D01*
X132856700Y-50800000D02*
X132030700Y-51626000D01*
X133202100Y-50800000D02*
X132856700Y-50800000D01*
X143638000Y-48260000D02*
X142256700Y-48260000D01*
X111378000Y-124460000D02*
X109996700Y-124460000D01*
X86233000Y-131065000D02*
X86233000Y-129683700D01*
X116270000Y-73660000D02*
X118810000Y-71120000D01*
X111378000Y-73660000D02*
X116270000Y-73660000D01*
X118810000Y-71120000D02*
X120778000Y-71120000D01*
X100933000Y-129127500D02*
X86789200Y-129127500D01*
X101980500Y-130175000D02*
X100933000Y-129127500D01*
X106426600Y-130175000D02*
X101980500Y-130175000D01*
X109996700Y-126604900D02*
X106426600Y-130175000D01*
X109996700Y-124460000D02*
X109996700Y-126604900D01*
X86789200Y-129127500D02*
X86233000Y-129683700D01*
X86789200Y-129127500D02*
X83693000Y-126031300D01*
X63373000Y-123064000D02*
X63531000Y-123222000D01*
X63373000Y-123046300D02*
X63373000Y-123064000D01*
X65913000Y-65025000D02*
X65913000Y-66406300D01*
X54864000Y-69215000D02*
X56108900Y-69215000D01*
X31189500Y-88435700D02*
X31508700Y-88754900D01*
X31189500Y-86824300D02*
X31189500Y-88435700D01*
X31508700Y-86505100D02*
X31189500Y-86824300D01*
X31508700Y-85725000D02*
X31508700Y-86505100D01*
X31508700Y-89535000D02*
X31508700Y-88754900D01*
X111378000Y-99060000D02*
X109996700Y-99060000D01*
X107779200Y-96842500D02*
X109996700Y-99060000D01*
X107779200Y-95302100D02*
X107779200Y-96842500D01*
X74803000Y-77215000D02*
X74803000Y-75833700D01*
X65913000Y-66406300D02*
X65913000Y-67168700D01*
X68809000Y-69839700D02*
X74803000Y-75833700D01*
X68809000Y-68506200D02*
X68809000Y-69839700D01*
X67471500Y-67168700D02*
X68809000Y-68506200D01*
X65913000Y-67168700D02*
X67471500Y-67168700D01*
X65913000Y-131065000D02*
X65913000Y-129683700D01*
X62878800Y-129683700D02*
X65913000Y-129683700D01*
X62497900Y-130064600D02*
X62878800Y-129683700D01*
X138159300Y-96520000D02*
X137478000Y-97201300D01*
X143638000Y-96520000D02*
X138159300Y-96520000D01*
X137478000Y-97201300D02*
X135619300Y-99060000D01*
X133273100Y-92996400D02*
X137478000Y-97201300D01*
X124193600Y-92996400D02*
X133273100Y-92996400D01*
X124035500Y-92838300D02*
X124193600Y-92996400D01*
X118059400Y-92838300D02*
X124035500Y-92838300D01*
X115595600Y-95302100D02*
X118059400Y-92838300D01*
X107779200Y-95302100D02*
X115595600Y-95302100D01*
X117639700Y-121920000D02*
X116853500Y-122706200D01*
X120778000Y-121920000D02*
X117639700Y-121920000D01*
X113020800Y-124460000D02*
X111378000Y-124460000D01*
X114774600Y-122706200D02*
X113020800Y-124460000D01*
X116853500Y-122706200D02*
X114774600Y-122706200D01*
X111378000Y-99060000D02*
X115542100Y-99060000D01*
X118173000Y-96520000D02*
X120778000Y-96520000D01*
X115633000Y-99060000D02*
X118173000Y-96520000D01*
X115542100Y-99060000D02*
X115633000Y-99060000D01*
X115542100Y-99060000D02*
X115542100Y-99208900D01*
X131101700Y-122705000D02*
X132856700Y-124460000D01*
X131101700Y-121273600D02*
X131101700Y-122705000D01*
X129338800Y-119510700D02*
X131101700Y-121273600D01*
X124568600Y-119510700D02*
X129338800Y-119510700D01*
X122159300Y-121920000D02*
X124568600Y-119510700D01*
X52108000Y-97239300D02*
X52108000Y-96673700D01*
X52108000Y-97239300D02*
X52108000Y-97805000D01*
X53038800Y-99867100D02*
X54615400Y-99867100D01*
X52108000Y-98936300D02*
X53038800Y-99867100D01*
X57008000Y-101905000D02*
X54615400Y-101905000D01*
X52108000Y-97805000D02*
X52108000Y-98936300D01*
X84245200Y-107487200D02*
X84245200Y-108487900D01*
X83693000Y-106935000D02*
X84245200Y-107487200D01*
X65612900Y-67468800D02*
X65913000Y-67168700D01*
X64775300Y-67468800D02*
X65612900Y-67468800D01*
X64550200Y-67243700D02*
X64775300Y-67468800D01*
X57412000Y-67243700D02*
X64550200Y-67243700D01*
X56108900Y-68546800D02*
X57412000Y-67243700D01*
X56108900Y-69215000D02*
X56108900Y-68546800D01*
X138159300Y-48260000D02*
X135619300Y-50800000D01*
X142256700Y-48260000D02*
X138159300Y-48260000D01*
X134238000Y-50800000D02*
X135619300Y-50800000D01*
X130715000Y-52941700D02*
X130715000Y-66805100D01*
X132030700Y-51626000D02*
X130715000Y-52941700D01*
X132113700Y-68203800D02*
X130715000Y-66805100D01*
X133179300Y-68203800D02*
X132113700Y-68203800D01*
X137127400Y-72151900D02*
X133179300Y-68203800D01*
X130715000Y-66805100D02*
X118810000Y-66805100D01*
X77343000Y-86615000D02*
X77343000Y-87996300D01*
X77190000Y-88149300D02*
X77190000Y-94481400D01*
X77343000Y-87996300D02*
X77190000Y-88149300D01*
X79480700Y-94481400D02*
X77190000Y-94481400D01*
X81153000Y-96153700D02*
X79480700Y-94481400D01*
X77190000Y-94481400D02*
X74754400Y-94481400D01*
X53619100Y-69883200D02*
X53619100Y-69215000D01*
X51704600Y-71797700D02*
X53619100Y-69883200D01*
X44518300Y-71797700D02*
X51704600Y-71797700D01*
X39922600Y-76393400D02*
X44518300Y-71797700D01*
X31528000Y-76393400D02*
X39922600Y-76393400D01*
X49581900Y-96673700D02*
X45471700Y-92563500D01*
X52108000Y-96673700D02*
X49581900Y-96673700D01*
X81272900Y-111594900D02*
X76439300Y-111594900D01*
X71956500Y-116077700D02*
X76439300Y-111594900D01*
X71628000Y-116077700D02*
X71956500Y-116077700D01*
X76439300Y-111594900D02*
X76439300Y-107950000D01*
X84056800Y-123410100D02*
X83693000Y-123046300D01*
X84056800Y-125667500D02*
X84056800Y-123410100D01*
X83693000Y-126031300D02*
X84056800Y-125667500D01*
X83693000Y-121665000D02*
X83693000Y-123046300D01*
X31528000Y-76393400D02*
X31528000Y-74630000D01*
X52495800Y-110336300D02*
X52108000Y-110336300D01*
X58237200Y-116077700D02*
X52495800Y-110336300D01*
X71628000Y-116077700D02*
X58237200Y-116077700D01*
X40513000Y-55625000D02*
X40513000Y-57006300D01*
X63373000Y-57006300D02*
X63373000Y-57913700D01*
X81596200Y-59103100D02*
X83693000Y-57006300D01*
X64562400Y-59103100D02*
X81596200Y-59103100D01*
X63373000Y-57913700D02*
X64562400Y-59103100D01*
X52469300Y-125252500D02*
X52469300Y-125866200D01*
X52837400Y-124884400D02*
X52469300Y-125252500D01*
X61534900Y-124884400D02*
X52837400Y-124884400D01*
X63373000Y-123046300D02*
X61534900Y-124884400D01*
X82040400Y-127683900D02*
X83693000Y-126031300D01*
X67666700Y-127683900D02*
X82040400Y-127683900D01*
X67158400Y-127175600D02*
X67666700Y-127683900D01*
X53778700Y-127175600D02*
X67158400Y-127175600D01*
X52469300Y-125866200D02*
X53778700Y-127175600D01*
X40513000Y-121665000D02*
X40513000Y-123046300D01*
X43053000Y-65025000D02*
X43053000Y-66406300D01*
X31528000Y-74630000D02*
X31528000Y-68880000D01*
X31528000Y-68880000D02*
X31528000Y-67123700D01*
X39831600Y-66406300D02*
X43053000Y-66406300D01*
X39114200Y-67123700D02*
X31528000Y-67123700D01*
X39831600Y-66406300D02*
X39114200Y-67123700D01*
X39831600Y-62819500D02*
X39831600Y-66406300D01*
X43078900Y-59572200D02*
X39831600Y-62819500D01*
X61714500Y-59572200D02*
X43078900Y-59572200D01*
X63373000Y-57913700D02*
X61714500Y-59572200D01*
X43078900Y-59572200D02*
X40513000Y-57006300D01*
X43053000Y-131065000D02*
X43053000Y-129683700D01*
X44235100Y-125866200D02*
X43784000Y-126317300D01*
X52469300Y-125866200D02*
X44235100Y-125866200D01*
X43053000Y-127048300D02*
X43784000Y-126317300D01*
X43053000Y-129683700D02*
X43053000Y-127048300D01*
X43784000Y-126317300D02*
X40513000Y-123046300D01*
X30988000Y-101665500D02*
X30988000Y-100990100D01*
X30988000Y-101665500D02*
X30988000Y-102235000D01*
X30988000Y-102235000D02*
X32232900Y-102235000D01*
X45608000Y-105105000D02*
X44476700Y-105105000D01*
X33820500Y-114314100D02*
X32764200Y-114314100D01*
X32276900Y-113826800D02*
X32764200Y-114314100D01*
X32276900Y-104213900D02*
X32276900Y-113826800D01*
X33010900Y-103479900D02*
X32276900Y-104213900D01*
X32232900Y-102701900D02*
X33010900Y-103479900D01*
X32232900Y-102235000D02*
X32232900Y-102701900D01*
X44333100Y-104961400D02*
X44476700Y-105105000D01*
X39688300Y-104961400D02*
X44333100Y-104961400D01*
X38206800Y-103479900D02*
X39688300Y-104961400D01*
X33010900Y-103479900D02*
X38206800Y-103479900D01*
X59088000Y-81280000D02*
X60244300Y-81280000D01*
X67564000Y-69215000D02*
X66319100Y-69215000D01*
X66319100Y-70459900D02*
X66319100Y-69215000D01*
X61697300Y-75081700D02*
X66319100Y-70459900D01*
X61697300Y-79827000D02*
X61697300Y-75081700D01*
X60244300Y-81280000D02*
X61697300Y-79827000D01*
X62550300Y-118880800D02*
X62738000Y-118693100D01*
X53511200Y-118880800D02*
X62550300Y-118880800D01*
X50635900Y-116005500D02*
X53511200Y-118880800D01*
X49682400Y-116005500D02*
X50635900Y-116005500D01*
X48367200Y-114690300D02*
X49682400Y-116005500D01*
X48367200Y-111837100D02*
X48367200Y-114690300D01*
X48908000Y-111296300D02*
X48367200Y-111837100D01*
X48908000Y-109205000D02*
X48908000Y-111296300D01*
X42258000Y-80010000D02*
X43414300Y-80010000D01*
X51308000Y-109205000D02*
X51308000Y-108073700D01*
X30988000Y-97155000D02*
X32232900Y-97155000D01*
X55125200Y-76280400D02*
X51048100Y-76280400D01*
X57584800Y-78740000D02*
X55125200Y-76280400D01*
X59088000Y-78740000D02*
X57584800Y-78740000D01*
X50452400Y-107218100D02*
X47029300Y-107218100D01*
X51308000Y-108073700D02*
X50452400Y-107218100D01*
X38309500Y-96863400D02*
X38842400Y-96863400D01*
X37306000Y-95859900D02*
X38309500Y-96863400D01*
X33012200Y-95859900D02*
X37306000Y-95859900D01*
X32232900Y-96639200D02*
X33012200Y-95859900D01*
X32232900Y-97155000D02*
X32232900Y-96639200D01*
X45860300Y-76280400D02*
X51048100Y-76280400D01*
X43414300Y-78726400D02*
X45860300Y-76280400D01*
X43414300Y-80010000D02*
X43414300Y-78726400D01*
X43414300Y-80010000D02*
X43591200Y-80010000D01*
X65024000Y-69215000D02*
X63779100Y-69215000D01*
X42258000Y-78740000D02*
X41101700Y-78740000D01*
X41101700Y-77010300D02*
X41101700Y-78740000D01*
X43138600Y-74973400D02*
X41101700Y-77010300D01*
X53572900Y-74973400D02*
X43138600Y-74973400D01*
X58674000Y-69872300D02*
X53572900Y-74973400D01*
X58674000Y-68530400D02*
X58674000Y-69872300D01*
X59409800Y-67794600D02*
X58674000Y-68530400D01*
X62981100Y-67794600D02*
X59409800Y-67794600D01*
X63779100Y-68592600D02*
X62981100Y-67794600D01*
X63779100Y-69215000D02*
X63779100Y-68592600D01*
X59088000Y-80010000D02*
X60244300Y-80010000D01*
X59944000Y-69215000D02*
X61188900Y-69215000D01*
X61188900Y-79065400D02*
X60244300Y-80010000D01*
X61188900Y-69215000D02*
X61188900Y-79065400D01*
X51099700Y-110336300D02*
X51517100Y-110753700D01*
X50508000Y-110336300D02*
X51099700Y-110336300D01*
X50508000Y-109205000D02*
X50508000Y-110336300D01*
X41608000Y-87303600D02*
X31870800Y-87303600D01*
X41943200Y-86968400D02*
X41608000Y-87303600D01*
X51721300Y-86968400D02*
X41943200Y-86968400D01*
X51894400Y-86795300D02*
X51721300Y-86968400D01*
X60244300Y-80010000D02*
X60438200Y-80010000D01*
X49708000Y-109205000D02*
X49708000Y-108073700D01*
X42258000Y-81280000D02*
X43414300Y-81280000D01*
X43459200Y-81324900D02*
X45658200Y-81324900D01*
X43414300Y-81280000D02*
X43459200Y-81324900D01*
X46113100Y-108808400D02*
X46448100Y-108473400D01*
X44809900Y-108808400D02*
X46113100Y-108808400D01*
X46847800Y-108073700D02*
X46448100Y-108473400D01*
X49708000Y-108073700D02*
X46847800Y-108073700D01*
X45658200Y-81643400D02*
X45658200Y-81324900D01*
X46484400Y-82469600D02*
X45658200Y-81643400D01*
X54641500Y-82469600D02*
X46484400Y-82469600D01*
X85895300Y-72834300D02*
X85704500Y-73025100D01*
X97218000Y-72834300D02*
X85895300Y-72834300D01*
X97662700Y-73279000D02*
X97218000Y-72834300D01*
X99060000Y-73279000D02*
X97662700Y-73279000D01*
X66548000Y-117475000D02*
X65303100Y-117475000D01*
X41539800Y-106219900D02*
X43187000Y-106219900D01*
X35395600Y-112364100D02*
X41539800Y-106219900D01*
X33820500Y-112364100D02*
X35395600Y-112364100D01*
X48464100Y-116513800D02*
X46953600Y-115003300D01*
X50425400Y-116513800D02*
X48464100Y-116513800D01*
X53300700Y-119389100D02*
X50425400Y-116513800D01*
X64011500Y-119389100D02*
X53300700Y-119389100D01*
X65303100Y-118097500D02*
X64011500Y-119389100D01*
X65303100Y-117475000D02*
X65303100Y-118097500D01*
X42258000Y-77470000D02*
X43414300Y-77470000D01*
X59088000Y-77470000D02*
X57931700Y-77470000D01*
X43414300Y-77470000D02*
X43592300Y-77470000D01*
X56026700Y-75565000D02*
X57931700Y-77470000D01*
X45497300Y-75565000D02*
X56026700Y-75565000D01*
X43592300Y-77470000D02*
X45497300Y-75565000D01*
X97663000Y-65025000D02*
X97663000Y-63643700D01*
X98803500Y-63643700D02*
X97663000Y-63643700D01*
X134238000Y-110490000D02*
X132856700Y-110490000D01*
X134238000Y-135890000D02*
X135822700Y-135890000D01*
X114596200Y-112326900D02*
X112759300Y-110490000D01*
X122547300Y-112326900D02*
X114596200Y-112326900D01*
X122729000Y-112145200D02*
X122547300Y-112326900D01*
X132577200Y-110769500D02*
X132260900Y-110769500D01*
X132856700Y-110490000D02*
X132577200Y-110769500D01*
X135619300Y-84599900D02*
X135619300Y-85090000D01*
X135764200Y-84455000D02*
X135619300Y-84599900D01*
X134238000Y-85090000D02*
X135619300Y-85090000D01*
X134238000Y-62230000D02*
X135619300Y-62230000D01*
X95123000Y-106935000D02*
X95977900Y-106935000D01*
X97662700Y-84761700D02*
X97662700Y-84345700D01*
X95530800Y-86893600D02*
X97662700Y-84761700D01*
X89051600Y-86893600D02*
X95530800Y-86893600D01*
X88773000Y-86615000D02*
X89051600Y-86893600D01*
X54483000Y-131065000D02*
X54483000Y-132446300D01*
X54483000Y-132446300D02*
X55866700Y-132446300D01*
X111378000Y-110490000D02*
X111393400Y-110490000D01*
X111393400Y-110490000D02*
X112759300Y-110490000D01*
X111393400Y-111354800D02*
X111393400Y-110490000D01*
X112068700Y-135890000D02*
X112759300Y-135890000D01*
X46173700Y-105905000D02*
X46739300Y-105905000D01*
X46173700Y-105905000D02*
X45608000Y-105905000D01*
X45608000Y-105905000D02*
X44476700Y-105905000D01*
X33528000Y-104775000D02*
X34772900Y-104775000D01*
X135619300Y-62230000D02*
X135619300Y-62953100D01*
X108035500Y-84480000D02*
X101224600Y-84480000D01*
X108645500Y-85090000D02*
X108035500Y-84480000D01*
X111378000Y-85090000D02*
X108645500Y-85090000D01*
X123439900Y-138195800D02*
X124202400Y-137433300D01*
X115065100Y-138195800D02*
X123439900Y-138195800D01*
X112759300Y-135890000D02*
X115065100Y-138195800D01*
X54483000Y-131065000D02*
X54483000Y-129683700D01*
X98201700Y-131603700D02*
X97663000Y-131065000D01*
X101036300Y-131603700D02*
X98201700Y-131603700D01*
X111425100Y-135890000D02*
X111425100Y-136746000D01*
X112068700Y-135890000D02*
X111425100Y-135890000D01*
X111425100Y-135890000D02*
X111378000Y-135890000D01*
X77343000Y-131065000D02*
X77343000Y-130544100D01*
X77343000Y-130544100D02*
X77343000Y-129683700D01*
X77343000Y-130544100D02*
X82833000Y-130544100D01*
X54483000Y-65025000D02*
X54483000Y-66406300D01*
X54483000Y-66406300D02*
X62667000Y-66406300D01*
X77343000Y-65025000D02*
X77343000Y-66406300D01*
X77128600Y-96520000D02*
X75058000Y-96520000D01*
X79525000Y-98916400D02*
X77128600Y-96520000D01*
X95977900Y-98916400D02*
X79525000Y-98916400D01*
X100457300Y-75454700D02*
X100669200Y-75242800D01*
X100457300Y-75565000D02*
X100457300Y-75454700D01*
X99060000Y-75565000D02*
X100457300Y-75565000D01*
X51308000Y-98370600D02*
X51308000Y-98936300D01*
X51308000Y-98370600D02*
X51308000Y-97805000D01*
X110904400Y-62703600D02*
X110904400Y-63104800D01*
X111378000Y-62230000D02*
X110904400Y-62703600D01*
X76834700Y-129175400D02*
X77343000Y-129683700D01*
X55376200Y-129175400D02*
X76834700Y-129175400D01*
X54867900Y-129683700D02*
X55376200Y-129175400D01*
X54483000Y-129683700D02*
X54867900Y-129683700D01*
X74953900Y-68087900D02*
X75413000Y-68087900D01*
X74639300Y-67773300D02*
X74953900Y-68087900D01*
X69349100Y-67773300D02*
X74639300Y-67773300D01*
X77094600Y-66406300D02*
X75413000Y-68087900D01*
X77343000Y-66406300D02*
X77094600Y-66406300D01*
X96849700Y-70659000D02*
X98803500Y-68705200D01*
X76182800Y-70659000D02*
X96849700Y-70659000D01*
X75413000Y-69889200D02*
X76182800Y-70659000D01*
X75413000Y-68087900D02*
X75413000Y-69889200D01*
X35536500Y-105538600D02*
X34772900Y-104775000D01*
X44110300Y-105538600D02*
X35536500Y-105538600D01*
X44476700Y-105905000D02*
X44110300Y-105538600D01*
X52894900Y-108073700D02*
X52706700Y-107885500D01*
X52908000Y-108073700D02*
X52894900Y-108073700D01*
X52908000Y-109205000D02*
X52908000Y-108073700D01*
X51445300Y-106624100D02*
X52706700Y-107885500D01*
X47458400Y-106624100D02*
X51445300Y-106624100D01*
X46739300Y-105905000D02*
X47458400Y-106624100D01*
X52977300Y-100605600D02*
X55766600Y-100605600D01*
X51308000Y-98936300D02*
X52977300Y-100605600D01*
X55766600Y-100994900D02*
X55876700Y-101105000D01*
X55766600Y-100605600D02*
X55766600Y-100994900D01*
X55766600Y-99180200D02*
X55766600Y-100605600D01*
X56288000Y-98658800D02*
X55766600Y-99180200D01*
X57008000Y-101105000D02*
X55876700Y-101105000D01*
X33528000Y-48895000D02*
X32258000Y-47625000D01*
X33528000Y-50713600D02*
X33528000Y-48895000D01*
X37058100Y-54243700D02*
X33528000Y-50713600D01*
X44323000Y-54243700D02*
X37058100Y-54243700D01*
X44323000Y-55625000D02*
X44323000Y-54243700D01*
X45593000Y-55625000D02*
X45593000Y-57006300D01*
X32258000Y-50165000D02*
X32258000Y-48920100D01*
X31286500Y-48920100D02*
X32258000Y-48920100D01*
X31013000Y-48646600D02*
X31286500Y-48920100D01*
X31013000Y-46583700D02*
X31013000Y-48646600D01*
X31925800Y-45670900D02*
X31013000Y-46583700D01*
X50620200Y-45670900D02*
X31925800Y-45670900D01*
X58324600Y-53375300D02*
X50620200Y-45670900D01*
X58324600Y-55075800D02*
X58324600Y-53375300D01*
X55360200Y-58040200D02*
X58324600Y-55075800D01*
X46626900Y-58040200D02*
X55360200Y-58040200D01*
X45593000Y-57006300D02*
X46626900Y-58040200D01*
X50582700Y-46352200D02*
X41334000Y-46352200D01*
X57816300Y-53585800D02*
X50582700Y-46352200D01*
X57816300Y-54865300D02*
X57816300Y-53585800D01*
X55149700Y-57531900D02*
X57816300Y-54865300D01*
X47388600Y-57531900D02*
X55149700Y-57531900D01*
X46863000Y-57006300D02*
X47388600Y-57531900D01*
X46863000Y-55625000D02*
X46863000Y-57006300D01*
X47445400Y-53556100D02*
X38207300Y-53556100D01*
X48133000Y-54243700D02*
X47445400Y-53556100D01*
X48133000Y-55625000D02*
X48133000Y-54243700D01*
X37338000Y-47625000D02*
X38582900Y-47625000D01*
X49403000Y-55625000D02*
X49403000Y-57006300D01*
X54940900Y-57006300D02*
X49403000Y-57006300D01*
X57231600Y-54715600D02*
X54940900Y-57006300D01*
X57231600Y-53939600D02*
X57231600Y-54715600D01*
X54701900Y-51409900D02*
X57231600Y-53939600D01*
X44354200Y-51409900D02*
X54701900Y-51409900D01*
X43688000Y-50743700D02*
X44354200Y-51409900D01*
X43688000Y-49613600D02*
X43688000Y-50743700D01*
X42994400Y-48920000D02*
X43688000Y-49613600D01*
X41863100Y-48920000D02*
X42994400Y-48920000D01*
X41122900Y-48179800D02*
X41863100Y-48920000D01*
X41122900Y-47104400D02*
X41122900Y-48179800D01*
X40361800Y-46343300D02*
X41122900Y-47104400D01*
X39397800Y-46343300D02*
X40361800Y-46343300D01*
X38582900Y-47158200D02*
X39397800Y-46343300D01*
X38582900Y-47625000D02*
X38582900Y-47158200D01*
X50673000Y-55625000D02*
X50673000Y-54243700D01*
X37338000Y-50165000D02*
X38582900Y-50165000D01*
X49364100Y-52934800D02*
X50673000Y-54243700D01*
X40754300Y-52934800D02*
X49364100Y-52934800D01*
X38582900Y-50763400D02*
X40754300Y-52934800D01*
X38582900Y-50165000D02*
X38582900Y-50763400D01*
X51943000Y-55625000D02*
X51943000Y-54243700D01*
X50125800Y-52426500D02*
X51943000Y-54243700D01*
X41209400Y-52426500D02*
X50125800Y-52426500D01*
X40816800Y-52033900D02*
X41209400Y-52426500D01*
X39878000Y-50165000D02*
X41122900Y-50165000D01*
X53213000Y-55625000D02*
X53213000Y-54243700D01*
X50887500Y-51918200D02*
X53213000Y-54243700D01*
X42409200Y-51918200D02*
X50887500Y-51918200D01*
X41122900Y-50631900D02*
X42409200Y-51918200D01*
X41122900Y-50165000D02*
X41122900Y-50631900D01*
X53213000Y-65025000D02*
X53213000Y-66406300D01*
X51955400Y-66406300D02*
X51782400Y-66579300D01*
X53213000Y-66406300D02*
X51955400Y-66406300D01*
X51943000Y-64414700D02*
X51943000Y-65025000D01*
X52883900Y-63473800D02*
X51943000Y-64414700D01*
X53848000Y-63473800D02*
X52883900Y-63473800D01*
X50673000Y-64151500D02*
X51307900Y-63516600D01*
X50673000Y-65025000D02*
X50673000Y-64151500D01*
X49403000Y-65754600D02*
X49403000Y-65025000D01*
X50252100Y-66603700D02*
X49403000Y-65754600D01*
X48133000Y-65025000D02*
X48133000Y-66406300D01*
X48323400Y-66596700D02*
X48767900Y-66596700D01*
X48133000Y-66406300D02*
X48323400Y-66596700D01*
X46902000Y-66406300D02*
X47081500Y-66585800D01*
X46863000Y-66406300D02*
X46902000Y-66406300D01*
X46863000Y-65025000D02*
X46863000Y-66406300D01*
X45593000Y-65025000D02*
X45593000Y-66406300D01*
X46971800Y-67785100D02*
X53700800Y-67785100D01*
X45593000Y-66406300D02*
X46971800Y-67785100D01*
X44323000Y-65025000D02*
X44323000Y-63643700D01*
X49923200Y-63643700D02*
X50038000Y-63528900D01*
X44323000Y-63643700D02*
X49923200Y-63643700D01*
X60198000Y-47625000D02*
X60198000Y-48869900D01*
X67183000Y-55625000D02*
X67183000Y-54243700D01*
X66166400Y-53227100D02*
X67183000Y-54243700D01*
X61486800Y-53227100D02*
X66166400Y-53227100D01*
X58941400Y-50681700D02*
X61486800Y-53227100D01*
X58941400Y-49659700D02*
X58941400Y-50681700D01*
X59731200Y-48869900D02*
X58941400Y-49659700D01*
X60198000Y-48869900D02*
X59731200Y-48869900D01*
X68453000Y-55625000D02*
X68453000Y-54243700D01*
X60198000Y-50165000D02*
X61442900Y-50165000D01*
X67990800Y-54243700D02*
X68453000Y-54243700D01*
X66261400Y-52514300D02*
X67990800Y-54243700D01*
X63276400Y-52514300D02*
X66261400Y-52514300D01*
X61442900Y-50680800D02*
X63276400Y-52514300D01*
X61442900Y-50165000D02*
X61442900Y-50680800D01*
X62738000Y-47625000D02*
X62738000Y-48869900D01*
X68865700Y-53386400D02*
X69723000Y-54243700D01*
X67852300Y-53386400D02*
X68865700Y-53386400D01*
X66328600Y-51862700D02*
X67852300Y-53386400D01*
X65154400Y-51862700D02*
X66328600Y-51862700D01*
X64008000Y-50716300D02*
X65154400Y-51862700D01*
X64008000Y-49624100D02*
X64008000Y-50716300D01*
X63253800Y-48869900D02*
X64008000Y-49624100D01*
X62738000Y-48869900D02*
X63253800Y-48869900D01*
X69723000Y-55625000D02*
X69723000Y-54243700D01*
X70993000Y-55625000D02*
X70993000Y-57006300D01*
X68370100Y-57006300D02*
X68172400Y-57204000D01*
X70993000Y-57006300D02*
X68370100Y-57006300D01*
X70724400Y-52705100D02*
X68134400Y-52705100D01*
X72263000Y-54243700D02*
X70724400Y-52705100D01*
X72263000Y-55625000D02*
X72263000Y-54243700D01*
X66522900Y-50680800D02*
X66522900Y-50165000D01*
X67631400Y-51789300D02*
X66522900Y-50680800D01*
X71078600Y-51789300D02*
X67631400Y-51789300D01*
X73533000Y-54243700D02*
X71078600Y-51789300D01*
X73533000Y-55625000D02*
X73533000Y-54243700D01*
X65278000Y-50165000D02*
X66522900Y-50165000D01*
X74803000Y-55625000D02*
X74803000Y-54243700D01*
X67818000Y-47625000D02*
X69062900Y-47625000D01*
X71603000Y-51043700D02*
X74803000Y-54243700D01*
X71603000Y-49588600D02*
X71603000Y-51043700D01*
X70909400Y-48895000D02*
X71603000Y-49588600D01*
X69817100Y-48895000D02*
X70909400Y-48895000D01*
X69062900Y-48140800D02*
X69817100Y-48895000D01*
X69062900Y-47625000D02*
X69062900Y-48140800D01*
X67302200Y-48920100D02*
X67818000Y-48920100D01*
X66523000Y-48140900D02*
X67302200Y-48920100D01*
X66523000Y-47130300D02*
X66523000Y-48140900D01*
X67285400Y-46367900D02*
X66523000Y-47130300D01*
X78539100Y-46367900D02*
X67285400Y-46367900D01*
X79249200Y-47078000D02*
X78539100Y-46367900D01*
X79249200Y-50707900D02*
X79249200Y-47078000D01*
X76073000Y-53884100D02*
X79249200Y-50707900D01*
X76073000Y-55625000D02*
X76073000Y-53884100D01*
X67818000Y-50165000D02*
X67818000Y-48920100D01*
X76073000Y-65025000D02*
X76073000Y-63643700D01*
X76574000Y-63643700D02*
X76707700Y-63510000D01*
X76073000Y-63643700D02*
X76574000Y-63643700D01*
X74803000Y-65025000D02*
X74803000Y-63643700D01*
X71398200Y-63643700D02*
X74803000Y-63643700D01*
X71207800Y-63453300D02*
X71398200Y-63643700D01*
X73533000Y-65025000D02*
X73533000Y-66406300D01*
X74269400Y-67142700D02*
X75097700Y-67142700D01*
X73533000Y-66406300D02*
X74269400Y-67142700D01*
X72263000Y-65025000D02*
X72263000Y-66406300D01*
X72539400Y-66406300D02*
X73185800Y-67052700D01*
X72263000Y-66406300D02*
X72539400Y-66406300D01*
X75438000Y-47625000D02*
X75438000Y-48869900D01*
X74922200Y-48869900D02*
X75438000Y-48869900D01*
X74168000Y-49624100D02*
X74922200Y-48869900D01*
X74168000Y-51334300D02*
X74168000Y-49624100D01*
X73774600Y-51727700D02*
X74168000Y-51334300D01*
X74243900Y-62769400D02*
X74416400Y-62941900D01*
X70890000Y-62769400D02*
X74243900Y-62769400D01*
X70516900Y-63142500D02*
X70890000Y-62769400D01*
X70516900Y-64548900D02*
X70516900Y-63142500D01*
X70993000Y-65025000D02*
X70516900Y-64548900D01*
X77075400Y-67485700D02*
X76978600Y-67485700D01*
X78024400Y-66536700D02*
X77075400Y-67485700D01*
X78024400Y-63821900D02*
X78024400Y-66536700D01*
X76444200Y-62241700D02*
X78024400Y-63821900D01*
X70625100Y-62241700D02*
X76444200Y-62241700D01*
X69957800Y-62909000D02*
X70625100Y-62241700D01*
X69957800Y-64790200D02*
X69957800Y-62909000D01*
X69723000Y-65025000D02*
X69957800Y-64790200D01*
X68453000Y-65025000D02*
X68453000Y-63643700D01*
X68962700Y-63643700D02*
X69088000Y-63518400D01*
X68453000Y-63643700D02*
X68962700Y-63643700D01*
X77113500Y-61733200D02*
X77425400Y-62045100D01*
X69093500Y-61733200D02*
X77113500Y-61733200D01*
X67183000Y-63643700D02*
X69093500Y-61733200D01*
X67183000Y-65025000D02*
X67183000Y-63643700D01*
X44323000Y-121665000D02*
X44323000Y-123046300D01*
X54508500Y-123867800D02*
X54709400Y-123666900D01*
X45144500Y-123867800D02*
X54508500Y-123867800D01*
X44323000Y-123046300D02*
X45144500Y-123867800D01*
X45593000Y-121665000D02*
X45593000Y-120283700D01*
X47784500Y-118179800D02*
X50107400Y-118179800D01*
X45680600Y-120283700D02*
X47784500Y-118179800D01*
X45593000Y-120283700D02*
X45680600Y-120283700D01*
X46863000Y-120224400D02*
X46997400Y-120090000D01*
X46863000Y-121665000D02*
X46863000Y-120224400D01*
X48295600Y-120121100D02*
X48295600Y-120098900D01*
X48133000Y-120283700D02*
X48295600Y-120121100D01*
X48133000Y-121665000D02*
X48133000Y-120283700D01*
X53702300Y-123046300D02*
X53842500Y-123186500D01*
X49403000Y-123046300D02*
X53702300Y-123046300D01*
X44958000Y-139065000D02*
X46202900Y-139065000D01*
X49403000Y-121665000D02*
X49403000Y-123046300D01*
X49560500Y-135241900D02*
X53519700Y-135241900D01*
X48743000Y-136059400D02*
X49560500Y-135241900D01*
X48743000Y-137101400D02*
X48743000Y-136059400D01*
X48049400Y-137795000D02*
X48743000Y-137101400D01*
X46957100Y-137795000D02*
X48049400Y-137795000D01*
X46202900Y-138549200D02*
X46957100Y-137795000D01*
X46202900Y-139065000D02*
X46202900Y-138549200D01*
X50176000Y-120283700D02*
X50053500Y-120161200D01*
X50673000Y-120283700D02*
X50176000Y-120283700D01*
X50673000Y-121665000D02*
X50673000Y-120283700D01*
X51943000Y-121665000D02*
X51943000Y-120283700D01*
X51746100Y-120086800D02*
X51463500Y-120086800D01*
X51943000Y-120283700D02*
X51746100Y-120086800D01*
X53213000Y-121665000D02*
X53213000Y-120283700D01*
X47562000Y-117438900D02*
X46172200Y-118828700D01*
X50368200Y-117438900D02*
X47562000Y-117438900D01*
X53213000Y-120283700D02*
X50368200Y-117438900D01*
X53213000Y-131065000D02*
X53213000Y-132446300D01*
X39878000Y-139065000D02*
X41122900Y-139065000D01*
X41122900Y-138549200D02*
X41122900Y-139065000D01*
X41877100Y-137795000D02*
X41122900Y-138549200D01*
X45536400Y-137795000D02*
X41877100Y-137795000D01*
X46203000Y-137128400D02*
X45536400Y-137795000D01*
X46203000Y-136017200D02*
X46203000Y-137128400D01*
X47232400Y-134987800D02*
X46203000Y-136017200D01*
X49019000Y-134987800D02*
X47232400Y-134987800D01*
X49527300Y-134479500D02*
X49019000Y-134987800D01*
X51179800Y-134479500D02*
X49527300Y-134479500D01*
X53213000Y-132446300D02*
X51179800Y-134479500D01*
X51943000Y-131065000D02*
X51943000Y-132446300D01*
X39878000Y-136525000D02*
X41122900Y-136525000D01*
X50418100Y-133971200D02*
X51943000Y-132446300D01*
X49316800Y-133971200D02*
X50418100Y-133971200D01*
X48808500Y-134479500D02*
X49316800Y-133971200D01*
X42652600Y-134479500D02*
X48808500Y-134479500D01*
X41122900Y-136009200D02*
X42652600Y-134479500D01*
X41122900Y-136525000D02*
X41122900Y-136009200D01*
X37338000Y-139065000D02*
X37338000Y-137820100D01*
X50673000Y-131065000D02*
X50673000Y-132446300D01*
X50122900Y-132446300D02*
X50673000Y-132446300D01*
X48598000Y-133971200D02*
X50122900Y-132446300D01*
X40614200Y-133971200D02*
X48598000Y-133971200D01*
X38608000Y-135977400D02*
X40614200Y-133971200D01*
X38608000Y-137065900D02*
X38608000Y-135977400D01*
X37853800Y-137820100D02*
X38608000Y-137065900D01*
X37338000Y-137820100D02*
X37853800Y-137820100D01*
X50583600Y-128503100D02*
X55085000Y-128503100D01*
X49403000Y-129683700D02*
X50583600Y-128503100D01*
X49403000Y-131065000D02*
X49403000Y-129683700D01*
X48133000Y-131065000D02*
X48133000Y-129683700D01*
X46964800Y-128515500D02*
X44233800Y-128515500D01*
X48133000Y-129683700D02*
X46964800Y-128515500D01*
X46863000Y-131065000D02*
X46863000Y-132446300D01*
X34798000Y-136525000D02*
X36042900Y-136525000D01*
X45846400Y-133462900D02*
X46863000Y-132446300D01*
X38589200Y-133462900D02*
X45846400Y-133462900D01*
X36042900Y-136009200D02*
X38589200Y-133462900D01*
X36042900Y-136525000D02*
X36042900Y-136009200D01*
X45084700Y-132954600D02*
X37134700Y-132954600D01*
X45593000Y-132446300D02*
X45084700Y-132954600D01*
X45593000Y-131065000D02*
X45593000Y-132446300D01*
X44323000Y-131065000D02*
X44323000Y-132446300D01*
X32258000Y-136525000D02*
X33502900Y-136525000D01*
X33502900Y-135597900D02*
X33502900Y-136525000D01*
X36840400Y-132260400D02*
X33502900Y-135597900D01*
X37659500Y-132260400D02*
X36840400Y-132260400D01*
X37845400Y-132446300D02*
X37659500Y-132260400D01*
X44323000Y-132446300D02*
X37845400Y-132446300D01*
X98525300Y-122290800D02*
X98525400Y-122290800D01*
X98525300Y-122695000D02*
X98525300Y-122290800D01*
X98174000Y-123046300D02*
X98525300Y-122695000D01*
X97663000Y-123046300D02*
X98174000Y-123046300D01*
X97663000Y-121665000D02*
X97663000Y-123046300D01*
X71286600Y-97957800D02*
X73455400Y-100126600D01*
X65825800Y-97957800D02*
X71286600Y-97957800D01*
X65658000Y-97790000D02*
X65825800Y-97957800D01*
X71180500Y-99060000D02*
X72780000Y-100659500D01*
X65658000Y-99060000D02*
X71180500Y-99060000D01*
X96248900Y-99637500D02*
X78031400Y-99637500D01*
X96669500Y-99216900D02*
X96248900Y-99637500D01*
X96669500Y-98638300D02*
X96669500Y-99216900D01*
X95566200Y-97535000D02*
X96669500Y-98638300D01*
X95123000Y-97535000D02*
X95566200Y-97535000D01*
X70762900Y-100330000D02*
X70909000Y-100476100D01*
X65658000Y-100330000D02*
X70762900Y-100330000D01*
X89520200Y-77962200D02*
X89627300Y-77962200D01*
X88773000Y-77215000D02*
X89520200Y-77962200D01*
X97663000Y-55625000D02*
X97663000Y-57006300D01*
X65658000Y-101600000D02*
X72142800Y-101600000D01*
X98212200Y-57555500D02*
X98212200Y-57650200D01*
X97663000Y-57006300D02*
X98212200Y-57555500D01*
X77343000Y-121665000D02*
X77343000Y-120283700D01*
X77798500Y-120283700D02*
X77929500Y-120152700D01*
X77343000Y-120283700D02*
X77798500Y-120283700D01*
X65658000Y-102870000D02*
X71341500Y-102870000D01*
X54483000Y-121665000D02*
X54483000Y-120283700D01*
X65658000Y-104140000D02*
X64276700Y-104140000D01*
X64276700Y-104547800D02*
X64122100Y-104702400D01*
X64276700Y-104140000D02*
X64276700Y-104547800D01*
X54696200Y-120070500D02*
X57683000Y-120070500D01*
X54483000Y-120283700D02*
X54696200Y-120070500D01*
X77343000Y-55625000D02*
X77343000Y-57006300D01*
X68743100Y-105410000D02*
X65658000Y-105410000D01*
X72147300Y-57006300D02*
X71971500Y-57182100D01*
X77343000Y-57006300D02*
X72147300Y-57006300D01*
X67241600Y-106680000D02*
X65658000Y-106680000D01*
X54483000Y-55625000D02*
X54483000Y-54243700D01*
X54483000Y-54243700D02*
X56550200Y-54243700D01*
X142256700Y-135467200D02*
X142094400Y-135304900D01*
X142256700Y-135890000D02*
X142256700Y-135467200D01*
X143638000Y-135890000D02*
X142256700Y-135890000D01*
X93640600Y-116398000D02*
X132910800Y-116398000D01*
X90677600Y-113435000D02*
X93640600Y-116398000D01*
X84076500Y-113435000D02*
X90677600Y-113435000D01*
X77321500Y-106680000D02*
X84076500Y-113435000D01*
X75058000Y-106680000D02*
X77321500Y-106680000D01*
X143638000Y-110490000D02*
X140613400Y-110490000D01*
X76770300Y-105410000D02*
X75058000Y-105410000D01*
X83430200Y-112069900D02*
X76770300Y-105410000D01*
X90031400Y-112069900D02*
X83430200Y-112069900D01*
X93405700Y-115444200D02*
X90031400Y-112069900D01*
X133060500Y-115444200D02*
X93405700Y-115444200D01*
X76813600Y-104514300D02*
X76439300Y-104140000D01*
X85801600Y-104514300D02*
X76813600Y-104514300D01*
X75058000Y-104140000D02*
X76439300Y-104140000D01*
X143638000Y-85090000D02*
X140589300Y-85090000D01*
X85845300Y-90312900D02*
X140364900Y-90312900D01*
X85801600Y-90356600D02*
X85845300Y-90312900D01*
X75058000Y-102870000D02*
X101195000Y-102870000D01*
X138887600Y-59068800D02*
X135997000Y-59068800D01*
X142048800Y-62230000D02*
X138887600Y-59068800D01*
X143638000Y-62230000D02*
X142048800Y-62230000D01*
X75058000Y-101600000D02*
X76439300Y-101600000D01*
X120778000Y-135890000D02*
X119005900Y-135890000D01*
X76746600Y-101907300D02*
X88822000Y-101907300D01*
X76439300Y-101600000D02*
X76746600Y-101907300D01*
X75058000Y-100330000D02*
X76439300Y-100330000D01*
X118769900Y-110490000D02*
X113580400Y-105300500D01*
X120778000Y-110490000D02*
X118769900Y-110490000D01*
X77335200Y-101225900D02*
X99116400Y-101225900D01*
X76439300Y-100330000D02*
X77335200Y-101225900D01*
X120778000Y-85090000D02*
X118027100Y-85090000D01*
X75058000Y-99060000D02*
X76439300Y-99060000D01*
X77887300Y-100508000D02*
X97907900Y-100508000D01*
X76439300Y-99060000D02*
X77887300Y-100508000D01*
X115500200Y-58333500D02*
X113045400Y-58333500D01*
X119396700Y-62230000D02*
X115500200Y-58333500D01*
X77205500Y-97790000D02*
X75058000Y-97790000D01*
X120778000Y-62230000D02*
X119396700Y-62230000D01*
X75065500Y-126159000D02*
X77029300Y-124195200D01*
X70295700Y-126159000D02*
X75065500Y-126159000D01*
X67183000Y-123046300D02*
X70295700Y-126159000D01*
X67183000Y-121665000D02*
X67183000Y-123046300D01*
X68453000Y-123222800D02*
X68453100Y-123222800D01*
X68453000Y-121665000D02*
X68453000Y-123222800D01*
X69723000Y-121665000D02*
X69723000Y-120283700D01*
X71522000Y-120283700D02*
X71611900Y-120193800D01*
X69723000Y-120283700D02*
X71522000Y-120283700D01*
X70910200Y-121747800D02*
X70993000Y-121665000D01*
X70910200Y-123711400D02*
X70910200Y-121747800D01*
X72263000Y-121665000D02*
X72263000Y-123046300D01*
X71761400Y-123046300D02*
X71628300Y-123179400D01*
X72263000Y-123046300D02*
X71761400Y-123046300D01*
X73028400Y-124155900D02*
X72812700Y-124371600D01*
X73028400Y-122169600D02*
X73028400Y-124155900D01*
X73533000Y-121665000D02*
X73028400Y-122169600D01*
X74803000Y-121665000D02*
X74803000Y-123046300D01*
X74390600Y-123046300D02*
X73940000Y-123496900D01*
X74803000Y-123046300D02*
X74390600Y-123046300D01*
X76073000Y-121665000D02*
X76073000Y-123046300D01*
X73645000Y-125474300D02*
X76073000Y-123046300D01*
X70803300Y-125474300D02*
X73645000Y-125474300D01*
X76073000Y-131065000D02*
X76073000Y-132446300D01*
X67818000Y-139065000D02*
X67818000Y-137820100D01*
X73443300Y-135076000D02*
X76073000Y-132446300D01*
X70044500Y-135076000D02*
X73443300Y-135076000D01*
X69088000Y-136032500D02*
X70044500Y-135076000D01*
X69088000Y-137065900D02*
X69088000Y-136032500D01*
X68333800Y-137820100D02*
X69088000Y-137065900D01*
X67818000Y-137820100D02*
X68333800Y-137820100D01*
X74803000Y-131065000D02*
X74803000Y-132446300D01*
X72681600Y-134567700D02*
X74803000Y-132446300D01*
X69775300Y-134567700D02*
X72681600Y-134567700D01*
X67818000Y-136525000D02*
X69775300Y-134567700D01*
X73533000Y-131065000D02*
X73533000Y-132649000D01*
X70649900Y-134059400D02*
X72263000Y-132446300D01*
X68514300Y-134059400D02*
X70649900Y-134059400D01*
X66522900Y-136050800D02*
X68514300Y-134059400D01*
X66522900Y-136525000D02*
X66522900Y-136050800D01*
X65278000Y-136525000D02*
X66522900Y-136525000D01*
X72263000Y-131065000D02*
X72263000Y-132446300D01*
X70061200Y-133378100D02*
X68967900Y-133378100D01*
X70993000Y-132446300D02*
X70061200Y-133378100D01*
X70993000Y-131065000D02*
X70993000Y-132446300D01*
X68915300Y-132446300D02*
X69723000Y-132446300D01*
X67205000Y-134156600D02*
X68915300Y-132446300D01*
X65880500Y-134156600D02*
X67205000Y-134156600D01*
X63982900Y-136054200D02*
X65880500Y-134156600D01*
X63982900Y-136525000D02*
X63982900Y-136054200D01*
X62738000Y-136525000D02*
X63982900Y-136525000D01*
X69723000Y-131065000D02*
X69723000Y-132446300D01*
X64099600Y-135093000D02*
X63318300Y-135093000D01*
X65711400Y-133481200D02*
X64099600Y-135093000D01*
X66921000Y-133481200D02*
X65711400Y-133481200D01*
X68453000Y-131949200D02*
X66921000Y-133481200D01*
X68453000Y-131065000D02*
X68453000Y-131949200D01*
X67183000Y-131065000D02*
X67183000Y-132446300D01*
X60198000Y-136525000D02*
X61442900Y-136525000D01*
X61442900Y-135980300D02*
X61442900Y-136525000D01*
X63226200Y-134197000D02*
X61442900Y-135980300D01*
X63917400Y-134197000D02*
X63226200Y-134197000D01*
X65668100Y-132446300D02*
X63917400Y-134197000D01*
X67183000Y-132446300D02*
X65668100Y-132446300D01*
X95389900Y-46356800D02*
X87503000Y-54243700D01*
X103871700Y-46356800D02*
X95389900Y-46356800D01*
X104673100Y-47158200D02*
X103871700Y-46356800D01*
X104673100Y-47625000D02*
X104673100Y-47158200D01*
X105918000Y-47625000D02*
X104673100Y-47625000D01*
X87503000Y-55625000D02*
X87503000Y-54243700D01*
X88773000Y-55625000D02*
X88773000Y-54243700D01*
X103378000Y-47625000D02*
X102133100Y-47625000D01*
X95391700Y-47625000D02*
X102133100Y-47625000D01*
X88773000Y-54243700D02*
X95391700Y-47625000D01*
X105918000Y-50165000D02*
X104673100Y-50165000D01*
X90043000Y-55625000D02*
X90043000Y-54243700D01*
X104673100Y-49698200D02*
X104673100Y-50165000D01*
X103869900Y-48895000D02*
X104673100Y-49698200D01*
X95391700Y-48895000D02*
X103869900Y-48895000D01*
X90043000Y-54243700D02*
X95391700Y-48895000D01*
X91313000Y-55625000D02*
X91313000Y-54243700D01*
X103378000Y-50165000D02*
X102133100Y-50165000D01*
X95391700Y-50165000D02*
X102133100Y-50165000D01*
X91313000Y-54243700D02*
X95391700Y-50165000D01*
X95391700Y-51435000D02*
X92583000Y-54243700D01*
X103869900Y-51435000D02*
X95391700Y-51435000D01*
X104673100Y-52238200D02*
X103869900Y-51435000D01*
X104673100Y-52705000D02*
X104673100Y-52238200D01*
X105918000Y-52705000D02*
X104673100Y-52705000D01*
X92583000Y-55625000D02*
X92583000Y-54243700D01*
X93853000Y-55625000D02*
X93853000Y-54243700D01*
X103378000Y-52705000D02*
X102133100Y-52705000D01*
X95391700Y-52705000D02*
X102133100Y-52705000D01*
X93853000Y-54243700D02*
X95391700Y-52705000D01*
X105918000Y-55245000D02*
X104673100Y-55245000D01*
X95123000Y-55625000D02*
X95123000Y-54243700D01*
X104673100Y-54778100D02*
X104673100Y-55245000D01*
X103895100Y-54000100D02*
X104673100Y-54778100D01*
X102397800Y-54000100D02*
X103895100Y-54000100D01*
X102106300Y-53708600D02*
X102397800Y-54000100D01*
X95658100Y-53708600D02*
X102106300Y-53708600D01*
X95123000Y-54243700D02*
X95658100Y-53708600D01*
X101131800Y-54243700D02*
X102133100Y-55245000D01*
X96393000Y-54243700D02*
X101131800Y-54243700D01*
X96393000Y-55625000D02*
X96393000Y-54243700D01*
X103378000Y-55245000D02*
X102133100Y-55245000D01*
X101006800Y-59029900D02*
X96393000Y-63643700D01*
X103895100Y-59029900D02*
X101006800Y-59029900D01*
X104673100Y-58251900D02*
X103895100Y-59029900D01*
X104673100Y-57785000D02*
X104673100Y-58251900D01*
X105918000Y-57785000D02*
X104673100Y-57785000D01*
X96393000Y-65025000D02*
X96393000Y-63643700D01*
X100981700Y-57785000D02*
X95123000Y-63643700D01*
X103378000Y-57785000D02*
X100981700Y-57785000D01*
X95123000Y-65025000D02*
X95123000Y-63643700D01*
X93853000Y-65025000D02*
X93853000Y-63643700D01*
X105918000Y-60325000D02*
X105918000Y-59080100D01*
X106433800Y-59080100D02*
X105918000Y-59080100D01*
X107213000Y-58300900D02*
X106433800Y-59080100D01*
X107213000Y-57267500D02*
X107213000Y-58300900D01*
X106460500Y-56515000D02*
X107213000Y-57267500D01*
X101519200Y-56515000D02*
X106460500Y-56515000D01*
X94390500Y-63643700D02*
X101519200Y-56515000D01*
X93853000Y-63643700D02*
X94390500Y-63643700D01*
X92583000Y-65025000D02*
X92583000Y-66406300D01*
X103378000Y-60325000D02*
X103378000Y-61569900D01*
X98124300Y-66406300D02*
X92583000Y-66406300D01*
X101445900Y-63084700D02*
X98124300Y-66406300D01*
X101445900Y-63008100D02*
X101445900Y-63084700D01*
X102884100Y-61569900D02*
X101445900Y-63008100D01*
X103378000Y-61569900D02*
X102884100Y-61569900D01*
X91313000Y-65025000D02*
X91313000Y-63643700D01*
X96625200Y-58331500D02*
X98739300Y-58331500D01*
X91313000Y-63643700D02*
X96625200Y-58331500D01*
X90043000Y-65025000D02*
X90043000Y-63643700D01*
X103378000Y-62865000D02*
X104785200Y-61457800D01*
X90405900Y-63643700D02*
X90579500Y-63470100D01*
X90043000Y-63643700D02*
X90405900Y-63643700D01*
X88773000Y-65025000D02*
X88773000Y-63643700D01*
X94577700Y-57839000D02*
X95353800Y-57839000D01*
X88773000Y-63643700D02*
X94577700Y-57839000D01*
X100616800Y-66921300D02*
X102133100Y-65405000D01*
X88018000Y-66921300D02*
X100616800Y-66921300D01*
X87503000Y-66406300D02*
X88018000Y-66921300D01*
X87503000Y-65025000D02*
X87503000Y-66406300D01*
X103378000Y-65405000D02*
X102133100Y-65405000D01*
X105918000Y-70485000D02*
X104673100Y-70485000D01*
X78613000Y-77215000D02*
X78613000Y-75833700D01*
X104673100Y-70018200D02*
X104673100Y-70485000D01*
X103868500Y-69213600D02*
X104673100Y-70018200D01*
X99701500Y-69213600D02*
X103868500Y-69213600D01*
X97660200Y-71254900D02*
X99701500Y-69213600D01*
X83191800Y-71254900D02*
X97660200Y-71254900D01*
X78613000Y-75833700D02*
X83191800Y-71254900D01*
X79883000Y-77215000D02*
X79883000Y-75833700D01*
X103378000Y-70485000D02*
X102133100Y-70485000D01*
X83953500Y-71763200D02*
X79883000Y-75833700D01*
X100854900Y-71763200D02*
X83953500Y-71763200D01*
X102133100Y-70485000D02*
X100854900Y-71763200D01*
X104673100Y-72509200D02*
X104673100Y-73025000D01*
X103918900Y-71755000D02*
X104673100Y-72509200D01*
X101980400Y-71755000D02*
X103918900Y-71755000D01*
X101409400Y-72326000D02*
X101980400Y-71755000D01*
X84660700Y-72326000D02*
X101409400Y-72326000D01*
X81153000Y-75833700D02*
X84660700Y-72326000D01*
X81153000Y-77215000D02*
X81153000Y-75833700D01*
X105918000Y-73025000D02*
X104673100Y-73025000D01*
X82423000Y-77215000D02*
X82423000Y-75833700D01*
X103378000Y-73025000D02*
X102133100Y-73025000D01*
X82931300Y-75325400D02*
X82423000Y-75833700D01*
X84752500Y-75325400D02*
X82931300Y-75325400D01*
X86723100Y-73354800D02*
X84752500Y-75325400D01*
X96976500Y-73354800D02*
X86723100Y-73354800D01*
X97811200Y-74189500D02*
X96976500Y-73354800D01*
X100968600Y-74189500D02*
X97811200Y-74189500D01*
X102133100Y-73025000D02*
X100968600Y-74189500D01*
X85698400Y-75098300D02*
X88137900Y-75098300D01*
X84963000Y-75833700D02*
X85698400Y-75098300D01*
X83693000Y-75833700D02*
X84963000Y-75833700D01*
X83693000Y-77215000D02*
X83693000Y-75833700D01*
X101490100Y-75565000D02*
X103378000Y-75565000D01*
X100579400Y-76475700D02*
X101490100Y-75565000D01*
X98344100Y-76475700D02*
X100579400Y-76475700D01*
X97044600Y-77775200D02*
X98344100Y-76475700D01*
X91238700Y-77775200D02*
X97044600Y-77775200D01*
X89297100Y-75833600D02*
X91238700Y-77775200D01*
X85764900Y-75833600D02*
X89297100Y-75833600D01*
X84963000Y-76635500D02*
X85764900Y-75833600D01*
X84963000Y-77215000D02*
X84963000Y-76635500D01*
X104673100Y-78620800D02*
X104673100Y-78105000D01*
X103918900Y-79375000D02*
X104673100Y-78620800D01*
X87011700Y-79375000D02*
X103918900Y-79375000D01*
X86233000Y-78596300D02*
X87011700Y-79375000D01*
X86233000Y-77215000D02*
X86233000Y-78596300D01*
X105918000Y-78105000D02*
X104673100Y-78105000D01*
X101497700Y-78740400D02*
X102133100Y-78105000D01*
X87647100Y-78740400D02*
X101497700Y-78740400D01*
X87503000Y-78596300D02*
X87647100Y-78740400D01*
X87503000Y-77215000D02*
X87503000Y-78596300D01*
X103378000Y-78105000D02*
X102133100Y-78105000D01*
X105918000Y-80645000D02*
X104673100Y-80645000D01*
X87503000Y-86615000D02*
X87503000Y-85233700D01*
X104673100Y-81111900D02*
X104673100Y-80645000D01*
X103895100Y-81889900D02*
X104673100Y-81111900D01*
X90846800Y-81889900D02*
X103895100Y-81889900D01*
X87503000Y-85233700D02*
X90846800Y-81889900D01*
X86233000Y-86615000D02*
X86233000Y-85233700D01*
X101760800Y-81017300D02*
X102133100Y-80645000D01*
X90449400Y-81017300D02*
X101760800Y-81017300D01*
X86233000Y-85233700D02*
X90449400Y-81017300D01*
X103378000Y-80645000D02*
X102133100Y-80645000D01*
X84963000Y-86615000D02*
X84963000Y-85233700D01*
X90440200Y-80136600D02*
X101212600Y-80136600D01*
X85343100Y-85233700D02*
X90440200Y-80136600D01*
X84963000Y-85233700D02*
X85343100Y-85233700D01*
X83693000Y-86615000D02*
X83693000Y-87996300D01*
X103378000Y-83185000D02*
X102133100Y-83185000D01*
X96745000Y-87996300D02*
X83693000Y-87996300D01*
X101556300Y-83185000D02*
X96745000Y-87996300D01*
X102133100Y-83185000D02*
X101556300Y-83185000D01*
X104673100Y-86240800D02*
X104673100Y-85725000D01*
X103918900Y-86995000D02*
X104673100Y-86240800D01*
X101980500Y-86995000D02*
X103918900Y-86995000D01*
X99808600Y-89166900D02*
X101980500Y-86995000D01*
X81923300Y-89166900D02*
X99808600Y-89166900D01*
X105918000Y-85725000D02*
X104673100Y-85725000D01*
X82423000Y-86615000D02*
X82423000Y-85233700D01*
X84040200Y-85233700D02*
X85592600Y-83681300D01*
X82423000Y-85233700D02*
X84040200Y-85233700D01*
X81153000Y-86615000D02*
X81153000Y-87996300D01*
X103378000Y-85725000D02*
X102133100Y-85725000D01*
X81716200Y-87996300D02*
X81153000Y-87996300D01*
X82252800Y-88532900D02*
X81716200Y-87996300D01*
X99325200Y-88532900D02*
X82252800Y-88532900D01*
X102133100Y-85725000D02*
X99325200Y-88532900D01*
X79883000Y-86615000D02*
X79883000Y-87996300D01*
X105918000Y-88265000D02*
X104673100Y-88265000D01*
X104673100Y-88780800D02*
X104673100Y-88265000D01*
X103778600Y-89675300D02*
X104673100Y-88780800D01*
X82378400Y-89675300D02*
X103778600Y-89675300D01*
X82205500Y-89848200D02*
X82378400Y-89675300D01*
X81641200Y-89848200D02*
X82205500Y-89848200D01*
X79883000Y-88090000D02*
X81641200Y-89848200D01*
X79883000Y-87996300D02*
X79883000Y-88090000D01*
X78613000Y-86615000D02*
X78613000Y-87996300D01*
X103332300Y-91039900D02*
X103378000Y-90994200D01*
X81656600Y-91039900D02*
X103332300Y-91039900D01*
X78613000Y-87996300D02*
X81656600Y-91039900D01*
X84963000Y-97535000D02*
X84963000Y-96153700D01*
X105918000Y-95885000D02*
X104673100Y-95885000D01*
X104673100Y-95418100D02*
X104673100Y-95885000D01*
X101947100Y-92692100D02*
X104673100Y-95418100D01*
X101105700Y-92692100D02*
X101947100Y-92692100D01*
X100989300Y-92575700D02*
X101105700Y-92692100D01*
X88541000Y-92575700D02*
X100989300Y-92575700D01*
X84963000Y-96153700D02*
X88541000Y-92575700D01*
X86233000Y-97535000D02*
X86233000Y-96153700D01*
X103378000Y-95885000D02*
X102133100Y-95885000D01*
X89302700Y-93084000D02*
X86233000Y-96153700D01*
X99332100Y-93084000D02*
X89302700Y-93084000D01*
X102133100Y-95885000D02*
X99332100Y-93084000D01*
X104673100Y-97909200D02*
X104673100Y-98425000D01*
X103918900Y-97155000D02*
X104673100Y-97909200D01*
X101980500Y-97155000D02*
X103918900Y-97155000D01*
X98417800Y-93592300D02*
X101980500Y-97155000D01*
X90064400Y-93592300D02*
X98417800Y-93592300D01*
X87503000Y-96153700D02*
X90064400Y-93592300D01*
X87503000Y-97535000D02*
X87503000Y-96153700D01*
X105918000Y-98425000D02*
X104673100Y-98425000D01*
X88773000Y-97535000D02*
X88773000Y-96153700D01*
X103378000Y-98425000D02*
X102133100Y-98425000D01*
X90826100Y-94100600D02*
X88773000Y-96153700D01*
X97808700Y-94100600D02*
X90826100Y-94100600D01*
X102133100Y-98425000D02*
X97808700Y-94100600D01*
X104673100Y-100449200D02*
X104673100Y-100965000D01*
X103918900Y-99695000D02*
X104673100Y-100449200D01*
X102668400Y-99695000D02*
X103918900Y-99695000D01*
X97582300Y-94608900D02*
X102668400Y-99695000D01*
X91587800Y-94608900D02*
X97582300Y-94608900D01*
X90043000Y-96153700D02*
X91587800Y-94608900D01*
X90043000Y-97535000D02*
X90043000Y-96153700D01*
X105918000Y-100965000D02*
X104673100Y-100965000D01*
X91313000Y-97535000D02*
X91313000Y-96153700D01*
X102659200Y-100965000D02*
X103378000Y-100965000D01*
X96816700Y-95122500D02*
X102659200Y-100965000D01*
X92344200Y-95122500D02*
X96816700Y-95122500D01*
X91313000Y-96153700D02*
X92344200Y-95122500D01*
X105918000Y-103505000D02*
X104673100Y-103505000D01*
X92583000Y-97535000D02*
X92583000Y-96153700D01*
X93105900Y-95630800D02*
X92583000Y-96153700D01*
X96265500Y-95630800D02*
X93105900Y-95630800D01*
X102894800Y-102260100D02*
X96265500Y-95630800D01*
X103895100Y-102260100D02*
X102894800Y-102260100D01*
X104673100Y-103038100D02*
X103895100Y-102260100D01*
X104673100Y-103505000D02*
X104673100Y-103038100D01*
X103378000Y-103505000D02*
X102133100Y-103505000D01*
X93853000Y-97535000D02*
X93853000Y-96153700D01*
X95646900Y-96153700D02*
X93853000Y-96153700D01*
X102133100Y-102639900D02*
X95646900Y-96153700D01*
X102133100Y-103505000D02*
X102133100Y-102639900D01*
X96478400Y-105553700D02*
X93853000Y-105553700D01*
X98239700Y-107315000D02*
X96478400Y-105553700D01*
X103869900Y-107315000D02*
X98239700Y-107315000D01*
X104673100Y-106511800D02*
X103869900Y-107315000D01*
X104673100Y-106045000D02*
X104673100Y-106511800D01*
X105918000Y-106045000D02*
X104673100Y-106045000D01*
X93853000Y-106935000D02*
X93853000Y-105553700D01*
X92583000Y-106935000D02*
X92583000Y-105553700D01*
X103378000Y-106045000D02*
X102133100Y-106045000D01*
X101133500Y-105045400D02*
X102133100Y-106045000D01*
X93091300Y-105045400D02*
X101133500Y-105045400D01*
X92583000Y-105553700D02*
X93091300Y-105045400D01*
X92388900Y-104477800D02*
X91313000Y-105553700D01*
X101764300Y-104477800D02*
X92388900Y-104477800D01*
X102061500Y-104775000D02*
X101764300Y-104477800D01*
X106435000Y-104775000D02*
X102061500Y-104775000D01*
X107171400Y-105511400D02*
X106435000Y-104775000D01*
X107171400Y-106553500D02*
X107171400Y-105511400D01*
X106384800Y-107340100D02*
X107171400Y-106553500D01*
X105918000Y-107340100D02*
X106384800Y-107340100D01*
X105918000Y-108585000D02*
X105918000Y-107340100D01*
X91313000Y-106935000D02*
X91313000Y-105553700D01*
X101864400Y-108316300D02*
X102133100Y-108585000D01*
X90043000Y-108316300D02*
X101864400Y-108316300D01*
X90043000Y-106935000D02*
X90043000Y-108316300D01*
X103378000Y-108585000D02*
X102133100Y-108585000D01*
X89364500Y-108907800D02*
X88773000Y-108316300D01*
X101263900Y-108907800D02*
X89364500Y-108907800D01*
X102236200Y-109880100D02*
X101263900Y-108907800D01*
X103895100Y-109880100D02*
X102236200Y-109880100D01*
X104673100Y-110658100D02*
X103895100Y-109880100D01*
X104673100Y-111125000D02*
X104673100Y-110658100D01*
X105918000Y-111125000D02*
X104673100Y-111125000D01*
X88773000Y-106935000D02*
X88773000Y-108316300D01*
X103378000Y-111125000D02*
X102133100Y-111125000D01*
X87503000Y-106935000D02*
X87503000Y-108316300D01*
X100424200Y-109416100D02*
X102133100Y-111125000D01*
X88602800Y-109416100D02*
X100424200Y-109416100D01*
X87503000Y-108316300D02*
X88602800Y-109416100D01*
X86233000Y-106935000D02*
X86233000Y-105553700D01*
X105918000Y-113665000D02*
X104673100Y-113665000D01*
X104673100Y-114180800D02*
X104673100Y-113665000D01*
X103918000Y-114935900D02*
X104673100Y-114180800D01*
X93616100Y-114935900D02*
X103918000Y-114935900D01*
X89421000Y-110740800D02*
X93616100Y-114935900D01*
X82862200Y-110740800D02*
X89421000Y-110740800D01*
X80471500Y-108350100D02*
X82862200Y-110740800D01*
X80471500Y-105721300D02*
X80471500Y-108350100D01*
X80639100Y-105553700D02*
X80471500Y-105721300D01*
X86233000Y-105553700D02*
X80639100Y-105553700D01*
X84963000Y-106935000D02*
X84963000Y-108316300D01*
X103378000Y-113665000D02*
X102133100Y-113665000D01*
X98392500Y-109924400D02*
X102133100Y-113665000D01*
X86571100Y-109924400D02*
X98392500Y-109924400D01*
X84963000Y-108316300D02*
X86571100Y-109924400D01*
X105918000Y-121285000D02*
X104673100Y-121285000D01*
X87503000Y-121665000D02*
X87503000Y-120283700D01*
X104673100Y-120818200D02*
X104673100Y-121285000D01*
X103070300Y-119215400D02*
X104673100Y-120818200D01*
X88571300Y-119215400D02*
X103070300Y-119215400D01*
X87503000Y-120283700D02*
X88571300Y-119215400D01*
X90392000Y-124665300D02*
X94951600Y-124665300D01*
X88773000Y-123046300D02*
X90392000Y-124665300D01*
X88773000Y-121665000D02*
X88773000Y-123046300D01*
X104673100Y-123309200D02*
X104673100Y-123825000D01*
X103918900Y-122555000D02*
X104673100Y-123309200D01*
X101980500Y-122555000D02*
X103918900Y-122555000D01*
X99195700Y-119770200D02*
X101980500Y-122555000D01*
X90556500Y-119770200D02*
X99195700Y-119770200D01*
X90043000Y-120283700D02*
X90556500Y-119770200D01*
X90043000Y-121665000D02*
X90043000Y-120283700D01*
X105918000Y-123825000D02*
X104673100Y-123825000D01*
X98591800Y-120283700D02*
X91313000Y-120283700D01*
X102133100Y-123825000D02*
X98591800Y-120283700D01*
X103378000Y-123825000D02*
X102133100Y-123825000D01*
X91313000Y-121665000D02*
X91313000Y-120283700D01*
X92583000Y-123254200D02*
X92583000Y-121665000D01*
X93853000Y-121665000D02*
X93853000Y-123046300D01*
X103378000Y-126365000D02*
X102133100Y-126365000D01*
X102074300Y-126423800D02*
X102133100Y-126365000D01*
X97673600Y-126423800D02*
X102074300Y-126423800D01*
X94296100Y-123046300D02*
X97673600Y-126423800D01*
X93853000Y-123046300D02*
X94296100Y-123046300D01*
X97819200Y-125742500D02*
X101247700Y-125742500D01*
X95123000Y-123046300D02*
X97819200Y-125742500D01*
X95123000Y-121665000D02*
X95123000Y-123046300D01*
X96393000Y-121665000D02*
X96393000Y-123046300D01*
X103378000Y-128905000D02*
X103378000Y-127660100D01*
X98407900Y-125061200D02*
X96393000Y-123046300D01*
X101529900Y-125061200D02*
X98407900Y-125061200D01*
X101563800Y-125095100D02*
X101529900Y-125061200D01*
X103870300Y-125095100D02*
X101563800Y-125095100D01*
X104653100Y-125877900D02*
X103870300Y-125095100D01*
X104653100Y-126900800D02*
X104653100Y-125877900D01*
X103893800Y-127660100D02*
X104653100Y-126900800D01*
X103378000Y-127660100D02*
X103893800Y-127660100D01*
X96393000Y-131065000D02*
X96393000Y-132446300D01*
X105918000Y-131445000D02*
X104673100Y-131445000D01*
X102166500Y-132446300D02*
X96393000Y-132446300D01*
X102435100Y-132714900D02*
X102166500Y-132446300D01*
X103919000Y-132714900D02*
X102435100Y-132714900D01*
X104673100Y-131960800D02*
X103919000Y-132714900D01*
X104673100Y-131445000D02*
X104673100Y-131960800D01*
X95123000Y-131065000D02*
X95123000Y-129683700D01*
X103378000Y-131445000D02*
X102133100Y-131445000D01*
X100371800Y-129683700D02*
X102133100Y-131445000D01*
X95123000Y-129683700D02*
X100371800Y-129683700D01*
X94630000Y-133223300D02*
X101937800Y-133223300D01*
X93853000Y-132446300D02*
X94630000Y-133223300D01*
X93853000Y-131065000D02*
X93853000Y-132446300D01*
X92583000Y-131065000D02*
X92583000Y-132446300D01*
X103378000Y-133985000D02*
X102133100Y-133985000D01*
X94121700Y-133985000D02*
X102133100Y-133985000D01*
X92583000Y-132446300D02*
X94121700Y-133985000D01*
X94146800Y-135280100D02*
X91313000Y-132446300D01*
X103895100Y-135280100D02*
X94146800Y-135280100D01*
X104673100Y-136058100D02*
X103895100Y-135280100D01*
X104673100Y-136525000D02*
X104673100Y-136058100D01*
X105918000Y-136525000D02*
X104673100Y-136525000D01*
X91313000Y-131065000D02*
X91313000Y-132446300D01*
X90043000Y-131065000D02*
X90043000Y-132446300D01*
X94121700Y-136525000D02*
X90043000Y-132446300D01*
X103378000Y-136525000D02*
X94121700Y-136525000D01*
X94146800Y-137820100D02*
X88773000Y-132446300D01*
X103895100Y-137820100D02*
X94146800Y-137820100D01*
X104673100Y-138598100D02*
X103895100Y-137820100D01*
X104673100Y-139065000D02*
X104673100Y-138598100D01*
X105918000Y-139065000D02*
X104673100Y-139065000D01*
X88773000Y-131065000D02*
X88773000Y-132446300D01*
X94121700Y-139065000D02*
X103378000Y-139065000D01*
X87503000Y-132446300D02*
X94121700Y-139065000D01*
X87503000Y-131065000D02*
X87503000Y-132446300D01*
X34618700Y-77273700D02*
X33787400Y-78105000D01*
X38438000Y-77273700D02*
X34618700Y-77273700D01*
X38438000Y-78105000D02*
X38438000Y-77273700D01*
X33007300Y-78105000D02*
X33787400Y-78105000D01*
X67410400Y-78275000D02*
X67009300Y-77873900D01*
X69088000Y-78275000D02*
X67410400Y-78275000D01*
X66228000Y-77873900D02*
X67009300Y-77873900D01*
X36238000Y-78105000D02*
X36238000Y-78936300D01*
X57008000Y-103505000D02*
X58139300Y-103505000D01*
X37069300Y-78936300D02*
X36238000Y-78936300D01*
X41619200Y-83486200D02*
X37069300Y-78936300D01*
X53570200Y-83486200D02*
X41619200Y-83486200D01*
X54673100Y-84589100D02*
X53570200Y-83486200D01*
X56241700Y-84589100D02*
X54673100Y-84589100D01*
X60062300Y-88409700D02*
X56241700Y-84589100D01*
X60062300Y-92045500D02*
X60062300Y-88409700D01*
X59731800Y-92376000D02*
X60062300Y-92045500D01*
X59731800Y-101912500D02*
X59731800Y-92376000D01*
X58139300Y-103505000D02*
X59731800Y-101912500D01*
X53881700Y-90005000D02*
X55631700Y-91755000D01*
X52408000Y-90005000D02*
X53881700Y-90005000D01*
X56388000Y-91755000D02*
X55631700Y-91755000D01*
X53708000Y-93678700D02*
X55631700Y-91755000D01*
X53708000Y-97805000D02*
X53708000Y-93678700D01*
X47134300Y-91605000D02*
X46984300Y-91755000D01*
X50208000Y-91605000D02*
X47134300Y-91605000D01*
X46228000Y-91755000D02*
X46984300Y-91755000D01*
X52908000Y-95286300D02*
X50208000Y-92586300D01*
X52908000Y-97805000D02*
X52908000Y-95286300D01*
X50208000Y-91605000D02*
X50208000Y-92586300D01*
X34618700Y-81083700D02*
X33787400Y-81915000D01*
X38438000Y-81083700D02*
X34618700Y-81083700D01*
X38438000Y-81915000D02*
X38438000Y-81083700D01*
X33007300Y-81915000D02*
X33787400Y-81915000D01*
X34618700Y-84893700D02*
X33787400Y-85725000D01*
X38438000Y-84893700D02*
X34618700Y-84893700D01*
X38438000Y-85725000D02*
X38438000Y-84893700D01*
X33007300Y-85725000D02*
X33787400Y-85725000D01*
X34618700Y-90366300D02*
X33787400Y-89535000D01*
X38438000Y-90366300D02*
X34618700Y-90366300D01*
X38438000Y-89535000D02*
X38438000Y-90366300D01*
X33007300Y-89535000D02*
X33787400Y-89535000D01*
X38047800Y-64033500D02*
X37209300Y-63195000D01*
X38514400Y-64033500D02*
X38047800Y-64033500D01*
X36028000Y-63195000D02*
X37209300Y-63195000D01*
X55308000Y-109205000D02*
X55308000Y-108073700D01*
X61989400Y-95576400D02*
X62147000Y-95418800D01*
X61989400Y-98526600D02*
X61989400Y-95576400D01*
X62141800Y-98679000D02*
X61989400Y-98526600D01*
X62141800Y-103960100D02*
X62141800Y-98679000D01*
X57886700Y-108215200D02*
X62141800Y-103960100D01*
X55907100Y-108215200D02*
X57886700Y-108215200D01*
X55765600Y-108073700D02*
X55907100Y-108215200D01*
X55308000Y-108073700D02*
X55765600Y-108073700D01*
X52597600Y-85097400D02*
X45858300Y-85097400D01*
X53105900Y-85605700D02*
X52597600Y-85097400D01*
X55134600Y-85605700D02*
X53105900Y-85605700D01*
X55815900Y-86287000D02*
X55134600Y-85605700D01*
X36028000Y-59995000D02*
X39968900Y-59995000D01*
X51509400Y-81961300D02*
X51704500Y-81766200D01*
X46715500Y-81961300D02*
X51509400Y-81961300D01*
X46501200Y-81747000D02*
X46715500Y-81961300D01*
X46501200Y-81201500D02*
X46501200Y-81747000D01*
X45767900Y-80468200D02*
X46501200Y-81201500D01*
X45627400Y-80468200D02*
X45767900Y-80468200D01*
X51998400Y-105434500D02*
X51096500Y-105434500D01*
X54508000Y-107944100D02*
X51998400Y-105434500D01*
X54508000Y-109205000D02*
X54508000Y-107944100D01*
X33047800Y-64033500D02*
X32209300Y-63195000D01*
X33086400Y-64033500D02*
X33047800Y-64033500D01*
X31028000Y-63195000D02*
X32209300Y-63195000D01*
X37771100Y-95208300D02*
X45082500Y-95208300D01*
X52622200Y-104494000D02*
X47181700Y-104494000D01*
X55633200Y-107505000D02*
X52622200Y-104494000D01*
X57008000Y-107505000D02*
X55633200Y-107505000D01*
X33745800Y-61531500D02*
X32209300Y-59995000D01*
X35844000Y-61531500D02*
X33745800Y-61531500D01*
X31028000Y-59995000D02*
X32209300Y-59995000D01*
X47943800Y-106115800D02*
X47192300Y-105364300D01*
X51900600Y-106115800D02*
X47943800Y-106115800D01*
X53708000Y-107923200D02*
X51900600Y-106115800D01*
X53708000Y-109205000D02*
X53708000Y-107923200D01*
X47308000Y-109205000D02*
X47308000Y-110336300D01*
X36028000Y-126695000D02*
X37209300Y-126695000D01*
X37209300Y-118477000D02*
X37209300Y-126695000D01*
X45350000Y-110336300D02*
X37209300Y-118477000D01*
X47308000Y-110336300D02*
X45350000Y-110336300D01*
X45608000Y-107505000D02*
X44476700Y-107505000D01*
X43535300Y-108446400D02*
X44476700Y-107505000D01*
X43535300Y-109832600D02*
X43535300Y-108446400D01*
X36028000Y-117339900D02*
X43535300Y-109832600D01*
X36028000Y-123495000D02*
X36028000Y-117339900D01*
X31028000Y-126695000D02*
X32209300Y-126695000D01*
X48108000Y-109205000D02*
X48108000Y-110336300D01*
X33090600Y-127576300D02*
X32209300Y-126695000D01*
X37053400Y-127576300D02*
X33090600Y-127576300D01*
X38645700Y-125984000D02*
X37053400Y-127576300D01*
X38645700Y-117779700D02*
X38645700Y-125984000D01*
X42286500Y-114138900D02*
X38645700Y-117779700D01*
X44305400Y-114138900D02*
X42286500Y-114138900D01*
X48108000Y-110336300D02*
X44305400Y-114138900D01*
X32209300Y-120439800D02*
X32209300Y-123495000D01*
X42847500Y-109801600D02*
X32209300Y-120439800D01*
X42847500Y-108334200D02*
X42847500Y-109801600D01*
X44476700Y-106705000D02*
X42847500Y-108334200D01*
X45608000Y-106705000D02*
X44476700Y-106705000D01*
X31028000Y-123495000D02*
X32209300Y-123495000D01*
X53801100Y-98936300D02*
X53597200Y-99140200D01*
X54508000Y-98936300D02*
X53801100Y-98936300D01*
X54508000Y-98370600D02*
X54508000Y-98936300D01*
X54508000Y-98370600D02*
X54508000Y-97805000D01*
X37955000Y-92547400D02*
X33748000Y-92547400D01*
X42517400Y-87985000D02*
X37955000Y-92547400D01*
X56762400Y-87985000D02*
X42517400Y-87985000D01*
X58015800Y-89238400D02*
X56762400Y-87985000D01*
X58015800Y-90962800D02*
X58015800Y-89238400D01*
X57151700Y-91826900D02*
X58015800Y-90962800D01*
X57151700Y-92841800D02*
X57151700Y-91826900D01*
X54508000Y-95485500D02*
X57151700Y-92841800D01*
X54508000Y-97805000D02*
X54508000Y-95485500D01*
X35528000Y-71828200D02*
X33748000Y-71828200D01*
X35528000Y-68880000D02*
X35528000Y-71828200D01*
X35528000Y-71828200D02*
X35528000Y-74630000D01*
X82310800Y-92671200D02*
X82310800Y-93182200D01*
X79603700Y-89964100D02*
X82310800Y-92671200D01*
X81644800Y-60208200D02*
X84689400Y-63252800D01*
X52584700Y-60208200D02*
X81644800Y-60208200D01*
X52040000Y-60752900D02*
X52584700Y-60208200D01*
X67125200Y-126380000D02*
X58704500Y-126380000D01*
X67920800Y-127175600D02*
X67125200Y-126380000D01*
X76677700Y-127175600D02*
X67920800Y-127175600D01*
X78841700Y-125011600D02*
X76677700Y-127175600D01*
X83375500Y-125011600D02*
X78841700Y-125011600D01*
X50259800Y-93877500D02*
X47810200Y-93877500D01*
X55796600Y-105024900D02*
X55876700Y-105105000D01*
X54322500Y-105024900D02*
X55796600Y-105024900D01*
X57008000Y-105105000D02*
X55876700Y-105105000D01*
X36369900Y-113014100D02*
X40576800Y-108807200D01*
X33820500Y-113014100D02*
X36369900Y-113014100D01*
X53275100Y-102017700D02*
X48862500Y-102017700D01*
X49418200Y-114731800D02*
X49088800Y-114402400D01*
X55927800Y-114731800D02*
X49418200Y-114731800D01*
X57008000Y-104305000D02*
X58139300Y-104305000D01*
X58139300Y-104305000D02*
X58312900Y-104305000D01*
X37996600Y-113664100D02*
X40576400Y-111084300D01*
X33820500Y-113664100D02*
X37996600Y-113664100D01*
X120778000Y-52070000D02*
X122670000Y-52070000D01*
X123362500Y-51409500D02*
X123081300Y-51128300D01*
X123362500Y-52345000D02*
X123362500Y-51409500D01*
X122367500Y-53340000D02*
X123362500Y-52345000D01*
X120778000Y-53340000D02*
X122367500Y-53340000D01*
X120778000Y-54610000D02*
X122159300Y-54610000D01*
X122159300Y-54610000D02*
X122344900Y-54610000D01*
X120778000Y-55880000D02*
X122159300Y-55880000D01*
X126238000Y-50165000D02*
X126238000Y-51409900D01*
X125722200Y-51409900D02*
X126238000Y-51409900D01*
X123369200Y-53762900D02*
X125722200Y-51409900D01*
X123369200Y-54670100D02*
X123369200Y-53762900D01*
X122159300Y-55880000D02*
X123369200Y-54670100D01*
X121854200Y-57150000D02*
X120778000Y-57150000D01*
X122341500Y-56662700D02*
X121854200Y-57150000D01*
X120778000Y-58420000D02*
X122159300Y-58420000D01*
X126238000Y-52705000D02*
X126238000Y-53949900D01*
X125722200Y-53949900D02*
X126238000Y-53949900D01*
X123575100Y-56097000D02*
X125722200Y-53949900D01*
X123575100Y-56392600D02*
X123575100Y-56097000D01*
X122159300Y-57808400D02*
X123575100Y-56392600D01*
X122159300Y-58420000D02*
X122159300Y-57808400D01*
X122159300Y-59305300D02*
X122159300Y-59690000D01*
X122962400Y-58502200D02*
X122159300Y-59305300D01*
X120778000Y-59690000D02*
X122159300Y-59690000D01*
X120778000Y-60960000D02*
X122159300Y-60960000D01*
X126238000Y-55245000D02*
X126238000Y-56489900D01*
X125722200Y-56489900D02*
X126238000Y-56489900D01*
X123643700Y-58568400D02*
X125722200Y-56489900D01*
X123643700Y-59475600D02*
X123643700Y-58568400D01*
X122159300Y-60960000D02*
X123643700Y-59475600D01*
X128778000Y-57785000D02*
X127533100Y-57785000D01*
X127533100Y-58300800D02*
X127533100Y-57785000D01*
X126778900Y-59055000D02*
X127533100Y-58300800D01*
X125691100Y-59055000D02*
X126778900Y-59055000D01*
X124177100Y-60569000D02*
X125691100Y-59055000D01*
X124177100Y-61388900D02*
X124177100Y-60569000D01*
X122144800Y-63421200D02*
X124177100Y-61388900D01*
X117965700Y-63421200D02*
X122144800Y-63421200D01*
X115504500Y-60960000D02*
X117965700Y-63421200D01*
X111378000Y-60960000D02*
X115504500Y-60960000D01*
X123351000Y-60672000D02*
X126238000Y-57785000D01*
X123351000Y-61496200D02*
X123351000Y-60672000D01*
X121934300Y-62912900D02*
X123351000Y-61496200D01*
X118176200Y-62912900D02*
X121934300Y-62912900D01*
X114953300Y-59690000D02*
X118176200Y-62912900D01*
X111378000Y-59690000D02*
X114953300Y-59690000D01*
X111378000Y-58420000D02*
X109996700Y-58420000D01*
X128778000Y-60325000D02*
X127533100Y-60325000D01*
X127533100Y-60840800D02*
X127533100Y-60325000D01*
X126778900Y-61595000D02*
X127533100Y-60840800D01*
X124689800Y-61595000D02*
X126778900Y-61595000D01*
X122355300Y-63929500D02*
X124689800Y-61595000D01*
X110762200Y-63929500D02*
X122355300Y-63929500D01*
X109996700Y-63164000D02*
X110762200Y-63929500D01*
X109996700Y-58420000D02*
X109996700Y-63164000D01*
X111378000Y-57150000D02*
X119208600Y-57150000D01*
X111378000Y-55880000D02*
X112759300Y-55880000D01*
X113181500Y-55457800D02*
X119217900Y-55457800D01*
X112759300Y-55880000D02*
X113181500Y-55457800D01*
X111378000Y-54610000D02*
X109996700Y-54610000D01*
X126238000Y-62865000D02*
X124993100Y-62865000D01*
X124138600Y-62865000D02*
X124993100Y-62865000D01*
X122565800Y-64437800D02*
X124138600Y-62865000D01*
X110551700Y-64437800D02*
X122565800Y-64437800D01*
X109488400Y-63374500D02*
X110551700Y-64437800D01*
X109488400Y-55118300D02*
X109488400Y-63374500D01*
X109996700Y-54610000D02*
X109488400Y-55118300D01*
X111378000Y-53340000D02*
X109996700Y-53340000D01*
X128778000Y-65405000D02*
X127533100Y-65405000D01*
X127533100Y-64889200D02*
X127533100Y-65405000D01*
X126778900Y-64135000D02*
X127533100Y-64889200D01*
X123587400Y-64135000D02*
X126778900Y-64135000D01*
X122776300Y-64946100D02*
X123587400Y-64135000D01*
X110284000Y-64946100D02*
X122776300Y-64946100D01*
X108980100Y-63642200D02*
X110284000Y-64946100D01*
X108980100Y-54356600D02*
X108980100Y-63642200D01*
X109996700Y-53340000D02*
X108980100Y-54356600D01*
X111378000Y-52070000D02*
X109996700Y-52070000D01*
X126238000Y-65405000D02*
X124993100Y-65405000D01*
X124943700Y-65454400D02*
X124993100Y-65405000D01*
X110000400Y-65454400D02*
X124943700Y-65454400D01*
X108471800Y-63925800D02*
X110000400Y-65454400D01*
X108471800Y-53594900D02*
X108471800Y-63925800D01*
X109996700Y-52070000D02*
X108471800Y-53594900D01*
X128778000Y-70485000D02*
X127533100Y-70485000D01*
X120778000Y-74930000D02*
X122159300Y-74930000D01*
X127533100Y-70018200D02*
X127533100Y-70485000D01*
X126704800Y-69189900D02*
X127533100Y-70018200D01*
X125730300Y-69189900D02*
X126704800Y-69189900D01*
X122667700Y-72252500D02*
X125730300Y-69189900D01*
X122667700Y-74421600D02*
X122667700Y-72252500D01*
X122159300Y-74930000D02*
X122667700Y-74421600D01*
X120778000Y-76200000D02*
X122159300Y-76200000D01*
X126238000Y-70485000D02*
X126238000Y-71729900D01*
X125722200Y-71729900D02*
X126238000Y-71729900D01*
X123183900Y-74268200D02*
X125722200Y-71729900D01*
X123183900Y-75175400D02*
X123183900Y-74268200D01*
X122159300Y-76200000D02*
X123183900Y-75175400D01*
X121903400Y-77470000D02*
X120778000Y-77470000D01*
X122356100Y-77017300D02*
X121903400Y-77470000D01*
X120778000Y-78740000D02*
X122159300Y-78740000D01*
X126238000Y-73025000D02*
X126238000Y-74269900D01*
X125722200Y-74269900D02*
X126238000Y-74269900D01*
X123550500Y-76441600D02*
X125722200Y-74269900D01*
X123550500Y-76786400D02*
X123550500Y-76441600D01*
X122159300Y-78177600D02*
X123550500Y-76786400D01*
X122159300Y-78740000D02*
X122159300Y-78177600D01*
X121609600Y-80010000D02*
X120778000Y-80010000D01*
X123156000Y-78463600D02*
X121609600Y-80010000D01*
X123156000Y-78388200D02*
X123156000Y-78463600D01*
X120778000Y-81280000D02*
X122159300Y-81280000D01*
X126238000Y-75565000D02*
X126238000Y-76809900D01*
X122159300Y-80357200D02*
X122159300Y-81280000D01*
X125706600Y-76809900D02*
X122159300Y-80357200D01*
X126238000Y-76809900D02*
X125706600Y-76809900D01*
X124212000Y-79950400D02*
X124212000Y-79756500D01*
X121612400Y-82550000D02*
X124212000Y-79950400D01*
X120778000Y-82550000D02*
X121612400Y-82550000D01*
X125722200Y-79349900D02*
X126238000Y-79349900D01*
X122159300Y-82912800D02*
X125722200Y-79349900D01*
X122159300Y-83820000D02*
X122159300Y-82912800D01*
X120778000Y-83820000D02*
X122159300Y-83820000D01*
X126238000Y-78105000D02*
X126238000Y-79349900D01*
X128778000Y-80645000D02*
X128778000Y-81889900D01*
X113577400Y-83820000D02*
X111378000Y-83820000D01*
X116095800Y-86338400D02*
X113577400Y-83820000D01*
X123617200Y-86338400D02*
X116095800Y-86338400D01*
X125500600Y-84455000D02*
X123617200Y-86338400D01*
X126789400Y-84455000D02*
X125500600Y-84455000D01*
X127533100Y-83711300D02*
X126789400Y-84455000D01*
X127533100Y-82667900D02*
X127533100Y-83711300D01*
X128311100Y-81889900D02*
X127533100Y-82667900D01*
X128778000Y-81889900D02*
X128311100Y-81889900D01*
X114073400Y-82550000D02*
X111378000Y-82550000D01*
X117336600Y-85813200D02*
X114073400Y-82550000D01*
X121915400Y-85813200D02*
X117336600Y-85813200D01*
X124993100Y-82735500D02*
X121915400Y-85813200D01*
X124993100Y-82629700D02*
X124993100Y-82735500D01*
X125732900Y-81889900D02*
X124993100Y-82629700D01*
X126238000Y-81889900D02*
X125732900Y-81889900D01*
X126238000Y-80645000D02*
X126238000Y-81889900D01*
X117495200Y-81280000D02*
X118800100Y-82584900D01*
X111378000Y-81280000D02*
X117495200Y-81280000D01*
X128778000Y-83185000D02*
X128778000Y-84429900D01*
X129293800Y-84429900D02*
X128778000Y-84429900D01*
X130073000Y-85209100D02*
X129293800Y-84429900D01*
X130073000Y-88811300D02*
X130073000Y-85209100D01*
X129317100Y-89567200D02*
X130073000Y-88811300D01*
X121602200Y-89567200D02*
X129317100Y-89567200D01*
X111378000Y-80010000D02*
X117991000Y-80010000D01*
X111378000Y-78740000D02*
X112759300Y-78740000D01*
X112784700Y-78714600D02*
X116713700Y-78714600D01*
X112759300Y-78740000D02*
X112784700Y-78714600D01*
X119248000Y-80257700D02*
X119248000Y-80709600D01*
X116460300Y-77470000D02*
X119248000Y-80257700D01*
X111378000Y-77470000D02*
X116460300Y-77470000D01*
X128778000Y-88265000D02*
X127533100Y-88265000D01*
X126778900Y-86995000D02*
X113288500Y-86995000D01*
X127533100Y-87749200D02*
X126778900Y-86995000D01*
X127533100Y-88265000D02*
X127533100Y-87749200D01*
X111378000Y-76200000D02*
X112759300Y-76200000D01*
X112759300Y-76200000D02*
X113288500Y-76200000D01*
X111378000Y-74930000D02*
X112759300Y-74930000D01*
X114681400Y-74930000D02*
X114923800Y-75172400D01*
X112759300Y-74930000D02*
X114681400Y-74930000D01*
X128778000Y-95885000D02*
X127533100Y-95885000D01*
X127533100Y-95418200D02*
X127533100Y-95885000D01*
X126693500Y-94578600D02*
X127533100Y-95418200D01*
X125712600Y-94578600D02*
X126693500Y-94578600D01*
X124993000Y-95298200D02*
X125712600Y-94578600D01*
X124993000Y-96741000D02*
X124993000Y-95298200D01*
X121404000Y-100330000D02*
X124993000Y-96741000D01*
X120778000Y-100330000D02*
X121404000Y-100330000D01*
X125722200Y-97129900D02*
X126238000Y-97129900D01*
X122159300Y-100692800D02*
X125722200Y-97129900D01*
X122159300Y-101600000D02*
X122159300Y-100692800D01*
X120778000Y-101600000D02*
X122159300Y-101600000D01*
X126238000Y-95885000D02*
X126238000Y-97129900D01*
X121612400Y-102870000D02*
X120778000Y-102870000D01*
X123228300Y-101254100D02*
X121612400Y-102870000D01*
X123228300Y-101216700D02*
X123228300Y-101254100D01*
X120778000Y-104140000D02*
X122159300Y-104140000D01*
X126238000Y-98425000D02*
X126238000Y-99669900D01*
X125738500Y-99669900D02*
X126238000Y-99669900D01*
X122159300Y-103249100D02*
X125738500Y-99669900D01*
X122159300Y-104140000D02*
X122159300Y-103249100D01*
X123322600Y-103890500D02*
X123669700Y-103890500D01*
X121803100Y-105410000D02*
X123322600Y-103890500D01*
X120778000Y-105410000D02*
X121803100Y-105410000D01*
X126238000Y-100965000D02*
X126238000Y-102209900D01*
X125722200Y-102209900D02*
X126238000Y-102209900D01*
X124351000Y-103581100D02*
X125722200Y-102209900D01*
X124351000Y-104172700D02*
X124351000Y-103581100D01*
X123951900Y-104571800D02*
X124351000Y-104172700D01*
X123487200Y-104571800D02*
X123951900Y-104571800D01*
X121379000Y-106680000D02*
X123487200Y-104571800D01*
X120778000Y-106680000D02*
X121379000Y-106680000D01*
X122988400Y-106365300D02*
X122988400Y-106036600D01*
X121403700Y-107950000D02*
X122988400Y-106365300D01*
X120778000Y-107950000D02*
X121403700Y-107950000D01*
X125539900Y-104749900D02*
X126238000Y-104749900D01*
X122159300Y-108130500D02*
X125539900Y-104749900D01*
X122159300Y-109220000D02*
X122159300Y-108130500D01*
X120778000Y-109220000D02*
X122159300Y-109220000D01*
X126238000Y-103505000D02*
X126238000Y-104749900D01*
X128778000Y-106045000D02*
X127533100Y-106045000D01*
X115541600Y-109220000D02*
X111378000Y-109220000D01*
X118095000Y-111773400D02*
X115541600Y-109220000D01*
X122100400Y-111773400D02*
X118095000Y-111773400D01*
X123637900Y-110235900D02*
X122100400Y-111773400D01*
X123637900Y-109360100D02*
X123637900Y-110235900D01*
X125683000Y-107315000D02*
X123637900Y-109360100D01*
X126778900Y-107315000D02*
X125683000Y-107315000D01*
X127533100Y-106560800D02*
X126778900Y-107315000D01*
X127533100Y-106045000D02*
X127533100Y-106560800D01*
X126238000Y-106045000D02*
X124993100Y-106045000D01*
X114990400Y-107950000D02*
X111378000Y-107950000D01*
X118255300Y-111214900D02*
X114990400Y-107950000D01*
X121921800Y-111214900D02*
X118255300Y-111214900D01*
X122831800Y-110304900D02*
X121921800Y-111214900D01*
X122831800Y-108206300D02*
X122831800Y-110304900D01*
X124993100Y-106045000D02*
X122831800Y-108206300D01*
X111378000Y-106680000D02*
X112759300Y-106680000D01*
X113228900Y-104619200D02*
X119214600Y-104619200D01*
X112759300Y-105088800D02*
X113228900Y-104619200D01*
X112759300Y-106680000D02*
X112759300Y-105088800D01*
X111378000Y-105410000D02*
X109996700Y-105410000D01*
X126238000Y-108585000D02*
X126238000Y-109829900D01*
X125725800Y-109829900D02*
X126238000Y-109829900D01*
X123592000Y-111963700D02*
X125725800Y-109829900D01*
X123592000Y-112245700D02*
X123592000Y-111963700D01*
X123002500Y-112835200D02*
X123592000Y-112245700D01*
X111823900Y-112835200D02*
X123002500Y-112835200D01*
X109996700Y-111008000D02*
X111823900Y-112835200D01*
X109996700Y-105410000D02*
X109996700Y-111008000D01*
X127533100Y-111640800D02*
X127533100Y-111125000D01*
X126778900Y-112395000D02*
X127533100Y-111640800D01*
X125059700Y-112395000D02*
X126778900Y-112395000D01*
X124060600Y-113394100D02*
X125059700Y-112395000D01*
X111601800Y-113394100D02*
X124060600Y-113394100D01*
X109446000Y-111238300D02*
X111601800Y-113394100D01*
X109446000Y-104690700D02*
X109446000Y-111238300D01*
X109996700Y-104140000D02*
X109446000Y-104690700D01*
X111378000Y-104140000D02*
X109996700Y-104140000D01*
X128778000Y-111125000D02*
X127533100Y-111125000D01*
X117914500Y-102870000D02*
X117919300Y-102874800D01*
X111378000Y-102870000D02*
X117914500Y-102870000D01*
X111378000Y-101600000D02*
X112759300Y-101600000D01*
X113347900Y-102188600D02*
X117397200Y-102188600D01*
X112759300Y-101600000D02*
X113347900Y-102188600D01*
X111378000Y-100330000D02*
X112759300Y-100330000D01*
X113623900Y-101194600D02*
X116715800Y-101194600D01*
X112759300Y-100330000D02*
X113623900Y-101194600D01*
X128778000Y-121285000D02*
X127533100Y-121285000D01*
X127533100Y-120818200D02*
X127533100Y-121285000D01*
X126733900Y-120019000D02*
X127533100Y-120818200D01*
X125672200Y-120019000D02*
X126733900Y-120019000D01*
X124993000Y-120698200D02*
X125672200Y-120019000D01*
X124993000Y-122095100D02*
X124993000Y-120698200D01*
X121358100Y-125730000D02*
X124993000Y-122095100D01*
X120778000Y-125730000D02*
X121358100Y-125730000D01*
X125722200Y-122529900D02*
X126238000Y-122529900D01*
X122159300Y-126092800D02*
X125722200Y-122529900D01*
X122159300Y-127000000D02*
X122159300Y-126092800D01*
X120778000Y-127000000D02*
X122159300Y-127000000D01*
X126238000Y-121285000D02*
X126238000Y-122529900D01*
X120778000Y-128270000D02*
X122159300Y-128270000D01*
X122159300Y-128270000D02*
X122347900Y-128270000D01*
X120778000Y-129540000D02*
X122159300Y-129540000D01*
X126238000Y-123825000D02*
X126238000Y-125069900D01*
X125722200Y-125069900D02*
X126238000Y-125069900D01*
X123446200Y-127345900D02*
X125722200Y-125069900D01*
X123446200Y-128253100D02*
X123446200Y-127345900D01*
X122159300Y-129540000D02*
X123446200Y-128253100D01*
X120778000Y-130810000D02*
X122159300Y-130810000D01*
X122159300Y-130810000D02*
X122360100Y-130810000D01*
X120778000Y-132080000D02*
X122159300Y-132080000D01*
X126238000Y-126365000D02*
X126238000Y-127609900D01*
X125722200Y-127609900D02*
X126238000Y-127609900D01*
X123299600Y-130032500D02*
X125722200Y-127609900D01*
X123299600Y-130939700D02*
X123299600Y-130032500D01*
X122159300Y-132080000D02*
X123299600Y-130939700D01*
X120778000Y-133350000D02*
X122159300Y-133350000D01*
X122159300Y-133350000D02*
X122341900Y-133350000D01*
X120778000Y-134620000D02*
X122159300Y-134620000D01*
X126238000Y-128905000D02*
X126238000Y-130149900D01*
X123066000Y-133713300D02*
X122159300Y-134620000D01*
X123066000Y-132778200D02*
X123066000Y-133713300D01*
X125694300Y-130149900D02*
X123066000Y-132778200D01*
X126238000Y-130149900D02*
X125694300Y-130149900D01*
X128778000Y-131445000D02*
X128778000Y-132689900D01*
X115212000Y-134620000D02*
X111378000Y-134620000D01*
X118274300Y-137682300D02*
X115212000Y-134620000D01*
X122503200Y-137682300D02*
X118274300Y-137682300D01*
X124930500Y-135255000D02*
X122503200Y-137682300D01*
X126789400Y-135255000D02*
X124930500Y-135255000D01*
X127533100Y-134511300D02*
X126789400Y-135255000D01*
X127533100Y-133467900D02*
X127533100Y-134511300D01*
X128311100Y-132689900D02*
X127533100Y-133467900D01*
X128778000Y-132689900D02*
X128311100Y-132689900D01*
X126238000Y-131445000D02*
X126238000Y-132689900D01*
X125772100Y-132689900D02*
X126238000Y-132689900D01*
X124993100Y-133468900D02*
X125772100Y-132689900D01*
X124993100Y-134321900D02*
X124993100Y-133468900D01*
X122186100Y-137128900D02*
X124993100Y-134321900D01*
X118562600Y-137128900D02*
X122186100Y-137128900D01*
X114783700Y-133350000D02*
X118562600Y-137128900D01*
X111378000Y-133350000D02*
X114783700Y-133350000D01*
X123755900Y-134804200D02*
X123755900Y-134571000D01*
X121948500Y-136611600D02*
X123755900Y-134804200D01*
X118764100Y-136611600D02*
X121948500Y-136611600D01*
X114232500Y-132080000D02*
X118764100Y-136611600D01*
X111378000Y-132080000D02*
X114232500Y-132080000D01*
X111378000Y-130810000D02*
X118019800Y-130810000D01*
X128778000Y-136525000D02*
X127533100Y-136525000D01*
X111378000Y-129540000D02*
X109996700Y-129540000D01*
X127533100Y-136991900D02*
X127533100Y-136525000D01*
X126755100Y-137769900D02*
X127533100Y-136991900D01*
X125549000Y-137769900D02*
X126755100Y-137769900D01*
X124568900Y-138750000D02*
X125549000Y-137769900D01*
X112297400Y-138750000D02*
X124568900Y-138750000D01*
X109996700Y-136449300D02*
X112297400Y-138750000D01*
X109996700Y-129540000D02*
X109996700Y-136449300D01*
X112938400Y-128449100D02*
X112759300Y-128270000D01*
X116867200Y-128449100D02*
X112938400Y-128449100D01*
X111378000Y-128270000D02*
X112759300Y-128270000D01*
X111378000Y-127000000D02*
X112759300Y-127000000D01*
X112759300Y-127000000D02*
X112935800Y-127000000D01*
X112956300Y-125730000D02*
X111378000Y-125730000D01*
X144218100Y-52070000D02*
X143638000Y-52070000D01*
X147853000Y-48435100D02*
X144218100Y-52070000D01*
X147853000Y-47060300D02*
X147853000Y-48435100D01*
X148590900Y-46322400D02*
X147853000Y-47060300D01*
X149557300Y-46322400D02*
X148590900Y-46322400D01*
X150393100Y-47158200D02*
X149557300Y-46322400D01*
X150393100Y-47625000D02*
X150393100Y-47158200D01*
X151638000Y-47625000D02*
X150393100Y-47625000D01*
X148582200Y-48869900D02*
X149098000Y-48869900D01*
X145019300Y-52432800D02*
X148582200Y-48869900D01*
X145019300Y-53340000D02*
X145019300Y-52432800D01*
X143638000Y-53340000D02*
X145019300Y-53340000D01*
X149098000Y-47625000D02*
X149098000Y-48869900D01*
X143638000Y-54610000D02*
X145019300Y-54610000D01*
X145019300Y-54610000D02*
X145214700Y-54610000D01*
X143638000Y-55880000D02*
X145019300Y-55880000D01*
X149098000Y-50165000D02*
X149098000Y-51409900D01*
X148582200Y-51409900D02*
X149098000Y-51409900D01*
X146156100Y-53836000D02*
X148582200Y-51409900D01*
X146156100Y-54743200D02*
X146156100Y-53836000D01*
X145019300Y-55880000D02*
X146156100Y-54743200D01*
X145019300Y-57048800D02*
X145676800Y-56391300D01*
X145019300Y-57150000D02*
X145019300Y-57048800D01*
X143638000Y-57150000D02*
X145019300Y-57150000D01*
X143638000Y-58420000D02*
X145019300Y-58420000D01*
X149098000Y-52705000D02*
X149098000Y-53949900D01*
X148582200Y-53949900D02*
X149098000Y-53949900D01*
X146932600Y-55599500D02*
X148582200Y-53949900D01*
X146932600Y-56099000D02*
X146932600Y-55599500D01*
X145019300Y-58012300D02*
X146932600Y-56099000D01*
X145019300Y-58420000D02*
X145019300Y-58012300D01*
X144472400Y-59690000D02*
X143638000Y-59690000D01*
X146892600Y-57269800D02*
X144472400Y-59690000D01*
X146892600Y-57191700D02*
X146892600Y-57269800D01*
X148582200Y-56489900D02*
X149098000Y-56489900D01*
X145019300Y-60052800D02*
X148582200Y-56489900D01*
X145019300Y-60960000D02*
X145019300Y-60052800D01*
X143638000Y-60960000D02*
X145019300Y-60960000D01*
X149098000Y-55245000D02*
X149098000Y-56489900D01*
X151638000Y-57785000D02*
X150393100Y-57785000D01*
X150393100Y-58300800D02*
X150393100Y-57785000D01*
X149638900Y-59055000D02*
X150393100Y-58300800D01*
X148568500Y-59055000D02*
X149638900Y-59055000D01*
X147513900Y-60109600D02*
X148568500Y-59055000D01*
X147513900Y-60976900D02*
X147513900Y-60109600D01*
X145038300Y-63452500D02*
X147513900Y-60976900D01*
X141186200Y-63452500D02*
X145038300Y-63452500D01*
X138693700Y-60960000D02*
X141186200Y-63452500D01*
X134238000Y-60960000D02*
X138693700Y-60960000D01*
X145507200Y-61375800D02*
X149098000Y-57785000D01*
X145507200Y-62255400D02*
X145507200Y-61375800D01*
X144823200Y-62939400D02*
X145507200Y-62255400D01*
X141602300Y-62939400D02*
X144823200Y-62939400D01*
X138861200Y-60198300D02*
X141602300Y-62939400D01*
X136127600Y-60198300D02*
X138861200Y-60198300D01*
X135619300Y-59690000D02*
X136127600Y-60198300D01*
X134238000Y-59690000D02*
X135619300Y-59690000D01*
X134238000Y-58420000D02*
X135619300Y-58420000D01*
X135651800Y-58387500D02*
X138228500Y-58387500D01*
X135619300Y-58420000D02*
X135651800Y-58387500D01*
X145435400Y-63987600D02*
X149098000Y-60325000D01*
X134082200Y-63987600D02*
X145435400Y-63987600D01*
X132856700Y-62762100D02*
X134082200Y-63987600D01*
X132856700Y-57150000D02*
X132856700Y-62762100D01*
X134238000Y-57150000D02*
X132856700Y-57150000D01*
X140148600Y-55880000D02*
X135619300Y-55880000D01*
X134238000Y-55880000D02*
X135619300Y-55880000D01*
X134238000Y-54610000D02*
X132856700Y-54610000D01*
X149098000Y-62865000D02*
X147853100Y-62865000D01*
X147458300Y-62865000D02*
X147853100Y-62865000D01*
X145827400Y-64495900D02*
X147458300Y-62865000D01*
X133871700Y-64495900D02*
X145827400Y-64495900D01*
X132348400Y-62972600D02*
X133871700Y-64495900D01*
X132348400Y-55118300D02*
X132348400Y-62972600D01*
X132856700Y-54610000D02*
X132348400Y-55118300D01*
X134238000Y-53340000D02*
X132856700Y-53340000D01*
X151638000Y-65405000D02*
X150393100Y-65405000D01*
X150393100Y-64889200D02*
X150393100Y-65405000D01*
X149638900Y-64135000D02*
X150393100Y-64889200D01*
X146907100Y-64135000D02*
X149638900Y-64135000D01*
X146037900Y-65004200D02*
X146907100Y-64135000D01*
X133661200Y-65004200D02*
X146037900Y-65004200D01*
X131840100Y-63183100D02*
X133661200Y-65004200D01*
X131840100Y-54356600D02*
X131840100Y-63183100D01*
X132856700Y-53340000D02*
X131840100Y-54356600D01*
X134238000Y-52070000D02*
X132856700Y-52070000D01*
X149098000Y-65405000D02*
X147853100Y-65405000D01*
X147745600Y-65512500D02*
X147853100Y-65405000D01*
X133450700Y-65512500D02*
X147745600Y-65512500D01*
X131331800Y-63393600D02*
X133450700Y-65512500D01*
X131331800Y-53594900D02*
X131331800Y-63393600D01*
X132856700Y-52070000D02*
X131331800Y-53594900D01*
X144218100Y-74930000D02*
X143638000Y-74930000D01*
X147853000Y-71295100D02*
X144218100Y-74930000D01*
X147853000Y-69927200D02*
X147853000Y-71295100D01*
X148590300Y-69189900D02*
X147853000Y-69927200D01*
X149564800Y-69189900D02*
X148590300Y-69189900D01*
X150393100Y-70018200D02*
X149564800Y-69189900D01*
X150393100Y-70485000D02*
X150393100Y-70018200D01*
X151638000Y-70485000D02*
X150393100Y-70485000D01*
X148582200Y-71729900D02*
X149098000Y-71729900D01*
X145019300Y-75292800D02*
X148582200Y-71729900D01*
X145019300Y-76200000D02*
X145019300Y-75292800D01*
X143638000Y-76200000D02*
X145019300Y-76200000D01*
X149098000Y-70485000D02*
X149098000Y-71729900D01*
X145019300Y-77301200D02*
X145019300Y-77470000D01*
X145225500Y-77095000D02*
X145019300Y-77301200D01*
X143638000Y-77470000D02*
X145019300Y-77470000D01*
X143638000Y-78740000D02*
X145019300Y-78740000D01*
X149098000Y-73025000D02*
X149098000Y-74269900D01*
X148582200Y-74269900D02*
X149098000Y-74269900D01*
X146281700Y-76570400D02*
X148582200Y-74269900D01*
X146281700Y-77002300D02*
X146281700Y-76570400D01*
X145019300Y-78264700D02*
X146281700Y-77002300D01*
X145019300Y-78740000D02*
X145019300Y-78264700D01*
X144472400Y-80010000D02*
X143638000Y-80010000D01*
X146383300Y-78099100D02*
X144472400Y-80010000D01*
X146383300Y-78000200D02*
X146383300Y-78099100D01*
X148582200Y-76809900D02*
X149098000Y-76809900D01*
X145019300Y-80372800D02*
X148582200Y-76809900D01*
X145019300Y-81280000D02*
X145019300Y-80372800D01*
X143638000Y-81280000D02*
X145019300Y-81280000D01*
X149098000Y-75565000D02*
X149098000Y-76809900D01*
X144472400Y-82550000D02*
X143638000Y-82550000D01*
X147301700Y-79720700D02*
X144472400Y-82550000D01*
X147301700Y-79639900D02*
X147301700Y-79720700D01*
X148582200Y-79349900D02*
X149098000Y-79349900D01*
X145019300Y-82912800D02*
X148582200Y-79349900D01*
X145019300Y-83820000D02*
X145019300Y-82912800D01*
X143638000Y-83820000D02*
X145019300Y-83820000D01*
X149098000Y-78105000D02*
X149098000Y-79349900D01*
X151638000Y-80645000D02*
X151638000Y-81889900D01*
X134284300Y-83773700D02*
X134238000Y-83820000D01*
X136046400Y-83773700D02*
X134284300Y-83773700D01*
X138602400Y-86329700D02*
X136046400Y-83773700D01*
X146489800Y-86329700D02*
X138602400Y-86329700D01*
X148364500Y-84455000D02*
X146489800Y-86329700D01*
X149649400Y-84455000D02*
X148364500Y-84455000D01*
X150393100Y-83711300D02*
X149649400Y-84455000D01*
X150393100Y-82667900D02*
X150393100Y-83711300D01*
X151171100Y-81889900D02*
X150393100Y-82667900D01*
X151638000Y-81889900D02*
X151171100Y-81889900D01*
X149098000Y-80645000D02*
X149098000Y-81889900D01*
X148592600Y-81889900D02*
X149098000Y-81889900D01*
X147853100Y-82629400D02*
X148592600Y-81889900D01*
X147853100Y-82735200D02*
X147853100Y-82629400D01*
X144767000Y-85821300D02*
X147853100Y-82735200D01*
X140344100Y-85821300D02*
X144767000Y-85821300D01*
X137072800Y-82550000D02*
X140344100Y-85821300D01*
X134238000Y-82550000D02*
X137072800Y-82550000D01*
X132856700Y-85608000D02*
X132856700Y-81280000D01*
X134243700Y-86995000D02*
X132856700Y-85608000D01*
X152133800Y-86995000D02*
X134243700Y-86995000D01*
X152893300Y-86235500D02*
X152133800Y-86995000D01*
X152893300Y-85218400D02*
X152893300Y-86235500D01*
X152104800Y-84429900D02*
X152893300Y-85218400D01*
X151638000Y-84429900D02*
X152104800Y-84429900D01*
X151638000Y-83185000D02*
X151638000Y-84429900D01*
X134238000Y-81280000D02*
X132856700Y-81280000D01*
X134238000Y-80010000D02*
X142068600Y-80010000D01*
X134238000Y-78740000D02*
X142065600Y-78740000D01*
X134238000Y-77470000D02*
X135619300Y-77470000D01*
X135950300Y-77801000D02*
X139360900Y-77801000D01*
X135619300Y-77470000D02*
X135950300Y-77801000D01*
X134238000Y-76200000D02*
X140199600Y-76200000D01*
X134238000Y-74930000D02*
X136955100Y-74930000D01*
X144218100Y-100330000D02*
X143638000Y-100330000D01*
X147853000Y-96695100D02*
X144218100Y-100330000D01*
X147853000Y-95298200D02*
X147853000Y-96695100D01*
X148572600Y-94578600D02*
X147853000Y-95298200D01*
X149553500Y-94578600D02*
X148572600Y-94578600D01*
X150393100Y-95418200D02*
X149553500Y-94578600D01*
X150393100Y-95885000D02*
X150393100Y-95418200D01*
X151638000Y-95885000D02*
X150393100Y-95885000D01*
X148582200Y-97129900D02*
X149098000Y-97129900D01*
X145019300Y-100692800D02*
X148582200Y-97129900D01*
X145019300Y-101600000D02*
X145019300Y-100692800D01*
X143638000Y-101600000D02*
X145019300Y-101600000D01*
X149098000Y-95885000D02*
X149098000Y-97129900D01*
X144673600Y-102870000D02*
X143638000Y-102870000D01*
X145200700Y-102342900D02*
X144673600Y-102870000D01*
X143638000Y-104140000D02*
X145019300Y-104140000D01*
X149098000Y-98425000D02*
X149098000Y-99669900D01*
X148582200Y-99669900D02*
X149098000Y-99669900D01*
X146760400Y-101491700D02*
X148582200Y-99669900D01*
X146760400Y-101746700D02*
X146760400Y-101491700D01*
X145019300Y-103487800D02*
X146760400Y-101746700D01*
X145019300Y-104140000D02*
X145019300Y-103487800D01*
X144671500Y-105410000D02*
X143638000Y-105410000D01*
X145703900Y-104377600D02*
X144671500Y-105410000D01*
X143638000Y-106680000D02*
X145019300Y-106680000D01*
X149098000Y-100965000D02*
X149098000Y-102209900D01*
X148582200Y-102209900D02*
X149098000Y-102209900D01*
X146593000Y-104199100D02*
X148582200Y-102209900D01*
X146593000Y-104452000D02*
X146593000Y-104199100D01*
X145019300Y-106025700D02*
X146593000Y-104452000D01*
X145019300Y-106680000D02*
X145019300Y-106025700D01*
X144472400Y-107950000D02*
X143638000Y-107950000D01*
X147117500Y-105304900D02*
X144472400Y-107950000D01*
X147117500Y-105200700D02*
X147117500Y-105304900D01*
X148582200Y-104749900D02*
X149098000Y-104749900D01*
X145019300Y-108312800D02*
X148582200Y-104749900D01*
X145019300Y-109220000D02*
X145019300Y-108312800D01*
X143638000Y-109220000D02*
X145019300Y-109220000D01*
X149098000Y-103505000D02*
X149098000Y-104749900D01*
X137143300Y-109220000D02*
X134238000Y-109220000D01*
X139652800Y-111729500D02*
X137143300Y-109220000D01*
X146489900Y-111729500D02*
X139652800Y-111729500D01*
X148364400Y-109855000D02*
X146489900Y-111729500D01*
X149649400Y-109855000D02*
X148364400Y-109855000D01*
X150393100Y-109111300D02*
X149649400Y-109855000D01*
X150393100Y-108067900D02*
X150393100Y-109111300D01*
X151171100Y-107289900D02*
X150393100Y-108067900D01*
X151638000Y-107289900D02*
X151171100Y-107289900D01*
X151638000Y-106045000D02*
X151638000Y-107289900D01*
X149098000Y-106045000D02*
X149098000Y-107289900D01*
X148592600Y-107289900D02*
X149098000Y-107289900D01*
X147853100Y-108029400D02*
X148592600Y-107289900D01*
X147853100Y-108135200D02*
X147853100Y-108029400D01*
X144767200Y-111221100D02*
X147853100Y-108135200D01*
X140381100Y-111221100D02*
X144767200Y-111221100D01*
X137110000Y-107950000D02*
X140381100Y-111221100D01*
X134238000Y-107950000D02*
X137110000Y-107950000D01*
X134238000Y-106680000D02*
X132856700Y-106680000D01*
X151638000Y-108585000D02*
X151638000Y-109829900D01*
X131557700Y-107979000D02*
X132856700Y-106680000D01*
X131557700Y-111029900D02*
X131557700Y-107979000D01*
X132897800Y-112370000D02*
X131557700Y-111029900D01*
X149680100Y-112370000D02*
X132897800Y-112370000D01*
X150343000Y-111707100D02*
X149680100Y-112370000D01*
X150343000Y-110609100D02*
X150343000Y-111707100D01*
X151122200Y-109829900D02*
X150343000Y-110609100D01*
X151638000Y-109829900D02*
X151122200Y-109829900D01*
X134238000Y-105410000D02*
X142059400Y-105410000D01*
X134238000Y-104140000D02*
X135619300Y-104140000D01*
X136015900Y-104536600D02*
X142068000Y-104536600D01*
X135619300Y-104140000D02*
X136015900Y-104536600D01*
X134238000Y-102870000D02*
X141049500Y-102870000D01*
X134238000Y-101600000D02*
X132856700Y-101600000D01*
X151638000Y-113665000D02*
X150393100Y-113665000D01*
X131049400Y-103407300D02*
X132856700Y-101600000D01*
X131049400Y-111240400D02*
X131049400Y-103407300D01*
X134781300Y-114972300D02*
X131049400Y-111240400D01*
X149601600Y-114972300D02*
X134781300Y-114972300D01*
X150393100Y-114180800D02*
X149601600Y-114972300D01*
X150393100Y-113665000D02*
X150393100Y-114180800D01*
X135983100Y-100330000D02*
X134238000Y-100330000D01*
X144218100Y-125730000D02*
X143638000Y-125730000D01*
X147853000Y-122095100D02*
X144218100Y-125730000D01*
X147853000Y-120698200D02*
X147853000Y-122095100D01*
X148572600Y-119978600D02*
X147853000Y-120698200D01*
X149553500Y-119978600D02*
X148572600Y-119978600D01*
X150393100Y-120818200D02*
X149553500Y-119978600D01*
X150393100Y-121285000D02*
X150393100Y-120818200D01*
X151638000Y-121285000D02*
X150393100Y-121285000D01*
X148582200Y-122529900D02*
X149098000Y-122529900D01*
X145019300Y-126092800D02*
X148582200Y-122529900D01*
X145019300Y-127000000D02*
X145019300Y-126092800D01*
X143638000Y-127000000D02*
X145019300Y-127000000D01*
X149098000Y-121285000D02*
X149098000Y-122529900D01*
X146769400Y-126021200D02*
X146769400Y-125914400D01*
X144520600Y-128270000D02*
X146769400Y-126021200D01*
X143638000Y-128270000D02*
X144520600Y-128270000D01*
X148582200Y-125069900D02*
X149098000Y-125069900D01*
X145019300Y-128632800D02*
X148582200Y-125069900D01*
X145019300Y-129540000D02*
X145019300Y-128632800D01*
X143638000Y-129540000D02*
X145019300Y-129540000D01*
X149098000Y-123825000D02*
X149098000Y-125069900D01*
X142048600Y-131804900D02*
X142048600Y-133690900D01*
X143043500Y-130810000D02*
X142048600Y-131804900D01*
X143638000Y-130810000D02*
X143043500Y-130810000D01*
X148308800Y-127609900D02*
X149098000Y-127609900D01*
X146511800Y-129406900D02*
X148308800Y-127609900D01*
X146511800Y-129797100D02*
X146511800Y-129406900D01*
X144228900Y-132080000D02*
X146511800Y-129797100D01*
X143638000Y-132080000D02*
X144228900Y-132080000D01*
X149098000Y-126365000D02*
X149098000Y-127609900D01*
X144263800Y-133350000D02*
X143638000Y-133350000D01*
X147491800Y-130122000D02*
X144263800Y-133350000D01*
X147491800Y-129443400D02*
X147491800Y-130122000D01*
X148582200Y-130149900D02*
X149098000Y-130149900D01*
X145019300Y-133712800D02*
X148582200Y-130149900D01*
X145019300Y-134620000D02*
X145019300Y-133712800D01*
X143638000Y-134620000D02*
X145019300Y-134620000D01*
X149098000Y-128905000D02*
X149098000Y-130149900D01*
X151638000Y-131445000D02*
X150393100Y-131445000D01*
X150393100Y-131960800D02*
X150393100Y-131445000D01*
X149638900Y-132715000D02*
X150393100Y-131960800D01*
X148589700Y-132715000D02*
X149638900Y-132715000D01*
X146712100Y-134592600D02*
X148589700Y-132715000D01*
X146712100Y-135470300D02*
X146712100Y-134592600D01*
X145089300Y-137093100D02*
X146712100Y-135470300D01*
X141370100Y-137093100D02*
X145089300Y-137093100D01*
X138897000Y-134620000D02*
X141370100Y-137093100D01*
X134238000Y-134620000D02*
X138897000Y-134620000D01*
X145065500Y-135477500D02*
X149098000Y-131445000D01*
X145065500Y-136379400D02*
X145065500Y-135477500D01*
X144868300Y-136576600D02*
X145065500Y-136379400D01*
X141572400Y-136576600D02*
X144868300Y-136576600D01*
X138345800Y-133350000D02*
X141572400Y-136576600D01*
X134238000Y-133350000D02*
X138345800Y-133350000D01*
X140188200Y-132080000D02*
X134238000Y-132080000D01*
X141845100Y-130423100D02*
X140188200Y-132080000D01*
X134238000Y-130810000D02*
X140151500Y-130810000D01*
X134238000Y-129540000D02*
X141163800Y-129540000D01*
X146767100Y-137611000D02*
X147853100Y-136525000D01*
X134116200Y-137611000D02*
X146767100Y-137611000D01*
X132856700Y-136351500D02*
X134116200Y-137611000D01*
X132856700Y-128270000D02*
X132856700Y-136351500D01*
X134238000Y-128270000D02*
X132856700Y-128270000D01*
X149098000Y-136525000D02*
X147853100Y-136525000D01*
X150393100Y-138549200D02*
X150393100Y-139065000D01*
X149638900Y-137795000D02*
X150393100Y-138549200D01*
X147700500Y-137795000D02*
X149638900Y-137795000D01*
X147329900Y-138165600D02*
X147700500Y-137795000D01*
X133881500Y-138165600D02*
X147329900Y-138165600D01*
X132289100Y-136573200D02*
X133881500Y-138165600D01*
X132289100Y-127567600D02*
X132289100Y-136573200D01*
X132856700Y-127000000D02*
X132289100Y-127567600D01*
X134238000Y-127000000D02*
X132856700Y-127000000D01*
X151638000Y-139065000D02*
X150393100Y-139065000D01*
X134007900Y-139065000D02*
X147853100Y-139065000D01*
X131769100Y-136826200D02*
X134007900Y-139065000D01*
X131769100Y-126817600D02*
X131769100Y-136826200D01*
X132856700Y-125730000D02*
X131769100Y-126817600D01*
X134238000Y-125730000D02*
X132856700Y-125730000D01*
X149098000Y-139065000D02*
X147853100Y-139065000D01*
X64328000Y-77873900D02*
X64328000Y-79155600D01*
X47658000Y-80010000D02*
X46501700Y-80010000D01*
X61522200Y-81961400D02*
X64328000Y-79155600D01*
X58140400Y-81961400D02*
X61522200Y-81961400D01*
X57463500Y-81284500D02*
X58140400Y-81961400D01*
X57463500Y-79591600D02*
X57463500Y-81284500D01*
X54660600Y-76788700D02*
X57463500Y-79591600D01*
X51596400Y-76788700D02*
X54660600Y-76788700D01*
X51396800Y-76988300D02*
X51596400Y-76788700D01*
X50699500Y-76988300D02*
X51396800Y-76988300D01*
X50499900Y-76788700D02*
X50699500Y-76988300D01*
X46070800Y-76788700D02*
X50499900Y-76788700D01*
X45641300Y-77218200D02*
X46070800Y-76788700D01*
X45641300Y-79149600D02*
X45641300Y-77218200D01*
X46501700Y-80010000D02*
X45641300Y-79149600D01*
X65278000Y-80876100D02*
X64496600Y-80876100D01*
X65658000Y-96520000D02*
X67039300Y-96520000D01*
X65658000Y-96520000D02*
X64276700Y-96520000D01*
X69088000Y-94471300D02*
X69088000Y-86763900D01*
X67039300Y-96520000D02*
X69088000Y-94471300D01*
X67441800Y-79493600D02*
X66059300Y-80876100D01*
X69743400Y-79493600D02*
X67441800Y-79493600D01*
X69919400Y-79669600D02*
X69743400Y-79493600D01*
X69919400Y-86713900D02*
X69919400Y-79669600D01*
X69869400Y-86763900D02*
X69919400Y-86713900D01*
X69088000Y-86763900D02*
X69869400Y-86763900D01*
X65278000Y-80876100D02*
X66059300Y-80876100D01*
X62903000Y-82469700D02*
X64496600Y-80876100D01*
X57929900Y-82469700D02*
X62903000Y-82469700D01*
X56775400Y-81315200D02*
X57929900Y-82469700D01*
X56775400Y-80671100D02*
X56775400Y-81315200D01*
X54844300Y-78740000D02*
X56775400Y-80671100D01*
X53688000Y-78740000D02*
X54844300Y-78740000D01*
X45608000Y-102705000D02*
X46739300Y-102705000D01*
X63825700Y-96069000D02*
X62711000Y-96069000D01*
X64276700Y-96520000D02*
X63825700Y-96069000D01*
X47075000Y-102705000D02*
X46739300Y-102705000D01*
X47798800Y-103428800D02*
X47075000Y-102705000D01*
X52994800Y-103428800D02*
X47798800Y-103428800D01*
X53147000Y-103581000D02*
X52994800Y-103428800D01*
X54422300Y-103581000D02*
X53147000Y-103581000D01*
X54752200Y-103251100D02*
X54422300Y-103581000D01*
X66955600Y-89365000D02*
X67356700Y-89766100D01*
X65278000Y-89365000D02*
X66955600Y-89365000D01*
X68138000Y-89766100D02*
X67356700Y-89766100D01*
X70038000Y-94394800D02*
X67206700Y-97226100D01*
X70038000Y-89766100D02*
X70038000Y-94394800D01*
X45608000Y-103505000D02*
X46739300Y-103505000D01*
X47156200Y-103505000D02*
X46739300Y-103505000D01*
X47588300Y-103937100D02*
X47156200Y-103505000D01*
X52784300Y-103937100D02*
X47588300Y-103937100D01*
X52936500Y-104089300D02*
X52784300Y-103937100D01*
X55323200Y-104089300D02*
X52936500Y-104089300D01*
X55475400Y-103937100D02*
X55323200Y-104089300D01*
X36238000Y-81915000D02*
X36238000Y-82746300D01*
X57008000Y-102705000D02*
X58139300Y-102705000D01*
X37486200Y-83994500D02*
X36238000Y-82746300D01*
X53359700Y-83994500D02*
X37486200Y-83994500D01*
X54462600Y-85097400D02*
X53359700Y-83994500D01*
X56031200Y-85097400D02*
X54462600Y-85097400D01*
X59549600Y-88615800D02*
X56031200Y-85097400D01*
X59549600Y-91839400D02*
X59549600Y-88615800D01*
X59175200Y-92213800D02*
X59549600Y-91839400D01*
X59175200Y-101669100D02*
X59175200Y-92213800D01*
X58139300Y-102705000D02*
X59175200Y-101669100D01*
X57008000Y-100305000D02*
X58139300Y-100305000D01*
X36238000Y-85725000D02*
X36238000Y-86556300D01*
X41636500Y-86556300D02*
X36238000Y-86556300D01*
X41732700Y-86460100D02*
X41636500Y-86556300D01*
X51266200Y-86460100D02*
X41732700Y-86460100D01*
X51612300Y-86114000D02*
X51266200Y-86460100D01*
X52176600Y-86114000D02*
X51612300Y-86114000D01*
X53031000Y-86968400D02*
X52176600Y-86114000D01*
X57183400Y-86968400D02*
X53031000Y-86968400D01*
X59040800Y-88825800D02*
X57183400Y-86968400D01*
X59040800Y-91629400D02*
X59040800Y-88825800D01*
X58664900Y-92005300D02*
X59040800Y-91629400D01*
X58664900Y-99779400D02*
X58664900Y-92005300D01*
X58139300Y-100305000D02*
X58664900Y-99779400D01*
X57008000Y-99505000D02*
X58139300Y-99505000D01*
X36238000Y-89535000D02*
X36238000Y-88703700D01*
X40926700Y-88703700D02*
X36238000Y-88703700D01*
X42153700Y-87476700D02*
X40926700Y-88703700D01*
X56972900Y-87476700D02*
X42153700Y-87476700D01*
X58528500Y-89032300D02*
X56972900Y-87476700D01*
X58528500Y-91422900D02*
X58528500Y-89032300D01*
X58139300Y-91812100D02*
X58528500Y-91422900D01*
X58139300Y-99505000D02*
X58139300Y-91812100D01*
X57008000Y-105905000D02*
X58139300Y-105905000D01*
X69088000Y-80475000D02*
X68256700Y-80475000D01*
X61189000Y-87542700D02*
X68256700Y-80475000D01*
X61189000Y-92356400D02*
X61189000Y-87542700D01*
X60922000Y-92623400D02*
X61189000Y-92356400D01*
X60922000Y-98896800D02*
X60922000Y-92623400D01*
X61125200Y-99100000D02*
X60922000Y-98896800D01*
X61125200Y-102919100D02*
X61125200Y-99100000D01*
X58139300Y-105905000D02*
X61125200Y-102919100D01*
X65278000Y-87165000D02*
X64446700Y-87165000D01*
X57008000Y-106705000D02*
X58139300Y-106705000D01*
X64446700Y-89817500D02*
X64446700Y-87165000D01*
X61430300Y-92833900D02*
X64446700Y-89817500D01*
X61430300Y-98686300D02*
X61430300Y-92833900D01*
X61633500Y-98889500D02*
X61430300Y-98686300D01*
X61633500Y-103210800D02*
X61633500Y-98889500D01*
X58139300Y-106705000D02*
X61633500Y-103210800D01*
X47207000Y-77470000D02*
X46501700Y-77470000D01*
X47207000Y-77470000D02*
X47658000Y-77470000D01*
X46435400Y-77536300D02*
X46324300Y-77536300D01*
X46501700Y-77470000D02*
X46435400Y-77536300D01*
X52438600Y-77563100D02*
X52531700Y-77470000D01*
X48907400Y-77563100D02*
X52438600Y-77563100D01*
X48814300Y-77470000D02*
X48907400Y-77563100D01*
X47658000Y-77470000D02*
X48814300Y-77470000D01*
X53688000Y-77470000D02*
X52531700Y-77470000D01*
X45608000Y-101905000D02*
X46959700Y-101905000D01*
X47658000Y-78740000D02*
X48814300Y-78740000D01*
X47658000Y-81280000D02*
X48814300Y-81280000D01*
X48814300Y-80480600D02*
X49284700Y-80010200D01*
X48814300Y-81280000D02*
X48814300Y-80480600D01*
X48814300Y-79539800D02*
X49284700Y-80010200D01*
X48814300Y-78740000D02*
X48814300Y-79539800D01*
X52531500Y-80010200D02*
X52531700Y-80010000D01*
X49284700Y-80010200D02*
X52531500Y-80010200D01*
X53688000Y-80010000D02*
X52531700Y-80010000D01*
X54844300Y-81280000D02*
X54844300Y-80010000D01*
X53688000Y-81280000D02*
X54844300Y-81280000D01*
X53688000Y-80010000D02*
X54844300Y-80010000D01*
X63344200Y-108287500D02*
X64276700Y-109220000D01*
X63344200Y-96830200D02*
X63344200Y-108287500D01*
X63424100Y-96750300D02*
X63344200Y-96830200D01*
X65658000Y-109220000D02*
X64276700Y-109220000D01*
X42843400Y-101138300D02*
X42843400Y-101254500D01*
X44476700Y-99505000D02*
X42843400Y-101138300D01*
X45608000Y-99505000D02*
X44476700Y-99505000D01*
X43024800Y-88493300D02*
X42843400Y-88674700D01*
X56551900Y-88493300D02*
X43024800Y-88493300D01*
X57324500Y-89265900D02*
X56551900Y-88493300D01*
X57324500Y-89554200D02*
X57324500Y-89265900D01*
X71049600Y-111174400D02*
X57547900Y-111174400D01*
X73004000Y-109220000D02*
X71049600Y-111174400D01*
X75058000Y-109220000D02*
X73004000Y-109220000D01*
X45608000Y-100305000D02*
X44476700Y-100305000D01*
X43968800Y-82977900D02*
X43762200Y-82771300D01*
X53780700Y-82977900D02*
X43968800Y-82977900D01*
X54883600Y-84080800D02*
X53780700Y-82977900D01*
X56452200Y-84080800D02*
X54883600Y-84080800D01*
X60608800Y-88237400D02*
X56452200Y-84080800D01*
X60608800Y-92217800D02*
X60608800Y-88237400D01*
X60393000Y-92433600D02*
X60608800Y-92217800D01*
X60393000Y-99331300D02*
X60393000Y-92433600D01*
X60443900Y-99382200D02*
X60393000Y-99331300D01*
X44476700Y-100511700D02*
X44298100Y-100690300D01*
X44476700Y-100305000D02*
X44476700Y-100511700D01*
X75058000Y-110490000D02*
X73676700Y-110490000D01*
X72283200Y-111883500D02*
X73676700Y-110490000D01*
X56737400Y-111883500D02*
X72283200Y-111883500D01*
X47172200Y-101105000D02*
X45608000Y-101105000D01*
X47642600Y-101575400D02*
X47172200Y-101105000D01*
X47642600Y-101766900D02*
X47642600Y-101575400D01*
X48775400Y-102899700D02*
X47642600Y-101766900D01*
X53783400Y-102899700D02*
X48775400Y-102899700D01*
X120778000Y-99060000D02*
X119396700Y-99060000D01*
X120778000Y-124460000D02*
X114290800Y-124460000D01*
X83693000Y-97535000D02*
X83693000Y-96153700D01*
X65913000Y-121665000D02*
X65913000Y-120283700D01*
X43053000Y-55625000D02*
X43053000Y-57006300D01*
X65913000Y-54934300D02*
X65913000Y-54243700D01*
X65913000Y-54934300D02*
X65913000Y-55625000D01*
X65913000Y-55625000D02*
X65913000Y-57006300D01*
X86233000Y-55625000D02*
X86233000Y-54243700D01*
X86233000Y-120103200D02*
X86233000Y-121665000D01*
X86194700Y-120064800D02*
X86233000Y-120103200D01*
X85572700Y-119442900D02*
X86194700Y-120064800D01*
X66753800Y-119442900D02*
X85572700Y-119442900D01*
X65913000Y-120283700D02*
X66753800Y-119442900D01*
X88138000Y-118121500D02*
X86194700Y-120064800D01*
X88138000Y-116811800D02*
X88138000Y-118121500D01*
X88881100Y-116068700D02*
X88138000Y-116811800D01*
X92592500Y-116068700D02*
X88881100Y-116068700D01*
X93828000Y-117304200D02*
X92592500Y-116068700D01*
X94226500Y-117304200D02*
X93828000Y-117304200D01*
X94510000Y-117587700D02*
X94226500Y-117304200D01*
X114290800Y-117587700D02*
X94510000Y-117587700D01*
X121900700Y-70403500D02*
X116311100Y-70403500D01*
X122159300Y-70662100D02*
X121900700Y-70403500D01*
X122159300Y-73660000D02*
X122159300Y-70662100D01*
X120778000Y-73660000D02*
X122159300Y-73660000D01*
X120778000Y-50800000D02*
X117823800Y-50800000D01*
X112484000Y-92778100D02*
X114290800Y-94584900D01*
X110226000Y-92778100D02*
X112484000Y-92778100D01*
X77670900Y-78596300D02*
X77846900Y-78772300D01*
X77343000Y-78596300D02*
X77670900Y-78596300D01*
X77343000Y-77215000D02*
X77343000Y-78596300D01*
X117943400Y-100513300D02*
X114154600Y-100513300D01*
X119396700Y-99060000D02*
X117943400Y-100513300D01*
X109631700Y-92183800D02*
X110226000Y-92778100D01*
X101316200Y-92183800D02*
X109631700Y-92183800D01*
X101199800Y-92067400D02*
X101316200Y-92183800D01*
X87779300Y-92067400D02*
X101199800Y-92067400D01*
X83693000Y-96153700D02*
X87779300Y-92067400D01*
X43053000Y-121665000D02*
X43053000Y-123046300D01*
X43053000Y-121665000D02*
X43053000Y-120283700D01*
X141838400Y-51218300D02*
X142256700Y-50800000D01*
X136581700Y-51218300D02*
X141838400Y-51218300D01*
X143638000Y-50800000D02*
X142256700Y-50800000D01*
X94651200Y-45825500D02*
X114037400Y-45825500D01*
X86233000Y-54243700D02*
X94651200Y-45825500D01*
X141637300Y-117304500D02*
X140788000Y-117304500D01*
X145527600Y-121194800D02*
X141637300Y-117304500D01*
X145527600Y-123188900D02*
X145527600Y-121194800D01*
X144256500Y-124460000D02*
X145527600Y-123188900D01*
X143638000Y-124460000D02*
X144256500Y-124460000D01*
X114574000Y-117304500D02*
X114290800Y-117587700D01*
X140788000Y-117304500D02*
X114574000Y-117304500D01*
X143638000Y-99060000D02*
X142256700Y-99060000D01*
X141049600Y-103833500D02*
X137773200Y-103833500D01*
X142256700Y-102626400D02*
X141049600Y-103833500D01*
X142256700Y-99060000D02*
X142256700Y-102626400D01*
X141179400Y-66083100D02*
X131396300Y-66083100D01*
X145556200Y-70459900D02*
X141179400Y-66083100D01*
X145556200Y-72592600D02*
X145556200Y-70459900D01*
X144488800Y-73660000D02*
X145556200Y-72592600D01*
X143638000Y-73660000D02*
X144488800Y-73660000D01*
X62759300Y-120283700D02*
X65913000Y-120283700D01*
X58666900Y-124376100D02*
X62759300Y-120283700D01*
X44382800Y-124376100D02*
X58666900Y-124376100D01*
X43053000Y-123046300D02*
X44382800Y-124376100D01*
X72621400Y-57740500D02*
X72532500Y-57829400D01*
X77357000Y-57740500D02*
X72621400Y-57740500D01*
X81366000Y-53731500D02*
X77357000Y-57740500D01*
X85720800Y-53731500D02*
X81366000Y-53731500D01*
X86233000Y-54243700D02*
X85720800Y-53731500D01*
X66819600Y-57912900D02*
X65913000Y-57006300D01*
X72449000Y-57912900D02*
X66819600Y-57912900D01*
X72532500Y-57829400D02*
X72449000Y-57912900D01*
X49549000Y-100736500D02*
X48125100Y-100736500D01*
X50508000Y-99777500D02*
X49549000Y-100736500D01*
X50508000Y-97805000D02*
X50508000Y-99777500D01*
X65404700Y-53735400D02*
X65913000Y-54243700D01*
X60383700Y-53735400D02*
X65404700Y-53735400D01*
X55570600Y-58548500D02*
X60383700Y-53735400D01*
X44595200Y-58548500D02*
X55570600Y-58548500D01*
X43053000Y-57006300D02*
X44595200Y-58548500D01*
X46491300Y-116845400D02*
X46491300Y-115777500D01*
X43053000Y-120283700D02*
X46491300Y-116845400D01*
X143638000Y-97790000D02*
X145019300Y-97790000D01*
X120778000Y-72390000D02*
X119396700Y-72390000D01*
X119396700Y-72390000D02*
X119217100Y-72390000D01*
X120778000Y-49530000D02*
X119396700Y-49530000D01*
X119396700Y-49530000D02*
X119197800Y-49530000D01*
X64643000Y-121665000D02*
X64643000Y-123046300D01*
X82423000Y-97535000D02*
X82423000Y-96153700D01*
X41783000Y-55625000D02*
X41783000Y-57006300D01*
X64643000Y-54934300D02*
X64643000Y-54243700D01*
X64643000Y-54934300D02*
X64643000Y-55625000D01*
X64643000Y-55625000D02*
X64643000Y-57006300D01*
X84963000Y-55625000D02*
X84963000Y-54243700D01*
X76073000Y-75613800D02*
X76073000Y-77215000D01*
X141325100Y-66964500D02*
X131969000Y-66964500D01*
X145019300Y-70658700D02*
X141325100Y-66964500D01*
X145019300Y-72390000D02*
X145019300Y-70658700D01*
X143638000Y-72390000D02*
X145019300Y-72390000D01*
X143638000Y-49530000D02*
X145019300Y-49530000D01*
X144846400Y-47557600D02*
X140616200Y-47557600D01*
X145019300Y-47730500D02*
X144846400Y-47557600D01*
X145019300Y-49530000D02*
X145019300Y-47730500D01*
X118713500Y-91559100D02*
X118713500Y-91110600D01*
X84963000Y-121665000D02*
X84963000Y-120283700D01*
X64643000Y-123046300D02*
X64643000Y-123178800D01*
X62237300Y-125584500D02*
X53161200Y-125584500D01*
X64643000Y-123178800D02*
X62237300Y-125584500D01*
X81904200Y-120283700D02*
X84963000Y-120283700D01*
X75520600Y-126667300D02*
X81904200Y-120283700D01*
X68131500Y-126667300D02*
X75520600Y-126667300D01*
X64643000Y-123178800D02*
X68131500Y-126667300D01*
X122240500Y-97871200D02*
X122159300Y-97790000D01*
X122752500Y-97871200D02*
X122240500Y-97871200D01*
X120778000Y-97790000D02*
X122159300Y-97790000D01*
X123719700Y-91559100D02*
X118713500Y-91559100D01*
X124475700Y-92315100D02*
X123719700Y-91559100D01*
X141287100Y-92315100D02*
X124475700Y-92315100D01*
X145019300Y-96047300D02*
X141287100Y-92315100D01*
X145019300Y-97790000D02*
X145019300Y-96047300D01*
X120778000Y-123190000D02*
X119059500Y-123190000D01*
X144207200Y-123190000D02*
X143638000Y-123190000D01*
X145019300Y-122377900D02*
X144207200Y-123190000D01*
X145019300Y-121405400D02*
X145019300Y-122377900D01*
X141599700Y-117985800D02*
X145019300Y-121405400D01*
X119945000Y-117985800D02*
X141599700Y-117985800D01*
X77499600Y-58421800D02*
X73867100Y-58421800D01*
X81677700Y-54243700D02*
X77499600Y-58421800D01*
X84963000Y-54243700D02*
X81677700Y-54243700D01*
X73778200Y-58510700D02*
X73867100Y-58421800D01*
X66147400Y-58510700D02*
X73778200Y-58510700D01*
X64643000Y-57006300D02*
X66147400Y-58510700D01*
X49343100Y-100017300D02*
X49222600Y-100017300D01*
X49898200Y-99462200D02*
X49343100Y-100017300D01*
X49898200Y-98841900D02*
X49898200Y-99462200D01*
X49708000Y-98651700D02*
X49898200Y-98841900D01*
X49708000Y-97805000D02*
X49708000Y-98651700D01*
X56026000Y-59056800D02*
X56947800Y-58135000D01*
X43833500Y-59056800D02*
X56026000Y-59056800D01*
X41783000Y-57006300D02*
X43833500Y-59056800D01*
X60839100Y-54243700D02*
X64643000Y-54243700D01*
X56947800Y-58135000D02*
X60839100Y-54243700D01*
X41783000Y-121665000D02*
X41783000Y-120283700D01*
X42126900Y-120283700D02*
X42324600Y-120086000D01*
X41783000Y-120283700D02*
X42126900Y-120283700D01*
X77871300Y-89722200D02*
X82491700Y-94342600D01*
X77871300Y-89348200D02*
X77871300Y-89722200D01*
X82491700Y-96085000D02*
X82491700Y-94342600D01*
X82423000Y-96153700D02*
X82491700Y-96085000D01*
X118597100Y-91675500D02*
X118713500Y-91559100D01*
X101526700Y-91675500D02*
X118597100Y-91675500D01*
X101410300Y-91559100D02*
X101526700Y-91675500D01*
X85275200Y-91559100D02*
X101410300Y-91559100D01*
X82491700Y-94342600D02*
X85275200Y-91559100D01*
X84963000Y-65588500D02*
X84963000Y-66406300D01*
X84963000Y-65588500D02*
X84963000Y-65025000D01*
X64643000Y-131628500D02*
X64643000Y-132446300D01*
X64643000Y-131628500D02*
X64643000Y-131065000D01*
X48908000Y-97805000D02*
X48908000Y-98936300D01*
X134238000Y-49530000D02*
X132856700Y-49530000D01*
X109996700Y-72219700D02*
X105584000Y-67807000D01*
X109996700Y-72390000D02*
X109996700Y-72219700D01*
X111378000Y-49530000D02*
X109996700Y-49530000D01*
X110814500Y-72390000D02*
X109996700Y-72390000D01*
X110814500Y-72390000D02*
X111378000Y-72390000D01*
X84963000Y-129475700D02*
X84963000Y-131065000D01*
X82423000Y-106935000D02*
X82423000Y-108316300D01*
X82925600Y-108316300D02*
X83058000Y-108448700D01*
X82423000Y-108316300D02*
X82925600Y-108316300D01*
X86363700Y-67807000D02*
X105584000Y-67807000D01*
X84963000Y-66406300D02*
X86363700Y-67807000D01*
X59610100Y-132446300D02*
X64643000Y-132446300D01*
X58923700Y-133132700D02*
X59610100Y-132446300D01*
X64643000Y-65025000D02*
X64643000Y-63643700D01*
X111378000Y-97790000D02*
X112759300Y-97790000D01*
X113305800Y-98336500D02*
X115381600Y-98336500D01*
X112759300Y-97790000D02*
X113305800Y-98336500D01*
X134238000Y-97790000D02*
X132856700Y-97790000D01*
X134238000Y-72390000D02*
X132856700Y-72390000D01*
X132856700Y-49424700D02*
X132856700Y-49530000D01*
X129765700Y-46333700D02*
X132856700Y-49424700D01*
X118645500Y-46333700D02*
X129765700Y-46333700D01*
X115449200Y-49530000D02*
X118645500Y-46333700D01*
X111378000Y-49530000D02*
X115449200Y-49530000D01*
X134238000Y-123190000D02*
X132856700Y-123190000D01*
X113541900Y-123190000D02*
X111378000Y-123190000D01*
X117575200Y-119156700D02*
X113541900Y-123190000D01*
X117770600Y-119156700D02*
X117575200Y-119156700D01*
X105460000Y-118483000D02*
X93944300Y-118483000D01*
X109996700Y-123019700D02*
X105460000Y-118483000D01*
X109996700Y-123190000D02*
X109996700Y-123019700D01*
X111378000Y-123190000D02*
X109996700Y-123190000D01*
X116471400Y-68677900D02*
X112759300Y-72390000D01*
X129314900Y-68677900D02*
X116471400Y-68677900D01*
X132856700Y-72219700D02*
X129314900Y-68677900D01*
X132856700Y-72390000D02*
X132856700Y-72219700D01*
X111378000Y-72390000D02*
X112759300Y-72390000D01*
X75389800Y-84550500D02*
X76073000Y-85233700D01*
X70775500Y-84550500D02*
X75389800Y-84550500D01*
X76073000Y-86615000D02*
X76073000Y-85233700D01*
X119263100Y-94035900D02*
X119183200Y-94115800D01*
X129272900Y-94035900D02*
X119263100Y-94035900D01*
X132856700Y-97619700D02*
X129272900Y-94035900D01*
X132856700Y-97790000D02*
X132856700Y-97619700D01*
X132856700Y-122233200D02*
X132856700Y-123190000D01*
X129625900Y-119002400D02*
X132856700Y-122233200D01*
X120610700Y-119002400D02*
X129625900Y-119002400D01*
X120437700Y-119175400D02*
X120610700Y-119002400D01*
X117789300Y-119175400D02*
X120437700Y-119175400D01*
X117770600Y-119156700D02*
X117789300Y-119175400D01*
X107963500Y-65427500D02*
X105584000Y-67807000D01*
X107963500Y-51563200D02*
X107963500Y-65427500D01*
X109996700Y-49530000D02*
X107963500Y-51563200D01*
X41783000Y-131065000D02*
X41783000Y-129683700D01*
X41783000Y-129443800D02*
X41783000Y-129683700D01*
X41134900Y-128795700D02*
X41783000Y-129443800D01*
X38220900Y-128795700D02*
X41134900Y-128795700D01*
X30966300Y-136050300D02*
X38220900Y-128795700D01*
X30966300Y-139550500D02*
X30966300Y-136050300D01*
X31741800Y-140326000D02*
X30966300Y-139550500D01*
X55608800Y-140326000D02*
X31741800Y-140326000D01*
X58923700Y-137011100D02*
X55608800Y-140326000D01*
X59707600Y-137795000D02*
X58923700Y-137011100D01*
X65869100Y-137795000D02*
X59707600Y-137795000D01*
X66523000Y-138448900D02*
X65869100Y-137795000D01*
X66523000Y-139538800D02*
X66523000Y-138448900D01*
X67310600Y-140326400D02*
X66523000Y-139538800D01*
X78983400Y-140326400D02*
X67310600Y-140326400D01*
X84963000Y-134346800D02*
X78983400Y-140326400D01*
X84963000Y-131065000D02*
X84963000Y-134346800D01*
X58923700Y-137011100D02*
X58923700Y-133132700D01*
X49095800Y-99124100D02*
X49216900Y-99124100D01*
X48908000Y-98936300D02*
X49095800Y-99124100D01*
X64676200Y-66406300D02*
X64643000Y-66406300D01*
X65057400Y-66787500D02*
X64676200Y-66406300D01*
X64643000Y-65025000D02*
X64643000Y-66406300D01*
X41783000Y-65025000D02*
X41783000Y-63643700D01*
X61140700Y-62782500D02*
X61297100Y-62938900D01*
X42644200Y-62782500D02*
X61140700Y-62782500D01*
X41783000Y-63643700D02*
X42644200Y-62782500D01*
X58660500Y-133132700D02*
X56431500Y-130903700D01*
X58923700Y-133132700D02*
X58660500Y-133132700D01*
X67061800Y-61224900D02*
X64643000Y-63643700D01*
X77568700Y-61224900D02*
X67061800Y-61224900D01*
X82750100Y-66406300D02*
X77568700Y-61224900D01*
X84963000Y-66406300D02*
X82750100Y-66406300D01*
X40513000Y-65025000D02*
X40513000Y-63643700D01*
X48108000Y-97805000D02*
X48108000Y-96673700D01*
X134238000Y-48260000D02*
X132856700Y-48260000D01*
X111378000Y-121920000D02*
X112759300Y-121920000D01*
X81615800Y-107397800D02*
X81615800Y-108531000D01*
X81153000Y-106935000D02*
X81615800Y-107397800D01*
X83693000Y-65025000D02*
X83693000Y-63643700D01*
X63373000Y-64789600D02*
X63373000Y-63643700D01*
X63373000Y-64789600D02*
X63373000Y-65025000D01*
X74803000Y-86615000D02*
X74803000Y-87869200D01*
X74803000Y-87869200D02*
X74803000Y-87996400D01*
X75156600Y-87996400D02*
X75358200Y-88198000D01*
X74803000Y-87996400D02*
X75156600Y-87996400D01*
X111378000Y-71120000D02*
X112759300Y-71120000D01*
X134238000Y-71120000D02*
X132856700Y-71120000D01*
X111378000Y-48260000D02*
X112632200Y-48260000D01*
X115066900Y-45825300D02*
X112632200Y-48260000D01*
X130422000Y-45825300D02*
X115066900Y-45825300D01*
X132856700Y-48260000D02*
X130422000Y-45825300D01*
X113030200Y-48658000D02*
X112632200Y-48260000D01*
X113839800Y-48658000D02*
X113030200Y-48658000D01*
X114940700Y-68938600D02*
X112759300Y-71120000D01*
X114940700Y-68169500D02*
X114940700Y-68938600D01*
X129906200Y-68169500D02*
X114940700Y-68169500D01*
X132856700Y-71120000D02*
X129906200Y-68169500D01*
X72610400Y-90189000D02*
X72610400Y-98307700D01*
X74803000Y-87996400D02*
X72610400Y-90189000D01*
X83693000Y-131065000D02*
X83693000Y-129683700D01*
X134238000Y-96520000D02*
X135619300Y-96520000D01*
X135619300Y-96520000D02*
X135800900Y-96520000D01*
X131992100Y-119674100D02*
X132229500Y-119436700D01*
X134238000Y-121920000D02*
X131992100Y-119674100D01*
X135019900Y-71120000D02*
X134238000Y-71120000D01*
X136001700Y-72101800D02*
X135019900Y-71120000D01*
X129841400Y-93504700D02*
X132856700Y-96520000D01*
X123983100Y-93504700D02*
X129841400Y-93504700D01*
X123873400Y-93395000D02*
X123983100Y-93504700D01*
X118940400Y-93395000D02*
X123873400Y-93395000D01*
X115815400Y-96520000D02*
X118940400Y-93395000D01*
X111378000Y-96520000D02*
X115815400Y-96520000D01*
X130812100Y-118494100D02*
X131992100Y-119674100D01*
X120400200Y-118494100D02*
X130812100Y-118494100D01*
X120227200Y-118667100D02*
X120400200Y-118494100D01*
X119662900Y-118667100D02*
X120227200Y-118667100D01*
X119427000Y-118431200D02*
X119662900Y-118667100D01*
X116248100Y-118431200D02*
X119427000Y-118431200D01*
X112759300Y-121920000D02*
X116248100Y-118431200D01*
X82651100Y-128641800D02*
X80834600Y-128641800D01*
X83693000Y-129683700D02*
X82651100Y-128641800D01*
X63096100Y-131341900D02*
X61816600Y-131341900D01*
X63373000Y-131065000D02*
X63096100Y-131341900D01*
X134238000Y-96520000D02*
X132856700Y-96520000D01*
X82619300Y-65025000D02*
X83693000Y-65025000D01*
X61972700Y-62243400D02*
X63373000Y-63643700D01*
X41913300Y-62243400D02*
X61972700Y-62243400D01*
X40513000Y-63643700D02*
X41913300Y-62243400D01*
X62585600Y-128641800D02*
X80834600Y-128641800D01*
X61816600Y-127872800D02*
X62585600Y-128641800D01*
X66300100Y-60716600D02*
X63373000Y-63643700D01*
X80765900Y-60716600D02*
X66300100Y-60716600D01*
X83693000Y-63643700D02*
X80765900Y-60716600D01*
X46436000Y-96673700D02*
X48108000Y-96673700D01*
X39881300Y-103228400D02*
X46436000Y-96673700D01*
X39881300Y-104186300D02*
X39881300Y-103228400D01*
X40513000Y-131065000D02*
X40513000Y-129683700D01*
X40604600Y-129683700D02*
X40513000Y-129683700D01*
X40794300Y-129494000D02*
X40604600Y-129683700D01*
X61722200Y-127778400D02*
X43741900Y-127778400D01*
X61816600Y-127872800D02*
X61722200Y-127778400D01*
X65658000Y-107950000D02*
X64276700Y-107950000D01*
X64198900Y-107950000D02*
X64081500Y-107832600D01*
X64276700Y-107950000D02*
X64198900Y-107950000D01*
X47308000Y-97805000D02*
X47308000Y-98936300D01*
X51228800Y-85778700D02*
X45317400Y-85778700D01*
X51401800Y-85605700D02*
X51228800Y-85778700D01*
X52387100Y-85605700D02*
X51401800Y-85605700D01*
X53068400Y-86287000D02*
X52387100Y-85605700D01*
X54748100Y-86287000D02*
X53068400Y-86287000D01*
X46364500Y-98485000D02*
X45763900Y-98485000D01*
X46815800Y-98936300D02*
X46364500Y-98485000D01*
X47308000Y-98936300D02*
X46815800Y-98936300D01*
M02*
