M48
;DRILL file {KiCad 4.0.1-stable} date 2016-05-03 14:34:00
;FORMAT={-:-/ absolute / metric / decimal}
FMAT,2
METRIC,TZ
T1C0.400
T2C0.500
T3C0.550
T4C1.016
T5C3.048
%
G90
G05
M71
T1
X31.871Y-87.304
X33.086Y-64.034
X33.748Y-71.828
X33.748Y-92.547
X35.844Y-61.531
X37.135Y-132.955
X37.771Y-95.208
X38.207Y-53.556
X38.514Y-64.034
X38.842Y-96.863
X39.881Y-104.186
X39.969Y-59.995
X40.576Y-111.084
X40.577Y-108.807
X40.794Y-129.494
X40.817Y-52.034
X41.334Y-46.352
X42.325Y-120.086
X42.843Y-88.675
X42.843Y-101.254
X43.187Y-106.22
X43.591Y-80.01
X43.592Y-77.47
X43.742Y-127.778
X43.762Y-82.771
X44.234Y-128.516
X44.298Y-100.69
X44.81Y-108.808
X45.082Y-95.208
X45.317Y-85.779
X45.627Y-80.468
X45.658Y-81.325
X45.764Y-98.485
X45.858Y-85.097
X46.172Y-118.829
X46.324Y-77.536
X46.448Y-108.473
X46.491Y-115.777
X46.954Y-115.003
X46.96Y-101.905
X46.997Y-120.09
X47.029Y-107.218
X47.081Y-66.586
X47.182Y-104.494
X47.192Y-105.364
X47.81Y-93.877
X48.125Y-100.736
X48.296Y-120.099
X48.768Y-66.597
X48.862Y-102.018
X49.089Y-114.402
X49.217Y-99.124
X49.223Y-100.017
X50.038Y-63.529
X50.053Y-120.161
X50.107Y-118.18
X50.252Y-66.604
X50.26Y-93.877
X51.048Y-76.28
X51.096Y-105.434
X51.308Y-63.517
X51.463Y-120.087
X51.517Y-110.754
X51.704Y-81.766
X51.782Y-66.579
X51.894Y-86.795
X52.04Y-60.753
X52.707Y-107.885
X53.161Y-125.584
X53.275Y-102.018
X53.52Y-135.242
X53.597Y-99.14
X53.701Y-67.785
X53.783Y-102.9
X53.842Y-123.186
X53.848Y-63.474
X54.322Y-105.025
X54.615Y-99.867
X54.615Y-101.905
X54.642Y-82.47
X54.709Y-123.667
X54.748Y-86.287
X54.752Y-103.251
X55.085Y-128.503
X55.475Y-103.937
X55.816Y-86.287
X55.867Y-132.446
X55.928Y-114.732
X56.288Y-98.659
X56.431Y-130.904
X56.55Y-54.244
X56.737Y-111.883
X56.948Y-58.135
X57.325Y-89.554
X57.548Y-111.174
X57.683Y-120.07
X58.313Y-104.305
X58.704Y-126.38
X60.438Y-80.01
X60.444Y-99.382
X61.297Y-62.939
X61.817Y-127.873
X61.817Y-131.342
X62.147Y-95.419
X62.498Y-130.065
X62.667Y-66.406
X62.711Y-96.069
X62.738Y-118.693
X63.318Y-135.093
X63.424Y-96.75
X63.531Y-123.222
X64.081Y-107.833
X64.122Y-104.702
X65.057Y-66.787
X67.207Y-97.226
X67.242Y-106.68
X68.134Y-52.705
X68.172Y-57.204
X68.453Y-123.223
X68.743Y-105.41
X68.968Y-133.378
X69.088Y-63.518
X69.349Y-67.773
X70.775Y-84.55
X70.803Y-125.474
X70.909Y-100.476
X70.91Y-123.711
X71.208Y-63.453
X71.341Y-102.87
X71.612Y-120.194
X71.628Y-123.179
X71.971Y-57.182
X72.143Y-101.6
X72.532Y-57.829
X72.61Y-98.308
X72.78Y-100.659
X72.813Y-124.372
X73.186Y-67.053
X73.455Y-100.127
X73.533Y-132.649
X73.775Y-51.728
X73.867Y-58.422
X73.94Y-123.497
X74.416Y-62.942
X74.754Y-94.481
X75.098Y-67.143
X75.358Y-88.198
X76.073Y-75.614
X76.708Y-63.51
X76.979Y-67.486
X77.029Y-124.195
X77.206Y-97.79
X77.425Y-62.045
X77.847Y-78.772
X77.871Y-89.348
X77.929Y-120.153
X78.031Y-99.637
X79.604Y-89.964
X80.835Y-128.642
X81.273Y-111.595
X81.616Y-108.531
X81.923Y-89.167
X82.311Y-93.182
X82.619Y-65.025
X82.833Y-130.544
X83.058Y-108.449
X83.376Y-125.012
X84.245Y-108.488
X84.689Y-63.253
X84.963Y-129.476
X85.593Y-83.681
X85.704Y-73.025
X85.802Y-90.357
X85.802Y-104.514
X88.138Y-75.098
X88.822Y-101.907
X89.627Y-77.962
X90.579Y-63.47
X92.583Y-123.254
X93.944Y-118.483
X94.952Y-124.665
X95.354Y-57.839
X95.978Y-98.916
X95.978Y-106.935
X97.663Y-84.346
X97.908Y-100.508
X98.212Y-57.65
X98.525Y-122.291
X98.739Y-58.331
X98.803Y-63.644
X98.803Y-68.705
X99.116Y-101.226
X100.669Y-75.243
X101.036Y-131.604
X101.195Y-102.87
X101.213Y-80.137
X101.225Y-84.48
X101.248Y-125.742
X101.938Y-133.223
X103.378Y-90.994
X104.785Y-61.458
X107.779Y-95.302
X110.226Y-92.778
X110.904Y-63.105
X111.393Y-111.355
X111.425Y-136.746
X112.936Y-127.
X112.956Y-125.73
X113.045Y-58.334
X113.288Y-76.2
X113.288Y-86.995
X113.58Y-105.3
X113.84Y-48.658
X114.037Y-45.825
X114.155Y-100.513
X114.291Y-94.585
X114.291Y-117.588
X114.291Y-124.46
X114.924Y-75.172
X114.941Y-68.169
X115.382Y-98.337
X115.542Y-99.209
X116.311Y-70.403
X116.714Y-78.715
X116.716Y-101.195
X116.853Y-122.706
X116.867Y-128.449
X117.397Y-102.189
X117.771Y-119.157
X117.824Y-50.8
X117.919Y-102.875
X117.991Y-80.01
X118.02Y-130.81
X118.027Y-85.09
X118.713Y-91.111
X118.8Y-82.585
X118.81Y-66.805
X118.81Y-71.12
X119.006Y-135.89
X119.059Y-123.19
X119.183Y-94.116
X119.198Y-49.53
X119.209Y-57.15
X119.215Y-104.619
X119.217Y-72.39
X119.218Y-55.458
X119.248Y-80.71
X119.945Y-117.986
X121.602Y-89.567
X122.341Y-56.663
X122.342Y-133.35
X122.345Y-54.61
X122.348Y-128.27
X122.356Y-77.017
X122.36Y-130.81
X122.67Y-52.07
X122.729Y-112.145
X122.752Y-97.871
X122.962Y-58.502
X122.988Y-106.037
X123.081Y-51.128
X123.156Y-78.388
X123.228Y-101.217
X123.67Y-103.89
X123.756Y-134.571
X124.202Y-137.433
X124.212Y-79.757
X124.476Y-92.315
X131.396Y-66.083
X131.969Y-66.965
X132.23Y-119.437
X132.261Y-110.769
X132.911Y-116.398
X133.06Y-115.444
X135.619Y-62.953
X135.764Y-84.455
X135.801Y-96.52
X135.823Y-135.89
X135.983Y-100.33
X135.997Y-59.069
X136.002Y-72.102
X136.582Y-51.218
X136.955Y-74.93
X137.773Y-103.834
X138.228Y-58.387
X139.361Y-77.801
X140.149Y-55.88
X140.151Y-130.81
X140.2Y-76.2
X140.365Y-90.313
X140.589Y-85.09
X140.613Y-110.49
X140.616Y-47.558
X140.788Y-117.304
X141.049Y-102.87
X141.164Y-129.54
X141.845Y-130.423
X142.049Y-133.691
X142.059Y-105.41
X142.066Y-78.74
X142.068Y-104.537
X142.069Y-80.01
X142.094Y-135.305
X145.201Y-102.343
X145.215Y-54.61
X145.225Y-77.095
X145.677Y-56.391
X145.704Y-104.378
X146.383Y-78.
X146.769Y-125.914
X146.893Y-57.192
X147.118Y-105.201
X147.302Y-79.64
X147.492Y-129.443
T4
X30.988Y-94.615
X30.988Y-97.155
X30.988Y-99.695
X30.988Y-102.235
X30.988Y-104.775
X32.258Y-47.625
X32.258Y-50.165
X32.258Y-136.525
X32.258Y-139.065
X33.528Y-94.615
X33.528Y-97.155
X33.528Y-99.695
X33.528Y-102.235
X33.528Y-104.775
X34.798Y-47.625
X34.798Y-50.165
X34.798Y-136.525
X34.798Y-139.065
X37.338Y-47.625
X37.338Y-50.165
X37.338Y-136.525
X37.338Y-139.065
X39.878Y-47.625
X39.878Y-50.165
X39.878Y-136.525
X39.878Y-139.065
X42.418Y-47.625
X42.418Y-50.165
X42.418Y-136.525
X42.418Y-139.065
X44.958Y-47.625
X44.958Y-50.165
X44.958Y-136.525
X44.958Y-139.065
X47.244Y-69.215
X47.498Y-47.625
X47.498Y-50.165
X47.498Y-136.525
X47.498Y-139.065
X49.784Y-69.215
X50.038Y-47.625
X50.038Y-50.165
X50.038Y-136.525
X50.038Y-139.065
X52.324Y-69.215
X54.864Y-69.215
X56.388Y-117.475
X57.404Y-69.215
X58.928Y-117.475
X59.944Y-69.215
X60.198Y-47.625
X60.198Y-50.165
X60.198Y-136.525
X60.198Y-139.065
X61.468Y-117.475
X62.484Y-69.215
X62.738Y-47.625
X62.738Y-50.165
X62.738Y-136.525
X62.738Y-139.065
X64.008Y-117.475
X65.024Y-69.215
X65.278Y-47.625
X65.278Y-50.165
X65.278Y-136.525
X65.278Y-139.065
X66.548Y-117.475
X67.564Y-69.215
X67.818Y-47.625
X67.818Y-50.165
X67.818Y-136.525
X67.818Y-139.065
X69.088Y-117.475
X70.104Y-69.215
X70.358Y-47.625
X70.358Y-50.165
X70.358Y-136.525
X70.358Y-139.065
X71.628Y-117.475
X72.898Y-47.625
X72.898Y-50.165
X72.898Y-136.525
X72.898Y-139.065
X74.168Y-69.215
X74.168Y-117.475
X75.438Y-47.625
X75.438Y-50.165
X75.438Y-136.525
X75.438Y-139.065
X76.708Y-69.215
X77.978Y-47.625
X77.978Y-50.165
X77.978Y-136.525
X77.978Y-139.065
X79.248Y-69.215
X79.248Y-117.475
X81.788Y-69.215
X81.788Y-117.475
X84.328Y-69.215
X84.328Y-117.475
X86.868Y-69.215
X86.868Y-117.475
X89.408Y-69.215
X89.408Y-117.475
X91.948Y-69.215
X91.948Y-117.475
X103.378Y-47.625
X103.378Y-50.165
X103.378Y-52.705
X103.378Y-55.245
X103.378Y-57.785
X103.378Y-60.325
X103.378Y-62.865
X103.378Y-65.405
X103.378Y-70.485
X103.378Y-73.025
X103.378Y-75.565
X103.378Y-78.105
X103.378Y-80.645
X103.378Y-83.185
X103.378Y-85.725
X103.378Y-88.265
X103.378Y-95.885
X103.378Y-98.425
X103.378Y-100.965
X103.378Y-103.505
X103.378Y-106.045
X103.378Y-108.585
X103.378Y-111.125
X103.378Y-113.665
X103.378Y-121.285
X103.378Y-123.825
X103.378Y-126.365
X103.378Y-128.905
X103.378Y-131.445
X103.378Y-133.985
X103.378Y-136.525
X103.378Y-139.065
X105.918Y-47.625
X105.918Y-50.165
X105.918Y-52.705
X105.918Y-55.245
X105.918Y-57.785
X105.918Y-60.325
X105.918Y-62.865
X105.918Y-65.405
X105.918Y-70.485
X105.918Y-73.025
X105.918Y-75.565
X105.918Y-78.105
X105.918Y-80.645
X105.918Y-83.185
X105.918Y-85.725
X105.918Y-88.265
X105.918Y-95.885
X105.918Y-98.425
X105.918Y-100.965
X105.918Y-103.505
X105.918Y-106.045
X105.918Y-108.585
X105.918Y-111.125
X105.918Y-113.665
X105.918Y-121.285
X105.918Y-123.825
X105.918Y-126.365
X105.918Y-128.905
X105.918Y-131.445
X105.918Y-133.985
X105.918Y-136.525
X105.918Y-139.065
X126.238Y-47.625
X126.238Y-50.165
X126.238Y-52.705
X126.238Y-55.245
X126.238Y-57.785
X126.238Y-60.325
X126.238Y-62.865
X126.238Y-65.405
X126.238Y-70.485
X126.238Y-73.025
X126.238Y-75.565
X126.238Y-78.105
X126.238Y-80.645
X126.238Y-83.185
X126.238Y-85.725
X126.238Y-88.265
X126.238Y-95.885
X126.238Y-98.425
X126.238Y-100.965
X126.238Y-103.505
X126.238Y-106.045
X126.238Y-108.585
X126.238Y-111.125
X126.238Y-113.665
X126.238Y-121.285
X126.238Y-123.825
X126.238Y-126.365
X126.238Y-128.905
X126.238Y-131.445
X126.238Y-133.985
X126.238Y-136.525
X126.238Y-139.065
X128.778Y-47.625
X128.778Y-50.165
X128.778Y-52.705
X128.778Y-55.245
X128.778Y-57.785
X128.778Y-60.325
X128.778Y-62.865
X128.778Y-65.405
X128.778Y-70.485
X128.778Y-73.025
X128.778Y-75.565
X128.778Y-78.105
X128.778Y-80.645
X128.778Y-83.185
X128.778Y-85.725
X128.778Y-88.265
X128.778Y-95.885
X128.778Y-98.425
X128.778Y-100.965
X128.778Y-103.505
X128.778Y-106.045
X128.778Y-108.585
X128.778Y-111.125
X128.778Y-113.665
X128.778Y-121.285
X128.778Y-123.825
X128.778Y-126.365
X128.778Y-128.905
X128.778Y-131.445
X128.778Y-133.985
X128.778Y-136.525
X128.778Y-139.065
X149.098Y-47.625
X149.098Y-50.165
X149.098Y-52.705
X149.098Y-55.245
X149.098Y-57.785
X149.098Y-60.325
X149.098Y-62.865
X149.098Y-65.405
X149.098Y-70.485
X149.098Y-73.025
X149.098Y-75.565
X149.098Y-78.105
X149.098Y-80.645
X149.098Y-83.185
X149.098Y-85.725
X149.098Y-88.265
X149.098Y-95.885
X149.098Y-98.425
X149.098Y-100.965
X149.098Y-103.505
X149.098Y-106.045
X149.098Y-108.585
X149.098Y-111.125
X149.098Y-113.665
X149.098Y-121.285
X149.098Y-123.825
X149.098Y-126.365
X149.098Y-128.905
X149.098Y-131.445
X149.098Y-133.985
X149.098Y-136.525
X149.098Y-139.065
X151.638Y-47.625
X151.638Y-50.165
X151.638Y-52.705
X151.638Y-55.245
X151.638Y-57.785
X151.638Y-60.325
X151.638Y-62.865
X151.638Y-65.405
X151.638Y-70.485
X151.638Y-73.025
X151.638Y-75.565
X151.638Y-78.105
X151.638Y-80.645
X151.638Y-83.185
X151.638Y-85.725
X151.638Y-88.265
X151.638Y-95.885
X151.638Y-98.425
X151.638Y-100.965
X151.638Y-103.505
X151.638Y-106.045
X151.638Y-108.585
X151.638Y-111.125
X151.638Y-113.665
X151.638Y-121.285
X151.638Y-123.825
X151.638Y-126.365
X151.638Y-128.905
X151.638Y-131.445
X151.638Y-133.985
X151.638Y-136.525
X151.638Y-139.065
T5
X42.418Y-117.475
X43.688Y-69.215
X94.488Y-84.455
X94.488Y-112.395
T2
X30.796Y-110.164G85X31.446Y-110.164
G05
X30.796Y-117.164G85X31.446Y-117.164
G05
T3
X33.821Y-111.014G85X33.821Y-111.314
G05
X33.821Y-116.014G85X33.821Y-116.314
G05
T0
M30
