M48
;DRILL file {KiCad 4.0.1-stable} date 2016-06-03 18:52:14
;FORMAT={-:-/ absolute / metric / decimal}
FMAT,2
METRIC,TZ
T1C0.400
T2C1.016
T3C3.048
%
G90
G05
M71
T1
X32.52Y-106.532
X32.958Y-89.519
X32.967Y-107.781
X33.465Y-98.344
X34.447Y-79.771
X34.655Y-68.691
X35.342Y-67.489
X35.69Y-111.506
X36.488Y-82.31
X37.147Y-84.982
X37.605Y-103.09
X38.715Y-95.158
X38.803Y-94.26
X39.187Y-101.859
X40.855Y-86.93
X41.178Y-107.214
X41.214Y-109.225
X41.497Y-108.1
X42.196Y-106.592
X42.324Y-91.951
X43.805Y-83.794
X44.003Y-102.29
X44.021Y-81.585
X44.182Y-88.804
X44.386Y-103.807
X44.491Y-100.992
X44.524Y-104.676
X44.554Y-83.099
X44.569Y-80.481
X44.723Y-84.042
X44.839Y-79.369
X44.847Y-98.781
X44.982Y-77.882
X45.022Y-76.647
X45.045Y-99.695
X45.711Y-74.626
X46.155Y-61.84
X46.739Y-74.669
X46.941Y-95.955
X47.927Y-67.663
X48.507Y-90.281
X48.672Y-109.69
X49.47Y-74.894
X51.723Y-71.157
X51.843Y-112.341
X52.249Y-89.804
X52.502Y-100.965
X52.82Y-97.065
X53.272Y-91.591
X53.527Y-110.444
X53.527Y-111.569
X53.678Y-80.393
X53.842Y-100.241
X53.917Y-97.941
X54.035Y-109.22
X54.21Y-106.322
X54.297Y-101.864
X54.424Y-107.315
X54.432Y-78.105
X54.433Y-83.185
X54.453Y-86.995
X57.576Y-88.265
X57.63Y-83.451
X58.48Y-89.263
X58.699Y-78.342
X59.162Y-114.868
X59.207Y-104.674
X59.271Y-85.129
X60.383Y-103.195
X60.427Y-109.736
X61.553Y-107.315
X61.554Y-84.012
X61.554Y-108.633
X61.603Y-90.216
X62.041Y-91.912
X64.673Y-85.575
X64.682Y-81.915
X64.703Y-110.561
X64.885Y-107.198
X65.112Y-99.49
X65.302Y-78.469
X65.652Y-80.212
X65.702Y-102.019
X65.898Y-83.337
X66.676Y-104.774
X66.945Y-88.263
X67.37Y-111.125
X67.451Y-114.111
X68.453Y-65.691
X68.975Y-112.385
X69.247Y-76.835
X69.247Y-78.105
X69.264Y-72.95
X70.695Y-72.873
X70.857Y-59.312
X70.858Y-65.644
X70.867Y-86.735
X70.867Y-88.843
X70.935Y-84.455
X71.25Y-71.736
X73.599Y-67.205
X74.029Y-100.284
X74.078Y-79.484
X74.078Y-81.915
X74.087Y-82.997
X74.104Y-101.194
X74.223Y-76.733
X74.239Y-104.914
X74.287Y-102.239
X74.437Y-77.732
X74.457Y-61.568
X74.808Y-106.672
X74.87Y-85.791
X75.049Y-103.603
X75.341Y-107.795
X75.807Y-109.149
X76.968Y-89.269
X77.051Y-98.311
X77.298Y-101.916
X77.562Y-77.678
X77.974Y-86.995
X78.029Y-88.492
X78.066Y-109.727
X78.07Y-103.474
X78.072Y-78.481
X81.16Y-83.894
X81.191Y-85.66
X81.209Y-106.358
X81.21Y-81.915
X81.23Y-111.228
X81.403Y-79.525
X81.629Y-74.335
X82.181Y-73.654
X82.634Y-83.185
X82.694Y-70.544
X83.763Y-97.803
X83.976Y-108.386
X84.201Y-101.907
X84.703Y-104.341
X84.736Y-92.652
X84.745Y-107.197
X84.834Y-108.249
X85.961Y-99.695
X86.135Y-76.867
X86.18Y-100.879
X86.748Y-78.105
X86.888Y-111.364
X87.186Y-76.827
X89.408Y-114.549
X90.589Y-83.185
X90.589Y-85.761
X90.657Y-93.126
X90.666Y-80.512
X90.808Y-100.879
X91.141Y-102.235
X94.455Y-100.152
X95.219Y-107.387
X96.07Y-103.829
X96.504Y-120.515
X97.925Y-88.941
X98.163Y-85.905
X98.222Y-87.34
X101.511Y-75.565
X101.609Y-109.091
X101.936Y-102.295
X101.949Y-106.045
X102.029Y-99.871
X102.163Y-85.251
X102.284Y-110.686
X102.488Y-103.555
X102.918Y-81.915
X104.619Y-124.516
X104.715Y-60.529
X105.386Y-110.468
X105.853Y-74.112
X105.853Y-112.134
X109.039Y-96.19
X110.861Y-100.283
X110.906Y-78.105
X110.912Y-101.198
X110.921Y-102.235
X111.559Y-103.555
X111.864Y-98.305
X112.118Y-104.775
X112.404Y-90.457
X112.881Y-106.045
X113.58Y-98.785
X114.115Y-107.878
X115.24Y-109.081
X117.269Y-75.997
X117.418Y-87.07
X117.427Y-84.455
X117.443Y-110.794
X117.471Y-81.33
X120.553Y-85.213
X120.558Y-88.265
X120.561Y-99.695
X120.613Y-102.235
X120.787Y-83.013
X120.868Y-103.505
X120.89Y-104.724
X120.917Y-106.407
X120.992Y-107.495
X121.611Y-79.375
X121.622Y-108.828
X122.438Y-80.144
X123.124Y-76.53
X123.306Y-77.768
X123.416Y-111.59
X124.093Y-95.487
X125.091Y-106.276
X126.813Y-85.245
X126.839Y-99.695
X129.955Y-101.986
X129.966Y-100.826
X130.029Y-80.455
X130.156Y-78.105
X130.478Y-103.555
X130.554Y-81.15
X131.433Y-106.386
X132.094Y-81.651
X132.29Y-109.059
X132.775Y-81.102
X133.757Y-109.534
X135.074Y-109.869
X135.104Y-98.649
X135.792Y-89.538
X136.272Y-85.692
X136.307Y-86.995
X136.445Y-88.211
X136.468Y-111.125
X136.481Y-84.455
X139.606Y-80.645
X139.607Y-102.32
X139.609Y-81.62
X139.707Y-82.749
X140.104Y-91.851
X140.518Y-103.958
X140.775Y-97.911
X141.085Y-77.517
X145.204Y-78.821
X145.883Y-83.185
X145.885Y-79.375
X149.013Y-104.89
X149.036Y-97.917
X149.048Y-81.461
X149.467Y-95.096
X149.735Y-82.753
X149.76Y-103.556
X149.87Y-77.21
X150.044Y-93.14
X150.39Y-85.185
X152.557Y-77.276
X154.659Y-110.802
X155.382Y-103.711
X155.527Y-108.585
X155.531Y-106.045
X155.537Y-84.455
X155.542Y-107.436
X158.663Y-85.541
X158.665Y-81.915
X158.799Y-102.317
X158.811Y-87.308
X159.282Y-75.36
X159.287Y-100.752
X159.311Y-80.524
X159.471Y-90.18
X159.5Y-79.197
X159.526Y-104.715
X159.942Y-99.695
X160.878Y-77.92
X160.982Y-76.835
X163.468Y-109.756
X164.351Y-76.74
X164.485Y-87.367
X164.485Y-91.253
X164.932Y-104.029
X164.974Y-109.173
X168.057Y-99.873
X168.065Y-102.263
X168.068Y-106.141
X168.068Y-103.736
X168.075Y-108.912
X168.09Y-84.16
X168.156Y-79.304
X168.608Y-83.042
X169.215Y-89.535
X169.357Y-115.618
X169.554Y-111.849
X170.079Y-92.673
X170.12Y-81.423
X170.245Y-114.101
X170.323Y-128.139
X170.72Y-89.031
X170.76Y-106.551
X171.174Y-107.603
X171.441Y-91.868
X171.67Y-110.164
X172.754Y-91.462
X173.392Y-101.14
X174.057Y-107.597
X174.566Y-75.565
X174.581Y-112.209
X179.366Y-71.923
X180.051Y-73.607
X182.683Y-80.108
X183.282Y-81.915
X183.492Y-110.071
X183.545Y-82.813
X183.989Y-112.572
X183.99Y-85.778
X183.992Y-111.125
T2
X35.433Y-53.975
X35.433Y-56.515
X35.433Y-130.81
X35.433Y-133.35
X37.973Y-53.975
X37.973Y-56.515
X37.973Y-130.81
X37.973Y-133.35
X40.513Y-53.975
X40.513Y-56.515
X40.513Y-130.81
X40.513Y-133.35
X43.053Y-53.975
X43.053Y-56.515
X43.053Y-130.81
X43.053Y-133.35
X45.593Y-53.975
X45.593Y-56.515
X45.593Y-130.81
X45.593Y-133.35
X47.244Y-69.215
X48.133Y-53.975
X48.133Y-56.515
X48.133Y-130.81
X48.133Y-133.35
X49.784Y-69.215
X50.673Y-53.975
X50.673Y-56.515
X50.673Y-130.81
X50.673Y-133.35
X52.324Y-69.215
X53.213Y-53.975
X53.213Y-56.515
X53.213Y-130.81
X53.213Y-133.35
X54.864Y-69.215
X56.388Y-117.475
X57.404Y-69.215
X58.928Y-117.475
X59.944Y-69.215
X61.468Y-117.475
X62.484Y-69.215
X64.008Y-117.475
X65.024Y-69.215
X65.913Y-53.975
X65.913Y-56.515
X65.913Y-130.81
X65.913Y-133.35
X66.548Y-117.475
X67.564Y-69.215
X68.453Y-53.975
X68.453Y-56.515
X68.453Y-130.81
X68.453Y-133.35
X69.088Y-117.475
X70.104Y-69.215
X70.993Y-53.975
X70.993Y-56.515
X70.993Y-130.81
X70.993Y-133.35
X71.628Y-117.475
X73.533Y-53.975
X73.533Y-56.515
X73.533Y-130.81
X73.533Y-133.35
X74.168Y-69.215
X74.168Y-117.475
X76.073Y-53.975
X76.073Y-56.515
X76.073Y-130.81
X76.073Y-133.35
X76.708Y-69.215
X78.613Y-53.975
X78.613Y-56.515
X78.613Y-130.81
X78.613Y-133.35
X79.248Y-69.215
X79.248Y-117.475
X81.153Y-53.975
X81.153Y-56.515
X81.153Y-130.81
X81.153Y-133.35
X81.788Y-69.215
X81.788Y-117.475
X83.693Y-53.975
X83.693Y-56.515
X83.693Y-130.81
X83.693Y-133.35
X84.328Y-69.215
X84.328Y-117.475
X86.868Y-69.215
X86.868Y-117.475
X89.408Y-69.215
X89.408Y-117.475
X91.948Y-69.215
X91.948Y-117.475
X96.393Y-53.975
X96.393Y-56.515
X96.393Y-130.81
X96.393Y-133.35
X98.933Y-53.975
X98.933Y-56.515
X98.933Y-130.81
X98.933Y-133.35
X101.473Y-53.975
X101.473Y-56.515
X101.473Y-130.81
X101.473Y-133.35
X104.013Y-53.975
X104.013Y-56.515
X104.013Y-65.405
X104.013Y-67.945
X104.013Y-119.38
X104.013Y-121.92
X104.013Y-130.81
X104.013Y-133.35
X106.553Y-53.975
X106.553Y-56.515
X106.553Y-65.405
X106.553Y-67.945
X106.553Y-119.38
X106.553Y-121.92
X106.553Y-130.81
X106.553Y-133.35
X109.093Y-53.975
X109.093Y-56.515
X109.093Y-65.405
X109.093Y-67.945
X109.093Y-119.38
X109.093Y-121.92
X109.093Y-130.81
X109.093Y-133.35
X111.633Y-53.975
X111.633Y-56.515
X111.633Y-65.405
X111.633Y-67.945
X111.633Y-119.38
X111.633Y-121.92
X111.633Y-130.81
X111.633Y-133.35
X114.173Y-53.975
X114.173Y-56.515
X114.173Y-65.405
X114.173Y-67.945
X114.173Y-119.38
X114.173Y-121.92
X114.173Y-130.81
X114.173Y-133.35
X116.713Y-65.405
X116.713Y-67.945
X116.713Y-119.38
X116.713Y-121.92
X119.253Y-65.405
X119.253Y-67.945
X119.253Y-119.38
X119.253Y-121.92
X121.793Y-65.405
X121.793Y-67.945
X121.793Y-119.38
X121.793Y-121.92
X126.873Y-53.975
X126.873Y-56.515
X126.873Y-130.81
X126.873Y-133.35
X129.413Y-53.975
X129.413Y-56.515
X129.413Y-130.81
X129.413Y-133.35
X131.953Y-53.975
X131.953Y-56.515
X131.953Y-130.81
X131.953Y-133.35
X134.493Y-53.975
X134.493Y-56.515
X134.493Y-65.405
X134.493Y-67.945
X134.493Y-119.38
X134.493Y-121.92
X134.493Y-130.81
X134.493Y-133.35
X137.033Y-53.975
X137.033Y-56.515
X137.033Y-65.405
X137.033Y-67.945
X137.033Y-119.38
X137.033Y-121.92
X137.033Y-130.81
X137.033Y-133.35
X139.573Y-53.975
X139.573Y-56.515
X139.573Y-65.405
X139.573Y-67.945
X139.573Y-119.38
X139.573Y-121.92
X139.573Y-130.81
X139.573Y-133.35
X142.113Y-53.975
X142.113Y-56.515
X142.113Y-65.405
X142.113Y-67.945
X142.113Y-119.38
X142.113Y-121.92
X142.113Y-130.81
X142.113Y-133.35
X144.653Y-53.975
X144.653Y-56.515
X144.653Y-65.405
X144.653Y-67.945
X144.653Y-119.38
X144.653Y-121.92
X144.653Y-130.81
X144.653Y-133.35
X147.193Y-65.405
X147.193Y-67.945
X147.193Y-119.38
X147.193Y-121.92
X149.733Y-65.405
X149.733Y-67.945
X149.733Y-119.38
X149.733Y-121.92
X152.273Y-65.405
X152.273Y-67.945
X152.273Y-119.38
X152.273Y-121.92
X157.353Y-53.975
X157.353Y-56.515
X157.353Y-130.81
X157.353Y-133.35
X159.893Y-53.975
X159.893Y-56.515
X159.893Y-130.81
X159.893Y-133.35
X162.433Y-53.975
X162.433Y-56.515
X162.433Y-130.81
X162.433Y-133.35
X164.973Y-53.975
X164.973Y-56.515
X164.973Y-65.405
X164.973Y-67.945
X164.973Y-119.38
X164.973Y-121.92
X164.973Y-130.81
X164.973Y-133.35
X167.513Y-53.975
X167.513Y-56.515
X167.513Y-65.405
X167.513Y-67.945
X167.513Y-119.38
X167.513Y-121.92
X167.513Y-130.81
X167.513Y-133.35
X170.053Y-53.975
X170.053Y-56.515
X170.053Y-65.405
X170.053Y-67.945
X170.053Y-119.38
X170.053Y-121.92
X170.053Y-130.81
X170.053Y-133.35
X172.593Y-53.975
X172.593Y-56.515
X172.593Y-65.405
X172.593Y-67.945
X172.593Y-119.38
X172.593Y-121.92
X172.593Y-130.81
X172.593Y-133.35
X175.133Y-53.975
X175.133Y-56.515
X175.133Y-65.405
X175.133Y-67.945
X175.133Y-119.38
X175.133Y-121.92
X175.133Y-130.81
X175.133Y-133.35
X177.673Y-65.405
X177.673Y-67.945
X177.673Y-119.38
X177.673Y-121.92
X180.213Y-65.405
X180.213Y-67.945
X180.213Y-119.38
X180.213Y-121.92
X182.753Y-65.405
X182.753Y-67.945
X182.753Y-119.38
X182.753Y-121.92
T3
X42.418Y-117.475
X43.688Y-69.215
X94.488Y-84.455
X94.488Y-112.395
T0
M30
