G04 #@! TF.FileFunction,Copper,L1,Top,Signal*
%FSLAX46Y46*%
G04 Gerber Fmt 4.6, Leading zero omitted, Abs format (unit mm)*
G04 Created by KiCad (PCBNEW 4.0.1-stable) date 2016-06-03 18:52:32*
%MOMM*%
G01*
G04 APERTURE LIST*
%ADD10C,0.100000*%
%ADD11R,2.000000X0.600000*%
%ADD12O,1.727200X2.032000*%
%ADD13C,4.064000*%
%ADD14R,1.727200X1.727200*%
%ADD15O,1.727200X1.727200*%
%ADD16R,0.600000X1.550000*%
%ADD17R,0.800100X1.800860*%
%ADD18R,0.900000X1.200000*%
%ADD19R,1.200000X2.000000*%
%ADD20C,0.600000*%
%ADD21C,0.254000*%
G04 APERTURE END LIST*
D10*
D11*
X99948000Y-98425000D03*
X99948000Y-99695000D03*
X99948000Y-100965000D03*
X99948000Y-102235000D03*
X99948000Y-103505000D03*
X99948000Y-104775000D03*
X99948000Y-106045000D03*
X99948000Y-107315000D03*
X99948000Y-108585000D03*
X99948000Y-109855000D03*
X99948000Y-111125000D03*
X99948000Y-112395000D03*
X109348000Y-112395000D03*
X109348000Y-111125000D03*
X109348000Y-109855000D03*
X109348000Y-108585000D03*
X109348000Y-107315000D03*
X109348000Y-106045000D03*
X109348000Y-104775000D03*
X109348000Y-103505000D03*
X109348000Y-102235000D03*
X109348000Y-100965000D03*
X109348000Y-99695000D03*
X109348000Y-98425000D03*
D12*
X56388000Y-117475000D03*
X58928000Y-117475000D03*
X61468000Y-117475000D03*
X64008000Y-117475000D03*
X66548000Y-117475000D03*
X69088000Y-117475000D03*
X71628000Y-117475000D03*
X74168000Y-117475000D03*
X79248000Y-117475000D03*
X81788000Y-117475000D03*
X84328000Y-117475000D03*
X86868000Y-117475000D03*
X89408000Y-117475000D03*
X91948000Y-117475000D03*
X47244000Y-69215000D03*
X49784000Y-69215000D03*
X52324000Y-69215000D03*
X54864000Y-69215000D03*
X57404000Y-69215000D03*
X59944000Y-69215000D03*
X62484000Y-69215000D03*
X65024000Y-69215000D03*
X67564000Y-69215000D03*
X70104000Y-69215000D03*
X74168000Y-69215000D03*
X76708000Y-69215000D03*
X79248000Y-69215000D03*
X81788000Y-69215000D03*
X84328000Y-69215000D03*
X86868000Y-69215000D03*
X89408000Y-69215000D03*
X91948000Y-69215000D03*
D13*
X42418000Y-117475000D03*
X94488000Y-112395000D03*
X43688000Y-69215000D03*
X94488000Y-84455000D03*
D14*
X35433000Y-56515000D03*
D15*
X35433000Y-53975000D03*
X37973000Y-56515000D03*
X37973000Y-53975000D03*
X40513000Y-56515000D03*
X40513000Y-53975000D03*
X43053000Y-56515000D03*
X43053000Y-53975000D03*
X45593000Y-56515000D03*
X45593000Y-53975000D03*
X48133000Y-56515000D03*
X48133000Y-53975000D03*
X50673000Y-56515000D03*
X50673000Y-53975000D03*
X53213000Y-56515000D03*
X53213000Y-53975000D03*
D14*
X65913000Y-56515000D03*
D15*
X65913000Y-53975000D03*
X68453000Y-56515000D03*
X68453000Y-53975000D03*
X70993000Y-56515000D03*
X70993000Y-53975000D03*
X73533000Y-56515000D03*
X73533000Y-53975000D03*
X76073000Y-56515000D03*
X76073000Y-53975000D03*
X78613000Y-56515000D03*
X78613000Y-53975000D03*
X81153000Y-56515000D03*
X81153000Y-53975000D03*
X83693000Y-56515000D03*
X83693000Y-53975000D03*
D14*
X96393000Y-56515000D03*
D15*
X96393000Y-53975000D03*
X98933000Y-56515000D03*
X98933000Y-53975000D03*
X101473000Y-56515000D03*
X101473000Y-53975000D03*
X104013000Y-56515000D03*
X104013000Y-53975000D03*
X106553000Y-56515000D03*
X106553000Y-53975000D03*
X109093000Y-56515000D03*
X109093000Y-53975000D03*
X111633000Y-56515000D03*
X111633000Y-53975000D03*
X114173000Y-56515000D03*
X114173000Y-53975000D03*
D16*
X34798000Y-77945000D03*
X33528000Y-77945000D03*
X32258000Y-77945000D03*
X30988000Y-77945000D03*
X30988000Y-83345000D03*
X32258000Y-83345000D03*
X33528000Y-83345000D03*
X34798000Y-83345000D03*
D14*
X104013000Y-67945000D03*
D15*
X104013000Y-65405000D03*
X106553000Y-67945000D03*
X106553000Y-65405000D03*
X109093000Y-67945000D03*
X109093000Y-65405000D03*
X111633000Y-67945000D03*
X111633000Y-65405000D03*
X114173000Y-67945000D03*
X114173000Y-65405000D03*
X116713000Y-67945000D03*
X116713000Y-65405000D03*
X119253000Y-67945000D03*
X119253000Y-65405000D03*
X121793000Y-67945000D03*
X121793000Y-65405000D03*
D11*
X99948000Y-75565000D03*
X99948000Y-76835000D03*
X99948000Y-78105000D03*
X99948000Y-79375000D03*
X99948000Y-80645000D03*
X99948000Y-81915000D03*
X99948000Y-83185000D03*
X99948000Y-84455000D03*
X99948000Y-85725000D03*
X99948000Y-86995000D03*
X99948000Y-88265000D03*
X99948000Y-89535000D03*
X109348000Y-89535000D03*
X109348000Y-88265000D03*
X109348000Y-86995000D03*
X109348000Y-85725000D03*
X109348000Y-84455000D03*
X109348000Y-83185000D03*
X109348000Y-81915000D03*
X109348000Y-80645000D03*
X109348000Y-79375000D03*
X109348000Y-78105000D03*
X109348000Y-76835000D03*
X109348000Y-75565000D03*
D16*
X42418000Y-77945000D03*
X41148000Y-77945000D03*
X39878000Y-77945000D03*
X38608000Y-77945000D03*
X38608000Y-83345000D03*
X39878000Y-83345000D03*
X41148000Y-83345000D03*
X42418000Y-83345000D03*
D11*
X40768000Y-102235000D03*
X40768000Y-100965000D03*
X40768000Y-99695000D03*
X40768000Y-98425000D03*
X40768000Y-97155000D03*
X40768000Y-95885000D03*
X40768000Y-94615000D03*
X40768000Y-93345000D03*
X40768000Y-92075000D03*
X40768000Y-90805000D03*
X40768000Y-89535000D03*
X40768000Y-88265000D03*
X31368000Y-88265000D03*
X31368000Y-89535000D03*
X31368000Y-90805000D03*
X31368000Y-92075000D03*
X31368000Y-93345000D03*
X31368000Y-94615000D03*
X31368000Y-95885000D03*
X31368000Y-97155000D03*
X31368000Y-98425000D03*
X31368000Y-99695000D03*
X31368000Y-100965000D03*
X31368000Y-102235000D03*
X46608000Y-75565000D03*
X46608000Y-76835000D03*
X46608000Y-78105000D03*
X46608000Y-79375000D03*
X46608000Y-80645000D03*
X46608000Y-81915000D03*
X46608000Y-83185000D03*
X46608000Y-84455000D03*
X46608000Y-85725000D03*
X46608000Y-86995000D03*
X46608000Y-88265000D03*
X46608000Y-89535000D03*
X56008000Y-89535000D03*
X56008000Y-88265000D03*
X56008000Y-86995000D03*
X56008000Y-85725000D03*
X56008000Y-84455000D03*
X56008000Y-83185000D03*
X56008000Y-81915000D03*
X56008000Y-80645000D03*
X56008000Y-79375000D03*
X56008000Y-78105000D03*
X56008000Y-76835000D03*
X56008000Y-75565000D03*
X63118000Y-75565000D03*
X63118000Y-76835000D03*
X63118000Y-78105000D03*
X63118000Y-79375000D03*
X63118000Y-80645000D03*
X63118000Y-81915000D03*
X63118000Y-83185000D03*
X63118000Y-84455000D03*
X63118000Y-85725000D03*
X63118000Y-86995000D03*
X63118000Y-88265000D03*
X63118000Y-89535000D03*
X72518000Y-89535000D03*
X72518000Y-88265000D03*
X72518000Y-86995000D03*
X72518000Y-85725000D03*
X72518000Y-84455000D03*
X72518000Y-83185000D03*
X72518000Y-81915000D03*
X72518000Y-80645000D03*
X72518000Y-79375000D03*
X72518000Y-78105000D03*
X72518000Y-76835000D03*
X72518000Y-75565000D03*
X79628000Y-75565000D03*
X79628000Y-76835000D03*
X79628000Y-78105000D03*
X79628000Y-79375000D03*
X79628000Y-80645000D03*
X79628000Y-81915000D03*
X79628000Y-83185000D03*
X79628000Y-84455000D03*
X79628000Y-85725000D03*
X79628000Y-86995000D03*
X79628000Y-88265000D03*
X79628000Y-89535000D03*
X89028000Y-89535000D03*
X89028000Y-88265000D03*
X89028000Y-86995000D03*
X89028000Y-85725000D03*
X89028000Y-84455000D03*
X89028000Y-83185000D03*
X89028000Y-81915000D03*
X89028000Y-80645000D03*
X89028000Y-79375000D03*
X89028000Y-78105000D03*
X89028000Y-76835000D03*
X89028000Y-75565000D03*
D14*
X126873000Y-56515000D03*
D15*
X126873000Y-53975000D03*
X129413000Y-56515000D03*
X129413000Y-53975000D03*
X131953000Y-56515000D03*
X131953000Y-53975000D03*
X134493000Y-56515000D03*
X134493000Y-53975000D03*
X137033000Y-56515000D03*
X137033000Y-53975000D03*
X139573000Y-56515000D03*
X139573000Y-53975000D03*
X142113000Y-56515000D03*
X142113000Y-53975000D03*
X144653000Y-56515000D03*
X144653000Y-53975000D03*
D14*
X134493000Y-67945000D03*
D15*
X134493000Y-65405000D03*
X137033000Y-67945000D03*
X137033000Y-65405000D03*
X139573000Y-67945000D03*
X139573000Y-65405000D03*
X142113000Y-67945000D03*
X142113000Y-65405000D03*
X144653000Y-67945000D03*
X144653000Y-65405000D03*
X147193000Y-67945000D03*
X147193000Y-65405000D03*
X149733000Y-67945000D03*
X149733000Y-65405000D03*
X152273000Y-67945000D03*
X152273000Y-65405000D03*
D14*
X157353000Y-56515000D03*
D15*
X157353000Y-53975000D03*
X159893000Y-56515000D03*
X159893000Y-53975000D03*
X162433000Y-56515000D03*
X162433000Y-53975000D03*
X164973000Y-56515000D03*
X164973000Y-53975000D03*
X167513000Y-56515000D03*
X167513000Y-53975000D03*
X170053000Y-56515000D03*
X170053000Y-53975000D03*
X172593000Y-56515000D03*
X172593000Y-53975000D03*
X175133000Y-56515000D03*
X175133000Y-53975000D03*
D14*
X164973000Y-67945000D03*
D15*
X164973000Y-65405000D03*
X167513000Y-67945000D03*
X167513000Y-65405000D03*
X170053000Y-67945000D03*
X170053000Y-65405000D03*
X172593000Y-67945000D03*
X172593000Y-65405000D03*
X175133000Y-67945000D03*
X175133000Y-65405000D03*
X177673000Y-67945000D03*
X177673000Y-65405000D03*
X180213000Y-67945000D03*
X180213000Y-65405000D03*
X182753000Y-67945000D03*
X182753000Y-65405000D03*
D11*
X118998000Y-75565000D03*
X118998000Y-76835000D03*
X118998000Y-78105000D03*
X118998000Y-79375000D03*
X118998000Y-80645000D03*
X118998000Y-81915000D03*
X118998000Y-83185000D03*
X118998000Y-84455000D03*
X118998000Y-85725000D03*
X118998000Y-86995000D03*
X118998000Y-88265000D03*
X118998000Y-89535000D03*
X128398000Y-89535000D03*
X128398000Y-88265000D03*
X128398000Y-86995000D03*
X128398000Y-85725000D03*
X128398000Y-84455000D03*
X128398000Y-83185000D03*
X128398000Y-81915000D03*
X128398000Y-80645000D03*
X128398000Y-79375000D03*
X128398000Y-78105000D03*
X128398000Y-76835000D03*
X128398000Y-75565000D03*
X138048000Y-75565000D03*
X138048000Y-76835000D03*
X138048000Y-78105000D03*
X138048000Y-79375000D03*
X138048000Y-80645000D03*
X138048000Y-81915000D03*
X138048000Y-83185000D03*
X138048000Y-84455000D03*
X138048000Y-85725000D03*
X138048000Y-86995000D03*
X138048000Y-88265000D03*
X138048000Y-89535000D03*
X147448000Y-89535000D03*
X147448000Y-88265000D03*
X147448000Y-86995000D03*
X147448000Y-85725000D03*
X147448000Y-84455000D03*
X147448000Y-83185000D03*
X147448000Y-81915000D03*
X147448000Y-80645000D03*
X147448000Y-79375000D03*
X147448000Y-78105000D03*
X147448000Y-76835000D03*
X147448000Y-75565000D03*
X157098000Y-75565000D03*
X157098000Y-76835000D03*
X157098000Y-78105000D03*
X157098000Y-79375000D03*
X157098000Y-80645000D03*
X157098000Y-81915000D03*
X157098000Y-83185000D03*
X157098000Y-84455000D03*
X157098000Y-85725000D03*
X157098000Y-86995000D03*
X157098000Y-88265000D03*
X157098000Y-89535000D03*
X166498000Y-89535000D03*
X166498000Y-88265000D03*
X166498000Y-86995000D03*
X166498000Y-85725000D03*
X166498000Y-84455000D03*
X166498000Y-83185000D03*
X166498000Y-81915000D03*
X166498000Y-80645000D03*
X166498000Y-79375000D03*
X166498000Y-78105000D03*
X166498000Y-76835000D03*
X166498000Y-75565000D03*
X176148000Y-75565000D03*
X176148000Y-76835000D03*
X176148000Y-78105000D03*
X176148000Y-79375000D03*
X176148000Y-80645000D03*
X176148000Y-81915000D03*
X176148000Y-83185000D03*
X176148000Y-84455000D03*
X176148000Y-85725000D03*
X176148000Y-86995000D03*
X176148000Y-88265000D03*
X176148000Y-89535000D03*
X185548000Y-89535000D03*
X185548000Y-88265000D03*
X185548000Y-86995000D03*
X185548000Y-85725000D03*
X185548000Y-84455000D03*
X185548000Y-83185000D03*
X185548000Y-81915000D03*
X185548000Y-80645000D03*
X185548000Y-79375000D03*
X185548000Y-78105000D03*
X185548000Y-76835000D03*
X185548000Y-75565000D03*
D17*
X33208000Y-109623860D03*
X31308000Y-109623860D03*
X32258000Y-112626140D03*
D14*
X35433000Y-133350000D03*
D15*
X35433000Y-130810000D03*
X37973000Y-133350000D03*
X37973000Y-130810000D03*
X40513000Y-133350000D03*
X40513000Y-130810000D03*
X43053000Y-133350000D03*
X43053000Y-130810000D03*
X45593000Y-133350000D03*
X45593000Y-130810000D03*
X48133000Y-133350000D03*
X48133000Y-130810000D03*
X50673000Y-133350000D03*
X50673000Y-130810000D03*
X53213000Y-133350000D03*
X53213000Y-130810000D03*
D14*
X65913000Y-133350000D03*
D15*
X65913000Y-130810000D03*
X68453000Y-133350000D03*
X68453000Y-130810000D03*
X70993000Y-133350000D03*
X70993000Y-130810000D03*
X73533000Y-133350000D03*
X73533000Y-130810000D03*
X76073000Y-133350000D03*
X76073000Y-130810000D03*
X78613000Y-133350000D03*
X78613000Y-130810000D03*
X81153000Y-133350000D03*
X81153000Y-130810000D03*
X83693000Y-133350000D03*
X83693000Y-130810000D03*
D14*
X96393000Y-133350000D03*
D15*
X96393000Y-130810000D03*
X98933000Y-133350000D03*
X98933000Y-130810000D03*
X101473000Y-133350000D03*
X101473000Y-130810000D03*
X104013000Y-133350000D03*
X104013000Y-130810000D03*
X106553000Y-133350000D03*
X106553000Y-130810000D03*
X109093000Y-133350000D03*
X109093000Y-130810000D03*
X111633000Y-133350000D03*
X111633000Y-130810000D03*
X114173000Y-133350000D03*
X114173000Y-130810000D03*
D14*
X104013000Y-121920000D03*
D15*
X104013000Y-119380000D03*
X106553000Y-121920000D03*
X106553000Y-119380000D03*
X109093000Y-121920000D03*
X109093000Y-119380000D03*
X111633000Y-121920000D03*
X111633000Y-119380000D03*
X114173000Y-121920000D03*
X114173000Y-119380000D03*
X116713000Y-121920000D03*
X116713000Y-119380000D03*
X119253000Y-121920000D03*
X119253000Y-119380000D03*
X121793000Y-121920000D03*
X121793000Y-119380000D03*
D14*
X126873000Y-133350000D03*
D15*
X126873000Y-130810000D03*
X129413000Y-133350000D03*
X129413000Y-130810000D03*
X131953000Y-133350000D03*
X131953000Y-130810000D03*
X134493000Y-133350000D03*
X134493000Y-130810000D03*
X137033000Y-133350000D03*
X137033000Y-130810000D03*
X139573000Y-133350000D03*
X139573000Y-130810000D03*
X142113000Y-133350000D03*
X142113000Y-130810000D03*
X144653000Y-133350000D03*
X144653000Y-130810000D03*
D14*
X134493000Y-121920000D03*
D15*
X134493000Y-119380000D03*
X137033000Y-121920000D03*
X137033000Y-119380000D03*
X139573000Y-121920000D03*
X139573000Y-119380000D03*
X142113000Y-121920000D03*
X142113000Y-119380000D03*
X144653000Y-121920000D03*
X144653000Y-119380000D03*
X147193000Y-121920000D03*
X147193000Y-119380000D03*
X149733000Y-121920000D03*
X149733000Y-119380000D03*
X152273000Y-121920000D03*
X152273000Y-119380000D03*
D14*
X157353000Y-133350000D03*
D15*
X157353000Y-130810000D03*
X159893000Y-133350000D03*
X159893000Y-130810000D03*
X162433000Y-133350000D03*
X162433000Y-130810000D03*
X164973000Y-133350000D03*
X164973000Y-130810000D03*
X167513000Y-133350000D03*
X167513000Y-130810000D03*
X170053000Y-133350000D03*
X170053000Y-130810000D03*
X172593000Y-133350000D03*
X172593000Y-130810000D03*
X175133000Y-133350000D03*
X175133000Y-130810000D03*
D14*
X164973000Y-121920000D03*
D15*
X164973000Y-119380000D03*
X167513000Y-121920000D03*
X167513000Y-119380000D03*
X170053000Y-121920000D03*
X170053000Y-119380000D03*
X172593000Y-121920000D03*
X172593000Y-119380000D03*
X175133000Y-121920000D03*
X175133000Y-119380000D03*
X177673000Y-121920000D03*
X177673000Y-119380000D03*
X180213000Y-121920000D03*
X180213000Y-119380000D03*
X182753000Y-121920000D03*
X182753000Y-119380000D03*
D18*
X36703000Y-109390000D03*
X36703000Y-111590000D03*
D11*
X46608000Y-98425000D03*
X46608000Y-99695000D03*
X46608000Y-100965000D03*
X46608000Y-102235000D03*
X46608000Y-103505000D03*
X46608000Y-104775000D03*
X46608000Y-106045000D03*
X46608000Y-107315000D03*
X46608000Y-108585000D03*
X46608000Y-109855000D03*
X46608000Y-111125000D03*
X46608000Y-112395000D03*
X56008000Y-112395000D03*
X56008000Y-111125000D03*
X56008000Y-109855000D03*
X56008000Y-108585000D03*
X56008000Y-107315000D03*
X56008000Y-106045000D03*
X56008000Y-104775000D03*
X56008000Y-103505000D03*
X56008000Y-102235000D03*
X56008000Y-100965000D03*
X56008000Y-99695000D03*
X56008000Y-98425000D03*
X63118000Y-98425000D03*
X63118000Y-99695000D03*
X63118000Y-100965000D03*
X63118000Y-102235000D03*
X63118000Y-103505000D03*
X63118000Y-104775000D03*
X63118000Y-106045000D03*
X63118000Y-107315000D03*
X63118000Y-108585000D03*
X63118000Y-109855000D03*
X63118000Y-111125000D03*
X63118000Y-112395000D03*
X72518000Y-112395000D03*
X72518000Y-111125000D03*
X72518000Y-109855000D03*
X72518000Y-108585000D03*
X72518000Y-107315000D03*
X72518000Y-106045000D03*
X72518000Y-104775000D03*
X72518000Y-103505000D03*
X72518000Y-102235000D03*
X72518000Y-100965000D03*
X72518000Y-99695000D03*
X72518000Y-98425000D03*
X79628000Y-98425000D03*
X79628000Y-99695000D03*
X79628000Y-100965000D03*
X79628000Y-102235000D03*
X79628000Y-103505000D03*
X79628000Y-104775000D03*
X79628000Y-106045000D03*
X79628000Y-107315000D03*
X79628000Y-108585000D03*
X79628000Y-109855000D03*
X79628000Y-111125000D03*
X79628000Y-112395000D03*
X89028000Y-112395000D03*
X89028000Y-111125000D03*
X89028000Y-109855000D03*
X89028000Y-108585000D03*
X89028000Y-107315000D03*
X89028000Y-106045000D03*
X89028000Y-104775000D03*
X89028000Y-103505000D03*
X89028000Y-102235000D03*
X89028000Y-100965000D03*
X89028000Y-99695000D03*
X89028000Y-98425000D03*
X118998000Y-98425000D03*
X118998000Y-99695000D03*
X118998000Y-100965000D03*
X118998000Y-102235000D03*
X118998000Y-103505000D03*
X118998000Y-104775000D03*
X118998000Y-106045000D03*
X118998000Y-107315000D03*
X118998000Y-108585000D03*
X118998000Y-109855000D03*
X118998000Y-111125000D03*
X118998000Y-112395000D03*
X128398000Y-112395000D03*
X128398000Y-111125000D03*
X128398000Y-109855000D03*
X128398000Y-108585000D03*
X128398000Y-107315000D03*
X128398000Y-106045000D03*
X128398000Y-104775000D03*
X128398000Y-103505000D03*
X128398000Y-102235000D03*
X128398000Y-100965000D03*
X128398000Y-99695000D03*
X128398000Y-98425000D03*
X138048000Y-98425000D03*
X138048000Y-99695000D03*
X138048000Y-100965000D03*
X138048000Y-102235000D03*
X138048000Y-103505000D03*
X138048000Y-104775000D03*
X138048000Y-106045000D03*
X138048000Y-107315000D03*
X138048000Y-108585000D03*
X138048000Y-109855000D03*
X138048000Y-111125000D03*
X138048000Y-112395000D03*
X147448000Y-112395000D03*
X147448000Y-111125000D03*
X147448000Y-109855000D03*
X147448000Y-108585000D03*
X147448000Y-107315000D03*
X147448000Y-106045000D03*
X147448000Y-104775000D03*
X147448000Y-103505000D03*
X147448000Y-102235000D03*
X147448000Y-100965000D03*
X147448000Y-99695000D03*
X147448000Y-98425000D03*
X157098000Y-98425000D03*
X157098000Y-99695000D03*
X157098000Y-100965000D03*
X157098000Y-102235000D03*
X157098000Y-103505000D03*
X157098000Y-104775000D03*
X157098000Y-106045000D03*
X157098000Y-107315000D03*
X157098000Y-108585000D03*
X157098000Y-109855000D03*
X157098000Y-111125000D03*
X157098000Y-112395000D03*
X166498000Y-112395000D03*
X166498000Y-111125000D03*
X166498000Y-109855000D03*
X166498000Y-108585000D03*
X166498000Y-107315000D03*
X166498000Y-106045000D03*
X166498000Y-104775000D03*
X166498000Y-103505000D03*
X166498000Y-102235000D03*
X166498000Y-100965000D03*
X166498000Y-99695000D03*
X166498000Y-98425000D03*
X176148000Y-98425000D03*
X176148000Y-99695000D03*
X176148000Y-100965000D03*
X176148000Y-102235000D03*
X176148000Y-103505000D03*
X176148000Y-104775000D03*
X176148000Y-106045000D03*
X176148000Y-107315000D03*
X176148000Y-108585000D03*
X176148000Y-109855000D03*
X176148000Y-111125000D03*
X176148000Y-112395000D03*
X185548000Y-112395000D03*
X185548000Y-111125000D03*
X185548000Y-109855000D03*
X185548000Y-108585000D03*
X185548000Y-107315000D03*
X185548000Y-106045000D03*
X185548000Y-104775000D03*
X185548000Y-103505000D03*
X185548000Y-102235000D03*
X185548000Y-100965000D03*
X185548000Y-99695000D03*
X185548000Y-98425000D03*
D19*
X33058000Y-71885000D03*
X33058000Y-69085000D03*
X31458000Y-71885000D03*
X31458000Y-69085000D03*
D20*
X174057000Y-107596800D03*
X68974900Y-112385200D03*
X164485200Y-91253400D03*
X164485200Y-87367300D03*
X183492000Y-110070900D03*
X53526900Y-110443600D03*
X51843500Y-112340900D03*
X76967600Y-89269100D03*
X77051400Y-98310900D03*
X54453200Y-86995000D03*
X52249400Y-89804500D03*
X135792300Y-89537600D03*
X135073700Y-109869400D03*
X174580700Y-112209000D03*
X172753700Y-91462300D03*
X77973900Y-86995000D03*
X117417800Y-87070200D03*
X158811300Y-87307800D03*
X98221900Y-87339800D03*
X136307300Y-86995000D03*
X140774600Y-97910800D03*
X170245300Y-114101400D03*
X70867200Y-86734600D03*
X78065700Y-109727200D03*
X83763400Y-97803300D03*
X101608600Y-109090800D03*
X113580100Y-98785300D03*
X149759900Y-103556100D03*
X60426800Y-109735700D03*
X59162500Y-114867700D03*
X120557600Y-88265000D03*
X67451300Y-114110900D03*
X67369600Y-111125000D03*
X78029300Y-88491600D03*
X169357500Y-115618200D03*
X83975900Y-108386100D03*
X97924600Y-88940500D03*
X154659100Y-110801900D03*
X66945100Y-88263000D03*
X81229700Y-111227600D03*
X102283800Y-110686500D03*
X117442900Y-110793800D03*
X136468000Y-111125000D03*
X136445100Y-88211300D03*
X159471100Y-90180300D03*
X171441300Y-91868000D03*
X183991800Y-111125000D03*
X86887600Y-111364100D03*
X170719700Y-89030900D03*
X171670000Y-110164300D03*
X57576000Y-88265000D03*
X70867200Y-88842900D03*
X169215300Y-89535000D03*
X169554300Y-111848800D03*
X170078600Y-92673300D03*
X183989300Y-112572400D03*
X61602800Y-90216400D03*
X58480000Y-89263300D03*
X35690300Y-111506500D03*
X34654600Y-68690800D03*
X35341600Y-67488800D03*
X32958100Y-89518600D03*
X36488200Y-82310000D03*
X149036500Y-97916600D03*
X149735100Y-82753400D03*
X149467300Y-95096000D03*
X64703000Y-110561100D03*
X43804900Y-83794400D03*
X44722600Y-84042100D03*
X44553700Y-83098500D03*
X44021100Y-81584600D03*
X44568700Y-80481200D03*
X44839000Y-79368800D03*
X44981900Y-77882100D03*
X45021700Y-76647100D03*
X45711400Y-74626500D03*
X54431700Y-78105000D03*
X49469600Y-74894100D03*
X53677900Y-80392600D03*
X46155100Y-61840500D03*
X46739500Y-74669400D03*
X47926900Y-67662800D03*
X51722600Y-71157400D03*
X54433400Y-83185000D03*
X57630000Y-83450700D03*
X58698900Y-78342100D03*
X64672800Y-85575400D03*
X61554200Y-84011600D03*
X68453000Y-65691100D03*
X69264500Y-72950400D03*
X65898200Y-83337300D03*
X64682300Y-81915000D03*
X65651700Y-80211500D03*
X65302200Y-78469000D03*
X69246700Y-78105000D03*
X69246700Y-76835000D03*
X74223200Y-76732800D03*
X74436700Y-77731800D03*
X74077700Y-79483900D03*
X81629200Y-74335400D03*
X77562400Y-77678500D03*
X74078500Y-81915000D03*
X70856600Y-59312500D03*
X70858400Y-65643500D03*
X70695300Y-72872500D03*
X74087400Y-82996900D03*
X74457300Y-61567600D03*
X73598800Y-67205400D03*
X71250400Y-71736400D03*
X70934600Y-84455000D03*
X82180800Y-73654100D03*
X74870200Y-85790600D03*
X82694100Y-70544500D03*
X81191100Y-85659900D03*
X81160300Y-83894500D03*
X82634200Y-83185000D03*
X81209600Y-81915000D03*
X87186400Y-76827100D03*
X81403400Y-79525500D03*
X86747500Y-78105000D03*
X86134500Y-76866500D03*
X104714500Y-60529100D03*
X90665800Y-80511700D03*
X90589300Y-83185000D03*
X98163100Y-85904600D03*
X90589300Y-85761000D03*
X174565600Y-75565000D03*
X150043600Y-93140400D03*
X149869900Y-77210400D03*
X140103800Y-91850900D03*
X132094200Y-81650800D03*
X112404200Y-90456600D03*
X117269500Y-75997200D03*
X90657500Y-93126300D03*
X84735500Y-92652500D03*
X101510900Y-75565000D03*
X78071900Y-78480800D03*
X62040900Y-91912100D03*
X59270800Y-85129100D03*
X53272300Y-91590800D03*
X40855300Y-86929600D03*
X42323700Y-91950600D03*
X52819800Y-97064700D03*
X38803300Y-94259800D03*
X135104000Y-98649500D03*
X124092800Y-95486600D03*
X46940700Y-95955200D03*
X38714800Y-95157600D03*
X111863500Y-98304600D03*
X109038900Y-96190400D03*
X96503500Y-120515200D03*
X95218600Y-107387100D03*
X77298200Y-101916200D03*
X33464600Y-98344300D03*
X53916700Y-97941100D03*
X44386100Y-103807300D03*
X44847300Y-98780800D03*
X37604600Y-103090500D03*
X102163400Y-85250900D03*
X102918500Y-81915000D03*
X105852900Y-74111600D03*
X110905900Y-78105000D03*
X120553000Y-85213000D03*
X117427100Y-84455000D03*
X120787300Y-83012600D03*
X117471100Y-81330100D03*
X122438100Y-80143900D03*
X121611000Y-79375000D03*
X123306200Y-77768000D03*
X123124200Y-76530000D03*
X130156500Y-78105000D03*
X130029200Y-80454900D03*
X130553700Y-81150400D03*
X132775500Y-81101800D03*
X126813500Y-85244700D03*
X136272300Y-85691700D03*
X136481300Y-84455000D03*
X139706500Y-82749400D03*
X139609300Y-81619600D03*
X139605700Y-80645000D03*
X141084600Y-77516600D03*
X145885200Y-79375000D03*
X145203800Y-78820900D03*
X149048300Y-81461300D03*
X145882700Y-83185000D03*
X152557100Y-77276400D03*
X150389700Y-85185400D03*
X158662800Y-85541500D03*
X155537000Y-84455000D03*
X159281800Y-75360200D03*
X158664700Y-81915000D03*
X159311300Y-80523900D03*
X159500500Y-79197500D03*
X160878300Y-77920500D03*
X160982500Y-76835000D03*
X164350600Y-76739800D03*
X168155900Y-79304200D03*
X170120100Y-81422900D03*
X168608200Y-83042200D03*
X168090000Y-84160000D03*
X180051100Y-73606900D03*
X179365800Y-71922900D03*
X183282200Y-81915000D03*
X183545200Y-82813200D03*
X182683300Y-80108300D03*
X183990500Y-85778200D03*
X48506900Y-90281400D03*
X89408000Y-114549400D03*
X44182100Y-88803800D03*
X41497500Y-108100000D03*
X41177800Y-107214400D03*
X42196100Y-106591900D03*
X41214000Y-109224700D03*
X44523600Y-104675900D03*
X44002800Y-102289700D03*
X44490900Y-100992300D03*
X45045200Y-99695000D03*
X53842100Y-100241200D03*
X52502000Y-100965000D03*
X54296900Y-101863800D03*
X48672300Y-109689700D03*
X53526900Y-111568900D03*
X54210500Y-106322300D03*
X54424000Y-107315000D03*
X54035200Y-109219800D03*
X61554200Y-108632800D03*
X61553500Y-107315000D03*
X64885300Y-107197900D03*
X66676200Y-104774500D03*
X60382600Y-103195000D03*
X65702000Y-102018600D03*
X59207100Y-104673600D03*
X65111900Y-99490200D03*
X74029200Y-100283600D03*
X74103800Y-101194400D03*
X74287300Y-102239000D03*
X75049000Y-103603200D03*
X74238700Y-104914000D03*
X74808000Y-106672100D03*
X75341200Y-107795000D03*
X75806600Y-109148900D03*
X84834000Y-108248900D03*
X84745000Y-107196500D03*
X81209000Y-106358300D03*
X84703300Y-104341000D03*
X78070500Y-103473700D03*
X84200700Y-101907000D03*
X86180500Y-100878500D03*
X85961200Y-99695000D03*
X94455300Y-100152400D03*
X90807900Y-100878500D03*
X91140800Y-102235000D03*
X96069600Y-103829000D03*
X104618900Y-124516200D03*
X101948600Y-106045000D03*
X105386500Y-110467900D03*
X102488100Y-103554700D03*
X101936500Y-102294900D03*
X105853300Y-112133600D03*
X102029200Y-99870600D03*
X110861400Y-100282600D03*
X110912200Y-101198100D03*
X110920900Y-102235000D03*
X111559400Y-103555300D03*
X112117700Y-104775000D03*
X112881000Y-106045000D03*
X114115000Y-107878100D03*
X115239600Y-109081200D03*
X121621900Y-108827900D03*
X120992100Y-107495100D03*
X120916900Y-106407400D03*
X120890400Y-104724400D03*
X120868200Y-103505000D03*
X120613400Y-102235000D03*
X125090700Y-106276400D03*
X120560700Y-99695000D03*
X126839000Y-99695000D03*
X129965800Y-100825900D03*
X129955100Y-101986200D03*
X130478300Y-103555300D03*
X123416000Y-111589600D03*
X131433500Y-106386100D03*
X132289800Y-109058900D03*
X133756600Y-109534100D03*
X140517800Y-103958400D03*
X139607000Y-102319700D03*
X149013400Y-104889700D03*
X155527100Y-108585000D03*
X155541800Y-107435800D03*
X155530600Y-106045000D03*
X159525700Y-104714500D03*
X155382000Y-103710700D03*
X158799500Y-102317300D03*
X159286800Y-100752400D03*
X159942300Y-99695000D03*
X168057100Y-99872800D03*
X164932100Y-104029000D03*
X168064800Y-102263200D03*
X168068000Y-103736000D03*
X163467500Y-109755900D03*
X168067900Y-106140900D03*
X171174100Y-107603200D03*
X170323200Y-128139100D03*
X164973900Y-109173000D03*
X168074700Y-108911900D03*
X170760000Y-106551500D03*
X173392100Y-101140000D03*
X32520400Y-106532000D03*
X37147000Y-84981900D03*
X39186900Y-101858800D03*
X32967200Y-107780800D03*
X34446600Y-79771100D03*
D21*
X79628000Y-89535000D02*
X78246700Y-89535000D01*
X46608000Y-89535000D02*
X45226700Y-89535000D01*
X166498000Y-109855000D02*
X167879300Y-109855000D01*
X62427400Y-89535000D02*
X61736700Y-89535000D01*
X62427400Y-89535000D02*
X63118000Y-89535000D01*
X138048000Y-112395000D02*
X136666700Y-112395000D01*
X40768000Y-88265000D02*
X39386700Y-88265000D01*
X63118000Y-112395000D02*
X64499300Y-112395000D01*
X63118000Y-89535000D02*
X64499300Y-89535000D01*
X40768000Y-88265000D02*
X42149300Y-88265000D01*
X31368000Y-90805000D02*
X32749300Y-90805000D01*
X153176700Y-86995000D02*
X155716700Y-89535000D01*
X148829300Y-86995000D02*
X153176700Y-86995000D01*
X147448000Y-86995000D02*
X148829300Y-86995000D01*
X46608000Y-89535000D02*
X47989300Y-89535000D01*
X63118000Y-112395000D02*
X61736700Y-112395000D01*
X71136700Y-110223400D02*
X68974900Y-112385200D01*
X71136700Y-109855000D02*
X71136700Y-110223400D01*
X72518000Y-109855000D02*
X71136700Y-109855000D01*
X79628000Y-89535000D02*
X81009300Y-89535000D01*
X99948000Y-89535000D02*
X101329300Y-89535000D01*
X109348000Y-86995000D02*
X110729300Y-86995000D01*
X124476700Y-89535000D02*
X118998000Y-89535000D01*
X127016700Y-86995000D02*
X124476700Y-89535000D01*
X156407400Y-89535000D02*
X155716700Y-89535000D01*
X64509100Y-112385200D02*
X64499300Y-112395000D01*
X68974900Y-112385200D02*
X64509100Y-112385200D01*
X69088000Y-117475000D02*
X71628000Y-117475000D01*
X89028000Y-109855000D02*
X87646700Y-109855000D01*
X112326900Y-109855000D02*
X109348000Y-109855000D01*
X114866900Y-112395000D02*
X112326900Y-109855000D01*
X118998000Y-112395000D02*
X114866900Y-112395000D01*
X109348000Y-109855000D02*
X107966700Y-109855000D01*
X99948000Y-112395000D02*
X101329300Y-112395000D01*
X124476700Y-112395000D02*
X120379300Y-112395000D01*
X127016700Y-109855000D02*
X124476700Y-112395000D01*
X128398000Y-109855000D02*
X127016700Y-109855000D01*
X118998000Y-112395000D02*
X120379300Y-112395000D01*
X128398000Y-109855000D02*
X129779300Y-109855000D01*
X156407400Y-89535000D02*
X157098000Y-89535000D01*
X157098000Y-89535000D02*
X158479300Y-89535000D01*
X166498000Y-86995000D02*
X165116700Y-86995000D01*
X183950800Y-110070900D02*
X184166700Y-109855000D01*
X183492000Y-110070900D02*
X183950800Y-110070900D01*
X185548000Y-109855000D02*
X184166700Y-109855000D01*
X182542800Y-86995000D02*
X185548000Y-86995000D01*
X180002800Y-89535000D02*
X182542800Y-86995000D01*
X176148000Y-89535000D02*
X180002800Y-89535000D01*
X164744400Y-87367300D02*
X164485200Y-87367300D01*
X165116700Y-86995000D02*
X164744400Y-87367300D01*
X36846700Y-90805000D02*
X39386700Y-88265000D01*
X32749300Y-90805000D02*
X36846700Y-90805000D01*
X59196700Y-109855000D02*
X61736700Y-112395000D01*
X56008000Y-109855000D02*
X59196700Y-109855000D01*
X48043400Y-112340900D02*
X47989300Y-112395000D01*
X51843500Y-112340900D02*
X48043400Y-112340900D01*
X46608000Y-112395000D02*
X47989300Y-112395000D01*
X79628000Y-112395000D02*
X78246700Y-112395000D01*
X74693500Y-86995000D02*
X76967600Y-89269100D01*
X72518000Y-86995000D02*
X74693500Y-86995000D01*
X77980800Y-89269100D02*
X78246700Y-89535000D01*
X76967600Y-89269100D02*
X77980800Y-89269100D01*
X162576700Y-112395000D02*
X165116700Y-109855000D01*
X157098000Y-112395000D02*
X162576700Y-112395000D01*
X166498000Y-109855000D02*
X165116700Y-109855000D01*
X56008000Y-86995000D02*
X54453200Y-86995000D01*
X83549300Y-86995000D02*
X89028000Y-86995000D01*
X81009300Y-89535000D02*
X83549300Y-86995000D01*
X98458200Y-89643500D02*
X98566700Y-89535000D01*
X93057800Y-89643500D02*
X98458200Y-89643500D01*
X90409300Y-86995000D02*
X93057800Y-89643500D01*
X89028000Y-86995000D02*
X90409300Y-86995000D01*
X99948000Y-89535000D02*
X98566700Y-89535000D01*
X141969300Y-86995000D02*
X147448000Y-86995000D01*
X139429300Y-89535000D02*
X141969300Y-86995000D01*
X138048000Y-89535000D02*
X139429300Y-89535000D01*
X155081800Y-112395000D02*
X157098000Y-112395000D01*
X152541800Y-109855000D02*
X155081800Y-112395000D01*
X147448000Y-109855000D02*
X152541800Y-109855000D01*
X84893400Y-112395000D02*
X79628000Y-112395000D01*
X87433400Y-109855000D02*
X84893400Y-112395000D01*
X87646700Y-109855000D02*
X87433400Y-109855000D01*
X76493200Y-110641500D02*
X76493200Y-109855000D01*
X78246700Y-112395000D02*
X76493200Y-110641500D01*
X76493200Y-109855000D02*
X72518000Y-109855000D01*
X103869300Y-86995000D02*
X101329300Y-89535000D01*
X109348000Y-86995000D02*
X103869300Y-86995000D01*
X127707400Y-86995000D02*
X127016700Y-86995000D01*
X127707400Y-86995000D02*
X128398000Y-86995000D01*
X130172800Y-110248500D02*
X135073700Y-110248500D01*
X129779300Y-109855000D02*
X130172800Y-110248500D01*
X135073700Y-110802000D02*
X136666700Y-112395000D01*
X135073700Y-110248500D02*
X135073700Y-110802000D01*
X176148000Y-112395000D02*
X174766700Y-112395000D01*
X174580700Y-112209000D02*
X174766700Y-112395000D01*
X61320900Y-89535000D02*
X61736700Y-89535000D01*
X59495800Y-91360100D02*
X61320900Y-89535000D01*
X54049900Y-91360100D02*
X59495800Y-91360100D01*
X52494300Y-89804500D02*
X54049900Y-91360100D01*
X52249400Y-89804500D02*
X52494300Y-89804500D01*
X51979900Y-89535000D02*
X52249400Y-89804500D01*
X47989300Y-89535000D02*
X51979900Y-89535000D01*
X72009700Y-87503300D02*
X72518000Y-86995000D01*
X68748600Y-87503300D02*
X72009700Y-87503300D01*
X66716900Y-89535000D02*
X68748600Y-87503300D01*
X64499300Y-89535000D02*
X66716900Y-89535000D01*
X76100500Y-99261800D02*
X77051400Y-98310900D01*
X76100500Y-106740600D02*
X76100500Y-99261800D01*
X76493200Y-107133300D02*
X76100500Y-106740600D01*
X76493200Y-109855000D02*
X76493200Y-107133300D01*
X107966700Y-110983700D02*
X107966700Y-109855000D01*
X106114700Y-112835700D02*
X107966700Y-110983700D01*
X101770000Y-112835700D02*
X106114700Y-112835700D01*
X101329300Y-112395000D02*
X101770000Y-112835700D01*
X111422300Y-86995000D02*
X110729300Y-86995000D01*
X113962300Y-89535000D02*
X111422300Y-86995000D01*
X118998000Y-89535000D02*
X113962300Y-89535000D01*
X135073700Y-109869400D02*
X135073700Y-110248500D01*
X135794900Y-89535000D02*
X135792300Y-89537600D01*
X138048000Y-89535000D02*
X135794900Y-89535000D01*
X133249700Y-86995000D02*
X128398000Y-86995000D01*
X135792300Y-89537600D02*
X133249700Y-86995000D01*
X176148000Y-89535000D02*
X174766700Y-89535000D01*
X159580800Y-91253400D02*
X164485200Y-91253400D01*
X158479300Y-90151900D02*
X159580800Y-91253400D01*
X158479300Y-89535000D02*
X158479300Y-90151900D01*
X172753700Y-91462300D02*
X172753700Y-91151700D01*
X170843000Y-91151700D02*
X172753700Y-91151700D01*
X170689000Y-91305700D02*
X170843000Y-91151700D01*
X164537500Y-91305700D02*
X170689000Y-91305700D01*
X164485200Y-91253400D02*
X164537500Y-91305700D01*
X173150000Y-91151700D02*
X174766700Y-89535000D01*
X172753700Y-91151700D02*
X173150000Y-91151700D01*
X173274100Y-107596800D02*
X174057000Y-107596800D01*
X171015900Y-109855000D02*
X173274100Y-107596800D01*
X167879300Y-109855000D02*
X171015900Y-109855000D01*
X42291800Y-88122500D02*
X42149300Y-88265000D01*
X44464300Y-88122500D02*
X42291800Y-88122500D01*
X45226700Y-88884900D02*
X44464300Y-88122500D01*
X45226700Y-89535000D02*
X45226700Y-88884900D01*
X54038100Y-110443600D02*
X53526900Y-110443600D01*
X54626700Y-109855000D02*
X54038100Y-110443600D01*
X56008000Y-109855000D02*
X54626700Y-109855000D01*
X79628000Y-86995000D02*
X78246700Y-86995000D01*
X78246700Y-86995000D02*
X77973900Y-86995000D01*
X118998000Y-86995000D02*
X117616700Y-86995000D01*
X117541500Y-87070200D02*
X117616700Y-86995000D01*
X117417800Y-87070200D02*
X117541500Y-87070200D01*
X157098000Y-86995000D02*
X158479300Y-86995000D01*
X158811300Y-87307700D02*
X158811300Y-87307800D01*
X158792000Y-87307700D02*
X158811300Y-87307700D01*
X158479300Y-86995000D02*
X158792000Y-87307700D01*
X99948000Y-86995000D02*
X98566700Y-86995000D01*
X138048000Y-86995000D02*
X136666700Y-86995000D01*
X138048000Y-109855000D02*
X136666700Y-109855000D01*
X140581600Y-97717800D02*
X140774600Y-97910800D01*
X135054100Y-97717800D02*
X140581600Y-97717800D01*
X134388100Y-98383800D02*
X135054100Y-97717800D01*
X134388100Y-107576400D02*
X134388100Y-98383800D01*
X136666700Y-109855000D02*
X134388100Y-107576400D01*
X176148000Y-109855000D02*
X174766700Y-109855000D01*
X173719000Y-86995000D02*
X176148000Y-86995000D01*
X171001800Y-89712200D02*
X173719000Y-86995000D01*
X170805800Y-89712200D02*
X171001800Y-89712200D01*
X170301600Y-90216400D02*
X170805800Y-89712200D01*
X165279000Y-90216400D02*
X170301600Y-90216400D01*
X162370400Y-87307800D02*
X165279000Y-90216400D01*
X158811300Y-87307800D02*
X162370400Y-87307800D01*
X170520300Y-114101400D02*
X174766700Y-109855000D01*
X170245300Y-114101400D02*
X170520300Y-114101400D01*
X63118000Y-86995000D02*
X61736700Y-86995000D01*
X51568400Y-86995000D02*
X46608000Y-86995000D01*
X54821500Y-90248100D02*
X51568400Y-86995000D01*
X58483600Y-90248100D02*
X54821500Y-90248100D01*
X61736700Y-86995000D02*
X58483600Y-90248100D01*
X64759700Y-86734600D02*
X64499300Y-86995000D01*
X70867200Y-86734600D02*
X64759700Y-86734600D01*
X63118000Y-86995000D02*
X64499300Y-86995000D01*
X79628000Y-109855000D02*
X78246700Y-109855000D01*
X78118900Y-109727200D02*
X78065700Y-109727200D01*
X78246700Y-109855000D02*
X78118900Y-109727200D01*
X83703700Y-97743600D02*
X83763400Y-97803300D01*
X78168300Y-97743600D02*
X83703700Y-97743600D01*
X77738400Y-98173500D02*
X78168300Y-97743600D01*
X77738400Y-100108800D02*
X77738400Y-98173500D01*
X76612400Y-101234800D02*
X77738400Y-100108800D01*
X76612400Y-104739000D02*
X76612400Y-101234800D01*
X78065700Y-106192300D02*
X76612400Y-104739000D01*
X78065700Y-109727200D02*
X78065700Y-106192300D01*
X98566700Y-86995000D02*
X98221900Y-87339800D01*
X101329300Y-109370100D02*
X101329300Y-109855000D01*
X101608600Y-109090800D02*
X101329300Y-109370100D01*
X99948000Y-109855000D02*
X101329300Y-109855000D01*
X117616700Y-102821900D02*
X113580100Y-98785300D01*
X117616700Y-109855000D02*
X117616700Y-102821900D01*
X118998000Y-109855000D02*
X117616700Y-109855000D01*
X136666700Y-86995000D02*
X136307300Y-86995000D01*
X157098000Y-109855000D02*
X155716700Y-109855000D01*
X149759900Y-103898200D02*
X155716700Y-109855000D01*
X149759900Y-103556100D02*
X149759900Y-103898200D01*
X79248000Y-117475000D02*
X78003100Y-117475000D01*
X46608000Y-109855000D02*
X45226700Y-109855000D01*
X60546100Y-109855000D02*
X60426800Y-109735700D01*
X63118000Y-109855000D02*
X60546100Y-109855000D01*
X67244600Y-114867700D02*
X59162500Y-114867700D01*
X68454500Y-116077600D02*
X67244600Y-114867700D01*
X76605700Y-116077600D02*
X68454500Y-116077600D01*
X78003100Y-117475000D02*
X76605700Y-116077600D01*
X45226700Y-112895900D02*
X45226700Y-109855000D01*
X47198500Y-114867700D02*
X45226700Y-112895900D01*
X59162500Y-114867700D02*
X47198500Y-114867700D01*
X81788000Y-117475000D02*
X80543100Y-117475000D01*
X120379300Y-88265000D02*
X120557600Y-88265000D01*
X119561600Y-88265000D02*
X120379300Y-88265000D01*
X119561600Y-88265000D02*
X118998000Y-88265000D01*
X176148000Y-88265000D02*
X174766700Y-88265000D01*
X79628000Y-88265000D02*
X78246700Y-88265000D01*
X78029300Y-88482400D02*
X78029300Y-88491600D01*
X78246700Y-88265000D02*
X78029300Y-88482400D01*
X157098000Y-88265000D02*
X158479300Y-88265000D01*
X79628000Y-111125000D02*
X81009300Y-111125000D01*
X54649100Y-114110900D02*
X67451300Y-114110900D01*
X51663200Y-111125000D02*
X54649100Y-114110900D01*
X46608000Y-111125000D02*
X51663200Y-111125000D01*
X98566700Y-88298400D02*
X98566700Y-88265000D01*
X97924600Y-88940500D02*
X98566700Y-88298400D01*
X99948000Y-88265000D02*
X98566700Y-88265000D01*
X155393600Y-110801900D02*
X155716700Y-111125000D01*
X154659100Y-110801900D02*
X155393600Y-110801900D01*
X157098000Y-111125000D02*
X155716700Y-111125000D01*
X170105300Y-115618200D02*
X169357500Y-115618200D01*
X174598500Y-111125000D02*
X170105300Y-115618200D01*
X176148000Y-111125000D02*
X174598500Y-111125000D01*
X52119400Y-88265000D02*
X46608000Y-88265000D01*
X54614000Y-90759600D02*
X52119400Y-88265000D01*
X59242100Y-90759600D02*
X54614000Y-90759600D01*
X61736700Y-88265000D02*
X59242100Y-90759600D01*
X63118000Y-88265000D02*
X61736700Y-88265000D01*
X64501300Y-88263000D02*
X64499300Y-88265000D01*
X66945100Y-88263000D02*
X64501300Y-88263000D01*
X63118000Y-88265000D02*
X64499300Y-88265000D01*
X81016600Y-111132300D02*
X81229700Y-111132300D01*
X81009300Y-111125000D02*
X81016600Y-111132300D01*
X81229700Y-111132300D02*
X83975900Y-108386100D01*
X81229700Y-111227600D02*
X81229700Y-111132300D01*
X101767800Y-110686500D02*
X101329300Y-111125000D01*
X102283800Y-110686500D02*
X101767800Y-110686500D01*
X99948000Y-111125000D02*
X101329300Y-111125000D01*
X118998000Y-111125000D02*
X117616700Y-111125000D01*
X117616700Y-110967600D02*
X117616700Y-111125000D01*
X117442900Y-110793800D02*
X117616700Y-110967600D01*
X138048000Y-111125000D02*
X136666700Y-111125000D01*
X136666700Y-111125000D02*
X136468000Y-111125000D01*
X136613000Y-88211300D02*
X136666700Y-88265000D01*
X136445100Y-88211300D02*
X136613000Y-88211300D01*
X138048000Y-88265000D02*
X136666700Y-88265000D01*
X159657400Y-89443100D02*
X159657400Y-89994000D01*
X158479300Y-88265000D02*
X159657400Y-89443100D01*
X159471100Y-90180300D02*
X159657400Y-89994000D01*
X172811200Y-90220500D02*
X174766700Y-88265000D01*
X171016500Y-90220500D02*
X172811200Y-90220500D01*
X170488400Y-90748600D02*
X171016500Y-90220500D01*
X164943900Y-90748600D02*
X170488400Y-90748600D01*
X164189300Y-89994000D02*
X164943900Y-90748600D01*
X159657400Y-89994000D02*
X164189300Y-89994000D01*
X68803100Y-115462700D02*
X67451300Y-114110900D01*
X79153200Y-115462700D02*
X68803100Y-115462700D01*
X80543100Y-116852600D02*
X79153200Y-115462700D01*
X80543100Y-117475000D02*
X80543100Y-116852600D01*
X65102600Y-111125000D02*
X67369600Y-111125000D01*
X64985200Y-111242400D02*
X65102600Y-111125000D01*
X64420900Y-111242400D02*
X64985200Y-111242400D01*
X64303500Y-111125000D02*
X64420900Y-111242400D01*
X63118000Y-111125000D02*
X64303500Y-111125000D01*
X89028000Y-111125000D02*
X87646700Y-111125000D01*
X72518000Y-111125000D02*
X71136700Y-111125000D01*
X128398000Y-88265000D02*
X127016700Y-88265000D01*
X147448000Y-111125000D02*
X146066700Y-111125000D01*
X128398000Y-111125000D02*
X129779300Y-111125000D01*
X125017400Y-113124300D02*
X127016700Y-111125000D01*
X113615000Y-113124300D02*
X125017400Y-113124300D01*
X111615700Y-111125000D02*
X113615000Y-113124300D01*
X109348000Y-111125000D02*
X111615700Y-111125000D01*
X128398000Y-111125000D02*
X127016700Y-111125000D01*
X58278500Y-111125000D02*
X56008000Y-111125000D01*
X60229800Y-113076300D02*
X58278500Y-111125000D01*
X65066800Y-113076300D02*
X60229800Y-113076300D01*
X65221800Y-112921300D02*
X65066800Y-113076300D01*
X67944000Y-112921300D02*
X65221800Y-112921300D01*
X68099000Y-113076300D02*
X67944000Y-112921300D01*
X69321000Y-113076300D02*
X68099000Y-113076300D01*
X71136700Y-111260600D02*
X69321000Y-113076300D01*
X71136700Y-111125000D02*
X71136700Y-111260600D01*
X152138500Y-88265000D02*
X147448000Y-88265000D01*
X155844600Y-91971100D02*
X152138500Y-88265000D01*
X171338200Y-91971100D02*
X155844600Y-91971100D01*
X171441300Y-91868000D02*
X171338200Y-91971100D01*
X185548000Y-111125000D02*
X184166700Y-111125000D01*
X184166700Y-111125000D02*
X183991800Y-111125000D01*
X129779300Y-119472700D02*
X129779300Y-111125000D01*
X133472000Y-123165400D02*
X129779300Y-119472700D01*
X152837400Y-123165400D02*
X133472000Y-123165400D01*
X153532400Y-122470400D02*
X152837400Y-123165400D01*
X153532400Y-118659300D02*
X153532400Y-122470400D01*
X149532500Y-114659400D02*
X153532400Y-118659300D01*
X147873300Y-114659400D02*
X149532500Y-114659400D01*
X146066700Y-112852800D02*
X147873300Y-114659400D01*
X146066700Y-111125000D02*
X146066700Y-112852800D01*
X149458300Y-111125000D02*
X147448000Y-111125000D01*
X151414900Y-113081600D02*
X149458300Y-111125000D01*
X163160100Y-113081600D02*
X151414900Y-113081600D01*
X165116700Y-111125000D02*
X163160100Y-113081600D01*
X166498000Y-111125000D02*
X165116700Y-111125000D01*
X87407600Y-111364100D02*
X87646700Y-111125000D01*
X86887600Y-111364100D02*
X87407600Y-111364100D01*
X72518000Y-88265000D02*
X73899300Y-88265000D01*
X86974000Y-88265000D02*
X89028000Y-88265000D01*
X85011900Y-90227100D02*
X86974000Y-88265000D01*
X75861400Y-90227100D02*
X85011900Y-90227100D01*
X73899300Y-88265000D02*
X75861400Y-90227100D01*
X89028000Y-88265000D02*
X90409300Y-88265000D01*
X169953800Y-88265000D02*
X166498000Y-88265000D01*
X170719700Y-89030900D02*
X169953800Y-88265000D01*
X166498000Y-111125000D02*
X167879300Y-111125000D01*
X170709300Y-111125000D02*
X167879300Y-111125000D01*
X171670000Y-110164300D02*
X170709300Y-111125000D01*
X56008000Y-88265000D02*
X57389300Y-88265000D01*
X57389300Y-88265000D02*
X57576000Y-88265000D01*
X71136700Y-88573400D02*
X71136700Y-88265000D01*
X70867200Y-88842900D02*
X71136700Y-88573400D01*
X72518000Y-88265000D02*
X71136700Y-88265000D01*
X75396200Y-111125000D02*
X72518000Y-111125000D01*
X78194900Y-113923700D02*
X75396200Y-111125000D01*
X84328000Y-113923700D02*
X78194900Y-113923700D01*
X84328000Y-117475000D02*
X84328000Y-113923700D01*
X84328000Y-113923700D02*
X86887600Y-111364100D01*
X92371400Y-90227100D02*
X90409300Y-88265000D01*
X104613200Y-90227100D02*
X92371400Y-90227100D01*
X106575300Y-88265000D02*
X104613200Y-90227100D01*
X109348000Y-88265000D02*
X106575300Y-88265000D01*
X111973500Y-88265000D02*
X109348000Y-88265000D01*
X113924900Y-90216400D02*
X111973500Y-88265000D01*
X125065300Y-90216400D02*
X113924900Y-90216400D01*
X127016700Y-88265000D02*
X125065300Y-90216400D01*
X142001300Y-88265000D02*
X147448000Y-88265000D01*
X140047400Y-90218900D02*
X142001300Y-88265000D01*
X135510200Y-90218900D02*
X140047400Y-90218900D01*
X133556300Y-88265000D02*
X135510200Y-90218900D01*
X128398000Y-88265000D02*
X133556300Y-88265000D01*
X183654600Y-88265000D02*
X185548000Y-88265000D01*
X179776000Y-92143600D02*
X183654600Y-88265000D01*
X171716900Y-92143600D02*
X179776000Y-92143600D01*
X171441300Y-91868000D02*
X171716900Y-92143600D01*
X128398000Y-112395000D02*
X127016700Y-112395000D01*
X86868000Y-113173700D02*
X86868000Y-116077700D01*
X87646700Y-112395000D02*
X86868000Y-113173700D01*
X72518000Y-112395000D02*
X71136700Y-112395000D01*
X56008000Y-112395000D02*
X57389300Y-112395000D01*
X86868000Y-116776300D02*
X86868000Y-116077700D01*
X128398000Y-89535000D02*
X127016700Y-89535000D01*
X185548000Y-89535000D02*
X184166700Y-89535000D01*
X86868000Y-116776300D02*
X86868000Y-117475000D01*
X86868000Y-117475000D02*
X85623100Y-117475000D01*
X110038700Y-89535000D02*
X110729300Y-89535000D01*
X88977400Y-112395000D02*
X87646700Y-112395000D01*
X88977400Y-112395000D02*
X89028000Y-112395000D01*
X89028000Y-112395000D02*
X90409300Y-112395000D01*
X109348000Y-112395000D02*
X110729300Y-112395000D01*
X167188700Y-112395000D02*
X167879300Y-112395000D01*
X58578900Y-113584600D02*
X57389300Y-112395000D01*
X65277300Y-113584600D02*
X58578900Y-113584600D01*
X65432300Y-113429600D02*
X65277300Y-113584600D01*
X67733500Y-113429600D02*
X65432300Y-113429600D01*
X67888500Y-113584600D02*
X67733500Y-113429600D01*
X69947100Y-113584600D02*
X67888500Y-113584600D01*
X71136700Y-112395000D02*
X69947100Y-113584600D01*
X89028000Y-89535000D02*
X87646700Y-89535000D01*
X128398000Y-89535000D02*
X129779300Y-89535000D01*
X147448000Y-89535000D02*
X148829300Y-89535000D01*
X151967600Y-92673300D02*
X148829300Y-89535000D01*
X170078600Y-92673300D02*
X151967600Y-92673300D01*
X147448000Y-112395000D02*
X148829300Y-112395000D01*
X167188700Y-112395000D02*
X166498000Y-112395000D01*
X159889400Y-117622300D02*
X154056600Y-117622300D01*
X165116700Y-112395000D02*
X159889400Y-117622300D01*
X154056600Y-122697000D02*
X154056600Y-117622300D01*
X153053500Y-123700100D02*
X154056600Y-122697000D01*
X127016700Y-123700100D02*
X153053500Y-123700100D01*
X154056600Y-117622300D02*
X148829300Y-112395000D01*
X166498000Y-112395000D02*
X165116700Y-112395000D01*
X181028400Y-92673300D02*
X184166700Y-89535000D01*
X170078600Y-92673300D02*
X181028400Y-92673300D01*
X111985000Y-113650700D02*
X110729300Y-112395000D01*
X127016700Y-113650700D02*
X111985000Y-113650700D01*
X127016700Y-123700100D02*
X127016700Y-113650700D01*
X127016700Y-113650700D02*
X127016700Y-112395000D01*
X73208700Y-89535000D02*
X73899300Y-89535000D01*
X185548000Y-112395000D02*
X184166700Y-112395000D01*
X183989300Y-112572400D02*
X184166700Y-112395000D01*
X166498000Y-89535000D02*
X169215300Y-89535000D01*
X86418500Y-90763200D02*
X87646700Y-89535000D01*
X75127500Y-90763200D02*
X86418500Y-90763200D01*
X73899300Y-89535000D02*
X75127500Y-90763200D01*
X115587900Y-135128900D02*
X127016700Y-123700100D01*
X111609000Y-135128900D02*
X115587900Y-135128900D01*
X110363000Y-133882900D02*
X111609000Y-135128900D01*
X110363000Y-130251400D02*
X110363000Y-133882900D01*
X107937600Y-127826000D02*
X110363000Y-130251400D01*
X104656800Y-127826000D02*
X107937600Y-127826000D01*
X98204800Y-121374000D02*
X104656800Y-127826000D01*
X98204800Y-121253000D02*
X98204800Y-121374000D01*
X95702400Y-118750600D02*
X98204800Y-121253000D01*
X95210200Y-118750600D02*
X95702400Y-118750600D01*
X90409300Y-113949700D02*
X95210200Y-118750600D01*
X90409300Y-112395000D02*
X90409300Y-113949700D01*
X169008100Y-112395000D02*
X169554300Y-111848800D01*
X167879300Y-112395000D02*
X169008100Y-112395000D01*
X147448000Y-89535000D02*
X146066700Y-89535000D01*
X73208700Y-89535000D02*
X72518000Y-89535000D01*
X70455300Y-90216400D02*
X61602800Y-90216400D01*
X71136700Y-89535000D02*
X70455300Y-90216400D01*
X72518000Y-89535000D02*
X71136700Y-89535000D01*
X56008000Y-89535000D02*
X57389300Y-89535000D01*
X58208300Y-89535000D02*
X58480000Y-89263300D01*
X57389300Y-89535000D02*
X58208300Y-89535000D01*
X110038700Y-89535000D02*
X109348000Y-89535000D01*
X91609800Y-90735500D02*
X90409300Y-89535000D01*
X106766200Y-90735500D02*
X91609800Y-90735500D01*
X107966700Y-89535000D02*
X106766200Y-90735500D01*
X109348000Y-89535000D02*
X107966700Y-89535000D01*
X89028000Y-89535000D02*
X90409300Y-89535000D01*
X112524700Y-89535000D02*
X110729300Y-89535000D01*
X113738900Y-90749200D02*
X112524700Y-89535000D01*
X125802500Y-90749200D02*
X113738900Y-90749200D01*
X127016700Y-89535000D02*
X125802500Y-90749200D01*
X144874500Y-90727200D02*
X146066700Y-89535000D01*
X130971500Y-90727200D02*
X144874500Y-90727200D01*
X129779300Y-89535000D02*
X130971500Y-90727200D01*
X76458700Y-114954400D02*
X73899300Y-112395000D01*
X81192100Y-114954400D02*
X76458700Y-114954400D01*
X83033000Y-116795300D02*
X81192100Y-114954400D01*
X83033000Y-118105800D02*
X83033000Y-116795300D01*
X83813300Y-118886100D02*
X83033000Y-118105800D01*
X84834400Y-118886100D02*
X83813300Y-118886100D01*
X85623100Y-118097400D02*
X84834400Y-118886100D01*
X85623100Y-117475000D02*
X85623100Y-118097400D01*
X72518000Y-112395000D02*
X73899300Y-112395000D01*
X66319100Y-68546800D02*
X66319100Y-69215000D01*
X63547700Y-65775400D02*
X66319100Y-68546800D01*
X39922700Y-65775400D02*
X63547700Y-65775400D01*
X36300100Y-69398000D02*
X39922700Y-65775400D01*
X33371000Y-69398000D02*
X36300100Y-69398000D01*
X33058000Y-69085000D02*
X33371000Y-69398000D01*
X67564000Y-69215000D02*
X66319100Y-69215000D01*
X70104000Y-69215000D02*
X68859100Y-69215000D01*
X36703000Y-111590000D02*
X35871700Y-111590000D01*
X35773800Y-111590000D02*
X35690300Y-111506500D01*
X35871700Y-111590000D02*
X35773800Y-111590000D01*
X36288300Y-68690800D02*
X34654600Y-68690800D01*
X39718400Y-65260700D02*
X36288300Y-68690800D01*
X65573000Y-65260700D02*
X39718400Y-65260700D01*
X68859100Y-68546800D02*
X65573000Y-65260700D01*
X68859100Y-69215000D02*
X68859100Y-68546800D01*
X41148000Y-77945000D02*
X41148000Y-76788700D01*
X74168000Y-69215000D02*
X74168000Y-70612300D01*
X71148000Y-73632300D02*
X74168000Y-70612300D01*
X67097900Y-73632300D02*
X71148000Y-73632300D01*
X66395600Y-72930000D02*
X67097900Y-73632300D01*
X45006700Y-72930000D02*
X66395600Y-72930000D01*
X41148000Y-76788700D02*
X45006700Y-72930000D01*
X31458000Y-69085000D02*
X31458000Y-67703700D01*
X34917800Y-64243900D02*
X31458000Y-67703700D01*
X72339100Y-64243900D02*
X34917800Y-64243900D01*
X76708000Y-68612800D02*
X72339100Y-64243900D01*
X76708000Y-69215000D02*
X76708000Y-68612800D01*
X31458000Y-71885000D02*
X31458000Y-70503700D01*
X79248000Y-69215000D02*
X78003100Y-69215000D01*
X30722000Y-70503700D02*
X31458000Y-70503700D01*
X30476700Y-70258400D02*
X30722000Y-70503700D01*
X30476700Y-67914500D02*
X30476700Y-70258400D01*
X34669100Y-63722100D02*
X30476700Y-67914500D01*
X73128900Y-63722100D02*
X34669100Y-63722100D01*
X78003100Y-68596300D02*
X73128900Y-63722100D01*
X78003100Y-69215000D02*
X78003100Y-68596300D01*
X81788000Y-69215000D02*
X80543100Y-69215000D01*
X31368000Y-88265000D02*
X29986700Y-88265000D01*
X29280500Y-87558800D02*
X29986700Y-88265000D01*
X29280500Y-68378100D02*
X29280500Y-87558800D01*
X34511400Y-63147200D02*
X29280500Y-68378100D01*
X75097700Y-63147200D02*
X34511400Y-63147200D01*
X80543100Y-68592600D02*
X75097700Y-63147200D01*
X80543100Y-69215000D02*
X80543100Y-68592600D01*
X38078100Y-64752300D02*
X35341600Y-67488800D01*
X72113100Y-64752300D02*
X38078100Y-64752300D01*
X75438100Y-68077300D02*
X72113100Y-64752300D01*
X75438100Y-69876300D02*
X75438100Y-68077300D01*
X76788100Y-71226300D02*
X75438100Y-69876300D01*
X83714000Y-71226300D02*
X76788100Y-71226300D01*
X84328000Y-70612300D02*
X83714000Y-71226300D01*
X31368000Y-89535000D02*
X32749300Y-89535000D01*
X32941700Y-89535000D02*
X32958100Y-89518600D01*
X32749300Y-89535000D02*
X32941700Y-89535000D01*
X84328000Y-69215000D02*
X84328000Y-70612300D01*
X30988000Y-83345000D02*
X30988000Y-84501300D01*
X86868000Y-69215000D02*
X85623100Y-69215000D01*
X85623100Y-70099500D02*
X85623100Y-69215000D01*
X83858000Y-71864600D02*
X85623100Y-70099500D01*
X82909700Y-71864600D02*
X83858000Y-71864600D01*
X80630600Y-74143700D02*
X82909700Y-71864600D01*
X59628000Y-74143700D02*
X80630600Y-74143700D01*
X58922700Y-73438400D02*
X59628000Y-74143700D01*
X45934500Y-73438400D02*
X58922700Y-73438400D01*
X43145000Y-76227900D02*
X45934500Y-73438400D01*
X43145000Y-78868200D02*
X43145000Y-76227900D01*
X40463000Y-81550200D02*
X43145000Y-78868200D01*
X38712900Y-81550200D02*
X40463000Y-81550200D01*
X35761800Y-84501300D02*
X38712900Y-81550200D01*
X30988000Y-84501300D02*
X35761800Y-84501300D01*
X39878000Y-77945000D02*
X39878000Y-79101300D01*
X33528000Y-83345000D02*
X33528000Y-82188700D01*
X57404000Y-69215000D02*
X56159100Y-69215000D01*
X56159100Y-69883200D02*
X56159100Y-69215000D01*
X54171900Y-71870400D02*
X56159100Y-69883200D01*
X42807300Y-71870400D02*
X54171900Y-71870400D01*
X37926200Y-76751500D02*
X42807300Y-71870400D01*
X37926200Y-79101300D02*
X37926200Y-76751500D01*
X39878000Y-79101300D02*
X37926200Y-79101300D01*
X34838800Y-82188700D02*
X37926200Y-79101300D01*
X33528000Y-82188700D02*
X34838800Y-82188700D01*
X33058000Y-71885000D02*
X33058000Y-70503700D01*
X65024000Y-69215000D02*
X63779100Y-69215000D01*
X63779100Y-68546800D02*
X63779100Y-69215000D01*
X61516100Y-66283800D02*
X63779100Y-68546800D01*
X40930700Y-66283800D02*
X61516100Y-66283800D01*
X36710800Y-70503700D02*
X40930700Y-66283800D01*
X33058000Y-70503700D02*
X36710800Y-70503700D01*
X58699100Y-68546800D02*
X58699100Y-69215000D01*
X56945800Y-66793500D02*
X58699100Y-68546800D01*
X42696800Y-66793500D02*
X56945800Y-66793500D01*
X36268800Y-73221500D02*
X42696800Y-66793500D01*
X36268800Y-78961900D02*
X36268800Y-73221500D01*
X34730600Y-80500100D02*
X36268800Y-78961900D01*
X33946600Y-80500100D02*
X34730600Y-80500100D01*
X32258000Y-82188700D02*
X33946600Y-80500100D01*
X32258000Y-83345000D02*
X32258000Y-82188700D01*
X59944000Y-69215000D02*
X58699100Y-69215000D01*
X61239100Y-69883200D02*
X61239100Y-69215000D01*
X58700700Y-72421600D02*
X61239100Y-69883200D01*
X42975100Y-72421600D02*
X58700700Y-72421600D01*
X38608000Y-76788700D02*
X42975100Y-72421600D01*
X38608000Y-77945000D02*
X38608000Y-76788700D01*
X62484000Y-69215000D02*
X61239100Y-69215000D01*
X39188500Y-79609700D02*
X36488200Y-82310000D01*
X41114800Y-79609700D02*
X39188500Y-79609700D01*
X42418000Y-78306500D02*
X41114800Y-79609700D01*
X42418000Y-77945000D02*
X42418000Y-78306500D01*
X35833000Y-82310000D02*
X34798000Y-83345000D01*
X36488200Y-82310000D02*
X35833000Y-82310000D01*
X147448000Y-98425000D02*
X148829300Y-98425000D01*
X72518000Y-75565000D02*
X71136700Y-75565000D01*
X56008000Y-75565000D02*
X57389300Y-75565000D01*
X89028000Y-75565000D02*
X87646700Y-75565000D01*
X72518000Y-75565000D02*
X73899300Y-75565000D01*
X74580600Y-74883700D02*
X73899300Y-75565000D01*
X80838400Y-74883700D02*
X74580600Y-74883700D01*
X81519700Y-75565000D02*
X80838400Y-74883700D01*
X87646700Y-75565000D02*
X81519700Y-75565000D01*
X107285400Y-97743700D02*
X107966700Y-98425000D01*
X91090600Y-97743700D02*
X107285400Y-97743700D01*
X90409300Y-98425000D02*
X91090600Y-97743700D01*
X89028000Y-98425000D02*
X90409300Y-98425000D01*
X109348000Y-98425000D02*
X107966700Y-98425000D01*
X109348000Y-98425000D02*
X110729300Y-98425000D01*
X128398000Y-75565000D02*
X127016700Y-75565000D01*
X89028000Y-98425000D02*
X87646700Y-98425000D01*
X89028000Y-75565000D02*
X90409300Y-75565000D01*
X112903000Y-64875700D02*
X113621900Y-64156800D01*
X112903000Y-69111900D02*
X112903000Y-64875700D01*
X109348000Y-72666900D02*
X112903000Y-69111900D01*
X109348000Y-75565000D02*
X109348000Y-72666900D01*
X72518000Y-98425000D02*
X73899300Y-98425000D01*
X149036500Y-98217800D02*
X149036500Y-97916600D01*
X148829300Y-98425000D02*
X149036500Y-98217800D01*
X149764800Y-74629500D02*
X148829300Y-75565000D01*
X164181200Y-74629500D02*
X149764800Y-74629500D01*
X165116700Y-75565000D02*
X164181200Y-74629500D01*
X166498000Y-75565000D02*
X165116700Y-75565000D01*
X147448000Y-75565000D02*
X148138700Y-75565000D01*
X148138700Y-75565000D02*
X148829300Y-75565000D01*
X135763000Y-57011000D02*
X127016700Y-65757300D01*
X135763000Y-55963600D02*
X135763000Y-57011000D01*
X136456600Y-55270000D02*
X135763000Y-55963600D01*
X140072200Y-55270000D02*
X136456600Y-55270000D01*
X140843000Y-54499200D02*
X140072200Y-55270000D01*
X140843000Y-53473400D02*
X140843000Y-54499200D01*
X141589700Y-52726700D02*
X140843000Y-53473400D01*
X142695600Y-52726700D02*
X141589700Y-52726700D01*
X143383000Y-53414100D02*
X142695600Y-52726700D01*
X143383000Y-59044800D02*
X143383000Y-53414100D01*
X145923000Y-61584800D02*
X143383000Y-59044800D01*
X145923000Y-73349300D02*
X145923000Y-61584800D01*
X148138700Y-75565000D02*
X145923000Y-73349300D01*
X125416200Y-64156800D02*
X127016700Y-65757300D01*
X113621900Y-64156800D02*
X125416200Y-64156800D01*
X127016700Y-65757300D02*
X127016700Y-75565000D01*
X166498000Y-98425000D02*
X167879300Y-98425000D01*
X185548000Y-98425000D02*
X184166700Y-98425000D01*
X185548000Y-75565000D02*
X186929300Y-75565000D01*
X186929300Y-94299800D02*
X186929300Y-75565000D01*
X183485400Y-97743700D02*
X186929300Y-94299800D01*
X168560600Y-97743700D02*
X183485400Y-97743700D01*
X167879300Y-98425000D02*
X168560600Y-97743700D01*
X183485400Y-97743700D02*
X184166700Y-98425000D01*
X72518000Y-98425000D02*
X71136700Y-98425000D01*
X86316500Y-97094800D02*
X87646700Y-98425000D01*
X75229500Y-97094800D02*
X86316500Y-97094800D01*
X73899300Y-98425000D02*
X75229500Y-97094800D01*
X161787700Y-95096000D02*
X165116700Y-98425000D01*
X149467300Y-95096000D02*
X161787700Y-95096000D01*
X166498000Y-98425000D02*
X165116700Y-98425000D01*
X148829300Y-77287300D02*
X148829300Y-75565000D01*
X149735100Y-78193100D02*
X148829300Y-77287300D01*
X149735100Y-82753400D02*
X149735100Y-78193100D01*
X56008000Y-98425000D02*
X54626700Y-98425000D01*
X64008000Y-117475000D02*
X62763100Y-117475000D01*
X90409300Y-73152100D02*
X90409300Y-75565000D01*
X105283000Y-58278400D02*
X90409300Y-73152100D01*
X105283000Y-55963600D02*
X105283000Y-58278400D01*
X105976600Y-55270000D02*
X105283000Y-55963600D01*
X112149600Y-55270000D02*
X105976600Y-55270000D01*
X112878000Y-55998400D02*
X112149600Y-55270000D01*
X112878000Y-63412900D02*
X112878000Y-55998400D01*
X113621900Y-64156800D02*
X112878000Y-63412900D01*
X127707400Y-98425000D02*
X127016700Y-98425000D01*
X127707400Y-98425000D02*
X128398000Y-98425000D01*
X144806000Y-97164300D02*
X146066700Y-98425000D01*
X131040000Y-97164300D02*
X144806000Y-97164300D01*
X129779300Y-98425000D02*
X131040000Y-97164300D01*
X128398000Y-98425000D02*
X129779300Y-98425000D01*
X147448000Y-98425000D02*
X146066700Y-98425000D01*
X70428500Y-74856800D02*
X71136700Y-75565000D01*
X58097500Y-74856800D02*
X70428500Y-74856800D01*
X57389300Y-75565000D02*
X58097500Y-74856800D01*
X111558600Y-97595700D02*
X110729300Y-98425000D01*
X126187400Y-97595700D02*
X111558600Y-97595700D01*
X127016700Y-98425000D02*
X126187400Y-97595700D01*
X62763100Y-116852600D02*
X62763100Y-117475000D01*
X61892900Y-115982400D02*
X62763100Y-116852600D01*
X46496700Y-115982400D02*
X61892900Y-115982400D01*
X32749300Y-102235000D02*
X46496700Y-115982400D01*
X31368000Y-102235000D02*
X32749300Y-102235000D01*
X69947000Y-97235300D02*
X71136700Y-98425000D01*
X53612700Y-97235300D02*
X69947000Y-97235300D01*
X53200300Y-97647700D02*
X53612700Y-97235300D01*
X53200300Y-98263200D02*
X53200300Y-97647700D01*
X53562800Y-98625700D02*
X53200300Y-98263200D01*
X54426000Y-98625700D02*
X53562800Y-98625700D01*
X54626700Y-98425000D02*
X54426000Y-98625700D01*
X71136700Y-104127400D02*
X71136700Y-98425000D01*
X64703000Y-110561100D02*
X71136700Y-104127400D01*
X43804900Y-84303200D02*
X45226700Y-85725000D01*
X43804900Y-83794400D02*
X43804900Y-84303200D01*
X46608000Y-85725000D02*
X45226700Y-85725000D01*
X44813800Y-84042100D02*
X45226700Y-84455000D01*
X44722600Y-84042100D02*
X44813800Y-84042100D01*
X46608000Y-84455000D02*
X45226700Y-84455000D01*
X46608000Y-83185000D02*
X45226700Y-83185000D01*
X45140200Y-83098500D02*
X44553700Y-83098500D01*
X45226700Y-83185000D02*
X45140200Y-83098500D01*
X46608000Y-81915000D02*
X45226700Y-81915000D01*
X44896300Y-81584600D02*
X44021100Y-81584600D01*
X45226700Y-81915000D02*
X44896300Y-81584600D01*
X45062900Y-80481200D02*
X45226700Y-80645000D01*
X44568700Y-80481200D02*
X45062900Y-80481200D01*
X46608000Y-80645000D02*
X45226700Y-80645000D01*
X45220500Y-79368800D02*
X45226700Y-79375000D01*
X44839000Y-79368800D02*
X45220500Y-79368800D01*
X46608000Y-79375000D02*
X45226700Y-79375000D01*
X45003800Y-77882100D02*
X45226700Y-78105000D01*
X44981900Y-77882100D02*
X45003800Y-77882100D01*
X46608000Y-78105000D02*
X45226700Y-78105000D01*
X45038800Y-76647100D02*
X45226700Y-76835000D01*
X45021700Y-76647100D02*
X45038800Y-76647100D01*
X46608000Y-76835000D02*
X45226700Y-76835000D01*
X46391100Y-73946800D02*
X45711400Y-74626500D01*
X49587400Y-73946800D02*
X46391100Y-73946800D01*
X52475600Y-76835000D02*
X49587400Y-73946800D01*
X56008000Y-76835000D02*
X52475600Y-76835000D01*
X56008000Y-78105000D02*
X54431700Y-78105000D01*
X53950500Y-79375000D02*
X56008000Y-79375000D01*
X49469600Y-74894100D02*
X53950500Y-79375000D01*
X56008000Y-80645000D02*
X54626700Y-80645000D01*
X54374300Y-80392600D02*
X54626700Y-80645000D01*
X53677900Y-80392600D02*
X54374300Y-80392600D01*
X54216700Y-81915000D02*
X56008000Y-81915000D01*
X52175900Y-79874200D02*
X54216700Y-81915000D01*
X52175900Y-79286100D02*
X52175900Y-79874200D01*
X47559200Y-74669400D02*
X52175900Y-79286100D01*
X46739500Y-74669400D02*
X47559200Y-74669400D01*
X50673000Y-56515000D02*
X50673000Y-57759900D01*
X50235700Y-57759900D02*
X46155100Y-61840500D01*
X50673000Y-57759900D02*
X50235700Y-57759900D01*
X56008000Y-83185000D02*
X54626700Y-83185000D01*
X54626700Y-83185000D02*
X54433400Y-83185000D01*
X51079000Y-70513800D02*
X51722600Y-71157400D01*
X51079000Y-68540900D02*
X51079000Y-70513800D01*
X50200900Y-67662800D02*
X51079000Y-68540900D01*
X47926900Y-67662800D02*
X50200900Y-67662800D01*
X57389300Y-83691400D02*
X57389300Y-84455000D01*
X57630000Y-83450700D02*
X57389300Y-83691400D01*
X56008000Y-84455000D02*
X57389300Y-84455000D01*
X58698900Y-84415400D02*
X57389300Y-85725000D01*
X58698900Y-78342100D02*
X58698900Y-84415400D01*
X56008000Y-85725000D02*
X57389300Y-85725000D01*
X63118000Y-85725000D02*
X64499300Y-85725000D01*
X64648900Y-85575400D02*
X64672800Y-85575400D01*
X64499300Y-85725000D02*
X64648900Y-85575400D01*
X61736700Y-84194100D02*
X61736700Y-84455000D01*
X61554200Y-84011600D02*
X61736700Y-84194100D01*
X63118000Y-84455000D02*
X61736700Y-84455000D01*
X64651600Y-83337300D02*
X64499300Y-83185000D01*
X65898200Y-83337300D02*
X64651600Y-83337300D01*
X63118000Y-83185000D02*
X64499300Y-83185000D01*
X68550700Y-65691100D02*
X68453000Y-65691100D01*
X71397900Y-68538300D02*
X68550700Y-65691100D01*
X71397900Y-69845600D02*
X71397900Y-68538300D01*
X69264500Y-71979000D02*
X71397900Y-69845600D01*
X69264500Y-72950400D02*
X69264500Y-71979000D01*
X63118000Y-81915000D02*
X64499300Y-81915000D01*
X64499300Y-81915000D02*
X64682300Y-81915000D01*
X64932800Y-80211500D02*
X64499300Y-80645000D01*
X65651700Y-80211500D02*
X64932800Y-80211500D01*
X63118000Y-80645000D02*
X64499300Y-80645000D01*
X64499300Y-79271900D02*
X64499300Y-79375000D01*
X65302200Y-78469000D02*
X64499300Y-79271900D01*
X63118000Y-79375000D02*
X64499300Y-79375000D01*
X63118000Y-78105000D02*
X64499300Y-78105000D01*
X64816600Y-77787700D02*
X64499300Y-78105000D01*
X68929400Y-77787700D02*
X64816600Y-77787700D01*
X69246700Y-78105000D02*
X68929400Y-77787700D01*
X63118000Y-76835000D02*
X64499300Y-76835000D01*
X64499300Y-76835000D02*
X69246700Y-76835000D01*
X74001500Y-76732800D02*
X73899300Y-76835000D01*
X74223200Y-76732800D02*
X74001500Y-76732800D01*
X72518000Y-76835000D02*
X73899300Y-76835000D01*
X74272500Y-77731800D02*
X73899300Y-78105000D01*
X74436700Y-77731800D02*
X74272500Y-77731800D01*
X72518000Y-78105000D02*
X73899300Y-78105000D01*
X72518000Y-79375000D02*
X73899300Y-79375000D01*
X74008200Y-79483900D02*
X74077700Y-79483900D01*
X73899300Y-79375000D02*
X74008200Y-79483900D01*
X72518000Y-80645000D02*
X73899300Y-80645000D01*
X78613000Y-53975000D02*
X79857900Y-53975000D01*
X76865800Y-77678500D02*
X77562400Y-77678500D01*
X73899300Y-80645000D02*
X76865800Y-77678500D01*
X86201300Y-74335400D02*
X81629200Y-74335400D01*
X90678000Y-69858700D02*
X86201300Y-74335400D01*
X90678000Y-66684500D02*
X90678000Y-69858700D01*
X100203000Y-57159500D02*
X90678000Y-66684500D01*
X100203000Y-53464700D02*
X100203000Y-57159500D01*
X99448100Y-52709800D02*
X100203000Y-53464700D01*
X80656300Y-52709800D02*
X99448100Y-52709800D01*
X79857900Y-53508200D02*
X80656300Y-52709800D01*
X79857900Y-53975000D02*
X79857900Y-53508200D01*
X72518000Y-81915000D02*
X73899300Y-81915000D01*
X73899300Y-81915000D02*
X74078500Y-81915000D01*
X72518000Y-83185000D02*
X73899300Y-83185000D01*
X74087400Y-82996900D02*
X73899300Y-83185000D01*
X75116900Y-59312500D02*
X70856600Y-59312500D01*
X77343000Y-57086400D02*
X75116900Y-59312500D01*
X77343000Y-55963600D02*
X77343000Y-57086400D01*
X78036600Y-55270000D02*
X77343000Y-55963600D01*
X79858000Y-55270000D02*
X78036600Y-55270000D01*
X81153000Y-53975000D02*
X79858000Y-55270000D01*
X70537200Y-72714400D02*
X70695300Y-72872500D01*
X70537200Y-71466800D02*
X70537200Y-72714400D01*
X71906300Y-70097700D02*
X70537200Y-71466800D01*
X71906300Y-66691400D02*
X71906300Y-70097700D01*
X70858400Y-65643500D02*
X71906300Y-66691400D01*
X77862300Y-61567600D02*
X74457300Y-61567600D01*
X82448100Y-56981800D02*
X77862300Y-61567600D01*
X82448100Y-56515000D02*
X82448100Y-56981800D01*
X72518000Y-84455000D02*
X71136700Y-84455000D01*
X83693000Y-56515000D02*
X82448100Y-56515000D01*
X71136700Y-84455000D02*
X70934600Y-84455000D01*
X72414700Y-70572100D02*
X71250400Y-71736400D01*
X72414700Y-68389500D02*
X72414700Y-70572100D01*
X73598800Y-67205400D02*
X72414700Y-68389500D01*
X73964900Y-85790600D02*
X73899300Y-85725000D01*
X74870200Y-85790600D02*
X73964900Y-85790600D01*
X72518000Y-85725000D02*
X73899300Y-85725000D01*
X83693000Y-53975000D02*
X84937900Y-53975000D01*
X84351700Y-73654100D02*
X82180800Y-73654100D01*
X88138000Y-69867800D02*
X84351700Y-73654100D01*
X88138000Y-67140900D02*
X88138000Y-69867800D01*
X97638000Y-57640900D02*
X88138000Y-67140900D01*
X97638000Y-55438900D02*
X97638000Y-57640900D01*
X97419000Y-55219900D02*
X97638000Y-55438900D01*
X86182800Y-55219900D02*
X97419000Y-55219900D01*
X84937900Y-53975000D02*
X86182800Y-55219900D01*
X79628000Y-85725000D02*
X81009300Y-85725000D01*
X81074400Y-85659900D02*
X81191100Y-85659900D01*
X81009300Y-85725000D02*
X81074400Y-85659900D01*
X83033000Y-70205600D02*
X82694100Y-70544500D01*
X83033000Y-68522400D02*
X83033000Y-70205600D01*
X95040400Y-56515000D02*
X83033000Y-68522400D01*
X96393000Y-56515000D02*
X95040400Y-56515000D01*
X79628000Y-84455000D02*
X81009300Y-84455000D01*
X81009300Y-84045500D02*
X81160300Y-83894500D01*
X81009300Y-84455000D02*
X81009300Y-84045500D01*
X82634200Y-83185000D02*
X79628000Y-83185000D01*
X79628000Y-81915000D02*
X81009300Y-81915000D01*
X81009300Y-81915000D02*
X81209600Y-81915000D01*
X85225900Y-80645000D02*
X79628000Y-80645000D01*
X87474000Y-78396900D02*
X85225900Y-80645000D01*
X87474000Y-77114700D02*
X87474000Y-78396900D01*
X87186400Y-76827100D02*
X87474000Y-77114700D01*
X81159800Y-79525500D02*
X81009300Y-79375000D01*
X81403400Y-79525500D02*
X81159800Y-79525500D01*
X79628000Y-79375000D02*
X81009300Y-79375000D01*
X79628000Y-78105000D02*
X86747500Y-78105000D01*
X81040800Y-76866500D02*
X81009300Y-76835000D01*
X86134500Y-76866500D02*
X81040800Y-76866500D01*
X79628000Y-76835000D02*
X81009300Y-76835000D01*
X89028000Y-76835000D02*
X90409300Y-76835000D01*
X91559500Y-75684800D02*
X90409300Y-76835000D01*
X91559500Y-72720700D02*
X91559500Y-75684800D01*
X106520300Y-57759900D02*
X91559500Y-72720700D01*
X106553000Y-57759900D02*
X106520300Y-57759900D01*
X106553000Y-56515000D02*
X106553000Y-57759900D01*
X89028000Y-78105000D02*
X90409300Y-78105000D01*
X92350000Y-76164300D02*
X90409300Y-78105000D01*
X92350000Y-72893600D02*
X92350000Y-76164300D01*
X104714500Y-60529100D02*
X92350000Y-72893600D01*
X89028000Y-79375000D02*
X90409300Y-79375000D01*
X109093000Y-56515000D02*
X109093000Y-57759900D01*
X93366700Y-73486200D02*
X109093000Y-57759900D01*
X93366700Y-76417600D02*
X93366700Y-73486200D01*
X90409300Y-79375000D02*
X93366700Y-76417600D01*
X90542600Y-80511700D02*
X90409300Y-80645000D01*
X90665800Y-80511700D02*
X90542600Y-80511700D01*
X89028000Y-80645000D02*
X90409300Y-80645000D01*
X111633000Y-56515000D02*
X110388100Y-56515000D01*
X89028000Y-81915000D02*
X90409300Y-81915000D01*
X110388100Y-57205200D02*
X110388100Y-56515000D01*
X93875000Y-73718300D02*
X110388100Y-57205200D01*
X93875000Y-78449300D02*
X93875000Y-73718300D01*
X90409300Y-81915000D02*
X93875000Y-78449300D01*
X89028000Y-83185000D02*
X90409300Y-83185000D01*
X90409300Y-83185000D02*
X90589300Y-83185000D01*
X90959000Y-84455000D02*
X89028000Y-84455000D01*
X93379900Y-86875900D02*
X90959000Y-84455000D01*
X97191800Y-86875900D02*
X93379900Y-86875900D01*
X98163100Y-85904600D02*
X97191800Y-86875900D01*
X90445300Y-85761000D02*
X90409300Y-85725000D01*
X90589300Y-85761000D02*
X90445300Y-85761000D01*
X89028000Y-85725000D02*
X90409300Y-85725000D01*
X176148000Y-75565000D02*
X174766700Y-75565000D01*
X40768000Y-100965000D02*
X42149300Y-100965000D01*
X174766700Y-75565000D02*
X174565600Y-75565000D01*
X43256900Y-99857400D02*
X42149300Y-100965000D01*
X43256900Y-98650000D02*
X43256900Y-99857400D01*
X47001500Y-94905400D02*
X43256900Y-98650000D01*
X108930400Y-94905400D02*
X47001500Y-94905400D01*
X110695400Y-93140400D02*
X108930400Y-94905400D01*
X150043600Y-93140400D02*
X110695400Y-93140400D01*
X40768000Y-99695000D02*
X42149300Y-99695000D01*
X151515300Y-75565000D02*
X157098000Y-75565000D01*
X149869900Y-77210400D02*
X151515300Y-75565000D01*
X42703100Y-99141200D02*
X42149300Y-99695000D01*
X42703100Y-98479800D02*
X42703100Y-99141200D01*
X46785800Y-94397100D02*
X42703100Y-98479800D01*
X103080700Y-94397100D02*
X46785800Y-94397100D01*
X105626900Y-91850900D02*
X103080700Y-94397100D01*
X140103800Y-91850900D02*
X105626900Y-91850900D01*
X40768000Y-98425000D02*
X42149300Y-98425000D01*
X132094200Y-80137500D02*
X132094200Y-81650800D01*
X136666700Y-75565000D02*
X132094200Y-80137500D01*
X138048000Y-75565000D02*
X136666700Y-75565000D01*
X42149300Y-98307300D02*
X42149300Y-98425000D01*
X46579700Y-93876900D02*
X42149300Y-98307300D01*
X92107200Y-93876900D02*
X46579700Y-93876900D01*
X94740200Y-91243900D02*
X92107200Y-93876900D01*
X111616900Y-91243900D02*
X94740200Y-91243900D01*
X112404200Y-90456600D02*
X111616900Y-91243900D01*
X40768000Y-97155000D02*
X42149300Y-97155000D01*
X118998000Y-75565000D02*
X117616700Y-75565000D01*
X117616700Y-75650000D02*
X117269500Y-75997200D01*
X117616700Y-75565000D02*
X117616700Y-75650000D01*
X45935800Y-93368500D02*
X42149300Y-97155000D01*
X90415300Y-93368500D02*
X45935800Y-93368500D01*
X90657500Y-93126300D02*
X90415300Y-93368500D01*
X99948000Y-75565000D02*
X101329300Y-75565000D01*
X40768000Y-95885000D02*
X42149300Y-95885000D01*
X101329300Y-75565000D02*
X101510900Y-75565000D01*
X45174200Y-92860100D02*
X42149300Y-95885000D01*
X84527900Y-92860100D02*
X45174200Y-92860100D01*
X84735500Y-92652500D02*
X84527900Y-92860100D01*
X40768000Y-94615000D02*
X42149300Y-94615000D01*
X79628000Y-75565000D02*
X78246700Y-75565000D01*
X78246700Y-78306000D02*
X78071900Y-78480800D01*
X78246700Y-75565000D02*
X78246700Y-78306000D01*
X61661800Y-92291200D02*
X62040900Y-91912100D01*
X44473100Y-92291200D02*
X61661800Y-92291200D01*
X42149300Y-94615000D02*
X44473100Y-92291200D01*
X40768000Y-93345000D02*
X42149300Y-93345000D01*
X63118000Y-75565000D02*
X61736700Y-75565000D01*
X43903500Y-91590800D02*
X53272300Y-91590800D01*
X42149300Y-93345000D02*
X43903500Y-91590800D01*
X61736700Y-82663200D02*
X61736700Y-75565000D01*
X59270800Y-85129100D02*
X61736700Y-82663200D01*
X40768000Y-92075000D02*
X42149300Y-92075000D01*
X42273700Y-91950600D02*
X42323700Y-91950600D01*
X42149300Y-92075000D02*
X42273700Y-91950600D01*
X45044600Y-75565000D02*
X46608000Y-75565000D01*
X43887300Y-76722300D02*
X45044600Y-75565000D01*
X43887300Y-79465300D02*
X43887300Y-76722300D01*
X43111600Y-80241000D02*
X43887300Y-79465300D01*
X43111600Y-84673300D02*
X43111600Y-80241000D01*
X40855300Y-86929600D02*
X43111600Y-84673300D01*
X176148000Y-98425000D02*
X177529300Y-98425000D01*
X31368000Y-92075000D02*
X29986700Y-92075000D01*
X179135300Y-100031000D02*
X177529300Y-98425000D01*
X179135300Y-113413200D02*
X179135300Y-100031000D01*
X173838000Y-118710500D02*
X179135300Y-113413200D01*
X173838000Y-119956400D02*
X173838000Y-118710500D01*
X173119400Y-120675000D02*
X173838000Y-119956400D01*
X172016600Y-120675000D02*
X173119400Y-120675000D01*
X171323000Y-121368600D02*
X172016600Y-120675000D01*
X171323000Y-122454900D02*
X171323000Y-121368600D01*
X165198200Y-128579700D02*
X171323000Y-122454900D01*
X124941200Y-128579700D02*
X165198200Y-128579700D01*
X117862800Y-135658100D02*
X124941200Y-128579700D01*
X64606900Y-135658100D02*
X117862800Y-135658100D01*
X34799500Y-105850700D02*
X64606900Y-135658100D01*
X32409100Y-105850700D02*
X34799500Y-105850700D01*
X29471300Y-102912900D02*
X32409100Y-105850700D01*
X29471300Y-92590400D02*
X29471300Y-102912900D01*
X29986700Y-92075000D02*
X29471300Y-92590400D01*
X53298100Y-96586400D02*
X52819800Y-97064700D01*
X90573700Y-96586400D02*
X53298100Y-96586400D01*
X90891600Y-96904300D02*
X90573700Y-96586400D01*
X111531000Y-96904300D02*
X90891600Y-96904300D01*
X111807700Y-96627600D02*
X111531000Y-96904300D01*
X153919300Y-96627600D02*
X111807700Y-96627600D01*
X155716700Y-98425000D02*
X153919300Y-96627600D01*
X37888500Y-93345000D02*
X31368000Y-93345000D01*
X38803300Y-94259800D02*
X37888500Y-93345000D01*
X157098000Y-98425000D02*
X155716700Y-98425000D01*
X33291900Y-95157600D02*
X32749300Y-94615000D01*
X38714800Y-95157600D02*
X33291900Y-95157600D01*
X31368000Y-94615000D02*
X32749300Y-94615000D01*
X138048000Y-98425000D02*
X136666700Y-98425000D01*
X135328500Y-98425000D02*
X135104000Y-98649500D01*
X136666700Y-98425000D02*
X135328500Y-98425000D01*
X47409300Y-95486600D02*
X46940700Y-95955200D01*
X124092800Y-95486600D02*
X47409300Y-95486600D01*
X31368000Y-95885000D02*
X32749300Y-95885000D01*
X112064100Y-98104000D02*
X111863500Y-98304600D01*
X117295700Y-98104000D02*
X112064100Y-98104000D01*
X117616700Y-98425000D02*
X117295700Y-98104000D01*
X118998000Y-98425000D02*
X117616700Y-98425000D01*
X32749300Y-96398600D02*
X32749300Y-95885000D01*
X39298900Y-102948200D02*
X32749300Y-96398600D01*
X41962700Y-102948200D02*
X39298900Y-102948200D01*
X43809600Y-101101300D02*
X41962700Y-102948200D01*
X43809600Y-98816300D02*
X43809600Y-101101300D01*
X45531500Y-97094400D02*
X43809600Y-98816300D01*
X47983300Y-97094400D02*
X45531500Y-97094400D01*
X49073900Y-96003800D02*
X47983300Y-97094400D01*
X108852300Y-96003800D02*
X49073900Y-96003800D01*
X109038900Y-96190400D02*
X108852300Y-96003800D01*
X99948000Y-98425000D02*
X98566700Y-98425000D01*
X31368000Y-97155000D02*
X29986700Y-97155000D01*
X98566700Y-104039000D02*
X95218600Y-107387100D01*
X98566700Y-98425000D02*
X98566700Y-104039000D01*
X50183100Y-120515200D02*
X96503500Y-120515200D01*
X32584300Y-102916400D02*
X50183100Y-120515200D01*
X30193800Y-102916400D02*
X32584300Y-102916400D01*
X29986700Y-102709300D02*
X30193800Y-102916400D01*
X29986700Y-97155000D02*
X29986700Y-102709300D01*
X32830000Y-98344300D02*
X32749300Y-98425000D01*
X33464600Y-98344300D02*
X32830000Y-98344300D01*
X31368000Y-98425000D02*
X32749300Y-98425000D01*
X78246700Y-100967700D02*
X77298200Y-101916200D01*
X78246700Y-98425000D02*
X78246700Y-100967700D01*
X79628000Y-98425000D02*
X78246700Y-98425000D01*
X63118000Y-98425000D02*
X61736700Y-98425000D01*
X61055400Y-97743700D02*
X61736700Y-98425000D01*
X54114100Y-97743700D02*
X61055400Y-97743700D01*
X53916700Y-97941100D02*
X54114100Y-97743700D01*
X39302900Y-103807300D02*
X44386100Y-103807300D01*
X35190600Y-99695000D02*
X39302900Y-103807300D01*
X31368000Y-99695000D02*
X35190600Y-99695000D01*
X46608000Y-98425000D02*
X45226700Y-98425000D01*
X44870900Y-98780800D02*
X44847300Y-98780800D01*
X45226700Y-98425000D02*
X44870900Y-98780800D01*
X35479100Y-100965000D02*
X37604600Y-103090500D01*
X31368000Y-100965000D02*
X35479100Y-100965000D01*
X99948000Y-85725000D02*
X101329300Y-85725000D01*
X101803400Y-85250900D02*
X102163400Y-85250900D01*
X101329300Y-85725000D02*
X101803400Y-85250900D01*
X97539000Y-83427300D02*
X98566700Y-84455000D01*
X97539000Y-72112400D02*
X97539000Y-83427300D01*
X103001500Y-66649900D02*
X97539000Y-72112400D01*
X104013000Y-66649900D02*
X103001500Y-66649900D01*
X104013000Y-65405000D02*
X104013000Y-66649900D01*
X99948000Y-84455000D02*
X98566700Y-84455000D01*
X98058400Y-82676700D02*
X98566700Y-83185000D01*
X98058400Y-74862600D02*
X98058400Y-82676700D01*
X103731100Y-69189900D02*
X98058400Y-74862600D01*
X105074700Y-69189900D02*
X103731100Y-69189900D01*
X105308100Y-68956500D02*
X105074700Y-69189900D01*
X105308100Y-67945000D02*
X105308100Y-68956500D01*
X106553000Y-67945000D02*
X105308100Y-67945000D01*
X99948000Y-83185000D02*
X98566700Y-83185000D01*
X99948000Y-81915000D02*
X102918500Y-81915000D01*
X105852900Y-76121400D02*
X101329300Y-80645000D01*
X105852900Y-74111600D02*
X105852900Y-76121400D01*
X99948000Y-80645000D02*
X101329300Y-80645000D01*
X99948000Y-79375000D02*
X98566700Y-79375000D01*
X109093000Y-65405000D02*
X109093000Y-66649900D01*
X98566700Y-75105900D02*
X98566700Y-79375000D01*
X99063500Y-74609100D02*
X98566700Y-75105900D01*
X101701400Y-74609100D02*
X99063500Y-74609100D01*
X107823000Y-68487500D02*
X101701400Y-74609100D01*
X107823000Y-67404100D02*
X107823000Y-68487500D01*
X108577200Y-66649900D02*
X107823000Y-67404100D01*
X109093000Y-66649900D02*
X108577200Y-66649900D01*
X101329300Y-77671900D02*
X101329300Y-78105000D01*
X105570900Y-73430300D02*
X101329300Y-77671900D01*
X106147700Y-73430300D02*
X105570900Y-73430300D01*
X111633000Y-67945000D02*
X106147700Y-73430300D01*
X99948000Y-78105000D02*
X101329300Y-78105000D01*
X111633000Y-65405000D02*
X111633000Y-66649900D01*
X99948000Y-76835000D02*
X101329300Y-76835000D01*
X105242300Y-72922000D02*
X101329300Y-76835000D01*
X105884400Y-72922000D02*
X105242300Y-72922000D01*
X110388100Y-68418300D02*
X105884400Y-72922000D01*
X110388100Y-67427900D02*
X110388100Y-68418300D01*
X111166100Y-66649900D02*
X110388100Y-67427900D01*
X111633000Y-66649900D02*
X111166100Y-66649900D01*
X114173000Y-67945000D02*
X114173000Y-69189900D01*
X109348000Y-76835000D02*
X110729300Y-76835000D01*
X110729300Y-72633600D02*
X114173000Y-69189900D01*
X110729300Y-76835000D02*
X110729300Y-72633600D01*
X109348000Y-78105000D02*
X110729300Y-78105000D01*
X110729300Y-78105000D02*
X110905900Y-78105000D01*
X111719500Y-78384800D02*
X110729300Y-79375000D01*
X111719500Y-74183400D02*
X111719500Y-78384800D01*
X116713000Y-69189900D02*
X111719500Y-74183400D01*
X116713000Y-67945000D02*
X116713000Y-69189900D01*
X109348000Y-79375000D02*
X110729300Y-79375000D01*
X109348000Y-80645000D02*
X110729300Y-80645000D01*
X116713000Y-65405000D02*
X116713000Y-66649900D01*
X117228800Y-66649900D02*
X116713000Y-66649900D01*
X117983000Y-67404100D02*
X117228800Y-66649900D01*
X117983000Y-69740900D02*
X117983000Y-67404100D01*
X112254200Y-75469700D02*
X117983000Y-69740900D01*
X112254200Y-79120100D02*
X112254200Y-75469700D01*
X110729300Y-80645000D02*
X112254200Y-79120100D01*
X119253000Y-67945000D02*
X119253000Y-69189900D01*
X109348000Y-81915000D02*
X110729300Y-81915000D01*
X112762500Y-75680400D02*
X119253000Y-69189900D01*
X112762500Y-79881800D02*
X112762500Y-75680400D01*
X110729300Y-81915000D02*
X112762500Y-79881800D01*
X119253000Y-65405000D02*
X119253000Y-66649900D01*
X109348000Y-83185000D02*
X110729300Y-83185000D01*
X119719800Y-66649900D02*
X119253000Y-66649900D01*
X120523000Y-67453100D02*
X119719800Y-66649900D01*
X120523000Y-69357300D02*
X120523000Y-67453100D01*
X113270800Y-76609500D02*
X120523000Y-69357300D01*
X113270800Y-80643500D02*
X113270800Y-76609500D01*
X110729300Y-83185000D02*
X113270800Y-80643500D01*
X121793000Y-67945000D02*
X121793000Y-69189900D01*
X109348000Y-84455000D02*
X110729300Y-84455000D01*
X113991500Y-81192800D02*
X110729300Y-84455000D01*
X113991500Y-76991400D02*
X113991500Y-81192800D01*
X121793000Y-69189900D02*
X113991500Y-76991400D01*
X115143000Y-81311300D02*
X110729300Y-85725000D01*
X115143000Y-76952400D02*
X115143000Y-81311300D01*
X123047700Y-69047700D02*
X115143000Y-76952400D01*
X123047700Y-67437800D02*
X123047700Y-69047700D01*
X122259800Y-66649900D02*
X123047700Y-67437800D01*
X121793000Y-66649900D02*
X122259800Y-66649900D01*
X121793000Y-65405000D02*
X121793000Y-66649900D01*
X109348000Y-85725000D02*
X110729300Y-85725000D01*
X118998000Y-85725000D02*
X120379300Y-85725000D01*
X120553000Y-85551300D02*
X120553000Y-85213000D01*
X120379300Y-85725000D02*
X120553000Y-85551300D01*
X118998000Y-84455000D02*
X117616700Y-84455000D01*
X117616700Y-84455000D02*
X117427100Y-84455000D01*
X120551700Y-83012600D02*
X120379300Y-83185000D01*
X120787300Y-83012600D02*
X120551700Y-83012600D01*
X118998000Y-83185000D02*
X120379300Y-83185000D01*
X118998000Y-81915000D02*
X117616700Y-81915000D01*
X117616700Y-81475700D02*
X117471100Y-81330100D01*
X117616700Y-81915000D02*
X117616700Y-81475700D01*
X118998000Y-80645000D02*
X120379300Y-80645000D01*
X120880400Y-80143900D02*
X122438100Y-80143900D01*
X120379300Y-80645000D02*
X120880400Y-80143900D01*
X118998000Y-79375000D02*
X121611000Y-79375000D01*
X120716300Y-77768000D02*
X120379300Y-78105000D01*
X123306200Y-77768000D02*
X120716300Y-77768000D01*
X118998000Y-78105000D02*
X120379300Y-78105000D01*
X120684300Y-76530000D02*
X120379300Y-76835000D01*
X123124200Y-76530000D02*
X120684300Y-76530000D01*
X118998000Y-76835000D02*
X120379300Y-76835000D01*
X137033000Y-56515000D02*
X137033000Y-57759900D01*
X128398000Y-76835000D02*
X129779300Y-76835000D01*
X129779300Y-65013600D02*
X129779300Y-76835000D01*
X137033000Y-57759900D02*
X129779300Y-65013600D01*
X128398000Y-78105000D02*
X129779300Y-78105000D01*
X129779300Y-78105000D02*
X130156500Y-78105000D01*
X139573000Y-56515000D02*
X139573000Y-57759900D01*
X128398000Y-79375000D02*
X129779300Y-79375000D01*
X131979800Y-65353100D02*
X139573000Y-57759900D01*
X131979800Y-77302400D02*
X131979800Y-65353100D01*
X129907200Y-79375000D02*
X131979800Y-77302400D01*
X129779300Y-79375000D02*
X129907200Y-79375000D01*
X128398000Y-80645000D02*
X129779300Y-80645000D01*
X129969400Y-80454900D02*
X130029200Y-80454900D01*
X129779300Y-80645000D02*
X129969400Y-80454900D01*
X128398000Y-81915000D02*
X129779300Y-81915000D01*
X130543900Y-81150400D02*
X130553700Y-81150400D01*
X129779300Y-81915000D02*
X130543900Y-81150400D01*
X142113000Y-53975000D02*
X142113000Y-55219900D01*
X131412900Y-81551400D02*
X129779300Y-83185000D01*
X131412900Y-80076200D02*
X131412900Y-81551400D01*
X135763000Y-75726100D02*
X131412900Y-80076200D01*
X135763000Y-64821200D02*
X135763000Y-75726100D01*
X140818000Y-59766200D02*
X135763000Y-64821200D01*
X140818000Y-55999100D02*
X140818000Y-59766200D01*
X141597200Y-55219900D02*
X140818000Y-55999100D01*
X142113000Y-55219900D02*
X141597200Y-55219900D01*
X128398000Y-83185000D02*
X129779300Y-83185000D01*
X128398000Y-84455000D02*
X129779300Y-84455000D01*
X132775500Y-81998300D02*
X132775500Y-81101800D01*
X130318800Y-84455000D02*
X132775500Y-81998300D01*
X129779300Y-84455000D02*
X130318800Y-84455000D01*
X128398000Y-85725000D02*
X127016700Y-85725000D01*
X126813500Y-85521800D02*
X126813500Y-85244700D01*
X127016700Y-85725000D02*
X126813500Y-85521800D01*
X136633400Y-85691700D02*
X136666700Y-85725000D01*
X136272300Y-85691700D02*
X136633400Y-85691700D01*
X138048000Y-85725000D02*
X136666700Y-85725000D01*
X138048000Y-84455000D02*
X136666700Y-84455000D01*
X136666700Y-84455000D02*
X136481300Y-84455000D01*
X138048000Y-83185000D02*
X139429300Y-83185000D01*
X139706500Y-82907800D02*
X139706500Y-82749400D01*
X139429300Y-83185000D02*
X139706500Y-82907800D01*
X139429300Y-81799600D02*
X139609300Y-81619600D01*
X139429300Y-81915000D02*
X139429300Y-81799600D01*
X138048000Y-81915000D02*
X139429300Y-81915000D01*
X138048000Y-80645000D02*
X139429300Y-80645000D01*
X139429300Y-80645000D02*
X139605700Y-80645000D01*
X139429300Y-79171900D02*
X139429300Y-79375000D01*
X141084600Y-77516600D02*
X139429300Y-79171900D01*
X138048000Y-79375000D02*
X139429300Y-79375000D01*
X142113000Y-75421300D02*
X139429300Y-78105000D01*
X142113000Y-67945000D02*
X142113000Y-75421300D01*
X138048000Y-78105000D02*
X139429300Y-78105000D01*
X140868100Y-75396200D02*
X139429300Y-76835000D01*
X140868100Y-67427900D02*
X140868100Y-75396200D01*
X141646100Y-66649900D02*
X140868100Y-67427900D01*
X142113000Y-66649900D02*
X141646100Y-66649900D01*
X142113000Y-65405000D02*
X142113000Y-66649900D01*
X138048000Y-76835000D02*
X139429300Y-76835000D01*
X144653000Y-75421300D02*
X146066700Y-76835000D01*
X144653000Y-67945000D02*
X144653000Y-75421300D01*
X147448000Y-76835000D02*
X146066700Y-76835000D01*
X143383000Y-75421300D02*
X146066700Y-78105000D01*
X143383000Y-67453100D02*
X143383000Y-75421300D01*
X144186200Y-66649900D02*
X143383000Y-67453100D01*
X144653000Y-66649900D02*
X144186200Y-66649900D01*
X144653000Y-65405000D02*
X144653000Y-66649900D01*
X147448000Y-78105000D02*
X146066700Y-78105000D01*
X147448000Y-79375000D02*
X145885200Y-79375000D01*
X147448000Y-80645000D02*
X146066700Y-80645000D01*
X145203800Y-79782100D02*
X145203800Y-78820900D01*
X146066700Y-80645000D02*
X145203800Y-79782100D01*
X148829300Y-81680300D02*
X148829300Y-81915000D01*
X149048300Y-81461300D02*
X148829300Y-81680300D01*
X147448000Y-81915000D02*
X148829300Y-81915000D01*
X147448000Y-83185000D02*
X146066700Y-83185000D01*
X146066700Y-83185000D02*
X145882700Y-83185000D01*
X149033100Y-84455000D02*
X147448000Y-84455000D01*
X152557100Y-80931000D02*
X149033100Y-84455000D01*
X152557100Y-77276400D02*
X152557100Y-80931000D01*
X149368900Y-85185400D02*
X148829300Y-85725000D01*
X150389700Y-85185400D02*
X149368900Y-85185400D01*
X147448000Y-85725000D02*
X148829300Y-85725000D01*
X157098000Y-85725000D02*
X158479300Y-85725000D01*
X158662800Y-85541500D02*
X158479300Y-85725000D01*
X157098000Y-84455000D02*
X155716700Y-84455000D01*
X155716700Y-84455000D02*
X155537000Y-84455000D01*
X157098000Y-83185000D02*
X158479300Y-83185000D01*
X160540200Y-75360200D02*
X159281800Y-75360200D01*
X161667900Y-76487900D02*
X160540200Y-75360200D01*
X161667900Y-79996400D02*
X161667900Y-76487900D01*
X158479300Y-83185000D02*
X161667900Y-79996400D01*
X157098000Y-81915000D02*
X158479300Y-81915000D01*
X158479300Y-81915000D02*
X158664700Y-81915000D01*
X158600400Y-80523900D02*
X158479300Y-80645000D01*
X159311300Y-80523900D02*
X158600400Y-80523900D01*
X157098000Y-80645000D02*
X158479300Y-80645000D01*
X157098000Y-79375000D02*
X158479300Y-79375000D01*
X158656800Y-79197500D02*
X158479300Y-79375000D01*
X159500500Y-79197500D02*
X158656800Y-79197500D01*
X157098000Y-78105000D02*
X158479300Y-78105000D01*
X158663800Y-77920500D02*
X160878300Y-77920500D01*
X158479300Y-78105000D02*
X158663800Y-77920500D01*
X157098000Y-76835000D02*
X158479300Y-76835000D01*
X158479300Y-76835000D02*
X160982500Y-76835000D01*
X165021500Y-76739800D02*
X165116700Y-76835000D01*
X164350600Y-76739800D02*
X165021500Y-76739800D01*
X166498000Y-76835000D02*
X165116700Y-76835000D01*
X167513000Y-53975000D02*
X167513000Y-55219900D01*
X166498000Y-78105000D02*
X167879300Y-78105000D01*
X167879300Y-75107100D02*
X167879300Y-78105000D01*
X162666600Y-69894400D02*
X167879300Y-75107100D01*
X162666600Y-63449100D02*
X162666600Y-69894400D01*
X166268100Y-59847600D02*
X162666600Y-63449100D01*
X166268100Y-55997900D02*
X166268100Y-59847600D01*
X167046100Y-55219900D02*
X166268100Y-55997900D01*
X167513000Y-55219900D02*
X167046100Y-55219900D01*
X166498000Y-79375000D02*
X167879300Y-79375000D01*
X167950100Y-79304200D02*
X168155900Y-79304200D01*
X167879300Y-79375000D02*
X167950100Y-79304200D01*
X170053000Y-53975000D02*
X170053000Y-55219900D01*
X166498000Y-80645000D02*
X167879300Y-80645000D01*
X168885600Y-79638700D02*
X167879300Y-80645000D01*
X168885600Y-79070300D02*
X168885600Y-79638700D01*
X168641900Y-78826600D02*
X168885600Y-79070300D01*
X168641900Y-75015200D02*
X168641900Y-78826600D01*
X163175000Y-69548300D02*
X168641900Y-75015200D01*
X163175000Y-63836800D02*
X163175000Y-69548300D01*
X168808100Y-58203700D02*
X163175000Y-63836800D01*
X168808100Y-55997900D02*
X168808100Y-58203700D01*
X169586100Y-55219900D02*
X168808100Y-55997900D01*
X170053000Y-55219900D02*
X169586100Y-55219900D01*
X168371400Y-81422900D02*
X167879300Y-81915000D01*
X170120100Y-81422900D02*
X168371400Y-81422900D01*
X166498000Y-81915000D02*
X167879300Y-81915000D01*
X166498000Y-83185000D02*
X167879300Y-83185000D01*
X168022100Y-83042200D02*
X168608200Y-83042200D01*
X167879300Y-83185000D02*
X168022100Y-83042200D01*
X166498000Y-84455000D02*
X167879300Y-84455000D01*
X167879300Y-84370700D02*
X167879300Y-84455000D01*
X168090000Y-84160000D02*
X167879300Y-84370700D01*
X175133000Y-53975000D02*
X173888100Y-53975000D01*
X166498000Y-85725000D02*
X167879300Y-85725000D01*
X170811600Y-82792700D02*
X167879300Y-85725000D01*
X170811600Y-80277500D02*
X170811600Y-82792700D01*
X169150200Y-78616100D02*
X170811600Y-80277500D01*
X169150200Y-74804700D02*
X169150200Y-78616100D01*
X163728000Y-69382500D02*
X169150200Y-74804700D01*
X163728000Y-64601700D02*
X163728000Y-69382500D01*
X171323000Y-57006700D02*
X163728000Y-64601700D01*
X171323000Y-55963600D02*
X171323000Y-57006700D01*
X172066700Y-55219900D02*
X171323000Y-55963600D01*
X173110100Y-55219900D02*
X172066700Y-55219900D01*
X173888100Y-54441900D02*
X173110100Y-55219900D01*
X173888100Y-53975000D02*
X173888100Y-54441900D01*
X176148000Y-85725000D02*
X174766700Y-85725000D01*
X164973000Y-67945000D02*
X164973000Y-69189900D01*
X172297800Y-83256100D02*
X174766700Y-85725000D01*
X172297800Y-81044900D02*
X172297800Y-83256100D01*
X169658500Y-78405600D02*
X172297800Y-81044900D01*
X169658500Y-73875400D02*
X169658500Y-78405600D01*
X164973000Y-69189900D02*
X169658500Y-73875400D01*
X172806200Y-82494500D02*
X174766700Y-84455000D01*
X172806200Y-80804000D02*
X172806200Y-82494500D01*
X170166900Y-78164700D02*
X172806200Y-80804000D01*
X170166900Y-73664800D02*
X170166900Y-78164700D01*
X166217900Y-69715800D02*
X170166900Y-73664800D01*
X166217900Y-66883300D02*
X166217900Y-69715800D01*
X165984500Y-66649900D02*
X166217900Y-66883300D01*
X164973000Y-66649900D02*
X165984500Y-66649900D01*
X164973000Y-65405000D02*
X164973000Y-66649900D01*
X176148000Y-84455000D02*
X174766700Y-84455000D01*
X176148000Y-83185000D02*
X174766700Y-83185000D01*
X167513100Y-69189900D02*
X167513000Y-69189900D01*
X167513100Y-70204700D02*
X167513100Y-69189900D01*
X171183400Y-73875000D02*
X167513100Y-70204700D01*
X171183400Y-78462200D02*
X171183400Y-73875000D01*
X173325500Y-80604300D02*
X171183400Y-78462200D01*
X173325500Y-81743800D02*
X173325500Y-80604300D01*
X174766700Y-83185000D02*
X173325500Y-81743800D01*
X167513000Y-67945000D02*
X167513000Y-69189900D01*
X167513000Y-65405000D02*
X167513000Y-66649900D01*
X176148000Y-81915000D02*
X174766700Y-81915000D01*
X167979900Y-66649900D02*
X167513000Y-66649900D01*
X168757900Y-67427900D02*
X167979900Y-66649900D01*
X168757900Y-70637900D02*
X168757900Y-67427900D01*
X171691700Y-73571700D02*
X168757900Y-70637900D01*
X171691700Y-77954000D02*
X171691700Y-73571700D01*
X174046100Y-80308400D02*
X171691700Y-77954000D01*
X174046100Y-81194400D02*
X174046100Y-80308400D01*
X174766700Y-81915000D02*
X174046100Y-81194400D01*
X176148000Y-80645000D02*
X174766700Y-80645000D01*
X170053000Y-67945000D02*
X170053000Y-69189900D01*
X170053000Y-71214000D02*
X170053000Y-69189900D01*
X172200000Y-73361000D02*
X170053000Y-71214000D01*
X172200000Y-77743300D02*
X172200000Y-73361000D01*
X174766700Y-80310000D02*
X172200000Y-77743300D01*
X174766700Y-80645000D02*
X174766700Y-80310000D01*
X170053000Y-65405000D02*
X170053000Y-66649900D01*
X176148000Y-79375000D02*
X174766700Y-79375000D01*
X170519900Y-66649900D02*
X170053000Y-66649900D01*
X171297900Y-67427900D02*
X170519900Y-66649900D01*
X171297900Y-71740100D02*
X171297900Y-67427900D01*
X172708300Y-73150500D02*
X171297900Y-71740100D01*
X172708300Y-77316600D02*
X172708300Y-73150500D01*
X174766700Y-79375000D02*
X172708300Y-77316600D01*
X172593000Y-67945000D02*
X172593000Y-69189900D01*
X176148000Y-78105000D02*
X174766700Y-78105000D01*
X173216600Y-69813500D02*
X172593000Y-69189900D01*
X173216600Y-76554900D02*
X173216600Y-69813500D01*
X174766700Y-78105000D02*
X173216600Y-76554900D01*
X173837900Y-75906200D02*
X174766700Y-76835000D01*
X173837900Y-67427900D02*
X173837900Y-75906200D01*
X173059900Y-66649900D02*
X173837900Y-67427900D01*
X172593000Y-66649900D02*
X173059900Y-66649900D01*
X172593000Y-65405000D02*
X172593000Y-66649900D01*
X176148000Y-76835000D02*
X174766700Y-76835000D01*
X181483000Y-74151300D02*
X184166700Y-76835000D01*
X181483000Y-67393600D02*
X181483000Y-74151300D01*
X180789400Y-66700000D02*
X181483000Y-67393600D01*
X179658100Y-66700000D02*
X180789400Y-66700000D01*
X178942800Y-65984700D02*
X179658100Y-66700000D01*
X178942800Y-64895600D02*
X178942800Y-65984700D01*
X178193900Y-64146700D02*
X178942800Y-64895600D01*
X177100300Y-64146700D02*
X178193900Y-64146700D01*
X176377900Y-64869100D02*
X177100300Y-64146700D01*
X176377900Y-65922100D02*
X176377900Y-64869100D01*
X175599900Y-66700100D02*
X176377900Y-65922100D01*
X175133000Y-66700100D02*
X175599900Y-66700100D01*
X175133000Y-67945000D02*
X175133000Y-66700100D01*
X185548000Y-76835000D02*
X184166700Y-76835000D01*
X184166700Y-77722500D02*
X184166700Y-78105000D01*
X180051100Y-73606900D02*
X184166700Y-77722500D01*
X185548000Y-78105000D02*
X184166700Y-78105000D01*
X185548000Y-79375000D02*
X184166700Y-79375000D01*
X179365800Y-74574100D02*
X184166700Y-79375000D01*
X179365800Y-71922900D02*
X179365800Y-74574100D01*
X185548000Y-80645000D02*
X184166700Y-80645000D01*
X177673000Y-65405000D02*
X177673000Y-66649900D01*
X178188800Y-66649900D02*
X177673000Y-66649900D01*
X178943000Y-67404100D02*
X178188800Y-66649900D01*
X178943000Y-70368000D02*
X178943000Y-67404100D01*
X178665700Y-70645300D02*
X178943000Y-70368000D01*
X178665700Y-74674500D02*
X178665700Y-70645300D01*
X184166700Y-80175500D02*
X178665700Y-74674500D01*
X184166700Y-80645000D02*
X184166700Y-80175500D01*
X185548000Y-81915000D02*
X184166700Y-81915000D01*
X184166700Y-81915000D02*
X183282200Y-81915000D01*
X185548000Y-83185000D02*
X184166700Y-83185000D01*
X183794900Y-82813200D02*
X184166700Y-83185000D01*
X183545200Y-82813200D02*
X183794900Y-82813200D01*
X182572100Y-82860400D02*
X184166700Y-84455000D01*
X182572100Y-80219500D02*
X182572100Y-82860400D01*
X182683300Y-80108300D02*
X182572100Y-80219500D01*
X185548000Y-84455000D02*
X184166700Y-84455000D01*
X185548000Y-85725000D02*
X184166700Y-85725000D01*
X184113500Y-85778200D02*
X184166700Y-85725000D01*
X183990500Y-85778200D02*
X184113500Y-85778200D01*
X36703000Y-109390000D02*
X35871700Y-109390000D01*
X34223200Y-109390000D02*
X33989300Y-109623900D01*
X35871700Y-109390000D02*
X34223200Y-109390000D01*
X33208000Y-109623900D02*
X33989300Y-109623900D01*
X40768000Y-90805000D02*
X42149300Y-90805000D01*
X42672900Y-90281400D02*
X48506900Y-90281400D01*
X42149300Y-90805000D02*
X42672900Y-90281400D01*
X89408000Y-117475000D02*
X89408000Y-114549400D01*
X40768000Y-89535000D02*
X42149300Y-89535000D01*
X42880500Y-88803800D02*
X44182100Y-88803800D01*
X42149300Y-89535000D02*
X42880500Y-88803800D01*
X44741700Y-108100000D02*
X45226700Y-108585000D01*
X41497500Y-108100000D02*
X44741700Y-108100000D01*
X46608000Y-108585000D02*
X45226700Y-108585000D01*
X46608000Y-107315000D02*
X45226700Y-107315000D01*
X41278400Y-107315000D02*
X41177800Y-107214400D01*
X45226700Y-107315000D02*
X41278400Y-107315000D01*
X44679800Y-106591900D02*
X45226700Y-106045000D01*
X42196100Y-106591900D02*
X44679800Y-106591900D01*
X46608000Y-106045000D02*
X45226700Y-106045000D01*
X45226700Y-104940300D02*
X45226700Y-104775000D01*
X44309800Y-105857200D02*
X45226700Y-104940300D01*
X41478800Y-105857200D02*
X44309800Y-105857200D01*
X40458200Y-106877800D02*
X41478800Y-105857200D01*
X40458200Y-108468900D02*
X40458200Y-106877800D01*
X41214000Y-109224700D02*
X40458200Y-108468900D01*
X46608000Y-104775000D02*
X45226700Y-104775000D01*
X46608000Y-103505000D02*
X45226700Y-103505000D01*
X45226700Y-103972800D02*
X45226700Y-103505000D01*
X44523600Y-104675900D02*
X45226700Y-103972800D01*
X46608000Y-102235000D02*
X45226700Y-102235000D01*
X45172000Y-102289700D02*
X44002800Y-102289700D01*
X45226700Y-102235000D02*
X45172000Y-102289700D01*
X45199400Y-100992300D02*
X45226700Y-100965000D01*
X44490900Y-100992300D02*
X45199400Y-100992300D01*
X46608000Y-100965000D02*
X45226700Y-100965000D01*
X46608000Y-99695000D02*
X45226700Y-99695000D01*
X45226700Y-99695000D02*
X45045200Y-99695000D01*
X54080500Y-100241200D02*
X54626700Y-99695000D01*
X53842100Y-100241200D02*
X54080500Y-100241200D01*
X56008000Y-99695000D02*
X54626700Y-99695000D01*
X56008000Y-100965000D02*
X52502000Y-100965000D01*
X54626700Y-102193600D02*
X54626700Y-102235000D01*
X54296900Y-101863800D02*
X54626700Y-102193600D01*
X56008000Y-102235000D02*
X54626700Y-102235000D01*
X56008000Y-103505000D02*
X54626700Y-103505000D01*
X54626700Y-103735300D02*
X54626700Y-103505000D01*
X48672300Y-109689700D02*
X54626700Y-103735300D01*
X56008000Y-104775000D02*
X54626700Y-104775000D01*
X52845600Y-110887600D02*
X53526900Y-111568900D01*
X52845600Y-106556100D02*
X52845600Y-110887600D01*
X54626700Y-104775000D02*
X52845600Y-106556100D01*
X54349400Y-106322300D02*
X54626700Y-106045000D01*
X54210500Y-106322300D02*
X54349400Y-106322300D01*
X56008000Y-106045000D02*
X54626700Y-106045000D01*
X56008000Y-107315000D02*
X54626700Y-107315000D01*
X54626700Y-107315000D02*
X54424000Y-107315000D01*
X56008000Y-108585000D02*
X54626700Y-108585000D01*
X54626700Y-108628300D02*
X54035200Y-109219800D01*
X54626700Y-108585000D02*
X54626700Y-108628300D01*
X63118000Y-108585000D02*
X61736700Y-108585000D01*
X61602000Y-108585000D02*
X61554200Y-108632800D01*
X61736700Y-108585000D02*
X61602000Y-108585000D01*
X63118000Y-107315000D02*
X61736700Y-107315000D01*
X61736700Y-107315000D02*
X61553500Y-107315000D01*
X63118000Y-106045000D02*
X64499300Y-106045000D01*
X64885300Y-106431000D02*
X64885300Y-107197900D01*
X64499300Y-106045000D02*
X64885300Y-106431000D01*
X63118000Y-104775000D02*
X64499300Y-104775000D01*
X64499800Y-104774500D02*
X66676200Y-104774500D01*
X64499300Y-104775000D02*
X64499800Y-104774500D01*
X61426700Y-103195000D02*
X61736700Y-103505000D01*
X60382600Y-103195000D02*
X61426700Y-103195000D01*
X63118000Y-103505000D02*
X61736700Y-103505000D01*
X64715700Y-102018600D02*
X64499300Y-102235000D01*
X65702000Y-102018600D02*
X64715700Y-102018600D01*
X63118000Y-102235000D02*
X64499300Y-102235000D01*
X63118000Y-100965000D02*
X61736700Y-100965000D01*
X59207100Y-103403600D02*
X59207100Y-104673600D01*
X61645700Y-100965000D02*
X59207100Y-103403600D01*
X61736700Y-100965000D02*
X61645700Y-100965000D01*
X64704100Y-99490200D02*
X64499300Y-99695000D01*
X65111900Y-99490200D02*
X64704100Y-99490200D01*
X63118000Y-99695000D02*
X64499300Y-99695000D01*
X72518000Y-99695000D02*
X73899300Y-99695000D01*
X74029200Y-99824900D02*
X74029200Y-100283600D01*
X73899300Y-99695000D02*
X74029200Y-99824900D01*
X73899300Y-100989900D02*
X73899300Y-100965000D01*
X74103800Y-101194400D02*
X73899300Y-100989900D01*
X72518000Y-100965000D02*
X73899300Y-100965000D01*
X72518000Y-102235000D02*
X73899300Y-102235000D01*
X73903300Y-102239000D02*
X74287300Y-102239000D01*
X73899300Y-102235000D02*
X73903300Y-102239000D01*
X72518000Y-103505000D02*
X73899300Y-103505000D01*
X73997500Y-103603200D02*
X75049000Y-103603200D01*
X73899300Y-103505000D02*
X73997500Y-103603200D01*
X72518000Y-104775000D02*
X73899300Y-104775000D01*
X74038300Y-104914000D02*
X74238700Y-104914000D01*
X73899300Y-104775000D02*
X74038300Y-104914000D01*
X72518000Y-106045000D02*
X73899300Y-106045000D01*
X74526400Y-106672100D02*
X74808000Y-106672100D01*
X73899300Y-106045000D02*
X74526400Y-106672100D01*
X72518000Y-107315000D02*
X73899300Y-107315000D01*
X74379300Y-107795000D02*
X73899300Y-107315000D01*
X75341200Y-107795000D02*
X74379300Y-107795000D01*
X74463200Y-109148900D02*
X73899300Y-108585000D01*
X75806600Y-109148900D02*
X74463200Y-109148900D01*
X72518000Y-108585000D02*
X73899300Y-108585000D01*
X79628000Y-108585000D02*
X81009300Y-108585000D01*
X81889500Y-107704800D02*
X81009300Y-108585000D01*
X84289900Y-107704800D02*
X81889500Y-107704800D01*
X84834000Y-108248900D02*
X84289900Y-107704800D01*
X81127800Y-107196500D02*
X81009300Y-107315000D01*
X84745000Y-107196500D02*
X81127800Y-107196500D01*
X79628000Y-107315000D02*
X81009300Y-107315000D01*
X79628000Y-106045000D02*
X81009300Y-106045000D01*
X81208900Y-106358300D02*
X81209000Y-106358300D01*
X81208900Y-106244600D02*
X81208900Y-106358300D01*
X81009300Y-106045000D02*
X81208900Y-106244600D01*
X79628000Y-104775000D02*
X81009300Y-104775000D01*
X81443300Y-104341000D02*
X84703300Y-104341000D01*
X81009300Y-104775000D02*
X81443300Y-104341000D01*
X79628000Y-103505000D02*
X78246700Y-103505000D01*
X78101800Y-103505000D02*
X78070500Y-103473700D01*
X78246700Y-103505000D02*
X78101800Y-103505000D01*
X81337300Y-101907000D02*
X81009300Y-102235000D01*
X84200700Y-101907000D02*
X81337300Y-101907000D01*
X79628000Y-102235000D02*
X81009300Y-102235000D01*
X79628000Y-100965000D02*
X81009300Y-100965000D01*
X81095800Y-100878500D02*
X86180500Y-100878500D01*
X81009300Y-100965000D02*
X81095800Y-100878500D01*
X79628000Y-99695000D02*
X85961200Y-99695000D01*
X90866700Y-100152400D02*
X94455300Y-100152400D01*
X90409300Y-99695000D02*
X90866700Y-100152400D01*
X89028000Y-99695000D02*
X90409300Y-99695000D01*
X90495800Y-100878500D02*
X90409300Y-100965000D01*
X90807900Y-100878500D02*
X90495800Y-100878500D01*
X89028000Y-100965000D02*
X90409300Y-100965000D01*
X89028000Y-102235000D02*
X90409300Y-102235000D01*
X90409300Y-102235000D02*
X91140800Y-102235000D01*
X90733300Y-103829000D02*
X90409300Y-103505000D01*
X96069600Y-103829000D02*
X90733300Y-103829000D01*
X89028000Y-103505000D02*
X90409300Y-103505000D01*
X97550000Y-111915700D02*
X90409300Y-104775000D01*
X97550000Y-114084700D02*
X97550000Y-111915700D01*
X101142600Y-117677300D02*
X97550000Y-114084700D01*
X101142600Y-121365300D02*
X101142600Y-117677300D01*
X103070500Y-123293200D02*
X101142600Y-121365300D01*
X109143300Y-123293200D02*
X103070500Y-123293200D01*
X115976000Y-130125900D02*
X109143300Y-123293200D01*
X115976000Y-133330400D02*
X115976000Y-130125900D01*
X114685900Y-134620500D02*
X115976000Y-133330400D01*
X113681600Y-134620500D02*
X114685900Y-134620500D01*
X112877900Y-133816800D02*
X113681600Y-134620500D01*
X112877900Y-133350000D02*
X112877900Y-133816800D01*
X111633000Y-133350000D02*
X112877900Y-133350000D01*
X89028000Y-104775000D02*
X90409300Y-104775000D01*
X89028000Y-106045000D02*
X90409300Y-106045000D01*
X103503400Y-124516200D02*
X104618900Y-124516200D01*
X99729700Y-120742500D02*
X103503400Y-124516200D01*
X99729700Y-120621500D02*
X99729700Y-120742500D01*
X96333900Y-117225700D02*
X99729700Y-120621500D01*
X95841700Y-117225700D02*
X96333900Y-117225700D01*
X92057400Y-113441400D02*
X95841700Y-117225700D01*
X92057400Y-107693100D02*
X92057400Y-113441400D01*
X90409300Y-106045000D02*
X92057400Y-107693100D01*
X114173000Y-133350000D02*
X114173000Y-132105100D01*
X89028000Y-107315000D02*
X90409300Y-107315000D01*
X114639800Y-132105100D02*
X114173000Y-132105100D01*
X115421300Y-131323600D02*
X114639800Y-132105100D01*
X115421300Y-130290300D02*
X115421300Y-131323600D01*
X110328500Y-125197500D02*
X115421300Y-130290300D01*
X103465900Y-125197500D02*
X110328500Y-125197500D01*
X99221400Y-120953000D02*
X103465900Y-125197500D01*
X99221400Y-120832000D02*
X99221400Y-120953000D01*
X96123400Y-117734000D02*
X99221400Y-120832000D01*
X95631200Y-117734000D02*
X96123400Y-117734000D01*
X91549000Y-113651800D02*
X95631200Y-117734000D01*
X91549000Y-108454700D02*
X91549000Y-113651800D01*
X90409300Y-107315000D02*
X91549000Y-108454700D01*
X114173000Y-130810000D02*
X112928100Y-130810000D01*
X89028000Y-108585000D02*
X90409300Y-108585000D01*
X112928100Y-130343200D02*
X112928100Y-130810000D01*
X108290700Y-125705800D02*
X112928100Y-130343200D01*
X103255400Y-125705800D02*
X108290700Y-125705800D01*
X98713100Y-121163500D02*
X103255400Y-125705800D01*
X98713100Y-121042500D02*
X98713100Y-121163500D01*
X95912900Y-118242300D02*
X98713100Y-121042500D01*
X95420700Y-118242300D02*
X95912900Y-118242300D01*
X91040700Y-113862300D02*
X95420700Y-118242300D01*
X91040700Y-109216400D02*
X91040700Y-113862300D01*
X90409300Y-108585000D02*
X91040700Y-109216400D01*
X98566700Y-112920800D02*
X98566700Y-108585000D01*
X100214300Y-114568400D02*
X98566700Y-112920800D01*
X103520100Y-114568400D02*
X100214300Y-114568400D01*
X107823000Y-118871300D02*
X103520100Y-114568400D01*
X107823000Y-119931400D02*
X107823000Y-118871300D01*
X107079300Y-120675100D02*
X107823000Y-119931400D01*
X106035900Y-120675100D02*
X107079300Y-120675100D01*
X105257900Y-121453100D02*
X106035900Y-120675100D01*
X105257900Y-121920000D02*
X105257900Y-121453100D01*
X104013000Y-121920000D02*
X105257900Y-121920000D01*
X99948000Y-108585000D02*
X98566700Y-108585000D01*
X104013000Y-119380000D02*
X104013000Y-118135100D01*
X99948000Y-107315000D02*
X98566700Y-107315000D01*
X103062200Y-118135100D02*
X104013000Y-118135100D01*
X98058400Y-113131300D02*
X103062200Y-118135100D01*
X98058400Y-107823300D02*
X98058400Y-113131300D01*
X98566700Y-107315000D02*
X98058400Y-107823300D01*
X99948000Y-106045000D02*
X101329300Y-106045000D01*
X101329300Y-106045000D02*
X101948600Y-106045000D01*
X99948000Y-104775000D02*
X101329300Y-104775000D01*
X101642100Y-104775000D02*
X101329300Y-104775000D01*
X105386500Y-108519400D02*
X101642100Y-104775000D01*
X105386500Y-110467900D02*
X105386500Y-108519400D01*
X99948000Y-103505000D02*
X101329300Y-103505000D01*
X101379000Y-103554700D02*
X102488100Y-103554700D01*
X101329300Y-103505000D02*
X101379000Y-103554700D01*
X99948000Y-102235000D02*
X101329300Y-102235000D01*
X101389200Y-102294900D02*
X101936500Y-102294900D01*
X101329300Y-102235000D02*
X101389200Y-102294900D01*
X99948000Y-100965000D02*
X101329300Y-100965000D01*
X101574800Y-100965000D02*
X101329300Y-100965000D01*
X106125200Y-105515400D02*
X101574800Y-100965000D01*
X106125200Y-111861700D02*
X106125200Y-105515400D01*
X105853300Y-112133600D02*
X106125200Y-111861700D01*
X99948000Y-99695000D02*
X101329300Y-99695000D01*
X101853600Y-99695000D02*
X102029200Y-99870600D01*
X101329300Y-99695000D02*
X101853600Y-99695000D01*
X109348000Y-99695000D02*
X110729300Y-99695000D01*
X110861400Y-99827100D02*
X110861400Y-100282600D01*
X110729300Y-99695000D02*
X110861400Y-99827100D01*
X109348000Y-100965000D02*
X110729300Y-100965000D01*
X110912200Y-101147900D02*
X110912200Y-101198100D01*
X110729300Y-100965000D02*
X110912200Y-101147900D01*
X109348000Y-102235000D02*
X110729300Y-102235000D01*
X110729300Y-102235000D02*
X110920900Y-102235000D01*
X110779600Y-103555300D02*
X110729300Y-103505000D01*
X111559400Y-103555300D02*
X110779600Y-103555300D01*
X109348000Y-103505000D02*
X110729300Y-103505000D01*
X109348000Y-104775000D02*
X112117700Y-104775000D01*
X109348000Y-106045000D02*
X110729300Y-106045000D01*
X110729300Y-106045000D02*
X112881000Y-106045000D01*
X109348000Y-107315000D02*
X110729300Y-107315000D01*
X111292400Y-107878100D02*
X114115000Y-107878100D01*
X110729300Y-107315000D02*
X111292400Y-107878100D01*
X109348000Y-108585000D02*
X110729300Y-108585000D01*
X111225500Y-109081200D02*
X115239600Y-109081200D01*
X110729300Y-108585000D02*
X111225500Y-109081200D01*
X118998000Y-108585000D02*
X120379300Y-108585000D01*
X120622200Y-108827900D02*
X121621900Y-108827900D01*
X120379300Y-108585000D02*
X120622200Y-108827900D01*
X118998000Y-107315000D02*
X120379300Y-107315000D01*
X120559400Y-107495100D02*
X120992100Y-107495100D01*
X120379300Y-107315000D02*
X120559400Y-107495100D01*
X118998000Y-106045000D02*
X120379300Y-106045000D01*
X120741700Y-106407400D02*
X120916900Y-106407400D01*
X120379300Y-106045000D02*
X120741700Y-106407400D01*
X120429900Y-104724400D02*
X120379300Y-104775000D01*
X120890400Y-104724400D02*
X120429900Y-104724400D01*
X118998000Y-104775000D02*
X120379300Y-104775000D01*
X120868200Y-103505000D02*
X118998000Y-103505000D01*
X118998000Y-102235000D02*
X120379300Y-102235000D01*
X120379300Y-102235000D02*
X120613400Y-102235000D01*
X125090700Y-105676400D02*
X120379300Y-100965000D01*
X125090700Y-106276400D02*
X125090700Y-105676400D01*
X118998000Y-100965000D02*
X120379300Y-100965000D01*
X118998000Y-99695000D02*
X120379300Y-99695000D01*
X120379300Y-99695000D02*
X120560700Y-99695000D01*
X128398000Y-99695000D02*
X126839000Y-99695000D01*
X128398000Y-100965000D02*
X129779300Y-100965000D01*
X129918400Y-100825900D02*
X129779300Y-100965000D01*
X129965800Y-100825900D02*
X129918400Y-100825900D01*
X128398000Y-102235000D02*
X129779300Y-102235000D01*
X129779300Y-102162000D02*
X129779300Y-102235000D01*
X129955100Y-101986200D02*
X129779300Y-102162000D01*
X128398000Y-103505000D02*
X129779300Y-103505000D01*
X129829600Y-103555300D02*
X130478300Y-103555300D01*
X129779300Y-103505000D02*
X129829600Y-103555300D01*
X128398000Y-104775000D02*
X127016700Y-104775000D01*
X127016700Y-107988900D02*
X127016700Y-104775000D01*
X123416000Y-111589600D02*
X127016700Y-107988900D01*
X130120400Y-106386100D02*
X129779300Y-106045000D01*
X131433500Y-106386100D02*
X130120400Y-106386100D01*
X128398000Y-106045000D02*
X129779300Y-106045000D01*
X130545900Y-107315000D02*
X128398000Y-107315000D01*
X132289800Y-109058900D02*
X130545900Y-107315000D01*
X128398000Y-108585000D02*
X129779300Y-108585000D01*
X133550500Y-109740200D02*
X133756600Y-109534100D01*
X130934500Y-109740200D02*
X133550500Y-109740200D01*
X129779300Y-108585000D02*
X130934500Y-109740200D01*
X138048000Y-108585000D02*
X139429300Y-108585000D01*
X134493000Y-121920000D02*
X134493000Y-120675100D01*
X134026100Y-120675100D02*
X134493000Y-120675100D01*
X133248100Y-119897100D02*
X134026100Y-120675100D01*
X133248100Y-118856900D02*
X133248100Y-119897100D01*
X138384500Y-113720500D02*
X133248100Y-118856900D01*
X138638000Y-113720500D02*
X138384500Y-113720500D01*
X139429300Y-112929200D02*
X138638000Y-113720500D01*
X139429300Y-108585000D02*
X139429300Y-112929200D01*
X139937600Y-107823300D02*
X139429300Y-107315000D01*
X139937600Y-113243500D02*
X139937600Y-107823300D01*
X134493000Y-118688100D02*
X139937600Y-113243500D01*
X134493000Y-119380000D02*
X134493000Y-118688100D01*
X138048000Y-107315000D02*
X139429300Y-107315000D01*
X137033000Y-121920000D02*
X137033000Y-120675100D01*
X138048000Y-106045000D02*
X139429300Y-106045000D01*
X140445900Y-107061600D02*
X139429300Y-106045000D01*
X140445900Y-113497600D02*
X140445900Y-107061600D01*
X135763000Y-118180500D02*
X140445900Y-113497600D01*
X135763000Y-119871900D02*
X135763000Y-118180500D01*
X136566200Y-120675100D02*
X135763000Y-119871900D01*
X137033000Y-120675100D02*
X136566200Y-120675100D01*
X138048000Y-104775000D02*
X139429300Y-104775000D01*
X137033000Y-119380000D02*
X137033000Y-118135100D01*
X140954200Y-106299900D02*
X139429300Y-104775000D01*
X140954200Y-113918500D02*
X140954200Y-106299900D01*
X137033000Y-117839700D02*
X140954200Y-113918500D01*
X137033000Y-118135100D02*
X137033000Y-117839700D01*
X139882700Y-103958400D02*
X139429300Y-103505000D01*
X140517800Y-103958400D02*
X139882700Y-103958400D01*
X138048000Y-103505000D02*
X139429300Y-103505000D01*
X138048000Y-102235000D02*
X139429300Y-102235000D01*
X139514000Y-102319700D02*
X139607000Y-102319700D01*
X139429300Y-102235000D02*
X139514000Y-102319700D01*
X142113000Y-121920000D02*
X142113000Y-120675100D01*
X138048000Y-100965000D02*
X139429300Y-100965000D01*
X141462500Y-102998200D02*
X139429300Y-100965000D01*
X141462500Y-114129000D02*
X141462500Y-102998200D01*
X140868000Y-114723500D02*
X141462500Y-114129000D01*
X140868000Y-119896900D02*
X140868000Y-114723500D01*
X141646200Y-120675100D02*
X140868000Y-119896900D01*
X142113000Y-120675100D02*
X141646200Y-120675100D01*
X138048000Y-99695000D02*
X139429300Y-99695000D01*
X141992100Y-118014200D02*
X142113000Y-118135100D01*
X141992100Y-102257800D02*
X141992100Y-118014200D01*
X139429300Y-99695000D02*
X141992100Y-102257800D01*
X142113000Y-119380000D02*
X142113000Y-118135100D01*
X144653000Y-121920000D02*
X144653000Y-120675100D01*
X147448000Y-99695000D02*
X146066700Y-99695000D01*
X144186200Y-120675100D02*
X144653000Y-120675100D01*
X143383000Y-119871900D02*
X144186200Y-120675100D01*
X143383000Y-115518700D02*
X143383000Y-119871900D01*
X142500400Y-114636100D02*
X143383000Y-115518700D01*
X142500400Y-103261300D02*
X142500400Y-114636100D01*
X146066700Y-99695000D02*
X142500400Y-103261300D01*
X144653000Y-119380000D02*
X144653000Y-118135100D01*
X147448000Y-100965000D02*
X146066700Y-100965000D01*
X144653000Y-116069800D02*
X144653000Y-118135100D01*
X143008700Y-114425500D02*
X144653000Y-116069800D01*
X143008700Y-104023000D02*
X143008700Y-114425500D01*
X146066700Y-100965000D02*
X143008700Y-104023000D01*
X147193000Y-121920000D02*
X147193000Y-120675100D01*
X147448000Y-102235000D02*
X146066700Y-102235000D01*
X146726100Y-120675100D02*
X147193000Y-120675100D01*
X145948100Y-119897100D02*
X146726100Y-120675100D01*
X145948100Y-116622500D02*
X145948100Y-119897100D01*
X143517000Y-114191400D02*
X145948100Y-116622500D01*
X143517000Y-104784700D02*
X143517000Y-114191400D01*
X146066700Y-102235000D02*
X143517000Y-104784700D01*
X144025400Y-105546300D02*
X146066700Y-103505000D01*
X144025400Y-113980800D02*
X144025400Y-105546300D01*
X147193000Y-117148400D02*
X144025400Y-113980800D01*
X147193000Y-119380000D02*
X147193000Y-117148400D01*
X147448000Y-103505000D02*
X146066700Y-103505000D01*
X147448000Y-104775000D02*
X148829300Y-104775000D01*
X148944000Y-104889700D02*
X148829300Y-104775000D01*
X149013400Y-104889700D02*
X148944000Y-104889700D01*
X147448000Y-106045000D02*
X146066700Y-106045000D01*
X149733000Y-119380000D02*
X149733000Y-118135100D01*
X149192600Y-118135100D02*
X149733000Y-118135100D01*
X144541800Y-113484300D02*
X149192600Y-118135100D01*
X144541800Y-107569900D02*
X144541800Y-113484300D01*
X146066700Y-106045000D02*
X144541800Y-107569900D01*
X152273000Y-121920000D02*
X152273000Y-120675100D01*
X147448000Y-107315000D02*
X146066700Y-107315000D01*
X151806100Y-120675100D02*
X152273000Y-120675100D01*
X151028100Y-119897100D02*
X151806100Y-120675100D01*
X151028100Y-118701500D02*
X151028100Y-119897100D01*
X148023900Y-115697300D02*
X151028100Y-118701500D01*
X147473600Y-115697300D02*
X148023900Y-115697300D01*
X145050100Y-113273800D02*
X147473600Y-115697300D01*
X145050100Y-108331600D02*
X145050100Y-113273800D01*
X146066700Y-107315000D02*
X145050100Y-108331600D01*
X147448000Y-108585000D02*
X146066700Y-108585000D01*
X152273000Y-119380000D02*
X152273000Y-118135100D01*
X149326900Y-115189000D02*
X152273000Y-118135100D01*
X147684100Y-115189000D02*
X149326900Y-115189000D01*
X145558400Y-113063300D02*
X147684100Y-115189000D01*
X145558400Y-109093300D02*
X145558400Y-113063300D01*
X146066700Y-108585000D02*
X145558400Y-109093300D01*
X157098000Y-108585000D02*
X155716700Y-108585000D01*
X155716700Y-108585000D02*
X155527100Y-108585000D01*
X157098000Y-107315000D02*
X155716700Y-107315000D01*
X155595900Y-107435800D02*
X155541800Y-107435800D01*
X155716700Y-107315000D02*
X155595900Y-107435800D01*
X157098000Y-106045000D02*
X155716700Y-106045000D01*
X155716700Y-106045000D02*
X155530600Y-106045000D01*
X158539800Y-104714500D02*
X158479300Y-104775000D01*
X159525700Y-104714500D02*
X158539800Y-104714500D01*
X157098000Y-104775000D02*
X158479300Y-104775000D01*
X155511000Y-103710700D02*
X155716700Y-103505000D01*
X155382000Y-103710700D02*
X155511000Y-103710700D01*
X157098000Y-103505000D02*
X155716700Y-103505000D01*
X157098000Y-102235000D02*
X158479300Y-102235000D01*
X158717200Y-102235000D02*
X158799500Y-102317300D01*
X158479300Y-102235000D02*
X158717200Y-102235000D01*
X158691900Y-100752400D02*
X158479300Y-100965000D01*
X159286800Y-100752400D02*
X158691900Y-100752400D01*
X157098000Y-100965000D02*
X158479300Y-100965000D01*
X159942300Y-99695000D02*
X157098000Y-99695000D01*
X166498000Y-99695000D02*
X167879300Y-99695000D01*
X167879300Y-99695000D02*
X168057100Y-99872800D01*
X166498000Y-100965000D02*
X165116700Y-100965000D01*
X165116700Y-103844400D02*
X164932100Y-104029000D01*
X165116700Y-100965000D02*
X165116700Y-103844400D01*
X166498000Y-102235000D02*
X167879300Y-102235000D01*
X167907500Y-102263200D02*
X168064800Y-102263200D01*
X167879300Y-102235000D02*
X167907500Y-102263200D01*
X167879300Y-103547300D02*
X168068000Y-103736000D01*
X167879300Y-103505000D02*
X167879300Y-103547300D01*
X166498000Y-103505000D02*
X167879300Y-103505000D01*
X163467500Y-106424200D02*
X165116700Y-104775000D01*
X163467500Y-109755900D02*
X163467500Y-106424200D01*
X166498000Y-104775000D02*
X165116700Y-104775000D01*
X166498000Y-106045000D02*
X167879300Y-106045000D01*
X167975200Y-106140900D02*
X167879300Y-106045000D01*
X168067900Y-106140900D02*
X167975200Y-106140900D01*
X166498000Y-107315000D02*
X167879300Y-107315000D01*
X168167500Y-107603200D02*
X171174100Y-107603200D01*
X167879300Y-107315000D02*
X168167500Y-107603200D01*
X171684000Y-128139100D02*
X170323200Y-128139100D01*
X173888100Y-130343200D02*
X171684000Y-128139100D01*
X173888100Y-130810000D02*
X173888100Y-130343200D01*
X165116700Y-109030200D02*
X165116700Y-108585000D01*
X164973900Y-109173000D02*
X165116700Y-109030200D01*
X166498000Y-108585000D02*
X165116700Y-108585000D01*
X175133000Y-130810000D02*
X173888100Y-130810000D01*
X175121400Y-108585000D02*
X176148000Y-108585000D01*
X170794600Y-112911800D02*
X175121400Y-108585000D01*
X170471400Y-112911800D02*
X170794600Y-112911800D01*
X166217900Y-117165300D02*
X170471400Y-112911800D01*
X166217900Y-119897100D02*
X166217900Y-117165300D01*
X165439900Y-120675100D02*
X166217900Y-119897100D01*
X164973000Y-120675100D02*
X165439900Y-120675100D01*
X164973000Y-121920000D02*
X164973000Y-120675100D01*
X176148000Y-107315000D02*
X174766700Y-107315000D01*
X164973000Y-119380000D02*
X164973000Y-118135100D01*
X164973000Y-117640200D02*
X164973000Y-118135100D01*
X170209700Y-112403500D02*
X164973000Y-117640200D01*
X170456000Y-112403500D02*
X170209700Y-112403500D01*
X174766700Y-108092800D02*
X170456000Y-112403500D01*
X174766700Y-107315000D02*
X174766700Y-108092800D01*
X177529300Y-112854500D02*
X177529300Y-106045000D01*
X177292400Y-113091400D02*
X177529300Y-112854500D01*
X174537200Y-113091400D02*
X177292400Y-113091400D01*
X168757900Y-118870700D02*
X174537200Y-113091400D01*
X168757900Y-119897100D02*
X168757900Y-118870700D01*
X167979900Y-120675100D02*
X168757900Y-119897100D01*
X167513000Y-120675100D02*
X167979900Y-120675100D01*
X167513000Y-121920000D02*
X167513000Y-120675100D01*
X176148000Y-106045000D02*
X177529300Y-106045000D01*
X176148000Y-104775000D02*
X174766700Y-104775000D01*
X170833500Y-108911900D02*
X168074700Y-108911900D01*
X174766700Y-104978700D02*
X170833500Y-108911900D01*
X174766700Y-104775000D02*
X174766700Y-104978700D01*
X173806500Y-103505000D02*
X170760000Y-106551500D01*
X176148000Y-103505000D02*
X173806500Y-103505000D01*
X176148000Y-102235000D02*
X177529300Y-102235000D01*
X170053000Y-119380000D02*
X171297900Y-119380000D01*
X178037600Y-102743300D02*
X177529300Y-102235000D01*
X178037600Y-113072700D02*
X178037600Y-102743300D01*
X177256400Y-113853900D02*
X178037600Y-113072700D01*
X176308200Y-113853900D02*
X177256400Y-113853900D01*
X171297900Y-118864200D02*
X176308200Y-113853900D01*
X171297900Y-119380000D02*
X171297900Y-118864200D01*
X174591700Y-101140000D02*
X174766700Y-100965000D01*
X173392100Y-101140000D02*
X174591700Y-101140000D01*
X176148000Y-100965000D02*
X174766700Y-100965000D01*
X176148000Y-99695000D02*
X177529300Y-99695000D01*
X172593000Y-119236700D02*
X172593000Y-119380000D01*
X178596000Y-113233700D02*
X172593000Y-119236700D01*
X178596000Y-100761700D02*
X178596000Y-113233700D01*
X177529300Y-99695000D02*
X178596000Y-100761700D01*
X187450000Y-100215700D02*
X186929300Y-99695000D01*
X187450000Y-119029700D02*
X187450000Y-100215700D01*
X183296200Y-123183500D02*
X187450000Y-119029700D01*
X177174600Y-123183500D02*
X183296200Y-123183500D01*
X176377900Y-122386800D02*
X177174600Y-123183500D01*
X176377900Y-121920000D02*
X176377900Y-122386800D01*
X175133000Y-121920000D02*
X176377900Y-121920000D01*
X185548000Y-99695000D02*
X186929300Y-99695000D01*
X175133000Y-119380000D02*
X175133000Y-118135100D01*
X185548000Y-100965000D02*
X184166700Y-100965000D01*
X175133000Y-118134300D02*
X175133000Y-118135100D01*
X179866800Y-113400500D02*
X175133000Y-118134300D01*
X179866800Y-105264900D02*
X179866800Y-113400500D01*
X184166700Y-100965000D02*
X179866800Y-105264900D01*
X177673000Y-121920000D02*
X177673000Y-120675100D01*
X185548000Y-102235000D02*
X184166700Y-102235000D01*
X177206200Y-120675100D02*
X177673000Y-120675100D01*
X176403000Y-119871900D02*
X177206200Y-120675100D01*
X176403000Y-117583100D02*
X176403000Y-119871900D01*
X180629200Y-113356900D02*
X176403000Y-117583100D01*
X180629200Y-105772500D02*
X180629200Y-113356900D01*
X184166700Y-102235000D02*
X180629200Y-105772500D01*
X185548000Y-103505000D02*
X184166700Y-103505000D01*
X177673000Y-117750700D02*
X177673000Y-119380000D01*
X181137500Y-114286200D02*
X177673000Y-117750700D01*
X181137500Y-106534200D02*
X181137500Y-114286200D01*
X184166700Y-103505000D02*
X181137500Y-106534200D01*
X180213000Y-121920000D02*
X180213000Y-120675100D01*
X185548000Y-104775000D02*
X184166700Y-104775000D01*
X179746200Y-120675100D02*
X180213000Y-120675100D01*
X178943000Y-119871900D02*
X179746200Y-120675100D01*
X178943000Y-117199500D02*
X178943000Y-119871900D01*
X181645800Y-114496700D02*
X178943000Y-117199500D01*
X181645800Y-107295900D02*
X181645800Y-114496700D01*
X184166700Y-104775000D02*
X181645800Y-107295900D01*
X182228400Y-107983300D02*
X184166700Y-106045000D01*
X182228400Y-116119700D02*
X182228400Y-107983300D01*
X180213000Y-118135100D02*
X182228400Y-116119700D01*
X180213000Y-119380000D02*
X180213000Y-118135100D01*
X185548000Y-106045000D02*
X184166700Y-106045000D01*
X186929300Y-116965600D02*
X186929300Y-107315000D01*
X183219800Y-120675100D02*
X186929300Y-116965600D01*
X182753000Y-120675100D02*
X183219800Y-120675100D01*
X182753000Y-121920000D02*
X182753000Y-120675100D01*
X185548000Y-107315000D02*
X186929300Y-107315000D01*
X185548000Y-108585000D02*
X184166700Y-108585000D01*
X182753000Y-119380000D02*
X182753000Y-118135100D01*
X182753000Y-109846500D02*
X182753000Y-118135100D01*
X184014500Y-108585000D02*
X182753000Y-109846500D01*
X184166700Y-108585000D02*
X184014500Y-108585000D01*
X31308000Y-107744400D02*
X32520400Y-106532000D01*
X31308000Y-109623900D02*
X31308000Y-107744400D01*
X39878000Y-83345000D02*
X39878000Y-84501300D01*
X37627600Y-84501300D02*
X39878000Y-84501300D01*
X37147000Y-84981900D02*
X37627600Y-84501300D01*
X40768000Y-102235000D02*
X39386700Y-102235000D01*
X39386700Y-102058600D02*
X39186900Y-101858800D01*
X39386700Y-102235000D02*
X39386700Y-102058600D01*
X32258000Y-108490000D02*
X32967200Y-107780800D01*
X32258000Y-112626100D02*
X32258000Y-108490000D01*
X33776800Y-79101300D02*
X33528000Y-79101300D01*
X34446600Y-79771100D02*
X33776800Y-79101300D01*
X33528000Y-77945000D02*
X33528000Y-79101300D01*
X42418000Y-83345000D02*
X42418000Y-84501300D01*
X34798000Y-77945000D02*
X34798000Y-76788700D01*
X41255800Y-85663500D02*
X42418000Y-84501300D01*
X30656800Y-85663500D02*
X41255800Y-85663500D01*
X29788900Y-84795600D02*
X30656800Y-85663500D01*
X29788900Y-77470100D02*
X29788900Y-84795600D01*
X30470300Y-76788700D02*
X29788900Y-77470100D01*
X34798000Y-76788700D02*
X30470300Y-76788700D01*
X41148000Y-83345000D02*
X41148000Y-82188700D01*
X38608000Y-82994500D02*
X38608000Y-83345000D01*
X39413800Y-82188700D02*
X38608000Y-82994500D01*
X41148000Y-82188700D02*
X39413800Y-82188700D01*
X30988000Y-77945000D02*
X30988000Y-78523100D01*
X30988000Y-78523100D02*
X30988000Y-79101300D01*
X31566200Y-79101300D02*
X32258000Y-79101300D01*
X30988000Y-78523100D02*
X31566200Y-79101300D01*
X32258000Y-77945000D02*
X32258000Y-79101300D01*
X37746900Y-83345000D02*
X38608000Y-83345000D01*
X36078500Y-85013400D02*
X37746900Y-83345000D01*
X30731900Y-85013400D02*
X36078500Y-85013400D01*
X30306700Y-84588200D02*
X30731900Y-85013400D01*
X30306700Y-79782600D02*
X30306700Y-84588200D01*
X30988000Y-79101300D02*
X30306700Y-79782600D01*
M02*
