G04 #@! TF.FileFunction,Legend,Top*
%FSLAX46Y46*%
G04 Gerber Fmt 4.6, Leading zero omitted, Abs format (unit mm)*
G04 Created by KiCad (PCBNEW 4.0.1-stable) date 2016-05-03 14:33:49*
%MOMM*%
G01*
G04 APERTURE LIST*
%ADD10C,0.100000*%
%ADD11C,0.150000*%
G04 APERTURE END LIST*
D10*
D11*
X94488000Y-120015000D02*
X28448000Y-120015000D01*
X93218000Y-66675000D02*
X28448000Y-66675000D01*
X94488000Y-67945000D02*
X93218000Y-66675000D01*
X94488000Y-79375000D02*
X94488000Y-67945000D01*
X97028000Y-81915000D02*
X94488000Y-79375000D01*
X97028000Y-114935000D02*
X97028000Y-81915000D01*
X94488000Y-117475000D02*
X97028000Y-114935000D01*
X94488000Y-120015000D02*
X94488000Y-117475000D01*
X56840381Y-114649285D02*
X56840381Y-115220714D01*
X56840381Y-114935000D02*
X55840381Y-114935000D01*
X55983238Y-115030238D01*
X56078476Y-115125476D01*
X56126095Y-115220714D01*
X57658000Y-118745000D02*
X75438000Y-118745000D01*
X75438000Y-118745000D02*
X75438000Y-116205000D01*
X75438000Y-116205000D02*
X57658000Y-116205000D01*
X54838000Y-119025000D02*
X56388000Y-119025000D01*
X57658000Y-118745000D02*
X57658000Y-116205000D01*
X56388000Y-115925000D02*
X54838000Y-115925000D01*
X54838000Y-115925000D02*
X54838000Y-119025000D01*
X80518000Y-118745000D02*
X93218000Y-118745000D01*
X93218000Y-118745000D02*
X93218000Y-116205000D01*
X93218000Y-116205000D02*
X80518000Y-116205000D01*
X77698000Y-119025000D02*
X79248000Y-119025000D01*
X80518000Y-118745000D02*
X80518000Y-116205000D01*
X79248000Y-115925000D02*
X77698000Y-115925000D01*
X77698000Y-115925000D02*
X77698000Y-119025000D01*
X48514000Y-70485000D02*
X71374000Y-70485000D01*
X71374000Y-70485000D02*
X71374000Y-67945000D01*
X71374000Y-67945000D02*
X48514000Y-67945000D01*
X45694000Y-70765000D02*
X47244000Y-70765000D01*
X48514000Y-70485000D02*
X48514000Y-67945000D01*
X47244000Y-67665000D02*
X45694000Y-67665000D01*
X45694000Y-67665000D02*
X45694000Y-70765000D01*
X75438000Y-70485000D02*
X93218000Y-70485000D01*
X93218000Y-70485000D02*
X93218000Y-67945000D01*
X93218000Y-67945000D02*
X75438000Y-67945000D01*
X72618000Y-70765000D02*
X74168000Y-70765000D01*
X75438000Y-70485000D02*
X75438000Y-67945000D01*
X74168000Y-67665000D02*
X72618000Y-67665000D01*
X72618000Y-67665000D02*
X72618000Y-70765000D01*
X44704000Y-117475000D02*
G75*
G03X44704000Y-117475000I-2286000J0D01*
G01*
X96774000Y-112395000D02*
G75*
G03X96774000Y-112395000I-2286000J0D01*
G01*
X45974000Y-69215000D02*
G75*
G03X45974000Y-69215000I-2286000J0D01*
G01*
X96774000Y-84455000D02*
G75*
G03X96774000Y-84455000I-2286000J0D01*
G01*
X51308000Y-51435000D02*
X30988000Y-51435000D01*
X33528000Y-46355000D02*
X51308000Y-46355000D01*
X51308000Y-51435000D02*
X51308000Y-46355000D01*
X30988000Y-51435000D02*
X30988000Y-48895000D01*
X32258000Y-46075000D02*
X30708000Y-46075000D01*
X30988000Y-48895000D02*
X33528000Y-48895000D01*
X33528000Y-48895000D02*
X33528000Y-46355000D01*
X30708000Y-46075000D02*
X30708000Y-47625000D01*
X79248000Y-51435000D02*
X58928000Y-51435000D01*
X61468000Y-46355000D02*
X79248000Y-46355000D01*
X79248000Y-51435000D02*
X79248000Y-46355000D01*
X58928000Y-51435000D02*
X58928000Y-48895000D01*
X60198000Y-46075000D02*
X58648000Y-46075000D01*
X58928000Y-48895000D02*
X61468000Y-48895000D01*
X61468000Y-48895000D02*
X61468000Y-46355000D01*
X58648000Y-46075000D02*
X58648000Y-47625000D01*
X30988000Y-135255000D02*
X51308000Y-135255000D01*
X48768000Y-140335000D02*
X30988000Y-140335000D01*
X30988000Y-135255000D02*
X30988000Y-140335000D01*
X51308000Y-135255000D02*
X51308000Y-137795000D01*
X50038000Y-140615000D02*
X51588000Y-140615000D01*
X51308000Y-137795000D02*
X48768000Y-137795000D01*
X48768000Y-137795000D02*
X48768000Y-140335000D01*
X51588000Y-140615000D02*
X51588000Y-139065000D01*
X54313000Y-76800000D02*
X54313000Y-76945000D01*
X58463000Y-76800000D02*
X58463000Y-76945000D01*
X58463000Y-81950000D02*
X58463000Y-81805000D01*
X54313000Y-81950000D02*
X54313000Y-81805000D01*
X54313000Y-76800000D02*
X58463000Y-76800000D01*
X54313000Y-81950000D02*
X58463000Y-81950000D01*
X54313000Y-76945000D02*
X52913000Y-76945000D01*
X58928000Y-135255000D02*
X79248000Y-135255000D01*
X76708000Y-140335000D02*
X58928000Y-140335000D01*
X58928000Y-135255000D02*
X58928000Y-140335000D01*
X79248000Y-135255000D02*
X79248000Y-137795000D01*
X77978000Y-140615000D02*
X79528000Y-140615000D01*
X79248000Y-137795000D02*
X76708000Y-137795000D01*
X76708000Y-137795000D02*
X76708000Y-140335000D01*
X79528000Y-140615000D02*
X79528000Y-139065000D01*
X78233000Y-122490000D02*
X77868000Y-122490000D01*
X78233000Y-130240000D02*
X77868000Y-130240000D01*
X62483000Y-130240000D02*
X62848000Y-130240000D01*
X62483000Y-122490000D02*
X62848000Y-122490000D01*
X78233000Y-122490000D02*
X78233000Y-130240000D01*
X62483000Y-122490000D02*
X62483000Y-130240000D01*
X77868000Y-122490000D02*
X77868000Y-120665000D01*
X42883000Y-76800000D02*
X42883000Y-76945000D01*
X47033000Y-76800000D02*
X47033000Y-76945000D01*
X47033000Y-81950000D02*
X47033000Y-81805000D01*
X42883000Y-81950000D02*
X42883000Y-81805000D01*
X42883000Y-76800000D02*
X47033000Y-76800000D01*
X42883000Y-81950000D02*
X47033000Y-81950000D01*
X42883000Y-76945000D02*
X41483000Y-76945000D01*
X66483000Y-95630000D02*
X66483000Y-95995000D01*
X74233000Y-95630000D02*
X74233000Y-95995000D01*
X74233000Y-111380000D02*
X74233000Y-111015000D01*
X66483000Y-111380000D02*
X66483000Y-111015000D01*
X66483000Y-95630000D02*
X74233000Y-95630000D01*
X66483000Y-111380000D02*
X74233000Y-111380000D01*
X66483000Y-95995000D02*
X64658000Y-95995000D01*
X55373000Y-56450000D02*
X55008000Y-56450000D01*
X55373000Y-64200000D02*
X55008000Y-64200000D01*
X39623000Y-64200000D02*
X39988000Y-64200000D01*
X39623000Y-56450000D02*
X39988000Y-56450000D01*
X55373000Y-56450000D02*
X55373000Y-64200000D01*
X39623000Y-56450000D02*
X39623000Y-64200000D01*
X55008000Y-56450000D02*
X55008000Y-54625000D01*
X78233000Y-56450000D02*
X77868000Y-56450000D01*
X78233000Y-64200000D02*
X77868000Y-64200000D01*
X62483000Y-64200000D02*
X62848000Y-64200000D01*
X62483000Y-56450000D02*
X62848000Y-56450000D01*
X78233000Y-56450000D02*
X78233000Y-64200000D01*
X62483000Y-56450000D02*
X62483000Y-64200000D01*
X77868000Y-56450000D02*
X77868000Y-54625000D01*
X55373000Y-122490000D02*
X55008000Y-122490000D01*
X55373000Y-130240000D02*
X55008000Y-130240000D01*
X39623000Y-130240000D02*
X39988000Y-130240000D01*
X39623000Y-122490000D02*
X39988000Y-122490000D01*
X55373000Y-122490000D02*
X55373000Y-130240000D01*
X39623000Y-122490000D02*
X39623000Y-130240000D01*
X55008000Y-122490000D02*
X55008000Y-120665000D01*
X34798000Y-106045000D02*
X34798000Y-93345000D01*
X34798000Y-93345000D02*
X29718000Y-93345000D01*
X29718000Y-93345000D02*
X29718000Y-103505000D01*
X34798000Y-106045000D02*
X32258000Y-106045000D01*
X29438000Y-104775000D02*
X29438000Y-106325000D01*
X32258000Y-106045000D02*
X32258000Y-103505000D01*
X32258000Y-103505000D02*
X29718000Y-103505000D01*
X29438000Y-106325000D02*
X30988000Y-106325000D01*
X102108000Y-66675000D02*
X102108000Y-46355000D01*
X107188000Y-48895000D02*
X107188000Y-66675000D01*
X102108000Y-66675000D02*
X107188000Y-66675000D01*
X102108000Y-46355000D02*
X104648000Y-46355000D01*
X107468000Y-47625000D02*
X107468000Y-46075000D01*
X104648000Y-46355000D02*
X104648000Y-48895000D01*
X104648000Y-48895000D02*
X107188000Y-48895000D01*
X107468000Y-46075000D02*
X105918000Y-46075000D01*
X102108000Y-89535000D02*
X102108000Y-69215000D01*
X107188000Y-71755000D02*
X107188000Y-89535000D01*
X102108000Y-89535000D02*
X107188000Y-89535000D01*
X102108000Y-69215000D02*
X104648000Y-69215000D01*
X107468000Y-70485000D02*
X107468000Y-68935000D01*
X104648000Y-69215000D02*
X104648000Y-71755000D01*
X104648000Y-71755000D02*
X107188000Y-71755000D01*
X107468000Y-68935000D02*
X105918000Y-68935000D01*
X102108000Y-114935000D02*
X102108000Y-94615000D01*
X107188000Y-97155000D02*
X107188000Y-114935000D01*
X102108000Y-114935000D02*
X107188000Y-114935000D01*
X102108000Y-94615000D02*
X104648000Y-94615000D01*
X107468000Y-95885000D02*
X107468000Y-94335000D01*
X104648000Y-94615000D02*
X104648000Y-97155000D01*
X104648000Y-97155000D02*
X107188000Y-97155000D01*
X107468000Y-94335000D02*
X105918000Y-94335000D01*
X102108000Y-140335000D02*
X102108000Y-120015000D01*
X107188000Y-122555000D02*
X107188000Y-140335000D01*
X102108000Y-140335000D02*
X107188000Y-140335000D01*
X102108000Y-120015000D02*
X104648000Y-120015000D01*
X107468000Y-121285000D02*
X107468000Y-119735000D01*
X104648000Y-120015000D02*
X104648000Y-122555000D01*
X104648000Y-122555000D02*
X107188000Y-122555000D01*
X107468000Y-119735000D02*
X105918000Y-119735000D01*
X98553000Y-56450000D02*
X98188000Y-56450000D01*
X98553000Y-64200000D02*
X98188000Y-64200000D01*
X82803000Y-64200000D02*
X83168000Y-64200000D01*
X82803000Y-56450000D02*
X83168000Y-56450000D01*
X98553000Y-56450000D02*
X98553000Y-64200000D01*
X82803000Y-56450000D02*
X82803000Y-64200000D01*
X98188000Y-56450000D02*
X98188000Y-54625000D01*
X89663000Y-78040000D02*
X89298000Y-78040000D01*
X89663000Y-85790000D02*
X89298000Y-85790000D01*
X73913000Y-85790000D02*
X74278000Y-85790000D01*
X73913000Y-78040000D02*
X74278000Y-78040000D01*
X89663000Y-78040000D02*
X89663000Y-85790000D01*
X73913000Y-78040000D02*
X73913000Y-85790000D01*
X89298000Y-78040000D02*
X89298000Y-76215000D01*
X96013000Y-98360000D02*
X95648000Y-98360000D01*
X96013000Y-106110000D02*
X95648000Y-106110000D01*
X80263000Y-106110000D02*
X80628000Y-106110000D01*
X80263000Y-98360000D02*
X80628000Y-98360000D01*
X96013000Y-98360000D02*
X96013000Y-106110000D01*
X80263000Y-98360000D02*
X80263000Y-106110000D01*
X95648000Y-98360000D02*
X95648000Y-96535000D01*
X98553000Y-122490000D02*
X98188000Y-122490000D01*
X98553000Y-130240000D02*
X98188000Y-130240000D01*
X82803000Y-130240000D02*
X83168000Y-130240000D01*
X82803000Y-122490000D02*
X83168000Y-122490000D01*
X98553000Y-122490000D02*
X98553000Y-130240000D01*
X82803000Y-122490000D02*
X82803000Y-130240000D01*
X98188000Y-122490000D02*
X98188000Y-120665000D01*
X31158000Y-78655000D02*
X33058000Y-78655000D01*
X31158000Y-77555000D02*
X33058000Y-77555000D01*
X32058000Y-78105000D02*
X32508000Y-78105000D01*
X32008000Y-77855000D02*
X32008000Y-78355000D01*
X32008000Y-78105000D02*
X32258000Y-77855000D01*
X32258000Y-77855000D02*
X32258000Y-78355000D01*
X32258000Y-78355000D02*
X32008000Y-78105000D01*
X66777820Y-79324200D02*
X66777820Y-80025240D01*
X66777820Y-80025240D02*
X66528900Y-80025240D01*
X63978840Y-80025240D02*
X63778180Y-80025240D01*
X63778180Y-80025240D02*
X63778180Y-79324200D01*
X37838000Y-78780000D02*
X36838000Y-78780000D01*
X36838000Y-77430000D02*
X37838000Y-77430000D01*
X37838000Y-82590000D02*
X36838000Y-82590000D01*
X36838000Y-81240000D02*
X37838000Y-81240000D01*
X30528000Y-68755000D02*
X30728000Y-68755000D01*
X36528000Y-68755000D02*
X36328000Y-68755000D01*
X36528000Y-74755000D02*
X36328000Y-74755000D01*
X30528000Y-74755000D02*
X30728000Y-74755000D01*
X32328000Y-74755000D02*
X34728000Y-74755000D01*
X32328000Y-68755000D02*
X34728000Y-68755000D01*
X30528000Y-68755000D02*
X30528000Y-74755000D01*
X36528000Y-74755000D02*
X36528000Y-68755000D01*
X35228000Y-71755000D02*
G75*
G03X35228000Y-71755000I-1700000J0D01*
G01*
X55788000Y-91155000D02*
X55788000Y-90455000D01*
X56988000Y-90455000D02*
X56988000Y-91155000D01*
X45628000Y-91155000D02*
X45628000Y-90455000D01*
X46828000Y-90455000D02*
X46828000Y-91155000D01*
X31158000Y-82465000D02*
X33058000Y-82465000D01*
X31158000Y-81365000D02*
X33058000Y-81365000D01*
X32058000Y-81915000D02*
X32508000Y-81915000D01*
X32008000Y-81665000D02*
X32008000Y-82165000D01*
X32008000Y-81915000D02*
X32258000Y-81665000D01*
X32258000Y-81665000D02*
X32258000Y-82165000D01*
X32258000Y-82165000D02*
X32008000Y-81915000D01*
X31158000Y-86275000D02*
X33058000Y-86275000D01*
X31158000Y-85175000D02*
X33058000Y-85175000D01*
X32058000Y-85725000D02*
X32508000Y-85725000D01*
X32008000Y-85475000D02*
X32008000Y-85975000D01*
X32008000Y-85725000D02*
X32258000Y-85475000D01*
X32258000Y-85475000D02*
X32258000Y-85975000D01*
X32258000Y-85975000D02*
X32008000Y-85725000D01*
X31158000Y-90085000D02*
X33058000Y-90085000D01*
X31158000Y-88985000D02*
X33058000Y-88985000D01*
X32058000Y-89535000D02*
X32508000Y-89535000D01*
X32008000Y-89285000D02*
X32008000Y-89785000D01*
X32008000Y-89535000D02*
X32258000Y-89285000D01*
X32258000Y-89285000D02*
X32258000Y-89785000D01*
X32258000Y-89785000D02*
X32008000Y-89535000D01*
X30028000Y-58995000D02*
X37028000Y-58995000D01*
X30028000Y-64195000D02*
X37028000Y-64195000D01*
X37028000Y-64195000D02*
X37028000Y-63195000D01*
X30028000Y-122495000D02*
X37028000Y-122495000D01*
X30028000Y-127695000D02*
X37028000Y-127695000D01*
X37028000Y-127695000D02*
X37028000Y-126695000D01*
X28440540Y-109314100D02*
X28440540Y-118014100D01*
X34845540Y-109314100D02*
X34845540Y-118014100D01*
X34845540Y-118014100D02*
X28440540Y-118014100D01*
X29670540Y-118014100D02*
X29670540Y-109314100D01*
X28440540Y-109314100D02*
X34845540Y-109314100D01*
X124968000Y-66675000D02*
X124968000Y-46355000D01*
X130048000Y-48895000D02*
X130048000Y-66675000D01*
X124968000Y-66675000D02*
X130048000Y-66675000D01*
X124968000Y-46355000D02*
X127508000Y-46355000D01*
X130328000Y-47625000D02*
X130328000Y-46075000D01*
X127508000Y-46355000D02*
X127508000Y-48895000D01*
X127508000Y-48895000D02*
X130048000Y-48895000D01*
X130328000Y-46075000D02*
X128778000Y-46075000D01*
X124968000Y-89535000D02*
X124968000Y-69215000D01*
X130048000Y-71755000D02*
X130048000Y-89535000D01*
X124968000Y-89535000D02*
X130048000Y-89535000D01*
X124968000Y-69215000D02*
X127508000Y-69215000D01*
X130328000Y-70485000D02*
X130328000Y-68935000D01*
X127508000Y-69215000D02*
X127508000Y-71755000D01*
X127508000Y-71755000D02*
X130048000Y-71755000D01*
X130328000Y-68935000D02*
X128778000Y-68935000D01*
X124968000Y-114935000D02*
X124968000Y-94615000D01*
X130048000Y-97155000D02*
X130048000Y-114935000D01*
X124968000Y-114935000D02*
X130048000Y-114935000D01*
X124968000Y-94615000D02*
X127508000Y-94615000D01*
X130328000Y-95885000D02*
X130328000Y-94335000D01*
X127508000Y-94615000D02*
X127508000Y-97155000D01*
X127508000Y-97155000D02*
X130048000Y-97155000D01*
X130328000Y-94335000D02*
X128778000Y-94335000D01*
X124968000Y-140335000D02*
X124968000Y-120015000D01*
X130048000Y-122555000D02*
X130048000Y-140335000D01*
X124968000Y-140335000D02*
X130048000Y-140335000D01*
X124968000Y-120015000D02*
X127508000Y-120015000D01*
X130328000Y-121285000D02*
X130328000Y-119735000D01*
X127508000Y-120015000D02*
X127508000Y-122555000D01*
X127508000Y-122555000D02*
X130048000Y-122555000D01*
X130328000Y-119735000D02*
X128778000Y-119735000D01*
X147828000Y-66675000D02*
X147828000Y-46355000D01*
X152908000Y-48895000D02*
X152908000Y-66675000D01*
X147828000Y-66675000D02*
X152908000Y-66675000D01*
X147828000Y-46355000D02*
X150368000Y-46355000D01*
X153188000Y-47625000D02*
X153188000Y-46075000D01*
X150368000Y-46355000D02*
X150368000Y-48895000D01*
X150368000Y-48895000D02*
X152908000Y-48895000D01*
X153188000Y-46075000D02*
X151638000Y-46075000D01*
X147828000Y-89535000D02*
X147828000Y-69215000D01*
X152908000Y-71755000D02*
X152908000Y-89535000D01*
X147828000Y-89535000D02*
X152908000Y-89535000D01*
X147828000Y-69215000D02*
X150368000Y-69215000D01*
X153188000Y-70485000D02*
X153188000Y-68935000D01*
X150368000Y-69215000D02*
X150368000Y-71755000D01*
X150368000Y-71755000D02*
X152908000Y-71755000D01*
X153188000Y-68935000D02*
X151638000Y-68935000D01*
X147828000Y-114935000D02*
X147828000Y-94615000D01*
X152908000Y-97155000D02*
X152908000Y-114935000D01*
X147828000Y-114935000D02*
X152908000Y-114935000D01*
X147828000Y-94615000D02*
X150368000Y-94615000D01*
X153188000Y-95885000D02*
X153188000Y-94335000D01*
X150368000Y-94615000D02*
X150368000Y-97155000D01*
X150368000Y-97155000D02*
X152908000Y-97155000D01*
X153188000Y-94335000D02*
X151638000Y-94335000D01*
X147828000Y-140335000D02*
X147828000Y-120015000D01*
X152908000Y-122555000D02*
X152908000Y-140335000D01*
X147828000Y-140335000D02*
X152908000Y-140335000D01*
X147828000Y-120015000D02*
X150368000Y-120015000D01*
X153188000Y-121285000D02*
X153188000Y-119735000D01*
X150368000Y-120015000D02*
X150368000Y-122555000D01*
X150368000Y-122555000D02*
X152908000Y-122555000D01*
X153188000Y-119735000D02*
X151638000Y-119735000D01*
X67588180Y-88315800D02*
X67588180Y-87614760D01*
X67588180Y-87614760D02*
X67837100Y-87614760D01*
X70387160Y-87614760D02*
X70587820Y-87614760D01*
X70587820Y-87614760D02*
X70587820Y-88315800D01*
X37838000Y-86400000D02*
X36838000Y-86400000D01*
X36838000Y-85050000D02*
X37838000Y-85050000D01*
X37838000Y-90210000D02*
X36838000Y-90210000D01*
X36838000Y-88860000D02*
X37838000Y-88860000D01*
X68413000Y-79875000D02*
X68413000Y-78875000D01*
X69763000Y-78875000D02*
X69763000Y-79875000D01*
X65953000Y-87765000D02*
X65953000Y-88765000D01*
X64603000Y-88765000D02*
X64603000Y-87765000D01*
X46133000Y-98330000D02*
X46133000Y-99005000D01*
X56483000Y-98330000D02*
X56483000Y-99005000D01*
X56483000Y-108680000D02*
X56483000Y-108005000D01*
X46133000Y-108680000D02*
X46133000Y-108005000D01*
X46133000Y-98330000D02*
X46808000Y-98330000D01*
X46133000Y-108680000D02*
X46808000Y-108680000D01*
X56483000Y-108680000D02*
X55808000Y-108680000D01*
X56483000Y-98330000D02*
X55808000Y-98330000D01*
X46133000Y-99005000D02*
X44858000Y-99005000D01*
X97282000Y-79121000D02*
X100330000Y-79121000D01*
X100330000Y-79121000D02*
X100330000Y-72009000D01*
X100330000Y-72009000D02*
X97282000Y-72009000D01*
X94234000Y-79121000D02*
X93472000Y-79121000D01*
X93472000Y-79121000D02*
X91186000Y-77597000D01*
X91186000Y-77597000D02*
X91186000Y-73533000D01*
X91186000Y-73533000D02*
X93472000Y-72009000D01*
X93472000Y-72009000D02*
X94234000Y-72009000D01*
X119953000Y-63120000D02*
X119953000Y-62755000D01*
X112203000Y-63120000D02*
X112203000Y-62755000D01*
X112203000Y-47370000D02*
X112203000Y-47735000D01*
X119953000Y-47370000D02*
X119953000Y-47735000D01*
X119953000Y-63120000D02*
X112203000Y-63120000D01*
X119953000Y-47370000D02*
X112203000Y-47370000D01*
X119953000Y-62755000D02*
X121778000Y-62755000D01*
X119953000Y-85980000D02*
X119953000Y-85615000D01*
X112203000Y-85980000D02*
X112203000Y-85615000D01*
X112203000Y-70230000D02*
X112203000Y-70595000D01*
X119953000Y-70230000D02*
X119953000Y-70595000D01*
X119953000Y-85980000D02*
X112203000Y-85980000D01*
X119953000Y-70230000D02*
X112203000Y-70230000D01*
X119953000Y-85615000D02*
X121778000Y-85615000D01*
X119953000Y-111380000D02*
X119953000Y-111015000D01*
X112203000Y-111380000D02*
X112203000Y-111015000D01*
X112203000Y-95630000D02*
X112203000Y-95995000D01*
X119953000Y-95630000D02*
X119953000Y-95995000D01*
X119953000Y-111380000D02*
X112203000Y-111380000D01*
X119953000Y-95630000D02*
X112203000Y-95630000D01*
X119953000Y-111015000D02*
X121778000Y-111015000D01*
X119953000Y-136780000D02*
X119953000Y-136415000D01*
X112203000Y-136780000D02*
X112203000Y-136415000D01*
X112203000Y-121030000D02*
X112203000Y-121395000D01*
X119953000Y-121030000D02*
X119953000Y-121395000D01*
X119953000Y-136780000D02*
X112203000Y-136780000D01*
X119953000Y-121030000D02*
X112203000Y-121030000D01*
X119953000Y-136415000D02*
X121778000Y-136415000D01*
X142813000Y-63120000D02*
X142813000Y-62755000D01*
X135063000Y-63120000D02*
X135063000Y-62755000D01*
X135063000Y-47370000D02*
X135063000Y-47735000D01*
X142813000Y-47370000D02*
X142813000Y-47735000D01*
X142813000Y-63120000D02*
X135063000Y-63120000D01*
X142813000Y-47370000D02*
X135063000Y-47370000D01*
X142813000Y-62755000D02*
X144638000Y-62755000D01*
X142813000Y-85980000D02*
X142813000Y-85615000D01*
X135063000Y-85980000D02*
X135063000Y-85615000D01*
X135063000Y-70230000D02*
X135063000Y-70595000D01*
X142813000Y-70230000D02*
X142813000Y-70595000D01*
X142813000Y-85980000D02*
X135063000Y-85980000D01*
X142813000Y-70230000D02*
X135063000Y-70230000D01*
X142813000Y-85615000D02*
X144638000Y-85615000D01*
X142813000Y-111380000D02*
X142813000Y-111015000D01*
X135063000Y-111380000D02*
X135063000Y-111015000D01*
X135063000Y-95630000D02*
X135063000Y-95995000D01*
X142813000Y-95630000D02*
X142813000Y-95995000D01*
X142813000Y-111380000D02*
X135063000Y-111380000D01*
X142813000Y-95630000D02*
X135063000Y-95630000D01*
X142813000Y-111015000D02*
X144638000Y-111015000D01*
X142813000Y-136780000D02*
X142813000Y-136415000D01*
X135063000Y-136780000D02*
X135063000Y-136415000D01*
X135063000Y-121030000D02*
X135063000Y-121395000D01*
X142813000Y-121030000D02*
X142813000Y-121395000D01*
X142813000Y-136780000D02*
X135063000Y-136780000D01*
X142813000Y-121030000D02*
X135063000Y-121030000D01*
X142813000Y-136415000D02*
X144638000Y-136415000D01*
X49708000Y-89505000D02*
X52908000Y-89505000D01*
X52908000Y-89505000D02*
X52908000Y-92105000D01*
X52908000Y-92105000D02*
X49708000Y-92105000D01*
X49708000Y-92105000D02*
X49708000Y-89505000D01*
X64539905Y-115387381D02*
X64539905Y-114387381D01*
X64920858Y-114387381D01*
X65016096Y-114435000D01*
X65063715Y-114482619D01*
X65111334Y-114577857D01*
X65111334Y-114720714D01*
X65063715Y-114815952D01*
X65016096Y-114863571D01*
X64920858Y-114911190D01*
X64539905Y-114911190D01*
X66063715Y-115387381D02*
X65492286Y-115387381D01*
X65778000Y-115387381D02*
X65778000Y-114387381D01*
X65682762Y-114530238D01*
X65587524Y-114625476D01*
X65492286Y-114673095D01*
X85113905Y-115387381D02*
X85113905Y-114387381D01*
X85494858Y-114387381D01*
X85590096Y-114435000D01*
X85637715Y-114482619D01*
X85685334Y-114577857D01*
X85685334Y-114720714D01*
X85637715Y-114815952D01*
X85590096Y-114863571D01*
X85494858Y-114911190D01*
X85113905Y-114911190D01*
X86066286Y-114482619D02*
X86113905Y-114435000D01*
X86209143Y-114387381D01*
X86447239Y-114387381D01*
X86542477Y-114435000D01*
X86590096Y-114482619D01*
X86637715Y-114577857D01*
X86637715Y-114673095D01*
X86590096Y-114815952D01*
X86018667Y-115387381D01*
X86637715Y-115387381D01*
X57935905Y-72461381D02*
X57935905Y-71461381D01*
X58316858Y-71461381D01*
X58412096Y-71509000D01*
X58459715Y-71556619D01*
X58507334Y-71651857D01*
X58507334Y-71794714D01*
X58459715Y-71889952D01*
X58412096Y-71937571D01*
X58316858Y-71985190D01*
X57935905Y-71985190D01*
X58840667Y-71461381D02*
X59459715Y-71461381D01*
X59126381Y-71842333D01*
X59269239Y-71842333D01*
X59364477Y-71889952D01*
X59412096Y-71937571D01*
X59459715Y-72032810D01*
X59459715Y-72270905D01*
X59412096Y-72366143D01*
X59364477Y-72413762D01*
X59269239Y-72461381D01*
X58983524Y-72461381D01*
X58888286Y-72413762D01*
X58840667Y-72366143D01*
X82319905Y-72461381D02*
X82319905Y-71461381D01*
X82700858Y-71461381D01*
X82796096Y-71509000D01*
X82843715Y-71556619D01*
X82891334Y-71651857D01*
X82891334Y-71794714D01*
X82843715Y-71889952D01*
X82796096Y-71937571D01*
X82700858Y-71985190D01*
X82319905Y-71985190D01*
X83748477Y-71794714D02*
X83748477Y-72461381D01*
X83510381Y-71413762D02*
X83272286Y-72128048D01*
X83891334Y-72128048D01*
X31043714Y-45537381D02*
X31043714Y-44537381D01*
X31424667Y-44537381D01*
X31519905Y-44585000D01*
X31567524Y-44632619D01*
X31615143Y-44727857D01*
X31615143Y-44870714D01*
X31567524Y-44965952D01*
X31519905Y-45013571D01*
X31424667Y-45061190D01*
X31043714Y-45061190D01*
X32567524Y-45537381D02*
X31996095Y-45537381D01*
X32281809Y-45537381D02*
X32281809Y-44537381D01*
X32186571Y-44680238D01*
X32091333Y-44775476D01*
X31996095Y-44823095D01*
X33519905Y-45537381D02*
X32948476Y-45537381D01*
X33234190Y-45537381D02*
X33234190Y-44537381D01*
X33138952Y-44680238D01*
X33043714Y-44775476D01*
X32948476Y-44823095D01*
X58983714Y-45537381D02*
X58983714Y-44537381D01*
X59364667Y-44537381D01*
X59459905Y-44585000D01*
X59507524Y-44632619D01*
X59555143Y-44727857D01*
X59555143Y-44870714D01*
X59507524Y-44965952D01*
X59459905Y-45013571D01*
X59364667Y-45061190D01*
X58983714Y-45061190D01*
X60507524Y-45537381D02*
X59936095Y-45537381D01*
X60221809Y-45537381D02*
X60221809Y-44537381D01*
X60126571Y-44680238D01*
X60031333Y-44775476D01*
X59936095Y-44823095D01*
X60888476Y-44632619D02*
X60936095Y-44585000D01*
X61031333Y-44537381D01*
X61269429Y-44537381D01*
X61364667Y-44585000D01*
X61412286Y-44632619D01*
X61459905Y-44727857D01*
X61459905Y-44823095D01*
X61412286Y-44965952D01*
X60840857Y-45537381D01*
X61459905Y-45537381D01*
X31043714Y-142057381D02*
X31043714Y-141057381D01*
X31424667Y-141057381D01*
X31519905Y-141105000D01*
X31567524Y-141152619D01*
X31615143Y-141247857D01*
X31615143Y-141390714D01*
X31567524Y-141485952D01*
X31519905Y-141533571D01*
X31424667Y-141581190D01*
X31043714Y-141581190D01*
X32567524Y-142057381D02*
X31996095Y-142057381D01*
X32281809Y-142057381D02*
X32281809Y-141057381D01*
X32186571Y-141200238D01*
X32091333Y-141295476D01*
X31996095Y-141343095D01*
X32900857Y-141057381D02*
X33519905Y-141057381D01*
X33186571Y-141438333D01*
X33329429Y-141438333D01*
X33424667Y-141485952D01*
X33472286Y-141533571D01*
X33519905Y-141628810D01*
X33519905Y-141866905D01*
X33472286Y-141962143D01*
X33424667Y-142009762D01*
X33329429Y-142057381D01*
X33043714Y-142057381D01*
X32948476Y-142009762D01*
X32900857Y-141962143D01*
X55626095Y-75327381D02*
X55626095Y-76136905D01*
X55673714Y-76232143D01*
X55721333Y-76279762D01*
X55816571Y-76327381D01*
X56007048Y-76327381D01*
X56102286Y-76279762D01*
X56149905Y-76232143D01*
X56197524Y-76136905D01*
X56197524Y-75327381D01*
X56626095Y-75422619D02*
X56673714Y-75375000D01*
X56768952Y-75327381D01*
X57007048Y-75327381D01*
X57102286Y-75375000D01*
X57149905Y-75422619D01*
X57197524Y-75517857D01*
X57197524Y-75613095D01*
X57149905Y-75755952D01*
X56578476Y-76327381D01*
X57197524Y-76327381D01*
X58983714Y-142057381D02*
X58983714Y-141057381D01*
X59364667Y-141057381D01*
X59459905Y-141105000D01*
X59507524Y-141152619D01*
X59555143Y-141247857D01*
X59555143Y-141390714D01*
X59507524Y-141485952D01*
X59459905Y-141533571D01*
X59364667Y-141581190D01*
X58983714Y-141581190D01*
X60507524Y-142057381D02*
X59936095Y-142057381D01*
X60221809Y-142057381D02*
X60221809Y-141057381D01*
X60126571Y-141200238D01*
X60031333Y-141295476D01*
X59936095Y-141343095D01*
X61364667Y-141390714D02*
X61364667Y-142057381D01*
X61126571Y-141009762D02*
X60888476Y-141724048D01*
X61507524Y-141724048D01*
X78610381Y-127603095D02*
X79419905Y-127603095D01*
X79515143Y-127555476D01*
X79562762Y-127507857D01*
X79610381Y-127412619D01*
X79610381Y-127222142D01*
X79562762Y-127126904D01*
X79515143Y-127079285D01*
X79419905Y-127031666D01*
X78610381Y-127031666D01*
X79610381Y-126031666D02*
X79610381Y-126603095D01*
X79610381Y-126317381D02*
X78610381Y-126317381D01*
X78753238Y-126412619D01*
X78848476Y-126507857D01*
X78896095Y-126603095D01*
X78943714Y-125174523D02*
X79610381Y-125174523D01*
X78562762Y-125412619D02*
X79277048Y-125650714D01*
X79277048Y-125031666D01*
X44196095Y-75327381D02*
X44196095Y-76136905D01*
X44243714Y-76232143D01*
X44291333Y-76279762D01*
X44386571Y-76327381D01*
X44577048Y-76327381D01*
X44672286Y-76279762D01*
X44719905Y-76232143D01*
X44767524Y-76136905D01*
X44767524Y-75327381D01*
X45148476Y-75327381D02*
X45767524Y-75327381D01*
X45434190Y-75708333D01*
X45577048Y-75708333D01*
X45672286Y-75755952D01*
X45719905Y-75803571D01*
X45767524Y-75898810D01*
X45767524Y-76136905D01*
X45719905Y-76232143D01*
X45672286Y-76279762D01*
X45577048Y-76327381D01*
X45291333Y-76327381D01*
X45196095Y-76279762D01*
X45148476Y-76232143D01*
X69119905Y-94157381D02*
X69119905Y-94966905D01*
X69167524Y-95062143D01*
X69215143Y-95109762D01*
X69310381Y-95157381D01*
X69500858Y-95157381D01*
X69596096Y-95109762D01*
X69643715Y-95062143D01*
X69691334Y-94966905D01*
X69691334Y-94157381D01*
X70691334Y-95157381D02*
X70119905Y-95157381D01*
X70405619Y-95157381D02*
X70405619Y-94157381D01*
X70310381Y-94300238D01*
X70215143Y-94395476D01*
X70119905Y-94443095D01*
X71310381Y-94157381D02*
X71405620Y-94157381D01*
X71500858Y-94205000D01*
X71548477Y-94252619D01*
X71596096Y-94347857D01*
X71643715Y-94538333D01*
X71643715Y-94776429D01*
X71596096Y-94966905D01*
X71548477Y-95062143D01*
X71500858Y-95109762D01*
X71405620Y-95157381D01*
X71310381Y-95157381D01*
X71215143Y-95109762D01*
X71167524Y-95062143D01*
X71119905Y-94966905D01*
X71072286Y-94776429D01*
X71072286Y-94538333D01*
X71119905Y-94347857D01*
X71167524Y-94252619D01*
X71215143Y-94205000D01*
X71310381Y-94157381D01*
X55750381Y-61563095D02*
X56559905Y-61563095D01*
X56655143Y-61515476D01*
X56702762Y-61467857D01*
X56750381Y-61372619D01*
X56750381Y-61182142D01*
X56702762Y-61086904D01*
X56655143Y-61039285D01*
X56559905Y-60991666D01*
X55750381Y-60991666D01*
X56750381Y-59991666D02*
X56750381Y-60563095D01*
X56750381Y-60277381D02*
X55750381Y-60277381D01*
X55893238Y-60372619D01*
X55988476Y-60467857D01*
X56036095Y-60563095D01*
X56750381Y-59039285D02*
X56750381Y-59610714D01*
X56750381Y-59325000D02*
X55750381Y-59325000D01*
X55893238Y-59420238D01*
X55988476Y-59515476D01*
X56036095Y-59610714D01*
X78610381Y-61563095D02*
X79419905Y-61563095D01*
X79515143Y-61515476D01*
X79562762Y-61467857D01*
X79610381Y-61372619D01*
X79610381Y-61182142D01*
X79562762Y-61086904D01*
X79515143Y-61039285D01*
X79419905Y-60991666D01*
X78610381Y-60991666D01*
X79610381Y-59991666D02*
X79610381Y-60563095D01*
X79610381Y-60277381D02*
X78610381Y-60277381D01*
X78753238Y-60372619D01*
X78848476Y-60467857D01*
X78896095Y-60563095D01*
X78705619Y-59610714D02*
X78658000Y-59563095D01*
X78610381Y-59467857D01*
X78610381Y-59229761D01*
X78658000Y-59134523D01*
X78705619Y-59086904D01*
X78800857Y-59039285D01*
X78896095Y-59039285D01*
X79038952Y-59086904D01*
X79610381Y-59658333D01*
X79610381Y-59039285D01*
X55750381Y-127603095D02*
X56559905Y-127603095D01*
X56655143Y-127555476D01*
X56702762Y-127507857D01*
X56750381Y-127412619D01*
X56750381Y-127222142D01*
X56702762Y-127126904D01*
X56655143Y-127079285D01*
X56559905Y-127031666D01*
X55750381Y-127031666D01*
X56750381Y-126031666D02*
X56750381Y-126603095D01*
X56750381Y-126317381D02*
X55750381Y-126317381D01*
X55893238Y-126412619D01*
X55988476Y-126507857D01*
X56036095Y-126603095D01*
X55750381Y-125698333D02*
X55750381Y-125079285D01*
X56131333Y-125412619D01*
X56131333Y-125269761D01*
X56178952Y-125174523D01*
X56226571Y-125126904D01*
X56321810Y-125079285D01*
X56559905Y-125079285D01*
X56655143Y-125126904D01*
X56702762Y-125174523D01*
X56750381Y-125269761D01*
X56750381Y-125555476D01*
X56702762Y-125650714D01*
X56655143Y-125698333D01*
X36520381Y-105513095D02*
X35520381Y-105513095D01*
X35520381Y-105132142D01*
X35568000Y-105036904D01*
X35615619Y-104989285D01*
X35710857Y-104941666D01*
X35853714Y-104941666D01*
X35948952Y-104989285D01*
X35996571Y-105036904D01*
X36044190Y-105132142D01*
X36044190Y-105513095D01*
X36520381Y-104465476D02*
X36520381Y-104275000D01*
X36472762Y-104179761D01*
X36425143Y-104132142D01*
X36282286Y-104036904D01*
X36091810Y-103989285D01*
X35710857Y-103989285D01*
X35615619Y-104036904D01*
X35568000Y-104084523D01*
X35520381Y-104179761D01*
X35520381Y-104370238D01*
X35568000Y-104465476D01*
X35615619Y-104513095D01*
X35710857Y-104560714D01*
X35948952Y-104560714D01*
X36044190Y-104513095D01*
X36091810Y-104465476D01*
X36139429Y-104370238D01*
X36139429Y-104179761D01*
X36091810Y-104084523D01*
X36044190Y-104036904D01*
X35948952Y-103989285D01*
X108910381Y-66619286D02*
X107910381Y-66619286D01*
X107910381Y-66238333D01*
X107958000Y-66143095D01*
X108005619Y-66095476D01*
X108100857Y-66047857D01*
X108243714Y-66047857D01*
X108338952Y-66095476D01*
X108386571Y-66143095D01*
X108434190Y-66238333D01*
X108434190Y-66619286D01*
X108910381Y-65095476D02*
X108910381Y-65666905D01*
X108910381Y-65381191D02*
X107910381Y-65381191D01*
X108053238Y-65476429D01*
X108148476Y-65571667D01*
X108196095Y-65666905D01*
X107910381Y-64190714D02*
X107910381Y-64666905D01*
X108386571Y-64714524D01*
X108338952Y-64666905D01*
X108291333Y-64571667D01*
X108291333Y-64333571D01*
X108338952Y-64238333D01*
X108386571Y-64190714D01*
X108481810Y-64143095D01*
X108719905Y-64143095D01*
X108815143Y-64190714D01*
X108862762Y-64238333D01*
X108910381Y-64333571D01*
X108910381Y-64571667D01*
X108862762Y-64666905D01*
X108815143Y-64714524D01*
X108910381Y-89479286D02*
X107910381Y-89479286D01*
X107910381Y-89098333D01*
X107958000Y-89003095D01*
X108005619Y-88955476D01*
X108100857Y-88907857D01*
X108243714Y-88907857D01*
X108338952Y-88955476D01*
X108386571Y-89003095D01*
X108434190Y-89098333D01*
X108434190Y-89479286D01*
X108910381Y-87955476D02*
X108910381Y-88526905D01*
X108910381Y-88241191D02*
X107910381Y-88241191D01*
X108053238Y-88336429D01*
X108148476Y-88431667D01*
X108196095Y-88526905D01*
X107910381Y-87098333D02*
X107910381Y-87288810D01*
X107958000Y-87384048D01*
X108005619Y-87431667D01*
X108148476Y-87526905D01*
X108338952Y-87574524D01*
X108719905Y-87574524D01*
X108815143Y-87526905D01*
X108862762Y-87479286D01*
X108910381Y-87384048D01*
X108910381Y-87193571D01*
X108862762Y-87098333D01*
X108815143Y-87050714D01*
X108719905Y-87003095D01*
X108481810Y-87003095D01*
X108386571Y-87050714D01*
X108338952Y-87098333D01*
X108291333Y-87193571D01*
X108291333Y-87384048D01*
X108338952Y-87479286D01*
X108386571Y-87526905D01*
X108481810Y-87574524D01*
X108910381Y-114879286D02*
X107910381Y-114879286D01*
X107910381Y-114498333D01*
X107958000Y-114403095D01*
X108005619Y-114355476D01*
X108100857Y-114307857D01*
X108243714Y-114307857D01*
X108338952Y-114355476D01*
X108386571Y-114403095D01*
X108434190Y-114498333D01*
X108434190Y-114879286D01*
X108910381Y-113355476D02*
X108910381Y-113926905D01*
X108910381Y-113641191D02*
X107910381Y-113641191D01*
X108053238Y-113736429D01*
X108148476Y-113831667D01*
X108196095Y-113926905D01*
X107910381Y-113022143D02*
X107910381Y-112355476D01*
X108910381Y-112784048D01*
X108910381Y-140279286D02*
X107910381Y-140279286D01*
X107910381Y-139898333D01*
X107958000Y-139803095D01*
X108005619Y-139755476D01*
X108100857Y-139707857D01*
X108243714Y-139707857D01*
X108338952Y-139755476D01*
X108386571Y-139803095D01*
X108434190Y-139898333D01*
X108434190Y-140279286D01*
X108910381Y-138755476D02*
X108910381Y-139326905D01*
X108910381Y-139041191D02*
X107910381Y-139041191D01*
X108053238Y-139136429D01*
X108148476Y-139231667D01*
X108196095Y-139326905D01*
X108338952Y-138184048D02*
X108291333Y-138279286D01*
X108243714Y-138326905D01*
X108148476Y-138374524D01*
X108100857Y-138374524D01*
X108005619Y-138326905D01*
X107958000Y-138279286D01*
X107910381Y-138184048D01*
X107910381Y-137993571D01*
X107958000Y-137898333D01*
X108005619Y-137850714D01*
X108100857Y-137803095D01*
X108148476Y-137803095D01*
X108243714Y-137850714D01*
X108291333Y-137898333D01*
X108338952Y-137993571D01*
X108338952Y-138184048D01*
X108386571Y-138279286D01*
X108434190Y-138326905D01*
X108529429Y-138374524D01*
X108719905Y-138374524D01*
X108815143Y-138326905D01*
X108862762Y-138279286D01*
X108910381Y-138184048D01*
X108910381Y-137993571D01*
X108862762Y-137898333D01*
X108815143Y-137850714D01*
X108719905Y-137803095D01*
X108529429Y-137803095D01*
X108434190Y-137850714D01*
X108386571Y-137898333D01*
X108338952Y-137993571D01*
X98930381Y-61563095D02*
X99739905Y-61563095D01*
X99835143Y-61515476D01*
X99882762Y-61467857D01*
X99930381Y-61372619D01*
X99930381Y-61182142D01*
X99882762Y-61086904D01*
X99835143Y-61039285D01*
X99739905Y-60991666D01*
X98930381Y-60991666D01*
X99930381Y-59991666D02*
X99930381Y-60563095D01*
X99930381Y-60277381D02*
X98930381Y-60277381D01*
X99073238Y-60372619D01*
X99168476Y-60467857D01*
X99216095Y-60563095D01*
X98930381Y-59086904D02*
X98930381Y-59563095D01*
X99406571Y-59610714D01*
X99358952Y-59563095D01*
X99311333Y-59467857D01*
X99311333Y-59229761D01*
X99358952Y-59134523D01*
X99406571Y-59086904D01*
X99501810Y-59039285D01*
X99739905Y-59039285D01*
X99835143Y-59086904D01*
X99882762Y-59134523D01*
X99930381Y-59229761D01*
X99930381Y-59467857D01*
X99882762Y-59563095D01*
X99835143Y-59610714D01*
X90040381Y-83153095D02*
X90849905Y-83153095D01*
X90945143Y-83105476D01*
X90992762Y-83057857D01*
X91040381Y-82962619D01*
X91040381Y-82772142D01*
X90992762Y-82676904D01*
X90945143Y-82629285D01*
X90849905Y-82581666D01*
X90040381Y-82581666D01*
X91040381Y-81581666D02*
X91040381Y-82153095D01*
X91040381Y-81867381D02*
X90040381Y-81867381D01*
X90183238Y-81962619D01*
X90278476Y-82057857D01*
X90326095Y-82153095D01*
X90040381Y-80724523D02*
X90040381Y-80915000D01*
X90088000Y-81010238D01*
X90135619Y-81057857D01*
X90278476Y-81153095D01*
X90468952Y-81200714D01*
X90849905Y-81200714D01*
X90945143Y-81153095D01*
X90992762Y-81105476D01*
X91040381Y-81010238D01*
X91040381Y-80819761D01*
X90992762Y-80724523D01*
X90945143Y-80676904D01*
X90849905Y-80629285D01*
X90611810Y-80629285D01*
X90516571Y-80676904D01*
X90468952Y-80724523D01*
X90421333Y-80819761D01*
X90421333Y-81010238D01*
X90468952Y-81105476D01*
X90516571Y-81153095D01*
X90611810Y-81200714D01*
X96390381Y-103473095D02*
X97199905Y-103473095D01*
X97295143Y-103425476D01*
X97342762Y-103377857D01*
X97390381Y-103282619D01*
X97390381Y-103092142D01*
X97342762Y-102996904D01*
X97295143Y-102949285D01*
X97199905Y-102901666D01*
X96390381Y-102901666D01*
X97390381Y-101901666D02*
X97390381Y-102473095D01*
X97390381Y-102187381D02*
X96390381Y-102187381D01*
X96533238Y-102282619D01*
X96628476Y-102377857D01*
X96676095Y-102473095D01*
X96390381Y-101568333D02*
X96390381Y-100901666D01*
X97390381Y-101330238D01*
X98930381Y-127603095D02*
X99739905Y-127603095D01*
X99835143Y-127555476D01*
X99882762Y-127507857D01*
X99930381Y-127412619D01*
X99930381Y-127222142D01*
X99882762Y-127126904D01*
X99835143Y-127079285D01*
X99739905Y-127031666D01*
X98930381Y-127031666D01*
X99930381Y-126031666D02*
X99930381Y-126603095D01*
X99930381Y-126317381D02*
X98930381Y-126317381D01*
X99073238Y-126412619D01*
X99168476Y-126507857D01*
X99216095Y-126603095D01*
X99358952Y-125460238D02*
X99311333Y-125555476D01*
X99263714Y-125603095D01*
X99168476Y-125650714D01*
X99120857Y-125650714D01*
X99025619Y-125603095D01*
X98978000Y-125555476D01*
X98930381Y-125460238D01*
X98930381Y-125269761D01*
X98978000Y-125174523D01*
X99025619Y-125126904D01*
X99120857Y-125079285D01*
X99168476Y-125079285D01*
X99263714Y-125126904D01*
X99311333Y-125174523D01*
X99358952Y-125269761D01*
X99358952Y-125460238D01*
X99406571Y-125555476D01*
X99454190Y-125603095D01*
X99549429Y-125650714D01*
X99739905Y-125650714D01*
X99835143Y-125603095D01*
X99882762Y-125555476D01*
X99930381Y-125460238D01*
X99930381Y-125269761D01*
X99882762Y-125174523D01*
X99835143Y-125126904D01*
X99739905Y-125079285D01*
X99549429Y-125079285D01*
X99454190Y-125126904D01*
X99406571Y-125174523D01*
X99358952Y-125269761D01*
X31519905Y-77057381D02*
X31519905Y-76057381D01*
X31758000Y-76057381D01*
X31900858Y-76105000D01*
X31996096Y-76200238D01*
X32043715Y-76295476D01*
X32091334Y-76485952D01*
X32091334Y-76628810D01*
X32043715Y-76819286D01*
X31996096Y-76914524D01*
X31900858Y-77009762D01*
X31758000Y-77057381D01*
X31519905Y-77057381D01*
X33043715Y-77057381D02*
X32472286Y-77057381D01*
X32758000Y-77057381D02*
X32758000Y-76057381D01*
X32662762Y-76200238D01*
X32567524Y-76295476D01*
X32472286Y-76343095D01*
X65182762Y-83732619D02*
X65087524Y-83685000D01*
X64992286Y-83589762D01*
X64849429Y-83446905D01*
X64754190Y-83399286D01*
X64658952Y-83399286D01*
X64706571Y-83637381D02*
X64611333Y-83589762D01*
X64516095Y-83494524D01*
X64468476Y-83304048D01*
X64468476Y-82970714D01*
X64516095Y-82780238D01*
X64611333Y-82685000D01*
X64706571Y-82637381D01*
X64897048Y-82637381D01*
X64992286Y-82685000D01*
X65087524Y-82780238D01*
X65135143Y-82970714D01*
X65135143Y-83304048D01*
X65087524Y-83494524D01*
X64992286Y-83589762D01*
X64897048Y-83637381D01*
X64706571Y-83637381D01*
X66087524Y-83637381D02*
X65516095Y-83637381D01*
X65801809Y-83637381D02*
X65801809Y-82637381D01*
X65706571Y-82780238D01*
X65611333Y-82875476D01*
X65516095Y-82923095D01*
X37171334Y-76657381D02*
X36838000Y-76181190D01*
X36599905Y-76657381D02*
X36599905Y-75657381D01*
X36980858Y-75657381D01*
X37076096Y-75705000D01*
X37123715Y-75752619D01*
X37171334Y-75847857D01*
X37171334Y-75990714D01*
X37123715Y-76085952D01*
X37076096Y-76133571D01*
X36980858Y-76181190D01*
X36599905Y-76181190D01*
X38123715Y-76657381D02*
X37552286Y-76657381D01*
X37838000Y-76657381D02*
X37838000Y-75657381D01*
X37742762Y-75800238D01*
X37647524Y-75895476D01*
X37552286Y-75943095D01*
X37171334Y-80467381D02*
X36838000Y-79991190D01*
X36599905Y-80467381D02*
X36599905Y-79467381D01*
X36980858Y-79467381D01*
X37076096Y-79515000D01*
X37123715Y-79562619D01*
X37171334Y-79657857D01*
X37171334Y-79800714D01*
X37123715Y-79895952D01*
X37076096Y-79943571D01*
X36980858Y-79991190D01*
X36599905Y-79991190D01*
X37552286Y-79562619D02*
X37599905Y-79515000D01*
X37695143Y-79467381D01*
X37933239Y-79467381D01*
X38028477Y-79515000D01*
X38076096Y-79562619D01*
X38123715Y-79657857D01*
X38123715Y-79753095D01*
X38076096Y-79895952D01*
X37504667Y-80467381D01*
X38123715Y-80467381D01*
X29932762Y-74088333D02*
X29980381Y-73945476D01*
X29980381Y-73707380D01*
X29932762Y-73612142D01*
X29885143Y-73564523D01*
X29789905Y-73516904D01*
X29694667Y-73516904D01*
X29599429Y-73564523D01*
X29551810Y-73612142D01*
X29504190Y-73707380D01*
X29456571Y-73897857D01*
X29408952Y-73993095D01*
X29361333Y-74040714D01*
X29266095Y-74088333D01*
X29170857Y-74088333D01*
X29075619Y-74040714D01*
X29028000Y-73993095D01*
X28980381Y-73897857D01*
X28980381Y-73659761D01*
X29028000Y-73516904D01*
X28980381Y-73183571D02*
X29980381Y-72945476D01*
X29266095Y-72754999D01*
X29980381Y-72564523D01*
X28980381Y-72326428D01*
X29980381Y-71421666D02*
X29980381Y-71993095D01*
X29980381Y-71707381D02*
X28980381Y-71707381D01*
X29123238Y-71802619D01*
X29218476Y-71897857D01*
X29266095Y-71993095D01*
X54845143Y-90971666D02*
X54892762Y-91019285D01*
X54940381Y-91162142D01*
X54940381Y-91257380D01*
X54892762Y-91400238D01*
X54797524Y-91495476D01*
X54702286Y-91543095D01*
X54511810Y-91590714D01*
X54368952Y-91590714D01*
X54178476Y-91543095D01*
X54083238Y-91495476D01*
X53988000Y-91400238D01*
X53940381Y-91257380D01*
X53940381Y-91162142D01*
X53988000Y-91019285D01*
X54035619Y-90971666D01*
X54940381Y-90019285D02*
X54940381Y-90590714D01*
X54940381Y-90305000D02*
X53940381Y-90305000D01*
X54083238Y-90400238D01*
X54178476Y-90495476D01*
X54226095Y-90590714D01*
X44685143Y-90971666D02*
X44732762Y-91019285D01*
X44780381Y-91162142D01*
X44780381Y-91257380D01*
X44732762Y-91400238D01*
X44637524Y-91495476D01*
X44542286Y-91543095D01*
X44351810Y-91590714D01*
X44208952Y-91590714D01*
X44018476Y-91543095D01*
X43923238Y-91495476D01*
X43828000Y-91400238D01*
X43780381Y-91257380D01*
X43780381Y-91162142D01*
X43828000Y-91019285D01*
X43875619Y-90971666D01*
X43875619Y-90590714D02*
X43828000Y-90543095D01*
X43780381Y-90447857D01*
X43780381Y-90209761D01*
X43828000Y-90114523D01*
X43875619Y-90066904D01*
X43970857Y-90019285D01*
X44066095Y-90019285D01*
X44208952Y-90066904D01*
X44780381Y-90638333D01*
X44780381Y-90019285D01*
X31519905Y-80867381D02*
X31519905Y-79867381D01*
X31758000Y-79867381D01*
X31900858Y-79915000D01*
X31996096Y-80010238D01*
X32043715Y-80105476D01*
X32091334Y-80295952D01*
X32091334Y-80438810D01*
X32043715Y-80629286D01*
X31996096Y-80724524D01*
X31900858Y-80819762D01*
X31758000Y-80867381D01*
X31519905Y-80867381D01*
X32472286Y-79962619D02*
X32519905Y-79915000D01*
X32615143Y-79867381D01*
X32853239Y-79867381D01*
X32948477Y-79915000D01*
X32996096Y-79962619D01*
X33043715Y-80057857D01*
X33043715Y-80153095D01*
X32996096Y-80295952D01*
X32424667Y-80867381D01*
X33043715Y-80867381D01*
X31519905Y-84677381D02*
X31519905Y-83677381D01*
X31758000Y-83677381D01*
X31900858Y-83725000D01*
X31996096Y-83820238D01*
X32043715Y-83915476D01*
X32091334Y-84105952D01*
X32091334Y-84248810D01*
X32043715Y-84439286D01*
X31996096Y-84534524D01*
X31900858Y-84629762D01*
X31758000Y-84677381D01*
X31519905Y-84677381D01*
X32424667Y-83677381D02*
X33043715Y-83677381D01*
X32710381Y-84058333D01*
X32853239Y-84058333D01*
X32948477Y-84105952D01*
X32996096Y-84153571D01*
X33043715Y-84248810D01*
X33043715Y-84486905D01*
X32996096Y-84582143D01*
X32948477Y-84629762D01*
X32853239Y-84677381D01*
X32567524Y-84677381D01*
X32472286Y-84629762D01*
X32424667Y-84582143D01*
X31519905Y-88487381D02*
X31519905Y-87487381D01*
X31758000Y-87487381D01*
X31900858Y-87535000D01*
X31996096Y-87630238D01*
X32043715Y-87725476D01*
X32091334Y-87915952D01*
X32091334Y-88058810D01*
X32043715Y-88249286D01*
X31996096Y-88344524D01*
X31900858Y-88439762D01*
X31758000Y-88487381D01*
X31519905Y-88487381D01*
X32948477Y-87820714D02*
X32948477Y-88487381D01*
X32710381Y-87439762D02*
X32472286Y-88154048D01*
X33091334Y-88154048D01*
X32789905Y-58547381D02*
X32789905Y-57547381D01*
X33028000Y-57547381D01*
X33170858Y-57595000D01*
X33266096Y-57690238D01*
X33313715Y-57785476D01*
X33361334Y-57975952D01*
X33361334Y-58118810D01*
X33313715Y-58309286D01*
X33266096Y-58404524D01*
X33170858Y-58499762D01*
X33028000Y-58547381D01*
X32789905Y-58547381D01*
X34266096Y-57547381D02*
X33789905Y-57547381D01*
X33742286Y-58023571D01*
X33789905Y-57975952D01*
X33885143Y-57928333D01*
X34123239Y-57928333D01*
X34218477Y-57975952D01*
X34266096Y-58023571D01*
X34313715Y-58118810D01*
X34313715Y-58356905D01*
X34266096Y-58452143D01*
X34218477Y-58499762D01*
X34123239Y-58547381D01*
X33885143Y-58547381D01*
X33789905Y-58499762D01*
X33742286Y-58452143D01*
X32789905Y-122047381D02*
X32789905Y-121047381D01*
X33028000Y-121047381D01*
X33170858Y-121095000D01*
X33266096Y-121190238D01*
X33313715Y-121285476D01*
X33361334Y-121475952D01*
X33361334Y-121618810D01*
X33313715Y-121809286D01*
X33266096Y-121904524D01*
X33170858Y-121999762D01*
X33028000Y-122047381D01*
X32789905Y-122047381D01*
X34218477Y-121047381D02*
X34028000Y-121047381D01*
X33932762Y-121095000D01*
X33885143Y-121142619D01*
X33789905Y-121285476D01*
X33742286Y-121475952D01*
X33742286Y-121856905D01*
X33789905Y-121952143D01*
X33837524Y-121999762D01*
X33932762Y-122047381D01*
X34123239Y-122047381D01*
X34218477Y-121999762D01*
X34266096Y-121952143D01*
X34313715Y-121856905D01*
X34313715Y-121618810D01*
X34266096Y-121523571D01*
X34218477Y-121475952D01*
X34123239Y-121428333D01*
X33932762Y-121428333D01*
X33837524Y-121475952D01*
X33789905Y-121523571D01*
X33742286Y-121618810D01*
X36520381Y-117419286D02*
X35520381Y-117419286D01*
X35520381Y-117038333D01*
X35568000Y-116943095D01*
X35615619Y-116895476D01*
X35710857Y-116847857D01*
X35853714Y-116847857D01*
X35948952Y-116895476D01*
X35996571Y-116943095D01*
X36044190Y-117038333D01*
X36044190Y-117419286D01*
X36520381Y-115895476D02*
X36520381Y-116466905D01*
X36520381Y-116181191D02*
X35520381Y-116181191D01*
X35663238Y-116276429D01*
X35758476Y-116371667D01*
X35806095Y-116466905D01*
X35520381Y-115276429D02*
X35520381Y-115181190D01*
X35568000Y-115085952D01*
X35615619Y-115038333D01*
X35710857Y-114990714D01*
X35901333Y-114943095D01*
X36139429Y-114943095D01*
X36329905Y-114990714D01*
X36425143Y-115038333D01*
X36472762Y-115085952D01*
X36520381Y-115181190D01*
X36520381Y-115276429D01*
X36472762Y-115371667D01*
X36425143Y-115419286D01*
X36329905Y-115466905D01*
X36139429Y-115514524D01*
X35901333Y-115514524D01*
X35710857Y-115466905D01*
X35615619Y-115419286D01*
X35568000Y-115371667D01*
X35520381Y-115276429D01*
X131770381Y-66619286D02*
X130770381Y-66619286D01*
X130770381Y-66238333D01*
X130818000Y-66143095D01*
X130865619Y-66095476D01*
X130960857Y-66047857D01*
X131103714Y-66047857D01*
X131198952Y-66095476D01*
X131246571Y-66143095D01*
X131294190Y-66238333D01*
X131294190Y-66619286D01*
X130865619Y-65666905D02*
X130818000Y-65619286D01*
X130770381Y-65524048D01*
X130770381Y-65285952D01*
X130818000Y-65190714D01*
X130865619Y-65143095D01*
X130960857Y-65095476D01*
X131056095Y-65095476D01*
X131198952Y-65143095D01*
X131770381Y-65714524D01*
X131770381Y-65095476D01*
X131770381Y-64143095D02*
X131770381Y-64714524D01*
X131770381Y-64428810D02*
X130770381Y-64428810D01*
X130913238Y-64524048D01*
X131008476Y-64619286D01*
X131056095Y-64714524D01*
X131770381Y-89479286D02*
X130770381Y-89479286D01*
X130770381Y-89098333D01*
X130818000Y-89003095D01*
X130865619Y-88955476D01*
X130960857Y-88907857D01*
X131103714Y-88907857D01*
X131198952Y-88955476D01*
X131246571Y-89003095D01*
X131294190Y-89098333D01*
X131294190Y-89479286D01*
X130865619Y-88526905D02*
X130818000Y-88479286D01*
X130770381Y-88384048D01*
X130770381Y-88145952D01*
X130818000Y-88050714D01*
X130865619Y-88003095D01*
X130960857Y-87955476D01*
X131056095Y-87955476D01*
X131198952Y-88003095D01*
X131770381Y-88574524D01*
X131770381Y-87955476D01*
X130865619Y-87574524D02*
X130818000Y-87526905D01*
X130770381Y-87431667D01*
X130770381Y-87193571D01*
X130818000Y-87098333D01*
X130865619Y-87050714D01*
X130960857Y-87003095D01*
X131056095Y-87003095D01*
X131198952Y-87050714D01*
X131770381Y-87622143D01*
X131770381Y-87003095D01*
X131770381Y-114879286D02*
X130770381Y-114879286D01*
X130770381Y-114498333D01*
X130818000Y-114403095D01*
X130865619Y-114355476D01*
X130960857Y-114307857D01*
X131103714Y-114307857D01*
X131198952Y-114355476D01*
X131246571Y-114403095D01*
X131294190Y-114498333D01*
X131294190Y-114879286D01*
X130865619Y-113926905D02*
X130818000Y-113879286D01*
X130770381Y-113784048D01*
X130770381Y-113545952D01*
X130818000Y-113450714D01*
X130865619Y-113403095D01*
X130960857Y-113355476D01*
X131056095Y-113355476D01*
X131198952Y-113403095D01*
X131770381Y-113974524D01*
X131770381Y-113355476D01*
X130770381Y-113022143D02*
X130770381Y-112403095D01*
X131151333Y-112736429D01*
X131151333Y-112593571D01*
X131198952Y-112498333D01*
X131246571Y-112450714D01*
X131341810Y-112403095D01*
X131579905Y-112403095D01*
X131675143Y-112450714D01*
X131722762Y-112498333D01*
X131770381Y-112593571D01*
X131770381Y-112879286D01*
X131722762Y-112974524D01*
X131675143Y-113022143D01*
X131770381Y-140279286D02*
X130770381Y-140279286D01*
X130770381Y-139898333D01*
X130818000Y-139803095D01*
X130865619Y-139755476D01*
X130960857Y-139707857D01*
X131103714Y-139707857D01*
X131198952Y-139755476D01*
X131246571Y-139803095D01*
X131294190Y-139898333D01*
X131294190Y-140279286D01*
X130865619Y-139326905D02*
X130818000Y-139279286D01*
X130770381Y-139184048D01*
X130770381Y-138945952D01*
X130818000Y-138850714D01*
X130865619Y-138803095D01*
X130960857Y-138755476D01*
X131056095Y-138755476D01*
X131198952Y-138803095D01*
X131770381Y-139374524D01*
X131770381Y-138755476D01*
X131103714Y-137898333D02*
X131770381Y-137898333D01*
X130722762Y-138136429D02*
X131437048Y-138374524D01*
X131437048Y-137755476D01*
X154630381Y-66619286D02*
X153630381Y-66619286D01*
X153630381Y-66238333D01*
X153678000Y-66143095D01*
X153725619Y-66095476D01*
X153820857Y-66047857D01*
X153963714Y-66047857D01*
X154058952Y-66095476D01*
X154106571Y-66143095D01*
X154154190Y-66238333D01*
X154154190Y-66619286D01*
X153725619Y-65666905D02*
X153678000Y-65619286D01*
X153630381Y-65524048D01*
X153630381Y-65285952D01*
X153678000Y-65190714D01*
X153725619Y-65143095D01*
X153820857Y-65095476D01*
X153916095Y-65095476D01*
X154058952Y-65143095D01*
X154630381Y-65714524D01*
X154630381Y-65095476D01*
X153630381Y-64190714D02*
X153630381Y-64666905D01*
X154106571Y-64714524D01*
X154058952Y-64666905D01*
X154011333Y-64571667D01*
X154011333Y-64333571D01*
X154058952Y-64238333D01*
X154106571Y-64190714D01*
X154201810Y-64143095D01*
X154439905Y-64143095D01*
X154535143Y-64190714D01*
X154582762Y-64238333D01*
X154630381Y-64333571D01*
X154630381Y-64571667D01*
X154582762Y-64666905D01*
X154535143Y-64714524D01*
X154630381Y-89479286D02*
X153630381Y-89479286D01*
X153630381Y-89098333D01*
X153678000Y-89003095D01*
X153725619Y-88955476D01*
X153820857Y-88907857D01*
X153963714Y-88907857D01*
X154058952Y-88955476D01*
X154106571Y-89003095D01*
X154154190Y-89098333D01*
X154154190Y-89479286D01*
X153725619Y-88526905D02*
X153678000Y-88479286D01*
X153630381Y-88384048D01*
X153630381Y-88145952D01*
X153678000Y-88050714D01*
X153725619Y-88003095D01*
X153820857Y-87955476D01*
X153916095Y-87955476D01*
X154058952Y-88003095D01*
X154630381Y-88574524D01*
X154630381Y-87955476D01*
X153630381Y-87098333D02*
X153630381Y-87288810D01*
X153678000Y-87384048D01*
X153725619Y-87431667D01*
X153868476Y-87526905D01*
X154058952Y-87574524D01*
X154439905Y-87574524D01*
X154535143Y-87526905D01*
X154582762Y-87479286D01*
X154630381Y-87384048D01*
X154630381Y-87193571D01*
X154582762Y-87098333D01*
X154535143Y-87050714D01*
X154439905Y-87003095D01*
X154201810Y-87003095D01*
X154106571Y-87050714D01*
X154058952Y-87098333D01*
X154011333Y-87193571D01*
X154011333Y-87384048D01*
X154058952Y-87479286D01*
X154106571Y-87526905D01*
X154201810Y-87574524D01*
X154630381Y-114879286D02*
X153630381Y-114879286D01*
X153630381Y-114498333D01*
X153678000Y-114403095D01*
X153725619Y-114355476D01*
X153820857Y-114307857D01*
X153963714Y-114307857D01*
X154058952Y-114355476D01*
X154106571Y-114403095D01*
X154154190Y-114498333D01*
X154154190Y-114879286D01*
X153725619Y-113926905D02*
X153678000Y-113879286D01*
X153630381Y-113784048D01*
X153630381Y-113545952D01*
X153678000Y-113450714D01*
X153725619Y-113403095D01*
X153820857Y-113355476D01*
X153916095Y-113355476D01*
X154058952Y-113403095D01*
X154630381Y-113974524D01*
X154630381Y-113355476D01*
X153630381Y-113022143D02*
X153630381Y-112355476D01*
X154630381Y-112784048D01*
X154630381Y-140279286D02*
X153630381Y-140279286D01*
X153630381Y-139898333D01*
X153678000Y-139803095D01*
X153725619Y-139755476D01*
X153820857Y-139707857D01*
X153963714Y-139707857D01*
X154058952Y-139755476D01*
X154106571Y-139803095D01*
X154154190Y-139898333D01*
X154154190Y-140279286D01*
X153725619Y-139326905D02*
X153678000Y-139279286D01*
X153630381Y-139184048D01*
X153630381Y-138945952D01*
X153678000Y-138850714D01*
X153725619Y-138803095D01*
X153820857Y-138755476D01*
X153916095Y-138755476D01*
X154058952Y-138803095D01*
X154630381Y-139374524D01*
X154630381Y-138755476D01*
X154058952Y-138184048D02*
X154011333Y-138279286D01*
X153963714Y-138326905D01*
X153868476Y-138374524D01*
X153820857Y-138374524D01*
X153725619Y-138326905D01*
X153678000Y-138279286D01*
X153630381Y-138184048D01*
X153630381Y-137993571D01*
X153678000Y-137898333D01*
X153725619Y-137850714D01*
X153820857Y-137803095D01*
X153868476Y-137803095D01*
X153963714Y-137850714D01*
X154011333Y-137898333D01*
X154058952Y-137993571D01*
X154058952Y-138184048D01*
X154106571Y-138279286D01*
X154154190Y-138326905D01*
X154249429Y-138374524D01*
X154439905Y-138374524D01*
X154535143Y-138326905D01*
X154582762Y-138279286D01*
X154630381Y-138184048D01*
X154630381Y-137993571D01*
X154582762Y-137898333D01*
X154535143Y-137850714D01*
X154439905Y-137803095D01*
X154249429Y-137803095D01*
X154154190Y-137850714D01*
X154106571Y-137898333D01*
X154058952Y-137993571D01*
X68992762Y-85002619D02*
X68897524Y-84955000D01*
X68802286Y-84859762D01*
X68659429Y-84716905D01*
X68564190Y-84669286D01*
X68468952Y-84669286D01*
X68516571Y-84907381D02*
X68421333Y-84859762D01*
X68326095Y-84764524D01*
X68278476Y-84574048D01*
X68278476Y-84240714D01*
X68326095Y-84050238D01*
X68421333Y-83955000D01*
X68516571Y-83907381D01*
X68707048Y-83907381D01*
X68802286Y-83955000D01*
X68897524Y-84050238D01*
X68945143Y-84240714D01*
X68945143Y-84574048D01*
X68897524Y-84764524D01*
X68802286Y-84859762D01*
X68707048Y-84907381D01*
X68516571Y-84907381D01*
X69326095Y-84002619D02*
X69373714Y-83955000D01*
X69468952Y-83907381D01*
X69707048Y-83907381D01*
X69802286Y-83955000D01*
X69849905Y-84002619D01*
X69897524Y-84097857D01*
X69897524Y-84193095D01*
X69849905Y-84335952D01*
X69278476Y-84907381D01*
X69897524Y-84907381D01*
X37171334Y-84277381D02*
X36838000Y-83801190D01*
X36599905Y-84277381D02*
X36599905Y-83277381D01*
X36980858Y-83277381D01*
X37076096Y-83325000D01*
X37123715Y-83372619D01*
X37171334Y-83467857D01*
X37171334Y-83610714D01*
X37123715Y-83705952D01*
X37076096Y-83753571D01*
X36980858Y-83801190D01*
X36599905Y-83801190D01*
X37504667Y-83277381D02*
X38123715Y-83277381D01*
X37790381Y-83658333D01*
X37933239Y-83658333D01*
X38028477Y-83705952D01*
X38076096Y-83753571D01*
X38123715Y-83848810D01*
X38123715Y-84086905D01*
X38076096Y-84182143D01*
X38028477Y-84229762D01*
X37933239Y-84277381D01*
X37647524Y-84277381D01*
X37552286Y-84229762D01*
X37504667Y-84182143D01*
X37171334Y-88087381D02*
X36838000Y-87611190D01*
X36599905Y-88087381D02*
X36599905Y-87087381D01*
X36980858Y-87087381D01*
X37076096Y-87135000D01*
X37123715Y-87182619D01*
X37171334Y-87277857D01*
X37171334Y-87420714D01*
X37123715Y-87515952D01*
X37076096Y-87563571D01*
X36980858Y-87611190D01*
X36599905Y-87611190D01*
X38028477Y-87420714D02*
X38028477Y-88087381D01*
X37790381Y-87039762D02*
X37552286Y-87754048D01*
X38171334Y-87754048D01*
X71440381Y-79541666D02*
X70964190Y-79875000D01*
X71440381Y-80113095D02*
X70440381Y-80113095D01*
X70440381Y-79732142D01*
X70488000Y-79636904D01*
X70535619Y-79589285D01*
X70630857Y-79541666D01*
X70773714Y-79541666D01*
X70868952Y-79589285D01*
X70916571Y-79636904D01*
X70964190Y-79732142D01*
X70964190Y-80113095D01*
X70440381Y-78636904D02*
X70440381Y-79113095D01*
X70916571Y-79160714D01*
X70868952Y-79113095D01*
X70821333Y-79017857D01*
X70821333Y-78779761D01*
X70868952Y-78684523D01*
X70916571Y-78636904D01*
X71011810Y-78589285D01*
X71249905Y-78589285D01*
X71345143Y-78636904D01*
X71392762Y-78684523D01*
X71440381Y-78779761D01*
X71440381Y-79017857D01*
X71392762Y-79113095D01*
X71345143Y-79160714D01*
X63830381Y-88431666D02*
X63354190Y-88765000D01*
X63830381Y-89003095D02*
X62830381Y-89003095D01*
X62830381Y-88622142D01*
X62878000Y-88526904D01*
X62925619Y-88479285D01*
X63020857Y-88431666D01*
X63163714Y-88431666D01*
X63258952Y-88479285D01*
X63306571Y-88526904D01*
X63354190Y-88622142D01*
X63354190Y-89003095D01*
X62830381Y-87574523D02*
X62830381Y-87765000D01*
X62878000Y-87860238D01*
X62925619Y-87907857D01*
X63068476Y-88003095D01*
X63258952Y-88050714D01*
X63639905Y-88050714D01*
X63735143Y-88003095D01*
X63782762Y-87955476D01*
X63830381Y-87860238D01*
X63830381Y-87669761D01*
X63782762Y-87574523D01*
X63735143Y-87526904D01*
X63639905Y-87479285D01*
X63401810Y-87479285D01*
X63306571Y-87526904D01*
X63258952Y-87574523D01*
X63211333Y-87669761D01*
X63211333Y-87860238D01*
X63258952Y-87955476D01*
X63306571Y-88003095D01*
X63401810Y-88050714D01*
X50546095Y-95507381D02*
X50546095Y-96316905D01*
X50593714Y-96412143D01*
X50641333Y-96459762D01*
X50736571Y-96507381D01*
X50927048Y-96507381D01*
X51022286Y-96459762D01*
X51069905Y-96412143D01*
X51117524Y-96316905D01*
X51117524Y-95507381D01*
X52022286Y-95840714D02*
X52022286Y-96507381D01*
X51784190Y-95459762D02*
X51546095Y-96174048D01*
X52165143Y-96174048D01*
X94448381Y-76326905D02*
X95257905Y-76326905D01*
X95353143Y-76279286D01*
X95400762Y-76231667D01*
X95448381Y-76136429D01*
X95448381Y-75945952D01*
X95400762Y-75850714D01*
X95353143Y-75803095D01*
X95257905Y-75755476D01*
X94448381Y-75755476D01*
X94448381Y-74803095D02*
X94448381Y-75279286D01*
X94924571Y-75326905D01*
X94876952Y-75279286D01*
X94829333Y-75184048D01*
X94829333Y-74945952D01*
X94876952Y-74850714D01*
X94924571Y-74803095D01*
X95019810Y-74755476D01*
X95257905Y-74755476D01*
X95353143Y-74803095D01*
X95400762Y-74850714D01*
X95448381Y-74945952D01*
X95448381Y-75184048D01*
X95400762Y-75279286D01*
X95353143Y-75326905D01*
X114839905Y-63497381D02*
X114839905Y-64306905D01*
X114887524Y-64402143D01*
X114935143Y-64449762D01*
X115030381Y-64497381D01*
X115220858Y-64497381D01*
X115316096Y-64449762D01*
X115363715Y-64402143D01*
X115411334Y-64306905D01*
X115411334Y-63497381D01*
X115839905Y-63592619D02*
X115887524Y-63545000D01*
X115982762Y-63497381D01*
X116220858Y-63497381D01*
X116316096Y-63545000D01*
X116363715Y-63592619D01*
X116411334Y-63687857D01*
X116411334Y-63783095D01*
X116363715Y-63925952D01*
X115792286Y-64497381D01*
X116411334Y-64497381D01*
X117363715Y-64497381D02*
X116792286Y-64497381D01*
X117078000Y-64497381D02*
X117078000Y-63497381D01*
X116982762Y-63640238D01*
X116887524Y-63735476D01*
X116792286Y-63783095D01*
X114839905Y-86357381D02*
X114839905Y-87166905D01*
X114887524Y-87262143D01*
X114935143Y-87309762D01*
X115030381Y-87357381D01*
X115220858Y-87357381D01*
X115316096Y-87309762D01*
X115363715Y-87262143D01*
X115411334Y-87166905D01*
X115411334Y-86357381D01*
X115839905Y-86452619D02*
X115887524Y-86405000D01*
X115982762Y-86357381D01*
X116220858Y-86357381D01*
X116316096Y-86405000D01*
X116363715Y-86452619D01*
X116411334Y-86547857D01*
X116411334Y-86643095D01*
X116363715Y-86785952D01*
X115792286Y-87357381D01*
X116411334Y-87357381D01*
X116792286Y-86452619D02*
X116839905Y-86405000D01*
X116935143Y-86357381D01*
X117173239Y-86357381D01*
X117268477Y-86405000D01*
X117316096Y-86452619D01*
X117363715Y-86547857D01*
X117363715Y-86643095D01*
X117316096Y-86785952D01*
X116744667Y-87357381D01*
X117363715Y-87357381D01*
X114839905Y-111757381D02*
X114839905Y-112566905D01*
X114887524Y-112662143D01*
X114935143Y-112709762D01*
X115030381Y-112757381D01*
X115220858Y-112757381D01*
X115316096Y-112709762D01*
X115363715Y-112662143D01*
X115411334Y-112566905D01*
X115411334Y-111757381D01*
X115839905Y-111852619D02*
X115887524Y-111805000D01*
X115982762Y-111757381D01*
X116220858Y-111757381D01*
X116316096Y-111805000D01*
X116363715Y-111852619D01*
X116411334Y-111947857D01*
X116411334Y-112043095D01*
X116363715Y-112185952D01*
X115792286Y-112757381D01*
X116411334Y-112757381D01*
X116744667Y-111757381D02*
X117363715Y-111757381D01*
X117030381Y-112138333D01*
X117173239Y-112138333D01*
X117268477Y-112185952D01*
X117316096Y-112233571D01*
X117363715Y-112328810D01*
X117363715Y-112566905D01*
X117316096Y-112662143D01*
X117268477Y-112709762D01*
X117173239Y-112757381D01*
X116887524Y-112757381D01*
X116792286Y-112709762D01*
X116744667Y-112662143D01*
X114839905Y-137157381D02*
X114839905Y-137966905D01*
X114887524Y-138062143D01*
X114935143Y-138109762D01*
X115030381Y-138157381D01*
X115220858Y-138157381D01*
X115316096Y-138109762D01*
X115363715Y-138062143D01*
X115411334Y-137966905D01*
X115411334Y-137157381D01*
X115839905Y-137252619D02*
X115887524Y-137205000D01*
X115982762Y-137157381D01*
X116220858Y-137157381D01*
X116316096Y-137205000D01*
X116363715Y-137252619D01*
X116411334Y-137347857D01*
X116411334Y-137443095D01*
X116363715Y-137585952D01*
X115792286Y-138157381D01*
X116411334Y-138157381D01*
X117268477Y-137490714D02*
X117268477Y-138157381D01*
X117030381Y-137109762D02*
X116792286Y-137824048D01*
X117411334Y-137824048D01*
X137699905Y-63497381D02*
X137699905Y-64306905D01*
X137747524Y-64402143D01*
X137795143Y-64449762D01*
X137890381Y-64497381D01*
X138080858Y-64497381D01*
X138176096Y-64449762D01*
X138223715Y-64402143D01*
X138271334Y-64306905D01*
X138271334Y-63497381D01*
X138699905Y-63592619D02*
X138747524Y-63545000D01*
X138842762Y-63497381D01*
X139080858Y-63497381D01*
X139176096Y-63545000D01*
X139223715Y-63592619D01*
X139271334Y-63687857D01*
X139271334Y-63783095D01*
X139223715Y-63925952D01*
X138652286Y-64497381D01*
X139271334Y-64497381D01*
X140176096Y-63497381D02*
X139699905Y-63497381D01*
X139652286Y-63973571D01*
X139699905Y-63925952D01*
X139795143Y-63878333D01*
X140033239Y-63878333D01*
X140128477Y-63925952D01*
X140176096Y-63973571D01*
X140223715Y-64068810D01*
X140223715Y-64306905D01*
X140176096Y-64402143D01*
X140128477Y-64449762D01*
X140033239Y-64497381D01*
X139795143Y-64497381D01*
X139699905Y-64449762D01*
X139652286Y-64402143D01*
X137699905Y-86357381D02*
X137699905Y-87166905D01*
X137747524Y-87262143D01*
X137795143Y-87309762D01*
X137890381Y-87357381D01*
X138080858Y-87357381D01*
X138176096Y-87309762D01*
X138223715Y-87262143D01*
X138271334Y-87166905D01*
X138271334Y-86357381D01*
X138699905Y-86452619D02*
X138747524Y-86405000D01*
X138842762Y-86357381D01*
X139080858Y-86357381D01*
X139176096Y-86405000D01*
X139223715Y-86452619D01*
X139271334Y-86547857D01*
X139271334Y-86643095D01*
X139223715Y-86785952D01*
X138652286Y-87357381D01*
X139271334Y-87357381D01*
X140128477Y-86357381D02*
X139938000Y-86357381D01*
X139842762Y-86405000D01*
X139795143Y-86452619D01*
X139699905Y-86595476D01*
X139652286Y-86785952D01*
X139652286Y-87166905D01*
X139699905Y-87262143D01*
X139747524Y-87309762D01*
X139842762Y-87357381D01*
X140033239Y-87357381D01*
X140128477Y-87309762D01*
X140176096Y-87262143D01*
X140223715Y-87166905D01*
X140223715Y-86928810D01*
X140176096Y-86833571D01*
X140128477Y-86785952D01*
X140033239Y-86738333D01*
X139842762Y-86738333D01*
X139747524Y-86785952D01*
X139699905Y-86833571D01*
X139652286Y-86928810D01*
X137699905Y-111757381D02*
X137699905Y-112566905D01*
X137747524Y-112662143D01*
X137795143Y-112709762D01*
X137890381Y-112757381D01*
X138080858Y-112757381D01*
X138176096Y-112709762D01*
X138223715Y-112662143D01*
X138271334Y-112566905D01*
X138271334Y-111757381D01*
X138699905Y-111852619D02*
X138747524Y-111805000D01*
X138842762Y-111757381D01*
X139080858Y-111757381D01*
X139176096Y-111805000D01*
X139223715Y-111852619D01*
X139271334Y-111947857D01*
X139271334Y-112043095D01*
X139223715Y-112185952D01*
X138652286Y-112757381D01*
X139271334Y-112757381D01*
X139604667Y-111757381D02*
X140271334Y-111757381D01*
X139842762Y-112757381D01*
X137699905Y-137157381D02*
X137699905Y-137966905D01*
X137747524Y-138062143D01*
X137795143Y-138109762D01*
X137890381Y-138157381D01*
X138080858Y-138157381D01*
X138176096Y-138109762D01*
X138223715Y-138062143D01*
X138271334Y-137966905D01*
X138271334Y-137157381D01*
X138699905Y-137252619D02*
X138747524Y-137205000D01*
X138842762Y-137157381D01*
X139080858Y-137157381D01*
X139176096Y-137205000D01*
X139223715Y-137252619D01*
X139271334Y-137347857D01*
X139271334Y-137443095D01*
X139223715Y-137585952D01*
X138652286Y-138157381D01*
X139271334Y-138157381D01*
X139842762Y-137585952D02*
X139747524Y-137538333D01*
X139699905Y-137490714D01*
X139652286Y-137395476D01*
X139652286Y-137347857D01*
X139699905Y-137252619D01*
X139747524Y-137205000D01*
X139842762Y-137157381D01*
X140033239Y-137157381D01*
X140128477Y-137205000D01*
X140176096Y-137252619D01*
X140223715Y-137347857D01*
X140223715Y-137395476D01*
X140176096Y-137490714D01*
X140128477Y-137538333D01*
X140033239Y-137585952D01*
X139842762Y-137585952D01*
X139747524Y-137633571D01*
X139699905Y-137681190D01*
X139652286Y-137776429D01*
X139652286Y-137966905D01*
X139699905Y-138062143D01*
X139747524Y-138109762D01*
X139842762Y-138157381D01*
X140033239Y-138157381D01*
X140128477Y-138109762D01*
X140176096Y-138062143D01*
X140223715Y-137966905D01*
X140223715Y-137776429D01*
X140176096Y-137681190D01*
X140128477Y-137633571D01*
X140033239Y-137585952D01*
X50731809Y-88481190D02*
X50731809Y-88957381D01*
X50398476Y-87957381D02*
X50731809Y-88481190D01*
X51065143Y-87957381D01*
X51922286Y-88957381D02*
X51350857Y-88957381D01*
X51636571Y-88957381D02*
X51636571Y-87957381D01*
X51541333Y-88100238D01*
X51446095Y-88195476D01*
X51350857Y-88243095D01*
M02*
